<svg width="10" height="12" viewBox="0 0 10 12" fill="none" xmlns="http://www.w3.org/2000/svg">
<path d="M7.32674 7.32656C7.29335 7.31517 7.25937 7.30976 7.22582 7.30976C7.0881 7.30976 6.95707 7.40044 6.89948 7.53915L6.11061 9.43618L5.49633 7.5H5.71509C5.9125 7.5 6.07224 7.33228 6.07224 7.125C6.07224 6.91772 5.91152 6.75 5.71509 6.75H4.28647C4.09004 6.75 3.92932 6.91875 3.92932 7.125C3.92932 7.33125 4.09004 7.5 4.28647 7.5H4.50503L3.89028 9.43688L3.10141 7.53984C3.04313 7.40156 2.91366 7.31016 2.77527 7.31016C2.74169 7.31016 2.70779 7.31551 2.67435 7.32691C1.11269 7.85941 -0.0154651 9.40324 0.000160324 11.2246C0.00455331 11.6578 0.361354 12 0.774313 12H9.22635C9.63931 12 9.99624 11.6585 9.99981 11.2247C10.0166 9.40313 8.88929 7.85859 7.32674 7.32656ZM0.774313 11.25C0.740562 11.25 0.717503 11.2251 0.715026 11.218C0.703604 9.88441 1.44183 8.69848 2.58227 8.16644L3.86459 11.25H0.774313ZM5.35793 11.2289H4.64363L4.31728 10.4442L5.00078 8.31094L5.68428 10.4644L5.35793 11.2289ZM9.22635 11.25H6.13697L7.41916 8.16562C8.55982 8.69766 9.29801 9.88359 9.28662 11.2172C9.28439 11.2242 9.25984 11.25 9.22635 11.25ZM5.00078 6C6.58007 6 7.85801 4.6582 7.85801 3C7.85801 1.3418 6.58007 0 5.00078 0C3.42149 0 2.14355 1.3418 2.14355 3C2.14355 4.6582 3.42261 6 5.00078 6ZM5.00078 0.75C6.18251 0.75 7.1437 1.75922 7.1437 3C7.1437 4.24055 6.18251 5.25 5.00078 5.25C3.81905 5.25 2.85786 4.23984 2.85786 3C2.85786 1.75922 3.81994 0.75 5.00078 0.75Z" fill="#F3F4F6"/>
</svg>
