<svg width="9" height="12" viewBox="0 0 9 12" fill="none" xmlns="http://www.w3.org/2000/svg">
<path d="M8.77969 3.5309L5.46797 0.219648C5.32734 0.0789966 5.13656 0 4.93781 0L1.5 0.00170835C0.671484 0.00170835 0 0.673097 0 1.50149L0.000152344 10.5002C0.000152344 11.3286 0.671637 12 1.50015 12H7.5C8.32852 12 9 11.3286 9 10.5002V4.06285C9 3.86366 8.92031 3.6715 8.77969 3.5309ZM8.47031 3.73009H5.8125C5.50266 3.73009 5.25 3.4777 5.25 3.16767V0.532026L8.47031 3.73009ZM7.5 11.604H1.5C0.879609 11.604 0.375 11.0994 0.375 10.4791V1.48041C0.375 0.860104 0.879609 0.355567 1.5 0.355567H4.875V3.14658C4.875 3.66353 5.29547 4.08394 5.8125 4.08394H8.625V10.458C8.625 11.1212 8.12109 11.604 7.5 11.604Z" fill="#F3F4F6"/>
</svg>
