<svg width="17" height="23" viewBox="0 0 17 23" fill="none" xmlns="http://www.w3.org/2000/svg">
<path d="M16.1721 4.19481L12.8682 0.84184C12.3339 0.302868 11.6122 4.49219e-06 10.8641 4.49219e-06L2.83333 0C1.26836 0 0 1.28701 0 2.875L0.00028776 20.125C0.00028776 21.7125 1.26865 23 2.83362 23H14.1667C15.725 23 17 21.7062 17 20.125V6.22618C17 5.467 16.7034 4.73477 16.1721 4.19481ZM14.875 20.125C14.875 20.5219 14.5578 20.8438 14.1667 20.8438H2.83422C2.44295 20.8438 2.12589 20.5219 2.12589 20.125L2.125 2.88084C2.125 2.48391 2.44216 2.16209 2.83333 2.16209H9.91667V5.75C9.91667 6.54377 10.5511 7.1875 11.3333 7.1875H14.8352V20.125H14.875ZM4.25 12.5781C4.25 13.1756 4.72813 13.6563 5.3125 13.6563H11.6875C12.2763 13.6563 12.75 13.1756 12.75 12.5781C12.75 11.9807 12.2763 11.5 11.6875 11.5H5.3125C4.72813 11.5 4.25 11.9852 4.25 12.5781ZM11.6875 15.8125H5.3125C4.72813 15.8125 4.25 16.2977 4.25 16.8906C4.25 17.4836 4.72591 17.9688 5.3125 17.9688H11.6875C12.2741 17.9688 12.75 17.4858 12.75 16.8906C12.75 16.2954 12.2763 15.8125 11.6875 15.8125Z" fill="white"/>
</svg>
