<svg width="31" height="29" viewBox="0 0 31 29" fill="none" xmlns="http://www.w3.org/2000/svg">
<path d="M22.7724 16.2365C20.0306 16.2365 17.731 18.197 17.1414 20.8061C15.741 20.2018 14.4586 20.3639 13.4857 20.7914C12.8813 18.1675 10.5818 16.2365 7.85471 16.2365C4.65596 16.2365 2.04683 18.8751 2.04683 22.1328C2.04683 25.3905 4.65596 28.0291 7.85471 28.0291C10.8913 28.0291 13.3678 25.6411 13.6036 22.6045C14.1048 22.2507 15.4167 21.5874 17.0235 22.634C17.2888 25.6559 19.7358 28.0291 22.7724 28.0291C25.9712 28.0291 28.5803 25.3905 28.5803 22.1328C28.5803 18.8751 25.9712 16.2365 22.7724 16.2365ZM7.85471 26.3487C5.55515 26.3487 3.71255 24.4619 3.71255 22.1328C3.71255 19.8038 5.56989 17.9169 7.85471 17.9169C10.1543 17.9169 11.9969 19.8038 11.9969 22.1328C11.9969 24.4619 10.1543 26.3487 7.85471 26.3487ZM22.7724 26.3487C20.4728 26.3487 18.6302 24.4619 18.6302 22.1328C18.6302 19.8038 20.4728 17.9169 22.7724 17.9169C25.072 17.9169 26.9293 19.8038 26.9293 22.1328C26.9293 24.4619 25.0572 26.3487 22.7724 26.3487ZM30.0544 12.5513H0.572754V14.7624H30.0544V12.5513ZM20.5171 0.950276C20.1928 0.227976 19.3673 -0.155285 18.586 0.095309L15.3136 1.18613L12.0264 0.095309L11.9527 0.0805682C11.1714 -0.140544 10.3459 0.272199 10.0511 1.02398L6.46908 10.3402H24.158L20.5613 1.02398L20.5171 0.950276Z" fill="#111827"/>
</svg>
