<svg width="121" height="121" viewBox="0 0 121 121" fill="none" xmlns="http://www.w3.org/2000/svg">
<g opacity="0.27">
<path d="M98.0477 25.1134L97.9462 25.2149L97.8447 25.3164L68.7771 54.3809L68.6756 54.4824L68.5741 54.5839L39.5066 83.6485L39.4051 83.7542L39.3036 83.8557L18.9609 104.196L19.2654 104.475L39.5954 84.1475L39.6969 84.046L39.7984 83.9445L68.8659 54.8799L68.9674 54.7784L69.069 54.6769L98.1407 25.6124L98.2422 25.5067L98.3437 25.4052L104.21 19.5398L103.931 19.2354L98.0477 25.1134Z" fill="#CDCDCD"/>
<path d="M100.873 28.1408L100.771 28.2423L71.7037 57.3068L71.6022 57.4083L71.5007 57.5098L42.4331 86.5701L42.3316 86.6716L42.2301 86.7731L22.0693 106.932L22.3908 107.194L42.5219 87.0649L42.6234 86.9634L42.7249 86.8619L71.7925 57.8143L71.894 57.7128L71.9955 57.6113L101.076 28.5383L101.177 28.4368L101.279 28.3311L106.946 22.6645C106.857 22.5588 106.772 22.4488 106.684 22.3389L100.974 28.0393L100.873 28.1408Z" fill="#CDCDCD"/>
<path d="M112.583 39.8505L112.482 39.9519L83.4143 69.0165L83.3128 69.118L83.2113 69.2195L54.1311 98.284L54.0296 98.3855L53.9239 98.487L36.6221 115.804L37.045 115.977L54.2453 98.7788L54.3468 98.6773L54.4483 98.5758L83.5159 69.5113L83.6174 69.4098L83.7188 69.3083L112.786 40.2437L112.888 40.1422L112.989 40.0408L115.726 37.3047C115.667 37.1694 115.612 37.0298 115.552 36.8818L112.698 39.7363L112.583 39.8505Z" fill="#CDCDCD"/>
<path d="M106.731 33.9979L106.629 34.0994L77.5574 63.164L77.4559 63.2654L77.3544 63.3669L48.2869 92.4315L48.1854 92.533L48.0839 92.6345L28.9043 111.812L29.268 112.032L48.3757 92.9136L48.4814 92.8121L48.5829 92.7106L77.6505 63.646L77.752 63.5445L77.8535 63.4431L106.921 34.3785L107.023 34.277L107.124 34.1755L111.776 29.5238L111.552 29.1602L106.832 33.8922L106.731 33.9979Z" fill="#CDCDCD"/>
<path d="M115.51 42.7762L115.409 42.8777L86.3412 71.9423L86.2397 72.0437L86.1382 72.1452L57.0918 101.21L56.9903 101.311L56.8888 101.413L40.8516 117.44L41.2745 117.584L57.1426 101.721L57.2441 101.62L57.3456 101.514L86.4131 72.4497L86.5146 72.3482L86.6161 72.2467L115.684 43.1822L115.785 43.0807L115.887 42.9792L117.295 41.5752C117.244 41.4272 117.198 41.2792 117.147 41.1523L115.595 42.7043L115.51 42.7762Z" fill="#CDCDCD"/>
<path d="M109.658 36.9236L109.556 37.0251L80.4886 66.0897L80.3871 66.1912L80.2856 66.2927L51.2138 95.3572L51.1123 95.4587L51.0108 95.5602L32.6475 113.922L33.0323 114.125L51.3069 95.8731L51.4084 95.7716L51.5099 95.6702L80.5774 66.6056L80.6789 66.5041L80.7804 66.4026L109.848 37.3381L109.949 37.2366L110.051 37.1351L113.857 33.3292L113.658 32.9443L109.755 36.8475L109.658 36.9236Z" fill="#CDCDCD"/>
<path d="M103.803 31.0672L103.702 31.1687L74.63 60.2374L74.5285 60.3389L74.427 60.4404L45.3594 89.505L45.2579 89.6065L45.1564 89.708L25.3721 109.482L25.7146 109.723L45.4398 89.9997L45.5413 89.8983L45.647 89.7968L74.7146 60.7322L74.8161 60.6307L74.9176 60.5292L103.994 31.4647L104.095 31.3632L104.197 31.2617L109.458 25.9968L109.217 25.6543L103.905 30.9657L103.803 31.0672Z" fill="#CDCDCD"/>
<path d="M118.336 45.8043L89.268 74.8688L89.1665 74.9703L89.065 75.0718L59.9974 104.136L59.8959 104.238L59.7944 104.339L45.3643 118.768L45.8337 118.882L60.0862 104.635L60.1877 104.534L60.2892 104.432L89.3568 75.3678L89.4583 75.2621L89.5598 75.1606L118.623 46.1045L118.56 45.8381C118.56 45.7747 118.53 45.7155 118.513 45.6562L118.445 45.7239L118.336 45.8043Z" fill="#CDCDCD"/>
<path d="M100.873 86.68L100.771 86.7815L71.7038 115.846L71.6023 115.948L71.5008 116.049L67.335 120.214L67.999 120.138L71.8053 116.332L71.9068 116.231L72.0083 116.129L101.076 87.0732L101.177 86.9718L101.279 86.8703L119.887 68.2635L119.964 67.5996L100.974 86.57L100.873 86.68Z" fill="#CDCDCD"/>
<path d="M95.0199 80.8235L94.9184 80.925L65.8508 109.994L65.7493 110.095L65.6478 110.197L55.4004 120.435L55.946 120.477L65.9354 110.489L66.0369 110.387L66.1384 110.286L95.206 81.221L95.3075 81.1195L95.409 81.018L120.209 56.2203C120.209 56.0385 120.184 55.8566 120.167 55.6748L95.1172 80.722L95.0199 80.8235Z" fill="#CDCDCD"/>
<path d="M97.9467 83.7535L97.8451 83.855L68.7776 112.92L68.6761 113.021L68.5746 113.123L61.0762 120.62H61.6683L68.858 113.431L68.9595 113.33L69.061 113.228L98.1327 84.1637L98.2342 84.0622L98.3357 83.9607L120.328 61.9709C120.328 61.7722 120.328 61.5734 120.328 61.3789L98.0186 83.6816L97.9467 83.7535Z" fill="#CDCDCD"/>
<path d="M92.0931 77.8968L91.9915 77.9983L62.924 107.063L62.8225 107.164L62.721 107.266L50.1982 119.787L50.7015 119.872L63.0128 107.562L63.1143 107.46L63.2158 107.359L92.2834 78.2943L92.3849 78.1928L92.4864 78.0871L119.608 50.972C119.583 50.8028 119.553 50.6379 119.524 50.4688L92.1945 77.7953L92.0931 77.8968Z" fill="#CDCDCD"/>
<path d="M106.73 92.533L106.629 92.6345L83.1396 116.121L84.1547 115.698L106.921 92.9136L107.022 92.8121L107.124 92.7106L115.426 84.4094C115.572 84.0711 115.713 83.7328 115.849 83.3945L106.823 92.4188L106.73 92.533Z" fill="#CDCDCD"/>
<path d="M103.804 89.6067L103.703 89.7082L74.6308 118.773L74.5293 118.874L74.4658 118.938L74.5716 118.912L74.7323 118.874C74.9014 118.832 75.0748 118.794 75.244 118.747L104.003 89.9916L104.104 89.8901L104.206 89.7886L118.492 75.4995C118.56 75.2457 118.619 74.9835 118.683 74.7256L103.914 89.4968L103.804 89.6067Z" fill="#CDCDCD"/>
<path d="M30.9179 16.7268L31.0194 16.6254L45.3565 2.29395L44.5572 2.50539L30.7276 16.3336L30.6261 16.4351L30.5246 16.5366L2.23099 44.823C2.1591 45.0894 2.0872 45.3558 2.01953 45.6223L30.8164 16.8283L30.9179 16.7268Z" fill="#CDCDCD"/>
<path d="M15.3828 20.5499L20.2972 15.6572C18.5672 17.1932 16.9264 18.8268 15.3828 20.5499Z" fill="#CDCDCD"/>
<path d="M27.9905 13.8007L28.092 13.6992L36.4659 5.32617L35.417 5.7998L27.8044 13.4116L27.6987 13.5131L27.5972 13.6146L5.49517 35.689C5.33868 36.0357 5.18643 36.3867 5.03418 36.7377L27.8721 13.9022L27.9905 13.8007Z" fill="#CDCDCD"/>
<path d="M100.772 104.927L104.662 101.037C105.751 99.8471 106.788 98.6151 107.775 97.3408L97.0752 108.04C98.3496 107.05 99.5817 106.013 100.772 104.927Z" fill="#CDCDCD"/>
<path d="M13.3529 57.7041L13.4544 57.6026L42.5219 28.538L42.6234 28.4366L42.7249 28.3308L69.8681 1.1946L69.3564 1.11426L42.4331 28.039L42.3316 28.1405L42.2301 28.242L13.1625 57.3066L13.061 57.4081L12.9595 57.5096L0.842773 69.6293C0.868149 69.7985 0.897755 69.9676 0.92313 70.1325L13.2514 57.814L13.3529 57.7041Z" fill="#CDCDCD"/>
<path d="M7.49985 51.8474L7.60136 51.7459L36.6689 22.6813L36.7704 22.5798L36.8719 22.4783L58.9105 0.446289H58.3057L36.5801 22.1866L36.4786 22.2881L36.3771 22.3895L7.30954 51.471L7.20804 51.5725L7.10653 51.674L0.1875 58.5754C0.1875 58.7742 0.1875 58.9771 0.1875 59.1801L7.41527 51.9531L7.49985 51.8474Z" fill="#CDCDCD"/>
<path d="M10.4265 54.7777L10.528 54.6762L39.5956 25.6116L39.6971 25.5059L39.7986 25.4044L64.62 0.585588L64.0702 0.551758L39.5068 25.1126L39.4053 25.2141L39.3038 25.3156L10.2362 54.3802L10.1347 54.4817L10.0332 54.5832L0.276367 64.339C0.276367 64.5209 0.276365 64.7069 0.310199 64.8888L10.325 54.8792L10.4265 54.7777Z" fill="#CDCDCD"/>
<path d="M4.57382 48.9341L4.67532 48.8326L33.7429 19.7553L33.8444 19.6538L33.9459 19.5523L52.5884 0.916016C52.36 0.941388 52.1316 0.979448 51.9074 1.00905L33.6541 19.2606L33.5526 19.3621L33.4511 19.4635L4.3835 48.5112L4.282 48.6127L4.17627 48.7142L0.733669 52.1564C0.704064 52.3848 0.67023 52.6131 0.640625 52.8372L4.47232 49.006L4.57382 48.9341Z" fill="#CDCDCD"/>
<path d="M36.7916 81.1189L36.8931 81.0174L65.9607 51.9529L66.0622 51.8471L66.1637 51.7456L95.2312 22.6811L95.3327 22.5796L95.4342 22.4781L101.287 16.6085L100.983 16.3252L95.1213 22.1863L95.0198 22.2878L94.9183 22.3893L65.8507 51.4708L65.7492 51.5723L65.6477 51.6737L36.5802 80.7214L36.4787 80.8229L36.3772 80.9244L16.0684 101.248L16.3517 101.548L36.6859 81.2204L36.7916 81.1189Z" fill="#CDCDCD"/>
<path d="M30.9177 75.2626L31.0192 75.1611L60.0867 46.0965L60.1882 45.995L60.2897 45.8936L89.3573 16.829L89.4588 16.7275L89.5603 16.626L94.8299 11.3612C94.7157 11.2766 94.5973 11.2005 94.4831 11.1201L89.2684 16.3342L89.1669 16.4357L89.0655 16.5372L59.9979 45.6018L59.8964 45.7033L59.7949 45.8047L30.7274 74.8693L30.6258 74.9708L30.5243 75.0723L10.8457 94.7489L11.0868 95.0957L30.8162 75.3683L30.9177 75.2626Z" fill="#CDCDCD"/>
<path d="M25.0637 69.4095L25.1652 69.308L54.2328 40.2434L54.3343 40.1419L54.4358 40.0404L83.5033 10.9759L83.6048 10.8744L83.7063 10.7729L87.5126 6.96699L87.1193 6.77246L83.4018 10.4938L83.3003 10.5953L83.1988 10.6968L54.1313 39.7487L54.0298 39.8502L53.924 39.9516L24.8565 69.0162L24.755 69.1177L24.6535 69.2192L6.46777 87.403C6.53121 87.5341 6.59465 87.6652 6.66232 87.7963L24.9495 69.511L25.0637 69.4095Z" fill="#CDCDCD"/>
<path d="M19.2062 63.5567L19.3077 63.4552L48.3752 34.3906L48.4809 34.2892L48.5825 34.1877L77.65 5.12311L77.7515 5.02162L77.853 4.92013L79.2698 3.49925L78.8469 3.35547L77.5781 4.62411L77.4766 4.7256L77.3751 4.82709L48.2864 33.8916L48.1849 33.9974L48.0834 34.0989L19.0285 63.1634L18.927 63.2649L18.8255 63.3664L3.09277 79.0975C3.1393 79.2413 3.19005 79.3893 3.23657 79.5204L19.1174 63.6413L19.2062 63.5567Z" fill="#CDCDCD"/>
<path d="M33.8308 78.1929L33.9323 78.0872L63.0126 49.0227L63.1141 48.9212L63.2156 48.8197L92.2831 19.7551L92.3846 19.6536L92.4861 19.5521L98.1575 13.8813L97.8361 13.6191L92.1943 19.2604L92.0928 19.3619L91.9913 19.4633L62.9237 48.511L62.8222 48.6125L62.7207 48.714L33.6532 77.7785L33.5517 77.88L33.4502 77.9815L13.3486 98.081L13.6066 98.4066L33.742 78.2775L33.8308 78.1929Z" fill="#CDCDCD"/>
<path d="M27.99 72.3363L28.0915 72.2348L57.1591 43.1702L57.2606 43.0687L57.3621 42.9672L86.4296 13.9027L86.5311 13.8012L86.6326 13.6997L91.2848 9.04802L90.9126 8.82812L86.3408 13.4121L86.2393 13.5136L86.1378 13.6151L57.0914 42.6755L56.9899 42.777L56.8884 42.8784L27.8208 71.943L27.7151 72.0445L27.6136 72.146L8.58203 91.1756C8.65393 91.2982 8.72582 91.4251 8.80195 91.5435L27.9181 72.4293L27.99 72.3363Z" fill="#CDCDCD"/>
<path d="M22.1373 66.4832L22.2388 66.3817L51.3064 37.3171L51.4079 37.2156L51.5094 37.1141L80.5769 8.04957L80.6784 7.94808L80.7799 7.84658L83.5289 5.09786L83.106 4.92871L80.4839 7.55057L80.3824 7.65206L80.2809 7.75778L51.2133 36.8223L51.1118 36.9238L51.0103 37.0253L21.9428 66.0899L21.8413 66.1914L21.7398 66.2929L4.64941 83.3772C4.70439 83.5168 4.75937 83.6563 4.81858 83.8001L22.0273 66.5931L22.1373 66.4832Z" fill="#CDCDCD"/>
<path d="M16.2801 60.6304L16.3816 60.5289L45.4491 31.4644L45.5506 31.3629L45.6563 31.2614L74.7239 2.19686H74.6985L74.2502 2.08691L45.3603 30.9654L45.2588 31.0669L45.1573 31.1684L16.0897 60.2372L15.9882 60.3387L15.8867 60.4401L1.79492 74.5263C1.83299 74.687 1.87105 74.8434 1.91334 74.9999L16.1786 60.7319L16.2801 60.6304Z" fill="#CDCDCD"/>
</g>
</svg>
