<svg width="558" height="237" viewBox="0 0 558 237" fill="none" xmlns="http://www.w3.org/2000/svg">
<path d="M338.7 137.62C362.597 113.725 362.597 74.9839 338.7 51.0892C314.803 27.1944 276.058 27.1944 252.16 51.0891C228.263 74.9839 228.263 113.725 252.16 137.62C276.058 161.515 314.803 161.515 338.7 137.62Z" stroke="#FFFFE0" stroke-width="0.25" stroke-miterlimit="10"/>
<path d="M555.305 74.5659C567.437 150.913 515.387 222.626 439.044 234.754C362.701 246.882 290.982 194.827 278.846 118.485C266.71 42.1436 194.99 -9.91134 118.647 2.21673C42.3044 14.3448 -9.75798 86.0747 2.36775 162.418" stroke="#FFFFE0" stroke-width="0.25" stroke-miterlimit="10"/>
<g opacity="0.27">
<path d="M298.378 74.0939L298.276 74.1953L298.175 74.2968L269.107 103.361L269.006 103.463L268.904 103.564L239.837 132.629L239.735 132.735L239.634 132.836L219.291 153.177L219.596 153.456L239.925 133.128L240.027 133.026L240.128 132.925L269.196 103.86L269.298 103.759L269.399 103.657L298.471 74.5929L298.572 74.4871L298.674 74.3856L304.54 68.5203L304.261 68.2158L298.378 74.0939Z" fill="#CDCDCD"/>
<path d="M301.203 77.1213L301.101 77.2227L272.034 106.287L271.932 106.389L271.831 106.49L242.763 135.551L242.662 135.652L242.56 135.754L222.399 155.912L222.721 156.174L242.852 136.045L242.953 135.944L243.055 135.842L272.123 106.795L272.224 106.693L272.326 106.592L301.406 77.5188L301.507 77.4173L301.609 77.3115L307.276 71.645C307.187 71.5392 307.103 71.4293 307.014 71.3193L301.304 77.0198L301.203 77.1213Z" fill="#CDCDCD"/>
<path d="M312.913 88.8309L312.812 88.9324L283.744 117.997L283.643 118.098L283.541 118.2L254.461 147.265L254.36 147.366L254.254 147.467L236.952 164.784L237.375 164.958L254.575 147.759L254.677 147.658L254.778 147.556L283.846 118.492L283.947 118.39L284.049 118.289L313.116 89.2242L313.218 89.1227L313.319 89.0212L316.056 86.2852C315.997 86.1499 315.942 86.0103 315.882 85.8623L313.028 88.7167L312.913 88.8309Z" fill="#CDCDCD"/>
<path d="M307.061 82.9784L306.959 83.0799L277.888 112.144L277.786 112.246L277.685 112.347L248.617 141.412L248.515 141.513L248.414 141.615L229.234 160.793L229.598 161.012L248.706 141.894L248.812 141.793L248.913 141.691L277.981 112.627L278.082 112.525L278.184 112.424L307.251 83.359L307.353 83.2575L307.454 83.156L312.106 78.5043L311.882 78.1406L307.162 82.8727L307.061 82.9784Z" fill="#CDCDCD"/>
<path d="M315.84 91.7567L315.739 91.8582L286.671 120.923L286.57 121.024L286.468 121.126L257.422 150.19L257.32 150.292L257.219 150.393L241.182 166.42L241.605 166.564L257.473 150.702L257.574 150.6L257.676 150.495L286.743 121.43L286.845 121.329L286.946 121.227L316.014 92.1626L316.115 92.0611L316.217 91.9597L317.625 90.5557C317.574 90.4077 317.528 90.2597 317.477 90.1328L315.925 91.6848L315.84 91.7567Z" fill="#CDCDCD"/>
<path d="M309.988 85.9041L309.886 86.0056L280.819 115.07L280.717 115.172L280.616 115.273L251.544 144.338L251.442 144.439L251.341 144.541L232.978 162.902L233.362 163.105L251.637 144.854L251.738 144.752L251.84 144.651L280.907 115.586L281.009 115.485L281.11 115.383L310.178 86.3185L310.28 86.217L310.381 86.1155L314.187 82.3096L313.989 81.9248L310.085 85.828L309.988 85.9041Z" fill="#CDCDCD"/>
<path d="M304.133 80.0476L304.032 80.1491L274.96 109.218L274.859 109.319L274.757 109.421L245.69 138.485L245.588 138.587L245.487 138.688L225.702 158.462L226.045 158.703L245.77 138.98L245.871 138.879L245.977 138.777L275.045 109.713L275.146 109.611L275.248 109.51L304.324 80.4451L304.425 80.3436L304.527 80.2422L309.788 74.9773L309.547 74.6348L304.235 79.9461L304.133 80.0476Z" fill="#CDCDCD"/>
<path d="M318.666 94.7847L289.598 123.849L289.497 123.951L289.395 124.052L260.327 153.117L260.226 153.218L260.124 153.32L245.694 167.748L246.164 167.863L260.416 153.616L260.518 153.514L260.619 153.413L289.687 124.348L289.788 124.243L289.89 124.141L318.953 95.085L318.89 94.8186C318.89 94.7551 318.86 94.6959 318.843 94.6367L318.776 94.7044L318.666 94.7847Z" fill="#CDCDCD"/>
<path d="M301.203 135.66L301.101 135.762L272.034 164.826L271.932 164.928L271.831 165.029L267.665 169.195L268.329 169.119L272.135 165.313L272.237 165.211L272.338 165.11L301.406 136.054L301.507 135.952L301.609 135.851L320.218 117.244L320.294 116.58L301.304 135.55L301.203 135.66Z" fill="#CDCDCD"/>
<path d="M295.35 129.804L295.248 129.905L266.181 158.974L266.079 159.076L265.978 159.177L255.73 169.415L256.276 169.457L266.265 159.469L266.367 159.368L266.469 159.266L295.536 130.201L295.638 130.1L295.739 129.998L320.539 105.201C320.539 105.019 320.514 104.837 320.497 104.655L295.447 129.702L295.35 129.804Z" fill="#CDCDCD"/>
<path d="M298.277 132.734L298.175 132.835L269.108 161.9L269.006 162.002L268.905 162.103L261.406 169.601H261.998L269.188 162.412L269.29 162.31L269.391 162.209L298.463 133.144L298.564 133.043L298.666 132.941L320.658 110.951C320.658 110.753 320.658 110.554 320.658 110.359L298.349 132.662L298.277 132.734Z" fill="#CDCDCD"/>
<path d="M292.423 126.877L292.322 126.979L263.254 156.043L263.153 156.145L263.051 156.246L250.528 168.768L251.032 168.852L263.343 156.542L263.444 156.441L263.546 156.339L292.613 127.275L292.715 127.173L292.816 127.068L319.939 99.9524C319.913 99.7833 319.884 99.6184 319.854 99.4492L292.525 126.776L292.423 126.877Z" fill="#CDCDCD"/>
<path d="M307.06 141.513L306.959 141.615L283.47 165.102L284.485 164.679L307.251 141.894L307.352 141.793L307.454 141.691L315.756 133.39C315.902 133.052 316.043 132.713 316.179 132.375L307.153 141.399L307.06 141.513Z" fill="#CDCDCD"/>
<path d="M304.134 138.587L304.033 138.689L274.961 167.753L274.859 167.855L274.796 167.918L274.902 167.893L275.062 167.855C275.232 167.812 275.405 167.774 275.574 167.728L304.333 138.972L304.434 138.871L304.536 138.769L318.822 124.48C318.89 124.226 318.949 123.964 319.013 123.706L304.244 138.477L304.134 138.587Z" fill="#CDCDCD"/>
<path d="M231.248 65.7073L231.35 65.6058L245.687 51.2744L244.887 51.4859L231.058 65.314L230.956 65.4155L230.855 65.517L202.561 93.8035C202.489 94.0699 202.417 94.3363 202.35 94.6027L231.146 65.8088L231.248 65.7073Z" fill="#CDCDCD"/>
<path d="M215.713 69.5304L220.627 64.6377C218.897 66.1737 217.257 67.8073 215.713 69.5304Z" fill="#CDCDCD"/>
<path d="M228.321 62.7812L228.422 62.6797L236.796 54.3066L235.747 54.7803L228.134 62.3921L228.029 62.4936L227.927 62.5951L205.825 84.6694C205.669 85.0162 205.517 85.3672 205.364 85.7182L228.202 62.8827L228.321 62.7812Z" fill="#CDCDCD"/>
<path d="M301.102 153.908L304.993 150.017C306.081 148.828 307.118 147.596 308.105 146.321L297.405 157.02C298.68 156.031 299.912 154.993 301.102 153.908Z" fill="#CDCDCD"/>
<path d="M213.683 106.685L213.784 106.583L242.852 77.5185L242.953 77.417L243.055 77.3113L270.198 50.1751L269.686 50.0947L242.763 77.0195L242.662 77.121L242.56 77.2225L213.493 106.287L213.391 106.389L213.29 106.49L201.173 118.61C201.198 118.779 201.228 118.948 201.253 119.113L213.581 106.795L213.683 106.685Z" fill="#CDCDCD"/>
<path d="M207.83 100.828L207.931 100.726L236.999 71.6618L237.1 71.5603L237.202 71.4588L259.241 49.4268H258.636L236.91 71.167L236.809 71.2685L236.707 71.37L207.64 100.451L207.538 100.553L207.437 100.654L200.518 107.556C200.518 107.755 200.518 107.958 200.518 108.161L207.745 100.934L207.83 100.828Z" fill="#CDCDCD"/>
<path d="M210.757 103.758L210.858 103.657L239.926 74.5921L240.027 74.4864L240.129 74.3849L264.95 49.5661L264.4 49.5322L239.837 74.0931L239.735 74.1946L239.634 74.2961L210.566 103.361L210.465 103.462L210.363 103.564L200.606 113.319C200.606 113.501 200.606 113.687 200.64 113.869L210.655 103.86L210.757 103.758Z" fill="#CDCDCD"/>
<path d="M204.904 97.9145L205.005 97.813L234.073 68.7358L234.174 68.6343L234.276 68.5328L252.918 49.8965C252.69 49.9219 252.462 49.9599 252.238 49.9895L233.984 68.241L233.883 68.3425L233.781 68.444L204.714 97.4917L204.612 97.5931L204.506 97.6946L201.064 101.137C201.034 101.365 201 101.594 200.971 101.818L204.802 97.9864L204.904 97.9145Z" fill="#CDCDCD"/>
<path d="M237.122 130.099L237.223 129.998L266.291 100.933L266.392 100.828L266.494 100.726L295.561 71.6616L295.663 71.5601L295.764 71.4586L301.618 65.589L301.313 65.3057L295.451 71.1668L295.35 71.2683L295.248 71.3698L266.181 100.451L266.079 100.553L265.978 100.654L236.91 129.702L236.809 129.803L236.707 129.905L216.398 150.228L216.682 150.529L237.016 130.201L237.122 130.099Z" fill="#CDCDCD"/>
<path d="M231.248 124.243L231.349 124.142L260.417 95.077L260.518 94.9755L260.62 94.874L289.687 65.8095L289.789 65.708L289.89 65.6065L295.16 60.3416C295.046 60.2571 294.927 60.1809 294.813 60.1006L289.599 65.3147L289.497 65.4162L289.396 65.5177L260.328 94.5822L260.226 94.6837L260.125 94.7852L231.057 123.85L230.956 123.951L230.854 124.053L211.176 143.729L211.417 144.076L231.146 124.349L231.248 124.243Z" fill="#CDCDCD"/>
<path d="M225.394 118.39L225.495 118.288L254.563 89.2239L254.664 89.1224L254.766 89.0209L283.833 59.9564L283.935 59.8549L284.036 59.7534L287.843 55.9475L287.449 55.7529L283.732 59.4743L283.63 59.5758L283.529 59.6773L254.461 88.7291L254.36 88.8306L254.254 88.9321L225.187 117.997L225.085 118.098L224.984 118.2L206.798 136.383C206.861 136.515 206.925 136.646 206.992 136.777L225.28 118.491L225.394 118.39Z" fill="#CDCDCD"/>
<path d="M219.536 112.537L219.638 112.436L248.705 83.3711L248.811 83.2696L248.913 83.1681L277.98 54.1036L278.082 54.0021L278.183 53.9006L279.6 52.4797L279.177 52.3359L277.908 53.6046L277.807 53.7061L277.705 53.8076L248.616 82.8721L248.515 82.9778L248.413 83.0793L219.359 112.144L219.257 112.245L219.156 112.347L203.423 128.078C203.469 128.222 203.52 128.37 203.567 128.501L219.447 112.622L219.536 112.537Z" fill="#CDCDCD"/>
<path d="M234.161 127.173L234.262 127.068L263.343 98.0031L263.444 97.9016L263.546 97.8002L292.613 68.7356L292.715 68.6341L292.816 68.5326L298.488 62.8618L298.166 62.5996L292.524 68.2408L292.423 68.3423L292.321 68.4438L263.254 97.4915L263.152 97.5929L263.051 97.6944L233.983 126.759L233.882 126.86L233.78 126.962L213.679 147.061L213.937 147.387L234.072 127.258L234.161 127.173Z" fill="#CDCDCD"/>
<path d="M228.32 121.317L228.422 121.215L257.489 92.1507L257.591 92.0492L257.692 91.9477L286.76 62.8832L286.861 62.7817L286.963 62.6802L291.615 58.0285L291.243 57.8086L286.671 62.3926L286.569 62.4941L286.468 62.5956L257.421 91.6559L257.32 91.7574L257.218 91.8589L228.151 120.923L228.045 121.025L227.944 121.126L208.912 140.156C208.984 140.279 209.056 140.406 209.132 140.524L228.248 121.41L228.32 121.317Z" fill="#CDCDCD"/>
<path d="M222.467 115.464L222.569 115.362L251.636 86.2976L251.738 86.1961L251.839 86.0946L280.907 57.03L281.008 56.9285L281.11 56.8271L283.859 54.0783L283.436 53.9092L280.814 56.531L280.712 56.6325L280.611 56.7382L251.543 85.8028L251.442 85.9043L251.34 86.0058L222.273 115.07L222.171 115.172L222.07 115.273L204.979 132.358C205.034 132.497 205.089 132.637 205.149 132.781L222.357 115.574L222.467 115.464Z" fill="#CDCDCD"/>
<path d="M216.61 109.611L216.712 109.509L245.779 80.4449L245.881 80.3434L245.986 80.2419L275.054 51.1773H275.029L274.58 51.0674L245.69 79.9459L245.589 80.0474L245.487 80.1488L216.42 109.218L216.318 109.319L216.217 109.421L202.125 123.507C202.163 123.667 202.201 123.824 202.243 123.98L216.509 109.712L216.61 109.611Z" fill="#CDCDCD"/>
</g>
</svg>
