<svg width="37" height="26" viewBox="0 0 37 26" fill="none" xmlns="http://www.w3.org/2000/svg">
<path d="M36.202 9.8609C36.0935 9.7886 35.1897 9.08362 33.2375 9.08362C32.7313 9.08362 32.2252 9.13785 31.719 9.22823C31.3394 6.69753 29.2245 5.4141 29.1341 5.35987L28.6099 5.05257L28.2845 5.54064C27.8507 6.19139 27.5072 6.93252 27.3626 7.69173C27.0011 9.13785 27.218 10.5117 27.9591 11.6866C27.0734 12.1928 25.6273 12.3193 25.32 12.3193H1.51332C0.898718 12.3193 0.392578 12.8254 0.392578 13.4581C0.392578 15.5369 0.717954 17.6157 1.44101 19.5679C2.25445 21.719 3.48365 23.3098 5.0563 24.2859C6.82779 25.3705 9.7381 25.9851 13.0461 25.9851C14.4741 25.9851 15.9564 25.8586 17.4206 25.5874C19.4451 25.2259 21.3974 24.5209 23.187 23.4905C24.6692 22.6409 25.9888 21.5564 27.1096 20.2549C29.0076 18.1399 30.1283 15.7357 30.9418 13.657H31.2852C33.3459 13.657 34.6293 12.8254 35.3343 12.1205C35.8043 11.6866 36.1478 11.1624 36.4008 10.5478L36.5454 10.114L36.202 9.8609ZM3.73672 11.6505H6.91817C7.06278 11.6505 7.20739 11.5239 7.20739 11.3612V8.50517C7.20739 8.36056 7.08086 8.21595 6.91817 8.21595H3.73672C3.57403 8.21595 3.4475 8.34248 3.4475 8.50517V11.3612C3.46557 11.5239 3.57403 11.6505 3.73672 11.6505ZM8.12929 11.6505H11.3107C11.4554 11.6505 11.6 11.5239 11.6 11.3612V8.50517C11.6 8.36056 11.4734 8.21595 11.3107 8.21595H8.12929C7.9666 8.21595 7.84007 8.34248 7.84007 8.50517V11.3612C7.85815 11.5239 7.9666 11.6505 8.12929 11.6505ZM12.5942 11.6505H15.7575C15.9383 11.6505 16.0648 11.5239 16.0648 11.3612V8.50517C16.0648 8.36056 15.9564 8.21595 15.7575 8.21595H12.5942C12.4496 8.21595 12.323 8.34248 12.323 8.50517V11.3612C12.323 11.5239 12.4315 11.6505 12.5942 11.6505ZM17.0048 11.6505H20.2044C20.349 11.6505 20.4755 11.5239 20.4755 11.3612V8.50517C20.4755 8.36056 20.367 8.21595 20.2044 8.21595H17.0048C16.8602 8.21595 16.7337 8.34248 16.7337 8.50517V11.3612C16.7337 11.5239 16.8602 11.6505 17.0048 11.6505ZM8.12929 7.60135H11.3107C11.4554 7.60135 11.6 7.43866 11.6 7.27597V4.43797C11.6 4.27529 11.4734 4.14875 11.3107 4.14875H8.12929C7.9666 4.14875 7.84007 4.25721 7.84007 4.43797V7.27597C7.85815 7.43866 7.9666 7.60135 8.12929 7.60135ZM12.5942 7.60135H15.7575C15.9383 7.60135 16.0648 7.43866 16.0648 7.27597V4.43797C16.0648 4.27529 15.9564 4.14875 15.7575 4.14875H12.5942C12.4496 4.14875 12.323 4.25721 12.323 4.43797V7.27597C12.323 7.43866 12.4315 7.60135 12.5942 7.60135ZM17.0048 7.60135H20.2044C20.349 7.60135 20.4755 7.43866 20.4755 7.27597V4.43797C20.4755 4.27529 20.349 4.14875 20.2044 4.14875H17.0048C16.8602 4.14875 16.7337 4.25721 16.7337 4.43797V7.27597C16.7337 7.43866 16.8602 7.60135 17.0048 7.60135ZM17.0048 3.47992H20.2044C20.349 3.47992 20.4755 3.35339 20.4755 3.1907V0.370776C20.4755 0.190012 20.349 0.0634766 20.2044 0.0634766H17.0048C16.8602 0.0634766 16.7337 0.171935 16.7337 0.370776V3.1907C16.7337 3.33531 16.8602 3.47992 17.0048 3.47992ZM21.4516 11.6505H24.6331C24.7958 11.6505 24.9223 11.5239 24.9223 11.3612V8.50517C24.9223 8.36056 24.7958 8.21595 24.6331 8.21595H21.4516C21.307 8.21595 21.1805 8.34248 21.1805 8.50517V11.3612C21.1805 11.5239 21.307 11.6505 21.4516 11.6505Z" fill="#111827"/>
</svg>
