<svg width="509" height="508" viewBox="0 0 509 508" fill="none" xmlns="http://www.w3.org/2000/svg">
<path d="M0.957031 0.0917969V507.52H508.437V0.0917969H0.957031ZM25.111 507.263H1.21421V483.368H25.111V507.263ZM25.111 483.111H1.21421V459.217H25.111V483.111ZM25.111 458.96H1.21421V435.117H25.111V458.96ZM25.111 434.808H1.21421V410.914H25.111V434.808ZM25.111 410.657H1.21421V386.773H25.111V410.657ZM25.111 386.505H1.21421V362.611H25.111V386.505ZM25.111 362.354H1.21421V338.429H25.111V362.354ZM25.111 338.202H1.21421V314.308H25.111V338.202ZM25.111 314.051H1.21421V290.167H25.111V314.051ZM25.111 289.91H1.21421V266.015H25.111V289.91ZM25.111 265.758H1.21421V241.864H25.111V265.758ZM25.111 241.607H1.21421V217.712H25.111V241.607ZM25.111 217.455H1.21421V193.561H25.111V217.455ZM25.111 193.304H1.21421V169.409H25.111V193.304ZM25.111 169.152H1.21421V145.258H25.111V169.152ZM25.111 145.001H1.21421V121.106H25.111V145.001ZM25.111 120.849H1.21421V96.9549H25.111V120.849ZM25.111 96.6977H1.21421V72.8034H25.111V96.6977ZM25.111 72.5462H1.21421V48.6519H25.111V72.5462ZM25.111 48.3948H1.21421V24.5004H25.111V48.3948ZM25.111 24.2433H1.21421V0.348946H25.111V24.2433ZM49.2649 507.263H25.3682V483.368H49.2649V507.263ZM49.2649 483.111H25.3682V459.217H49.2649V483.111ZM49.2649 458.96H25.3682V435.117H49.2649V458.96ZM49.2649 434.808H25.3682V410.914H49.2649V434.808ZM49.2649 410.657H25.3682V386.773H49.2649V410.657ZM49.2649 386.505H25.3682V362.611H49.2649V386.505ZM49.2649 362.354H25.3682V338.429H49.2649V362.354ZM49.2649 338.202H25.3682V314.308H49.2649V338.202ZM49.2649 314.051H25.3682V290.167H49.2649V314.051ZM49.2649 289.91H25.3682V266.015H49.2649V289.91ZM49.2649 265.758H25.3682V241.864H49.2649V265.758ZM49.2649 241.607H25.3682V217.712H49.2649V241.607ZM49.2649 217.455H25.3682V193.561H49.2649V217.455ZM49.2649 193.304H25.3682V169.409H49.2649V193.304ZM49.2649 169.152H25.3682V145.258H49.2649V169.152ZM49.2649 145.001H25.3682V121.106H49.2649V145.001ZM49.2649 120.849H25.3682V96.9549H49.2649V120.849ZM49.2649 96.6977H25.3682V72.8034H49.2649V96.6977ZM49.2649 72.5462H25.3682V48.6519H49.2649V72.5462ZM49.2649 48.3948H25.3682V24.5004H49.2649V48.3948ZM49.2649 24.2433H25.3682V0.348946H49.2649V24.2433ZM73.4189 507.263H49.5221V483.368H73.4189V507.263ZM73.4189 483.111H49.5221V459.217H73.4189V483.111ZM73.4189 458.96H49.5221V435.117H73.4189V458.96ZM73.4189 434.808H49.5221V410.914H73.4189V434.808ZM73.4189 410.657H49.5221V386.773H73.4189V410.657ZM73.4189 386.505H49.5221V362.611H73.4189V386.505ZM73.4189 362.354H49.5221V338.429H73.4189V362.354ZM73.4189 338.202H49.5221V314.308H73.4189V338.202ZM73.4189 314.051H49.5221V290.167H73.4189V314.051ZM73.4189 289.91H49.5221V266.015H73.4189V289.91ZM73.4189 265.758H49.5221V241.864H73.4189V265.758ZM73.4189 241.607H49.5221V217.712H73.4189V241.607ZM73.4189 217.455H49.5221V193.561H73.4189V217.455ZM73.4189 193.304H49.5221V169.409H73.4189V193.304ZM73.4189 169.152H49.5221V145.258H73.4189V169.152ZM73.4189 145.001H49.5221V121.106H73.4189V145.001ZM73.4189 120.849H49.5221V96.9549H73.4189V120.849ZM73.4189 96.6977H49.5221V72.8034H73.4189V96.6977ZM73.4189 72.5462H49.5221V48.6519H73.4189V72.5462ZM73.4189 48.3948H49.5221V24.5004H73.4189V48.3948ZM73.4189 24.2433H49.5221V0.348946H73.4189V24.2433ZM97.5729 507.263H73.6761V483.368H97.5729V507.263ZM97.5729 483.111H73.6761V459.217H97.5729V483.111ZM97.5729 458.96H73.6761V435.117H97.5729V458.96ZM97.5729 434.808H73.6761V410.914H97.5729V434.808ZM97.5729 410.657H73.6761V386.773H97.5729V410.657ZM97.5729 386.505H73.6761V362.611H97.5729V386.505ZM97.5729 362.354H73.6761V338.429H97.5729V362.354ZM97.5729 338.202H73.6761V314.308H97.5729V338.202ZM97.5729 314.051H73.6761V290.167H97.5729V314.051ZM97.5729 289.91H73.6761V266.015H97.5729V289.91ZM97.5729 265.758H73.6761V241.864H97.5729V265.758ZM97.5729 241.607H73.6761V217.712H97.5729V241.607ZM97.5729 217.455H73.6761V193.561H97.5729V217.455ZM97.5729 193.304H73.6761V169.409H97.5729V193.304ZM97.5729 169.152H73.6761V145.258H97.5729V169.152ZM97.5729 145.001H73.6761V121.106H97.5729V145.001ZM97.5729 120.849H73.6761V96.9549H97.5729V120.849ZM97.5729 96.6977H73.6761V72.8034H97.5729V96.6977ZM97.5729 72.5462H73.6761V48.6519H97.5729V72.5462ZM97.5729 48.3948H73.6761V24.5004H97.5729V48.3948ZM97.5729 24.2433H73.6761V0.348946H97.5729V24.2433ZM121.727 507.263H97.8301V483.368H121.727V507.263ZM121.727 483.111H97.8301V459.217H121.727V483.111ZM121.727 458.96H97.8301V435.117H121.727V458.96ZM121.727 434.808H97.8301V410.914H121.727V434.808ZM121.727 410.657H97.8301V386.773H121.727V410.657ZM121.727 386.505H97.8301V362.611H121.727V386.505ZM121.727 362.354H97.8301V338.429H121.727V362.354ZM121.727 338.202H97.8301V314.308H121.727V338.202ZM121.727 314.051H97.8301V290.167H121.727V314.051ZM121.727 289.91H97.8301V266.015H121.727V289.91ZM121.727 265.758H97.8301V241.864H121.727V265.758ZM121.727 241.607H97.8301V217.712H121.727V241.607ZM121.727 217.455H97.8301V193.561H121.727V217.455ZM121.727 193.304H97.8301V169.409H121.727V193.304ZM121.727 169.152H97.8301V145.258H121.727V169.152ZM121.727 145.001H97.8301V121.106H121.727V145.001ZM121.727 120.849H97.8301V96.9549H121.727V120.849ZM121.727 96.6977H97.8301V72.8034H121.727V96.6977ZM121.727 72.5462H97.8301V48.6519H121.727V72.5462ZM121.727 48.3948H97.8301V24.5004H121.727V48.3948ZM121.727 24.2433H97.8301V0.348946H121.727V24.2433ZM145.881 507.263H121.984V483.368H145.881V507.263ZM145.881 483.111H121.984V459.217H145.881V483.111ZM145.881 458.96H121.984V435.117H145.881V458.96ZM145.881 434.808H121.984V410.914H145.881V434.808ZM145.881 410.657H121.984V386.773H145.881V410.657ZM145.881 386.505H121.984V362.611H145.881V386.505ZM145.881 362.354H121.984V338.429H145.881V362.354ZM145.881 338.202H121.984V314.308H145.881V338.202ZM145.881 314.051H121.984V290.167H145.881V314.051ZM145.881 289.91H121.984V266.015H145.881V289.91ZM145.881 265.758H121.984V241.864H145.881V265.758ZM145.881 241.607H121.984V217.712H145.881V241.607ZM145.881 217.455H121.984V193.561H145.881V217.455ZM145.881 193.304H121.984V169.409H145.881V193.304ZM145.881 169.152H121.984V145.258H145.881V169.152ZM145.881 145.001H121.984V121.106H145.881V145.001ZM145.881 120.849H121.984V96.9549H145.881V120.849ZM145.881 96.6977H121.984V72.8034H145.881V96.6977ZM145.881 72.5462H121.984V48.6519H145.881V72.5462ZM145.881 48.3948H121.984V24.5004H145.881V48.3948ZM145.881 24.2433H121.984V0.348946H145.881V24.2433ZM170.035 507.263H146.128V483.368H170.025L170.035 507.263ZM170.035 483.111H146.128V459.217H170.025L170.035 483.111ZM170.035 458.96H146.128V435.117H170.025L170.035 458.96ZM170.035 434.808H146.128V410.914H170.025L170.035 434.808ZM170.035 410.657H146.128V386.773H170.025L170.035 410.657ZM170.035 386.505H146.128V362.611H170.025L170.035 386.505ZM170.035 362.354H146.128V338.429H170.025L170.035 362.354ZM170.035 338.202H146.128V314.308H170.025L170.035 338.202ZM170.035 314.051H146.128V290.167H170.025L170.035 314.051ZM170.035 289.91H146.128V266.015H170.025L170.035 289.91ZM170.035 265.758H146.128V241.864H170.025L170.035 265.758ZM170.035 241.607H146.128V217.712H170.025L170.035 241.607ZM170.035 217.455H146.128V193.561H170.025L170.035 217.455ZM170.035 193.304H146.128V169.409H170.025L170.035 193.304ZM170.035 169.152H146.128V145.258H170.025L170.035 169.152ZM170.035 145.001H146.128V121.106H170.025L170.035 145.001ZM170.035 120.849H146.128V96.9549H170.025L170.035 120.849ZM170.035 96.6977H146.128V72.8034H170.025L170.035 96.6977ZM170.035 72.5462H146.128V48.6519H170.025L170.035 72.5462ZM170.035 48.3948H146.128V24.5004H170.025L170.035 48.3948ZM170.035 24.2433H146.128V0.348946H170.025L170.035 24.2433ZM194.189 507.263H170.292V483.368H194.189V507.263ZM194.189 483.111H170.292V459.217H194.189V483.111ZM194.189 458.96H170.292V435.117H194.189V458.96ZM194.189 434.808H170.292V410.914H194.189V434.808ZM194.189 410.657H170.292V386.773H194.189V410.657ZM194.189 386.505H170.292V362.611H194.189V386.505ZM194.189 362.354H170.292V338.429H194.189V362.354ZM194.189 338.202H170.292V314.308H194.189V338.202ZM194.189 314.051H170.292V290.167H194.189V314.051ZM194.189 289.91H170.292V266.015H194.189V289.91ZM194.189 265.758H170.292V241.864H194.189V265.758ZM194.189 241.607H170.292V217.712H194.189V241.607ZM194.189 217.455H170.292V193.561H194.189V217.455ZM194.189 193.304H170.292V169.409H194.189V193.304ZM194.189 169.152H170.292V145.258H194.189V169.152ZM194.189 145.001H170.292V121.106H194.189V145.001ZM194.189 120.849H170.292V96.9549H194.189V120.849ZM194.189 96.6977H170.292V72.8034H194.189V96.6977ZM194.189 72.5462H170.292V48.6519H194.189V72.5462ZM194.189 48.3948H170.292V24.5004H194.189V48.3948ZM194.189 24.2433H170.292V0.348946H194.189V24.2433ZM218.332 507.263H194.477V483.368H218.363L218.332 507.263ZM218.332 483.111H194.477V459.217H218.363L218.332 483.111ZM218.332 458.96H194.477V435.117H218.363L218.332 458.96ZM218.332 434.808H194.477V410.914H218.363L218.332 434.808ZM218.332 410.657H194.477V386.773H218.363L218.332 410.657ZM218.332 386.505H194.477V362.611H218.363L218.332 386.505ZM218.332 362.354H194.477V338.429H218.363L218.332 362.354ZM218.332 338.202H194.477V314.308H218.363L218.332 338.202ZM218.332 314.051H194.477V290.167H218.363L218.332 314.051ZM218.332 289.91H194.477V266.015H218.363L218.332 289.91ZM218.332 265.758H194.477V241.864H218.363L218.332 265.758ZM218.332 241.607H194.477V217.712H218.363L218.332 241.607ZM218.332 217.455H194.477V193.561H218.363L218.332 217.455ZM218.332 193.304H194.477V169.409H218.363L218.332 193.304ZM218.332 169.152H194.477V145.258H218.363L218.332 169.152ZM218.332 145.001H194.477V121.106H218.363L218.332 145.001ZM218.332 120.849H194.477V96.9549H218.363L218.332 120.849ZM218.332 96.6977H194.477V72.8034H218.363L218.332 96.6977ZM218.332 72.5462H194.477V48.6519H218.363L218.332 72.5462ZM218.332 48.3948H194.477V24.5004H218.363L218.332 48.3948ZM218.332 24.2433H194.477V0.348946H218.363L218.332 24.2433ZM242.486 507.263H218.59V483.368H242.486V507.263ZM242.486 483.111H218.59V459.217H242.486V483.111ZM242.486 458.96H218.59V435.117H242.486V458.96ZM242.486 434.808H218.59V410.914H242.486V434.808ZM242.486 410.657H218.59V386.773H242.486V410.657ZM242.486 386.505H218.59V362.611H242.486V386.505ZM242.486 362.354H218.59V338.429H242.486V362.354ZM242.486 338.202H218.59V314.308H242.486V338.202ZM242.486 314.051H218.59V290.167H242.486V314.051ZM242.486 289.91H218.59V266.015H242.486V289.91ZM242.486 265.758H218.59V241.864H242.486V265.758ZM242.486 241.607H218.59V217.712H242.486V241.607ZM242.486 217.455H218.59V193.561H242.486V217.455ZM242.486 193.304H218.59V169.409H242.486V193.304ZM242.486 169.152H218.59V145.258H242.486V169.152ZM242.486 145.001H218.59V121.106H242.486V145.001ZM242.486 120.849H218.59V96.9549H242.486V120.849ZM242.486 96.6977H218.59V72.8034H242.486V96.6977ZM242.486 72.5462H218.59V48.6519H242.486V72.5462ZM242.486 48.3948H218.59V24.5004H242.486V48.3948ZM242.486 24.2433H218.59V0.348946H242.486V24.2433ZM266.64 507.263H242.744V483.368H266.64V507.263ZM266.64 483.111H242.744V459.217H266.64V483.111ZM266.64 458.96H242.744V435.117H266.64V458.96ZM266.64 434.808H242.744V410.914H266.64V434.808ZM266.64 410.657H242.744V386.773H266.64V410.657ZM266.64 386.505H242.744V362.611H266.64V386.505ZM266.64 362.354H242.744V338.429H266.64V362.354ZM266.64 338.202H242.744V314.308H266.64V338.202ZM266.64 314.051H242.744V290.167H266.64V314.051ZM266.64 289.91H242.744V266.015H266.64V289.91ZM266.64 265.758H242.744V241.864H266.64V265.758ZM266.64 241.607H242.744V217.712H266.64V241.607ZM266.64 217.455H242.744V193.561H266.64V217.455ZM266.64 193.304H242.744V169.409H266.64V193.304ZM266.64 169.152H242.744V145.258H266.64V169.152ZM266.64 145.001H242.744V121.106H266.64V145.001ZM266.64 120.849H242.744V96.9549H266.64V120.849ZM266.64 96.6977H242.744V72.8034H266.64V96.6977ZM266.64 72.5462H242.744V48.6519H266.64V72.5462ZM266.64 48.3948H242.744V24.5004H266.64V48.3948ZM266.64 24.2433H242.744V0.348946H266.64V24.2433ZM290.794 507.263H266.898V483.368H290.794V507.263ZM290.794 483.111H266.898V459.217H290.794V483.111ZM290.794 458.96H266.898V435.117H290.794V458.96ZM290.794 434.808H266.898V410.914H290.794V434.808ZM290.794 410.657H266.898V386.773H290.794V410.657ZM290.794 386.505H266.898V362.611H290.794V386.505ZM290.794 362.354H266.898V338.429H290.794V362.354ZM290.794 338.202H266.898V314.308H290.794V338.202ZM290.794 314.051H266.898V290.167H290.794V314.051ZM290.794 289.91H266.898V266.015H290.794V289.91ZM290.794 265.758H266.898V241.864H290.794V265.758ZM290.794 241.607H266.898V217.712H290.794V241.607ZM290.794 217.455H266.898V193.561H290.794V217.455ZM290.794 193.304H266.898V169.409H290.794V193.304ZM290.794 169.152H266.898V145.258H290.794V169.152ZM290.794 145.001H266.898V121.106H290.794V145.001ZM290.794 120.849H266.898V96.9549H290.794V120.849ZM290.794 96.6977H266.898V72.8034H290.794V96.6977ZM290.794 72.5462H266.898V48.6519H290.794V72.5462ZM290.794 48.3948H266.898V24.5004H290.794V48.3948ZM290.794 24.2433H266.898V0.348946H290.794V24.2433ZM314.948 507.263H291.051V483.368H314.948V507.263ZM314.948 483.111H291.051V459.217H314.948V483.111ZM314.948 458.96H291.051V435.117H314.948V458.96ZM314.948 434.808H291.051V410.914H314.948V434.808ZM314.948 410.657H291.051V386.773H314.948V410.657ZM314.948 386.505H291.051V362.611H314.948V386.505ZM314.948 362.354H291.051V338.429H314.948V362.354ZM314.948 338.202H291.051V314.308H314.948V338.202ZM314.948 314.051H291.051V290.167H314.948V314.051ZM314.948 289.91H291.051V266.015H314.948V289.91ZM314.948 265.758H291.051V241.864H314.948V265.758ZM314.948 241.607H291.051V217.712H314.948V241.607ZM314.948 217.455H291.051V193.561H314.948V217.455ZM314.948 193.304H291.051V169.409H314.948V193.304ZM314.948 169.152H291.051V145.258H314.948V169.152ZM314.948 145.001H291.051V121.106H314.948V145.001ZM314.948 120.849H291.051V96.9549H314.948V120.849ZM314.948 96.6977H291.051V72.8034H314.948V96.6977ZM314.948 72.5462H291.051V48.6519H314.948V72.5462ZM314.948 48.3948H291.051V24.5004H314.948V48.3948ZM314.948 24.2433H291.051V0.348946H314.948V24.2433ZM339.102 507.263H315.205V483.368H339.102V507.263ZM339.102 483.111H315.205V459.217H339.102V483.111ZM339.102 458.96H315.205V435.117H339.102V458.96ZM339.102 434.808H315.205V410.914H339.102V434.808ZM339.102 410.657H315.205V386.773H339.102V410.657ZM339.102 386.505H315.205V362.611H339.102V386.505ZM339.102 362.354H315.205V338.429H339.102V362.354ZM339.102 338.202H315.205V314.308H339.102V338.202ZM339.102 314.051H315.205V290.167H339.102V314.051ZM339.102 289.91H315.205V266.015H339.102V289.91ZM339.102 265.758H315.205V241.864H339.102V265.758ZM339.102 241.607H315.205V217.712H339.102V241.607ZM339.102 217.455H315.205V193.561H339.102V217.455ZM339.102 193.304H315.205V169.409H339.102V193.304ZM339.102 169.152H315.205V145.258H339.102V169.152ZM339.102 145.001H315.205V121.106H339.102V145.001ZM339.102 120.849H315.205V96.9549H339.102V120.849ZM339.102 96.6977H315.205V72.8034H339.102V96.6977ZM339.102 72.5462H315.205V48.6519H339.102V72.5462ZM339.102 48.3948H315.205V24.5004H339.102V48.3948ZM339.102 24.2433H315.205V0.348946H339.102V24.2433ZM363.256 507.263H339.359V483.368H363.256V507.263ZM363.256 483.111H339.359V459.217H363.256V483.111ZM363.256 458.96H339.359V435.117H363.256V458.96ZM363.256 434.808H339.359V410.914H363.256V434.808ZM363.256 410.657H339.359V386.773H363.256V410.657ZM363.256 386.505H339.359V362.611H363.256V386.505ZM363.256 362.354H339.359V338.429H363.256V362.354ZM363.256 338.202H339.359V314.308H363.256V338.202ZM363.256 314.051H339.359V290.167H363.256V314.051ZM363.256 289.91H339.359V266.015H363.256V289.91ZM363.256 265.758H339.359V241.864H363.256V265.758ZM363.256 241.607H339.359V217.712H363.256V241.607ZM363.256 217.455H339.359V193.561H363.256V217.455ZM363.256 193.304H339.359V169.409H363.256V193.304ZM363.256 169.152H339.359V145.258H363.256V169.152ZM363.256 145.001H339.359V121.106H363.256V145.001ZM363.256 120.849H339.359V96.9549H363.256V120.849ZM363.256 96.6977H339.359V72.8034H363.256V96.6977ZM363.256 72.5462H339.359V48.6519H363.256V72.5462ZM363.256 48.3948H339.359V24.5004H363.256V48.3948ZM363.256 24.2433H339.359V0.348946H363.256V24.2433ZM387.41 507.263H363.513V483.368H387.41V507.263ZM387.41 483.111H363.513V459.217H387.41V483.111ZM387.41 458.96H363.513V435.117H387.41V458.96ZM387.41 434.808H363.513V410.914H387.41V434.808ZM387.41 410.657H363.513V386.773H387.41V410.657ZM387.41 386.505H363.513V362.611H387.41V386.505ZM387.41 362.354H363.513V338.429H387.41V362.354ZM387.41 338.202H363.513V314.308H387.41V338.202ZM387.41 314.051H363.513V290.167H387.41V314.051ZM387.41 289.91H363.513V266.015H387.41V289.91ZM387.41 265.758H363.513V241.864H387.41V265.758ZM387.41 241.607H363.513V217.712H387.41V241.607ZM387.41 217.455H363.513V193.561H387.41V217.455ZM387.41 193.304H363.513V169.409H387.41V193.304ZM387.41 169.152H363.513V145.258H387.41V169.152ZM387.41 145.001H363.513V121.106H387.41V145.001ZM387.41 120.849H363.513V96.9549H387.41V120.849ZM387.41 96.6977H363.513V72.8034H387.41V96.6977ZM387.41 72.5462H363.513V48.6519H387.41V72.5462ZM387.41 48.3948H363.513V24.5004H387.41V48.3948ZM387.41 24.2433H363.513V0.348946H387.41V24.2433ZM411.533 507.263H387.667V483.368H411.533V507.263ZM411.533 483.111H387.667V459.217H411.533V483.111ZM411.533 458.96H387.667V435.117H411.533V458.96ZM411.533 434.808H387.667V410.914H411.533V434.808ZM411.533 410.657H387.667V386.773H411.533V410.657ZM411.533 386.505H387.667V362.611H411.533V386.505ZM411.533 362.354H387.667V338.429H411.533V362.354ZM411.533 338.202H387.667V314.308H411.533V338.202ZM411.533 314.051H387.667V290.167H411.533V314.051ZM411.533 289.91H387.667V266.015H411.533V289.91ZM411.533 265.758H387.667V241.864H411.533V265.758ZM411.533 241.607H387.667V217.712H411.533V241.607ZM411.533 217.455H387.667V193.561H411.533V217.455ZM411.533 193.304H387.667V169.409H411.533V193.304ZM411.533 169.152H387.667V145.258H411.533V169.152ZM411.533 145.052H387.667V121.106H411.533V145.052ZM411.533 120.901H387.667V96.9549H411.533V120.901ZM411.533 96.708H387.667V72.8034H411.533V96.708ZM411.533 72.5565H387.667V48.6519H411.533V72.5565ZM411.533 48.3639H387.667V24.5004H411.533V48.3639ZM411.533 24.2124H387.667V0.348946H411.533V24.2124ZM435.687 507.232H411.821V483.368H435.718L435.687 507.232ZM435.687 483.08H411.821V459.217H435.718L435.687 483.08ZM435.687 458.929H411.821V435.117H435.718L435.687 458.929ZM435.687 434.777H411.821V410.914H435.718L435.687 434.777ZM435.687 410.626H411.821V386.773H435.718L435.687 410.626ZM435.687 386.474H411.821V362.611H435.718L435.687 386.474ZM435.687 362.323H411.821V338.429H435.718L435.687 362.323ZM435.687 338.171H411.821V314.308H435.718L435.687 338.171ZM435.687 314.02H411.821V290.167H435.718L435.687 314.02ZM435.687 289.879H411.821V266.015H435.718L435.687 289.879ZM435.687 265.727H411.821V241.864H435.718L435.687 265.727ZM435.687 241.576H411.821V217.712H435.718L435.687 241.576ZM435.687 217.424H411.821V193.561H435.718L435.687 217.424ZM435.687 193.273H411.821V169.409H435.718L435.687 193.273ZM435.687 169.121H411.821V145.258H435.718L435.687 169.121ZM435.687 144.97H411.821V121.106H435.718L435.687 144.97ZM435.687 120.818H411.821V96.9549H435.718L435.687 120.818ZM435.687 96.6669H411.821V72.8034H435.718L435.687 96.6669ZM435.687 72.5154H411.821V48.6519H435.718L435.687 72.5154ZM435.687 48.3639H411.821V24.5004H435.718L435.687 48.3639ZM435.687 24.2124H411.821V0.348946H435.718L435.687 24.2124ZM459.882 507.263H435.975V483.368H459.882V507.263ZM459.882 483.111H435.975V459.217H459.882V483.111ZM459.882 458.96H435.975V435.117H459.882V458.96ZM459.882 434.808H435.975V410.914H459.882V434.808ZM459.882 410.657H435.975V386.773H459.882V410.657ZM459.882 386.505H435.975V362.611H459.882V386.505ZM459.882 362.354H435.975V338.429H459.882V362.354ZM459.882 338.202H435.975V314.308H459.882V338.202ZM459.882 314.051H435.975V290.167H459.882V314.051ZM459.882 289.91H435.975V266.015H459.882V289.91ZM459.882 265.758H435.975V241.864H459.882V265.758ZM459.882 241.607H435.975V217.712H459.882V241.607ZM459.882 217.455H435.975V193.561H459.882V217.455ZM459.882 193.304H435.975V169.409H459.882V193.304ZM459.882 169.152H435.975V145.258H459.882V169.152ZM459.882 145.052H435.975V121.106H459.882V145.052ZM459.882 120.901H435.975V96.9549H459.882V120.901ZM459.882 96.708H435.975V72.8034H459.882V96.708ZM459.882 72.5565H435.975V48.6519H459.882V72.5565ZM459.882 48.3639H435.975V24.5004H459.882V48.3639ZM459.882 24.2124H435.975V0.348946H459.882V24.2124ZM484.036 507.232H460.129V483.368H484.026L484.036 507.232ZM484.036 483.08H460.129V459.217H484.026L484.036 483.08ZM484.036 458.929H460.129V435.117H484.026L484.036 458.929ZM484.036 434.777H460.129V410.914H484.026L484.036 434.777ZM484.036 410.626H460.129V386.773H484.026L484.036 410.626ZM484.036 386.474H460.129V362.611H484.026L484.036 386.474ZM484.036 362.323H460.129V338.429H484.026L484.036 362.323ZM484.036 338.171H460.129V314.308H484.026L484.036 338.171ZM484.036 314.02H460.129V290.167H484.026L484.036 314.02ZM484.036 289.879H460.129V266.015H484.026L484.036 289.879ZM484.036 265.727H460.129V241.864H484.026L484.036 265.727ZM484.036 241.576H460.129V217.712H484.026L484.036 241.576ZM484.036 217.424H460.129V193.561H484.026L484.036 217.424ZM484.036 193.273H460.129V169.409H484.026L484.036 193.273ZM484.036 169.121H460.129V145.258H484.026L484.036 169.121ZM484.036 144.97H460.129V121.106H484.026L484.036 144.97ZM484.036 120.818H460.129V96.9549H484.026L484.036 120.818ZM484.036 96.6669H460.129V72.8034H484.026L484.036 96.6669ZM484.036 72.5154H460.129V48.6519H484.026L484.036 72.5154ZM484.036 48.3639H460.129V24.5004H484.026L484.036 48.3639ZM484.036 24.2124H460.129V0.348946H484.026L484.036 24.2124ZM508.231 507.263H484.283V483.368H508.231V507.263ZM508.231 483.111H484.283V459.217H508.231V483.111ZM508.231 458.96H484.283V435.117H508.231V458.96ZM508.231 434.808H484.283V410.914H508.231V434.808ZM508.231 410.657H484.283V386.773H508.231V410.657ZM508.231 386.505H484.283V362.611H508.231V386.505ZM508.231 362.354H484.283V338.429H508.231V362.354ZM508.231 338.202H484.283V314.308H508.231V338.202ZM508.231 314.051H484.283V290.167H508.231V314.051ZM508.231 289.91H484.283V266.015H508.231V289.91ZM508.231 265.758H484.283V241.864H508.231V265.758ZM508.231 241.607H484.283V217.712H508.231V241.607ZM508.231 217.455H484.283V193.561H508.231V217.455ZM508.231 193.304H484.283V169.409H508.231V193.304ZM508.231 169.152H484.283V145.258H508.231V169.152ZM508.231 145.052H484.283V121.106H508.231V145.052ZM508.231 120.901H484.283V96.9549H508.231V120.901ZM508.231 96.708H484.283V72.8034H508.231V96.708ZM508.231 72.5565H484.283V48.6519H508.231V72.5565ZM508.231 48.3639H484.283V24.5004H508.231V48.3639ZM508.231 24.2124H484.283V0.348946H508.231V24.2124Z" fill="url(#paint0_radial_469_3458)"/>
<defs>
<radialGradient id="paint0_radial_469_3458" cx="0" cy="0" r="1" gradientUnits="userSpaceOnUse" gradientTransform="translate(254.697 253.806) scale(253.74 253.714)">
<stop stop-color="#FFFFE0"/>
<stop offset="1" stop-color="#FFFFE0" stop-opacity="0"/>
</radialGradient>
</defs>
</svg>
