<svg width="32" height="32" viewBox="0 0 32 32" fill="none" xmlns="http://www.w3.org/2000/svg">
<path d="M0.686035 2.81056L2.87404 0.639648L31.4549 29.2205L29.284 31.4085L23.0105 25.1351C21.9507 26.2803 20.4123 27.2205 18.6345 27.682V31.4085H13.5064V27.682C10.0363 26.8103 7.52355 24.212 7.52355 21.1522H10.9423C10.9423 22.9983 13.2842 24.571 16.0705 24.571C18.0021 24.571 19.7285 23.8188 20.6003 22.7248L15.5235 17.648C11.9338 16.742 7.52355 15.5967 7.52355 10.8959C7.52355 10.5028 7.52356 10.1267 7.64321 9.76774L0.686035 2.81056ZM13.5064 4.3661V0.639648H18.6345V4.3661C22.1046 5.23788 24.6174 7.83614 24.6174 10.8959H21.1986C21.1986 9.0498 18.8567 7.47717 16.0705 7.47717C15.438 7.47717 14.8397 7.56264 14.2756 7.69939L11.6261 5.04985L13.5064 4.3661Z" fill="#111827"/>
</svg>
