<svg width="29" height="26" viewBox="0 0 29 26" fill="none" xmlns="http://www.w3.org/2000/svg">
<path d="M10.7217 5.12305H5.63965V10.2051H8.18067V7.66407H10.7217V5.12305ZM23.4268 10.2051H20.8858V12.7461H18.3447V15.2871H23.4268V10.2051ZM25.9678 17.8281H3.09864V2.58203H25.9678V17.8281ZM25.9678 0.0410156H3.09864C1.68837 0.0410156 0.557617 1.17177 0.557617 2.58203V17.8281C0.557617 18.5021 0.825331 19.1484 1.30186 19.6249C1.7784 20.1014 2.42472 20.3692 3.09864 20.3692H11.9922V22.9102H9.45118V25.4512H19.6153V22.9102H17.0742V20.3692H25.9678C26.6417 20.3692 27.288 20.1014 27.7646 19.6249C28.2411 19.1484 28.5088 18.5021 28.5088 17.8281V2.58203C28.5088 1.17177 27.3654 0.0410156 25.9678 0.0410156Z" fill="#111827"/>
</svg>
