<svg width="30" height="50" viewBox="0 0 30 50" fill="none" xmlns="http://www.w3.org/2000/svg">
<path d="M29.2733 35.884L22.4401 33.1307C23.6791 30.44 24.5426 27.6241 25.1058 24.7832L29.2733 35.884ZM7.77244 33.1307L0.939223 35.884L5.10673 24.7832C5.66991 27.6241 6.53345 30.44 7.77244 33.1307ZM14.1301 5.49752C14.4805 5.1471 14.7934 4.83422 15.1188 4.63398C17.0711 6.16082 20.4126 9.9779 20.4126 18.1878C20.4251 22.4554 19.5241 26.6354 17.7594 30.5777L12.4405 30.6402C10.701 26.5979 9.79988 22.4179 9.79988 18.1878C9.79988 11.2795 12.1527 7.4749 14.1301 5.49752ZM11.6271 2.99451C9.14909 5.47249 6.25812 10.0905 6.25812 18.2003C6.25812 23.6819 7.63477 28.3375 9.21167 32.0419C9.79988 33.331 11.0639 34.1194 12.4531 34.1319L17.772 34.1194C18.7231 34.1194 19.6492 33.769 20.3125 33.1057C20.6004 32.8179 20.8256 32.4424 21.0008 32.0419C22.6528 28.3375 23.9544 23.6819 23.9544 18.2003C23.9544 4.03326 15.1063 0.491499 15.1063 0.491499C15.1063 0.491499 13.4793 1.14228 11.6271 2.99451ZM15.1063 18.1878C13.1539 18.1878 11.5645 16.5984 11.5645 14.646C11.5645 12.6937 13.1539 11.1043 15.1063 11.1043C17.0461 11.1168 18.648 12.6937 18.648 14.646C18.648 16.5984 17.0586 18.1878 15.1063 18.1878ZM16.8709 34.1194L13.3416 34.1194L16.8709 34.1194ZM20.4126 44.2691L20.4126 35.1582C19.8745 35.4711 19.2738 35.6963 18.6355 35.809L18.648 46.0337L20.4126 44.2691ZM15.1063 49.5755L16.8709 47.8109L16.8834 35.884L13.3416 35.8966L13.3416 47.8109L15.1063 49.5755ZM11.5645 46.0337L11.577 35.809C10.9387 35.6963 10.3505 35.4836 9.79988 35.1582L9.79988 44.2691L11.5645 46.0337Z" fill="#111827"/>
</svg>
