<svg width="607" height="264" viewBox="0 0 607 264" fill="none" xmlns="http://www.w3.org/2000/svg">
<g opacity="0.28">
<path d="M12.3471 73.6972C28.4059 73.9659 44.468 74.2601 60.4934 73.8932C76.5565 73.6483 92.5865 72.3557 108.481 70.0237C112.429 69.3137 116.404 68.7445 120.316 67.8553L123.265 67.237C124.246 67.0307 125.231 66.8374 126.199 66.5795L132.036 65.1107L133.492 64.7401L134.94 64.2808L137.823 63.4173C139.766 62.8336 141.703 62.3117 143.558 61.574L149.237 59.5741C151.118 58.8832 152.987 58.1284 154.858 57.4175C162.329 54.5224 169.76 51.4227 177.356 48.7924C184.953 46.162 192.716 43.9325 200.687 42.7777C204.673 42.2107 208.689 41.8888 212.715 41.8139C214.726 41.7322 216.731 41.8124 218.747 41.8502C219.753 41.8656 220.755 41.962 221.757 42.0083C222.759 42.0546 223.765 42.114 224.766 42.2289C232.776 42.9797 240.714 44.3624 248.506 46.3643C256.309 48.3056 263.981 50.7324 271.574 53.3564C279.168 55.9805 286.688 58.8027 294.174 61.7022C309.147 67.5014 323.998 73.6556 339 79.3643C354.002 85.0729 369.193 90.3403 384.739 94.3098C400.285 98.2794 416.197 101.077 432.206 101.666C448.216 102.254 464.368 100.676 479.754 96.1817C495.14 91.6877 509.972 85.2658 525.656 81.5567C541.398 77.9827 557.706 77.6721 573.573 80.6442C581.49 82.0482 589.306 83.9724 596.971 86.4042C604.628 88.848 612.154 91.677 619.577 94.7507C634.435 100.893 648.788 108.116 663.273 115.054C670.52 118.514 677.801 121.897 685.174 125.078C692.547 128.258 700.045 131.165 707.664 133.667L710.526 134.622C711.479 134.931 712.431 135.247 713.396 135.508L719.186 137.162L725.041 138.585C726.006 138.84 726.992 139.028 727.977 139.217L730.932 139.8C738.824 141.293 746.829 142.11 754.86 142.243C746.826 142.135 738.816 141.342 730.917 139.873L727.961 139.302C726.976 139.114 725.989 138.932 725.018 138.676L719.196 137.238L713.398 135.602C712.426 135.347 711.474 135.031 710.515 134.72L707.649 133.803C700.017 131.3 692.51 128.41 685.119 125.278C677.729 122.145 670.436 118.761 663.173 115.324C648.688 108.443 634.311 101.211 619.463 95.0879C612.045 92.0273 604.499 89.2085 596.877 86.7813C589.227 84.3689 581.425 82.4672 573.522 81.0887C557.71 78.1392 541.462 78.4651 525.781 82.0465C510.167 85.6948 495.408 92.2439 479.922 96.6827C464.435 101.121 448.25 102.827 432.19 102.239C416.131 101.652 400.155 98.9714 384.593 94.975C369.032 90.9787 353.815 85.6707 338.776 79.9516C323.738 74.2325 308.933 68.0586 293.962 62.2471C286.492 59.3681 279 56.518 271.42 53.8829C263.841 51.2479 256.181 48.8226 248.399 46.8588C240.633 44.855 232.72 43.4669 224.736 42.7072C223.735 42.5923 222.738 42.559 221.739 42.488C220.74 42.417 219.736 42.3391 218.737 42.3244C216.733 42.2881 214.728 42.2078 212.732 42.2601C208.726 42.3479 204.728 42.6824 200.763 43.2619C192.825 44.4016 185.081 46.6272 177.5 49.2342C169.918 51.8413 162.46 54.9066 155.005 57.8284C153.132 58.5578 151.267 59.2756 149.377 59.9844L143.687 61.9767C141.805 62.68 139.862 63.2012 137.933 63.8178L135.044 64.6807L133.596 65.1399L132.134 65.5098L126.292 66.9718C125.317 67.2351 124.363 67.4257 123.351 67.6285L120.396 68.2461C118.436 68.6465 116.472 69.0838 114.484 69.3935L108.544 70.4C92.6339 72.6616 76.5931 73.886 60.5237 74.0656C44.4661 74.385 28.4002 74.0153 12.3471 73.6972Z" fill="white"/>
<path d="M11.584 80.1775C27.5935 80.7659 43.6201 81.2061 59.6372 80.8571C75.6574 80.6445 91.6447 79.3465 107.489 76.9719L113.401 75.9371L116.358 75.4135L119.295 74.7876L125.165 73.5166L130.967 72.0188C131.929 71.7603 132.899 71.5401 133.865 71.2445L136.736 70.3734L139.613 69.5029C140.567 69.2059 141.554 68.9502 142.472 68.5802C146.237 67.2299 150.025 65.9449 153.745 64.4394C161.195 61.5044 168.594 58.4135 176.123 55.6628C183.63 52.8109 191.358 50.5773 199.23 48.9843C207.134 47.5112 215.174 46.9018 223.21 47.1669C227.222 47.315 231.227 47.5689 235.206 48.0573C239.185 48.5458 243.159 49.1276 247.106 49.8438C254.989 51.3001 262.784 53.203 270.516 55.33C278.248 57.457 285.933 59.7163 293.588 62.0723C308.904 66.7911 324.108 71.8348 339.305 76.9279C346.904 79.4691 354.468 82.1148 361.996 84.865C365.767 86.2366 369.506 87.6672 373.292 88.9654L378.956 90.955L381.788 91.9498L384.638 92.9028C399.854 97.8353 415.507 101.586 431.448 103.092C439.411 103.866 447.424 103.968 455.404 103.399C459.385 103.105 463.361 102.636 467.308 101.989C471.254 101.341 475.157 100.476 479.041 99.5024C494.553 95.5984 509.562 89.766 525.317 86.5218C533.182 84.8973 541.179 84.0028 549.208 83.8495C557.232 83.667 565.257 84.1705 573.195 85.3545C581.129 86.5624 588.952 88.4132 596.587 90.8887C604.232 93.3311 611.695 96.2718 619.065 99.4269C633.812 105.719 648.172 112.881 662.687 119.616C669.949 122.996 677.279 126.228 684.725 129.254C692.172 132.281 699.663 135.037 707.308 137.429C722.57 142.236 738.46 145.331 754.498 145.56C738.454 145.381 722.552 142.334 707.247 137.572C699.593 135.204 692.051 132.467 684.627 129.462C677.202 126.457 669.851 123.254 662.58 119.891C648.031 113.177 633.683 106.03 618.939 99.7566C611.581 96.6152 604.118 93.6745 596.488 91.259C588.855 88.7863 581.034 86.9378 573.101 85.7317C565.186 84.5535 557.184 84.0527 549.183 84.2345C541.194 84.4104 533.238 85.3223 525.417 86.9587C509.729 90.2107 494.727 96.05 479.173 99.9868C475.307 100.969 471.361 101.829 467.4 102.494C463.438 103.158 459.45 103.626 455.45 103.923C447.438 104.511 439.392 104.423 431.395 103.662C415.408 102.169 399.705 98.425 384.451 93.4944L381.602 92.5414L378.764 91.5397L373.094 89.5433C369.303 88.2381 365.558 86.8007 361.8 85.4304C354.284 82.6776 346.727 80.0265 339.13 77.4769C323.913 72.3817 308.727 67.2962 293.419 62.5658C285.765 60.1975 278.087 57.9265 270.368 55.8009C262.649 53.6753 254.868 51.7554 247.004 50.295C243.064 49.5795 239.114 48.9443 235.137 48.4998C231.159 48.0552 227.171 47.7534 223.178 47.6074C215.18 47.3301 207.175 47.9291 199.308 49.3937C191.461 50.9724 183.757 53.1877 176.27 56.0175C168.742 58.762 161.354 61.8104 153.889 64.7686C139.009 70.7909 123.343 74.7211 107.538 77.2528C91.675 79.5855 75.6718 80.8399 59.6387 81.0074C43.6149 81.3056 27.5961 80.7975 11.584 80.1775Z" fill="white"/>
<path d="M10.0635 93.1404C26.0387 94.3003 42.0544 95.0521 58.0453 94.7689C66.0555 94.6884 74.0555 94.2626 82.0396 93.6474L88.0223 93.0836L89.5141 92.9485L91.0048 92.7695L93.9868 92.4052C97.9642 91.9802 101.918 91.3272 105.872 90.7244C113.773 89.4349 121.603 87.7434 129.331 85.6566C133.195 84.6931 137.009 83.4109 140.835 82.2304C142.734 81.5978 144.606 80.8808 146.491 80.2091L149.311 79.1881C150.252 78.8395 151.177 78.4642 152.107 78.1018C166.994 72.2306 181.603 65.464 197.136 61.3247C204.899 59.2768 212.832 57.9354 220.837 57.3168C224.83 56.9687 228.846 56.867 232.848 56.8203C236.851 56.7735 240.87 56.91 244.873 57.1323C252.88 57.5706 260.854 58.4117 268.8 59.4311C276.747 60.4505 284.691 61.4885 292.616 62.6369C308.474 64.9281 324.273 67.7319 339.82 71.689C347.596 73.6923 355.191 76.3436 362.525 79.6152C369.817 82.9554 376.882 86.7387 384.101 90.2268C398.514 97.144 413.459 103.184 429.085 106.625C436.904 108.301 444.875 109.169 452.871 109.214C456.862 109.232 460.851 109.043 464.822 108.648C468.797 108.247 472.753 107.682 476.695 106.966C492.448 104.128 507.832 99.4832 523.647 96.7588C531.556 95.4228 539.529 94.5036 547.535 94.0048C555.539 93.4002 563.581 93.4871 571.571 94.2643C575.561 94.6936 579.522 95.3576 583.434 96.2531C587.348 97.1469 591.204 98.2718 595.004 99.5468C602.605 102.103 609.987 105.26 617.3 108.527C624.613 111.794 631.892 115.139 639.171 118.478C646.451 121.817 653.705 125.215 661.052 128.405C668.398 131.595 675.832 134.576 683.354 137.324C690.877 140.071 698.485 142.565 706.202 144.716C721.614 149.033 737.513 151.779 753.516 152.154C737.489 151.826 721.574 149.109 706.138 144.834C698.414 142.695 690.79 140.23 683.252 137.506C675.714 134.782 668.264 131.843 660.907 128.683C653.551 125.523 646.275 122.147 639.005 118.784C631.734 115.422 624.446 112.107 617.131 108.852C609.817 105.597 602.44 102.453 594.856 99.9114C591.061 98.6433 587.217 97.526 583.346 96.6433C579.448 95.7493 575.501 95.0869 571.525 94.6595C563.56 93.8923 555.543 93.8083 547.564 94.4085C539.578 94.9182 531.624 95.846 523.735 97.188C507.957 99.9229 492.577 104.58 476.791 107.433C472.844 108.137 468.873 108.725 464.879 109.136C460.898 109.553 456.898 109.763 452.895 109.767C444.859 109.729 436.848 108.865 428.988 107.189C413.287 103.752 398.305 97.708 383.861 90.7935C376.633 87.3294 369.564 83.5206 362.303 80.184C355.003 76.9153 347.441 74.2676 339.697 72.2692C324.195 68.2985 308.404 65.4831 292.573 63.1761C284.648 62.0216 276.706 60.9713 268.767 59.9402C260.828 58.9092 252.867 58.0695 244.874 57.6202C228.922 56.6944 212.75 57.6262 197.268 61.7589C181.785 65.8916 167.17 72.6073 152.269 78.4833C151.333 78.845 150.408 79.2203 149.467 79.5689L146.635 80.5885C144.75 81.2602 142.873 81.9703 140.974 82.6029C137.136 83.7696 133.34 85.0663 129.445 86.0263C121.705 88.1075 113.863 89.7913 105.951 91.0712C101.986 91.6604 98.0275 92.3003 94.0447 92.7184L91.0579 93.0696L89.5679 93.2425L88.0699 93.3769L82.0853 93.9028C74.0917 94.492 66.0884 94.8923 58.0748 94.9474C42.0493 95.1516 26.033 94.3497 10.0635 93.1404Z" fill="white"/>
<path d="M8.54225 106.102C24.5596 107.946 40.6752 108.803 56.7977 108.669C64.8532 108.632 72.9053 108.187 80.9369 107.539C84.9478 107.15 88.9599 106.804 92.9715 106.245L95.9687 105.857L97.467 105.667L98.9585 105.425L104.919 104.458L106.41 104.217L107.895 103.925L110.859 103.339L113.822 102.754L115.301 102.461L116.774 102.111L122.651 100.728L124.123 100.378L125.577 99.976L128.485 99.1715C132.391 98.1629 136.206 96.8683 140.044 95.6453C141.009 95.3558 141.951 95.0011 142.891 94.6526L145.726 93.6083C147.615 92.9057 149.518 92.2423 151.383 91.4745C166.348 85.5246 180.956 78.6077 196.315 73.5851C203.994 71.0918 211.836 69.1314 219.785 67.7178C227.736 66.3328 235.753 65.3581 243.804 64.7976C251.849 64.2018 259.912 63.9334 267.969 63.7206C276.026 63.5079 284.076 63.188 292.141 63.0137C300.206 62.8393 308.273 62.8592 316.334 63.3225C320.361 63.5476 324.398 63.9114 328.394 64.358C332.39 64.8047 336.407 65.3976 340.358 66.2394C348.305 67.8372 355.955 70.6578 363.038 74.6006C363.919 75.096 364.796 75.6284 365.637 76.1504C366.478 76.6724 367.393 77.1968 368.212 77.7475L373.229 81.1265L378.245 84.5116L383.239 87.9194C389.914 92.4397 396.696 96.7848 403.713 100.725C407.239 102.703 410.811 104.556 414.428 106.285C418.047 108.034 421.767 109.566 425.568 110.875C433.185 113.471 441.09 115.134 449.108 115.825C457.132 116.453 465.197 116.296 473.19 115.358C481.202 114.502 489.142 113.131 497.062 111.651L508.951 109.446L514.896 108.346L517.868 107.793C518.864 107.619 519.862 107.478 520.857 107.317L532.811 105.469C536.796 104.871 540.788 104.319 544.787 103.811C552.784 102.809 560.875 102.143 568.945 102.739C577.015 103.335 584.922 105.244 592.537 107.952C600.151 110.66 607.48 114.004 614.822 117.35L636.823 127.316C644.164 130.662 651.536 133.905 659.001 136.934C666.467 139.962 674.055 142.68 681.713 145.174C689.372 147.667 697.11 149.952 704.932 151.895C720.568 155.862 736.579 158.165 752.699 158.766C736.572 158.211 720.549 155.951 704.898 152.023C697.068 150.103 689.318 147.861 681.647 145.372C673.976 142.883 666.371 140.195 658.892 137.178C651.413 134.16 644.037 130.898 636.692 127.583L614.659 117.676C607.324 114.331 599.983 110.985 592.388 108.317C584.794 105.649 576.931 103.682 568.896 103.165C560.86 102.648 552.809 103.25 544.823 104.259C540.828 104.767 536.838 105.322 532.853 105.924L520.915 107.786C519.921 107.947 518.923 108.089 517.932 108.269L514.96 108.822L509.011 109.959L497.127 112.178C489.197 113.632 481.256 115.015 473.233 115.857C465.204 116.808 457.102 116.973 449.042 116.349C440.979 115.666 433.03 114.003 425.37 111.396C421.546 110.09 417.803 108.555 414.163 106.799C410.508 105.072 406.925 103.202 403.404 101.234C396.35 97.2955 389.564 92.925 382.876 88.4156L377.882 85.0017L372.878 81.618L367.874 78.2404C367.031 77.6868 366.163 77.1805 365.311 76.6447C364.459 76.1089 363.599 75.591 362.724 75.0963C355.697 71.1811 348.105 68.3799 340.219 66.7927C336.287 65.9531 332.307 65.3644 328.307 64.9047C324.306 64.445 320.299 64.0909 316.283 63.8672C308.243 63.3938 300.182 63.3684 292.131 63.5318C284.08 63.6952 276.023 64.0205 267.963 64.2079C259.903 64.3953 251.851 64.6712 243.821 65.2561C235.784 65.8039 227.782 66.7635 219.844 68.1312C211.913 69.5399 204.088 71.4939 196.426 73.9794C181.091 78.9548 166.483 85.8717 151.494 91.8125C149.629 92.5804 147.719 93.2554 145.832 93.9457L142.99 94.9892C142.043 95.3371 141.102 95.6856 140.136 95.9812C136.286 97.2029 132.466 98.4905 128.56 99.493C120.786 101.647 112.907 103.404 104.953 104.756L98.976 105.709L97.4851 105.944L95.9869 106.135L92.9849 106.509C88.9864 107.063 84.9696 107.396 80.9539 107.773C72.9196 108.389 64.8635 108.814 56.7985 108.826C40.6725 108.907 24.5567 107.997 8.54225 106.102Z" fill="white"/>
<path d="M7.0161 119.064C23.17 121.502 39.4895 122.677 55.826 122.577L58.8878 122.553L60.421 122.548L61.9483 122.486L68.0677 122.257L69.5949 122.195L71.121 122.088L74.1793 121.877C76.2121 121.716 78.2542 121.638 80.2777 121.395L86.3731 120.776C87.3844 120.685 88.3952 120.545 89.406 120.405L92.4438 119.991C96.4969 119.505 100.506 118.752 104.549 118.079C112.563 116.497 120.566 114.795 128.341 112.461C132.284 111.406 136.125 110.046 140.022 108.799C140.995 108.497 141.945 108.119 142.899 107.765L145.769 106.694C147.678 105.975 149.6 105.257 151.482 104.498C166.622 98.3927 181.342 91.2573 196.649 85.4906C204.299 82.6161 212.073 80.1063 219.972 77.9612C227.857 75.8144 235.834 74.0098 243.841 72.3837C251.847 70.7576 259.883 69.31 267.908 67.7986C275.932 66.2872 283.926 64.5032 291.922 62.9635C295.935 62.1735 299.966 61.5044 304.04 60.9465C308.114 60.3887 312.158 59.9276 316.239 59.6834C318.278 59.5298 320.328 59.4901 322.369 59.4181C324.411 59.3462 326.459 59.3751 328.508 59.4542C332.598 59.5157 336.677 59.8965 340.707 60.5931C348.766 62.0007 356.662 64.9286 363.323 69.7852C364.943 71.0349 366.622 72.2162 368.183 73.5404C369.745 74.8647 371.293 76.206 372.811 77.5816L381.802 85.9025C387.796 91.4457 393.84 96.9383 400.225 102.013C403.418 104.551 406.685 106.991 410.056 109.28C413.413 111.594 416.941 113.649 420.61 115.428C424.268 117.215 428.052 118.733 431.93 119.97C435.805 121.219 439.763 122.199 443.773 122.9C451.814 124.256 459.975 124.762 468.122 124.41C476.275 124.068 484.403 123.283 492.471 122.059C500.544 120.885 508.588 119.476 516.623 118.04L528.681 115.885C532.695 115.145 536.689 114.303 540.696 113.512C548.697 111.929 556.846 110.639 565.052 110.925C569.146 111.077 573.217 111.605 577.213 112.504C581.2 113.414 585.121 114.587 588.952 116.017C596.636 118.827 604.01 122.383 611.41 125.816C615.109 127.543 618.844 129.173 622.573 130.853L633.768 135.83C641.241 139.122 648.757 142.313 656.389 145.198C664.021 148.083 671.804 150.578 679.635 152.873C687.466 155.168 695.367 157.233 703.329 158.993C719.275 162.558 735.506 164.704 751.831 165.404C735.498 164.755 719.255 162.66 703.293 159.145C695.316 157.409 687.399 155.367 679.554 153.089C671.708 150.811 663.915 148.346 656.271 145.459C648.627 142.573 641.103 139.394 633.623 136.113L622.427 131.148C618.697 129.469 614.955 127.844 611.251 126.111C603.838 122.682 596.475 119.14 588.807 116.351C584.987 114.933 581.077 113.771 577.102 112.872C573.127 111.984 569.078 111.462 565.008 111.314C556.865 111.079 548.773 112.357 540.765 113.939C536.758 114.73 532.764 115.572 528.745 116.312L516.691 118.48C508.65 119.921 500.61 121.343 492.523 122.528C484.438 123.76 476.292 124.553 468.122 124.904C459.937 125.272 451.737 124.778 443.656 123.431C439.623 122.72 435.644 121.732 431.747 120.474C427.842 119.233 424.032 117.71 420.347 115.917C416.659 114.128 413.111 112.062 409.735 109.737C406.342 107.471 403.06 104.998 399.855 102.459C393.455 97.3445 387.384 91.8738 381.383 86.3361L372.407 77.9981C370.895 76.6232 369.373 75.2785 367.802 73.9721C366.232 72.6656 364.585 71.4817 362.976 70.2396C356.409 65.4376 348.605 62.5266 340.609 61.1199C336.598 60.4213 332.539 60.0364 328.468 59.9687C326.432 59.8849 324.395 59.9199 322.36 59.9301C320.326 59.9403 318.283 60.0308 316.251 60.1852C312.188 60.4253 308.128 60.8596 304.091 61.4278C300.053 61.9961 296.029 62.666 292.024 63.4382C284.005 64.9565 276.036 66.7433 268 68.2471C259.964 69.751 251.935 71.1869 243.936 72.8013C235.938 74.4158 227.968 76.215 220.091 78.3439C212.214 80.4729 204.439 82.9763 196.797 85.8391C181.51 91.5895 166.781 98.6987 151.617 104.795C149.732 105.579 147.811 106.234 145.898 106.984L143.022 108.061C142.068 108.414 141.117 108.793 140.138 109.093C136.241 110.347 132.394 111.701 128.457 112.756C120.603 115.017 112.641 116.884 104.6 118.347C100.569 119.016 96.5495 119.755 92.4971 120.234L89.4607 120.636C88.4499 120.777 87.4337 120.91 86.4169 120.993L80.3229 121.601C78.294 121.837 76.2526 121.909 74.2143 122.062L71.1574 122.261L69.6314 122.368L68.0986 122.423L61.9752 122.633L60.4425 122.688L58.9154 122.694L55.8489 122.705C39.5013 122.765 23.174 121.548 7.0161 119.064Z" fill="white"/>
<path d="M5.49467 132.026L11.6298 133.075C12.6552 133.243 13.6771 133.442 14.6992 133.584L17.7792 134.001C19.844 134.269 21.9024 134.593 23.942 134.809L30.1577 135.429C38.4464 136.138 46.7718 136.581 55.0917 136.474C71.7473 136.394 88.3582 134.742 104.703 131.54L110.804 130.22L113.895 129.618L116.917 128.852L122.962 127.307L128.951 125.543L131.946 124.636L134.901 123.637L140.816 121.645L146.645 119.425L149.563 118.309L152.451 117.133C167.839 110.769 182.804 103.405 198.108 96.8557C213.411 90.3066 229.153 84.7837 244.931 79.4339C252.838 76.7705 260.733 74.1055 268.549 71.2502C276.365 68.3949 284.043 65.1609 291.887 62.34C295.804 60.9134 299.759 59.5913 303.774 58.4636C307.788 57.3359 311.847 56.3635 315.984 55.6378C320.082 54.9308 324.217 54.4618 328.369 54.2333C330.454 54.1122 332.544 54.0976 334.63 54.1895C336.721 54.264 338.806 54.4597 340.875 54.7757C345.033 55.3772 349.089 56.5442 352.931 58.2442C354.838 59.1158 356.679 60.126 358.439 61.2667C360.187 62.4233 361.838 63.7219 363.373 65.1491C366.498 67.9239 369.389 70.9509 372.017 74.1997C374.676 77.4079 377.266 80.6707 379.864 83.9219C385.059 90.4305 390.254 96.9452 395.846 103.099C401.438 109.253 407.346 115.168 414.323 119.723C421.285 124.273 428.906 127.725 436.919 129.957C440.917 131.081 444.985 131.941 449.097 132.533C453.2 133.137 457.332 133.52 461.476 133.68C469.785 133.988 478.105 133.69 486.37 132.787C494.64 131.917 502.886 130.6 511.041 129.047C515.13 128.266 519.19 127.41 523.221 126.48C527.27 125.544 531.282 124.435 535.299 123.345C543.322 121.139 551.498 119.12 559.881 119.013C564.061 118.971 568.234 119.377 572.328 120.225C576.427 121.076 580.455 122.238 584.378 123.699C592.178 126.59 599.667 130.341 607.193 133.877C610.954 135.66 614.774 137.313 618.585 138.989C622.396 140.666 626.198 142.366 630.021 143.994C637.67 147.275 645.377 150.426 653.222 153.204C661.066 155.982 669.073 158.272 677.116 160.416C685.158 162.56 693.279 164.406 701.446 166.008C717.789 169.217 734.344 171.234 750.979 172.043C734.338 171.282 717.773 169.316 701.416 166.161C693.256 164.585 685.137 162.743 677.059 160.634C669.008 158.514 660.975 156.284 653.119 153.505C645.262 150.725 637.533 147.591 629.89 144.311C626.062 142.676 622.259 140.982 618.441 139.317C614.622 137.652 610.802 136 607.041 134.216C599.502 130.685 592.049 126.951 584.239 124.089C580.351 122.627 576.356 121.465 572.29 120.614C568.22 119.77 564.071 119.369 559.916 119.418C551.589 119.531 543.452 121.58 535.439 123.756C531.422 124.852 527.41 125.961 523.347 126.914C519.284 127.867 515.215 128.707 511.121 129.494C502.94 131.056 494.706 132.381 486.416 133.261C478.127 134.186 469.781 134.504 461.446 134.214C457.277 134.059 453.119 133.679 448.99 133.077C444.866 132.489 440.785 131.627 436.775 130.498C428.699 128.254 421.017 124.778 414 120.192C410.507 117.894 407.218 115.3 404.169 112.438C401.119 109.585 398.203 106.598 395.391 103.516C389.775 97.3532 384.568 90.837 379.373 84.3284C376.776 81.0711 374.192 77.8089 371.539 74.6015C368.943 71.3625 366.082 68.345 362.986 65.5801C361.484 64.1749 359.869 62.8951 358.158 61.7536C356.427 60.6236 354.614 59.6248 352.734 58.7657C348.945 57.0897 344.946 55.9378 340.847 55.3418C338.797 55.0289 336.731 54.8333 334.659 54.7558C332.581 54.6645 330.499 54.6801 328.423 54.8025C324.276 55.0162 320.146 55.4754 316.054 56.1775C311.961 56.8959 307.915 57.8635 303.914 58.9803C299.914 60.097 295.976 61.4336 292.056 62.8286C284.227 65.6324 276.543 68.8595 268.714 71.7134C260.886 74.5673 252.988 77.2068 245.105 79.8793C229.324 85.1975 213.599 90.6847 198.294 97.2462C182.989 103.808 168.017 111.127 152.612 117.47L149.718 118.652L146.8 119.762L140.953 121.98L135.031 123.971L132.071 124.963L129.07 125.869L123.075 127.633L117.018 129.17L113.99 129.935L110.937 130.592L104.825 131.898C88.4559 135.033 71.8277 136.618 55.1611 136.632C46.8324 136.707 38.5099 136.239 30.2171 135.511L24.0351 134.869C21.9668 134.632 19.9138 134.315 17.8744 134.043L14.7951 133.62C13.7614 133.47 12.7396 133.271 11.7272 133.099L5.49467 132.026Z" fill="white"/>
<path d="M3.97364 144.988L10.2445 146.271C11.2911 146.473 12.3258 146.723 13.3828 146.888L16.54 147.395L19.7027 147.909C20.7528 148.079 21.8083 148.257 22.8655 148.366L29.2207 149.134L30.8136 149.317L32.4068 149.443L35.5931 149.697C37.72 149.86 39.8482 150.067 41.9825 150.112L48.3773 150.371C50.5061 150.41 52.642 150.386 54.7743 150.393L57.9705 150.398L61.1678 150.283L67.5645 150.036L73.9442 149.556C75.0056 149.465 76.0743 149.419 77.1022 149.293L80.2716 148.932C88.7657 148.025 97.2084 146.688 105.567 144.926L111.81 143.516L113.364 143.163L114.912 142.753L118.009 141.939L121.1 141.118L122.642 140.707L124.17 140.257L130.295 138.396C131.318 138.101 132.327 137.754 133.331 137.4L136.36 136.359C138.369 135.645 140.406 135.01 142.381 134.205L148.351 131.9C149.351 131.527 150.318 131.113 151.317 130.702C152.315 130.291 153.287 129.89 154.268 129.465C169.978 122.8 185.212 115.06 200.6 107.664C215.988 100.267 231.517 93.1686 246.853 85.6787C254.522 81.9306 262.118 78.0491 269.57 73.9008C277.022 69.7524 284.279 65.2314 291.827 61.2255C295.598 59.215 299.452 57.364 303.387 55.6726C307.327 54.0066 311.367 52.5905 315.485 51.4326C319.614 50.2905 323.82 49.4524 328.072 48.9252C330.201 48.6757 332.343 48.5396 334.487 48.5175C336.634 48.5192 338.778 48.6549 340.908 48.9239C345.186 49.4418 349.341 50.7002 353.186 52.643C357.018 54.6366 360.447 57.3235 363.298 60.5673C366.118 63.7974 368.65 67.2679 370.865 70.9391C373.132 74.5652 375.318 78.2383 377.485 81.9216C381.811 89.2999 386.068 96.6704 390.788 103.781C393.151 107.331 395.612 110.798 398.28 114.138C399.589 115.815 400.988 117.415 402.433 118.994C403.878 120.574 405.419 122.021 407.031 123.407C410.226 126.218 413.667 128.734 417.314 130.926C420.951 133.13 424.762 135.032 428.709 136.614C436.63 139.761 444.925 141.867 453.388 142.878C461.845 143.887 470.378 144.114 478.877 143.555C487.387 143.019 495.851 141.901 504.209 140.21C508.392 139.377 512.544 138.409 516.666 137.306C520.783 136.209 524.82 134.834 528.852 133.445C532.883 132.057 536.921 130.619 541.042 129.491C545.154 128.296 549.371 127.492 553.635 127.091C557.911 126.733 562.216 126.925 566.444 127.662C570.66 128.409 574.799 129.535 578.812 131.028C586.858 133.955 594.462 137.9 602.154 141.574C605.994 143.429 609.878 145.126 613.825 146.819C617.772 148.511 621.648 150.22 625.579 151.885C633.444 155.197 641.385 158.33 649.475 161.037C657.566 163.743 665.811 165.86 674.136 167.836C682.46 169.812 690.806 171.491 699.197 172.949C716.024 175.831 733.003 177.737 750.051 178.655C732.998 177.789 716.011 175.933 699.173 173.097C690.755 171.666 682.386 169.985 674.067 168.054C665.758 166.104 657.463 164.038 649.362 161.318C641.26 158.598 633.303 155.494 625.431 152.193C621.498 150.54 617.592 148.822 613.67 147.132C609.748 145.443 605.829 143.729 601.979 141.898C594.268 138.228 586.681 134.297 578.664 131.393C574.67 129.909 570.551 128.791 566.355 128.052C562.161 127.327 557.892 127.141 553.651 127.499C549.427 127.916 545.252 128.726 541.18 129.92C537.076 131.068 533.052 132.495 529.02 133.884C524.988 135.272 520.958 136.648 516.802 137.753C512.647 138.859 508.518 139.836 504.322 140.698C495.938 142.398 487.448 143.525 478.911 144.072C470.373 144.63 461.801 144.401 453.304 143.388C444.794 142.373 436.452 140.262 428.484 137.108C424.509 135.508 420.671 133.59 417.007 131.372C413.323 129.164 409.846 126.629 406.617 123.798C404.988 122.403 403.466 120.89 401.972 119.354C400.479 117.819 399.097 116.178 397.777 114.493C395.115 111.147 392.627 107.646 390.25 104.107C385.506 96.9936 381.234 89.5839 376.905 82.2303C374.745 78.5477 372.567 74.8506 370.308 71.263C368.103 67.633 365.583 64.2035 362.778 61.0142C360 57.796 356.648 55.122 352.893 53.1285C349.112 51.1957 345.022 49.9383 340.808 49.4128C338.706 49.143 336.588 49.0062 334.468 49.0034C332.344 49.0219 330.222 49.154 328.111 49.3989C323.888 49.9178 319.71 50.7465 315.609 51.8784C311.509 53.0365 307.486 54.4549 303.567 56.1249C299.654 57.7981 295.813 59.6358 292.042 61.6381C284.522 65.616 277.253 70.0793 269.815 74.273C262.377 78.4667 254.735 82.3054 247.068 86.0473C231.708 93.5221 216.154 100.562 200.757 107.982C185.36 115.403 170.127 123.086 154.391 129.748C153.405 130.168 152.419 130.579 151.435 130.978C150.449 131.391 149.463 131.803 148.463 132.176L142.487 134.479C140.518 135.285 138.465 135.894 136.448 136.626L133.419 137.666C132.415 138.02 131.4 138.366 130.377 138.662L124.247 140.516L122.712 140.965L121.164 141.375L118.068 142.189L114.971 143.003L113.423 143.414L111.863 143.76L105.609 145.162C97.2509 146.915 88.8094 148.242 80.3168 149.137L77.1489 149.486C76.0901 149.608 75.0213 149.655 73.9908 149.749L67.6009 150.209L61.1726 150.459L57.976 150.567L54.7751 150.55C52.6373 150.536 50.5021 150.553 48.3678 150.508L41.9752 150.23C39.8416 150.179 37.7141 149.966 35.5879 149.796L32.3968 149.53L30.8037 149.403C30.2727 149.342 29.7417 149.281 29.2108 149.22L22.857 148.44C21.7951 148.318 20.7457 148.141 19.6901 147.964L16.5343 147.444L13.3785 146.925C12.3215 146.76 11.2875 146.504 10.2348 146.302L3.97364 144.988Z" fill="white"/>
<path d="M2.44764 157.944L8.86038 159.463L10.4684 159.841L11.2658 160.033L12.0806 160.183L15.3198 160.793L18.5528 161.402L20.1762 161.701L21.8074 161.932L28.3336 162.845C29.4207 163.02 30.5192 163.096 31.6094 163.19L34.8903 163.492L38.1704 163.8C39.2689 163.876 40.3662 163.908 41.4661 163.972C43.6572 164.068 45.8192 164.197 48.044 164.271L54.6339 164.303C63.4216 164.254 72.1989 163.69 80.9206 162.613L84.193 162.226C85.2826 162.107 86.3637 161.9 87.4521 161.737L93.9567 160.714L100.426 159.455L103.659 158.814L106.873 158.057C109.009 157.545 111.154 157.066 113.304 156.537L119.659 154.797C120.713 154.499 121.787 154.247 122.827 153.91L125.974 152.926C128.065 152.259 130.174 151.651 132.253 150.926C136.388 149.456 140.557 148.071 144.627 146.405C146.666 145.589 148.724 144.83 150.748 143.981C152.772 143.131 154.792 142.269 156.802 141.386C172.891 134.308 188.465 126.113 203.879 117.675C219.293 109.237 234.536 100.435 249.226 90.7875C252.898 88.3735 256.519 85.8974 260.088 83.359C261.884 82.1016 263.649 80.7904 265.424 79.4993C267.199 78.2081 268.942 76.8633 270.668 75.5101C277.628 70.1418 284.438 64.5498 291.665 59.5311C293.451 58.2475 295.32 57.0671 297.154 55.8579C298.988 54.6486 300.889 53.5157 302.84 52.4888C304.791 51.4618 306.742 50.4348 308.712 49.4539C309.715 48.9999 310.728 48.572 311.742 48.1317C312.248 47.9147 312.745 47.6777 313.261 47.4868L314.822 46.9093L316.371 46.3365C316.887 46.1456 317.404 45.9485 317.934 45.8029L321.102 44.8471C321.629 44.6761 322.163 44.5498 322.705 44.4056L324.318 44.028C325.391 43.7822 326.461 43.511 327.525 43.3393C328.59 43.1676 329.714 42.9652 330.803 42.8464C331.355 42.7847 331.903 42.7476 332.453 42.6982C333.003 42.6488 333.559 42.6062 334.11 42.5946C336.321 42.4866 338.536 42.5633 340.734 42.8239C342.937 43.0727 345.111 43.532 347.226 44.1954C349.338 44.9229 351.368 45.8711 353.282 47.0245C355.181 48.1806 356.95 49.5374 358.559 51.0715C358.974 51.4382 359.325 51.8664 359.711 52.2611C360.098 52.6558 360.483 53.0629 360.821 53.4896C361.538 54.3351 362.222 55.204 362.874 56.0964C365.41 59.7137 367.601 63.5616 369.417 67.5892C371.288 71.5577 373.056 75.608 374.787 79.6542C378.237 87.7388 381.568 95.8787 385.388 103.787C387.297 107.76 389.335 111.635 391.56 115.412C393.754 119.202 396.291 122.783 399.138 126.111C404.903 132.733 411.801 138.274 419.509 142.477C427.22 146.673 435.491 149.744 444.072 151.599C452.651 153.468 461.411 154.378 470.191 154.312C478.97 154.258 487.725 153.379 496.341 151.687C500.642 150.842 504.915 149.8 509.123 148.564C513.333 147.312 517.471 145.831 521.519 144.126C525.577 142.453 529.61 140.677 533.734 139.143C537.839 137.533 542.088 136.319 546.424 135.515C547.518 135.359 548.6 135.14 549.703 135.066L551.354 134.912C551.904 134.862 552.454 134.869 553.006 134.851C553.559 134.834 554.112 134.809 554.662 134.81L556.312 134.881L557.967 134.958L559.61 135.147C563.991 135.677 568.301 136.682 572.465 138.144C580.815 140.981 588.622 145.124 596.505 148.983C600.447 150.931 604.444 152.735 608.496 154.433L620.629 159.581C628.744 162.946 636.952 166.098 645.322 168.761C649.502 170.101 653.727 171.293 657.998 172.338L664.414 173.833C666.562 174.298 668.682 174.798 670.859 175.236C679.46 177.029 688.107 178.582 696.798 179.893C714.181 182.516 731.689 184.221 749.238 185.293C731.691 184.259 714.17 182.615 696.776 180.028C688.083 178.733 679.428 177.205 670.81 175.443C668.657 175.015 666.536 174.527 664.361 174.077L657.938 172.594C653.664 171.565 649.421 170.383 645.208 169.048C636.817 166.401 628.603 163.243 620.475 159.888L608.336 154.74C604.285 153.023 600.268 151.236 596.326 149.288C588.429 145.44 580.632 141.322 572.318 138.497C568.173 137.045 563.883 136.049 559.522 135.525L557.886 135.337L556.249 135.268L554.612 135.198C554.061 135.198 553.52 135.223 552.968 135.235C552.416 135.246 551.878 135.253 551.335 135.297L549.697 135.453C548.606 135.528 547.529 135.748 546.448 135.906C542.137 136.705 537.913 137.916 533.834 139.523C529.728 141.066 525.702 142.837 521.637 144.515C517.588 146.229 513.449 147.721 509.238 148.983C505.015 150.233 500.741 151.281 496.415 152.127C487.773 153.844 478.988 154.741 470.178 154.805C461.362 154.883 452.566 153.979 443.951 152.11C435.317 150.257 426.994 147.175 419.235 142.958C411.465 138.729 404.51 133.151 398.695 126.485C395.824 123.129 393.268 119.516 391.058 115.692C388.816 111.9 386.776 107.994 384.854 104.032C381.03 96.0922 377.669 87.9426 374.218 79.8641C372.493 75.8249 370.728 71.7999 368.871 67.8205C367.072 63.8341 364.905 60.0246 362.396 56.4419C361.751 55.5628 361.076 54.7033 360.372 53.8634C360.026 53.4421 359.638 53.0597 359.26 52.6534C358.881 52.247 358.533 51.8442 358.143 51.4866C356.564 49.9821 354.83 48.6504 352.969 47.514C351.087 46.4101 349.094 45.5079 347.023 44.8227C344.948 44.1562 342.815 43.6911 340.651 43.4337C338.483 43.1758 336.297 43.0983 334.116 43.202C333.57 43.2144 333.021 43.2514 332.478 43.3015C331.934 43.3517 331.392 43.3833 330.846 43.4519C329.766 43.5968 328.683 43.7163 327.607 43.9305C326.532 44.1447 325.462 44.3658 324.401 44.613L322.801 44.9859C322.268 45.1061 321.734 45.2262 321.214 45.3979L318.072 46.3442C317.542 46.4898 317.032 46.6815 316.516 46.8724L314.974 47.4397L313.448 47.9837C312.938 48.1753 312.442 48.4123 311.936 48.6232C310.934 49.0648 309.922 49.4866 308.925 49.9413C306.968 50.9175 304.953 51.8495 303.081 52.9481C301.209 54.0468 299.293 55.159 297.417 56.2885C295.542 57.418 293.728 58.6672 291.943 59.9446C284.719 64.9386 277.921 70.5258 270.95 75.8866C269.218 77.239 267.453 78.5563 265.693 79.8805C263.933 81.2047 262.147 82.4821 260.345 83.7388C256.758 86.2835 253.123 88.758 249.439 91.1623C234.718 100.806 219.449 109.568 204.033 118.024C188.617 126.481 173.016 134.635 156.896 141.703C154.881 142.585 152.867 143.455 150.831 144.297C148.795 145.139 146.742 145.91 144.703 146.721C140.627 148.385 136.452 149.77 132.298 151.238C130.226 151.957 128.111 152.565 126.014 153.231L122.867 154.214C121.82 154.557 120.746 154.809 119.693 155.101L113.326 156.834C111.194 157.371 109.044 157.843 106.896 158.347L103.682 159.098L100.445 159.727L94.025 160.991L87.5094 162C86.4224 162.15 85.3393 162.376 84.2456 162.476L80.9684 162.85C72.2379 163.906 63.4528 164.446 54.6587 164.469L48.0647 164.418C45.8716 164.341 43.6731 164.201 41.4828 164.099C40.3829 164.036 39.2863 163.997 38.1878 163.921L34.9084 163.607L31.6228 163.292C30.5361 163.167 29.4355 163.109 28.3505 162.916L21.8264 161.985L20.1952 161.753L18.5732 161.442L15.3094 160.829L12.0709 160.213L11.263 160.058L10.4594 159.865L8.85825 159.481L2.44764 157.944Z" fill="white"/>
<path d="M0.9269 170.906C9.64898 173.447 18.5425 175.357 27.5386 176.622C29.7922 176.881 32.0458 177.14 34.3036 177.362C35.4335 177.492 36.5634 177.622 37.6942 177.689L41.0934 177.886L44.4934 178.076L46.1903 178.171C46.7571 178.192 47.3268 178.189 47.895 178.198L54.7003 178.261C72.8732 177.984 90.9518 175.587 108.569 171.119L111.877 170.311C112.973 170.03 114.062 169.705 115.154 169.399L121.703 167.549L128.198 165.468C129.277 165.116 130.365 164.791 131.447 164.415L134.651 163.263C136.78 162.481 138.935 161.753 141.049 160.933L147.375 158.419C151.596 156.746 155.748 154.908 159.881 153.025C176.368 145.401 192.327 136.683 207.651 126.929C223.035 117.267 237.726 106.545 251.619 94.8407C258.548 88.9808 265.19 82.7815 271.609 76.3562C274.829 73.1542 278.045 69.9392 281.3 66.7662C284.554 63.5932 287.888 60.4981 291.332 57.5282C298.265 51.6313 305.676 46.2083 313.966 42.3816L315.514 41.6524C316.03 41.4113 316.57 41.2232 317.096 41.0083L320.28 39.754L323.525 38.7319C324.069 38.5692 324.61 38.3811 325.159 38.2315L326.823 37.7971C329.046 37.2589 331.307 36.8913 333.587 36.6976C334.727 36.5721 335.87 36.5908 337.013 36.5532C338.156 36.5157 339.29 36.6585 340.432 36.7898C341.575 36.921 342.696 37.1249 343.825 37.3172C344.941 37.579 346.042 37.9018 347.123 38.2842C348.207 38.6661 349.267 39.1117 350.298 39.6187C351.308 40.1507 352.285 40.7455 353.221 41.3996C353.682 41.7404 354.181 42.0291 354.613 42.4103L355.93 43.525C356.369 43.8883 356.745 44.3255 357.156 44.7231C357.57 45.1211 357.96 45.544 358.324 45.9896C359.823 47.7218 361.152 49.5944 362.292 51.5814C364.514 55.5674 366.348 59.7584 367.766 64.0963C369.248 68.4016 370.614 72.7374 371.904 77.0831C374.527 85.7797 376.959 94.5544 379.902 103.131C381.367 107.422 382.962 111.672 384.761 115.832C386.498 120.015 388.591 124.042 391.017 127.867C395.962 135.477 402.283 142.099 409.654 147.393C417.022 152.688 425.16 156.817 433.783 159.637C442.403 162.465 451.349 164.178 460.404 164.735C469.455 165.313 478.544 164.808 487.476 163.229C491.957 162.458 496.388 161.419 500.745 160.118C505.087 158.828 509.329 157.224 513.439 155.321C517.554 153.423 521.587 151.322 525.695 149.379C529.778 147.36 534.026 145.69 538.392 144.388C542.779 143.107 547.34 142.525 551.908 142.663C556.468 142.853 560.984 143.639 565.34 145.001C574.074 147.656 582.143 151.968 590.246 156.033C598.303 160.224 606.785 163.495 615.131 167.081C623.528 170.548 632.033 173.734 640.711 176.389C645.051 177.713 649.43 178.904 653.858 179.895C656.072 180.393 658.299 180.83 660.523 181.286L667.206 182.58C676.137 184.231 685.111 185.619 694.114 186.804C712.121 189.173 730.233 190.685 748.35 191.935C730.227 190.734 712.116 189.273 694.097 186.952C685.084 185.797 676.101 184.434 667.167 182.807L660.476 181.531C658.253 181.063 656.019 180.637 653.805 180.139C649.363 179.166 644.97 177.979 640.623 176.666C631.924 174.028 623.417 170.811 615.003 167.379C606.657 163.799 598.161 160.533 590.085 156.346C581.975 152.286 573.917 147.989 565.23 145.358C560.908 144.005 556.427 143.226 551.903 143.038C547.376 142.898 542.856 143.479 538.512 144.759C534.17 146.057 529.946 147.721 525.885 149.732C521.784 151.676 517.755 153.803 513.628 155.687C509.501 157.612 505.239 159.237 500.877 160.546C496.521 161.865 492.09 162.923 487.608 163.713C478.637 165.307 469.507 165.823 460.413 165.249C451.315 164.7 442.325 162.987 433.661 160.155C424.986 157.321 416.796 153.175 409.375 147.862C401.944 142.526 395.57 135.854 390.58 128.186C388.134 124.335 386.024 120.281 384.271 116.07C382.462 111.889 380.862 107.627 379.379 103.328C376.427 94.7185 373.981 85.9609 371.352 77.2636C370.043 72.9157 368.683 68.5869 367.214 64.2768C365.808 59.9847 363.993 55.8377 361.793 51.8932C360.671 49.9364 359.364 48.0916 357.891 46.384C357.546 45.952 357.176 45.5417 356.781 45.1554C356.375 44.7648 356.012 44.329 355.578 43.9725L354.295 42.8868C353.876 42.507 353.383 42.2252 352.933 41.892C351.993 41.2516 351.015 40.6672 350.006 40.1419C348.997 39.6494 347.961 39.2129 346.903 38.8345C345.845 38.4579 344.766 38.1417 343.672 37.8877C342.568 37.692 341.47 37.447 340.342 37.3611C339.213 37.2752 338.101 37.2038 336.975 37.1495C335.851 37.1892 334.721 37.1658 333.6 37.2933C331.355 37.4777 329.128 37.8367 326.939 38.3672L325.294 38.8037C324.745 38.9472 324.211 39.1359 323.673 39.2993L320.43 40.3029L317.265 41.547C316.747 41.7565 316.206 41.9446 315.697 42.1801L314.163 42.9046C305.938 46.6451 298.538 52.0318 291.664 57.9042C288.196 60.865 284.912 63.9658 281.641 67.1182C278.37 70.2706 275.173 73.4877 271.951 76.6958C265.521 83.1135 258.865 89.3237 251.911 95.1808C237.986 106.891 223.261 117.615 207.843 127.276C192.494 137.022 176.513 145.733 160.006 153.352C155.868 155.229 151.703 157.065 147.501 158.74L141.163 161.252C139.042 162.072 136.888 162.794 134.759 163.575L131.549 164.727C130.48 165.104 129.385 165.429 128.3 165.78L121.806 167.855L115.244 169.703C114.145 170.009 113.057 170.334 111.961 170.615L108.648 171.416C91.001 175.838 72.8987 178.186 54.7079 178.412L47.8918 178.335C47.3235 178.326 46.7539 178.33 46.187 178.308L44.4847 178.207L41.0861 178.004L37.6705 177.786C36.5328 177.724 35.4072 177.558 34.2813 177.447C32.0216 177.187 29.763 176.972 27.4897 176.667C18.509 175.385 9.63188 173.459 0.9269 170.906H0.9269Z" fill="white"/>
<path d="M0.412188 175.382L6.96821 177.123L8.6014 177.555C9.14714 177.705 9.6936 177.849 10.2512 177.951L13.5704 178.626L16.8958 179.302L18.552 179.643C19.1082 179.757 19.6707 179.815 20.2298 179.905L26.9355 180.888C28.0521 181.079 29.1767 181.145 30.3004 181.274L33.6739 181.587L37.0473 181.899C38.171 182.029 39.3048 182.015 40.4363 182.076L47.2037 182.36L53.9819 182.331C55.1096 182.317 56.2398 182.334 57.3704 182.295L60.7552 182.128C63.0095 181.999 65.2691 181.933 67.5237 181.748C72.0159 181.307 76.5255 180.987 80.9953 180.306L84.3524 179.834L86.03 179.608C86.5896 179.528 87.1404 179.417 87.7015 179.325L94.3775 178.171L96.0436 177.881L97.7044 177.528L101.018 176.832C103.226 176.348 105.449 175.947 107.636 175.372L114.216 173.751C115.321 173.496 116.401 173.183 117.494 172.876L120.727 171.959C125.095 170.803 129.388 169.376 133.689 168.037C142.262 165.188 150.766 162.111 159.124 158.68C175.854 151.814 192.027 143.662 207.498 134.299C215.229 129.628 222.759 124.638 230.087 119.328C237.416 114.019 244.512 108.426 251.377 102.551C254.797 99.6074 258.159 96.5906 261.462 93.5004C264.757 90.4133 267.958 87.2216 271.147 84.0161C277.515 77.5975 283.851 71.1252 290.651 65.1379C291.495 64.384 292.377 63.6722 293.238 62.9328C294.098 62.1935 294.965 61.461 295.863 60.776L298.537 58.6811L301.268 56.6866L302.634 55.6924L304.06 54.7678C305.019 54.1523 305.956 53.5155 306.924 52.9262C308.897 51.8142 310.825 50.6093 312.88 49.6507L314.406 48.8939C314.907 48.6283 315.421 48.3888 315.946 48.1763L319.169 46.8576C319.432 46.7502 319.689 46.6358 319.957 46.5353L320.758 46.2644L322.372 45.718C323.451 45.3665 324.512 44.9505 325.619 44.6835C329.997 43.413 334.546 42.834 339.103 42.9674C341.386 43.0884 343.651 43.4367 345.865 44.0071C348.062 44.639 350.177 45.5266 352.167 46.6518C354.119 47.8418 355.92 49.265 357.529 50.8899C357.954 51.2765 358.294 51.7411 358.679 52.1543C359.063 52.5675 359.45 53.0062 359.779 53.4631C360.484 54.3573 361.133 55.2952 361.762 56.2433C364.181 60.0971 366.174 64.2024 367.706 68.4867C369.275 72.7395 370.695 77.0377 372.057 81.3543C374.768 89.9921 377.241 98.6901 380.246 107.212C381.746 111.469 383.381 115.704 385.237 119.796C387.036 123.931 389.22 127.887 391.762 131.612C393.018 133.477 394.416 135.245 395.843 136.985C397.269 138.726 398.826 140.362 400.452 141.894C403.67 145.05 407.164 147.911 410.893 150.444C414.631 152.976 418.555 155.223 422.631 157.167C426.706 159.091 430.905 160.738 435.202 162.095C443.819 164.796 452.735 166.429 461.749 166.96C470.764 167.516 479.813 167.019 488.712 165.479C493.158 164.702 497.555 163.665 501.881 162.375C504.037 161.735 506.181 160.993 508.289 160.228C509.343 159.823 510.387 159.393 511.43 158.969C512.474 158.544 513.503 158.081 514.527 157.604C518.633 155.736 522.671 153.698 526.796 151.826C530.897 149.89 535.165 148.33 539.548 147.167C543.949 146.025 548.509 145.619 553.042 145.965C557.568 146.355 562.024 147.338 566.294 148.889C574.877 151.877 582.758 156.411 590.728 160.655C594.711 162.789 598.753 164.798 602.883 166.643C607.012 168.487 611.113 170.366 615.267 172.157C623.558 175.737 631.987 179.083 640.582 181.81C644.886 183.188 649.235 184.397 653.628 185.436C655.834 185.939 658.045 186.412 660.248 186.891C662.451 187.369 664.672 187.806 666.894 188.23C675.769 189.938 684.676 191.361 693.653 192.556C711.573 194.971 729.606 196.468 747.645 197.571C729.625 196.52 711.562 195.07 693.635 192.71C684.67 191.523 675.735 190.121 666.851 188.438C664.628 188.026 662.417 187.559 660.202 187.123C657.988 186.687 655.775 186.183 653.574 185.686C649.163 184.658 644.801 183.458 640.488 182.087C631.862 179.356 623.437 176.024 615.133 172.455C610.96 170.661 606.856 168.814 602.742 166.946C598.627 165.078 594.546 163.089 590.561 160.961C582.583 156.735 574.678 152.198 566.172 149.244C561.931 147.706 557.505 146.735 553.01 146.355C548.515 146.023 543.997 146.438 539.638 147.584C535.278 148.745 531.033 150.301 526.955 152.232C522.85 154.1 518.811 156.145 514.692 158.023C513.667 158.5 512.623 158.937 511.588 159.393C510.553 159.85 509.493 160.26 508.433 160.664C506.309 161.452 504.161 162.181 501.992 162.826C497.653 164.129 493.24 165.172 488.777 165.949C479.843 167.509 470.756 168.018 461.703 167.468C452.647 166.944 443.689 165.312 435.031 162.607C430.707 161.248 426.48 159.597 422.38 157.663C418.283 155.714 414.339 153.456 410.583 150.909C406.828 148.359 403.307 145.482 400.06 142.312C398.42 140.741 396.9 139.052 395.414 137.337C393.929 135.621 392.561 133.806 391.289 131.921C388.728 128.168 386.524 124.185 384.705 120.023C382.84 115.892 381.198 111.669 379.687 107.398C376.665 98.8554 374.162 90.1477 371.468 81.5305C370.087 77.218 368.703 72.924 367.138 68.6905C365.622 64.448 363.65 60.3828 361.256 56.5667C360.637 55.6323 359.999 54.7082 359.304 53.8402C358.975 53.3832 358.583 52.9816 358.201 52.5561C357.852 52.1239 357.482 51.7098 357.092 51.3152C355.517 49.7269 353.752 48.339 351.837 47.1831C349.889 46.0852 347.82 45.2177 345.672 44.598C343.504 44.0393 341.287 43.6965 339.052 43.5746C334.548 43.4343 330.049 44.0025 325.721 45.2583C324.628 45.5205 323.573 45.9311 322.508 46.2778L320.907 46.8195L320.106 47.0904L319.325 47.4073L316.21 48.7133C315.687 48.9219 315.176 49.1575 314.677 49.4193L313.198 50.1502C311.15 51.1033 309.237 52.291 307.27 53.3976C306.308 53.9876 305.378 54.619 304.427 55.2228L303.007 56.1481L301.643 57.13L298.913 59.1121L296.252 61.1961C295.354 61.8811 294.494 62.6143 293.635 63.3413C292.776 64.0683 291.893 64.7863 291.054 65.5471C284.264 71.5104 277.929 77.9703 271.556 84.382C268.361 87.5807 265.153 90.7779 261.846 93.8635C258.539 96.9491 255.169 99.9776 251.734 102.923C244.869 108.807 237.762 114.401 230.413 119.704C223.065 125.006 215.519 129.993 207.776 134.662C192.275 144.022 176.072 152.164 159.311 159.014C150.942 162.432 142.43 165.52 133.84 168.361C129.514 169.697 125.221 171.124 120.847 172.273L117.575 173.205C116.49 173.505 115.403 173.818 114.297 174.079L107.706 175.687C105.519 176.261 103.291 176.656 101.084 177.134L97.7596 177.809L96.0995 178.156L94.428 178.44L87.7446 179.549C87.1897 179.641 86.6334 179.746 86.0737 179.826L84.3901 180.051L81.0303 180.491C76.5743 181.161 72.0407 181.473 67.5375 181.9C65.2837 182.079 63.0248 182.138 60.765 182.26L57.3809 182.422C56.2511 182.455 55.1208 182.437 53.9876 182.445L47.2026 182.478L40.4319 182.17C39.3011 182.102 38.168 182.11 37.0443 181.98L33.6715 181.662L30.2933 181.336C29.1696 181.207 28.0395 181.133 26.9284 180.949L20.2186 179.947C19.6568 179.882 19.0949 179.818 18.5478 179.68L16.8854 179.339L13.5676 178.651L10.2436 177.963C9.69218 177.862 9.14572 177.718 8.59998 177.567L6.96133 177.129L0.412188 175.382Z" fill="white"/>
<path d="M0.911163 171.316L7.26733 172.728C8.32958 172.957 9.38139 173.222 10.4479 173.413L13.6585 173.945L16.8692 174.476L18.4776 174.742L19.276 174.871L20.0848 174.964L26.5492 175.707C28.7052 175.999 30.886 176.074 33.0398 176.222L36.2812 176.431L37.9087 176.531C38.4501 176.555 38.9944 176.555 39.5372 176.568L46.0416 176.69L47.6647 176.72L49.2955 176.682L52.5448 176.605C69.9057 176.266 87.161 173.907 104.194 170.654C112.697 168.947 121.175 167.087 129.576 164.912C133.792 163.877 137.962 162.704 142.158 161.579C144.25 161.012 146.329 160.388 148.418 159.796C150.507 159.204 152.59 158.605 154.665 157.967C171.309 153.038 187.6 146.986 203.426 139.855C219.223 132.655 234.378 124.123 248.726 114.351C255.901 109.474 262.847 104.284 269.564 98.7788C276.287 93.2956 282.903 87.6562 289.863 82.4505C296.764 77.1486 304.179 72.5518 311.996 68.7288C313.972 67.8674 315.959 66.9071 318.006 66.1852C319.026 65.8081 320.031 65.3857 321.065 65.0478L324.186 64.0677C328.352 62.7603 332.666 61.9823 337.026 61.7522C341.41 61.5162 345.799 62.1096 349.962 63.5013C354.122 64.9471 357.883 67.3508 360.942 70.5181C363.995 73.6435 366.669 77.1171 368.911 80.8674C371.158 84.61 373.121 88.4889 375.058 92.3773C378.904 100.17 382.44 108.108 386.568 115.732C388.609 119.553 390.863 123.256 393.32 126.824C394.553 128.597 395.884 130.3 397.307 131.924C398.028 132.726 398.706 133.573 399.462 134.342L401.78 136.604C402.174 136.981 402.542 137.373 402.952 137.727L404.196 138.771L406.678 140.851L409.299 142.754C410.161 143.411 411.055 144.023 411.979 144.588L414.727 146.312L415.417 146.735L416.129 147.123L417.552 147.912C418.508 148.416 419.445 148.968 420.417 149.436L423.387 150.81L424.86 151.498L426.367 152.103L429.356 153.31C430.353 153.725 431.395 154.02 432.416 154.387C433.437 154.755 434.462 155.091 435.495 155.417L438.621 156.301C439.657 156.595 440.697 156.909 441.753 157.137C443.87 157.605 445.964 158.165 448.103 158.492C465.188 161.657 482.708 161.658 499.794 158.495C504.052 157.733 508.274 156.758 512.459 155.571C516.629 154.398 520.698 152.902 524.761 151.354C528.824 149.807 532.875 148.252 537.041 146.998C541.197 145.669 545.492 144.825 549.841 144.483C552.018 144.354 554.202 144.382 556.375 144.565C558.547 144.774 560.7 145.146 562.816 145.68C567.023 146.803 571.115 148.321 575.038 150.212C582.897 153.956 590.21 158.687 597.72 163.015C601.46 165.203 605.324 167.18 609.18 169.168C613.037 171.156 616.917 173.103 620.823 174.985C628.615 178.798 636.601 182.199 644.75 185.172C652.904 188.148 661.339 190.25 669.78 192.246C678.221 194.242 686.756 195.854 695.319 197.226C712.468 199.935 729.764 201.615 747.113 202.258C729.759 201.67 712.455 200.041 695.295 197.38C686.725 196.032 678.203 194.394 669.73 192.465C661.279 190.499 652.828 188.421 644.648 185.461C636.481 182.509 628.476 179.129 620.664 175.336C616.751 173.454 612.871 171.506 609.008 169.524C605.145 167.541 601.28 165.57 597.528 163.381C589.999 159.051 582.691 154.332 574.861 150.611C570.961 148.723 566.891 147.208 562.706 146.087C560.611 145.56 558.478 145.192 556.327 144.985C554.176 144.81 552.015 144.786 549.861 144.911C545.546 145.26 541.285 146.101 537.162 147.418C533.019 148.681 528.975 150.231 524.918 151.785C520.861 153.34 516.774 154.822 512.585 155.998C508.397 157.175 504.155 158.157 499.883 158.918C482.741 162.107 465.159 162.123 448.011 158.963C445.862 158.616 443.737 158.053 441.636 157.605C440.567 157.382 439.527 157.068 438.479 156.773L435.34 155.887C434.301 155.567 433.28 155.2 432.25 154.856C431.219 154.512 430.174 154.192 429.171 153.777L426.138 152.565L424.625 151.959L423.147 151.27L420.178 149.891C419.199 149.422 418.256 148.869 417.294 148.364L415.858 147.574L415.14 147.185L414.445 146.755L411.68 145.067C410.736 144.514 409.867 143.858 408.983 143.218L406.338 141.306L403.838 139.161L402.583 138.11C402.174 137.75 401.793 137.356 401.399 136.979L399.059 134.696C398.297 133.92 397.607 133.072 396.88 132.263C395.44 130.623 394.094 128.905 392.849 127.114C390.379 123.53 388.112 119.811 386.059 115.974C381.933 108.325 378.36 100.389 374.512 92.6086C372.587 88.7278 370.624 84.8489 368.404 81.1407C366.189 77.4278 363.546 73.9874 360.53 70.8899C357.535 67.791 353.854 65.4394 349.783 64.025C345.692 62.6516 341.378 62.0668 337.07 62.3014C332.75 62.5239 328.476 63.2941 324.351 64.5934L321.256 65.5577C320.229 65.8964 319.23 66.3133 318.218 66.685C316.173 67.3822 314.237 68.3419 312.26 69.2096C304.47 73.0181 297.08 77.5968 290.202 82.8773C283.25 88.0652 276.636 93.6922 269.9 99.174C263.165 104.656 256.203 109.874 249.018 114.753C234.64 124.527 219.453 133.055 203.625 140.247C187.772 147.358 171.456 153.39 154.789 158.301C152.709 158.931 150.621 159.517 148.531 160.115C146.442 160.713 144.369 161.332 142.271 161.898C138.075 163.03 133.875 164.193 129.678 165.224C121.297 167.389 112.788 169.251 104.268 170.937C87.2136 174.158 69.9386 176.47 52.571 176.758L49.3101 176.827L47.6861 176.86L46.0576 176.823L39.547 176.7C39.0049 176.682 38.4606 176.682 37.9192 176.657L36.2931 176.545L33.0463 176.329C30.8808 176.174 28.6945 176.091 26.5578 175.796L19.2661 174.958L18.4622 174.822L16.8607 174.55L13.6507 174.012L10.4408 173.475C9.37501 173.277 8.31773 173.006 7.26165 172.778L0.911163 171.316Z" fill="white"/>
<path d="M1.41401 167.271L7.59835 168.382C8.63469 168.564 9.66273 168.763 10.695 168.926L13.8149 169.322C15.8956 169.561 17.9692 169.861 20.0506 170.094L26.319 170.583C27.3681 170.654 28.4068 170.76 29.4217 170.802L32.5687 170.907C34.6631 170.973 36.7532 171.075 38.8457 171.103L45.105 171.071C46.151 171.06 47.1996 171.081 48.2368 171.037L51.3785 170.917C53.4721 170.826 55.5676 170.772 57.6648 170.65L63.9339 170.207C64.9815 170.127 66.027 170.066 67.0884 169.975L70.2506 169.676L76.5026 169.055C84.8244 168.06 93.1384 166.969 101.405 165.58C117.975 162.929 134.392 159.586 150.846 156.36C167.301 153.133 183.67 149.496 199.693 144.525C215.718 139.596 231.269 133.241 246.159 125.536C253.602 121.681 260.906 117.565 267.965 113.028C275.024 108.49 281.957 103.794 289.089 99.3716C292.649 97.1407 296.281 95.037 299.955 93.0069L302.75 91.5514L304.147 90.8237L305.565 90.1358L308.405 88.7731L311.29 87.5094C311.771 87.3019 312.253 87.082 312.738 86.8875L314.216 86.3255L317.156 85.1869L320.144 84.1728C320.638 84.0106 321.134 83.8299 321.634 83.6746L323.156 83.2239C327.174 81.9619 331.307 81.0958 335.495 80.6381C339.696 80.183 343.94 80.3253 348.102 81.0607L348.88 81.2002L349.653 81.3829C350.164 81.5104 350.683 81.6201 351.192 81.7661C352.201 82.076 353.219 82.3681 354.204 82.7753C355.189 83.1826 356.14 83.6233 357.104 84.0531C358.026 84.5782 358.972 85.056 359.84 85.6625C363.343 88.0132 366.613 90.6932 369.605 93.6658C371.099 95.1511 372.513 96.7273 373.847 98.3445C375.181 99.9616 376.505 101.615 377.788 103.245C382.959 109.857 387.781 116.723 393.197 123.107C395.868 126.325 398.757 129.356 401.845 132.177C404.977 134.936 408.365 137.391 411.963 139.508C419.122 143.833 426.994 146.865 435.025 149.164C443.099 151.418 451.359 152.94 459.706 153.714C476.404 155.241 493.23 154.603 509.764 151.815C513.89 151.126 518.009 150.341 522.076 149.357C526.142 148.373 530.169 147.197 534.212 146.091C538.252 144.941 542.355 144.024 546.501 143.343C548.581 143.023 550.677 142.812 552.779 142.714C553.831 142.703 554.886 142.668 555.908 142.704L557.488 142.785L558.277 142.826L559.061 142.916C563.258 143.343 567.369 144.389 571.26 146.019C575.145 147.621 578.912 149.496 582.532 151.631C589.791 155.856 596.629 160.758 603.727 165.183C607.275 167.405 610.914 169.493 614.538 171.599C618.162 173.704 621.818 175.751 625.506 177.738C632.88 181.755 640.471 185.363 648.242 188.546C652.122 190.111 656.03 191.542 660.066 192.782C664.103 194.021 668.073 195.241 672.111 196.355C680.198 198.565 688.366 200.429 696.616 201.949C713.106 205.021 729.826 206.701 746.597 206.972C729.822 206.754 713.094 205.123 696.593 202.096C688.341 200.597 680.161 198.757 672.054 196.574C668.007 195.483 663.975 194.313 659.95 193.031C655.925 191.749 651.991 190.378 648.097 188.823C640.329 185.647 632.742 182.043 625.372 178.029C621.68 176.041 618.018 173.996 614.385 171.894C610.761 169.788 607.122 167.706 603.561 165.483C596.446 161.037 589.618 156.167 582.363 151.962C578.751 149.84 574.993 147.976 571.118 146.385C567.261 144.772 563.186 143.741 559.027 143.325L558.249 143.236L557.465 143.196L555.904 143.116C554.863 143.084 553.821 143.121 552.775 143.132C550.689 143.229 548.61 143.439 546.547 143.762C542.417 144.444 538.331 145.363 534.307 146.515C530.27 147.622 526.244 148.798 522.163 149.793C518.083 150.788 513.957 151.577 509.824 152.272C493.248 155.082 476.379 155.738 459.635 154.225C451.265 153.461 442.981 151.944 434.883 149.692C426.822 147.433 418.913 144.354 411.724 140.006C408.083 137.88 404.652 135.412 401.479 132.635C398.366 129.799 395.455 126.747 392.77 123.502C387.325 117.096 382.484 110.228 377.324 103.636C376.024 101.991 374.717 100.352 373.368 98.7586C372.018 97.1647 370.648 95.5873 369.166 94.1157C366.209 91.169 362.973 88.5158 359.504 86.1931C358.639 85.6271 357.744 85.1067 356.824 84.6341C355.879 84.2002 354.959 83.7191 353.979 83.375C352.999 83.0309 352.018 82.6868 351.029 82.3729C350.525 82.2338 350.019 82.1255 349.514 81.9987L348.759 81.8181L347.987 81.6793C343.874 80.9488 339.678 80.8037 335.525 81.2483C331.37 81.7026 327.269 82.5553 323.278 83.7947L321.768 84.2468C321.269 84.4021 320.778 84.5835 320.284 84.7457L317.31 85.7489L314.384 86.8766L312.951 87.4312C312.465 87.6257 311.99 87.8463 311.509 88.0538L308.638 89.3066L305.804 90.6638L304.393 91.3462L302.997 92.0678L300.22 93.4753C296.554 95.4937 292.929 97.5919 289.377 99.8112C282.246 104.215 275.327 108.957 268.236 113.447C261.145 117.937 253.844 122.084 246.387 125.95C231.463 133.652 215.88 140.001 199.823 144.922C183.78 149.853 167.383 153.505 150.925 156.713C134.467 159.92 118.031 163.255 101.465 165.881C93.1758 167.243 84.8708 168.309 76.5402 169.272L70.278 169.873L67.1158 170.172C66.0736 170.259 65.0281 170.32 63.9627 170.392L57.6587 170.812C55.5637 170.916 53.4696 170.957 51.3745 171.06L48.2335 171.174C47.1847 171.21 46.1361 171.19 45.1032 171.196L38.8453 171.215C36.7542 171.175 34.6586 171.066 32.5642 171L29.4502 170.88C28.4037 170.841 27.3596 170.728 26.3173 170.652L20.0525 170.132C17.9657 169.892 15.8906 169.604 13.8128 169.34L10.6936 168.938C9.66202 168.769 8.62852 168.563 7.59835 168.382L1.41401 167.271Z" fill="white"/>
<path d="M1.90948 163.224L7.97685 164.046L11.0129 164.464L14.0667 164.727L20.1674 165.259L26.2863 165.524L29.3488 165.657L32.4063 165.671L38.5336 165.699L44.6583 165.533L47.7147 165.447C48.7389 165.408 49.7542 165.337 50.7743 165.279C67.0863 164.432 83.3236 162.494 99.5144 160.307C115.705 158.12 131.871 155.774 148.135 154.14C164.4 152.505 180.675 151.11 196.785 148.432C204.84 147.093 212.836 145.447 220.732 143.37C228.627 141.293 236.426 138.861 244.09 136.082C251.753 133.303 259.332 130.227 266.708 126.733C274.085 123.239 281.307 119.458 288.66 115.843C295.966 112.17 303.458 108.88 311.106 105.986C314.93 104.549 318.839 103.302 322.771 102.184C324.756 101.68 326.722 101.118 328.729 100.692C330.736 100.265 332.755 99.9031 334.787 99.6423C338.856 99.0854 342.972 98.9545 347.068 99.2518C351.177 99.5539 355.219 100.459 359.064 101.938C360.983 102.709 362.812 103.619 364.639 104.543C366.466 105.466 368.277 106.412 370.063 107.424C373.596 109.5 376.991 111.804 380.224 114.322C386.759 119.245 392.999 124.548 399.669 129.224C401.335 130.398 403.018 131.542 404.737 132.64C405.585 133.207 406.494 133.68 407.355 134.192L408.667 134.968C409.108 135.219 409.571 135.435 410.026 135.669L412.745 137.045L415.538 138.273C416.464 138.704 417.418 139.058 418.372 139.418C419.325 139.778 420.27 140.155 421.233 140.485C428.96 143.09 436.908 144.987 444.979 146.153C453.054 147.325 461.192 148.022 469.349 148.24C485.675 148.623 502.006 147.741 518.196 145.602C522.247 145.085 526.29 144.524 530.288 143.813C534.285 143.103 538.32 142.34 542.359 141.71C546.399 141.026 550.483 140.636 554.579 140.543C558.683 140.459 562.782 140.884 566.782 141.807C570.766 142.797 574.607 144.289 578.214 146.249C581.823 148.177 585.325 150.298 588.707 152.603C595.499 157.137 601.942 162.2 608.653 166.843C622.179 175.973 635.983 184.866 650.836 191.708C652.692 192.547 654.56 193.387 656.441 194.16C658.323 194.933 660.244 195.636 662.149 196.368C664.055 197.099 665.995 197.742 667.912 198.431C669.828 199.12 671.786 199.714 673.728 200.35C681.515 202.809 689.409 204.886 697.409 206.581C713.386 210.049 729.695 211.755 746.044 211.669C729.691 211.803 713.372 210.149 697.379 206.734C689.385 205.056 681.489 203.002 673.69 200.571C671.749 199.935 669.798 199.323 667.867 198.651C665.937 197.979 664.003 197.331 662.091 196.605C660.179 195.878 658.256 195.188 656.369 194.408C654.482 193.629 652.598 192.818 650.744 191.967C635.887 185.161 622.058 176.266 608.511 167.146C601.782 162.507 595.332 157.499 588.557 152.93C585.184 150.638 581.69 148.528 578.091 146.61C574.516 144.656 570.705 143.167 566.752 142.179C562.783 141.269 558.717 140.853 554.646 140.938C550.572 141.036 546.511 141.429 542.494 142.113C538.468 142.745 534.455 143.529 530.427 144.23C526.4 144.931 522.354 145.51 518.303 146.033C502.09 148.192 485.733 149.092 469.381 148.726C461.202 148.514 453.044 147.823 444.946 146.656C436.84 145.494 428.856 143.599 421.093 140.994C420.124 140.664 419.174 140.273 418.214 139.919C417.254 139.565 416.294 139.204 415.362 138.772L412.544 137.541L409.801 136.156C409.347 135.916 408.877 135.706 408.437 135.449L407.106 134.67C406.229 134.138 405.346 133.661 404.464 133.115C402.738 132.016 401.041 130.875 399.371 129.69C392.675 124.973 386.412 119.706 379.893 114.803C376.666 112.288 373.275 109.99 369.743 107.925C367.982 106.916 366.17 105.97 364.355 105.054C362.539 104.139 360.706 103.215 358.828 102.467C355.041 101.003 351.059 100.107 347.01 99.8082C342.953 99.507 338.876 99.6297 334.844 100.174C332.826 100.43 330.826 100.795 328.832 101.216C326.838 101.638 324.878 102.195 322.907 102.694C318.982 103.807 315.088 105.023 311.275 106.468C303.643 109.357 296.167 112.64 288.876 116.306C281.549 119.912 274.302 123.696 266.902 127.174C259.502 130.653 251.916 133.735 244.233 136.518C236.551 139.301 228.746 141.726 220.841 143.783C212.935 145.84 204.912 147.495 196.846 148.827C180.713 151.49 164.417 152.908 148.164 154.493C131.911 156.079 115.74 158.468 99.5435 160.598C83.3467 162.728 67.1076 164.628 50.7827 165.424C49.7633 165.476 48.7418 165.546 47.7245 165.579L44.6626 165.659L38.5332 165.812L32.4116 165.734L29.3493 165.707L26.2875 165.568L20.1646 165.284L14.066 164.733L11.0136 164.458L7.96784 164.07L1.90948 163.224Z" fill="white"/>
<path d="M2.16282 161.195L11.208 162.234L14.2373 162.439L20.2898 162.846L26.3583 163.006L29.3956 163.086L32.4319 163.065L38.5005 163.006L44.5643 162.77C46.5872 162.696 48.6114 162.61 50.6236 162.466C66.7886 161.483 82.8618 159.558 98.9385 157.601C106.975 156.623 115.017 155.698 123.067 154.825L129.108 154.237L132.131 153.959L135.155 153.718L141.209 153.238L147.273 152.896C163.448 152.096 179.64 151.748 195.751 150.202C203.798 149.425 211.827 148.359 219.766 146.831C227.705 145.304 235.585 143.413 243.356 141.172C251.127 138.931 258.817 136.355 266.335 133.371C273.853 130.388 281.251 127.09 288.694 123.892C296.136 120.693 303.625 117.638 311.313 115.031C315.144 113.7 319.04 112.565 322.977 111.51C326.895 110.447 330.873 109.624 334.89 109.044C336.901 108.75 338.928 108.582 340.957 108.453C342.987 108.323 345.023 108.294 347.055 108.415C349.087 108.497 351.113 108.696 353.123 109.012C355.138 109.309 357.13 109.747 359.084 110.323C361.044 110.905 362.927 111.665 364.816 112.377C366.705 113.088 368.604 113.819 370.479 114.591C372.355 115.363 374.213 116.184 376.027 117.105C377.842 118.027 379.628 118.977 381.399 119.956C388.508 123.851 395.416 128.085 402.598 131.775C404.394 132.699 406.206 133.591 408.034 134.452C408.947 134.888 409.883 135.29 410.809 135.671L412.198 136.269L413.614 136.794C417.39 138.217 421.249 139.411 425.17 140.368C433.033 142.25 441.023 143.551 449.076 144.26C457.123 145.003 465.219 145.32 473.305 145.342C489.489 145.252 505.657 144.332 521.747 142.588C525.768 142.162 529.79 141.736 533.793 141.189C537.797 140.642 541.815 140.09 545.852 139.684C549.885 139.234 553.946 139.086 558.002 139.241C566.174 139.48 574.142 141.853 581.114 146.125C584.633 148.163 588.003 150.414 591.298 152.769C597.887 157.486 604.167 162.612 610.7 167.385C623.843 176.802 637.266 185.97 651.804 193.102C653.615 193.998 655.445 194.857 657.294 195.679C659.137 196.516 661.026 197.233 662.894 198.011C664.763 198.789 666.668 199.464 668.555 200.194L674.271 202.227C681.937 204.823 689.731 207.024 697.622 208.82C713.397 212.378 729.583 214.369 745.782 213.966C729.587 214.395 713.385 212.483 697.562 208.963C689.658 207.193 681.851 205.016 674.171 202.441L668.441 200.425C666.553 199.701 664.649 199.02 662.773 198.254C660.896 197.487 659.009 196.764 657.152 195.937C655.295 195.111 653.466 194.263 651.641 193.377C637.065 186.248 623.63 177.078 610.461 167.67C603.915 162.902 597.634 157.783 591.049 153.079C587.759 150.736 584.389 148.491 580.893 146.469C573.971 142.244 566.066 139.897 557.96 139.662C553.922 139.525 549.881 139.688 545.868 140.149C541.842 140.562 537.845 141.104 533.808 141.666C529.771 142.228 525.772 142.619 521.76 143.078C505.654 144.842 489.469 145.78 473.268 145.888C465.137 145.874 457.04 145.563 448.993 144.826C440.914 144.131 432.897 142.842 425.007 140.969C421.061 140.012 417.177 138.815 413.377 137.386L411.949 136.853L410.548 136.254C409.619 135.847 408.674 135.47 407.754 135.039C405.922 134.178 404.104 133.283 402.301 132.354C395.083 128.641 388.198 124.422 381.076 120.532C379.312 119.553 377.543 118.612 375.723 117.683C373.903 116.755 372.088 115.946 370.219 115.174C368.349 114.403 366.468 113.68 364.574 112.962C362.679 112.244 360.802 111.484 358.885 110.913C356.957 110.343 354.992 109.908 353.004 109.612C351.015 109.298 349.009 109.101 346.997 109.022C344.989 108.916 342.969 108.965 340.958 109.047C338.947 109.129 336.939 109.342 334.944 109.607C330.948 110.185 326.99 111 323.091 112.049C319.216 113.105 315.333 114.229 311.485 115.545C303.814 118.116 296.334 121.204 288.888 124.377C281.442 127.55 274.054 130.874 266.531 133.844C259.008 136.815 251.29 139.362 243.505 141.614C235.721 143.866 227.836 145.744 219.874 147.257C211.912 148.769 203.875 149.841 195.811 150.61C179.676 152.14 163.474 152.468 147.338 153.254L141.281 153.59L135.228 154.064L132.204 154.299L129.182 154.577L123.144 155.134C115.093 155.986 107.052 156.899 99.0198 157.874C82.9426 159.78 66.8469 161.684 50.678 162.591C48.6597 162.734 46.6369 162.808 44.6147 162.876L38.5469 163.092L32.4742 163.133L29.4386 163.147L26.4089 163.055L20.3363 162.877L14.2798 162.45L11.2512 162.239L8.21969 161.891L2.16282 161.195Z" fill="white"/>
<path d="M2.65836 157.149L8.66001 157.563L11.6632 157.777L14.669 157.859L20.6859 158.031L26.6976 157.978L29.7092 157.955L32.7122 157.843L38.7376 157.616L44.7422 157.242C46.7398 157.115 48.7429 156.995 50.7401 156.818C66.7402 155.529 82.663 153.605 98.6393 152.088C106.625 151.297 114.633 150.741 122.651 150.324L128.666 150.133C129.67 150.104 130.67 150.057 131.679 150.047L134.687 150.049C136.694 150.061 138.699 150.034 140.708 150.078L146.723 150.325C162.753 151.172 178.717 152.975 194.743 153.634C202.749 153.972 210.772 153.999 218.778 153.574C226.784 153.149 234.762 152.314 242.688 151.117C250.614 149.92 258.495 148.404 266.261 146.425C274.026 144.446 281.707 142.113 289.372 139.76C297.037 137.406 304.699 135.021 312.446 132.927C316.322 131.865 320.217 130.899 324.131 129.997C326.091 129.597 328.047 129.121 330.024 128.741C332 128.362 333.979 128.02 335.974 127.755C343.932 126.655 352.056 126.35 360.043 127.505C362.042 127.804 363.998 128.204 365.977 128.512L371.919 129.445C373.904 129.755 375.887 130.077 377.862 130.472L383.751 131.706C391.602 133.396 399.412 135.219 407.28 136.761C411.213 137.539 415.154 138.242 419.119 138.797C423.084 139.353 427.078 139.712 431.069 139.983C447.074 140.996 463.132 140.508 479.15 139.715C487.159 139.315 495.16 138.777 503.167 138.283L527.187 136.883C531.194 136.643 535.199 136.409 539.205 136.231C543.21 136.053 547.223 135.863 551.244 135.875C555.267 135.847 559.286 136.1 563.274 136.632C567.264 137.196 571.181 138.191 574.956 139.601C578.74 141.046 582.333 142.95 585.653 145.271C588.994 147.5 592.198 149.933 595.339 152.433C601.644 157.449 607.605 162.795 613.801 167.886C626.255 177.968 639.038 187.801 652.995 195.692C654.757 196.682 656.525 197.63 658.296 198.553C660.067 199.476 661.897 200.312 663.707 201.17C665.516 202.029 667.366 202.804 669.192 203.627C671.018 204.45 672.902 205.148 674.754 205.911C682.221 208.841 689.858 211.317 697.623 213.325C713.142 217.316 729.218 219.501 745.261 218.711C729.219 219.551 713.13 217.421 697.587 213.477C689.805 211.488 682.148 209.033 674.66 206.126C672.802 205.368 670.934 204.64 669.085 203.852C667.236 203.065 665.393 202.283 663.579 201.412C661.765 200.54 659.936 199.742 658.148 198.805C656.36 197.867 654.609 196.941 652.845 195.956C638.829 188.09 626.048 178.245 613.569 168.165C607.366 163.074 601.368 157.73 595.098 152.737C591.956 150.243 588.782 147.82 585.427 145.602C582.146 143.313 578.597 141.435 574.86 140.009C571.11 138.616 567.221 137.634 563.26 137.081C559.293 136.552 555.294 136.301 551.291 136.331C547.282 136.327 543.277 136.505 539.275 136.702C535.274 136.899 531.264 137.12 527.257 137.366L503.198 138.775C495.196 139.275 487.188 139.825 479.172 140.23C463.152 141.042 447.079 141.547 431.035 140.548C427.026 140.269 423.026 139.909 419.04 139.376C415.054 138.843 411.102 138.12 407.162 137.348C399.281 135.817 391.464 133.993 383.625 132.311L377.737 131.071C375.781 130.677 373.804 130.35 371.825 130.041L365.877 129.108C363.893 128.792 361.924 128.391 359.957 128.09C352.045 126.937 343.966 127.228 336.053 128.314C334.065 128.58 332.092 128.923 330.129 129.292C328.167 129.66 326.215 130.093 324.249 130.543C320.344 131.433 316.456 132.402 312.586 133.45C304.84 135.532 297.18 137.898 289.509 140.251C281.839 142.604 274.157 144.943 266.369 146.9C258.581 148.858 250.681 150.371 242.748 151.574C234.815 152.777 226.808 153.59 218.791 154.008C210.773 154.425 202.732 154.389 194.709 154.043C178.666 153.363 162.71 151.542 146.694 150.684L140.686 150.432C138.684 150.383 136.679 150.409 134.672 150.398L131.67 150.39C130.669 150.394 129.662 150.447 128.665 150.47L122.651 150.655C114.647 151.062 106.644 151.619 98.6793 152.392C82.7094 153.854 66.7702 155.757 50.7663 156.971C48.7637 157.141 46.7613 157.255 44.7581 157.376L38.7248 157.727L32.7064 157.949L29.7047 158.048L26.6938 158.065L20.672 158.099L14.6633 157.909L11.6521 157.819L8.65029 157.593L2.65836 157.149Z" fill="white"/>
<path d="M3.15373 153.101L9.21129 153.247L12.2294 153.331L15.2431 153.289L21.2816 153.22L27.305 152.955L30.3232 152.82L33.3315 152.609L39.3574 152.213C43.3648 151.854 47.3788 151.546 51.3679 151.128C67.3807 149.565 83.3629 147.56 99.4402 146.524C103.455 146.209 107.483 146.103 111.506 145.94C112.507 145.886 113.514 145.883 114.522 145.88L117.539 145.863C119.553 145.863 121.568 145.801 123.58 145.932L129.618 146.144C130.623 146.159 131.622 146.281 132.628 146.352L135.639 146.604L138.65 146.857C139.655 146.928 140.647 147.117 141.646 147.245L147.629 148.089C163.51 150.783 179.155 154.651 194.991 157.453C210.827 160.333 226.915 161.587 243.006 161.193C251.046 161.023 259.074 160.449 267.056 159.472C275.03 158.511 282.969 157.09 290.853 155.556C298.736 154.022 306.621 152.363 314.505 150.711C318.446 149.912 322.396 149.115 326.353 148.319C330.305 147.521 334.273 146.845 338.26 146.284C346.242 145.113 354.298 144.527 362.365 144.53C366.381 144.585 370.39 144.427 374.411 144.219C378.433 144.012 382.454 143.861 386.472 143.678C394.507 143.326 402.54 142.872 410.569 142.318C418.596 141.764 426.612 141.14 434.61 140.245C450.603 138.473 466.547 136.252 482.543 134.455C490.542 133.554 498.555 132.742 506.583 132.119C514.612 131.496 522.655 131.076 530.707 130.962C534.738 130.904 538.766 130.931 542.79 131.043C546.813 131.143 550.838 131.342 554.854 131.673C558.875 132.007 562.871 132.596 566.818 133.435C570.765 134.299 574.622 135.531 578.337 137.117C582.052 138.712 585.563 140.745 588.795 143.173C592.019 145.608 595.099 148.201 598.128 150.858C604.179 156.176 609.938 161.805 615.834 167.28C627.684 178.151 639.828 188.805 653.311 197.61C660.054 202 667.124 205.864 674.46 209.167C681.779 212.51 689.325 215.332 697.042 217.611C704.755 219.909 712.638 221.595 720.616 222.653C728.596 223.726 736.666 223.974 744.697 223.394C736.666 223.998 728.593 223.775 720.608 222.728C712.62 221.693 704.727 220.031 697.001 217.757C689.269 215.498 681.705 212.697 674.367 209.376C667.017 206.088 659.93 202.241 653.169 197.869C646.436 193.443 639.96 188.639 633.772 183.479C627.568 178.344 621.538 173.009 615.585 167.54C609.633 162.07 603.917 156.446 597.873 151.116C594.85 148.467 591.762 145.885 588.556 143.465C585.346 141.056 581.857 139.042 578.166 137.467C574.468 135.888 570.629 134.665 566.7 133.816C562.77 132.985 558.791 132.404 554.788 132.078C550.788 131.725 546.772 131.557 542.748 131.458C538.725 131.358 534.712 131.335 530.689 131.392C522.647 131.515 514.615 131.91 506.593 132.577C498.576 133.207 490.569 134.026 482.55 134.938C466.56 136.741 450.62 138.982 434.618 140.772C426.619 141.679 418.583 142.313 410.555 142.874C402.527 143.434 394.491 143.899 386.449 144.258C382.427 144.421 378.404 144.584 374.39 144.786C370.376 144.988 366.335 145.149 362.307 145.087C354.269 145.076 346.241 145.652 338.287 146.812C334.308 147.362 330.349 148.058 326.401 148.831C322.452 149.603 318.51 150.376 314.564 151.18C306.686 152.777 298.81 154.468 290.902 156C282.994 157.531 275.065 158.915 267.064 159.892C259.065 160.866 251.022 161.435 242.966 161.595C226.846 161.972 210.731 160.699 194.871 157.796C179.018 154.973 163.38 151.093 147.521 148.376L141.55 147.534C140.55 147.419 139.566 147.218 138.561 147.14L135.556 146.889L132.552 146.631C131.553 146.56 130.553 146.439 129.548 146.424L123.517 146.206C121.51 146.094 119.501 146.158 117.494 146.14L114.477 146.156C113.47 146.159 112.463 146.156 111.462 146.21C107.44 146.373 103.424 146.475 99.4111 146.777C83.3463 147.759 67.3636 149.713 51.3523 151.264C47.3461 151.667 43.3335 151.963 39.3461 152.312L33.3201 152.708L30.3071 152.906L27.2896 153.034L21.2622 153.28L15.2251 153.337L12.2073 153.36L9.18993 153.269L3.15373 153.101Z" fill="white"/>
<path d="M3.65618 149.055C36.3666 149.06 68.5211 141.926 101.191 140.976C109.358 140.704 117.534 140.973 125.665 141.78C129.721 142.246 133.766 142.817 137.778 143.616C141.79 144.415 145.747 145.42 149.651 146.613C165.315 151.24 180.548 157.169 196.137 161.963C227.262 171.795 260.391 174.739 292.827 171.478C300.95 170.735 309.04 169.694 317.109 168.501C321.144 167.907 325.171 167.262 329.213 166.601L341.318 164.695L365.496 160.886C369.518 160.235 373.505 159.404 377.48 158.51C381.455 157.615 385.411 156.668 389.345 155.638C405.159 151.618 420.747 146.778 436.421 142.23C444.259 139.946 452.105 137.701 460 135.631C467.895 133.56 475.855 131.685 483.859 130.083C491.862 128.482 499.934 127.164 508.068 126.272C512.126 125.856 516.184 125.384 520.268 125.171C524.353 124.959 528.442 124.815 532.518 124.833C540.687 124.859 548.842 125.49 556.917 126.724C564.987 127.976 572.986 130.065 580.397 133.563C581.315 134.018 582.248 134.439 583.135 134.947L584.489 135.678C584.937 135.924 585.368 136.198 585.808 136.455C587.572 137.497 589.272 138.642 590.9 139.887C592.528 141.126 594.09 142.45 595.58 143.853C597.092 145.227 598.569 146.642 600.039 148.056C605.905 153.734 611.501 159.689 617.141 165.591C628.433 177.348 639.979 188.966 652.975 198.848C656.219 201.316 659.546 203.675 662.984 205.872C666.422 208.069 669.947 210.113 673.541 211.989C680.76 215.792 688.262 219.03 695.981 221.674C703.695 224.337 711.64 226.277 719.713 227.467C727.788 228.687 735.984 228.9 744.112 228.099C735.985 228.928 727.785 228.74 719.704 227.541C711.618 226.377 703.658 224.461 695.927 221.818C688.193 219.195 680.674 215.976 673.437 212.19C669.804 210.321 666.284 208.24 662.815 206.09C659.346 203.94 656.023 201.556 652.765 199.093C646.289 194.118 640.089 188.795 634.192 183.146C628.269 177.523 622.525 171.715 616.878 165.818C611.231 159.92 605.632 153.985 599.772 148.313C598.302 146.893 596.826 145.472 595.317 144.123C593.832 142.732 592.278 141.417 590.659 140.184C589.043 138.952 587.353 137.818 585.601 136.788C585.161 136.531 584.736 136.257 584.288 136.012L582.945 135.288C582.065 134.787 581.13 134.373 580.225 133.918C572.854 130.45 564.888 128.403 556.851 127.141C548.79 125.933 540.651 125.324 532.5 125.319C528.423 125.305 524.35 125.421 520.28 125.667C516.208 125.881 512.162 126.36 508.105 126.77C500.007 127.672 491.953 128.999 483.961 130.608C475.969 132.217 468.027 134.101 460.139 136.166C452.251 138.231 444.409 140.495 436.582 142.793C420.885 147.376 405.314 152.224 389.497 156.281C385.532 157.285 381.561 158.234 377.584 159.128C373.597 160.021 369.592 160.85 365.557 161.5L341.351 165.281L329.248 167.174C325.225 167.832 321.191 168.475 317.144 169.068C309.07 170.248 300.969 171.282 292.833 172.017C260.345 175.253 227.122 172.249 195.976 162.383C180.372 157.556 165.154 151.61 149.509 146.972C145.612 145.773 141.625 144.815 137.669 143.966C133.712 143.117 129.639 142.581 125.587 142.128C117.472 141.317 109.313 141.038 101.161 141.291C68.567 142.125 36.3662 149.173 3.65618 149.055Z" fill="white"/>
<path d="M4.15338 145.009C20.8419 144.262 37.3688 141.763 53.9015 139.54C70.4342 137.317 87.0685 135.3 103.771 135.624C107.948 135.697 112.122 135.958 116.275 136.398C120.429 136.837 124.564 137.488 128.652 138.333C132.741 139.204 136.777 140.309 140.739 141.642C144.692 143.01 148.534 144.583 152.389 146.252C167.717 152.887 182.455 160.78 197.747 167.454C199.652 168.298 201.573 169.107 203.503 169.892C205.434 170.677 207.399 171.378 209.339 172.133L215.192 174.331L221.144 176.267L224.117 177.234C225.114 177.536 226.092 177.905 227.139 178.156L233.177 179.776L236.212 180.588C236.715 180.721 237.217 180.872 237.724 180.98L239.256 181.313L245.359 182.64C261.693 186.049 278.334 187.774 295.02 187.789C311.704 187.779 328.344 186.077 344.685 182.711L350.802 181.412C351.826 181.217 352.824 180.913 353.835 180.66L356.854 179.868L362.899 178.273L368.864 176.393L371.843 175.453C372.837 175.136 373.84 174.845 374.81 174.462L380.689 172.291C384.602 170.908 388.441 169.234 392.295 167.65C407.648 161.107 422.565 153.613 437.64 146.443C445.146 142.822 452.749 139.371 460.449 136.089C464.32 134.52 468.157 132.865 472.086 131.452L475.021 130.351C476.002 129.982 476.983 129.607 477.971 129.288L483.911 127.3C491.846 124.704 499.945 122.639 508.155 121.121C512.245 120.259 516.433 119.852 520.549 119.305C524.698 118.841 528.869 118.601 533.043 118.588C541.409 118.496 549.762 119.261 557.972 120.871C562.083 121.687 566.138 122.758 570.115 124.081C574.091 125.387 577.961 126.997 581.692 128.895C585.428 130.785 588.99 133.003 592.334 135.523C595.656 138.081 598.728 140.947 601.51 144.084C607.193 150.205 612.647 156.53 618.08 162.878C628.929 175.548 639.809 188.271 652.306 199.341C653.075 200.055 653.867 200.727 654.666 201.395L657.055 203.415C658.661 204.744 660.324 205.999 661.958 207.3C662.786 207.933 663.643 208.526 664.48 209.141C665.316 209.756 666.157 210.391 667.031 210.948L669.641 212.674L670.944 213.537L672.283 214.348C679.387 218.723 686.864 222.463 694.627 225.523C702.38 228.618 710.443 230.872 718.677 232.246C726.921 233.67 735.331 233.865 743.633 232.824C735.332 233.89 726.919 233.72 718.668 232.32C710.421 230.973 702.343 228.742 694.573 225.667C686.787 222.615 679.287 218.881 672.158 214.509L670.815 213.729L669.506 212.871L666.889 211.144C666.009 210.587 665.152 209.938 664.325 209.342C663.499 208.747 662.625 208.133 661.79 207.506C660.15 206.21 658.48 204.955 656.869 203.625L654.473 201.61C653.667 200.942 652.869 200.269 652.1 199.561C639.566 188.487 628.661 175.755 617.799 163.09C612.364 156.76 606.904 150.44 601.225 144.333C598.451 141.226 595.39 138.388 592.083 135.857C588.756 133.354 585.214 131.151 581.498 129.273C577.785 127.381 573.934 125.776 569.976 124.471C566.022 123.164 561.99 122.103 557.905 121.295C549.722 119.706 541.398 118.959 533.063 119.066C528.897 119.089 524.736 119.34 520.597 119.817C516.469 120.356 512.321 120.743 508.239 121.638C500.038 123.141 491.946 125.191 484.019 127.775L478.097 129.766C477.104 130.083 476.141 130.461 475.154 130.829L472.231 131.932C468.313 133.359 464.478 135.001 460.613 136.571C452.953 139.861 445.362 143.316 437.84 146.935C422.776 154.119 407.856 161.631 392.494 168.205C388.628 169.781 384.801 171.456 380.851 172.841L374.972 175.012C374.002 175.395 373.017 175.688 371.999 176.003L369.013 176.942L363.036 178.82L356.973 180.413L353.942 181.204C352.931 181.456 351.926 181.76 350.903 181.955L344.767 183.252C328.386 186.609 311.708 188.297 294.987 188.292C278.268 188.254 261.597 186.508 245.233 183.082L239.13 181.755L237.598 181.423C237.092 181.308 236.59 181.157 236.086 181.03L233.052 180.212L226.984 178.577C225.968 178.328 224.984 177.959 223.962 177.654L220.983 176.686L215.025 174.75L209.167 172.538C207.215 171.782 205.242 171.093 203.32 170.29C201.398 169.487 199.464 168.677 197.552 167.838C182.251 161.138 167.527 153.234 152.219 146.596C148.397 144.905 144.534 143.348 140.6 141.983C136.652 140.65 132.631 139.543 128.557 138.666C124.482 137.822 120.357 137.186 116.219 136.723C112.081 136.26 107.911 136.025 103.744 135.915C87.0539 135.536 70.4061 137.508 53.8921 139.677C37.3781 141.845 20.8732 144.315 4.15338 145.009Z" fill="white"/>
</g>
</svg>
