<svg width="756" height="198" viewBox="0 0 756 198" fill="none" xmlns="http://www.w3.org/2000/svg">
<path d="M12.6772 38.0966C28.736 38.3654 44.7981 38.6595 60.8235 38.2927C76.8866 38.0477 92.9166 36.7551 108.811 34.4231C112.759 33.7131 116.734 33.144 120.646 32.2547L123.595 31.6364C124.576 31.4301 125.561 31.2368 126.529 30.9789L132.366 29.5101L133.822 29.1395L135.27 28.6803L138.153 27.8167C140.097 27.2331 142.033 26.7112 143.888 25.9735L149.567 23.9735C151.448 23.2826 153.318 22.5278 155.188 21.8169C162.659 18.9218 170.09 15.8221 177.686 13.1918C185.283 10.5615 193.046 8.33187 201.017 7.17714C205.003 6.61014 209.02 6.28825 213.045 6.21329C215.056 6.13161 217.061 6.21186 219.077 6.24961C220.083 6.26504 221.085 6.36145 222.087 6.40775C223.089 6.45405 224.095 6.51342 225.096 6.62834C233.106 7.37907 241.044 8.76185 248.836 10.7638C256.639 12.7051 264.311 15.1318 271.905 17.7558C279.498 20.3799 287.018 23.2021 294.505 26.1016C309.477 31.9008 324.328 38.055 339.33 43.7637C354.332 49.4723 369.523 54.7397 385.069 58.7093C400.615 62.6788 416.527 65.4768 432.536 66.0652C448.546 66.6536 464.698 65.0752 480.084 60.5811C495.47 56.0871 510.302 49.6652 525.986 45.9561C541.728 42.3821 558.036 42.0716 573.903 45.0436C581.82 46.4476 589.637 48.3718 597.301 50.8036C604.958 53.2474 612.484 56.0764 619.907 59.1501C634.765 65.2927 649.118 72.5157 663.603 79.4536C670.85 82.9137 678.131 86.2964 685.504 89.4769C692.877 92.6575 700.375 95.5646 707.995 98.0667L710.856 99.021C711.809 99.3307 712.761 99.6466 713.726 99.9075L719.516 101.561L725.371 102.985C726.336 103.239 727.322 103.428 728.307 103.616L731.262 104.2C739.154 105.693 747.159 106.51 755.191 106.643C747.157 106.535 739.146 105.742 731.247 104.273L728.291 103.702C727.306 103.513 726.319 103.331 725.348 103.076L719.526 101.637L713.728 100.002C712.756 99.746 711.804 99.4302 710.845 99.1198L707.979 98.2025C700.347 95.6991 692.84 92.8097 685.45 89.6771C678.059 86.5446 670.766 83.1605 663.504 79.7237C649.018 72.842 634.641 65.61 619.793 59.4873C612.375 56.4267 604.829 53.6079 597.207 51.1807C589.557 48.7683 581.755 46.8666 573.852 45.4881C558.04 42.5386 541.792 42.8646 526.111 46.4459C510.497 50.0942 495.738 56.6433 480.252 61.0821C464.766 65.5208 448.58 67.2268 432.52 66.6389C416.461 66.051 400.485 63.3708 384.923 59.3744C369.362 55.3781 354.145 50.0701 339.106 44.351C324.068 38.6319 309.263 32.458 294.292 26.6465C286.822 23.7675 279.33 20.9174 271.75 18.2824C264.171 15.6473 256.511 13.2221 248.729 11.2582C240.963 9.25445 233.05 7.86628 225.066 7.10659C224.065 6.99167 223.068 6.95842 222.069 6.88742C221.07 6.81642 220.066 6.73854 219.067 6.72381C217.063 6.68749 215.058 6.60723 213.062 6.65947C209.056 6.74727 205.058 7.08184 201.093 7.66127C193.155 8.80103 185.411 11.0266 177.83 13.6336C170.248 16.2407 162.79 19.306 155.335 22.2279C153.462 22.9573 151.597 23.675 149.707 24.3838L144.017 26.3761C142.135 27.0794 140.192 27.6006 138.263 28.2172L135.374 29.0801L133.926 29.5393L132.464 29.9092L126.622 31.3712C125.647 31.6345 124.693 31.8252 123.681 32.0279L120.726 32.6455C118.766 33.0459 116.802 33.4833 114.814 33.7929L108.875 34.7994C92.964 37.061 76.9232 38.2855 60.8538 38.465C44.7962 38.7844 28.7303 38.4147 12.6772 38.0966Z" fill="#FFFFE0"/>
<path d="M11.9141 44.5769C27.9236 45.1653 43.9501 45.6055 59.9673 45.2565C75.9874 45.0439 91.9748 43.7459 107.819 41.3713L113.731 40.3365L116.688 39.813L119.625 39.187L125.495 37.916L131.297 36.4182C132.259 36.1597 133.229 35.9396 134.195 35.6439L137.066 34.7728L139.944 33.9023C140.897 33.6053 141.884 33.3496 142.802 32.9796C146.567 31.6294 150.355 30.3443 154.075 28.8388C161.525 25.9038 168.924 22.8129 176.453 20.0622C183.961 17.2103 191.688 14.9767 199.56 13.3838C207.464 11.9106 215.504 11.3012 223.54 11.5663C227.552 11.7145 231.557 11.9683 235.536 12.4568C239.515 12.9452 243.489 13.527 247.436 14.2432C255.32 15.6996 263.114 17.6024 270.846 19.7294C278.578 21.8564 286.263 24.1157 293.918 26.4717C309.234 31.1905 324.438 36.2342 339.636 41.3273C347.234 43.8686 354.798 46.5143 362.326 49.2644C366.097 50.636 369.836 52.0666 373.622 53.3649L379.286 55.3544L382.118 56.3492L384.968 57.3022C400.184 62.2347 415.837 65.985 431.778 67.4915C439.741 68.265 447.754 68.3676 455.734 67.7981C459.715 67.5048 463.691 67.0359 467.638 66.3883C471.584 65.7408 475.487 64.8756 479.371 63.9018C494.883 59.9978 509.892 54.1655 525.647 50.9212C533.512 49.2968 541.509 48.4022 549.538 48.249C557.562 48.0664 565.587 48.5699 573.525 49.754C581.459 50.9618 589.283 52.8126 596.917 55.2881C604.562 57.7305 612.025 60.6712 619.395 63.8263C634.142 70.1188 648.502 77.2801 663.017 84.015C670.279 87.3955 677.609 90.6274 685.056 93.6538C692.502 96.6802 699.993 99.4363 707.638 101.829C722.9 106.635 738.79 109.731 754.828 109.96C738.784 109.78 722.882 106.733 707.577 101.972C699.923 99.6035 692.381 96.8664 684.957 93.8614C677.532 90.8563 670.181 87.6532 662.91 84.2905C648.361 77.5767 634.013 70.4292 619.269 64.156C611.911 61.0146 604.448 58.074 596.818 55.6584C589.185 53.1857 581.364 51.3372 573.431 50.1311C565.516 48.953 557.514 48.4521 549.513 48.6339C541.524 48.8098 533.569 49.7218 525.747 51.3581C510.06 54.6101 495.057 60.4494 479.503 64.3862C475.637 65.3682 471.691 66.2285 467.73 66.8931C463.769 67.5577 459.78 68.0253 455.78 68.3226C447.768 68.9103 439.722 68.8227 431.725 68.0609C415.738 66.568 400.035 62.8244 384.781 57.8938L381.932 56.9408L379.094 55.9391L373.424 53.9427C369.633 52.6375 365.889 51.2001 362.13 49.8298C354.614 47.077 347.057 44.4259 339.46 41.8764C324.243 36.7811 309.057 31.6956 293.749 26.9652C286.095 24.5969 278.417 22.3259 270.698 20.2003C262.979 18.0747 255.198 16.1548 247.334 14.6944C243.394 13.9789 239.444 13.3437 235.467 12.8992C231.489 12.4546 227.501 12.1528 223.508 12.0068C215.51 11.7296 207.506 12.3286 199.638 13.7931C191.791 15.3718 184.087 17.5871 176.6 20.4169C169.072 23.1615 161.684 26.2099 154.219 29.1681C139.339 35.1903 123.673 39.1205 107.868 41.6522C92.0051 43.9849 76.0018 45.2394 59.9688 45.4068C43.945 45.705 27.9262 45.1969 11.9141 44.5769Z" fill="#FFFFE0"/>
<path d="M10.3936 57.5398C26.3687 58.6998 42.3845 59.4515 58.3753 59.1683C66.3856 59.0878 74.3855 58.662 82.3697 58.0468L88.3523 57.4831L89.8442 57.348L91.3349 57.1689L94.3169 56.8047C98.2943 56.3796 102.248 55.7267 106.202 55.1238C114.103 53.8343 121.933 52.1428 129.661 50.056C133.525 49.0925 137.339 47.8103 141.165 46.6298C143.064 45.9972 144.936 45.2802 146.821 44.6085L149.641 43.5875C150.582 43.239 151.507 42.8636 152.437 42.5012C167.324 36.63 181.933 29.8634 197.466 25.7241C205.229 23.6762 213.162 22.3348 221.167 21.7162C225.16 21.3681 229.176 21.2665 233.178 21.2197C237.181 21.1729 241.2 21.3094 245.204 21.5317C253.211 21.97 261.184 22.8111 269.13 23.8305C277.077 24.85 285.021 25.8879 292.946 27.0363C308.804 29.3275 324.603 32.1313 340.15 36.0885C347.926 38.0917 355.521 40.743 362.855 44.0146C370.147 47.3548 377.212 51.1381 384.431 54.6262C398.844 61.5434 413.789 67.5833 429.415 71.024C437.234 72.7004 445.205 73.568 453.202 73.6133C457.192 73.6313 461.181 73.4423 465.152 73.0472C469.127 72.6469 473.083 72.0818 477.025 71.3649C492.778 68.527 508.162 63.8826 523.977 61.1582C531.886 59.8223 539.86 58.903 547.865 58.4042C555.869 57.7996 563.911 57.8865 571.901 58.6637C575.891 59.093 579.852 59.7571 583.765 60.6525C587.678 61.5463 591.534 62.6712 595.334 63.9462C602.935 66.5024 610.317 69.6589 617.63 72.9264C624.943 76.1939 632.222 79.5388 639.501 82.8775C646.781 86.2162 654.035 89.6146 661.382 92.8047C668.728 95.9947 676.162 98.9758 683.684 101.723C691.207 104.47 698.815 106.965 706.532 109.115C721.944 113.432 737.843 116.179 753.846 116.554C737.819 116.226 721.904 113.509 706.468 109.233C698.744 107.094 691.12 104.629 683.582 101.905C676.044 99.1812 668.594 96.2419 661.237 93.0821C653.881 89.9222 646.605 86.5464 639.335 83.1837C632.064 79.821 624.776 76.5062 617.461 73.2511C610.147 69.996 602.77 66.8525 595.186 64.3108C591.391 63.0427 587.547 61.9254 583.676 61.0427C579.778 60.1487 575.831 59.4863 571.855 59.0589C563.89 58.2917 555.873 58.2077 547.894 58.8079C539.908 59.3176 531.954 60.2454 524.065 61.5875C508.287 64.3224 492.907 68.9797 477.121 71.8327C473.175 72.5365 469.203 73.1249 465.209 73.5354C461.228 73.9521 457.228 74.1628 453.226 74.1666C445.189 74.1282 437.178 73.2643 429.318 71.5885C413.617 68.1516 398.635 62.1074 384.191 55.1929C376.963 51.7288 369.894 47.92 362.633 44.5834C355.333 41.3147 347.771 38.667 340.027 36.6686C324.525 32.6979 308.734 29.8825 292.903 27.5756C284.979 26.421 277.036 25.3707 269.097 24.3396C261.158 23.3086 253.197 22.4689 245.204 22.0197C229.252 21.0938 213.08 22.0256 197.598 26.1583C182.116 30.291 167.5 37.0067 152.599 42.8828C151.663 43.2444 150.738 43.6198 149.797 43.9683L146.965 44.9879C145.08 45.6596 143.203 46.3697 141.304 47.0023C137.466 48.1691 133.67 49.4657 129.775 50.4257C122.035 52.5069 114.193 54.1907 106.281 55.4707C102.316 56.0598 98.3576 56.6997 94.3747 57.1178L91.388 57.469L89.898 57.6419L88.4 57.7763L82.4154 58.3022C74.4217 58.8914 66.4185 59.2917 58.4049 59.3468C42.3793 59.551 26.3631 58.7492 10.3936 57.5398Z" fill="#FFFFE0"/>
<path d="M8.87233 70.5017C24.8897 72.3453 41.0053 73.2026 57.1278 73.0688C65.1832 73.031 73.2354 72.5862 81.267 71.9389C85.2779 71.549 89.29 71.203 93.3016 70.6443L96.2988 70.2567L97.797 70.0661L99.2886 69.8246L105.249 68.8579L106.74 68.6164L108.225 68.3241L111.189 67.7388L114.153 67.1535L115.631 66.8605L117.104 66.5105L122.981 65.1276L124.453 64.7776L125.907 64.3754L128.815 63.5709C132.722 62.5623 136.536 61.2678 140.374 60.0447C141.339 59.7553 142.281 59.4005 143.222 59.052L146.057 58.0077C147.945 57.3051 149.848 56.6417 151.713 55.8739C166.678 49.924 181.286 43.0071 196.645 37.9845C204.324 35.4912 212.166 33.5308 220.115 32.1172C228.066 30.7322 236.083 29.7575 244.134 29.197C252.179 28.6012 260.242 28.3328 268.299 28.1201C276.356 27.9073 284.406 27.5874 292.471 27.4131C300.536 27.2387 308.603 27.2587 316.664 27.7219C320.691 27.947 324.728 28.3108 328.724 28.7574C332.721 29.2041 336.737 29.797 340.688 30.6388C348.635 32.2366 356.285 35.0572 363.368 39C364.249 39.4954 365.126 40.0278 365.967 40.5498C366.808 41.0718 367.724 41.5962 368.542 42.1469L373.559 45.5259L378.575 48.9111L383.57 52.3188C390.244 56.8392 397.027 61.1842 404.043 65.1245C407.569 67.102 411.141 68.9554 414.758 70.6847C418.377 72.4333 422.097 73.9658 425.898 75.2739C433.515 77.8707 441.42 79.5331 449.438 80.2246C457.462 80.8523 465.527 80.6959 473.52 79.7575C481.532 78.9015 489.472 77.5305 497.393 76.0509L509.282 73.845L515.226 72.7451L518.198 72.1921C519.194 72.0188 520.192 71.877 521.187 71.716L533.141 69.8679C537.126 69.2707 541.118 68.718 545.117 68.21C553.115 67.2084 561.205 66.5428 569.275 67.1386C577.345 67.7343 585.252 69.6437 592.867 72.3516C600.481 75.0595 607.81 78.4039 615.152 81.7497L637.153 91.7157C644.494 95.0616 651.866 98.3046 659.331 101.333C666.797 104.362 674.385 107.079 682.044 109.573C689.702 112.067 697.44 114.351 705.262 116.294C720.898 120.262 736.909 122.565 753.029 123.166C736.902 122.611 720.879 120.35 705.228 116.422C697.398 114.503 689.648 112.261 681.977 109.772C674.306 107.283 666.701 104.595 659.222 101.577C651.743 98.5594 644.367 95.2972 637.022 91.9822L614.989 82.0751C607.654 78.73 600.313 75.3842 592.718 72.7162C585.124 70.0482 577.261 68.0813 569.226 67.5646C561.19 67.0479 553.139 67.6491 545.153 68.6583C541.158 69.1668 537.168 69.7217 533.183 70.3231L521.245 72.1857C520.251 72.3467 519.253 72.4884 518.262 72.6687L515.29 73.2217L509.341 74.3586L497.457 76.5776C489.527 78.031 481.586 79.4144 473.563 80.2566C465.535 81.2076 457.432 81.3724 449.372 80.7487C441.309 80.0656 433.36 78.4023 425.7 75.7955C421.876 74.4892 418.133 72.9541 414.493 71.1984C410.838 69.471 407.255 67.6018 403.734 65.6333C396.68 61.6949 389.894 57.3244 383.206 52.815L378.212 49.4011L373.209 46.0174L368.204 42.6398C367.361 42.0862 366.493 41.5799 365.641 41.0441C364.79 40.5084 363.929 39.9904 363.054 39.4957C356.027 35.5805 348.435 32.7793 340.549 31.1921C336.617 30.3525 332.637 29.7638 328.637 29.3041C324.636 28.8444 320.629 28.4903 316.614 28.2667C308.573 27.7932 300.512 27.7678 292.461 27.9312C284.41 28.0946 276.353 28.4199 268.293 28.6073C260.233 28.7947 252.181 29.0706 244.151 29.6555C236.114 30.2033 228.112 31.1629 220.174 32.5306C212.243 33.9393 204.418 35.8934 196.756 38.3789C181.421 43.3542 166.814 50.2711 151.824 56.212C149.959 56.9798 148.049 57.6549 146.162 58.3451L143.32 59.3886C142.373 59.7365 141.433 60.085 140.467 60.3807C136.617 61.6023 132.796 62.8899 128.89 63.8924C121.116 66.0467 113.237 67.8035 105.283 69.1559L99.3061 70.1081L97.8152 70.3434L96.317 70.5341L93.315 70.9085C89.3165 71.4625 85.2996 71.7954 81.284 72.1723C73.2497 72.788 65.1935 73.2136 57.1286 73.2252C41.0026 73.3064 24.8868 72.3969 8.87233 70.5017Z" fill="#FFFFE0"/>
<path d="M7.34618 83.4634C23.5001 85.9015 39.8195 87.076 56.1561 86.9762L59.2178 86.9526L60.7511 86.9474L62.2784 86.8852L68.3977 86.6562L69.925 86.594L71.4511 86.4878L74.5094 86.2762C76.5422 86.1157 78.5843 86.0376 80.6078 85.7946L86.7032 85.1751C87.7145 85.0848 88.7252 84.9445 89.736 84.8041L92.7738 84.39C96.827 83.9049 100.836 83.1519 104.879 82.478C112.893 80.8965 120.896 79.1949 128.671 76.8603C132.614 75.8058 136.455 74.4455 140.352 73.198C141.325 72.8969 142.276 72.5182 143.229 72.1649L146.099 71.0933C148.008 70.3743 149.93 69.6568 151.812 68.8972C166.952 62.7922 181.672 55.6568 196.979 49.89C204.629 47.0155 212.403 44.5057 220.302 42.3606C228.187 40.2138 236.164 38.4092 244.171 36.7831C252.177 35.157 260.213 33.7094 268.238 32.198C276.262 30.6866 284.256 28.9026 292.252 27.363C296.265 26.5729 300.296 25.9038 304.37 25.346C308.444 24.7881 312.488 24.327 316.57 24.0828C318.608 23.9292 320.658 23.8895 322.699 23.8175C324.741 23.7456 326.789 23.7745 328.838 23.8536C332.928 23.9151 337.007 24.2959 341.037 24.9926C349.096 26.4002 356.992 29.328 363.653 34.1846C365.273 35.4343 366.952 36.6156 368.514 37.9398C370.075 39.2641 371.623 40.6055 373.141 41.981L382.132 50.3019C388.126 55.8451 394.17 61.3377 400.555 66.4129C403.748 68.9505 407.015 71.3902 410.386 73.6793C413.743 75.9935 417.271 78.0489 420.94 79.8277C424.598 81.6144 428.382 83.1322 432.26 84.3689C436.135 85.6186 440.093 86.598 444.103 87.2999C452.144 88.6554 460.306 89.1612 468.452 88.809C476.605 88.4676 484.733 87.6828 492.801 86.4583C500.874 85.284 508.918 83.875 516.953 82.4398L529.011 80.2846C533.025 79.5447 537.019 78.7024 541.026 77.9117C549.027 76.3288 557.177 75.0382 565.382 75.3242C569.476 75.4764 573.547 76.0049 577.543 76.903C581.53 77.8131 585.451 78.9867 589.282 80.4163C596.967 83.226 604.34 86.7819 611.74 90.2158C615.439 91.942 619.174 93.5723 622.903 95.2519L634.098 100.229C641.571 103.521 649.087 106.712 656.719 109.597C664.351 112.482 672.134 114.978 679.965 117.273C687.796 119.567 695.697 121.633 703.659 123.392C719.605 126.958 735.836 129.103 752.161 129.803C735.828 129.154 719.586 127.06 703.623 123.544C695.646 121.808 687.729 119.766 679.884 117.488C672.038 115.211 664.245 112.745 656.601 109.859C648.957 106.972 641.433 103.793 633.953 100.513L622.757 95.5479C619.027 93.8682 615.286 92.2434 611.581 90.5104C604.168 87.0812 596.805 83.539 589.137 80.7499C585.317 79.3328 581.407 78.1709 577.432 77.2718C573.457 76.3835 569.408 75.8618 565.338 75.7132C557.195 75.4782 549.103 76.7567 541.095 78.3388C537.089 79.1296 533.094 79.9718 529.075 80.711L517.021 82.8793C508.98 84.3199 500.94 85.7421 492.853 86.9272C484.768 88.1591 476.623 88.9522 468.452 89.3032C460.268 89.6715 452.067 89.1779 443.986 87.8307C439.953 87.1197 435.974 86.1316 432.077 84.8734C428.172 83.6323 424.362 82.1095 420.677 80.3168C416.989 78.5277 413.441 76.4617 410.065 74.1366C406.672 71.87 403.39 69.3973 400.185 66.8583C393.785 61.7439 387.714 56.2732 381.713 50.7355L372.737 42.3975C371.225 41.0226 369.703 39.6779 368.132 38.3715C366.562 37.065 364.915 35.8811 363.307 34.6391C356.739 29.837 348.935 26.926 340.939 25.5193C336.928 24.8207 332.869 24.4358 328.798 24.3682C326.762 24.2844 324.725 24.3193 322.691 24.3295C320.656 24.3397 318.613 24.4302 316.581 24.5846C312.518 24.8247 308.458 25.259 304.421 25.8273C300.383 26.3955 296.359 27.0654 292.354 27.8376C284.335 29.3559 276.366 31.1427 268.33 32.6465C260.294 34.1504 252.265 35.5863 244.267 37.2007C236.268 38.8152 228.298 40.6144 220.421 42.7433C212.544 44.8723 204.769 47.3757 197.127 50.2385C181.84 55.9889 167.111 63.0982 151.947 69.1942C150.062 69.9785 148.141 70.6336 146.228 71.3834L143.352 72.4604C142.398 72.8138 141.447 73.1925 140.468 73.4928C136.571 74.7465 132.724 76.1 128.787 77.1552C120.933 79.4169 112.971 81.283 104.93 82.7465C100.899 83.4157 96.8796 84.1549 92.8271 84.6338L89.7907 85.0356C88.78 85.176 87.7637 85.3094 86.747 85.3928L80.653 86C78.624 86.236 76.5827 86.308 74.5444 86.4617L71.4875 86.6609L69.9614 86.7671L68.4287 86.8224L62.3053 87.0321L60.7725 87.0875L59.2455 87.0934L56.179 87.1039C39.8314 87.1649 23.504 85.9477 7.34618 83.4634Z" fill="#FFFFE0"/>
<path d="M5.82475 96.4254L11.9599 97.4744C12.9853 97.6423 14.0072 97.841 15.0293 97.9835L18.1093 98.4C20.1741 98.6685 22.2325 98.9926 24.2721 99.2082L30.4878 99.8285C38.7765 100.537 47.1019 100.981 55.4218 100.873C72.0774 100.793 88.6883 99.141 105.033 95.939L111.134 94.6194L114.225 94.0174L117.247 93.2512L123.292 91.7062L129.281 89.9422L132.276 89.0351L135.231 88.0359L141.146 86.0444L146.975 83.8241L149.893 82.7081L152.781 81.5322C168.169 75.168 183.134 67.8043 198.438 61.2551C213.741 54.706 229.483 49.1831 245.262 43.8334C253.168 41.1699 261.063 38.505 268.879 35.6496C276.695 32.7943 284.373 29.5603 292.217 26.7394C296.134 25.3129 300.089 23.9907 304.104 22.863C308.118 21.7354 312.177 20.7629 316.314 20.0372C320.412 19.3302 324.547 18.8612 328.699 18.6327C330.784 18.5116 332.874 18.497 334.96 18.5889C337.051 18.6634 339.136 18.8591 341.205 19.1751C345.363 19.7766 349.419 20.9436 353.261 22.6436C355.169 23.5152 357.009 24.5254 358.769 25.6661C360.518 26.8227 362.168 28.1213 363.703 29.5486C366.828 32.3233 369.719 35.3503 372.347 38.5991C375.006 41.8073 377.596 45.0701 380.194 48.3213C385.389 54.8299 390.584 61.3446 396.176 67.4985C401.768 73.6523 407.676 79.5672 414.653 84.1223C421.615 88.6727 429.237 92.1246 437.249 94.3568C441.248 95.4803 445.316 96.3406 449.427 96.9322C453.53 97.5364 457.662 97.9193 461.806 98.0794C470.115 98.3875 478.435 98.089 486.7 97.1864C494.97 96.3162 503.216 94.9992 511.371 93.4464C515.46 92.6651 519.52 91.8096 523.552 90.8799C527.6 89.9438 531.612 88.8346 535.629 87.7447C543.652 85.5387 551.829 83.5193 560.211 83.4128C564.391 83.37 568.564 83.7761 572.658 84.624C576.757 85.4757 580.785 86.637 584.708 88.098C592.508 90.9898 599.997 94.7405 607.523 98.2764C611.284 100.06 615.104 101.712 618.915 103.389C622.726 105.065 626.528 106.766 630.351 108.394C638 111.675 645.708 114.825 653.552 117.603C661.396 120.381 669.403 122.671 677.446 124.815C685.488 126.959 693.609 128.806 701.776 130.407C718.119 133.616 734.674 135.633 751.31 136.443C734.668 135.682 718.103 133.716 701.746 130.56C693.586 128.984 685.467 127.142 677.389 125.034C669.338 122.914 661.305 120.684 653.449 117.904C645.592 115.125 637.863 111.991 630.22 108.71C626.392 107.076 622.589 105.381 618.771 103.716C614.952 102.051 611.132 100.399 607.371 98.6155C599.832 95.0844 592.379 91.3503 584.569 88.4887C580.681 87.0265 576.686 85.8647 572.62 85.0137C568.55 84.1691 564.401 83.7679 560.246 83.8171C551.919 83.9301 543.783 85.9791 535.769 88.155C531.752 89.2511 527.74 90.3602 523.677 91.3134C519.614 92.2666 515.545 93.1065 511.451 93.8934C503.27 95.4558 495.036 96.7804 486.746 97.6608C478.457 98.5851 470.112 98.9037 461.776 98.6139C457.607 98.458 453.449 98.0784 449.32 97.4767C445.196 96.8881 441.115 96.0263 437.105 94.8971C429.029 92.6535 421.347 89.1775 414.33 84.5919C410.837 82.2935 407.548 79.6991 404.499 76.8375C401.449 73.9847 398.533 70.9972 395.721 67.9154C390.105 61.7526 384.898 55.2364 379.703 48.7278C377.106 45.4705 374.522 42.2084 371.869 39.0009C369.273 35.7619 366.412 32.7444 363.316 29.9795C361.814 28.5743 360.199 27.2945 358.488 26.1531C356.757 25.023 354.944 24.0242 353.064 23.1651C349.275 21.4891 345.276 20.3372 341.177 19.7412C339.127 19.4283 337.061 19.2327 334.989 19.1552C332.911 19.0639 330.829 19.0795 328.753 19.2019C324.606 19.4156 320.476 19.8748 316.384 20.5769C312.291 21.2953 308.245 22.2629 304.245 23.3797C300.244 24.4964 296.306 25.833 292.386 27.228C284.557 30.0318 276.873 33.2589 269.044 36.1128C261.216 38.9667 253.318 41.6062 245.436 44.2787C229.654 49.5969 213.929 55.0842 198.624 61.6457C183.32 68.2072 168.347 75.5263 152.942 81.8698L150.048 83.0511L147.13 84.1609L141.283 86.3792L135.361 88.37L132.401 89.3623L129.4 90.2686L123.405 92.032L117.348 93.5693L114.32 94.3349L111.267 94.9912L105.155 96.297C88.786 99.4327 72.1578 101.018 55.4912 101.031C47.1625 101.106 38.84 100.638 30.5472 99.9104L24.3652 99.2689C22.2969 99.0313 20.2439 98.714 18.2045 98.4422L15.1252 98.0195C14.0915 97.8695 13.0696 97.6707 12.0573 97.4981L5.82475 96.4254Z" fill="#FFFFE0"/>
<path d="M4.30372 109.387L10.5746 110.671C11.6211 110.872 12.6558 111.123 13.7128 111.288L16.8701 111.795L20.0327 112.308C21.0828 112.479 22.1384 112.656 23.1956 112.765L29.5508 113.533L31.1437 113.716L32.7369 113.843L35.9231 114.096C38.0501 114.259 40.1783 114.466 42.3126 114.512L48.7074 114.771C50.8362 114.809 52.9721 114.785 55.1044 114.793L58.3006 114.797L61.4979 114.683L67.8946 114.436L74.2743 113.955C75.3357 113.864 76.4044 113.818 77.4323 113.692L80.6017 113.331C89.0958 112.424 97.5385 111.087 105.897 109.325L112.14 107.915L113.694 107.562L115.243 107.152L118.339 106.338L121.43 105.517L122.972 105.106L124.5 104.656L130.625 102.795C131.648 102.5 132.657 102.153 133.661 101.799L136.69 100.758C138.699 100.045 140.736 99.4092 142.711 98.604L148.681 96.2997C149.681 95.9267 150.649 95.5123 151.647 95.1015C152.645 94.6907 153.617 94.2894 154.598 93.8642C170.308 87.1992 185.542 79.4597 200.93 72.0632C216.318 64.6668 231.847 57.5681 247.183 50.0781C254.852 46.33 262.448 42.4485 269.9 38.3002C277.352 34.1519 284.609 29.6308 292.157 25.6249C295.928 23.6144 299.782 21.7635 303.717 20.072C307.657 18.4061 311.697 16.9899 315.815 15.832C319.944 14.6899 324.15 13.8518 328.402 13.3246C330.531 13.0751 332.673 12.939 334.817 12.917C336.964 12.9186 339.109 13.0543 341.239 13.3233C345.516 13.8412 349.671 15.0997 353.517 17.0424C357.348 19.036 360.777 21.7229 363.629 24.9667C366.448 28.1969 368.98 31.6673 371.195 35.3385C373.462 38.9646 375.648 42.6377 377.815 46.321C382.141 53.6993 386.398 61.0698 391.118 68.1806C393.481 71.7301 395.942 75.197 398.611 78.5377C399.919 80.2144 401.318 81.814 402.763 83.3938C404.208 84.9736 405.75 86.4206 407.361 87.8069C410.556 90.6169 413.998 93.1333 417.644 95.3255C421.281 97.5294 425.092 99.4319 429.039 101.014C436.96 104.161 445.255 106.266 453.718 107.278C462.175 108.287 470.708 108.513 479.207 107.954C487.717 107.418 496.181 106.301 504.539 104.609C508.722 103.776 512.874 102.808 516.996 101.706C521.113 100.608 525.15 99.2331 529.182 97.8447C533.214 96.4563 537.251 95.0184 541.372 93.8905C545.484 92.6954 549.701 91.8917 553.965 91.4902C558.241 91.1321 562.546 91.324 566.774 92.0612C570.99 92.8079 575.129 93.9348 579.142 95.4279C587.189 98.3543 594.793 102.3 602.484 105.973C606.325 107.828 610.208 109.526 614.155 111.218C618.102 112.91 621.978 114.619 625.909 116.284C633.774 119.597 641.715 122.73 649.805 125.436C657.896 128.142 666.141 130.26 674.466 132.236C682.79 134.212 691.137 135.89 699.527 137.349C716.354 140.231 733.333 142.136 750.381 143.054C733.328 142.188 716.341 140.333 699.504 137.496C691.085 136.066 682.716 134.385 674.397 132.453C666.088 130.504 657.793 128.437 649.692 125.717C641.59 122.997 633.633 119.893 625.761 116.593C621.829 114.94 617.922 113.221 614 111.532C610.078 109.842 606.159 108.128 602.309 106.297C594.598 102.628 587.012 98.6968 578.994 95.7924C575 94.3087 570.881 93.1904 566.685 92.4513C562.491 91.7262 558.222 91.5404 553.981 91.8986C549.757 92.3151 545.582 93.1255 541.51 94.3193C537.406 95.4679 533.382 96.8948 529.35 98.2832C525.318 99.6716 521.288 101.048 517.132 102.153C512.977 103.258 508.848 104.235 504.652 105.098C496.268 106.798 487.778 107.925 479.241 108.471C470.703 109.03 462.131 108.801 453.634 107.787C445.125 106.772 436.782 104.661 428.814 101.507C424.84 99.9079 421.001 97.9899 417.337 95.7718C413.653 93.5633 410.176 91.0282 406.947 88.1972C405.318 86.8027 403.796 85.2891 402.303 83.7537C400.809 82.2184 399.427 80.577 398.107 78.8927C395.445 75.5465 392.957 72.0452 390.58 68.5066C385.836 61.393 381.564 53.9834 377.235 46.6297C375.075 42.9471 372.897 39.25 370.638 35.6624C368.433 32.0324 365.913 28.603 363.108 25.4136C360.33 22.1954 356.978 19.5214 353.223 17.5279C349.442 15.5951 345.352 14.3377 341.139 13.8123C339.036 13.5424 336.918 13.4057 334.799 13.4028C332.674 13.4214 330.552 13.5534 328.441 13.7983C324.219 14.3172 320.04 15.1459 315.939 16.2778C311.839 17.4359 307.816 18.8543 303.897 20.5243C299.984 22.1975 296.143 24.0353 292.372 26.0375C284.852 30.0154 277.583 34.4787 270.145 38.6724C262.707 42.8661 255.065 46.7048 247.398 50.4467C232.038 57.9215 216.484 64.9612 201.087 72.3816C185.69 79.802 170.457 87.4852 154.721 94.1474C153.735 94.5678 152.749 94.978 151.765 95.3779C150.779 95.7901 149.794 96.2023 148.794 96.5753L142.817 98.8789C140.848 99.6848 138.795 100.293 136.778 101.025L133.75 102.066C132.746 102.42 131.73 102.766 130.708 103.061L124.577 104.915L123.042 105.365L121.494 105.775L118.398 106.589L115.301 107.403L113.753 107.813L112.193 108.159L105.939 109.561C97.581 111.314 89.1395 112.641 80.6469 113.536L77.4789 113.886C76.4202 114.008 75.3514 114.054 74.3209 114.148L67.931 114.609L61.5027 114.859L58.3061 114.967L55.1052 114.949C52.9674 114.935 50.8322 114.952 48.6979 114.907L42.3053 114.63C40.1717 114.578 38.0442 114.365 35.918 114.196L32.7269 113.929L31.1338 113.803C30.6028 113.742 30.0718 113.681 29.5408 113.62L23.1871 112.839C22.1251 112.717 21.0757 112.541 20.0202 112.363L16.8644 111.844L13.7086 111.325C12.6516 111.16 11.6176 110.903 10.5649 110.701L4.30372 109.387Z" fill="#FFFFE0"/>
<path d="M2.77772 122.343L9.19045 123.862L10.7984 124.241L11.5959 124.432L12.4107 124.582L15.6499 125.192L18.8829 125.801L20.5063 126.101L22.1375 126.332L28.6636 127.244C29.7508 127.419 30.8493 127.495 31.9395 127.589L35.2203 127.891L38.5005 128.199C39.599 128.276 40.6963 128.308 41.7962 128.372C43.9872 128.467 46.1493 128.597 48.3741 128.671L54.964 128.702C63.7517 128.653 72.529 128.089 81.2507 127.012L84.5231 126.625C85.6127 126.506 86.6938 126.299 87.7822 126.136L94.2868 125.113L100.756 123.855L103.989 123.213L107.204 122.456C109.339 121.945 111.484 121.465 113.634 120.937L119.989 119.196C121.043 118.898 122.117 118.646 123.157 118.309L126.304 117.326C128.395 116.659 130.504 116.05 132.583 115.326C136.718 113.855 140.887 112.47 144.957 110.805C146.996 109.988 149.054 109.23 151.078 108.38C153.103 107.531 155.122 106.668 157.132 105.785C173.221 98.7072 188.795 90.5126 204.209 82.0744C219.623 73.6362 234.866 64.8344 249.556 55.1869C253.228 52.773 256.849 50.2968 260.418 47.7584C262.214 46.501 263.979 45.1899 265.754 43.8987C267.529 42.6075 269.272 41.2627 270.998 39.9095C277.958 34.5412 284.769 28.9492 291.995 23.9305C293.781 22.6469 295.65 21.4666 297.484 20.2573C299.318 19.048 301.219 17.9151 303.17 16.8882C305.121 15.8612 307.072 14.8342 309.042 13.8533C310.045 13.3993 311.058 12.9714 312.072 12.5311C312.579 12.3141 313.075 12.0771 313.591 11.8862L315.153 11.3087L316.701 10.7359C317.217 10.545 317.734 10.3479 318.264 10.2023L321.433 9.24649C321.959 9.07551 322.493 8.94917 323.035 8.80502L324.648 8.42741C325.721 8.18161 326.791 7.9104 327.855 7.73869C328.92 7.56698 330.044 7.36461 331.133 7.24584C331.685 7.18408 332.233 7.14701 332.783 7.0976C333.333 7.04818 333.889 7.00565 334.44 6.99399C336.651 6.88604 338.866 6.96275 341.064 7.22331C343.267 7.47212 345.441 7.9314 347.556 8.59486C349.669 9.32227 351.698 10.2705 353.612 11.4239C355.511 12.58 357.28 13.9368 358.89 15.4709C359.304 15.8376 359.655 16.2658 360.042 16.6605C360.428 17.0552 360.813 17.4623 361.152 17.8891C361.868 18.7345 362.552 19.6035 363.204 20.4958C365.741 24.1132 367.931 27.961 369.747 31.9887C371.618 35.9571 373.386 40.0075 375.117 44.0536C378.567 52.1383 381.898 60.2781 385.719 68.1864C387.627 72.159 389.665 76.0341 391.89 79.8116C394.084 83.6014 396.621 87.1825 399.468 90.5102C405.233 97.1319 412.131 102.674 419.839 106.876C427.55 111.072 435.822 114.144 444.402 115.998C452.981 117.867 461.741 118.777 470.521 118.711C479.3 118.657 488.055 117.778 496.671 116.086C500.972 115.241 505.245 114.2 509.453 112.963C513.663 111.712 517.801 110.23 521.849 108.526C525.907 106.853 529.94 105.076 534.064 103.542C538.169 101.933 542.418 100.718 546.754 99.9145C547.848 99.7587 548.93 99.539 550.034 99.4655L551.684 99.3111C552.234 99.2617 552.784 99.2686 553.336 99.2507C553.889 99.2329 554.442 99.2089 554.992 99.2096L556.642 99.2803L558.297 99.3579L559.94 99.5466C564.321 100.076 568.631 101.081 572.795 102.544C581.145 105.38 588.952 109.524 596.835 113.382C600.777 115.33 604.774 117.135 608.826 118.833L620.959 123.98C629.074 127.346 637.282 130.497 645.652 133.161C649.832 134.5 654.057 135.692 658.328 136.738L664.744 138.232C666.892 138.698 669.012 139.198 671.189 139.636C679.791 141.429 688.437 142.981 697.128 144.293C714.511 146.916 732.019 148.621 749.568 149.693C732.021 148.659 714.5 147.014 697.106 144.428C688.413 143.133 679.758 141.604 671.14 139.843C668.987 139.414 666.866 138.926 664.691 138.476L658.268 136.994C653.994 135.965 649.751 134.783 645.538 133.448C637.147 130.801 628.933 127.643 620.805 124.288L608.666 119.139C604.616 117.423 600.598 115.635 596.656 113.687C588.759 109.839 580.962 105.722 572.648 102.896C568.503 101.444 564.213 100.448 559.852 99.9244L558.216 99.7364L556.579 99.6671L554.942 99.5979C554.391 99.5972 553.85 99.6226 553.298 99.6343C552.747 99.6459 552.208 99.6528 551.665 99.6968L550.027 99.8526C548.936 99.9274 547.86 100.148 546.778 100.305C542.467 101.104 538.243 102.316 534.164 103.923C530.058 105.465 526.032 107.236 521.967 108.915C517.918 110.628 513.779 112.12 509.568 113.383C505.346 114.633 501.071 115.68 496.745 116.526C488.103 118.243 479.318 119.14 470.508 119.204C461.692 119.283 452.896 118.379 444.281 116.509C435.647 114.656 427.324 111.574 419.565 107.358C411.796 103.128 404.84 97.5503 399.025 90.8846C396.154 87.5285 393.598 83.9158 391.388 80.0918C389.147 76.2998 387.106 72.3932 385.184 68.4314C381.36 60.4916 377.999 52.342 374.548 44.2635C372.823 40.2243 371.059 36.1993 369.201 32.22C367.402 28.2335 365.235 24.424 362.727 20.8413C362.081 19.9622 361.406 19.1027 360.702 18.2628C360.356 17.8415 359.969 17.4591 359.59 17.0528C359.211 16.6464 358.863 16.2436 358.473 15.886C356.894 14.3815 355.16 13.0498 353.299 11.9134C351.417 10.8095 349.424 9.90735 347.353 9.22208C345.278 8.55563 343.145 8.09051 340.981 7.83314C338.813 7.57524 336.627 7.49773 334.446 7.6014C333.9 7.61377 333.352 7.65083 332.808 7.70096C332.264 7.75108 331.722 7.78268 331.177 7.85133C330.096 7.99622 329.013 8.11569 327.937 8.32991C326.862 8.54414 325.792 8.76524 324.731 9.01246L323.131 9.38531C322.598 9.50548 322.065 9.62565 321.544 9.79734L318.402 10.7437C317.872 10.8892 317.362 11.0809 316.846 11.2718L315.304 11.8391L313.778 12.3831C313.268 12.5747 312.772 12.8117 312.266 13.0226C311.264 13.4643 310.252 13.886 309.255 14.3407C307.298 15.3169 305.283 16.2489 303.411 17.3475C301.54 18.4462 299.623 19.5584 297.747 20.6879C295.872 21.8174 294.059 23.0666 292.273 24.344C285.049 29.338 278.252 34.9252 271.28 40.286C269.548 41.6384 267.783 42.9557 266.023 44.2799C264.263 45.6041 262.477 46.8815 260.675 48.1382C257.088 50.6829 253.453 53.1574 249.769 55.5618C235.049 65.2056 219.779 73.9669 204.363 82.4236C188.947 90.8803 173.346 99.0343 157.226 106.103C155.211 106.985 153.197 107.854 151.161 108.696C149.125 109.538 147.072 110.31 145.033 111.12C140.957 112.785 136.782 114.169 132.628 115.638C130.556 116.357 128.441 116.964 126.344 117.63L123.197 118.614C122.15 118.956 121.077 119.208 120.023 119.5L113.656 121.233C111.524 121.77 109.374 122.243 107.226 122.747L104.012 123.497L100.775 124.126L94.3551 125.39L87.8395 126.399C86.7525 126.55 85.6694 126.776 84.5757 126.875L81.2985 127.249C72.568 128.305 63.7828 128.846 54.9887 128.868L48.3948 128.817C46.2016 128.74 44.0032 128.6 41.8129 128.499C40.7129 128.435 39.6164 128.397 38.5178 128.32L35.2384 128.006L31.9529 127.691C30.8662 127.566 29.7656 127.509 28.6805 127.315L22.1565 126.384L20.5253 126.153L18.9033 125.841L15.6394 125.229L12.401 124.613L11.5931 124.457L10.7894 124.265L9.18832 123.881L2.77772 122.343Z" fill="#FFFFE0"/>
<path d="M1.25698 135.305C9.97906 137.846 18.8726 139.757 27.8687 141.022C30.1223 141.281 32.3759 141.54 34.6337 141.761C35.7636 141.891 36.8934 142.021 38.0242 142.088L41.4235 142.285L44.8235 142.476L46.5204 142.57C47.0872 142.592 47.6569 142.588 48.2251 142.597L55.0304 142.66C73.2033 142.383 91.2819 139.987 108.899 135.519L112.208 134.71C113.303 134.43 114.392 134.104 115.484 133.798L122.034 131.948L128.528 129.867C129.607 129.516 130.696 129.19 131.777 128.814L134.981 127.662C137.11 126.881 139.265 126.152 141.379 125.332L147.705 122.818C151.926 121.145 156.078 119.308 160.211 117.424C176.698 109.8 192.657 101.082 207.981 91.3281C223.365 81.6665 238.056 70.9445 251.949 59.2401C258.878 53.3802 265.52 47.1809 271.939 40.7556C275.159 37.5536 278.375 34.3386 281.63 31.1656C284.885 27.9926 288.218 24.8975 291.662 21.9276C298.595 16.0307 306.006 10.6077 314.296 6.78102L315.844 6.05177C316.36 5.81074 316.9 5.62266 317.426 5.40775L320.61 4.15342L323.855 3.1313C324.4 2.96862 324.94 2.78053 325.489 2.63091L327.153 2.19653C329.376 1.65832 331.638 1.29073 333.917 1.09699C335.057 0.971547 336.2 0.990237 337.343 0.952652C338.486 0.915068 339.62 1.05795 340.762 1.1892C341.905 1.32044 343.026 1.52436 344.155 1.71664C345.271 1.97844 346.372 2.30126 347.453 2.68365C348.537 3.0655 349.597 3.51108 350.628 4.01807C351.639 4.55009 352.615 5.1449 353.551 5.79902C354.012 6.13979 354.511 6.42854 354.943 6.80968L356.26 7.92439C356.7 8.28772 357.075 8.72494 357.486 9.12248C357.9 9.52049 358.291 9.94344 358.654 10.389C360.153 12.1212 361.482 13.9938 362.622 15.9808C364.845 19.9668 366.678 24.1579 368.096 28.4957C369.578 32.801 370.944 37.1368 372.234 41.4826C374.857 50.1791 377.289 58.9538 380.232 67.5307C381.697 71.8216 383.292 76.071 385.091 80.2313C386.828 84.4146 388.921 88.4411 391.347 92.2666C396.293 99.8765 402.613 106.498 409.984 111.793C417.352 117.087 425.49 121.217 434.113 124.036C442.733 126.865 451.679 128.578 460.734 129.135C469.786 129.713 478.874 129.207 487.806 127.629C492.287 126.857 496.718 125.819 501.075 124.518C505.417 123.227 509.659 121.624 513.769 119.721C517.884 117.823 521.917 115.721 526.025 113.778C530.109 111.759 534.356 110.09 538.722 108.788C543.109 107.506 547.67 106.924 552.238 107.063C556.798 107.253 561.314 108.039 565.67 109.401C574.404 112.056 582.473 116.367 590.576 120.432C598.633 124.624 607.116 127.894 615.461 131.48C623.859 134.948 632.363 138.133 641.041 140.788C645.381 142.112 649.76 143.304 654.188 144.294C656.402 144.793 658.629 145.23 660.853 145.686L667.536 146.979C676.467 148.631 685.441 150.018 694.444 151.203C712.451 153.572 730.563 155.084 748.68 156.334C730.557 155.134 712.446 153.672 694.427 151.351C685.414 150.197 676.431 148.833 667.497 147.206L660.806 145.93C658.583 145.462 656.349 145.037 654.135 144.538C649.693 143.565 645.3 142.378 640.953 141.066C632.254 138.427 623.747 135.21 615.333 131.779C606.987 128.198 598.491 124.933 590.415 120.745C582.305 116.686 574.247 112.388 565.56 109.757C561.238 108.405 556.757 107.625 552.233 107.438C547.706 107.297 543.186 107.878 538.842 109.158C534.5 110.456 530.276 112.12 526.216 114.132C522.114 116.075 518.085 118.202 513.958 120.086C509.831 122.012 505.57 123.636 501.208 124.946C496.851 126.264 492.42 127.322 487.938 128.113C478.967 129.706 469.837 130.222 460.743 129.649C451.645 129.099 442.655 127.387 433.991 124.554C425.316 121.72 417.126 117.574 409.705 112.261C402.274 106.925 395.9 100.253 390.91 92.5855C388.464 88.7344 386.354 84.6807 384.601 80.469C382.792 76.2888 381.192 72.0262 379.709 67.7271C376.758 59.1179 374.311 50.3603 371.682 41.6631C370.373 37.3151 369.013 32.9863 367.544 28.6762C366.138 24.3841 364.323 20.2371 362.123 16.2926C361.001 14.3358 359.694 12.491 358.221 10.7834C357.876 10.3514 357.506 9.9411 357.111 9.55483C356.705 9.16417 356.342 8.72837 355.908 8.37192L354.625 7.28617C354.206 6.90644 353.713 6.62458 353.263 6.2914C352.323 5.65097 351.345 5.06659 350.336 4.54132C349.327 4.04882 348.291 3.61236 347.234 3.23394C346.175 2.85727 345.096 2.54114 344.002 2.28708C342.898 2.09146 341.8 1.84645 340.672 1.76056C339.543 1.67466 338.432 1.60324 337.305 1.54892C336.181 1.58863 335.052 1.56519 333.93 1.69276C331.685 1.87708 329.458 2.23612 327.269 2.76661L325.624 3.20312C325.075 3.34656 324.541 3.53536 324.003 3.69875L320.76 4.70235L317.595 5.94646C317.077 6.1559 316.536 6.34398 316.027 6.57954L314.493 7.30404C306.268 11.0445 298.868 16.4312 291.994 22.3036C288.526 25.2644 285.242 28.3653 281.971 31.5176C278.7 34.67 275.503 37.8871 272.281 41.0952C265.851 47.5129 259.195 53.7232 252.241 59.5802C238.316 71.2904 223.591 82.0148 208.173 91.6754C192.825 101.421 176.843 110.133 160.336 117.751C156.198 119.628 152.033 121.464 147.831 123.139L141.493 125.652C139.372 126.471 137.218 127.194 135.089 127.975L131.879 129.126C130.81 129.504 129.715 129.828 128.63 130.179L122.136 132.254L115.574 134.103C114.476 134.408 113.387 134.733 112.291 135.014L108.978 135.816C91.3311 140.237 73.2288 142.585 55.038 142.811L48.2218 142.735C47.6536 142.726 47.0839 142.729 46.5171 142.708L44.8148 142.606L41.4162 142.403L38.0005 142.186C36.8629 142.124 35.7372 141.957 34.6114 141.846C32.3517 141.587 30.0931 141.371 27.8198 141.066C18.8391 139.784 9.96196 137.859 1.25698 135.305H1.25698Z" fill="#FFFFE0"/>
<path d="M0.742267 139.781L7.29829 141.523L8.93148 141.954C9.47722 142.105 10.0237 142.249 10.5813 142.35L13.9005 143.026L17.2259 143.702L18.8821 144.042C19.4383 144.156 20.0008 144.215 20.5598 144.304L27.2656 145.287C28.3822 145.478 29.5068 145.545 30.6305 145.674L34.0039 145.986L37.3774 146.299C38.5011 146.428 39.6349 146.414 40.7664 146.476L47.5338 146.759L54.312 146.731C55.4396 146.717 56.5699 146.734 57.7004 146.695L61.0853 146.527C63.3396 146.398 65.5992 146.333 67.8538 146.147C72.346 145.706 76.8556 145.386 81.3254 144.705L84.6825 144.234L86.36 144.007C86.9197 143.928 87.4705 143.816 88.0316 143.724L94.7076 142.571L96.3737 142.28L98.0345 141.927L101.349 141.232C103.556 140.747 105.779 140.346 107.966 139.771L114.546 138.15C115.651 137.896 116.732 137.582 117.824 137.276L121.057 136.359C125.425 135.203 129.718 133.776 134.019 132.437C142.592 129.587 151.096 126.511 159.454 123.08C176.184 116.213 192.357 108.061 207.828 98.6982C215.559 94.0272 223.089 89.0371 230.418 83.7277C237.746 78.4184 244.843 72.8259 251.707 66.9502C255.127 64.0068 258.489 60.99 261.792 57.8998C265.087 54.8127 268.288 51.621 271.477 48.4155C277.845 41.9969 284.181 35.5247 290.981 29.5373C291.825 28.7835 292.707 28.0716 293.568 27.3323C294.429 26.5929 295.295 25.8604 296.193 25.1754L298.867 23.0805L301.599 21.086L302.964 20.0918L304.39 19.1672C305.349 18.5517 306.286 17.9149 307.254 17.3256C309.227 16.2136 311.155 15.0088 313.211 14.0501L314.736 13.2933C315.237 13.0277 315.751 12.7882 316.276 12.5757L319.499 11.257C319.762 11.1496 320.019 11.0352 320.287 10.9347L321.088 10.6638L322.702 10.1174C323.781 9.76592 324.842 9.34987 325.949 9.08292C330.327 7.8124 334.876 7.2334 339.433 7.36684C341.716 7.48786 343.981 7.83614 346.195 8.40654C348.392 9.03843 350.507 9.92605 352.497 11.0512C354.45 12.2412 356.25 13.6644 357.859 15.2893C358.284 15.676 358.624 16.1405 359.009 16.5537C359.393 16.967 359.78 17.4056 360.109 17.8625C360.814 18.7567 361.463 19.6946 362.092 20.6427C364.511 24.4965 366.504 28.6018 368.036 32.8861C369.605 37.1389 371.025 41.4371 372.387 45.7537C375.098 54.3915 377.571 63.0895 380.576 71.6111C382.077 75.8684 383.711 80.1036 385.568 84.1955C387.366 88.3306 389.55 92.2868 392.092 96.0115C393.348 97.8761 394.746 99.6445 396.173 101.385C397.599 103.125 399.156 104.762 400.782 106.293C404 109.449 407.494 112.311 411.223 114.844C414.961 117.376 418.885 119.623 422.962 121.566C427.036 123.491 431.236 125.137 435.532 126.495C444.149 129.195 453.065 130.829 462.079 131.359C471.094 131.916 480.143 131.419 489.042 129.878C493.489 129.101 497.885 128.065 502.211 126.775C504.367 126.134 506.511 125.392 508.619 124.627C509.673 124.223 510.717 123.792 511.761 123.368C512.804 122.944 513.833 122.48 514.857 122.004C518.963 120.136 523.001 118.097 527.126 116.225C531.227 114.289 535.495 112.73 539.878 111.566C544.279 110.425 548.839 110.018 553.372 110.364C557.899 110.755 562.354 111.738 566.624 113.288C575.207 116.276 583.088 120.81 591.058 125.054C595.042 127.188 599.083 129.198 603.213 131.042C607.342 132.887 611.443 134.766 615.597 136.557C623.888 140.137 632.317 143.482 640.912 146.209C645.216 147.588 649.565 148.796 653.958 149.835C656.165 150.339 658.375 150.812 660.578 151.29C662.781 151.768 665.002 152.205 667.224 152.629C676.099 154.337 685.006 155.761 693.983 156.955C711.903 159.371 729.936 160.867 747.975 161.97C729.955 160.919 711.892 159.469 693.965 157.109C685 155.923 676.065 154.521 667.181 152.837C664.958 152.425 662.747 151.958 660.533 151.522C658.318 151.087 656.105 150.582 653.904 150.085C649.493 149.057 645.131 147.857 640.818 146.486C632.192 143.756 623.767 140.423 615.463 136.854C611.29 135.061 607.186 133.213 603.072 131.345C598.957 129.477 594.876 127.488 590.891 125.36C582.913 121.134 575.008 116.598 566.502 113.643C562.261 112.106 557.835 111.135 553.34 110.755C548.846 110.422 544.327 110.838 539.968 111.983C535.608 113.145 531.363 114.7 527.286 116.632C523.18 118.499 519.141 120.544 515.022 122.423C513.998 122.899 512.953 123.336 511.918 123.793C510.884 124.249 509.823 124.659 508.763 125.063C506.64 125.851 504.491 126.58 502.322 127.225C497.983 128.529 493.57 129.572 489.107 130.349C480.173 131.908 471.086 132.418 462.033 131.867C452.977 131.344 444.019 129.711 435.361 127.007C431.037 125.648 426.81 123.996 422.711 122.063C418.613 120.113 414.669 117.855 410.913 115.308C407.158 112.759 403.637 109.882 400.39 106.711C398.75 105.14 397.23 103.452 395.744 101.736C394.259 100.02 392.891 98.2052 391.619 96.3199C389.058 92.5676 386.854 88.5843 385.035 84.422C383.17 80.2917 381.528 76.0681 380.017 71.797C376.995 63.2548 374.492 54.5471 371.798 45.9299C370.417 41.6174 369.033 37.3235 367.468 33.0899C365.952 28.8474 363.98 24.7822 361.586 20.9661C360.967 20.0318 360.329 19.1076 359.634 18.2396C359.305 17.7827 358.914 17.3811 358.531 16.9555C358.183 16.5234 357.813 16.1092 357.422 15.7146C355.847 14.1263 354.082 12.7384 352.167 11.5825C350.219 10.4846 348.15 9.61708 346.002 8.99742C343.834 8.43876 341.617 8.09596 339.382 7.97404C334.878 7.8337 330.379 8.40187 326.051 9.65775C324.958 9.91995 323.904 10.3305 322.838 10.6772L321.237 11.2189L320.436 11.4898L319.655 11.8067L316.54 13.1127C316.017 13.3213 315.506 13.5569 315.008 13.8187L313.529 14.5496C311.48 15.5027 309.567 16.6905 307.6 17.797C306.638 18.387 305.708 19.0184 304.757 19.6222L303.337 20.5476L301.973 21.5294L299.243 23.5115L296.583 25.5955C295.684 26.2805 294.824 27.0137 293.965 27.7407C293.106 28.4678 292.223 29.1858 291.385 29.9465C284.594 35.9098 278.259 42.3697 271.886 48.7815C268.691 51.9801 265.483 55.1773 262.176 58.2629C258.869 61.3485 255.499 64.377 252.064 67.3228C245.199 73.2068 238.092 78.8001 230.743 84.103C223.395 89.4059 215.849 94.3921 208.106 99.0616C192.605 108.421 176.402 116.563 159.641 123.414C151.272 126.831 142.76 129.919 134.17 132.761C129.844 134.097 125.551 135.524 121.177 136.673L117.905 137.604C116.82 137.905 115.733 138.218 114.627 138.479L108.036 140.086C105.85 140.661 103.621 141.055 101.414 141.533L98.0897 142.209L96.4296 142.556L94.758 142.839L88.0747 143.948C87.5198 144.041 86.9635 144.146 86.4038 144.225L84.7201 144.451L81.3604 144.891C76.9043 145.561 72.3708 145.872 67.8676 146.299C65.6138 146.478 63.3549 146.538 61.0951 146.659L57.7109 146.821C56.5811 146.854 55.4508 146.837 54.3177 146.844L47.5327 146.878L40.762 146.569C39.6312 146.502 38.498 146.509 37.3743 146.38L34.0016 146.061L30.6234 145.736C29.4997 145.606 28.3696 145.533 27.2585 145.349L20.5487 144.346C19.9868 144.282 19.425 144.217 18.8778 144.079L17.2155 143.738L13.8977 143.05L10.5737 142.362C10.0223 142.261 9.4758 142.117 8.93006 141.967L7.2914 141.528L0.742267 139.781Z" fill="#FFFFE0"/>
<path d="M1.24124 135.716L7.59741 137.128C8.65965 137.356 9.71147 137.621 10.778 137.812L13.9886 138.344L17.1993 138.875L18.8077 139.142L19.6061 139.271L20.4149 139.364L26.8793 140.107C29.0353 140.398 31.2161 140.474 33.3699 140.621L36.6112 140.831L38.2388 140.93C38.7802 140.955 39.3245 140.955 39.8673 140.967L46.3717 141.089L47.9947 141.119L49.6256 141.081L52.8749 141.004C70.2358 140.666 87.491 138.307 104.524 135.053C113.027 133.346 121.505 131.487 129.906 129.312C134.123 128.276 138.292 127.104 142.488 125.978C144.58 125.411 146.659 124.787 148.748 124.195C150.837 123.603 152.92 123.004 154.995 122.367C171.639 117.437 187.93 111.386 203.756 104.254C219.553 97.0543 234.708 88.5221 249.056 78.7502C256.231 73.8736 263.177 68.6829 269.894 63.1782C276.617 57.695 283.233 52.0556 290.194 46.8499C297.094 41.5481 304.509 36.9512 312.326 33.1283C314.302 32.2668 316.289 31.3065 318.336 30.5846C319.356 30.2075 320.361 29.7851 321.395 29.4472L324.516 28.4672C328.682 27.1597 332.996 26.3817 337.356 26.1516C341.74 25.9156 346.129 26.509 350.292 27.9007C354.452 29.3466 358.213 31.7502 361.272 34.9175C364.325 38.0429 367 41.5166 369.241 45.2668C371.488 49.0095 373.451 52.8883 375.388 56.7767C379.234 64.5691 382.77 72.5072 386.898 80.1318C388.939 83.9525 391.194 87.6554 393.65 91.2233C394.883 92.9963 396.214 94.6989 397.637 96.3231C398.358 97.1254 399.036 97.9728 399.792 98.7415L402.11 101.003C402.504 101.38 402.872 101.773 403.282 102.126L404.526 103.17L407.008 105.251L409.629 107.153C410.491 107.81 411.385 108.423 412.309 108.988L415.057 110.711L415.747 111.134L416.459 111.523L417.882 112.312C418.838 112.816 419.775 113.368 420.747 113.836L423.717 115.209L425.19 115.898L426.697 116.503L429.686 117.709C430.683 118.124 431.725 118.419 432.746 118.787C433.768 119.154 434.792 119.491 435.825 119.816L438.951 120.701C439.987 120.995 441.027 121.308 442.083 121.536C444.2 122.004 446.294 122.564 448.433 122.891C465.518 126.057 483.039 126.058 500.124 122.894C504.382 122.132 508.604 121.157 512.79 119.97C516.959 118.798 521.028 117.301 525.091 115.754C529.154 114.206 533.205 112.651 537.371 111.397C541.527 110.068 545.822 109.225 550.171 108.883C552.349 108.754 554.532 108.781 556.706 108.964C558.877 109.173 561.03 109.546 563.146 110.08C567.353 111.203 571.446 112.72 575.368 114.612C583.227 118.355 590.54 123.086 598.05 127.415C601.79 129.602 605.654 131.579 609.51 133.567C613.367 135.556 617.247 137.503 621.153 139.384C628.945 143.198 636.931 146.598 645.08 149.572C653.234 152.548 661.669 154.649 670.11 156.645C678.551 158.641 687.086 160.254 695.649 161.625C712.798 164.334 730.094 166.014 747.443 166.657C730.089 166.069 712.785 164.44 695.625 161.779C687.055 160.431 678.533 158.793 670.06 156.865C661.609 154.899 653.159 152.821 644.978 149.86C636.811 146.908 628.806 143.529 620.994 139.735C617.082 137.853 613.202 135.906 609.338 133.923C605.475 131.94 601.61 129.97 597.858 127.781C590.329 123.45 583.021 118.732 575.191 115.011C571.291 113.123 567.222 111.608 563.037 110.486C560.941 109.96 558.808 109.591 556.657 109.384C554.506 109.21 552.346 109.185 550.191 109.31C545.876 109.659 541.615 110.5 537.492 111.817C533.349 113.08 529.305 114.63 525.248 116.185C521.191 117.739 517.104 119.221 512.916 120.398C508.727 121.574 504.485 122.557 500.213 123.317C483.071 126.507 465.489 126.522 448.341 123.362C446.192 123.015 444.067 122.452 441.967 122.004C440.897 121.781 439.857 121.468 438.809 121.172L435.671 120.286C434.631 119.967 433.61 119.599 432.58 119.255C431.55 118.912 430.504 118.592 429.501 118.176L426.469 116.964L424.955 116.359L423.477 115.67L420.508 114.29C419.529 113.821 418.586 113.268 417.624 112.764L416.188 111.973L415.47 111.584L414.775 111.154L412.01 109.466C411.066 108.914 410.197 108.257 409.313 107.618L406.668 105.706L404.168 103.561L402.913 102.509C402.504 102.15 402.124 101.756 401.729 101.379L399.389 99.0955C398.627 98.3199 397.937 97.4711 397.21 96.6619C395.77 95.0229 394.425 93.3039 393.179 91.5132C390.709 87.9297 388.442 84.2107 386.389 80.3736C382.263 72.7242 378.69 64.788 374.842 57.008C372.917 53.1272 370.954 49.2484 368.734 45.5401C366.519 41.8272 363.876 38.3868 360.86 35.2893C357.865 32.1904 354.184 29.8389 350.113 28.4244C346.023 27.051 341.708 26.4662 337.4 26.7008C333.08 26.9233 328.806 27.6935 324.681 28.9928L321.586 29.9572C320.559 30.2958 319.56 30.7128 318.548 31.0844C316.504 31.7816 314.567 32.7413 312.59 33.609C304.8 37.4175 297.411 41.9962 290.532 47.2767C283.58 52.4646 276.966 58.0916 270.23 63.5734C263.495 69.0552 256.533 74.2732 249.348 79.1528C234.97 88.9262 219.784 97.4549 203.955 104.646C188.102 111.757 171.786 117.789 155.119 122.7C153.039 123.331 150.951 123.916 148.862 124.515C146.772 125.113 144.699 125.732 142.601 126.298C138.405 127.429 134.205 128.592 130.008 129.624C121.627 131.788 113.118 133.651 104.598 135.337C87.5436 138.557 70.2687 140.87 52.9011 141.157L49.6401 141.227L48.0162 141.259L46.3877 141.222L39.8771 141.1C39.335 141.081 38.7907 141.081 38.2493 141.057L36.6232 140.945L33.3763 140.728C31.2109 140.573 29.0246 140.491 26.8878 140.195L19.5961 139.357L18.7923 139.221L17.1908 138.95L13.9808 138.412L10.7709 137.874C9.70509 137.677 8.6478 137.405 7.59173 137.177L1.24124 135.716Z" fill="#FFFFE0"/>
<path d="M1.74409 131.67L7.92843 132.781C8.96477 132.963 9.99281 133.163 11.0251 133.325L14.145 133.721C16.2257 133.96 18.2993 134.261 20.3807 134.494L26.649 134.983C27.6981 135.053 28.7368 135.16 29.7517 135.201L32.8988 135.307C34.9932 135.372 37.0833 135.475 39.1758 135.502L45.4351 135.471C46.4811 135.46 47.5297 135.48 48.5669 135.437L51.7086 135.316C53.8022 135.225 55.8977 135.172 57.9949 135.05L64.2639 134.607C65.3116 134.527 66.357 134.466 67.4184 134.375L70.5807 134.075L76.8326 133.455C85.1545 132.459 93.4685 131.369 101.736 129.979C118.305 127.329 134.722 123.986 151.177 120.759C167.631 117.532 184.001 113.896 200.023 108.925C216.048 103.995 231.599 97.64 246.489 89.9352C253.932 86.0799 261.237 81.9647 268.295 77.4271C275.354 72.8896 282.287 68.1937 289.42 63.771C292.979 61.5401 296.611 59.4364 300.285 57.4063L303.08 55.9508L304.477 55.2231L305.895 54.5352L308.735 53.1725L311.62 51.9088C312.101 51.7013 312.583 51.4814 313.068 51.287L314.546 50.7249L317.486 49.5863L320.474 48.5722C320.968 48.41 321.464 48.2293 321.964 48.074L323.486 47.6233C327.505 46.3613 331.637 45.4953 335.825 45.0375C340.026 44.5824 344.27 44.7247 348.432 45.4601L349.21 45.5996L349.984 45.7823C350.494 45.9098 351.013 46.0195 351.522 46.1655C352.531 46.4754 353.549 46.7675 354.534 47.1747C355.519 47.582 356.47 48.0227 357.434 48.4525C358.356 48.9776 359.302 49.4554 360.17 50.0619C363.673 52.4126 366.943 55.0926 369.935 58.0652C371.429 59.5505 372.843 61.1268 374.177 62.7439C375.511 64.3611 376.835 66.0145 378.118 67.6445C383.289 74.2567 388.111 81.1228 393.527 87.5066C396.198 90.7247 399.088 93.7552 402.175 96.5763C405.307 99.3355 408.695 101.79 412.293 103.907C419.453 108.233 427.324 111.264 435.355 113.563C443.429 115.817 451.69 117.34 460.036 118.113C476.734 119.64 493.56 119.002 510.094 116.214C514.22 115.525 518.339 114.741 522.406 113.757C526.473 112.773 530.499 111.596 534.542 110.491C538.582 109.341 542.685 108.423 546.831 107.743C548.911 107.422 551.007 107.212 553.109 107.113C554.161 107.103 555.216 107.067 556.238 107.103L557.818 107.185L558.607 107.226L559.391 107.316C563.589 107.743 567.699 108.788 571.59 110.419C575.476 112.02 579.242 113.896 582.862 116.031C590.122 120.255 596.959 125.157 604.057 129.582C607.605 131.804 611.244 133.892 614.868 135.998C618.492 138.103 622.148 140.15 625.836 142.138C633.211 146.154 640.801 149.762 648.572 152.945C652.452 154.511 656.36 155.942 660.396 157.181C664.433 158.421 668.403 159.64 672.441 160.755C680.528 162.964 688.696 164.829 696.946 166.348C713.436 169.42 730.156 171.101 746.927 171.372C730.152 171.153 713.425 169.522 696.923 166.496C688.671 164.997 680.491 163.156 672.385 160.973C668.337 159.883 664.305 158.713 660.28 157.431C656.255 156.149 652.321 154.777 648.427 153.222C640.659 150.046 633.072 146.443 625.702 142.429C622.01 140.441 618.348 138.395 614.715 136.293C611.091 134.188 607.452 132.106 603.891 129.882C596.777 125.436 589.948 120.567 582.693 116.361C579.081 114.239 575.323 112.375 571.448 110.784C567.591 109.172 563.517 108.141 559.357 107.725L558.579 107.635L557.795 107.595L556.234 107.516C555.193 107.484 554.151 107.52 553.105 107.532C551.019 107.628 548.94 107.838 546.877 108.161C542.747 108.843 538.661 109.763 534.637 110.915C530.6 112.021 526.574 113.197 522.493 114.192C518.413 115.187 514.287 115.977 510.154 116.672C493.578 119.481 476.709 120.138 459.965 118.624C451.595 117.861 443.311 116.344 435.213 114.091C427.153 111.833 419.243 108.753 412.054 104.405C408.413 102.279 404.982 99.8116 401.81 97.0348C398.696 94.1983 395.786 91.1464 393.1 87.9016C387.655 81.4958 382.815 74.6275 377.654 68.0354C376.354 66.3909 375.047 64.7519 373.698 63.158C372.348 61.5641 370.978 59.9867 369.496 58.5151C366.539 55.5684 363.303 52.9152 359.834 50.5925C358.969 50.0265 358.074 49.5061 357.154 49.0335C356.21 48.5996 355.289 48.1185 354.309 47.7744C353.329 47.4303 352.349 47.0863 351.359 46.7723C350.855 46.6332 350.349 46.5249 349.844 46.3981L349.089 46.2175L348.317 46.0787C344.204 45.3482 340.008 45.2031 335.855 45.6477C331.7 46.102 327.599 46.9547 323.608 48.1941L322.098 48.6462C321.599 48.8015 321.109 48.9829 320.615 49.1451L317.64 50.1483L314.715 51.276L313.281 51.8306C312.796 52.0251 312.32 52.2457 311.839 52.4532L308.968 53.706L306.134 55.0632L304.724 55.7456L303.327 56.4672L300.55 57.8747C296.884 59.8931 293.259 61.9914 289.707 64.2106C282.576 68.6148 275.657 73.356 268.566 77.8461C261.475 82.3362 254.174 86.483 246.717 90.3493C231.794 98.0514 216.21 104.401 200.153 109.321C184.11 114.253 167.713 117.905 151.255 121.112C134.797 124.319 118.361 127.654 101.795 130.28C93.5059 131.642 85.2009 132.708 76.8702 133.672L70.6081 134.272L67.4458 134.572C66.4037 134.659 65.3582 134.72 64.2928 134.791L57.9888 135.212C55.8937 135.315 53.7996 135.356 51.7046 135.459L48.5636 135.574C47.5148 135.61 46.4662 135.589 45.4332 135.596L39.1754 135.615C37.0843 135.575 34.9887 135.465 32.8943 135.4L29.7803 135.28C28.7338 135.241 27.6896 135.127 26.6474 135.051L20.3826 134.532C18.2957 134.292 16.2207 134.003 14.1429 133.739L11.0237 133.337C9.9921 133.169 8.9586 132.962 7.92843 132.781L1.74409 131.67Z" fill="#FFFFE0"/>
<path d="M2.23955 127.623L8.30693 128.445L11.343 128.863L14.3968 129.126L20.4975 129.659L26.6164 129.924L29.6789 130.057L32.7364 130.07L38.8637 130.099L44.9883 129.933L48.0448 129.846C49.0689 129.807 50.0843 129.736 51.1044 129.678C67.4164 128.832 83.6537 126.894 99.8445 124.707C116.035 122.52 132.201 120.173 148.466 118.539C164.73 116.905 181.005 115.509 197.115 112.831C205.17 111.492 213.166 109.846 221.062 107.769C228.957 105.693 236.756 103.261 244.42 100.482C252.083 97.7027 259.662 94.6262 267.038 91.1324C274.415 87.6385 281.637 83.8579 288.99 80.2425C296.296 76.5698 303.788 73.2797 311.436 70.3852C315.26 68.948 319.169 67.7019 323.101 66.5835C325.086 66.0796 327.052 65.5173 329.059 65.0911C331.066 64.6649 333.085 64.3025 335.117 64.0418C339.186 63.4848 343.302 63.3539 347.398 63.6513C351.507 63.9533 355.549 64.8583 359.394 66.3371C361.314 67.1082 363.142 68.0189 364.969 68.942C366.796 69.865 368.608 70.8114 370.393 71.8235C373.926 73.8994 377.321 76.2036 380.554 78.7213C387.089 83.6447 393.329 88.9472 399.999 93.6233C401.665 94.797 403.348 95.9412 405.067 97.0396C405.915 97.6062 406.824 98.0797 407.685 98.5915L408.997 99.3678C409.438 99.6186 409.901 99.8345 410.356 100.068L413.075 101.444L415.868 102.672C416.794 103.104 417.748 103.457 418.702 103.817C419.655 104.177 420.6 104.555 421.563 104.884C429.29 107.489 437.238 109.387 445.309 110.553C453.384 111.725 461.522 112.422 469.679 112.64C486.005 113.022 502.336 112.14 518.526 110.001C522.577 109.485 526.62 108.923 530.618 108.213C534.615 107.502 538.65 106.74 542.689 106.109C546.729 105.426 550.813 105.036 554.909 104.942C559.013 104.858 563.112 105.283 567.112 106.207C571.096 107.196 574.938 108.689 578.544 110.648C582.153 112.577 585.656 114.698 589.037 117.002C595.829 121.536 602.272 126.599 608.983 131.242C622.509 140.372 636.314 149.265 651.167 156.108C653.022 156.947 654.89 157.787 656.771 158.56C658.653 159.333 660.574 160.035 662.48 160.767C664.385 161.499 666.325 162.141 668.242 162.83C670.158 163.52 672.117 164.114 674.058 164.75C681.845 167.209 689.739 169.285 697.739 170.98C713.716 174.448 730.025 176.154 746.374 176.068C730.021 176.203 713.702 174.548 697.709 171.133C689.715 169.456 681.819 167.401 674.02 164.971C672.079 164.335 670.128 163.723 668.198 163.05C666.267 162.378 664.333 161.731 662.421 161.004C660.509 160.278 658.586 159.588 656.699 158.808C654.812 158.028 652.928 157.217 651.074 156.366C636.217 149.561 622.388 140.665 608.842 131.545C602.112 126.906 595.662 121.899 588.887 117.329C585.514 115.037 582.02 112.927 578.421 111.009C574.846 109.055 571.035 107.566 567.082 106.579C563.113 105.669 559.047 105.252 554.976 105.338C550.902 105.436 546.841 105.828 542.824 106.513C538.798 107.145 534.785 107.928 530.758 108.629C526.73 109.33 522.684 109.91 518.633 110.433C502.42 112.591 486.063 113.492 469.711 113.125C461.532 112.913 453.374 112.222 445.276 111.056C437.17 109.893 429.187 107.998 421.423 105.394C420.454 105.063 419.504 104.673 418.544 104.318C417.584 103.964 416.624 103.604 415.692 103.171L412.874 101.94L410.131 100.555C409.677 100.315 409.207 100.105 408.767 99.8481L407.436 99.0696C406.559 98.5372 405.676 98.0603 404.794 97.5148C403.068 96.4158 401.371 95.274 399.701 94.0896C393.005 89.3729 386.742 84.1053 380.224 79.2025C376.996 76.6874 373.605 74.3897 370.073 72.3247C368.312 71.3154 366.5 70.3691 364.685 69.4536C362.87 68.5381 361.036 67.6143 359.158 66.8668C355.372 65.402 351.389 64.506 347.34 64.2076C343.283 63.9064 339.206 64.0291 335.174 64.5739C333.156 64.8299 331.156 65.1944 329.162 65.6158C327.168 66.0373 325.208 66.5941 323.237 67.0932C319.312 68.2062 315.419 69.4228 311.605 70.8677C303.973 73.7561 296.497 77.0397 289.206 80.7051C281.879 84.3111 274.632 88.095 267.232 91.5737C259.832 95.0524 252.246 98.1343 244.563 100.917C236.881 103.7 229.076 106.126 221.171 108.182C213.265 110.239 205.242 111.895 197.176 113.226C181.043 115.889 164.747 117.307 148.494 118.893C132.241 120.478 116.07 122.868 99.8736 124.998C83.6768 127.128 67.4377 129.028 51.1127 129.823C50.0934 129.875 49.0719 129.945 48.0546 129.979L44.9927 130.058L38.8633 130.211L32.7417 130.133L29.6794 130.107L26.6176 129.968L20.4947 129.683L14.3961 129.133L11.3437 128.857L8.29792 128.469L2.23955 127.623Z" fill="#FFFFE0"/>
<path d="M2.4929 125.594L11.5381 126.634L14.5674 126.838L20.6198 127.246L26.6883 127.405L29.7257 127.485L32.762 127.465L38.8306 127.405L44.8944 127.17C46.9172 127.096 48.9415 127.009 50.9536 126.865C67.1187 125.882 83.1918 123.957 99.2685 122.001C107.305 121.023 115.348 120.097 123.397 119.224L129.439 118.636L132.461 118.358L135.485 118.117L141.539 117.637L147.603 117.295C163.778 116.495 179.97 116.148 196.081 114.602C204.128 113.825 212.157 112.758 220.096 111.231C228.035 109.703 235.916 107.812 243.686 105.571C251.457 103.33 259.147 100.754 266.665 97.7708C274.183 94.7874 281.581 91.4899 289.024 88.2914C296.466 85.0929 303.955 82.0373 311.643 79.43C315.474 78.0998 319.37 76.9648 323.307 75.9096C327.225 74.8469 331.203 74.0234 335.22 73.4437C337.231 73.1492 339.258 72.9818 341.287 72.8521C343.317 72.7225 345.353 72.6937 347.385 72.8146C349.417 72.8959 351.443 73.0953 353.453 73.4118C355.468 73.7081 357.46 74.146 359.414 74.7223C361.374 75.3041 363.257 76.0647 365.146 76.7759C367.035 77.4872 368.934 78.2183 370.81 78.9906C372.685 79.7629 374.543 80.5831 376.357 81.5048C378.172 82.4264 379.958 83.3761 381.729 84.3552C388.838 88.2499 395.746 92.4843 402.929 96.1747C404.724 97.0984 406.536 97.9905 408.364 98.8511C409.277 99.2876 410.213 99.6892 411.139 100.071L412.528 100.668L413.944 101.194C417.72 102.617 421.579 103.81 425.5 104.767C433.363 106.65 441.353 107.95 449.406 108.659C457.453 109.402 465.549 109.72 473.635 109.742C489.819 109.651 505.987 108.732 522.077 106.988C526.098 106.561 530.12 106.135 534.124 105.588C538.128 105.041 542.145 104.489 546.182 104.084C550.215 103.634 554.277 103.486 558.332 103.64C566.504 103.879 574.472 106.253 581.444 110.525C584.963 112.562 588.333 114.813 591.628 117.169C598.217 121.886 604.497 127.011 611.03 131.784C624.173 141.202 637.596 150.37 652.134 157.502C653.945 158.398 655.775 159.257 657.624 160.078C659.467 160.915 661.356 161.633 663.224 162.41C665.093 163.188 666.998 163.864 668.885 164.594L674.601 166.627C682.267 169.222 690.061 171.423 697.953 173.22C713.727 176.777 729.913 178.769 746.112 178.365C729.917 178.794 713.715 176.882 697.892 173.363C689.988 171.593 682.181 169.416 674.501 166.84L668.771 164.824C666.884 164.101 664.979 163.419 663.103 162.653C661.226 161.887 659.339 161.163 657.482 160.337C655.625 159.51 653.796 158.662 651.971 157.777C637.395 150.647 623.96 141.478 610.791 132.07C604.245 127.301 597.964 122.182 591.38 117.478C588.089 115.136 584.719 112.891 581.223 110.869C574.301 106.643 566.396 104.296 558.29 104.061C554.253 103.925 550.211 104.088 546.198 104.548C542.172 104.961 538.175 105.503 534.138 106.065C530.101 106.627 526.102 107.019 522.09 107.477C505.984 109.242 489.799 110.18 473.598 110.288C465.467 110.273 457.37 109.962 449.323 109.225C441.244 108.531 433.227 107.241 425.337 105.368C421.391 104.411 417.507 103.215 413.707 101.786L412.279 101.253L410.878 100.654C409.949 100.247 409.004 99.8693 408.084 99.4382C406.252 98.5771 404.434 97.6822 402.631 96.7535C395.413 93.0403 388.528 88.8212 381.406 84.9312C379.642 83.9528 377.873 83.0114 376.053 82.0829C374.233 81.1543 372.418 80.3452 370.549 79.5737C368.679 78.8021 366.798 78.0793 364.904 77.3611C363.009 76.643 361.132 75.8831 359.215 75.3125C357.287 74.742 355.322 74.3072 353.334 74.0111C351.345 73.6971 349.34 73.5001 347.328 73.4211C345.319 73.3154 343.299 73.3648 341.288 73.4465C339.277 73.5282 337.269 73.7417 335.274 74.0067C331.278 74.5839 327.32 75.3992 323.421 76.4481C319.546 77.5042 315.663 78.6283 311.815 79.944C304.144 82.5157 296.664 85.6036 289.218 88.7766C281.772 91.9497 274.384 95.2733 266.861 98.2437C259.338 101.214 251.62 103.762 243.835 106.014C236.051 108.266 228.166 110.144 220.204 111.656C212.242 113.168 204.205 114.24 196.141 115.009C180.006 116.54 163.804 116.867 147.668 117.653L141.611 117.989L135.558 118.464L132.534 118.698L129.512 118.976L123.474 119.534C115.423 120.385 107.382 121.298 99.3499 122.273C83.2727 124.179 67.1769 126.083 51.0081 126.99C48.9898 127.134 46.9669 127.208 44.9448 127.276L38.877 127.492L32.8043 127.532L29.7687 127.546L26.7389 127.455L20.6664 127.276L14.6099 126.849L11.5813 126.639L8.54977 126.29L2.4929 125.594Z" fill="#FFFFE0"/>
<path d="M2.98844 121.548L8.99009 121.962L11.9933 122.176L14.999 122.259L21.016 122.431L27.0276 122.377L30.0393 122.354L33.0423 122.243L39.0676 122.015L45.0722 121.642C47.0699 121.515 49.073 121.395 51.0702 121.217C67.0703 119.928 82.9931 118.004 98.9693 116.487C106.955 115.697 114.963 115.141 122.981 114.723L128.996 114.532C130 114.504 131 114.456 132.009 114.447L135.017 114.448C137.024 114.46 139.029 114.434 141.038 114.477L147.053 114.724C163.083 115.571 179.047 117.374 195.073 118.033C203.079 118.372 211.102 118.399 219.108 117.974C227.114 117.549 235.092 116.714 243.018 115.516C250.944 114.319 258.825 112.804 266.591 110.825C274.356 108.845 282.037 106.513 289.702 104.159C297.367 101.806 305.029 99.4205 312.776 97.3268C316.652 96.2645 320.547 95.2983 324.461 94.3967C326.421 93.9964 328.377 93.5205 330.354 93.1409C332.331 92.7612 334.309 92.4193 336.304 92.1543C344.262 91.0544 352.386 90.7492 360.373 91.9047C362.372 92.2032 364.328 92.603 366.307 92.9117L372.249 93.8447C374.234 94.1542 376.217 94.4759 378.192 94.8718L384.081 96.1052C391.932 97.7954 399.742 99.6187 407.61 101.161C411.543 101.938 415.485 102.641 419.449 103.197C423.414 103.752 427.408 104.111 431.399 104.382C447.404 105.395 463.462 104.907 479.48 104.114C487.489 103.714 495.49 103.176 503.497 102.683L527.518 101.282C531.524 101.042 535.529 100.808 539.535 100.63C543.54 100.452 547.553 100.263 551.574 100.274C555.597 100.247 559.617 100.5 563.604 101.031C567.594 101.595 571.511 102.591 575.287 104C579.071 105.445 582.663 107.35 585.983 109.671C589.324 111.9 592.529 114.333 595.669 116.833C601.974 121.849 607.935 127.194 614.131 132.285C626.585 142.368 639.368 152.2 653.325 160.091C655.088 161.082 656.855 162.029 658.626 162.952C660.397 163.875 662.227 164.711 664.037 165.57C665.846 166.428 667.696 167.204 669.522 168.026C671.348 168.849 673.232 169.548 675.084 170.311C682.551 173.241 690.188 175.716 697.953 177.724C713.472 181.716 729.548 183.901 745.591 183.11C729.549 183.951 713.46 181.821 697.917 177.876C690.135 175.887 682.479 173.432 674.99 170.525C673.132 169.767 671.264 169.04 669.415 168.252C667.566 167.464 665.723 166.683 663.909 165.811C662.095 164.94 660.266 164.142 658.478 163.204C656.69 162.267 654.939 161.34 653.175 160.355C639.159 152.489 626.378 142.644 613.899 132.565C607.696 127.473 601.698 122.13 595.428 117.137C592.286 114.643 589.112 112.22 585.757 110.001C582.476 107.713 578.927 105.834 575.19 104.408C571.44 103.015 567.551 102.033 563.59 101.48C559.623 100.951 555.624 100.701 551.622 100.73C547.612 100.726 543.607 100.904 539.606 101.101C535.604 101.298 531.594 101.519 527.587 101.766L503.529 103.174C495.526 103.675 487.518 104.225 479.502 104.63C463.482 105.441 447.409 105.947 431.365 104.948C427.356 104.668 423.356 104.309 419.37 103.776C415.384 103.243 411.432 102.52 407.492 101.748C399.611 100.217 391.794 98.3927 383.955 96.71L378.067 95.4705C376.111 95.0767 374.134 94.7495 372.155 94.4408L366.207 93.5071C364.223 93.1915 362.254 92.7902 360.287 92.4891C352.375 91.336 344.297 91.6276 336.383 92.7139C334.395 92.9796 332.422 93.3222 330.46 93.691C328.497 94.0597 326.545 94.4924 324.579 94.9421C320.674 95.832 316.786 96.8012 312.916 97.8496C305.17 99.931 297.51 102.298 289.839 104.65C282.169 107.003 274.487 109.342 266.699 111.3C258.911 113.258 251.011 114.771 243.078 115.974C235.145 117.177 227.139 117.989 219.121 118.407C211.103 118.824 203.062 118.789 195.039 118.442C178.996 117.763 163.04 115.942 147.024 115.084L141.016 114.831C139.014 114.782 137.009 114.809 135.002 114.797L132 114.79C130.999 114.794 129.992 114.847 128.995 114.87L122.981 115.055C114.977 115.461 106.974 116.018 99.0094 116.792C83.0395 118.254 67.1003 120.157 51.0964 121.371C49.0937 121.541 47.0913 121.655 45.0882 121.775L39.0549 122.126L33.0364 122.348L30.0348 122.447L27.0239 122.464L21.002 122.498L14.9934 122.308L11.9821 122.219L8.98037 121.993L2.98844 121.548Z" fill="#FFFFE0"/>
<path d="M3.48381 117.501L9.54136 117.646L12.5595 117.73L15.5732 117.689L21.6117 117.619L27.6351 117.354L30.6533 117.219L33.6616 117.008L39.6875 116.612C43.6949 116.253 47.7089 115.945 51.698 115.527C67.7107 113.964 83.6929 111.96 99.7703 110.923C103.785 110.609 107.813 110.502 111.836 110.339C112.837 110.285 113.844 110.282 114.852 110.279L117.869 110.263C119.883 110.263 121.898 110.2 123.91 110.331L129.948 110.543C130.953 110.559 131.953 110.68 132.958 110.752L135.969 111.004L138.98 111.256C139.985 111.328 140.977 111.517 141.976 111.644L147.96 112.488C163.84 115.182 179.485 119.051 195.321 121.852C211.157 124.733 227.245 125.986 243.336 125.593C251.376 125.423 259.404 124.848 267.387 123.871C275.36 122.91 283.299 121.489 291.183 119.955C299.066 118.421 306.951 116.763 314.835 115.11C318.777 114.312 322.726 113.514 326.683 112.718C330.635 111.921 334.603 111.245 338.59 110.683C346.572 109.512 354.628 108.926 362.695 108.93C366.711 108.985 370.72 108.826 374.741 108.619C378.763 108.411 382.784 108.26 386.802 108.078C394.837 107.725 402.87 107.272 410.899 106.718C418.926 106.164 426.942 105.54 434.94 104.645C450.933 102.873 466.878 100.651 482.873 98.8546C490.872 97.9532 498.885 97.1411 506.913 96.5185C514.942 95.8958 522.985 95.4751 531.037 95.3618C535.068 95.3037 539.096 95.3306 543.12 95.4427C547.143 95.5422 551.168 95.7419 555.184 96.0719C559.205 96.4068 563.201 96.9956 567.148 97.8346C571.095 98.6981 574.952 99.9309 578.667 101.517C582.382 103.111 585.893 105.145 589.126 107.573C592.349 110.007 595.429 112.601 598.458 115.257C604.509 120.576 610.268 126.204 616.164 131.68C628.014 142.55 640.159 153.204 653.641 162.01C660.384 166.399 667.454 170.263 674.79 173.567C682.109 176.91 689.656 179.731 697.372 182.011C705.086 184.309 712.968 185.995 720.946 187.053C728.927 188.125 736.996 188.373 745.027 187.793C736.996 188.398 728.923 188.175 720.938 187.127C712.95 186.093 705.057 184.431 697.331 182.156C689.599 179.897 682.036 177.097 674.697 173.775C667.347 170.487 660.261 166.64 653.499 162.269C646.766 157.843 640.29 153.038 634.102 147.879C627.898 142.743 621.868 137.409 615.915 131.939C609.963 126.469 604.247 120.846 598.203 115.516C595.18 112.866 592.092 110.284 588.886 107.864C585.676 105.455 582.187 103.441 578.496 101.866C574.799 100.287 570.959 99.0649 567.03 98.215C563.1 97.3841 559.122 96.8037 555.118 96.4773C551.118 96.124 547.102 95.9566 543.079 95.8571C539.055 95.7576 535.042 95.7343 531.019 95.7913C522.977 95.914 514.945 96.309 506.923 96.9763C498.906 97.6065 490.899 98.4255 482.88 99.3371C466.89 101.141 450.95 103.381 434.948 105.171C426.949 106.079 418.913 106.713 410.885 107.273C402.857 107.833 394.822 108.299 386.779 108.657C382.757 108.82 378.734 108.984 374.72 109.186C370.706 109.387 366.665 109.549 362.637 109.486C354.599 109.475 346.571 110.052 338.617 111.212C334.638 111.762 330.679 112.458 326.731 113.23C322.782 114.003 318.84 114.776 314.894 115.58C307.016 117.177 299.14 118.868 291.232 120.399C283.324 121.93 275.395 123.315 267.395 124.291C259.396 125.265 251.352 125.834 243.296 125.995C227.176 126.371 211.061 125.098 195.201 122.195C179.348 119.373 163.71 115.493 147.851 112.776L141.88 111.933C140.88 111.818 139.896 111.618 138.891 111.54L135.886 111.288L132.882 111.031C131.883 110.96 130.883 110.839 129.878 110.823L123.847 110.606C121.84 110.494 119.831 110.557 117.825 110.539L114.807 110.555C113.8 110.558 112.793 110.555 111.792 110.609C107.77 110.773 103.755 110.874 99.7412 111.176C83.6764 112.158 67.6937 114.113 51.6824 115.663C47.6762 116.066 43.6636 116.362 39.6762 116.711L33.6502 117.107L30.6372 117.305L27.6197 117.434L21.5922 117.68L15.5552 117.737L12.5374 117.759L9.52 117.669L3.48381 117.501Z" fill="#FFFFE0"/>
<path d="M3.98626 113.454C36.6967 113.46 68.8512 106.326 101.521 105.375C109.688 105.104 117.864 105.372 125.995 106.179C130.051 106.645 134.096 107.216 138.108 108.015C142.12 108.814 146.077 109.819 149.981 111.012C165.645 115.64 180.878 121.569 196.467 126.363C227.592 136.195 260.722 139.138 293.157 135.878C301.281 135.135 309.37 134.094 317.439 132.9C321.474 132.306 325.501 131.662 329.543 131L341.648 129.094L365.826 125.285C369.848 124.634 373.835 123.803 377.81 122.909C381.785 122.014 385.741 121.068 389.675 120.037C405.489 116.018 421.077 111.178 436.751 106.629C444.589 104.346 452.435 102.101 460.33 100.03C468.225 97.9595 476.185 96.0841 484.189 94.4827C492.193 92.8813 500.264 91.5629 508.399 90.671C512.456 90.2552 516.514 89.7831 520.598 89.5705C524.683 89.358 528.772 89.2147 532.848 89.2328C541.017 89.258 549.172 89.8898 557.247 91.1229C565.317 92.3755 573.316 94.4644 580.727 97.9622C581.645 98.4179 582.578 98.838 583.465 99.3464L584.819 100.078C585.267 100.323 585.698 100.598 586.138 100.855C587.902 101.896 589.602 103.042 591.23 104.286C592.858 105.526 594.42 106.849 595.91 108.252C597.422 109.627 598.899 111.041 600.369 112.455C606.235 118.134 611.831 124.088 617.471 129.991C628.763 141.748 640.309 153.365 653.305 163.247C656.55 165.716 659.876 168.075 663.314 170.271C666.752 172.468 670.277 174.512 673.871 176.389C681.09 180.192 688.592 183.43 696.311 186.074C704.025 188.737 711.97 190.676 720.043 191.866C728.118 193.087 736.314 193.299 744.442 192.499C736.315 193.328 728.116 193.14 720.034 191.94C711.948 190.776 703.988 188.86 696.257 186.218C688.523 183.594 681.004 180.375 673.767 176.59C670.134 174.721 666.614 172.64 663.145 170.49C659.676 168.339 656.353 165.956 653.096 163.492C646.619 158.518 640.419 153.194 634.522 147.545C628.599 141.923 622.855 136.114 617.208 130.217C611.561 124.32 605.962 118.384 600.102 112.712C598.632 111.292 597.156 109.872 595.647 108.522C594.162 107.131 592.608 105.817 590.989 104.584C589.373 103.351 587.683 102.217 585.931 101.187C585.491 100.93 585.066 100.656 584.619 100.411L583.275 99.6875C582.395 99.1859 581.46 98.772 580.555 98.3177C573.184 94.8496 565.218 92.802 557.181 91.5407C549.12 90.3326 540.981 89.7236 532.83 89.7186C528.753 89.7047 524.68 89.8205 520.61 90.0661C516.538 90.2801 512.492 90.7598 508.435 91.1694C500.337 92.0718 492.283 93.3985 484.291 95.0075C476.299 96.6164 468.357 98.5002 460.469 100.565C452.581 102.63 444.739 104.895 436.912 107.192C421.215 111.775 405.644 116.624 389.827 120.68C385.862 121.684 381.891 122.633 377.914 123.528C373.927 124.421 369.922 125.249 365.887 125.899L341.681 129.68L329.578 131.574C325.555 132.231 321.521 132.875 317.474 133.467C309.4 134.647 301.299 135.681 293.164 136.416C260.675 139.652 227.452 136.648 196.306 126.782C180.703 121.955 165.484 116.009 149.839 111.371C145.942 110.173 141.955 109.214 137.999 108.366C134.043 107.517 129.969 106.98 125.918 106.527C117.802 105.716 109.643 105.437 101.491 105.691C68.8971 106.525 36.6963 113.572 3.98626 113.454Z" fill="#FFFFE0"/>
<path d="M4.48346 109.408C21.172 108.661 37.6989 106.162 54.2316 103.939C70.7643 101.717 87.3985 99.6994 104.102 100.023C108.278 100.097 112.452 100.357 116.605 100.797C120.759 101.237 124.894 101.887 128.982 102.732C133.071 103.604 137.107 104.709 141.069 106.042C145.022 107.409 148.864 108.983 152.719 110.652C168.047 117.286 182.785 125.179 198.077 131.853C199.982 132.698 201.903 133.506 203.833 134.291C205.764 135.076 207.729 135.777 209.669 136.532L215.522 138.731L221.474 140.666L224.447 141.633C225.444 141.935 226.422 142.304 227.469 142.556L233.507 144.176L236.542 144.987C237.046 145.12 237.547 145.272 238.054 145.38L239.586 145.712L245.689 147.039C262.023 150.448 278.664 152.174 295.35 152.189C312.034 152.178 328.674 150.477 345.015 147.11L351.133 145.812C352.156 145.616 353.154 145.312 354.165 145.059L357.184 144.267L363.229 142.672L369.194 140.793L372.173 139.853C373.167 139.535 374.17 139.244 375.14 138.861L381.019 136.69C384.932 135.307 388.771 133.634 392.625 132.05C407.978 125.506 422.895 118.012 437.97 110.842C445.476 107.221 453.079 103.77 460.779 100.489C464.65 98.9193 468.488 97.2646 472.416 95.8517L475.351 94.7502C476.332 94.3812 477.313 94.006 478.301 93.6879L484.241 91.6992C492.176 89.103 500.275 87.0388 508.485 85.5205C512.575 84.658 516.763 84.2509 520.879 83.7043C525.028 83.24 529.199 83.0008 533.373 82.9879C541.739 82.8956 550.092 83.6605 558.302 85.2706C562.413 86.0859 566.468 87.1578 570.445 88.4799C574.421 89.7865 578.292 91.3961 582.022 93.2946C585.758 95.1844 589.32 97.4024 592.664 99.9223C595.986 102.48 599.058 105.346 601.84 108.483C607.524 114.604 612.977 120.93 618.41 127.278C629.259 139.947 640.139 152.67 652.636 163.74C653.405 164.454 654.197 165.127 654.996 165.794L657.385 167.814C658.991 169.143 660.654 170.398 662.288 171.699C663.116 172.332 663.974 172.925 664.81 173.54C665.646 174.156 666.487 174.79 667.361 175.347L669.971 177.074L671.274 177.936L672.613 178.747C679.717 183.123 687.194 186.862 694.957 189.922C702.71 193.018 710.773 195.272 719.007 196.646C727.251 198.07 735.661 198.265 743.963 197.224C735.662 198.29 727.249 198.12 718.998 196.72C710.751 195.373 702.673 193.142 694.903 190.066C687.117 187.014 679.617 183.28 672.488 178.908L671.145 178.128L669.836 177.271L667.22 175.544C666.339 174.986 665.482 174.337 664.655 173.742C663.829 173.146 662.955 172.533 662.12 171.905C660.48 170.609 658.81 169.354 657.199 168.024L654.803 166.01C653.998 165.342 653.199 164.668 652.43 163.96C639.896 152.886 628.991 140.154 618.129 127.49C612.694 121.16 607.234 114.84 601.555 108.732C598.781 105.626 595.72 102.788 592.413 100.256C589.086 97.7533 585.544 95.5501 581.828 93.6727C578.115 91.7809 574.264 90.1755 570.306 88.8706C566.352 87.5634 562.321 86.5027 558.235 85.6945C550.052 84.1052 541.728 83.3584 533.393 83.4656C529.227 83.4888 525.066 83.7394 520.927 84.2164C516.799 84.7555 512.651 85.1422 508.569 86.0369C500.368 87.54 492.276 89.5905 484.349 92.1745L478.427 94.1653C477.434 94.4828 476.471 94.8601 475.484 95.2284L472.561 96.3313C468.644 97.7579 464.808 99.4003 460.943 100.971C453.283 104.261 445.692 107.716 438.17 111.334C423.106 118.518 408.187 126.031 392.824 132.604C388.958 134.181 385.131 135.856 381.181 137.241L375.302 139.412C374.332 139.794 373.347 140.088 372.329 140.402L369.343 141.342L363.366 143.22L357.303 144.813L354.272 145.603C353.261 145.856 352.256 146.16 351.233 146.355L345.097 147.652C328.716 151.008 312.038 152.697 295.317 152.691C278.598 152.653 261.927 150.907 245.563 147.481L239.46 146.154L237.928 145.822C237.422 145.708 236.92 145.556 236.416 145.429L233.382 144.612L227.314 142.976C226.298 142.728 225.314 142.358 224.292 142.053L221.313 141.085L215.355 139.15L209.497 136.938C207.545 136.182 205.572 135.492 203.65 134.689C201.728 133.887 199.794 133.076 197.883 132.237C182.582 125.537 167.857 117.634 152.549 110.995C148.727 109.305 144.864 107.748 140.93 106.382C136.982 105.049 132.961 103.942 128.887 103.065C124.812 102.222 120.687 101.585 116.549 101.122C112.411 100.659 108.241 100.424 104.074 100.314C87.3839 99.9354 70.7362 101.907 54.2222 104.076C37.7082 106.245 21.2033 108.715 4.48346 109.408Z" fill="#FFFFE0"/>
</svg>
