<svg width="1650" height="849" viewBox="0 0 1650 849" fill="none" xmlns="http://www.w3.org/2000/svg">
<g opacity="0.15">
<path style="mix-blend-mode:screen" opacity="0.7" d="M415.861 752.261L416.107 751.936C433.605 757.923 455.089 757.67 478.204 751.187C499.588 744.998 519.884 735.067 538.128 721.866C556.958 708.312 573.456 692.429 589.45 677.099C603.166 663.949 617.356 650.343 632.921 638.212C721.013 569.596 860.426 551.616 950.342 597.365C954.537 599.501 958.755 601.816 962.836 604.047C978.818 612.834 995.388 621.846 1015.6 623.219C1034.12 624.48 1054.02 619.08 1073.1 607.6C1090.21 597.238 1105.06 583.366 1116.58 566.952C1128.1 550.351 1136.23 532.451 1144.1 515.146C1150.77 500.472 1157.67 485.292 1166.6 470.948C1180.84 448.082 1201.2 426.422 1225.51 408.274C1250.4 389.815 1278.02 375.53 1307.18 366.018C1336.87 356.431 1367.68 351.667 1398.39 351.912C1428.94 352.197 1458.47 357.626 1483.8 367.654L1483.59 367.931C1458.35 357.955 1428.92 352.493 1398.39 352.254C1367.74 352.007 1337 356.761 1307.36 366.329C1278.25 375.831 1250.7 390.089 1225.84 408.509C1201.6 426.612 1181.27 448.25 1167.1 471.089C1158.2 485.385 1151.28 500.577 1144.62 515.232C1136.75 532.563 1128.6 550.482 1117.06 567.112C1105.5 583.582 1090.61 597.5 1073.43 607.892C1054.24 619.441 1034.24 624.867 1015.6 623.594C995.272 622.208 978.678 613.133 962.639 604.364C958.593 602.144 954.341 599.818 950.145 597.682C860.371 552.067 721.17 569.994 633.258 638.505C617.7 650.626 603.496 664.251 589.825 677.36C573.787 692.672 557.214 708.56 538.391 722.105C520.089 735.347 499.729 745.311 478.278 751.525C455.048 758.027 433.463 758.28 415.861 752.261Z" fill="url(#paint0_linear_1264_1571)"/>
<path style="mix-blend-mode:screen" opacity="0.7" d="M414.913 750.045L415.198 749.554C431.706 754.024 452.667 752.71 475.811 745.756C497.073 739.13 517.406 729.449 536.157 717.024C538.464 715.503 540.837 713.897 543.22 712.238C558.808 701.358 572.752 689.489 586.247 678.006C600.449 665.91 615.13 653.407 631.343 642.495C656.02 625.89 685.753 613.548 711.589 603.673C744.375 591.135 771.167 583.143 795.903 578.496C833.41 571.48 870.462 570.958 903.048 577.017C916.681 579.445 929.982 583.199 942.766 588.226C949.422 590.88 955.925 594.001 962.829 597.314C969.055 600.291 975.449 603.348 981.995 606.054C990.87 609.904 1000.28 612.52 1009.97 613.833C1027.81 615.989 1046.11 612.608 1064.35 603.787C1081.41 595.491 1096.59 583.571 1108.8 568.896C1120.23 554.952 1128.7 539.769 1136.88 525.086C1144.1 512.153 1151.56 498.787 1161.08 486.121C1175.74 466.711 1196.02 448.311 1219.83 432.965C1246.26 416.194 1274.95 403.568 1304.84 395.551C1335.45 387.423 1366.84 383.614 1398.07 384.235C1429.3 384.882 1459.9 389.952 1486.44 398.995L1486.08 399.465C1459.63 390.408 1429.13 385.337 1397.94 384.733C1366.79 384.121 1335.48 387.925 1304.95 396.033C1275.13 404.028 1246.52 416.618 1220.16 433.342C1196.38 448.625 1176.12 466.92 1161.56 486.297C1152.04 498.915 1144.62 512.282 1137.43 525.176C1129.2 539.868 1120.75 555.097 1109.28 569.089C1097 583.838 1081.73 595.821 1064.58 604.165C1046.44 612.927 1027.49 616.436 1009.72 614.269C999.961 612.945 990.491 610.315 981.556 606.446C975.01 603.74 968.597 600.67 962.397 597.696C955.503 594.391 948.992 591.278 942.361 588.629C929.615 583.618 916.355 579.875 902.764 577.449C870.281 571.407 833.313 571.93 795.907 578.947C771.227 583.575 744.485 591.559 711.746 604.072C686.016 614.071 656.313 626.374 631.736 642.903C615.553 653.793 600.887 666.278 586.722 678.326C573.221 689.835 559.246 701.725 543.651 712.615C541.268 714.274 538.888 715.89 536.58 717.411C517.746 729.913 497.313 739.648 475.943 746.301C452.635 753.283 431.531 754.596 414.913 750.045Z" fill="url(#paint1_linear_1264_1571)"/>
<path style="mix-blend-mode:screen" opacity="0.7" d="M413.929 747.873L414.227 747.213C448.727 753.831 498.829 733.467 534.176 712.239C536.524 710.835 538.937 709.345 541.371 707.826C556.321 698.488 569.564 688.622 582.368 679.09C597.96 667.477 612.689 656.514 629.756 646.855C647.93 636.565 669.631 628.489 692.64 619.913C698.974 617.553 705.516 615.107 712.043 612.605C717.391 610.578 722.646 608.541 727.807 606.496C751.157 597.411 773.226 588.829 794.755 582.954C830.062 573.357 865.163 569.669 896.25 572.307C909.47 573.23 922.489 575.532 935.099 579.177C944.682 582.02 954.738 586.436 964.476 590.707C968.282 592.38 972.231 594.112 976.116 595.738C987.009 600.279 995.715 603.012 1004.24 604.539C1021.81 607.594 1040.13 605.698 1057.19 599.057C1073.46 592.876 1088.38 583.31 1100.95 571.011C1112.31 559.611 1121.1 547.055 1129.64 534.874C1137.39 523.807 1145.4 512.362 1155.5 501.478C1170.86 484.917 1191.78 469.395 1215.95 456.592C1241.85 442.844 1271.77 432.068 1302.51 425.382C1364 412.09 1432 414.023 1489.08 430.666L1488.71 431.315C1431.77 414.706 1363.95 412.784 1302.61 426.042C1271.98 432.684 1242.14 443.43 1216.33 457.138C1192.25 469.891 1171.43 485.338 1156.13 501.822C1146.08 512.672 1138.09 524.081 1130.38 535.09C1121.85 547.294 1113.02 559.891 1101.59 571.352C1088.94 583.772 1073.91 593.439 1057.51 599.696C1040.27 606.398 1021.76 608.313 1004.01 605.231C995.395 603.702 986.673 600.972 975.698 596.386C971.797 594.763 967.849 593.03 964.033 591.35C954.349 587.104 944.292 582.688 934.753 579.863C922.211 576.219 909.256 573.925 896.1 573.018C865.141 570.4 830.153 574.051 794.998 583.656C773.533 589.503 751.497 598.08 728.164 607.162C722.972 609.185 717.719 611.218 712.407 613.262C705.872 615.773 699.321 618.212 692.987 620.573C670.042 629.12 648.357 637.194 630.248 647.457C613.237 657.097 598.538 668.039 582.962 679.632C570.143 689.183 556.865 699.038 541.903 708.412C539.461 709.941 537.039 711.424 534.691 712.828C499.074 734.11 448.696 754.555 413.929 747.873Z" fill="url(#paint2_linear_1264_1571)"/>
<path style="mix-blend-mode:screen" opacity="0.7" d="M412.997 745.617L413.276 744.792C452.233 748.826 514.163 717.139 532.209 707.335C534.705 705.988 537.15 704.645 539.546 703.304C553.396 695.59 565.566 687.786 577.402 680.275C594.08 669.551 609.952 659.458 628.197 651.101C641.306 645.112 656.473 640.194 672.655 635.068C685.56 630.947 698.91 626.69 712.509 621.437C727.145 615.798 740.8 609.749 754.009 603.893C767.807 597.77 780.84 591.994 793.587 587.322C826.514 575.26 859.653 568.391 889.428 567.485C900.629 567.143 912.791 567.048 927.422 569.985C940.334 572.581 954.174 578.448 967.547 584.12L970.26 585.271C979.363 589.342 988.826 592.628 998.552 595.094C1015.33 599.092 1033.04 598.776 1050.1 594.174C1065.58 590.008 1080.22 582.749 1093.11 572.841C1104.56 563.864 1113.35 554.169 1122.66 543.91C1130.89 534.889 1139.38 525.531 1149.89 516.58C1166.06 502.923 1187.54 490.274 1212.01 479.966C1238.54 468.755 1269 460.118 1300.13 454.997C1362.2 444.865 1431.92 447.39 1491.68 462.127L1491.24 462.938C1431.68 448.276 1362.05 445.678 1300.19 455.816C1269.14 460.906 1238.81 469.537 1212.39 480.696C1188.04 490.941 1166.67 503.538 1150.58 517.09C1140.1 525.97 1131.64 535.288 1123.46 544.317C1114.11 554.608 1105.28 564.342 1093.75 573.376C1080.72 583.393 1065.93 590.733 1050.27 594.947C1033.01 599.597 1015.08 599.915 998.108 595.873C988.338 593.401 978.828 590.115 969.674 586.049L966.96 584.898C953.632 579.244 939.833 573.378 927.035 570.821C912.525 567.913 900.439 568.004 889.291 568.37C859.658 569.277 826.666 576.104 793.875 588.118C781.178 592.782 768.161 598.554 754.378 604.659C741.152 610.517 727.49 616.576 712.823 622.237C699.174 627.498 685.808 631.758 672.88 635.892C656.784 641.036 641.583 645.885 628.582 651.864C610.396 660.219 594.638 670.292 577.989 680.977C566.158 688.522 553.931 696.343 540.062 704.044C537.629 705.372 535.181 706.719 532.719 708.085C514.56 717.866 452.292 749.736 412.997 745.617Z" fill="url(#paint3_linear_1264_1571)"/>
<path style="mix-blend-mode:screen" opacity="0.7" d="M412.089 743.317L412.28 742.321C436.032 742.404 475.71 728.989 530.25 702.383L537.736 698.74C549.597 692.94 560.166 687.278 570.388 681.81C588.992 671.833 606.565 662.426 626.671 655.325C636.81 651.755 648.352 648.893 660.59 645.827C676.677 641.818 694.878 637.305 712.979 630.279C732.937 622.575 750.218 613.461 766.908 604.674C775.79 599.996 784.167 595.589 792.431 591.712C823.03 577.261 854.207 567.219 882.582 562.666C892.949 561.001 904.69 559.11 919.737 560.783C933.96 562.312 949.606 568.44 964.424 574.794C973.662 578.976 983.163 582.599 992.879 585.642C1008.97 590.484 1026.09 591.711 1043.06 589.238C1057.8 586.997 1072.13 582.059 1085.35 574.672C1097.02 568.01 1106.31 560.522 1116.15 552.598C1125.15 545.078 1134.59 538.108 1144.4 531.729C1161.39 521.023 1183.47 511.205 1208.17 503.427C1237.53 494.322 1267.55 488.053 1297.81 484.706C1360.15 477.634 1431.76 480.915 1494.29 493.682L1493.84 494.648C1431.41 481.956 1359.97 478.696 1297.77 485.726C1267.61 489.069 1237.69 495.318 1208.44 504.387C1183.84 512.164 1161.91 521.888 1145.03 532.526C1135.27 538.874 1125.89 545.811 1116.93 553.294C1107.04 561.252 1097.7 568.772 1085.89 575.476C1072.5 582.954 1057.98 587.954 1043.06 590.227C1025.88 592.71 1008.55 591.45 992.264 586.535C982.499 583.477 972.951 579.834 963.667 575.627C948.931 569.318 933.36 563.261 919.336 561.715C904.495 560.073 892.86 561.938 882.592 563.586C854.335 568.152 823.305 578.153 792.877 592.49C784.673 596.382 776.303 600.78 767.445 605.445C750.754 614.291 733.401 623.367 713.35 631.137C695.157 638.17 676.895 642.727 660.759 646.745C648.568 649.786 637.052 652.652 626.979 656.21C606.993 663.266 589.477 672.655 570.918 682.591C560.688 688.069 550.113 693.74 538.219 699.545L530.725 703.198C476.007 729.927 436.079 743.426 412.089 743.317Z" fill="url(#paint4_linear_1264_1571)"/>
<path style="mix-blend-mode:screen" opacity="0.7" d="M411.226 740.975L411.24 739.832C437.428 736.974 482.826 717.213 519.345 701.27L528.294 697.397C530.857 696.295 533.411 695.187 535.956 694.072C544.082 690.625 551.564 687.347 558.799 684.17C581.93 674.002 601.91 665.22 625.202 659.486C633.252 657.512 642.192 655.956 651.704 654.344C670.551 651.108 691.915 647.441 713.471 639.06C737.226 629.833 757.048 617.337 774.459 606.369C780.291 602.695 785.795 599.227 791.228 596.007C819.377 579.358 848.591 566.076 875.659 557.724L876.314 557.52C886.612 554.33 897.267 551.046 912.004 551.425C924.289 551.728 939.513 555.899 958.558 564.155L964.351 566.686C972.183 570.126 979.573 573.374 987.174 576.073C1003.99 581.976 1020.41 584.742 1036 584.322C1050.08 583.953 1064.12 581.318 1077.6 576.517C1089.86 572.095 1100 566.649 1110.71 560.915C1119.32 556.312 1128.21 551.543 1138.9 546.919C1156.82 539.187 1179.41 532.307 1204.29 526.955C1234.44 520.583 1264.91 516.422 1295.44 514.508C1357.6 510.498 1431.02 514.442 1496.86 525.329L1496.39 526.476C1430.65 515.612 1357.38 511.669 1295.35 515.665C1264.9 517.574 1234.52 521.725 1204.46 528.084C1179.7 533.406 1157.2 540.27 1139.38 547.903C1128.76 552.489 1119.91 557.243 1111.34 561.831C1100.56 567.602 1090.38 573.053 1078.01 577.554C1064.34 582.429 1050.1 585.104 1035.81 585.477C1020.01 585.894 1003.45 583.135 986.454 577.145C978.78 574.466 971.363 571.198 963.512 567.744L957.728 565.22C938.859 557.035 923.817 552.908 911.734 552.603C897.291 552.233 886.791 555.482 876.631 558.623L875.973 558.811C849.054 567.137 819.973 580.338 791.942 596.925C786.533 600.133 781.036 603.59 775.22 607.262C757.708 618.289 737.84 630.827 713.917 640.124C692.175 648.562 670.721 652.253 651.783 655.496C642.331 657.123 633.397 658.653 625.412 660.616C602.284 666.305 582.367 675.059 559.322 685.171C552.08 688.358 544.599 691.652 536.464 695.092C533.965 696.152 531.426 697.241 528.845 698.36L519.906 702.239C483.259 718.237 437.688 738.096 411.226 740.975Z" fill="url(#paint5_linear_1264_1571)"/>
<path style="mix-blend-mode:screen" opacity="0.7" d="M410.181 737.314C427.369 733.216 454.15 722.024 482.514 710.173C497.303 703.984 512.636 697.568 526.354 692.327C529.031 691.308 531.631 690.341 534.154 689.427L534.371 689.348C570.229 676.398 593.923 667.843 623.704 663.703C630.031 662.82 636.903 662.205 644.174 661.555C665.319 659.652 689.293 657.517 713.91 647.904C740.703 637.457 761.158 622.032 779.209 608.413C782.946 605.597 786.475 602.943 789.974 600.386C814.816 582.196 841.17 566.293 868.693 552.882L869.934 552.3C879.463 547.71 889.318 542.955 904.237 542.145C920.668 541.268 939.63 547.879 952.667 553.598C956.831 555.421 960.911 557.3 964.848 559.12C970.58 561.758 975.984 564.258 981.488 566.532C998.641 573.603 1014.18 577.811 1028.98 579.38C1042.53 580.813 1056.29 580.458 1069.92 578.326C1083.84 576.175 1095.68 572.676 1108.29 569.045C1116.08 566.769 1124.12 564.424 1133.43 562.148C1155.57 556.93 1177.94 553.057 1200.41 550.549C1231.26 546.914 1262.21 544.834 1293.11 544.316C1354.77 543.264 1428.05 547.769 1499.46 556.99L1498.97 558.299C1427.69 549.042 1354.44 544.564 1292.91 545.636C1262.09 546.134 1231.24 548.188 1200.46 551.791C1178.08 554.286 1155.8 558.142 1133.74 563.338C1124.45 565.644 1116.42 567.986 1108.64 570.269C1095.99 573.958 1084.05 577.441 1070.05 579.648C1056.23 581.795 1042.28 582.147 1028.55 580.697C1013.59 579.104 997.91 574.863 980.613 567.715C975.016 565.432 969.602 562.925 963.912 560.213C959.974 558.393 955.905 556.52 951.749 554.705C938.889 549.056 920.169 542.504 904.088 543.43C889.593 544.209 879.929 548.865 870.591 553.372L869.35 553.954C841.952 567.325 815.716 583.168 790.979 601.28C787.489 603.844 783.96 606.498 780.231 609.305C762.08 622.999 741.511 638.52 714.48 649.092C689.582 658.811 665.423 660.945 644.155 662.877C636.917 663.521 630.071 664.141 623.8 665.006C594.163 669.145 570.58 677.648 534.842 690.553L534.625 690.632C532.075 691.545 529.49 692.503 526.872 693.506C513.171 698.744 497.869 705.139 483.071 711.321C454.599 723.257 427.775 734.432 410.415 738.567L410.181 737.314Z" fill="url(#paint6_linear_1264_1571)"/>
<path style="mix-blend-mode:screen" opacity="0.7" d="M409.05 734.763C417.77 731.383 429.638 726.159 443.382 720.1C467.998 709.265 498.648 695.78 524.433 687.209C527.2 686.255 529.835 685.458 532.39 684.692C570.272 673.305 594.644 668.736 622.268 667.84C626.971 667.689 631.943 667.676 637.208 667.656C659.346 667.533 686.82 667.486 714.38 656.685C743.804 645.177 764.269 626.728 782.331 610.466C784.515 608.493 786.674 606.592 788.751 604.705C811.869 584.233 836.234 565.268 861.686 547.933L862.935 547.071C871.826 540.962 881.09 534.679 896.444 532.684C914.89 530.276 935.9 538.016 946.783 542.835C953.24 545.697 959.428 548.765 965.384 551.721C968.893 553.465 972.35 555.185 975.796 556.823C993.519 565.253 1008.63 570.979 1021.98 574.323C1035.15 577.561 1048.66 579.49 1062.34 580.081C1081.03 580.995 1096.41 579.786 1115.9 578.215C1119.78 577.903 1123.82 577.589 1128.09 577.268C1149.83 575.681 1172.89 574.601 1196.63 574.053C1227.58 573.266 1259.26 573.298 1290.77 574.173C1347.88 575.829 1416.99 580.555 1502.01 588.716L1501.54 590.185C1416.55 582.061 1347.5 577.307 1290.44 575.658C1258.93 574.843 1227.33 574.747 1196.42 575.535C1172.71 576.078 1149.68 577.162 1128.01 578.771C1123.75 579.089 1119.72 579.403 1115.83 579.708C1096.27 581.264 1080.82 582.494 1061.98 581.58C1048.18 580.984 1034.53 579.033 1021.23 575.755C1007.75 572.391 992.549 566.623 974.728 558.15C971.272 556.506 967.816 554.786 964.297 553.035C958.329 550.114 952.185 547.064 945.749 544.173C935.052 539.432 914.428 531.827 896.478 534.167C881.695 536.089 872.699 542.225 864.007 548.166L862.748 549.021C837.375 566.306 813.085 585.217 790.037 605.628C787.933 607.495 785.774 609.396 783.618 611.389C765.412 627.785 744.787 646.37 714.977 658.029C686.999 668.986 659.255 669.088 636.968 669.161C631.712 669.188 626.749 669.207 622.079 669.352C594.664 670.238 570.473 674.776 532.794 686.103C530.279 686.854 527.624 687.696 524.917 688.59C499.192 697.1 468.633 710.578 444.057 721.397C430.281 727.461 418.403 732.679 409.656 736.114L409.05 734.763Z" fill="url(#paint7_linear_1264_1571)"/>
<path style="mix-blend-mode:screen" opacity="0.7" d="M407.906 732.232C431.375 719.021 481.924 693.579 522.519 682.058C525.29 681.27 527.974 680.523 530.618 679.926C569.216 670.55 593.776 669.961 620.834 671.992C623.862 672.222 627.012 672.497 630.282 672.786C654.332 674.888 684.25 677.505 714.843 665.487C746.656 652.974 767.543 630.521 784.333 612.461L787.514 609.043C807.471 587.735 828.834 566.734 854.689 543.015L855.687 542.085C863.654 534.754 872.681 526.449 888.642 523.228C902.889 520.36 921.921 523.584 940.855 532.046C949.803 536.051 957.981 540.508 965.898 544.816L970.06 547.091C987.675 556.622 1002.04 564.042 1014.94 569.246C1027.86 574.398 1041.17 578.627 1054.76 581.903C1075.93 587.184 1094.35 590.059 1122.74 592.502C1141.64 594.173 1164.47 595.726 1190.89 597.545L1211.78 598.91C1234.93 600.417 1261.17 602.125 1288.46 604.09C1314.72 606.023 1341.7 608.176 1370.27 610.46C1414.84 614.014 1460.96 617.714 1504.6 620.492L1504.15 622.137C1460.46 619.325 1414.33 615.626 1369.78 612.095C1341.21 609.818 1314.26 607.685 1287.98 605.738C1260.74 603.798 1234.47 602.062 1211.34 600.552L1190.43 599.184C1163.99 597.374 1141.19 595.766 1122.23 594.139C1093.73 591.69 1075.21 588.799 1053.9 583.481C1040.25 580.187 1026.88 575.947 1013.89 570.789C1000.92 565.547 986.491 558.105 968.866 548.567L964.679 546.288C956.827 541.969 948.662 537.552 939.777 533.579C921.196 525.258 902.649 522.077 888.914 524.874C873.685 527.961 865.283 535.662 857.18 543.118L856.181 544.047C830.365 567.734 809.062 588.675 789.126 609.953L785.945 613.372C768.993 631.611 747.86 654.334 715.58 667.012C684.416 679.254 654.168 676.617 629.864 674.492C626.61 674.2 623.469 673.931 620.43 673.679C593.537 671.619 569.222 672.225 530.942 681.521C528.385 682.137 525.66 682.824 522.949 683.626C482.598 695.072 432.251 720.378 408.905 733.56L407.906 732.232Z" fill="url(#paint8_linear_1264_1571)"/>
<path style="mix-blend-mode:screen" opacity="0.7" d="M406.74 729.675C427.078 714.026 477.957 686.943 520.602 676.844C523.405 676.168 526.194 675.588 528.875 675.093C567.872 667.89 593.978 671.455 619.417 676.121L622.975 676.774C647.637 681.346 681.402 687.6 715.295 674.241C749.187 660.883 769.402 635.017 785.551 614.268L786.277 613.3C805.676 588.426 824.544 565.794 841.162 545.8L848.34 537.178C855.759 528.253 864.155 518.14 880.804 513.658C895.529 509.676 915.772 512.503 934.995 521.173C945.134 525.934 954.954 531.314 964.402 537.284C971.3 541.487 977.589 545.448 983.679 549.293C992.304 554.733 1000.45 559.86 1007.96 564.143C1022.14 572.22 1035.71 578.524 1047.1 583.624C1069.56 593.976 1093.08 602.031 1117.33 607.675C1136.29 612.216 1159.73 616.652 1188.99 621.228C1215.48 625.367 1247.3 629.51 1286.11 634.027C1372.84 644.187 1445.17 650.124 1507.14 652.279L1506.73 654.096C1444.68 651.929 1372.31 645.954 1285.49 635.812C1246.6 631.326 1214.8 627.153 1188.28 623.069C1158.96 618.472 1135.48 613.992 1116.43 609.475C1092.04 603.805 1068.38 595.722 1045.78 585.343C1034.35 580.216 1020.74 573.887 1006.48 565.772C998.94 561.469 990.779 556.328 982.135 550.874C976.047 547.046 969.749 543.077 962.879 538.895C953.501 532.96 943.752 527.613 933.686 522.882C914.949 514.424 895.327 511.65 881.187 515.465C865.385 519.717 857.614 529.073 850.1 538.123L842.915 546.755C826.293 566.716 807.432 589.338 788.073 614.197L787.348 615.165C771.002 636.175 750.643 662.235 715.976 675.937C681.309 689.64 647.117 683.266 622.139 678.579L618.59 677.933C593.365 673.289 567.572 669.746 528.962 676.874C526.329 677.361 523.599 677.94 520.844 678.591C478.679 688.565 428.275 715.397 408.13 730.903L406.74 729.675Z" fill="url(#paint9_linear_1264_1571)"/>
<path style="mix-blend-mode:screen" opacity="0.7" d="M405.586 727.105C424.965 707.353 476.151 679.71 518.709 671.574C521.562 671.023 524.4 670.569 527.133 670.216C566.325 665.1 592.601 672.788 618.025 680.235C640.529 686.824 678.215 697.818 715.763 682.986C751.873 668.714 771.032 639.187 785.033 617.624C794.668 602.834 804.035 588.689 813.088 575.021C822.892 560.235 832.147 546.279 840.709 532.999L841.05 532.544C847.871 521.954 855.609 509.948 873.014 504.131C888.375 498.953 909.367 501.311 929.141 510.321C939.493 515.215 949.395 520.966 958.751 527.518C970.241 535.319 980.293 543.123 989.161 550.016C993.284 553.217 997.183 556.236 1001.02 559.115C1014.55 569.25 1027.51 577.785 1039.5 585.492C1062.35 600.18 1083.41 612.185 1112.02 623.037C1132.13 630.697 1156.75 638.078 1185.27 645.001C1213.78 651.924 1246.85 658.232 1283.85 664.057C1339.51 672.886 1423.89 683.543 1509.8 684.151L1509.41 686.127C1423.34 685.514 1338.84 674.817 1283.09 665.962C1246.02 660.123 1212.78 653.701 1184.31 646.855C1155.84 640.009 1130.97 632.509 1110.76 624.806C1082 613.898 1060.81 601.829 1037.88 587.072C1025.85 579.338 1012.86 570.782 999.276 560.613C995.448 557.767 991.563 554.729 987.422 551.515C978.575 544.652 968.541 536.862 957.105 529.085C947.843 522.598 938.041 516.906 927.793 512.064C908.604 503.308 888.377 501.022 873.69 505.932C857.281 511.416 849.804 522.998 843.208 533.228L842.867 533.684C834.311 546.937 825.036 560.939 815.232 575.724C806.179 589.393 796.81 603.52 787.22 618.269C773.027 640.127 753.596 670.055 716.62 684.679C678.094 699.916 639.839 688.725 616.994 682.034C591.757 674.741 565.737 667.152 527.171 672.161C524.497 672.511 521.724 672.955 518.967 673.531C478.202 681.325 426.467 708.876 407.443 728.229L405.586 727.105Z" fill="url(#paint10_linear_1264_1571)"/>
<path style="mix-blend-mode:screen" opacity="0.7" d="M404.455 724.503C421.188 702.356 472.79 672.737 516.811 666.242C519.73 665.815 522.628 665.494 525.403 665.278C562.454 662.419 586.895 672.296 612.769 682.771L616.612 684.316C643.929 695.321 679.935 706.114 716.228 691.708C751.278 677.812 769.482 648.376 783.805 621.883L789.731 610.943C805.654 581.561 820.693 553.803 833.742 527.919C839.943 515.612 846.981 501.647 865.147 494.466C883.985 487 907.494 492.073 923.209 499.31C933.792 504.314 943.782 510.437 953.021 517.58C966.561 527.746 977.676 538.388 987.579 547.827L993.926 553.879C1007.69 566.839 1020.77 577.98 1031.77 587.172C1052.2 604.25 1075.4 622.272 1106.53 638.27C1127.67 649.154 1152.85 659.369 1181.39 668.65C1214.16 679.01 1247.57 687.488 1281.46 694.043C1336.45 705.015 1421.1 717.726 1512.25 716.039L1511.92 718.167C1420.54 719.818 1335.62 707.103 1280.5 696.111C1246.51 689.54 1213 681.035 1180.13 670.634C1151.48 661.323 1126.17 651.045 1104.92 640.111C1073.6 624.038 1050.28 605.951 1029.75 588.787C1018.74 579.581 1005.63 568.42 991.836 555.406C989.753 553.448 987.636 551.42 985.473 549.357C975.669 539.977 964.538 529.337 951.099 519.248C941.984 512.197 932.127 506.154 921.685 501.213C906.495 494.216 883.894 489.273 865.995 496.366C848.914 503.115 842.128 516.588 836.146 528.469C823.084 554.389 808.038 582.157 792.1 611.558L786.189 622.479C771.624 649.411 753.104 679.307 717.091 693.589C679.738 708.414 643.042 697.411 615.201 686.242L611.358 684.697C585.792 674.346 561.633 664.573 525.283 667.379C522.573 667.583 519.76 667.907 516.917 668.33C473.663 674.701 423.024 703.722 406.647 725.393L404.455 724.503Z" fill="url(#paint11_linear_1264_1571)"/>
<path style="mix-blend-mode:screen" opacity="0.7" d="M403.341 721.849C419.465 694.357 472.652 665.29 514.959 660.888C517.916 660.564 520.856 660.379 523.709 660.31C559.639 659.387 583.026 671.604 607.785 684.54L615.237 688.411C653.906 708.289 687.097 712.225 716.707 700.453C751.579 686.578 768.973 656.538 782.597 626.141C796.595 594.917 812.804 558.231 826.754 522.781C831.881 509.686 838.258 493.377 857.276 484.744C870.099 478.924 892.598 476.787 917.3 488.243C928.142 493.367 938.242 499.874 947.368 507.614C961.818 519.543 973.152 532.72 983.21 544.374L986.924 548.653C997.727 561.118 1009.21 573.542 1024.09 588.877C1043.96 609.185 1068.66 632.759 1101.15 653.525C1123.2 667.649 1148.92 680.715 1177.63 692.343C1210.57 705.411 1244.5 716.027 1279.18 724.11C1358 742.955 1439.48 751.229 1514.84 747.977L1514.56 750.268C1438.88 753.492 1357.12 745.223 1278.03 726.324C1240.74 717.429 1206.46 706.736 1176.07 694.449C1147.23 682.751 1121.36 669.609 1099.2 655.419C1066.53 634.532 1041.73 610.866 1021.76 590.472C1006.86 575.107 995.371 562.676 984.52 550.16L980.806 545.881C970.795 534.279 959.514 521.185 945.202 509.36C936.238 501.753 926.32 495.351 915.677 490.302C900.814 483.406 876.878 478.331 858.388 486.737C840.56 494.834 834.4 510.564 829.462 523.195C815.448 558.673 799.226 595.395 785.233 626.652C771.378 657.589 753.623 688.207 717.639 702.494C687.014 714.645 652.982 710.718 613.5 690.43L606.038 686.552C581.601 673.78 558.494 661.727 523.366 662.596C520.598 662.667 517.742 662.855 514.884 663.162C473.527 667.485 421.539 695.812 405.823 722.624L403.341 721.849Z" fill="url(#paint12_linear_1264_1571)"/>
<path style="mix-blend-mode:screen" opacity="0.7" d="M402.242 719.136C416.145 688.597 468.969 658.205 513.028 655.396C516.052 655.196 519.051 655.144 521.946 655.212C557.246 656.053 581.024 671.375 604.026 686.118C607.262 688.214 610.516 690.306 613.761 692.332C639.508 708.501 678.386 724.463 717.123 709.004C753.482 694.499 769.975 661.028 781.311 630.211C797.193 587.118 809.772 550.244 819.789 517.459C823.951 503.731 829.67 484.952 849.413 474.842C869.668 464.509 895.458 469.544 911.374 476.989C922.441 482.243 932.622 489.131 941.602 497.439C956.32 510.687 967.404 526.073 977.179 539.649L979.787 543.261C990.923 558.655 1002.85 574.098 1016.28 590.427C1043.92 623.9 1068.39 648.041 1095.63 668.701C1120.02 686.995 1146.17 702.828 1173.73 715.991C1206.81 731.742 1241.3 744.528 1276.82 754.209C1356.03 776.206 1439.17 785.083 1517.34 779.96L1517.14 782.413C1438.57 787.561 1355.05 778.656 1275.5 756.558C1239.82 746.865 1205.18 734.055 1171.95 718.266C1144.24 705.032 1117.95 689.112 1093.44 670.717C1066.06 649.953 1041.48 625.713 1013.72 592.108C1000.27 575.731 988.311 560.268 977.144 544.82L974.536 541.208C964.34 527.06 953.8 512.428 939.242 499.33C930.444 491.196 920.477 484.447 909.644 479.289C894.396 472.162 869.828 467.28 850.763 477.001C832.235 486.425 826.778 504.566 822.754 517.837C812.725 550.659 800.126 587.579 784.232 630.707C772.666 662.14 755.775 696.299 718.146 711.312C678.002 727.328 638.129 711.004 611.752 694.485C608.47 692.432 605.207 690.332 601.954 688.24C579.315 673.646 555.912 658.573 521.452 657.723C518.647 657.631 515.732 657.685 512.854 657.902C470.705 660.56 418.311 690.606 405.063 719.709L402.242 719.136Z" fill="url(#paint13_linear_1264_1571)"/>
<path style="mix-blend-mode:screen" opacity="0.7" d="M401.15 716.378C412.776 683.242 466.246 650.939 511.214 649.855C514.296 649.789 517.347 649.882 520.301 650.084C555.359 652.694 578.53 670.522 601.009 687.774C604.724 690.639 608.568 693.583 612.38 696.415C633.181 711.791 674.51 734.997 717.637 717.731C755.314 702.647 770.374 667.16 780.137 634.439C793.42 589.993 804.127 550.026 812.88 512.257C816.17 498.024 821.09 476.586 841.596 465.04C854.683 457.665 879.274 453.447 905.511 465.811C916.826 471.211 927.105 478.495 935.944 487.377C950.718 501.85 960.948 518.621 970.85 534.829L972.808 537.989C984.002 556.283 996.045 574.499 1008.64 592.142C1035.53 629.813 1061.48 659.033 1090.24 684.099C1114.83 705.392 1141.54 724.082 1169.99 739.899C1203.17 758.209 1238.19 773.107 1274.55 784.385C1354.35 809.543 1439.21 819.091 1519.92 811.997L1519.79 814.618C1438.58 821.731 1353.24 812.13 1273.02 786.85C1236.46 775.512 1201.26 760.532 1167.9 742.12C1139.31 726.224 1112.46 707.437 1087.74 686.026C1058.87 660.877 1032.82 631.538 1005.75 593.713C993.154 576.043 981.082 557.79 969.849 539.452L967.938 536.326C958.106 520.217 947.941 503.571 933.356 489.268C924.72 480.588 914.677 473.47 903.62 468.193C878.597 456.401 855.396 460.276 843.147 467.184C825.435 477.16 820.221 494.266 816.039 512.416C807.276 550.237 796.549 590.25 783.263 634.739C779.094 648.726 772.957 666.857 762.453 683.094C751.012 700.801 736.701 712.906 718.694 720.113C673.854 738.058 631.38 714.285 610.046 698.525C606.222 695.671 602.333 692.768 598.637 689.857C576.533 672.855 553.669 655.27 519.55 652.771C516.713 652.565 513.782 652.486 510.827 652.555C467.244 653.535 415.454 684.74 404.234 716.753L401.15 716.378Z" fill="url(#paint14_linear_1264_1571)"/>
<path style="mix-blend-mode:screen" opacity="0.7" d="M400.072 713.56C409.702 677.225 462.792 643.59 509.305 644.333C512.404 644.386 515.49 644.599 518.552 644.969C553.592 649.185 576.404 669.638 598.387 689.349C602.485 693.02 606.717 696.821 610.925 700.421C661.937 743.94 705.848 731.312 718.114 726.424C757.287 710.695 771.197 671.238 778.934 638.625C789.679 593.277 798.782 548.996 805.933 506.95C809.263 487.33 814.145 467.17 833.736 455.145C853.954 442.723 881.391 445.892 899.613 454.542C911.167 460.08 921.534 467.751 930.214 477.184C944.768 492.62 954.45 511.16 963.829 529.065L965.667 532.566C976.549 553.416 988.375 573.984 1000.81 593.69C1027.03 635.181 1054.49 669.739 1084.7 699.305C1109.52 723.554 1136.78 745.1 1166.08 763.625C1199.35 784.504 1234.91 801.567 1272.16 814.52C1352.7 842.806 1439.2 853.058 1522.41 844.045L1522.35 846.801C1438.59 855.901 1351.49 845.626 1270.46 817.144C1233.01 804.108 1197.25 786.947 1163.79 765.953C1134.33 747.331 1106.93 725.673 1081.98 701.298C1051.6 671.575 1024.04 636.881 997.721 595.237C985.25 575.478 973.394 554.872 962.488 533.958L960.65 530.457C951.345 512.685 941.716 494.305 927.397 479.075C918.937 469.867 908.828 462.379 897.56 456.973C880.264 448.757 854.353 445.665 835.504 457.272C817.194 468.521 812.53 487.964 809.307 506.919C802.136 549.011 793.041 593.358 782.274 638.735C774.365 672.101 760.044 712.497 719.23 728.884C700.087 736.579 679.451 737.14 657.948 730.521C636.445 723.901 619.023 711.624 608.312 702.541C604.076 698.919 599.836 695.112 595.728 691.434C574.028 671.98 551.594 651.87 517.585 647.756C514.648 647.419 511.689 647.236 508.719 647.207C463.895 646.436 412.652 678.807 403.405 713.757L400.072 713.56Z" fill="url(#paint15_linear_1264_1571)"/>
<path style="mix-blend-mode:screen" opacity="0.7" d="M399.004 710.677C402.962 690.28 418.877 670.4 442.604 656.091C466.331 641.783 493.413 635.828 516.85 639.73C551.931 645.557 574.409 668.57 596.069 690.864C600.442 695.353 604.968 700.003 609.487 704.373C649.582 743.199 692.109 745.666 718.528 735.031C759.407 718.567 771.828 674.479 777.673 642.682C786.237 595.83 793.408 548.317 798.936 501.506C800.039 492.167 801.547 481.334 805.474 471.156C809.851 459.792 816.51 451.261 825.814 445.091C846.643 431.277 874.894 434.14 893.639 443.114C928.137 459.613 942.847 492.243 957.057 523.784L958.55 527.078C1010.69 642.447 1077.33 727.628 1162.23 787.52C1265.41 860.158 1397.58 892.522 1524.9 876.28L1524.93 879.205C1396.6 895.623 1263.42 863.1 1159.58 789.965C1074.38 729.714 1007.47 644.213 955.148 528.443L953.662 525.14C939.626 494.003 925.109 461.791 891.504 445.716C873.769 437.239 847.201 434.434 827.804 447.31C808.875 459.868 804.933 480.901 802.488 501.41C796.958 548.264 789.827 595.838 781.203 642.751C768.767 710.658 740.137 729.454 719.678 737.702C677.536 754.666 633.644 732.674 606.556 706.516C602.009 702.125 597.464 697.462 593.09 692.956C571.727 671.036 549.626 648.367 515.601 642.706C493.222 638.91 467.238 644.683 444.442 658.379C421.645 672.076 406.348 691.201 402.549 710.727L399.004 710.677Z" fill="url(#paint16_linear_1264_1571)"/>
</g>
<path d="M1442.52 671.858C1479.92 671.858 1510.24 641.545 1510.24 604.152C1510.24 566.76 1479.92 536.447 1442.52 536.447C1405.12 536.447 1374.8 566.76 1374.8 604.152C1374.8 641.545 1405.12 671.858 1442.52 671.858Z" fill="url(#paint17_radial_1264_1571)"/>
<defs>
<linearGradient id="paint0_linear_1264_1571" x1="931.453" y1="452.585" x2="974.441" y2="636.848" gradientUnits="userSpaceOnUse">
<stop stop-color="#FFFFE0"/>
<stop offset="1" stop-color="#FEFCFF"/>
</linearGradient>
<linearGradient id="paint1_linear_1264_1571" x1="935.052" y1="481.756" x2="970.034" y2="631.569" gradientUnits="userSpaceOnUse">
<stop stop-color="#FFFFE0"/>
<stop offset="1" stop-color="#FEFCFF"/>
</linearGradient>
<linearGradient id="paint2_linear_1264_1571" x1="938.506" y1="510.269" x2="965.783" y2="626.979" gradientUnits="userSpaceOnUse">
<stop stop-color="#FFFFE0"/>
<stop offset="1" stop-color="#FEFCFF"/>
</linearGradient>
<linearGradient id="paint3_linear_1264_1571" x1="941.811" y1="537.814" x2="961.624" y2="622.509" gradientUnits="userSpaceOnUse">
<stop stop-color="#FFFFE0"/>
<stop offset="1" stop-color="#FEFCFF"/>
</linearGradient>
<linearGradient id="paint4_linear_1264_1571" x1="941.922" y1="548.218" x2="958.669" y2="619.739" gradientUnits="userSpaceOnUse">
<stop stop-color="#FFFFE0"/>
<stop offset="1" stop-color="#FEFCFF"/>
</linearGradient>
<linearGradient id="paint5_linear_1264_1571" x1="939.038" y1="542.361" x2="964.469" y2="650.865" gradientUnits="userSpaceOnUse">
<stop stop-color="#FFFFE0"/>
<stop offset="1" stop-color="#FEFCFF"/>
</linearGradient>
<linearGradient id="paint6_linear_1264_1571" x1="935.665" y1="533.716" x2="970.452" y2="681.994" gradientUnits="userSpaceOnUse">
<stop stop-color="#FFFFE0"/>
<stop offset="1" stop-color="#FEFCFF"/>
</linearGradient>
<linearGradient id="paint7_linear_1264_1571" x1="931.987" y1="524.153" x2="976.378" y2="713.179" gradientUnits="userSpaceOnUse">
<stop stop-color="#FFFFE0"/>
<stop offset="1" stop-color="#FEFCFF"/>
</linearGradient>
<linearGradient id="paint8_linear_1264_1571" x1="928.198" y1="514.072" x2="982.345" y2="744.404" gradientUnits="userSpaceOnUse">
<stop stop-color="#FFFFE0"/>
<stop offset="1" stop-color="#FEFCFF"/>
</linearGradient>
<linearGradient id="paint9_linear_1264_1571" x1="924.341" y1="503.623" x2="988.362" y2="775.673" gradientUnits="userSpaceOnUse">
<stop stop-color="#FFFFE0"/>
<stop offset="1" stop-color="#FEFCFF"/>
</linearGradient>
<linearGradient id="paint10_linear_1264_1571" x1="920.459" y1="492.941" x2="994.435" y2="806.966" gradientUnits="userSpaceOnUse">
<stop stop-color="#FFFFE0"/>
<stop offset="1" stop-color="#FEFCFF"/>
</linearGradient>
<linearGradient id="paint11_linear_1264_1571" x1="916.542" y1="482.045" x2="1000.55" y2="838.288" gradientUnits="userSpaceOnUse">
<stop stop-color="#FFFFE0"/>
<stop offset="1" stop-color="#FEFCFF"/>
</linearGradient>
<linearGradient id="paint12_linear_1264_1571" x1="912.613" y1="471.013" x2="1006.73" y2="869.658" gradientUnits="userSpaceOnUse">
<stop stop-color="#FFFFE0"/>
<stop offset="1" stop-color="#FEFCFF"/>
</linearGradient>
<linearGradient id="paint13_linear_1264_1571" x1="908.661" y1="459.716" x2="1012.97" y2="901.043" gradientUnits="userSpaceOnUse">
<stop stop-color="#FFFFE0"/>
<stop offset="1" stop-color="#FEFCFF"/>
</linearGradient>
<linearGradient id="paint14_linear_1264_1571" x1="904.734" y1="448.415" x2="1019.28" y2="932.465" gradientUnits="userSpaceOnUse">
<stop stop-color="#FFFFE0"/>
<stop offset="1" stop-color="#FEFCFF"/>
</linearGradient>
<linearGradient id="paint15_linear_1264_1571" x1="900.742" y1="436.797" x2="1025.63" y2="963.935" gradientUnits="userSpaceOnUse">
<stop stop-color="#FFFFE0"/>
<stop offset="1" stop-color="#FEFCFF"/>
</linearGradient>
<linearGradient id="paint16_linear_1264_1571" x1="896.768" y1="425.099" x2="1032.05" y2="995.43" gradientUnits="userSpaceOnUse">
<stop stop-color="#FEFCFF" stop-opacity="0"/>
<stop offset="0.388542" stop-color="#FFFFE0"/>
<stop offset="0.591667" stop-color="#FEFCFF" stop-opacity="0"/>
</linearGradient>
</defs>
</svg>