<svg width="601" height="495" viewBox="0 0 601 495" fill="none" xmlns="http://www.w3.org/2000/svg">
<path d="M119.347 83.8244V443.191H478.75V83.8244H119.347ZM136.453 443.008H119.529V426.086H136.453V443.008ZM136.453 425.904H119.529V408.982H136.453V425.904ZM136.453 408.8H119.529V391.914H136.453V408.8ZM136.453 391.695H119.529V374.773H136.453V391.695ZM136.453 374.591H119.529V357.676H136.453V374.591ZM136.453 357.487H119.529V340.564H136.453V357.487ZM136.453 340.382H119.529V323.438H136.453V340.382ZM136.453 323.278H119.529V306.356H136.453V323.278ZM136.453 306.174H119.529V289.259H136.453V306.174ZM136.453 289.077H119.529V272.154H136.453V289.077ZM136.453 271.972H119.529V255.05H136.453V271.972ZM136.453 254.868H119.529V237.946H136.453V254.868ZM136.453 237.764H119.529V220.841H136.453V237.764ZM136.453 220.659H119.529V203.737H136.453V220.659ZM136.453 203.555H119.529V186.633H136.453V203.555ZM136.453 186.45H119.529V169.528H136.453V186.45ZM136.453 169.346H119.529V152.424H136.453V169.346ZM136.453 152.242H119.529V135.32H136.453V152.242ZM136.453 135.137H119.529V118.215H136.453V135.137ZM136.453 118.033H119.529V101.111H136.453V118.033ZM136.453 100.929H119.529V84.0065H136.453V100.929ZM153.559 443.008H136.635V426.086H153.559V443.008ZM153.559 425.904H136.635V408.982H153.559V425.904ZM153.559 408.8H136.635V391.914H153.559V408.8ZM153.559 391.695H136.635V374.773H153.559V391.695ZM153.559 374.591H136.635V357.676H153.559V374.591ZM153.559 357.487H136.635V340.564H153.559V357.487ZM153.559 340.382H136.635V323.438H153.559V340.382ZM153.559 323.278H136.635V306.356H153.559V323.278ZM153.559 306.174H136.635V289.259H153.559V306.174ZM153.559 289.077H136.635V272.154H153.559V289.077ZM153.559 271.972H136.635V255.05H153.559V271.972ZM153.559 254.868H136.635V237.946H153.559V254.868ZM153.559 237.764H136.635V220.841H153.559V237.764ZM153.559 220.659H136.635V203.737H153.559V220.659ZM153.559 203.555H136.635V186.633H153.559V203.555ZM153.559 186.45H136.635V169.528H153.559V186.45ZM153.559 169.346H136.635V152.424H153.559V169.346ZM153.559 152.242H136.635V135.32H153.559V152.242ZM153.559 135.137H136.635V118.215H153.559V135.137ZM153.559 118.033H136.635V101.111H153.559V118.033ZM153.559 100.929H136.635V84.0065H153.559V100.929ZM170.665 443.008H153.741V426.086H170.665V443.008ZM170.665 425.904H153.741V408.982H170.665V425.904ZM170.665 408.8H153.741V391.914H170.665V408.8ZM170.665 391.695H153.741V374.773H170.665V391.695ZM170.665 374.591H153.741V357.676H170.665V374.591ZM170.665 357.487H153.741V340.564H170.665V357.487ZM170.665 340.382H153.741V323.438H170.665V340.382ZM170.665 323.278H153.741V306.356H170.665V323.278ZM170.665 306.174H153.741V289.259H170.665V306.174ZM170.665 289.077H153.741V272.154H170.665V289.077ZM170.665 271.972H153.741V255.05H170.665V271.972ZM170.665 254.868H153.741V237.946H170.665V254.868ZM170.665 237.764H153.741V220.841H170.665V237.764ZM170.665 220.659H153.741V203.737H170.665V220.659ZM170.665 203.555H153.741V186.633H170.665V203.555ZM170.665 186.45H153.741V169.528H170.665V186.45ZM170.665 169.346H153.741V152.424H170.665V169.346ZM170.665 152.242H153.741V135.32H170.665V152.242ZM170.665 135.137H153.741V118.215H170.665V135.137ZM170.665 118.033H153.741V101.111H170.665V118.033ZM170.665 100.929H153.741V84.0065H170.665V100.929ZM187.771 443.008H170.847V426.086H187.771V443.008ZM187.771 425.904H170.847V408.982H187.771V425.904ZM187.771 408.8H170.847V391.914H187.771V408.8ZM187.771 391.695H170.847V374.773H187.771V391.695ZM187.771 374.591H170.847V357.676H187.771V374.591ZM187.771 357.487H170.847V340.564H187.771V357.487ZM187.771 340.382H170.847V323.438H187.771V340.382ZM187.771 323.278H170.847V306.356H187.771V323.278ZM187.771 306.174H170.847V289.259H187.771V306.174ZM187.771 289.077H170.847V272.154H187.771V289.077ZM187.771 271.972H170.847V255.05H187.771V271.972ZM187.771 254.868H170.847V237.946H187.771V254.868ZM187.771 237.764H170.847V220.841H187.771V237.764ZM187.771 220.659H170.847V203.737H187.771V220.659ZM187.771 203.555H170.847V186.633H187.771V203.555ZM187.771 186.45H170.847V169.528H187.771V186.45ZM187.771 169.346H170.847V152.424H187.771V169.346ZM187.771 152.242H170.847V135.32H187.771V152.242ZM187.771 135.137H170.847V118.215H187.771V135.137ZM187.771 118.033H170.847V101.111H187.771V118.033ZM187.771 100.929H170.847V84.0065H187.771V100.929ZM204.877 443.008H187.953V426.086H204.877V443.008ZM204.877 425.904H187.953V408.982H204.877V425.904ZM204.877 408.8H187.953V391.914H204.877V408.8ZM204.877 391.695H187.953V374.773H204.877V391.695ZM204.877 374.591H187.953V357.676H204.877V374.591ZM204.877 357.487H187.953V340.564H204.877V357.487ZM204.877 340.382H187.953V323.438H204.877V340.382ZM204.877 323.278H187.953V306.356H204.877V323.278ZM204.877 306.174H187.953V289.259H204.877V306.174ZM204.877 289.077H187.953V272.154H204.877V289.077ZM204.877 271.972H187.953V255.05H204.877V271.972ZM204.877 254.868H187.953V237.946H204.877V254.868ZM204.877 237.764H187.953V220.841H204.877V237.764ZM204.877 220.659H187.953V203.737H204.877V220.659ZM204.877 203.555H187.953V186.633H204.877V203.555ZM204.877 186.45H187.953V169.528H204.877V186.45ZM204.877 169.346H187.953V152.424H204.877V169.346ZM204.877 152.242H187.953V135.32H204.877V152.242ZM204.877 135.137H187.953V118.215H204.877V135.137ZM204.877 118.033H187.953V101.111H204.877V118.033ZM204.877 100.929H187.953V84.0065H204.877V100.929ZM221.983 443.008H205.059V426.086H221.983V443.008ZM221.983 425.904H205.059V408.982H221.983V425.904ZM221.983 408.8H205.059V391.914H221.983V408.8ZM221.983 391.695H205.059V374.773H221.983V391.695ZM221.983 374.591H205.059V357.676H221.983V374.591ZM221.983 357.487H205.059V340.564H221.983V357.487ZM221.983 340.382H205.059V323.438H221.983V340.382ZM221.983 323.278H205.059V306.356H221.983V323.278ZM221.983 306.174H205.059V289.259H221.983V306.174ZM221.983 289.077H205.059V272.154H221.983V289.077ZM221.983 271.972H205.059V255.05H221.983V271.972ZM221.983 254.868H205.059V237.946H221.983V254.868ZM221.983 237.764H205.059V220.841H221.983V237.764ZM221.983 220.659H205.059V203.737H221.983V220.659ZM221.983 203.555H205.059V186.633H221.983V203.555ZM221.983 186.45H205.059V169.528H221.983V186.45ZM221.983 169.346H205.059V152.424H221.983V169.346ZM221.983 152.242H205.059V135.32H221.983V152.242ZM221.983 135.137H205.059V118.215H221.983V135.137ZM221.983 118.033H205.059V101.111H221.983V118.033ZM221.983 100.929H205.059V84.0065H221.983V100.929ZM239.089 443.008H222.158V426.086H239.082L239.089 443.008ZM239.089 425.904H222.158V408.982H239.082L239.089 425.904ZM239.089 408.8H222.158V391.914H239.082L239.089 408.8ZM239.089 391.695H222.158V374.773H239.082L239.089 391.695ZM239.089 374.591H222.158V357.676H239.082L239.089 374.591ZM239.089 357.487H222.158V340.564H239.082L239.089 357.487ZM239.089 340.382H222.158V323.438H239.082L239.089 340.382ZM239.089 323.278H222.158V306.356H239.082L239.089 323.278ZM239.089 306.174H222.158V289.259H239.082L239.089 306.174ZM239.089 289.077H222.158V272.154H239.082L239.089 289.077ZM239.089 271.972H222.158V255.05H239.082L239.089 271.972ZM239.089 254.868H222.158V237.946H239.082L239.089 254.868ZM239.089 237.764H222.158V220.841H239.082L239.089 237.764ZM239.089 220.659H222.158V203.737H239.082L239.089 220.659ZM239.089 203.555H222.158V186.633H239.082L239.089 203.555ZM239.089 186.45H222.158V169.528H239.082L239.089 186.45ZM239.089 169.346H222.158V152.424H239.082L239.089 169.346ZM239.089 152.242H222.158V135.32H239.082L239.089 152.242ZM239.089 135.137H222.158V118.215H239.082L239.089 135.137ZM239.089 118.033H222.158V101.111H239.082L239.089 118.033ZM239.089 100.929H222.158V84.0065H239.082L239.089 100.929ZM256.196 443.008H239.272V426.086H256.196V443.008ZM256.196 425.904H239.272V408.982H256.196V425.904ZM256.196 408.8H239.272V391.914H256.196V408.8ZM256.196 391.695H239.272V374.773H256.196V391.695ZM256.196 374.591H239.272V357.676H256.196V374.591ZM256.196 357.487H239.272V340.564H256.196V357.487ZM256.196 340.382H239.272V323.438H256.196V340.382ZM256.196 323.278H239.272V306.356H256.196V323.278ZM256.196 306.174H239.272V289.259H256.196V306.174ZM256.196 289.077H239.272V272.154H256.196V289.077ZM256.196 271.972H239.272V255.05H256.196V271.972ZM256.196 254.868H239.272V237.946H256.196V254.868ZM256.196 237.764H239.272V220.841H256.196V237.764ZM256.196 220.659H239.272V203.737H256.196V220.659ZM256.196 203.555H239.272V186.633H256.196V203.555ZM256.196 186.45H239.272V169.528H256.196V186.45ZM256.196 169.346H239.272V152.424H256.196V169.346ZM256.196 152.242H239.272V135.32H256.196V152.242ZM256.196 135.137H239.272V118.215H256.196V135.137ZM256.196 118.033H239.272V101.111H256.196V118.033ZM256.196 100.929H239.272V84.0065H256.196V100.929ZM273.294 443.008H256.4V426.086H273.316L273.294 443.008ZM273.294 425.904H256.4V408.982H273.316L273.294 425.904ZM273.294 408.8H256.4V391.914H273.316L273.294 408.8ZM273.294 391.695H256.4V374.773H273.316L273.294 391.695ZM273.294 374.591H256.4V357.676H273.316L273.294 374.591ZM273.294 357.487H256.4V340.564H273.316L273.294 357.487ZM273.294 340.382H256.4V323.438H273.316L273.294 340.382ZM273.294 323.278H256.4V306.356H273.316L273.294 323.278ZM273.294 306.174H256.4V289.259H273.316L273.294 306.174ZM273.294 289.077H256.4V272.154H273.316L273.294 289.077ZM273.294 271.972H256.4V255.05H273.316L273.294 271.972ZM273.294 254.868H256.4V237.946H273.316L273.294 254.868ZM273.294 237.764H256.4V220.841H273.316L273.294 237.764ZM273.294 220.659H256.4V203.737H273.316L273.294 220.659ZM273.294 203.555H256.4V186.633H273.316L273.294 203.555ZM273.294 186.45H256.4V169.528H273.316L273.294 186.45ZM273.294 169.346H256.4V152.424H273.316L273.294 169.346ZM273.294 152.242H256.4V135.32H273.316L273.294 152.242ZM273.294 135.137H256.4V118.215H273.316L273.294 135.137ZM273.294 118.033H256.4V101.111H273.316L273.294 118.033ZM273.294 100.929H256.4V84.0065H273.316L273.294 100.929ZM290.4 443.008H273.476V426.086H290.4V443.008ZM290.4 425.904H273.476V408.982H290.4V425.904ZM290.4 408.8H273.476V391.914H290.4V408.8ZM290.4 391.695H273.476V374.773H290.4V391.695ZM290.4 374.591H273.476V357.676H290.4V374.591ZM290.4 357.487H273.476V340.564H290.4V357.487ZM290.4 340.382H273.476V323.438H290.4V340.382ZM290.4 323.278H273.476V306.356H290.4V323.278ZM290.4 306.174H273.476V289.259H290.4V306.174ZM290.4 289.077H273.476V272.154H290.4V289.077ZM290.4 271.972H273.476V255.05H290.4V271.972ZM290.4 254.868H273.476V237.946H290.4V254.868ZM290.4 237.764H273.476V220.841H290.4V237.764ZM290.4 220.659H273.476V203.737H290.4V220.659ZM290.4 203.555H273.476V186.633H290.4V203.555ZM290.4 186.45H273.476V169.528H290.4V186.45ZM290.4 169.346H273.476V152.424H290.4V169.346ZM290.4 152.242H273.476V135.32H290.4V152.242ZM290.4 135.137H273.476V118.215H290.4V135.137ZM290.4 118.033H273.476V101.111H290.4V118.033ZM290.4 100.929H273.476V84.0065H290.4V100.929ZM307.507 443.008H290.583V426.086H307.507V443.008ZM307.507 425.904H290.583V408.982H307.507V425.904ZM307.507 408.8H290.583V391.914H307.507V408.8ZM307.507 391.695H290.583V374.773H307.507V391.695ZM307.507 374.591H290.583V357.676H307.507V374.591ZM307.507 357.487H290.583V340.564H307.507V357.487ZM307.507 340.382H290.583V323.438H307.507V340.382ZM307.507 323.278H290.583V306.356H307.507V323.278ZM307.507 306.174H290.583V289.259H307.507V306.174ZM307.507 289.077H290.583V272.154H307.507V289.077ZM307.507 271.972H290.583V255.05H307.507V271.972ZM307.507 254.868H290.583V237.946H307.507V254.868ZM307.507 237.764H290.583V220.841H307.507V237.764ZM307.507 220.659H290.583V203.737H307.507V220.659ZM307.507 203.555H290.583V186.633H307.507V203.555ZM307.507 186.45H290.583V169.528H307.507V186.45ZM307.507 169.346H290.583V152.424H307.507V169.346ZM307.507 152.242H290.583V135.32H307.507V152.242ZM307.507 135.137H290.583V118.215H307.507V135.137ZM307.507 118.033H290.583V101.111H307.507V118.033ZM307.507 100.929H290.583V84.0065H307.507V100.929ZM324.613 443.008H307.689V426.086H324.613V443.008ZM324.613 425.904H307.689V408.982H324.613V425.904ZM324.613 408.8H307.689V391.914H324.613V408.8ZM324.613 391.695H307.689V374.773H324.613V391.695ZM324.613 374.591H307.689V357.676H324.613V374.591ZM324.613 357.487H307.689V340.564H324.613V357.487ZM324.613 340.382H307.689V323.438H324.613V340.382ZM324.613 323.278H307.689V306.356H324.613V323.278ZM324.613 306.174H307.689V289.259H324.613V306.174ZM324.613 289.077H307.689V272.154H324.613V289.077ZM324.613 271.972H307.689V255.05H324.613V271.972ZM324.613 254.868H307.689V237.946H324.613V254.868ZM324.613 237.764H307.689V220.841H324.613V237.764ZM324.613 220.659H307.689V203.737H324.613V220.659ZM324.613 203.555H307.689V186.633H324.613V203.555ZM324.613 186.45H307.689V169.528H324.613V186.45ZM324.613 169.346H307.689V152.424H324.613V169.346ZM324.613 152.242H307.689V135.32H324.613V152.242ZM324.613 135.137H307.689V118.215H324.613V135.137ZM324.613 118.033H307.689V101.111H324.613V118.033ZM324.613 100.929H307.689V84.0065H324.613V100.929ZM341.719 443.008H324.795V426.086H341.719V443.008ZM341.719 425.904H324.795V408.982H341.719V425.904ZM341.719 408.8H324.795V391.914H341.719V408.8ZM341.719 391.695H324.795V374.773H341.719V391.695ZM341.719 374.591H324.795V357.676H341.719V374.591ZM341.719 357.487H324.795V340.564H341.719V357.487ZM341.719 340.382H324.795V323.438H341.719V340.382ZM341.719 323.278H324.795V306.356H341.719V323.278ZM341.719 306.174H324.795V289.259H341.719V306.174ZM341.719 289.077H324.795V272.154H341.719V289.077ZM341.719 271.972H324.795V255.05H341.719V271.972ZM341.719 254.868H324.795V237.946H341.719V254.868ZM341.719 237.764H324.795V220.841H341.719V237.764ZM341.719 220.659H324.795V203.737H341.719V220.659ZM341.719 203.555H324.795V186.633H341.719V203.555ZM341.719 186.45H324.795V169.528H341.719V186.45ZM341.719 169.346H324.795V152.424H341.719V169.346ZM341.719 152.242H324.795V135.32H341.719V152.242ZM341.719 135.137H324.795V118.215H341.719V135.137ZM341.719 118.033H324.795V101.111H341.719V118.033ZM341.719 100.929H324.795V84.0065H341.719V100.929ZM358.825 443.008H341.901V426.086H358.825V443.008ZM358.825 425.904H341.901V408.982H358.825V425.904ZM358.825 408.8H341.901V391.914H358.825V408.8ZM358.825 391.695H341.901V374.773H358.825V391.695ZM358.825 374.591H341.901V357.676H358.825V374.591ZM358.825 357.487H341.901V340.564H358.825V357.487ZM358.825 340.382H341.901V323.438H358.825V340.382ZM358.825 323.278H341.901V306.356H358.825V323.278ZM358.825 306.174H341.901V289.259H358.825V306.174ZM358.825 289.077H341.901V272.154H358.825V289.077ZM358.825 271.972H341.901V255.05H358.825V271.972ZM358.825 254.868H341.901V237.946H358.825V254.868ZM358.825 237.764H341.901V220.841H358.825V237.764ZM358.825 220.659H341.901V203.737H358.825V220.659ZM358.825 203.555H341.901V186.633H358.825V203.555ZM358.825 186.45H341.901V169.528H358.825V186.45ZM358.825 169.346H341.901V152.424H358.825V169.346ZM358.825 152.242H341.901V135.32H358.825V152.242ZM358.825 135.137H341.901V118.215H358.825V135.137ZM358.825 118.033H341.901V101.111H358.825V118.033ZM358.825 100.929H341.901V84.0065H358.825V100.929ZM375.931 443.008H359.007V426.086H375.931V443.008ZM375.931 425.904H359.007V408.982H375.931V425.904ZM375.931 408.8H359.007V391.914H375.931V408.8ZM375.931 391.695H359.007V374.773H375.931V391.695ZM375.931 374.591H359.007V357.676H375.931V374.591ZM375.931 357.487H359.007V340.564H375.931V357.487ZM375.931 340.382H359.007V323.438H375.931V340.382ZM375.931 323.278H359.007V306.356H375.931V323.278ZM375.931 306.174H359.007V289.259H375.931V306.174ZM375.931 289.077H359.007V272.154H375.931V289.077ZM375.931 271.972H359.007V255.05H375.931V271.972ZM375.931 254.868H359.007V237.946H375.931V254.868ZM375.931 237.764H359.007V220.841H375.931V237.764ZM375.931 220.659H359.007V203.737H375.931V220.659ZM375.931 203.555H359.007V186.633H375.931V203.555ZM375.931 186.45H359.007V169.528H375.931V186.45ZM375.931 169.346H359.007V152.424H375.931V169.346ZM375.931 152.242H359.007V135.32H375.931V152.242ZM375.931 135.137H359.007V118.215H375.931V135.137ZM375.931 118.033H359.007V101.111H375.931V118.033ZM375.931 100.929H359.007V84.0065H375.931V100.929ZM393.037 443.008H376.113V426.086H393.037V443.008ZM393.037 425.904H376.113V408.982H393.037V425.904ZM393.037 408.8H376.113V391.914H393.037V408.8ZM393.037 391.695H376.113V374.773H393.037V391.695ZM393.037 374.591H376.113V357.676H393.037V374.591ZM393.037 357.487H376.113V340.564H393.037V357.487ZM393.037 340.382H376.113V323.438H393.037V340.382ZM393.037 323.278H376.113V306.356H393.037V323.278ZM393.037 306.174H376.113V289.259H393.037V306.174ZM393.037 289.077H376.113V272.154H393.037V289.077ZM393.037 271.972H376.113V255.05H393.037V271.972ZM393.037 254.868H376.113V237.946H393.037V254.868ZM393.037 237.764H376.113V220.841H393.037V237.764ZM393.037 220.659H376.113V203.737H393.037V220.659ZM393.037 203.555H376.113V186.633H393.037V203.555ZM393.037 186.45H376.113V169.528H393.037V186.45ZM393.037 169.346H376.113V152.424H393.037V169.346ZM393.037 152.242H376.113V135.32H393.037V152.242ZM393.037 135.137H376.113V118.215H393.037V135.137ZM393.037 118.033H376.113V101.111H393.037V118.033ZM393.037 100.929H376.113V84.0065H393.037V100.929ZM410.121 443.008H393.219V426.086H410.121V443.008ZM410.121 425.904H393.219V408.982H410.121V425.904ZM410.121 408.8H393.219V391.914H410.121V408.8ZM410.121 391.695H393.219V374.773H410.121V391.695ZM410.121 374.591H393.219V357.676H410.121V374.591ZM410.121 357.487H393.219V340.564H410.121V357.487ZM410.121 340.382H393.219V323.438H410.121V340.382ZM410.121 323.278H393.219V306.356H410.121V323.278ZM410.121 306.174H393.219V289.259H410.121V306.174ZM410.121 289.077H393.219V272.154H410.121V289.077ZM410.121 271.972H393.219V255.05H410.121V271.972ZM410.121 254.868H393.219V237.946H410.121V254.868ZM410.121 237.764H393.219V220.841H410.121V237.764ZM410.121 220.659H393.219V203.737H410.121V220.659ZM410.121 203.555H393.219V186.633H410.121V203.555ZM410.121 186.487H393.219V169.528H410.121V186.487ZM410.121 169.383H393.219V152.424H410.121V169.383ZM410.121 152.249H393.219V135.32H410.121V152.249ZM410.121 135.145H393.219V118.215H410.121V135.145ZM410.121 118.011H393.219V101.111H410.121V118.011ZM410.121 100.907H393.219V84.0065H410.121V100.907ZM427.227 442.986H410.325V426.086H427.249L427.227 442.986ZM427.227 425.882H410.325V408.982H427.249L427.227 425.882ZM427.227 408.778H410.325V391.914H427.249L427.227 408.778ZM427.227 391.673H410.325V374.773H427.249L427.227 391.673ZM427.227 374.569H410.325V357.676H427.249L427.227 374.569ZM427.227 357.465H410.325V340.564H427.249L427.227 357.465ZM427.227 340.36H410.325V323.438H427.249L427.227 340.36ZM427.227 323.256H410.325V306.356H427.249L427.227 323.256ZM427.227 306.152H410.325V289.259H427.249L427.227 306.152ZM427.227 289.055H410.325V272.154H427.249L427.227 289.055ZM427.227 271.95H410.325V255.05H427.249L427.227 271.95ZM427.227 254.846H410.325V237.946H427.249L427.227 254.846ZM427.227 237.742H410.325V220.841H427.249L427.227 237.742ZM427.227 220.637H410.325V203.737H427.249L427.227 220.637ZM427.227 203.533H410.325V186.633H427.249L427.227 203.533ZM427.227 186.429H410.325V169.528H427.249L427.227 186.429ZM427.227 169.324H410.325V152.424H427.249L427.227 169.324ZM427.227 152.22H410.325V135.32H427.249L427.227 152.22ZM427.227 135.116H410.325V118.215H427.249L427.227 135.116ZM427.227 118.011H410.325V101.111H427.249L427.227 118.011ZM427.227 100.907H410.325V84.0065H427.249L427.227 100.907ZM444.363 443.008H427.431V426.086H444.363V443.008ZM444.363 425.904H427.431V408.982H444.363V425.904ZM444.363 408.8H427.431V391.914H444.363V408.8ZM444.363 391.695H427.431V374.773H444.363V391.695ZM444.363 374.591H427.431V357.676H444.363V374.591ZM444.363 357.487H427.431V340.564H444.363V357.487ZM444.363 340.382H427.431V323.438H444.363V340.382ZM444.363 323.278H427.431V306.356H444.363V323.278ZM444.363 306.174H427.431V289.259H444.363V306.174ZM444.363 289.077H427.431V272.154H444.363V289.077ZM444.363 271.972H427.431V255.05H444.363V271.972ZM444.363 254.868H427.431V237.946H444.363V254.868ZM444.363 237.764H427.431V220.841H444.363V237.764ZM444.363 220.659H427.431V203.737H444.363V220.659ZM444.363 203.555H427.431V186.633H444.363V203.555ZM444.363 186.487H427.431V169.528H444.363V186.487ZM444.363 169.383H427.431V152.424H444.363V169.383ZM444.363 152.249H427.431V135.32H444.363V152.249ZM444.363 135.145H427.431V118.215H444.363V135.145ZM444.363 118.011H427.431V101.111H444.363V118.011ZM444.363 100.907H427.431V84.0065H444.363V100.907ZM461.469 442.986H444.538V426.086H461.461L461.469 442.986ZM461.469 425.882H444.538V408.982H461.461L461.469 425.882ZM461.469 408.778H444.538V391.914H461.461L461.469 408.778ZM461.469 391.673H444.538V374.773H461.461L461.469 391.673ZM461.469 374.569H444.538V357.676H461.461L461.469 374.569ZM461.469 357.465H444.538V340.564H461.461L461.469 357.465ZM461.469 340.36H444.538V323.438H461.461L461.469 340.36ZM461.469 323.256H444.538V306.356H461.461L461.469 323.256ZM461.469 306.152H444.538V289.259H461.461L461.469 306.152ZM461.469 289.055H444.538V272.154H461.461L461.469 289.055ZM461.469 271.95H444.538V255.05H461.461L461.469 271.95ZM461.469 254.846H444.538V237.946H461.461L461.469 254.846ZM461.469 237.742H444.538V220.841H461.461L461.469 237.742ZM461.469 220.637H444.538V203.737H461.461L461.469 220.637ZM461.469 203.533H444.538V186.633H461.461L461.469 203.533ZM461.469 186.429H444.538V169.528H461.461L461.469 186.429ZM461.469 169.324H444.538V152.424H461.461L461.469 169.324ZM461.469 152.22H444.538V135.32H461.461L461.469 152.22ZM461.469 135.116H444.538V118.215H461.461L461.469 135.116ZM461.469 118.011H444.538V101.111H461.461L461.469 118.011ZM461.469 100.907H444.538V84.0065H461.461L461.469 100.907ZM478.604 443.008H461.644V426.086H478.604V443.008ZM478.604 425.904H461.644V408.982H478.604V425.904ZM478.604 408.8H461.644V391.914H478.604V408.8ZM478.604 391.695H461.644V374.773H478.604V391.695ZM478.604 374.591H461.644V357.676H478.604V374.591ZM478.604 357.487H461.644V340.564H478.604V357.487ZM478.604 340.382H461.644V323.438H478.604V340.382ZM478.604 323.278H461.644V306.356H478.604V323.278ZM478.604 306.174H461.644V289.259H478.604V306.174ZM478.604 289.077H461.644V272.154H478.604V289.077ZM478.604 271.972H461.644V255.05H478.604V271.972ZM478.604 254.868H461.644V237.946H478.604V254.868ZM478.604 237.764H461.644V220.841H478.604V237.764ZM478.604 220.659H461.644V203.737H478.604V220.659ZM478.604 203.555H461.644V186.633H478.604V203.555ZM478.604 186.487H461.644V169.528H478.604V186.487ZM478.604 169.383H461.644V152.424H478.604V169.383ZM478.604 152.249H461.644V135.32H478.604V152.249ZM478.604 135.145H461.644V118.215H478.604V135.145ZM478.604 118.011H461.644V101.111H478.604V118.011ZM478.604 100.907H461.644V84.0065H478.604V100.907Z" fill="url(#paint0_radial_10_2)"/>
<path d="M570.457 172.227C609.839 132.849 609.839 69.0043 570.457 29.6261C531.074 -9.75202 467.223 -9.75202 427.841 29.6261C388.459 69.0043 388.459 132.849 427.841 172.227C467.223 211.605 531.074 211.605 570.457 172.227Z" stroke="#FFFFE0" stroke-width="0.25" stroke-miterlimit="10"/>
<g opacity="0.28">
<path opacity="0.28" d="M165.824 332.785L165.656 332.952L165.481 333.127L116.247 382.357L116.079 382.524L115.904 382.699L66.6695 431.929L66.4947 432.104L66.3271 432.271L31.8672 466.728L32.3845 467.201L66.8225 432.766L66.9901 432.599L67.1649 432.424L116.4 383.231L116.574 383.063L116.742 382.889L165.977 333.659L166.152 333.484L166.319 333.316L176.264 323.373L175.783 322.863L165.824 332.785Z" fill="#FFFFE0"/>
<path opacity="0.28" d="M170.61 337.913L170.443 338.081L121.208 387.31L121.033 387.485L120.859 387.66L71.6238 436.882L71.4563 437.057L71.2814 437.232L37.1348 471.375L37.6812 471.819L71.7768 437.727L71.9517 437.552L72.1265 437.385L121.354 388.155L121.529 387.98L121.704 387.806L170.938 338.583L171.106 338.408L171.281 338.234L180.883 328.632L180.438 328.086L170.785 337.738L170.61 337.913Z" fill="#FFFFE0"/>
<path opacity="0.28" d="M190.441 357.735L190.274 357.909L141.039 407.132L140.864 407.307L140.689 407.481L91.462 456.711L91.2871 456.879L91.1122 457.053L61.7812 486.381L62.5098 486.673L91.6514 457.534L91.8262 457.359L92.0011 457.192L141.192 407.999L141.36 407.824L141.534 407.656L190.791 358.412L190.959 358.237L191.133 358.062L195.767 353.429C195.672 353.196 195.57 352.97 195.468 352.737L190.638 357.567L190.441 357.735Z" fill="#FFFFE0"/>
<path opacity="0.28" d="M180.526 347.828L180.358 347.995L131.123 397.225L130.949 397.4L130.774 397.574L81.5099 446.804L81.3423 446.972L81.1674 447.146L48.7256 479.629L49.3448 480.007L81.7066 447.642L81.8814 447.467L82.0563 447.299L131.291 398.07L131.459 397.895L131.633 397.72L180.868 348.498L181.036 348.323L181.21 348.148L189.079 340.281L188.707 339.661L180.693 347.675L180.526 347.828Z" fill="#FFFFE0"/>
<path opacity="0.28" d="M195.403 362.695L195.228 362.87L145.993 412.1L145.826 412.275L145.651 412.442L96.4161 461.672L96.2413 461.847L96.0737 462.014L68.9502 489.142L69.6787 489.39L96.5546 462.517L96.7294 462.342L96.897 462.167L146.132 412.938L146.307 412.77L146.474 412.595L195.709 363.366L195.884 363.198L196.058 363.023L198.434 360.641C198.353 360.394 198.273 360.146 198.186 359.913L195.556 362.543L195.403 362.695Z" fill="#FFFFE0"/>
<path opacity="0.28" d="M185.488 352.781L185.313 352.956L136.078 402.171L135.91 402.346L135.736 402.513L86.5009 451.743L86.326 451.918L86.1584 452.085L55.0498 483.191L55.7055 483.526L86.6538 452.581L86.8287 452.413L86.9963 452.238L136.231 403.009L136.406 402.841L136.573 402.666L185.808 353.437L185.983 353.262L186.15 353.094L192.605 346.64L192.27 345.985L185.691 352.635L185.488 352.781Z" fill="#FFFFE0"/>
<path opacity="0.28" d="M175.572 342.867L175.397 343.041L126.163 392.271L125.995 392.446L125.82 392.614L76.5857 441.843L76.4108 442.018L76.2433 442.186L42.7305 475.695L43.3133 476.103L76.7241 442.695L76.899 442.528L77.0665 442.353L126.301 393.123L126.476 392.956L126.644 392.781L175.878 343.551L176.053 343.384L176.221 343.165L185.131 334.249C184.992 334.06 184.861 333.863 184.723 333.666L175.718 342.67L175.572 342.867Z" fill="#FFFFE0"/>
<path opacity="0.28" d="M200.19 367.831L150.955 417.061L150.78 417.228L150.612 417.403L101.378 466.633L101.203 466.8L101.028 466.975L76.5928 491.415L77.3869 491.605L101.523 467.471L101.698 467.296L101.873 467.128L151.108 417.899L151.275 417.724L151.45 417.556L200.67 368.334L200.561 367.875C200.561 367.773 200.51 367.671 200.481 367.569L200.364 367.685L200.19 367.831Z" fill="#FFFFE0"/>
<path opacity="0.28" d="M170.611 437.057L170.443 437.232L121.209 486.462L121.034 486.629L120.859 486.804L113.807 493.863L114.929 493.732L121.354 487.299L121.529 487.124L121.704 486.957L170.939 437.727L171.106 437.552L171.281 437.385L202.79 405.872C202.841 405.5 202.878 405.143 202.922 404.75L170.786 436.882L170.611 437.057Z" fill="#FFFFE0"/>
<path opacity="0.28" d="M160.695 427.143L160.528 427.318L111.293 476.547L111.118 476.715L110.943 476.89L93.5967 494.234L94.5219 494.3L111.439 477.385L111.613 477.21L111.788 477.043L161.023 427.813L161.191 427.638L161.365 427.471L203.366 385.467L203.3 384.549L160.87 426.975L160.695 427.143Z" fill="#FFFFE0"/>
<path opacity="0.28" d="M165.657 432.104L165.482 432.271L116.247 481.501L116.08 481.676L115.905 481.843L103.199 494.548H104.205L116.4 482.36L116.575 482.185L116.743 482.011L165.977 432.766L166.152 432.599L166.32 432.424L203.599 395.156C203.599 394.821 203.599 394.486 203.599 394.151L165.81 431.929L165.657 432.104Z" fill="#FFFFE0"/>
<path opacity="0.28" d="M155.741 422.189L155.566 422.357L106.331 471.586L106.157 471.761L105.989 471.929L84.7812 493.134L85.6336 493.28L106.484 472.431L106.659 472.257L106.827 472.082L156.062 422.852L156.236 422.684L156.404 422.51L202.346 376.616C202.295 376.332 202.251 376.048 202.2 375.764L155.909 422.051L155.741 422.189Z" fill="#FFFFE0"/>
<path opacity="0.28" d="M180.526 446.972L180.359 447.146L140.573 486.928L142.293 486.199L180.854 447.642L181.022 447.467L181.197 447.299L195.265 433.233C195.505 432.665 195.753 432.089 195.993 431.514L180.694 446.811L180.526 446.972Z" fill="#FFFFE0"/>
<path opacity="0.28" d="M175.572 442.018L175.397 442.186L126.163 491.415L125.995 491.59L125.886 491.699L126.061 491.656L126.337 491.59L127.197 491.379L175.893 442.681L176.068 442.513L176.242 442.339L200.444 418.139C200.554 417.702 200.656 417.265 200.765 416.828L175.74 441.843L175.572 442.018Z" fill="#FFFFE0"/>
<path opacity="0.28" d="M52.1211 318.58L52.2959 318.405L76.5709 294.125L75.2231 294.489L51.7933 317.909L51.6257 318.084L51.4508 318.252L3.55665 366.17C3.4328 366.622 3.30895 367.066 3.19238 367.525L51.9681 318.754L52.1211 318.58Z" fill="#FFFFE0"/>
<path opacity="0.28" d="M25.8135 325.056L34.1042 316.766C31.1827 319.367 28.4145 322.134 25.8135 325.056Z" fill="#FFFFE0"/>
<path opacity="0.28" d="M47.1597 313.619L47.3345 313.451L61.5192 299.268C60.929 299.523 60.3316 299.778 59.7488 300.048L46.8391 312.956L46.6642 313.123L46.4967 313.298L9.09346 350.698C8.8239 351.288 8.56891 351.878 8.30664 352.468L46.9921 313.794L47.1597 313.619Z" fill="#FFFFE0"/>
<path opacity="0.28" d="M170.443 467.966L177 461.41C178.836 459.394 180.592 457.306 182.267 455.145L164.148 473.262C166.324 471.577 168.423 469.811 170.443 467.966Z" fill="#FFFFE0"/>
<path opacity="0.28" d="M22.3753 387.98L22.5429 387.806L71.7776 338.583L71.9524 338.408L72.1273 338.234L118.091 292.275L117.238 292.129L71.6246 337.738L71.457 337.913L71.3113 338.066L22.0475 387.31L21.8799 387.485L21.705 387.66L1.1748 408.181C1.21852 408.472 1.26951 408.749 1.31322 409.04L22.2005 388.155L22.3753 387.98Z" fill="#FFFFE0"/>
<path opacity="0.28" d="M12.4594 378.066L12.627 377.891L61.8398 328.669L62.0147 328.494L62.1895 328.319L99.5126 291H98.4853L61.6868 327.795L61.5192 327.97L61.3444 328.137L12.1315 377.403L11.964 377.578L11.7891 377.753L0.0742188 389.459C0.0742188 389.794 0.0742188 390.137 0.0742188 390.479L12.3137 378.241L12.4594 378.066Z" fill="#FFFFE0"/>
<path opacity="0.28" d="M17.3982 383.027L17.5731 382.852L66.8078 333.622L66.9754 333.448L67.1502 333.28L109.194 291.24L108.262 291.182L66.6548 332.785L66.4799 332.952L66.3124 333.127L17.0923 382.357L16.9174 382.524L16.7498 382.699L0.226562 399.257C0.226562 399.57 0.226564 399.884 0.284847 400.19L17.2452 383.231L17.3982 383.027Z" fill="#FFFFE0"/>
<path opacity="0.28" d="M7.49832 373.112L7.67317 372.938L56.9079 323.708L57.0754 323.533L57.2503 323.366L88.7961 291.794L87.6377 291.954L56.7403 322.87L56.5655 323.038L56.3979 323.213L7.19962 372.442L7.02477 372.61L6.84992 372.785L1.0216 378.612C0.963319 378.991 0.90504 379.377 0.861328 379.763L7.35261 373.273L7.49832 373.112Z" fill="#FFFFE0"/>
<path opacity="0.28" d="M62.0371 427.667L62.2119 427.5L111.439 378.27L111.614 378.095L111.789 377.92L161.024 328.698L161.191 328.523L161.366 328.348L171.311 318.398L170.793 317.924L160.871 327.846L160.696 328.021L160.528 328.188L111.294 377.403L111.119 377.578L110.944 377.753L61.7093 426.982L61.5417 427.15L61.3668 427.325L26.9434 461.738L27.4242 462.247L61.8404 427.813L62.0371 427.667Z" fill="#FFFFE0"/>
<path opacity="0.28" d="M52.1206 417.724L52.2954 417.556L101.523 368.327L101.698 368.152L101.873 367.977L151.107 318.755L151.275 318.58L151.45 318.398L160.374 309.481L159.784 309.073L150.954 317.902L150.779 318.077L150.612 318.245L101.377 367.474L101.202 367.649L101.027 367.824L51.7928 417.054L51.6252 417.221L51.4504 417.396L18.127 450.723L18.5277 451.313L51.9458 417.899L52.1206 417.724Z" fill="#FFFFE0"/>
<path opacity="0.28" d="M42.2059 407.809L42.3734 407.642L91.6081 358.412L91.783 358.237L91.9578 358.062L141.193 308.833L141.36 308.665L141.535 308.49L148.004 302.022L147.341 301.694L141.04 307.995L140.865 308.17L140.69 308.337L91.4624 357.567L91.2876 357.742L91.1127 357.917L41.878 407.139L41.7104 407.314L41.5356 407.489L10.7402 438.281L11.0681 438.944L42.031 407.984L42.2059 407.809Z" fill="#FFFFE0"/>
<path opacity="0.28" d="M32.2905 397.895L32.458 397.72L81.6927 348.498L81.8676 348.323L82.0424 348.148L131.277 298.918L131.445 298.751L131.62 298.576L134.024 296.172L133.295 295.932L131.146 298.081L130.971 298.256L130.796 298.423L81.5106 347.653L81.343 347.828L81.1682 347.995L31.9699 397.225L31.8024 397.4L31.6275 397.574L4.97754 424.214C5.06496 424.469 5.13782 424.717 5.22525 424.943L32.1229 398.048L32.2905 397.895Z" fill="#FFFFE0"/>
<path opacity="0.28" d="M57.0752 422.685L57.25 422.51L106.485 373.28L106.66 373.113L106.827 372.938L156.062 323.708L156.237 323.533L156.404 323.366L166.021 313.757L165.467 313.313L155.916 322.87L155.749 323.038L155.574 323.213L106.339 372.442L106.164 372.61L105.997 372.785L56.7401 422.014L56.5652 422.189L56.3976 422.357L22.3457 456.405L22.7901 456.952L56.893 422.852L57.0752 422.685Z" fill="#FFFFE0"/>
<path opacity="0.28" d="M47.1594 412.77L47.3342 412.595L96.5689 363.366L96.7438 363.198L96.9114 363.023L146.146 313.794L146.321 313.619L146.488 313.451L154.364 305.569L153.745 305.198L145.986 312.956L145.818 313.123L145.622 313.298L96.3868 362.528L96.212 362.695L96.0444 362.87L46.8097 412.1L46.6349 412.275L46.4673 412.442L14.2148 444.691C14.3387 444.903 14.4553 445.107 14.5864 445.318L46.9627 412.938L47.1594 412.77Z" fill="#FFFFE0"/>
<path opacity="0.28" d="M37.2446 402.856L37.4194 402.681L86.6541 353.451L86.829 353.276L86.9965 353.109L136.231 303.879L136.406 303.704L136.574 303.537L141.229 298.882L140.5 298.591L136.056 303.042L135.889 303.209L135.714 303.384L86.5011 352.635L86.3263 352.803L86.1587 352.978L36.924 402.171L36.7492 402.346L36.5816 402.513L7.63672 431.47C7.73143 431.703 7.82614 431.936 7.92814 432.198L37.0697 403.06L37.2446 402.856Z" fill="#FFFFE0"/>
<path opacity="0.28" d="M27.3289 392.941L27.5038 392.767L76.7385 343.537L76.9133 343.369L77.0809 343.194L126.316 293.965H126.272L125.543 293.783L76.5928 342.728L76.4179 342.896L76.2503 343.071L27.0156 392.3L26.8408 392.475L26.6732 392.643L2.82812 416.478C2.88641 416.748 2.95198 417.01 3.01755 417.279L27.1905 393.109L27.3289 392.941Z" fill="#FFFFE0"/>
</g>
<defs>
<radialGradient id="paint0_radial_10_2" cx="0" cy="0" r="1" gradientUnits="userSpaceOnUse" gradientTransform="translate(299.048 263.507) scale(179.702 179.683)">
<stop stop-color="#FFFFE0"/>
<stop offset="1" stop-color="#FFFFE0" stop-opacity="0"/>
</radialGradient>
</defs>
</svg>
