<svg width="647" height="494" viewBox="0 0 647 494" fill="none" xmlns="http://www.w3.org/2000/svg">
<path opacity="0.28" d="M618.092 344.2L617.961 344.331L617.83 344.455L581.002 381.352L580.871 381.483L580.74 381.607L543.905 418.438L543.781 418.569L543.65 418.7L517.874 444.437L518.26 444.794L544.021 419.035L544.152 418.904L544.276 418.773L581.111 381.942L581.242 381.818L581.374 381.687L618.201 344.856L618.332 344.732L618.464 344.601L625.902 337.163L625.545 336.777L618.092 344.2Z" fill="#FFFFE0"/>
<path opacity="0.28" d="M621.67 348.068L621.538 348.192L584.711 384.994L584.58 385.125L584.448 385.256L547.613 422.146L547.49 422.277L547.358 422.408L521.809 447.955L522.224 448.283L547.723 422.787L547.854 422.656L547.978 422.525L584.813 385.701L584.944 385.57L585.075 385.439L621.91 348.571L622.041 348.447L622.172 348.316L629.356 341.133C629.239 340.995 629.137 340.857 629.02 340.725L621.801 347.944L621.67 348.068Z" fill="#FFFFE0"/>
<path opacity="0.28" d="M636.51 362.9L636.379 363.031L599.522 399.862L599.391 399.986L599.267 400.117L562.432 436.948L562.301 437.079L562.177 437.203L540.233 459.145L540.751 459.37L562.549 437.575L562.672 437.451L562.804 437.32L599.638 400.489L599.762 400.358L599.894 400.234L636.728 363.402L636.86 363.271L636.983 363.148L640.451 359.68L640.233 359.156L636.59 362.798L636.51 362.9Z" fill="#FFFFE0"/>
<path opacity="0.28" d="M629.086 355.484L628.962 355.615L592.127 392.439L591.996 392.57L591.872 392.701L555.037 429.533L554.906 429.656L554.775 429.787L530.471 454.089L530.937 454.373L555.146 430.159L555.278 430.028L555.409 429.904L592.236 393.073L592.36 392.942L592.491 392.811L629.326 355.987L629.45 355.856L629.581 355.724L635.468 349.838L635.191 349.38L629.21 355.353L629.086 355.484Z" fill="#FFFFE0"/>
<path opacity="0.28" d="M640.218 366.608L640.086 366.739L603.251 403.57L603.128 403.701L602.996 403.825L566.161 440.656L566.03 440.787L565.906 440.911L545.609 461.206L546.17 461.388L566.278 441.283L566.402 441.159L566.533 441.028L603.368 404.196L603.499 404.065L603.623 403.942L640.458 367.11L640.589 366.979L640.713 366.855L642.498 365.071C642.432 364.889 642.374 364.699 642.308 364.517L640.341 366.484L640.218 366.608Z" fill="#FFFFE0"/>
<path opacity="0.28" d="M632.801 359.192L632.67 359.323L595.835 396.154L595.704 396.278L595.58 396.409L558.723 433.24L558.592 433.364L558.468 433.495L535.191 456.762L535.68 457.017L558.833 433.867L558.964 433.736L559.095 433.612L595.93 396.781L596.054 396.65L596.185 396.526L633.034 359.695L633.158 359.563L633.289 359.432L638.119 354.61L637.864 354.122L632.918 359.061L632.801 359.192Z" fill="#FFFFE0"/>
<path opacity="0.28" d="M625.378 351.776L625.254 351.907L588.419 388.731L588.288 388.862L588.157 388.993L551.329 425.825L551.198 425.948L551.067 426.08L526.013 451.139L526.443 451.445L551.439 426.451L551.57 426.32L551.701 426.196L588.529 389.365L588.66 389.234L588.791 389.103L625.626 352.279L625.75 352.148L625.881 352.017L632.547 345.351L632.241 344.914L625.509 351.645L625.378 351.776Z" fill="#FFFFE0"/>
<path opacity="0.28" d="M643.795 370.425L606.96 407.256L606.837 407.387L606.705 407.511L569.87 444.364L569.747 444.495L569.615 444.626L551.329 462.94L551.927 463.086L569.987 445.027L570.118 444.903L570.242 444.772L607.077 407.941L607.208 407.817L607.332 407.686L644.16 370.862C644.16 370.745 644.109 370.636 644.079 370.52C644.05 370.403 644.079 370.367 644.021 370.294L643.934 370.374L643.795 370.425Z" fill="#FFFFE0"/>
<path opacity="0.28" d="M621.67 422.241L621.538 422.372L584.711 459.203L584.58 459.327L584.448 459.458L579.174 464.739L580.012 464.637L584.82 459.829L584.951 459.698L585.082 459.567L621.91 422.743L622.041 422.612L622.172 422.481L645.748 398.908C645.748 398.631 645.813 398.347 645.842 398.07L621.801 422.109L621.67 422.241Z" fill="#FFFFE0"/>
<path opacity="0.28" d="M614.253 414.861L614.122 414.992L577.287 451.816L577.163 451.947L577.032 452.078L564.057 465.052L564.749 465.103L577.403 452.45L577.535 452.319L577.658 452.188L614.493 415.357L614.624 415.233L614.756 415.102L646.148 383.646C646.148 383.413 646.148 383.188 646.097 382.954L614.384 414.694L614.253 414.861Z" fill="#FFFFE0"/>
<path opacity="0.28" d="M617.962 418.504L617.831 418.635L581.003 455.459L580.872 455.59L580.741 455.721L571.27 465.191H571.998L581.119 456.07L581.251 455.939L581.382 455.808L618.209 418.984L618.341 418.853L618.472 418.722L646.36 390.836C646.36 390.589 646.36 390.341 646.36 390.108L618.093 418.372L617.962 418.504Z" fill="#FFFFE0"/>
<path opacity="0.28" d="M610.545 411.117L610.45 411.219L573.615 448.05L573.491 448.181L573.294 448.371L557.427 464.229L558.068 464.339L573.666 448.742L573.797 448.611L573.921 448.48L610.756 411.649L610.887 411.525L611.011 411.394L645.42 376.981L645.311 376.34L610.668 410.986L610.545 411.117Z" fill="#FFFFE0"/>
<path opacity="0.28" d="M629.085 429.656L628.961 429.787L599.193 459.545C599.63 459.37 600.053 459.188 600.483 459.006L629.333 430.159L629.457 430.028L629.588 429.904L640.108 419.378C640.298 418.955 640.48 418.525 640.655 418.096L629.216 429.532L629.085 429.656Z" fill="#FFFFE0"/>
<path opacity="0.28" d="M625.377 425.948L625.253 426.08L588.418 462.94L588.287 463.064L588.207 463.151H588.338L588.542 463.1L589.191 462.947L625.618 426.524L625.741 426.393L625.873 426.269L643.962 408.086C644.05 407.759 644.122 407.431 644.203 407.103L625.486 425.825L625.377 425.948Z" fill="#FFFFE0"/>
<path opacity="0.28" d="M533.021 333.601L533.152 333.477L551.314 315.309L550.302 315.579L532.78 333.106L532.649 333.229L532.525 333.361L496.674 369.208C496.579 369.543 496.492 369.879 496.404 370.221L532.897 333.732L533.021 333.601Z" fill="#FFFFE0"/>
<path opacity="0.28" d="M513.343 338.445L519.543 332.246C517.359 334.192 515.289 336.262 513.343 338.445Z" fill="#FFFFE0"/>
<path opacity="0.28" d="M529.313 329.893L529.444 329.762L540.058 319.156L538.725 319.738L529.072 329.398L528.941 329.522L528.854 329.631L500.87 357.611C500.666 358.048 500.477 358.493 500.28 358.937L529.225 330.002L529.313 329.893Z" fill="#FFFFE0"/>
<path opacity="0.28" d="M621.545 445.362L626.47 440.438C627.847 438.93 629.159 437.363 630.412 435.754L616.854 449.303C618.464 448.057 620.037 446.739 621.545 445.362Z" fill="#FFFFE0"/>
<path opacity="0.28" d="M510.771 385.526L510.895 385.395L547.73 348.571L547.861 348.447L547.985 348.316L582.38 313.925L581.739 313.823L547.614 347.944L547.49 348.076L547.359 348.199L510.524 384.994L510.4 385.125L510.269 385.256L494.911 400.612C494.911 400.824 494.977 401.035 495.013 401.246L510.64 385.657L510.771 385.526Z" fill="#FFFFE0"/>
<path opacity="0.28" d="M503.355 378.11L503.486 377.979L540.321 341.148L540.452 341.017L540.576 340.893L568.501 312.971H567.772L540.197 340.558L540.073 340.689L539.942 340.813L503.107 377.644L502.976 377.775L502.852 377.899L494.109 386.641C494.109 386.895 494.109 387.15 494.109 387.405L503.267 378.249L503.355 378.11Z" fill="#FFFFE0"/>
<path opacity="0.28" d="M507.063 381.818L507.187 381.687L544.021 344.856L544.153 344.732L544.276 344.601L575.735 313.153L575.006 313.102L543.905 344.2L543.781 344.331L543.65 344.455L506.815 381.352L506.691 381.483L506.56 381.607L494.175 393.991L494.219 394.719L506.91 382.029L507.063 381.818Z" fill="#FFFFE0"/>
<path opacity="0.28" d="M499.639 374.402L499.77 374.271L536.605 337.44L536.729 337.309L536.86 337.185L560.479 313.561L559.62 313.685L536.489 336.814L536.357 336.937L536.234 337.068L499.399 373.9L499.267 374.031L499.144 374.155L494.772 378.525C494.729 378.817 494.685 379.101 494.648 379.392L499.508 374.533L499.639 374.402Z" fill="#FFFFE0"/>
<path opacity="0.28" d="M540.444 415.196L540.568 415.065L577.403 378.234L577.534 378.11L577.658 377.979L614.493 341.148L614.624 341.017L614.755 340.893L622.193 333.455L621.807 333.098L614.384 340.558L614.252 340.689L614.121 340.813L577.286 377.644L577.162 377.775L577.031 377.899L540.196 414.73L540.073 414.861L539.941 414.992L514.188 440.736L514.544 441.122L540.313 415.357L540.444 415.196Z" fill="#FFFFE0"/>
<path opacity="0.28" d="M533.02 407.781L533.151 407.649L569.986 370.818L570.117 370.687L570.241 370.563L607.076 333.732L607.207 333.601L607.331 333.477L614.012 326.797L613.567 326.498L606.959 333.106L606.836 333.229L606.704 333.361L569.869 370.192L569.746 370.316L569.651 370.425L532.816 407.256L532.685 407.387L532.561 407.511L507.623 432.446L507.929 432.883L532.932 407.883L533.02 407.781Z" fill="#FFFFE0"/>
<path opacity="0.28" d="M525.604 400.358L525.735 400.234L562.57 363.402L562.694 363.271L562.825 363.148L599.66 326.316L599.783 326.185L599.915 326.054L604.752 321.217L604.257 320.969L599.521 325.683L599.39 325.814L599.266 325.945L562.453 362.776L562.322 362.9L562.198 363.031L525.363 399.862L525.232 399.986L525.101 400.117L502.064 423.158L502.312 423.654L525.472 400.489L525.604 400.358Z" fill="#FFFFE0"/>
<path opacity="0.28" d="M518.188 392.942L518.319 392.811L555.147 355.987L555.278 355.856L555.409 355.724L592.237 318.893L592.36 318.769L592.492 318.638L594.291 316.839L593.73 316.657L592.12 318.267L591.989 318.398L591.865 318.522L555.03 355.353L554.899 355.484L554.768 355.615L517.926 392.439L517.794 392.57L517.663 392.701L497.73 412.632C497.789 412.822 497.847 413.011 497.913 413.193L518.035 393.073L518.188 392.942Z" fill="#FFFFE0"/>
<path opacity="0.28" d="M536.729 411.488L536.86 411.357L573.695 374.526L573.826 374.402L573.95 374.271L610.785 337.44L610.916 337.309L611.04 337.185L618.23 329.995L617.815 329.667L610.668 336.814L610.544 336.937L610.413 337.069L573.578 373.9L573.454 374.031L573.323 374.155L536.488 410.986L536.357 411.117L536.233 411.241L510.734 436.737L511.07 437.145L536.568 411.649L536.729 411.488Z" fill="#FFFFE0"/>
<path opacity="0.28" d="M529.312 404.065L529.443 403.942L566.278 367.11L566.402 366.979L566.533 366.855L603.368 330.024L603.499 329.893L603.623 329.762L609.524 323.869L609.058 323.592L603.23 329.42L603.106 329.543L602.975 329.675L566.14 366.506L566.009 366.63L565.885 366.761L529.072 403.57L528.941 403.701L528.817 403.825L504.688 427.974L504.964 428.44L529.188 404.218L529.312 404.065Z" fill="#FFFFE0"/>
<path opacity="0.28" d="M521.895 396.65L522.026 396.526L558.854 359.695L558.985 359.563L559.116 359.432L595.951 322.608L596.075 322.477L596.206 322.346L599.688 318.864L599.164 318.653L595.835 321.975L595.703 322.106L595.58 322.237L558.723 359.061L558.592 359.192L558.468 359.323L521.633 396.154L521.502 396.278L521.37 396.409L499.711 418.059L499.929 418.584L521.735 396.781L521.895 396.65Z" fill="#FFFFE0"/>
<path opacity="0.28" d="M514.479 389.234L514.603 389.103L551.438 352.279L551.569 352.148L551.7 352.017L588.528 315.185L587.96 315.047L551.343 351.66L551.212 351.791L551.081 351.922L514.246 388.746L514.122 388.877L513.991 389.008L496.12 406.848C496.171 407.045 496.222 407.242 496.266 407.438L514.348 389.365L514.479 389.234Z" fill="#FFFFE0"/>
<path opacity="0.28" d="M211.858 46.5667L211.683 46.7415L211.508 46.9164L161.436 96.9837L161.261 97.1586L161.086 97.3334L111.014 147.401L110.839 147.583L110.664 147.758L75.6211 182.797L76.1456 183.278L111.167 148.26L111.341 148.086L111.516 147.911L161.589 97.8433L161.764 97.6685L161.938 97.4937L212.018 47.4263L212.193 47.2442L212.368 47.0694L222.473 36.9656L221.992 36.4411L211.858 46.5667Z" fill="#FFFFE0"/>
<path opacity="0.28" d="M216.725 51.7825L216.55 51.9574L166.478 102.025L166.303 102.2L166.128 102.374L116.056 152.434L115.881 152.609L115.706 152.784L80.9766 187.51L81.5302 187.962L116.209 153.287L116.384 153.112L116.558 152.937L166.631 102.899L166.806 102.724L166.981 102.549L217.075 52.4673L217.25 52.2925L217.425 52.1103L227.187 42.3489C227.034 42.1668 226.888 41.9774 226.735 41.788L216.9 51.6077L216.725 51.7825Z" fill="#FFFFE0"/>
<path opacity="0.28" d="M236.898 71.9537L236.723 72.1285L186.651 122.196L186.476 122.371L186.301 122.546L136.206 172.613L136.032 172.788L135.849 172.963L106.045 202.793L106.773 203.092L136.403 173.465L136.578 173.29L136.753 173.116L186.825 123.048L187 122.873L187.175 122.699L237.248 72.6312L237.422 72.4563L237.597 72.2815L242.311 67.5683C242.209 67.3352 242.114 67.0948 242.012 66.8399L237.095 71.757L236.898 71.9537Z" fill="#FFFFE0"/>
<path opacity="0.28" d="M226.815 61.8718L226.64 62.0466L176.56 112.114L176.385 112.289L176.211 112.464L126.138 162.531L125.963 162.706L125.788 162.881L92.749 195.917L93.3756 196.295L126.291 163.361L126.473 163.187L126.648 163.012L176.72 112.944L176.895 112.77L177.07 112.595L227.143 62.5274L227.318 62.3525L227.492 62.1777L235.506 54.1646L235.12 53.5381L226.99 61.6896L226.815 61.8718Z" fill="#FFFFE0"/>
<path opacity="0.28" d="M241.939 76.9947L241.764 77.1695L191.692 127.237L191.517 127.412L191.342 127.587L141.306 177.654L141.131 177.829L140.956 178.004L113.33 205.612L114.059 205.86L141.393 178.535L141.568 178.361L141.743 178.178L191.816 128.111L191.99 127.936L192.165 127.761L242.238 77.694L242.413 77.5192L242.588 77.3443L245.014 74.9258C244.926 74.6709 244.846 74.4159 244.759 74.1974L242.085 76.8708L241.939 76.9947Z" fill="#FFFFE0"/>
<path opacity="0.28" d="M231.857 66.9127L231.682 67.0876L181.61 117.155L181.435 117.33L181.26 117.505L131.18 167.572L131.005 167.747L130.83 167.922L99.1973 199.552L99.8602 199.901L131.34 168.461L131.515 168.286L131.69 168.111L181.763 118.044L181.937 117.869L182.112 117.694L232.185 67.6266L232.36 67.4518L232.535 67.277L239.091 60.7208L238.749 60.0579L232.025 66.7816L231.857 66.9127Z" fill="#FFFFE0"/>
<path opacity="0.28" d="M221.774 56.8235L221.599 56.9983L171.519 107.073L171.344 107.248L171.169 107.423L121.097 157.49L120.922 157.665L120.747 157.84L86.666 191.903L87.2561 192.318L121.235 158.342L121.41 158.167L121.592 157.993L171.665 107.925L171.84 107.75L172.014 107.576L222.102 57.5083L222.276 57.3334L222.451 57.1586L231.514 48.0892L231.099 47.4991L221.949 56.6487L221.774 56.8235Z" fill="#FFFFE0"/>
<path opacity="0.28" d="M246.806 82.2105L196.733 132.278L196.558 132.453L196.383 132.628L146.311 182.695L146.136 182.87L145.961 183.045L121.104 207.9L121.912 208.096L146.464 183.554L146.639 183.38L146.814 183.205L196.886 133.137L197.061 132.955L197.236 132.78L247.301 82.7277L247.192 82.2688C247.192 82.1595 247.141 82.0575 247.112 81.9555L246.995 82.0721L246.806 82.2105Z" fill="#FFFFE0"/>
<path opacity="0.28" d="M216.724 152.624L216.549 152.799L166.477 202.866L166.302 203.041L166.127 203.216L158.951 210.391L160.095 210.26L166.652 203.704L166.827 203.529L167.002 203.354L217.074 153.301L217.249 153.126L217.424 152.952L249.479 120.899L249.611 119.756L216.899 152.434L216.724 152.624Z" fill="#FFFFE0"/>
<path opacity="0.28" d="M206.642 142.535L206.467 142.709L156.395 192.784L156.22 192.959L156.045 193.134L138.393 210.77L139.332 210.843L156.54 193.636L156.715 193.462L156.89 193.287L206.963 143.219L207.138 143.045L207.312 142.87L250.034 100.153C250.034 99.8393 249.99 99.5261 249.961 99.2128L206.81 142.36L206.642 142.535Z" fill="#FFFFE0"/>
<path opacity="0.28" d="M211.684 147.583L211.509 147.758L161.437 197.825L161.262 198L161.087 198.175L148.17 211.09H149.19L161.575 198.707L161.75 198.532L161.925 198.357L212.005 148.29L212.179 148.115L212.354 147.94L250.238 110.06C250.238 109.717 250.238 109.375 250.238 109.04L211.808 147.459L211.684 147.583Z" fill="#FFFFE0"/>
<path opacity="0.28" d="M201.601 137.494L201.426 137.668L151.353 187.736L151.179 187.911L151.004 188.086L129.432 209.655L130.299 209.801L151.506 188.595L151.681 188.421L151.856 188.246L201.929 138.178L202.103 138.004L202.278 137.821L248.999 91.1123C248.956 90.8209 248.905 90.5368 248.854 90.2454L201.776 137.319L201.601 137.494Z" fill="#FFFFE0"/>
<path opacity="0.28" d="M226.816 162.706L226.641 162.881L186.178 203.34L187.926 202.611L227.144 163.361L227.318 163.187L227.493 163.012L241.794 148.712C242.047 148.129 242.29 147.546 242.523 146.964L226.976 162.509L226.816 162.706Z" fill="#FFFFE0"/>
<path opacity="0.28" d="M221.773 157.665L221.598 157.84L171.519 207.907L171.344 208.082L171.234 208.191L171.417 208.147L171.693 208.082C171.985 208.009 172.283 207.943 172.575 207.863L222.116 158.328L222.29 158.153L222.465 157.978L247.075 133.363C247.192 132.926 247.294 132.475 247.403 132.03L221.963 157.475L221.773 157.665Z" fill="#FFFFE0"/>
<path opacity="0.28" d="M96.2167 32.1213L96.3915 31.9464L121.089 7.25876L119.712 7.62299L95.8888 31.4438L95.714 31.6186L95.5391 31.7934L46.7998 80.5204C46.676 80.9794 46.5521 81.4383 46.4355 81.8972L96.0418 32.2961L96.2167 32.1213Z" fill="#FFFFE0"/>
<path opacity="0.28" d="M69.457 38.7066L77.9226 30.2783C74.9426 32.9242 72.1161 35.7383 69.457 38.7066Z" fill="#FFFFE0"/>
<path opacity="0.28" d="M91.176 27.0803L91.3508 26.9055L105.776 12.4819L103.969 13.2978L90.8554 26.4101L90.6733 26.5849L90.4984 26.7598L52.425 64.7856C52.1554 65.383 51.8931 65.9876 51.6309 66.5922L90.972 27.2551L91.176 27.0803Z" fill="#FFFFE0"/>
<path opacity="0.28" d="M216.549 184.057L223.252 177.355C225.126 175.306 226.914 173.184 228.614 170.988L210.182 189.419C212.377 187.714 214.499 185.927 216.549 184.057Z" fill="#FFFFE0"/>
<path opacity="0.28" d="M65.9613 102.709L66.1362 102.535L116.209 52.4673L116.384 52.2924L116.558 52.1103L163.316 5.36475L162.435 5.22634L116.056 51.6077L115.881 51.7825L115.706 51.9573L65.6335 102.025L65.4586 102.2L65.2838 102.374L44.4111 123.252C44.4548 123.544 44.5058 123.835 44.5496 124.119L65.7865 102.899L65.9613 102.709Z" fill="#FFFFE0"/>
<path opacity="0.28" d="M55.8777 92.6202L56.0526 92.4454L106.125 42.378L106.3 42.2032L106.475 42.0284L144.439 4.07538H143.397L105.972 41.5257L105.797 41.7006L105.622 41.8754L55.5499 91.9719L55.375 92.1468L55.2002 92.3216L43.2812 104.21C43.2812 104.552 43.2812 104.902 43.2812 105.252L55.732 92.8024L55.8777 92.6202Z" fill="#FFFFE0"/>
<path opacity="0.28" d="M60.9185 97.6685L61.0934 97.4937L111.166 47.4263L111.341 47.2442L111.516 47.0694L154.274 4.31578L153.326 4.25751L111.013 46.5667L110.838 46.7416L110.663 46.9164L60.5907 96.9838L60.4158 97.1586L60.241 97.3334L43.4336 114.139C43.4336 114.452 43.4336 114.773 43.4919 115.086L60.7437 97.8434L60.9185 97.6685Z" fill="#FFFFE0"/>
<path opacity="0.28" d="M50.836 87.6011L51.0108 87.4263L101.083 37.3371L101.258 37.1622L101.433 36.9874L133.547 4.88397C133.154 4.92768 132.76 4.99324 132.374 5.04423L100.93 36.4848L100.755 36.6596L100.581 36.8344L50.5081 86.8727L50.3333 87.0475L50.1511 87.2223L44.2208 93.152C44.1698 93.5454 44.1115 93.9388 44.0605 94.3248L50.6611 87.725L50.836 87.6011Z" fill="#FFFFE0"/>
<path opacity="0.28" d="M106.336 143.045L106.511 142.87L156.583 92.8024L156.758 92.6202L156.933 92.4454L207.006 42.378L207.181 42.2032L207.355 42.0284L217.438 31.9173L216.914 31.4292L206.816 41.5257L206.641 41.7006L206.467 41.8754L156.394 91.9719L156.219 92.1467L156.044 92.3216L105.972 142.36L105.797 142.535L105.622 142.709L70.6377 177.719L71.1258 178.237L106.154 143.219L106.336 143.045Z" fill="#FFFFE0"/>
<path opacity="0.28" d="M96.2171 132.955L96.392 132.78L146.464 82.7131L146.639 82.5383L146.814 82.3635L196.887 32.2961L197.062 32.1213L197.236 31.9464L206.314 22.8771C206.117 22.7314 205.913 22.6002 205.717 22.4618L196.734 31.4438L196.559 31.6186L196.384 31.7935L146.311 81.8608L146.137 82.0357L145.962 82.2105L95.8893 132.278L95.7144 132.453L95.5396 132.628L61.6406 166.523L62.0559 167.12L96.0423 133.137L96.2171 132.955Z" fill="#FFFFE0"/>
<path opacity="0.28" d="M86.1335 122.873L86.3083 122.699L136.381 72.6312L136.556 72.4563L136.731 72.2815L186.803 22.2141L186.978 22.0393L187.153 21.8645L193.71 15.3083L193.032 14.9732L186.628 21.3837L186.453 21.5585L186.279 21.7334L136.206 71.7789L136.031 71.9537L135.849 72.1285L85.7765 122.196L85.6016 122.371L85.4268 122.546L54.0996 153.87C54.2089 154.095 54.3182 154.321 54.4347 154.547L85.9368 123.048L86.1335 122.873Z" fill="#FFFFE0"/>
<path opacity="0.28" d="M76.0445 112.791L76.2193 112.617L126.292 62.5492L126.474 62.3744L126.649 62.1996L176.721 12.1322L176.896 11.9574L177.071 11.7825L179.512 9.3349L178.783 9.08722L176.597 11.2726L176.423 11.4474L176.248 11.6223L126.139 61.6896L125.964 61.8718L125.789 62.0466L75.7385 112.114L75.5636 112.289L75.3888 112.464L48.2871 139.562C48.3672 139.81 48.4547 140.065 48.5348 140.291L75.8915 112.937L76.0445 112.791Z" fill="#FFFFE0"/>
<path opacity="0.28" d="M101.236 138.004L101.411 137.821L151.506 87.7541L151.68 87.5793L151.855 87.4044L201.928 37.3371L202.103 37.1622L202.277 36.9874L212.047 27.2187L211.493 26.767L201.775 36.4848L201.6 36.6596L201.425 36.8344L151.353 86.8726L151.178 87.0475L151.003 87.2223L100.93 137.29L100.755 137.464L100.581 137.639L65.9531 172.263L66.3975 172.824L101.083 138.149L101.236 138.004Z" fill="#FFFFE0"/>
<path opacity="0.28" d="M91.1758 127.914L91.3507 127.74L141.423 77.6722L141.598 77.4973L141.773 77.3225L191.845 27.2551L192.02 27.0803L192.195 26.9055L200.209 18.8924L199.568 18.5135L191.692 26.4101L191.518 26.5849L191.343 26.7598L141.307 76.8198L141.132 76.9947L140.957 77.1695L90.8844 127.237L90.7023 127.412L90.5274 127.587L57.7432 160.367C57.867 160.579 57.9909 160.797 58.122 161.001L91.052 128.075L91.1758 127.914Z" fill="#FFFFE0"/>
<path opacity="0.28" d="M81.0929 117.832L81.2677 117.658L131.34 67.5902L131.515 67.4154L131.69 67.2406L181.762 17.1732L181.937 16.9983L182.112 16.8235L186.848 12.0885L186.119 11.7971L181.602 16.3136L181.427 16.4884L181.252 16.6705L131.18 66.7379L131.005 66.9127L130.83 67.0876L80.7577 117.155L80.5829 117.33L80.4081 117.505L50.9678 146.935C51.0625 147.175 51.1572 147.415 51.2592 147.663L80.9035 118.022L81.0929 117.832Z" fill="#FFFFE0"/>
<path opacity="0.28" d="M71.0023 107.75L71.1771 107.576L121.25 57.5083L121.424 57.3334L121.607 57.1586L171.679 7.09123H171.635L170.863 6.90182L121.097 56.6487L120.922 56.8235L120.747 56.9983L70.6744 107.073L70.4996 107.248L70.3247 107.423L46.0498 131.688C46.1154 131.965 46.1809 132.234 46.2538 132.504L70.8274 107.925L71.0023 107.75Z" fill="#FFFFE0"/>
<path d="M580.675 472.62C607.986 445.311 607.986 401.036 580.675 373.728C553.364 346.42 509.084 346.42 481.773 373.728C454.462 401.036 454.462 445.311 481.773 472.62C509.084 499.928 553.364 499.928 580.675 472.62Z" stroke="#FFFFE0" stroke-width="0.25" stroke-miterlimit="10"/>
<path d="M172.424 172.919C211.807 133.541 211.807 69.6967 172.424 30.3185C133.042 -9.05962 69.191 -9.0596 29.8088 30.3186C-9.57344 69.6967 -9.57344 133.541 29.8088 172.919C69.191 212.298 133.042 212.298 172.424 172.919Z" stroke="#FFFFE0" stroke-width="0.25" stroke-miterlimit="10"/>
</svg>
