<svg width="1606" height="1049" viewBox="0 0 1606 1049" fill="none" xmlns="http://www.w3.org/2000/svg">
<g opacity="0.15">
<path style="mix-blend-mode:screen" opacity="0.7" d="M159.154 752.261L159.4 751.936C176.898 757.923 198.382 757.67 221.497 751.187C242.881 744.998 263.177 735.067 281.421 721.866C300.251 708.312 316.749 692.429 332.743 677.099C346.459 663.949 360.649 650.343 376.214 638.212C464.306 569.596 603.719 551.616 693.635 597.365C697.83 599.501 702.048 601.816 706.129 604.047C722.111 612.834 738.681 621.846 758.893 623.219C777.416 624.48 797.309 619.08 816.389 607.6C833.508 597.238 848.349 583.366 859.875 566.952C871.391 550.351 879.525 532.451 887.396 515.146C894.065 500.472 900.958 485.292 909.897 470.948C924.131 448.082 944.494 426.422 968.799 408.274C993.698 389.815 1021.31 375.53 1050.48 366.018C1080.17 356.431 1110.97 351.667 1141.69 351.912C1172.24 352.197 1201.76 357.626 1227.09 367.654L1226.88 367.931C1201.64 357.955 1172.21 352.493 1141.69 352.254C1111.03 352.007 1080.29 356.761 1050.66 366.329C1021.55 375.831 993.991 390.089 969.137 408.509C944.894 426.612 924.562 448.25 910.391 471.089C901.489 485.385 894.572 500.577 887.917 515.232C880.042 532.563 871.893 550.482 860.355 567.112C848.794 583.582 833.903 597.5 816.726 607.892C797.537 619.441 777.538 624.867 758.896 623.594C738.565 622.208 721.97 613.133 705.932 604.364C701.886 602.144 697.634 599.818 693.438 597.682C603.664 552.067 464.463 569.994 376.551 638.505C360.993 650.626 346.789 664.251 333.118 677.36C317.08 692.672 300.507 708.56 281.684 722.105C263.382 735.347 243.022 745.311 221.571 751.525C198.341 758.027 176.756 758.28 159.154 752.261Z" fill="url(#paint0_linear_1501_1578)"/>
<path style="mix-blend-mode:screen" opacity="0.7" d="M158.206 750.045L158.491 749.555C174.999 754.024 195.96 752.71 219.104 745.756C240.366 739.13 260.699 729.449 279.449 717.024C281.757 715.504 284.13 713.897 286.513 712.238C302.101 701.358 316.045 689.489 329.54 678.006C343.742 665.91 358.423 653.407 374.636 642.495C399.313 625.89 429.046 613.548 454.882 603.673C487.668 591.136 514.46 583.143 539.196 578.496C576.703 571.48 613.755 570.959 646.341 577.017C659.974 579.445 673.275 583.199 686.059 588.226C692.715 590.88 699.218 594.002 706.122 597.314C712.348 600.291 718.742 603.348 725.288 606.054C734.163 609.904 743.573 612.52 753.267 613.833C771.107 615.989 789.406 612.608 807.647 603.787C824.701 595.491 839.883 583.571 852.088 568.896C863.519 554.953 871.993 539.769 880.175 525.086C887.393 512.153 894.852 498.787 904.374 486.121C919.031 466.711 939.309 448.312 963.123 432.965C989.552 416.194 1018.24 403.568 1048.13 395.551C1078.75 387.423 1110.13 383.614 1141.36 384.235C1172.59 384.882 1203.19 389.952 1229.73 398.995L1229.38 399.465C1202.92 390.408 1172.42 385.337 1141.23 384.733C1110.08 384.121 1078.77 387.925 1048.24 396.033C1018.43 404.028 989.814 416.618 963.453 433.342C939.674 448.625 919.417 466.92 904.856 486.297C895.329 498.915 887.911 512.282 880.722 525.176C872.491 539.868 864.04 555.097 852.572 569.089C840.293 583.839 825.024 595.821 807.877 604.165C789.738 612.927 770.783 616.436 753.01 614.269C743.254 612.945 733.784 610.315 724.849 606.446C718.303 603.74 711.89 600.67 705.69 597.696C698.796 594.391 692.285 591.278 685.654 588.629C672.908 583.618 659.648 579.875 646.057 577.449C613.574 571.407 576.606 571.93 539.2 578.947C514.52 583.575 487.777 591.559 455.039 604.072C429.309 614.071 399.606 626.375 375.029 642.903C358.846 653.793 344.18 666.278 330.015 678.326C316.514 689.835 302.539 701.725 286.944 712.616C284.561 714.274 282.181 715.89 279.873 717.411C261.039 729.913 240.606 739.648 219.236 746.301C195.928 753.283 174.824 754.596 158.206 750.045Z" fill="url(#paint1_linear_1501_1578)"/>
<path style="mix-blend-mode:screen" opacity="0.7" d="M157.222 747.874L157.52 747.213C192.02 753.831 242.122 733.467 277.469 712.239C279.817 710.835 282.23 709.345 284.664 707.826C299.614 698.488 312.857 688.622 325.661 679.09C341.253 667.477 355.982 656.514 373.049 646.855C391.223 636.565 412.924 628.489 435.933 619.913C442.267 617.553 448.809 615.107 455.336 612.606C460.684 610.578 465.939 608.541 471.1 606.496C494.45 597.411 516.519 588.829 538.048 582.954C573.355 573.357 608.456 569.669 639.543 572.307C652.763 573.23 665.782 575.532 678.392 579.177C687.975 582.02 698.031 586.436 707.769 590.707C711.575 592.38 715.524 594.112 719.409 595.738C730.302 600.279 739.008 603.012 747.536 604.539C765.107 607.595 783.423 605.698 800.487 599.057C816.753 592.876 831.677 583.31 844.242 571.011C855.607 559.611 864.392 547.055 872.938 534.874C880.686 523.807 888.69 512.362 898.792 501.478C914.15 484.917 935.068 469.395 959.248 456.592C985.142 442.844 1015.07 432.068 1045.8 425.383C1107.29 412.09 1175.3 414.023 1232.37 430.666L1232 431.315C1175.07 414.706 1107.24 412.784 1045.9 426.042C1015.27 432.684 985.43 443.43 959.623 457.138C935.539 469.891 914.721 485.338 899.42 501.822C889.373 512.672 881.381 524.081 873.677 535.09C865.142 547.294 856.311 559.892 844.887 571.352C832.236 583.772 817.2 593.439 800.807 599.696C783.562 606.398 765.056 608.313 747.3 605.232C738.688 603.702 729.966 600.972 718.991 596.386C715.09 594.763 711.142 593.03 707.326 591.35C697.642 587.104 687.585 582.688 678.046 579.863C665.504 576.219 652.549 573.925 639.393 573.018C608.434 570.4 573.446 574.051 538.291 583.657C516.826 589.503 494.79 598.08 471.457 607.162C466.265 609.185 461.012 611.218 455.7 613.262C449.165 615.773 442.614 618.213 436.28 620.573C413.335 629.121 391.65 637.194 373.541 647.457C356.53 657.097 341.831 668.039 326.255 679.632C313.435 689.183 300.158 699.038 285.196 708.412C282.754 709.941 280.332 711.424 277.984 712.828C242.367 734.111 191.989 754.555 157.222 747.874Z" fill="url(#paint2_linear_1501_1578)"/>
<path style="mix-blend-mode:screen" opacity="0.7" d="M156.29 745.617L156.569 744.792C195.526 748.826 257.456 717.139 275.502 707.335C277.998 705.988 280.443 704.644 282.839 703.303C296.689 695.59 308.859 687.786 320.695 680.275C337.373 669.55 353.245 659.458 371.49 651.101C384.599 645.112 399.766 640.194 415.948 635.068C428.853 630.947 442.203 626.69 455.802 621.437C470.438 615.798 484.093 609.749 497.302 603.893C511.1 597.77 524.133 591.994 536.88 587.322C569.807 575.26 602.946 568.391 632.721 567.485C643.922 567.143 656.084 567.048 670.715 569.985C683.627 572.581 697.467 578.448 710.84 584.12L713.553 585.271C722.656 589.342 732.119 592.628 741.845 595.094C758.618 599.092 776.332 598.776 793.389 594.174C808.874 590.008 823.509 582.749 836.398 572.841C847.849 563.864 856.646 554.169 865.955 543.91C874.187 534.888 882.673 525.531 893.187 516.58C909.354 502.923 930.835 490.273 955.307 479.966C981.834 468.755 1012.29 460.118 1043.43 454.997C1105.5 444.865 1175.21 447.39 1234.97 462.127L1234.53 462.938C1174.98 448.276 1105.34 445.678 1043.48 455.816C1012.43 460.906 982.104 469.537 955.688 480.696C931.335 490.941 909.965 503.538 893.877 517.09C883.388 525.97 874.932 535.288 866.751 544.317C857.404 554.608 848.577 564.342 837.041 573.375C824.013 583.393 809.219 590.733 793.566 594.947C776.302 599.597 758.377 599.915 741.401 595.873C731.631 593.401 722.121 590.115 712.967 586.049L710.253 584.898C696.925 579.244 683.126 573.378 670.328 570.821C655.818 567.913 643.731 568.004 632.584 568.37C602.951 569.277 569.959 576.104 537.168 588.118C524.471 592.782 511.454 598.554 497.671 604.659C484.445 610.517 470.783 616.576 456.116 622.237C442.467 627.498 429.101 631.758 416.173 635.892C400.077 641.036 384.876 645.885 371.875 651.864C353.689 660.219 337.931 670.292 321.282 680.977C309.451 688.522 297.224 696.343 283.355 704.044C280.922 705.372 278.474 706.719 276.012 708.085C257.853 717.866 195.585 749.736 156.29 745.617Z" fill="url(#paint3_linear_1501_1578)"/>
<path style="mix-blend-mode:screen" opacity="0.7" d="M155.382 743.317L155.573 742.321C179.325 742.404 219.003 728.989 273.543 702.383L281.029 698.74C292.89 692.94 303.459 687.278 313.681 681.81C332.285 671.833 349.858 662.426 369.964 655.325C380.103 651.755 391.645 648.893 403.883 645.827C419.97 641.818 438.171 637.305 456.272 630.279C476.23 622.575 493.511 613.461 510.201 604.674C519.083 599.996 527.46 595.589 535.724 591.712C566.323 577.261 597.5 567.219 625.875 562.666C636.242 561.001 647.983 559.11 663.03 560.783C677.253 562.312 692.899 568.44 707.717 574.794C716.955 578.976 726.456 582.599 736.172 585.642C752.261 590.484 769.379 591.711 786.353 589.238C801.09 586.997 815.427 582.059 828.645 574.672C840.311 568.01 849.603 560.522 859.44 552.598C868.445 545.078 877.881 538.108 887.693 531.729C904.682 521.023 926.763 511.205 951.463 503.427C980.819 494.322 1010.84 488.052 1041.1 484.706C1103.44 477.634 1175.05 480.915 1237.59 493.682L1237.13 494.648C1174.7 481.956 1103.26 478.696 1041.07 485.726C1010.9 489.069 980.987 495.318 951.729 504.387C927.129 512.164 905.205 521.888 888.325 532.526C878.565 538.874 869.178 545.81 860.219 553.294C850.329 561.252 840.998 568.772 829.186 575.476C815.798 582.954 801.278 587.954 786.354 590.226C769.168 592.71 751.84 591.45 735.557 586.535C725.792 583.476 716.244 579.834 706.96 575.627C692.224 569.318 676.653 563.261 662.629 561.715C647.788 560.073 636.153 561.938 625.884 563.586C597.628 568.152 566.598 578.153 536.17 592.49C527.966 596.382 519.596 600.78 510.738 605.445C494.047 614.291 476.694 623.367 456.643 631.137C438.45 638.17 420.188 642.727 404.052 646.745C391.861 649.786 380.345 652.652 370.272 656.21C350.286 663.266 332.77 672.655 314.211 682.59C303.981 688.069 293.406 693.74 281.512 699.545L274.018 703.198C219.3 729.927 179.372 743.426 155.382 743.317Z" fill="url(#paint4_linear_1501_1578)"/>
<path style="mix-blend-mode:screen" opacity="0.7" d="M154.519 740.975L154.533 739.832C180.721 736.974 226.119 717.213 262.638 701.27L271.587 697.397C274.15 696.295 276.704 695.187 279.249 694.072C287.374 690.625 294.857 687.347 302.092 684.17C325.223 674.002 345.203 665.22 368.495 659.486C376.545 657.512 385.485 655.956 394.997 654.344C413.843 651.108 435.208 647.441 456.764 639.06C480.519 629.833 500.341 617.337 517.752 606.369C523.584 602.695 529.088 599.227 534.521 596.007C562.67 579.358 591.884 566.076 618.951 557.724L619.607 557.52C629.905 554.33 640.56 551.046 655.297 551.425C667.582 551.728 682.806 555.899 701.851 564.155L707.644 566.686C715.476 570.126 722.866 573.374 730.467 576.073C747.283 581.976 763.707 584.742 779.289 584.322C793.37 583.953 807.416 581.318 820.895 576.517C833.152 572.095 843.297 566.649 854.004 560.915C862.613 556.312 871.505 551.543 882.193 546.919C900.108 539.187 922.7 532.307 947.582 526.955C977.737 520.583 1008.2 516.422 1038.74 514.508C1100.89 510.498 1174.31 514.442 1240.15 525.329L1239.68 526.476C1173.95 515.612 1100.67 511.669 1038.64 515.665C1008.19 517.574 977.817 521.725 947.75 528.084C922.991 533.406 900.498 540.27 882.672 547.903C872.054 552.489 863.203 557.243 854.634 561.831C843.856 567.602 833.678 573.053 821.304 577.554C807.635 582.429 793.389 585.104 779.108 585.477C763.299 585.894 746.741 583.135 729.747 577.145C722.073 574.466 714.655 571.198 706.805 567.744L701.021 565.22C682.152 557.035 667.11 552.908 655.027 552.603C640.584 552.233 630.084 555.482 619.924 558.623L619.266 558.811C592.347 567.137 563.266 580.338 535.235 596.925C529.826 600.133 524.329 603.59 518.513 607.262C501.001 618.289 481.133 630.827 457.21 640.124C435.468 648.562 414.014 652.253 395.076 655.496C385.624 657.123 376.69 658.653 368.705 660.616C345.577 666.305 325.66 675.059 302.615 685.171C295.373 688.358 287.892 691.652 279.757 695.092C277.258 696.152 274.719 697.241 272.138 698.36L263.199 702.239C226.552 718.237 180.98 738.096 154.519 740.975Z" fill="url(#paint5_linear_1501_1578)"/>
<path style="mix-blend-mode:screen" opacity="0.7" d="M153.474 737.314C170.662 733.216 197.443 722.024 225.807 710.173C240.596 703.984 255.929 697.568 269.647 692.327C272.324 691.308 274.924 690.341 277.447 689.427L277.664 689.348C313.522 676.398 337.216 667.843 366.997 663.703C373.324 662.82 380.196 662.205 387.467 661.555C408.612 659.652 432.586 657.517 457.203 647.904C483.996 637.457 504.451 622.032 522.502 608.413C526.239 605.597 529.768 602.943 533.267 600.386C558.109 582.196 584.463 566.293 611.986 552.882L613.227 552.3C622.756 547.71 632.611 542.955 647.53 542.145C663.961 541.268 682.923 547.879 695.96 553.598C700.124 555.421 704.203 557.3 708.141 559.12C713.873 561.758 719.277 564.258 724.781 566.532C741.934 573.603 757.469 577.811 772.277 579.38C785.822 580.813 799.584 580.458 813.218 578.326C827.137 576.175 838.972 572.676 851.58 569.045C859.371 566.769 867.413 564.424 876.723 562.148C898.864 556.93 921.23 553.057 943.698 550.549C974.557 546.914 1005.5 544.834 1036.41 544.316C1098.07 543.264 1171.35 547.769 1242.75 556.99L1242.27 558.299C1170.98 549.042 1097.73 544.564 1036.2 545.636C1005.38 546.134 974.528 548.188 943.754 551.791C921.371 554.286 899.09 558.142 877.034 563.338C867.744 565.644 859.718 567.986 851.936 570.269C839.284 573.958 827.347 577.441 813.342 579.648C799.522 581.795 785.575 582.147 771.847 580.697C756.884 579.104 741.203 574.863 723.906 567.715C718.309 565.432 712.895 562.925 707.205 560.213C703.267 558.393 699.198 556.52 695.042 554.705C682.182 549.056 663.462 542.504 647.381 543.43C632.886 544.209 623.222 548.865 613.884 553.372L612.643 553.954C585.245 567.325 559.009 583.168 534.272 601.28C530.782 603.844 527.253 606.498 523.524 609.305C505.373 622.999 484.804 638.52 457.773 649.092C432.874 658.811 408.716 660.945 387.448 662.877C380.21 663.521 373.364 664.141 367.093 665.006C337.456 669.145 313.873 677.648 278.135 690.553L277.918 690.632C275.368 691.545 272.783 692.503 270.165 693.506C256.464 698.744 241.162 705.139 226.364 711.321C197.892 723.257 171.068 734.432 153.708 738.567L153.474 737.314Z" fill="url(#paint6_linear_1501_1578)"/>
<path style="mix-blend-mode:screen" opacity="0.7" d="M152.343 734.763C161.063 731.383 172.931 726.159 186.675 720.1C211.291 709.265 241.941 695.78 267.726 687.209C270.493 686.255 273.128 685.458 275.683 684.692C313.565 673.305 337.937 668.736 365.561 667.84C370.264 667.689 375.236 667.676 380.501 667.656C402.639 667.533 430.113 667.486 457.673 656.685C487.097 645.177 507.562 626.728 525.624 610.466C527.808 608.493 529.967 606.592 532.044 604.705C555.162 584.233 579.527 565.268 604.979 547.933L606.228 547.071C615.119 540.962 624.383 534.679 639.737 532.684C658.183 530.276 679.193 538.016 690.076 542.835C696.533 545.697 702.721 548.765 708.677 551.721C712.186 553.465 715.643 555.185 719.089 556.823C736.812 565.253 751.92 570.979 765.273 574.323C778.443 577.561 791.957 579.49 805.628 580.081C824.32 580.995 839.7 579.786 859.196 578.215C863.074 577.903 867.111 577.589 871.382 577.268C893.127 575.681 916.185 574.601 939.919 574.053C970.874 573.266 1002.55 573.298 1034.06 574.173C1091.17 575.829 1160.28 580.555 1245.31 588.716L1244.84 590.185C1159.84 582.061 1090.79 577.307 1033.74 575.658C1002.22 574.843 970.623 574.747 939.709 575.535C916.008 576.078 892.976 577.162 871.301 578.771C867.046 579.089 863.009 579.403 859.122 579.708C839.566 581.264 824.112 582.494 805.278 581.58C791.472 580.984 777.825 579.033 764.528 575.755C751.046 572.391 735.842 566.623 718.021 558.15C714.565 556.506 711.109 554.786 707.59 553.035C701.622 550.114 695.478 547.064 689.042 544.173C678.345 539.432 657.721 531.827 639.771 534.167C624.988 536.089 615.992 542.225 607.3 548.166L606.041 549.021C580.668 566.306 556.378 585.217 533.33 605.628C531.226 607.495 529.067 609.396 526.911 611.389C508.705 627.785 488.08 646.37 458.27 658.029C430.292 668.986 402.548 669.088 380.261 669.161C375.005 669.188 370.042 669.207 365.372 669.352C337.957 670.238 313.766 674.776 276.087 686.103C273.572 686.854 270.917 687.696 268.209 688.59C242.485 697.1 211.926 710.578 187.35 721.397C173.574 727.461 161.696 732.679 152.949 736.114L152.343 734.763Z" fill="url(#paint7_linear_1501_1578)"/>
<path style="mix-blend-mode:screen" opacity="0.7" d="M151.199 732.232C174.668 719.021 225.217 693.579 265.811 682.058C268.583 681.27 271.267 680.523 273.911 679.926C312.509 670.55 337.069 669.961 364.127 671.992C367.155 672.222 370.305 672.497 373.575 672.786C397.625 674.888 427.542 677.505 458.136 665.487C489.948 652.974 510.836 630.521 527.626 612.461L530.807 609.043C550.764 587.735 572.127 566.734 597.982 543.015L598.98 542.085C606.947 534.754 615.974 526.449 631.935 523.228C646.182 520.36 665.214 523.584 684.147 532.046C693.096 536.051 701.274 540.508 709.191 544.816L713.353 547.091C730.968 556.622 745.332 564.042 758.23 569.246C771.153 574.398 784.458 578.627 798.05 581.903C819.227 587.184 837.645 590.059 866.03 592.502C884.935 594.173 907.76 595.726 934.188 597.545L955.073 598.91C978.22 600.417 1004.46 602.125 1031.75 604.09C1058.01 606.023 1084.99 608.176 1113.56 610.46C1158.13 614.014 1204.25 617.714 1247.9 620.492L1247.44 622.137C1203.75 619.325 1157.63 615.626 1113.07 612.095C1084.5 609.818 1057.55 607.685 1031.28 605.738C1004.04 603.798 977.761 602.062 954.631 600.552L933.719 599.184C907.284 597.374 884.487 595.766 865.519 594.139C837.025 591.69 818.503 588.799 797.197 583.481C783.544 580.187 770.177 575.947 757.187 570.789C744.217 565.547 729.784 558.105 712.159 548.567L707.972 546.288C700.12 541.969 691.955 537.552 683.07 533.579C664.489 525.258 645.941 522.077 632.207 524.874C616.978 527.961 608.576 535.662 600.473 543.118L599.474 544.047C573.658 567.734 552.355 588.675 532.419 609.953L529.238 613.372C512.286 631.611 491.153 654.334 458.873 667.012C427.709 679.254 397.461 676.617 373.157 674.492C369.903 674.2 366.762 673.931 363.723 673.679C336.83 671.619 312.515 672.225 274.235 681.521C271.678 682.137 268.953 682.824 266.242 683.626C225.891 695.072 175.544 720.378 152.198 733.56L151.199 732.232Z" fill="url(#paint8_linear_1501_1578)"/>
<path style="mix-blend-mode:screen" opacity="0.7" d="M150.033 729.675C170.371 714.026 221.25 686.943 263.895 676.844C266.698 676.168 269.487 675.588 272.168 675.093C311.165 667.89 337.271 671.455 362.71 676.121L366.268 676.774C390.93 681.346 424.695 687.6 458.588 674.241C492.48 660.883 512.695 635.016 528.844 614.268L529.57 613.3C548.969 588.426 567.837 565.794 584.455 545.8L591.633 537.178C599.052 528.253 607.448 518.14 624.097 513.658C638.822 509.676 659.064 512.503 678.288 521.173C688.427 525.934 698.247 531.314 707.695 537.284C714.593 541.487 720.882 545.448 726.972 549.292C735.597 554.733 743.74 559.86 751.252 564.143C765.437 572.22 778.999 578.524 790.392 583.624C812.854 593.976 836.377 602.031 860.624 607.675C879.583 612.216 903.027 616.652 932.279 621.227C958.773 625.367 990.588 629.51 1029.4 634.027C1116.13 644.187 1188.47 650.124 1250.43 652.279L1250.02 654.096C1187.97 651.929 1115.61 645.954 1028.78 635.812C989.888 631.325 958.095 627.153 931.574 623.069C902.252 618.472 878.769 613.992 859.72 609.475C835.337 603.804 811.677 595.722 789.075 585.343C777.645 580.216 764.03 573.887 749.773 565.772C742.233 561.469 734.072 556.328 725.428 550.873C719.34 547.046 713.042 543.077 706.172 538.895C696.794 532.96 687.045 527.613 676.979 522.882C658.242 514.424 638.62 511.65 624.48 515.464C608.678 519.716 600.907 529.073 593.393 538.123L586.208 546.755C569.586 566.716 550.725 589.338 531.366 614.197L530.641 615.165C514.295 636.175 493.936 662.235 459.269 675.937C424.602 689.64 390.41 683.266 365.432 678.579L361.883 677.933C336.658 673.289 310.865 669.746 272.254 676.874C269.622 677.361 266.892 677.94 264.137 678.591C221.972 688.565 171.568 715.397 151.423 730.903L150.033 729.675Z" fill="url(#paint9_linear_1501_1578)"/>
<path style="mix-blend-mode:screen" opacity="0.7" d="M148.879 727.105C168.258 707.353 219.444 679.71 262.002 671.574C264.854 671.024 267.693 670.569 270.426 670.216C309.618 665.1 335.894 672.788 361.318 680.235C383.822 686.824 421.508 697.818 459.056 682.986C495.166 668.714 514.324 639.187 528.326 617.624C537.961 602.834 547.328 588.689 556.381 575.021C566.185 560.235 575.44 546.279 584.002 533L584.343 532.544C591.164 521.954 598.902 509.948 616.307 504.131C631.668 498.954 652.66 501.311 672.434 510.321C682.786 515.215 692.688 520.966 702.044 527.518C713.534 535.32 723.586 543.123 732.454 550.016C736.577 553.217 740.476 556.236 744.308 559.115C757.841 569.25 770.806 577.785 782.798 585.492C805.643 600.18 826.706 612.186 855.31 623.037C875.419 630.697 900.044 638.078 928.559 645.001C957.074 651.924 990.14 658.232 1027.14 664.057C1082.8 672.886 1167.19 683.544 1253.09 684.152L1252.7 686.127C1166.63 685.514 1082.13 674.817 1026.38 665.962C989.314 660.123 956.074 653.701 927.602 646.855C899.13 640.009 874.264 632.509 854.057 624.806C825.296 613.898 804.107 601.829 781.169 587.072C769.141 579.338 756.148 570.782 742.569 560.613C738.741 557.768 734.856 554.729 730.715 551.515C721.868 544.652 711.834 536.862 700.398 529.085C691.136 522.599 681.334 516.907 671.086 512.065C651.897 503.308 631.67 501.022 616.983 505.932C600.574 511.417 593.097 522.998 586.501 533.228L586.16 533.684C577.604 546.937 568.329 560.939 558.525 575.724C549.472 589.393 540.103 603.521 530.513 618.269C516.32 640.127 496.889 670.056 459.913 684.679C421.387 699.916 383.132 688.725 360.287 682.034C335.05 674.741 309.029 667.152 270.464 672.161C267.79 672.511 265.017 672.955 262.26 673.531C221.495 681.325 169.76 708.876 150.736 728.229L148.879 727.105Z" fill="url(#paint10_linear_1501_1578)"/>
<path style="mix-blend-mode:screen" opacity="0.7" d="M147.748 724.503C164.481 702.356 216.083 672.737 260.104 666.242C263.023 665.815 265.921 665.494 268.696 665.278C305.747 662.419 330.188 672.296 356.062 682.772L359.905 684.317C387.222 695.321 423.228 706.114 459.521 691.708C494.571 677.813 512.775 648.376 527.098 621.883L533.024 610.943C548.947 581.561 563.986 553.803 577.035 527.919C583.236 515.612 590.274 501.647 608.44 494.466C627.278 487 650.787 492.073 666.502 499.31C677.085 504.314 687.075 510.437 696.314 517.58C709.854 527.746 720.969 538.388 730.872 547.827L737.219 553.879C750.981 566.839 764.065 577.98 775.058 587.172C795.493 604.25 818.697 622.272 849.821 638.27C870.966 649.154 896.145 659.369 924.679 668.651C957.452 679.01 990.861 687.488 1024.75 694.043C1079.74 705.016 1164.39 717.726 1255.54 716.039L1255.22 718.168C1163.83 719.818 1078.91 707.103 1023.8 696.111C989.802 689.54 956.294 681.035 923.426 670.634C894.771 661.323 869.467 651.045 848.215 640.111C816.888 624.039 793.575 605.951 773.046 588.787C762.035 579.581 748.923 568.42 735.129 555.406C733.046 553.448 730.929 551.42 728.766 549.357C718.962 539.977 707.831 529.338 694.392 519.248C685.277 512.197 675.42 506.154 664.978 501.213C649.788 494.216 627.187 489.274 609.288 496.366C592.207 503.115 585.421 516.588 579.439 528.469C566.377 554.389 551.331 582.157 535.393 611.558L529.482 622.479C514.917 649.411 496.397 679.307 460.384 693.589C423.031 708.415 386.335 697.411 358.494 686.243L354.651 684.698C329.085 674.347 304.926 664.573 268.576 667.379C265.866 667.583 263.053 667.907 260.21 668.33C216.956 674.701 166.317 703.722 149.94 725.394L147.748 724.503Z" fill="url(#paint11_linear_1501_1578)"/>
<path style="mix-blend-mode:screen" opacity="0.7" d="M146.634 721.849C162.758 694.357 215.945 665.29 258.252 660.888C261.209 660.564 264.149 660.379 267.002 660.31C302.932 659.387 326.319 671.604 351.078 684.54L358.53 688.411C397.199 708.289 430.39 712.225 460 700.453C494.872 686.578 512.266 656.538 525.89 626.141C539.887 594.917 556.097 558.231 570.047 522.781C575.174 509.686 581.551 493.377 600.569 484.744C613.392 478.924 635.891 476.787 660.593 488.243C671.435 493.367 681.535 499.874 690.661 507.614C705.111 519.543 716.445 532.72 726.503 544.374L730.217 548.653C741.02 561.118 752.5 573.542 767.38 588.877C787.251 609.185 811.953 632.759 844.441 653.525C866.489 667.649 892.215 680.715 920.926 692.343C953.862 705.411 987.798 716.027 1022.47 724.11C1101.29 742.955 1182.78 751.229 1258.13 747.977L1257.85 750.268C1182.18 753.492 1100.42 745.223 1021.32 726.324C984.034 717.429 949.755 706.736 919.367 694.449C890.522 682.751 864.652 669.609 842.495 655.419C809.824 634.532 785.019 610.866 765.054 590.472C750.153 575.107 738.664 562.676 727.813 550.16L724.099 545.881C714.088 534.279 702.807 521.185 688.495 509.36C679.531 501.753 669.613 495.351 658.97 490.302C644.107 483.406 620.171 478.331 601.681 486.737C583.853 494.834 577.693 510.564 572.755 523.195C558.741 558.673 542.519 595.395 528.526 626.652C514.671 657.589 496.916 688.207 460.932 702.494C430.307 714.645 396.275 710.718 356.793 690.43L349.331 686.552C324.894 673.78 301.787 661.727 266.659 662.596C263.891 662.667 261.035 662.855 258.177 663.162C216.82 667.485 164.832 695.812 149.116 722.624L146.634 721.849Z" fill="url(#paint12_linear_1501_1578)"/>
<path style="mix-blend-mode:screen" opacity="0.7" d="M145.535 719.136C159.438 688.597 212.262 658.205 256.321 655.396C259.345 655.196 262.343 655.144 265.239 655.212C300.539 656.053 324.317 671.375 347.319 686.118C350.555 688.214 353.808 690.306 357.054 692.332C382.8 708.501 421.679 724.463 460.416 709.004C496.775 694.499 513.268 661.028 524.604 630.211C540.486 587.118 553.065 550.244 563.082 517.459C567.244 503.731 572.963 484.952 592.706 474.842C612.961 464.509 638.751 469.544 654.667 476.989C665.734 482.243 675.915 489.131 684.894 497.439C699.613 510.687 710.697 526.073 720.472 539.649L723.08 543.261C734.216 558.655 746.148 574.098 759.574 590.427C787.213 623.9 811.683 648.041 838.922 668.701C863.311 686.995 889.462 702.828 917.028 715.991C950.104 731.742 984.59 744.528 1020.11 754.209C1099.32 776.206 1182.46 785.083 1260.64 779.96L1260.43 782.413C1181.86 787.561 1098.34 778.656 1018.79 756.558C983.112 746.865 948.472 734.055 915.244 718.266C887.532 705.032 861.244 689.112 836.728 670.717C809.351 649.953 784.768 625.713 757.012 592.108C743.564 575.731 731.604 560.268 720.437 544.82L717.829 541.208C707.632 527.06 697.093 512.428 682.535 499.33C673.737 491.196 663.77 484.447 652.937 479.289C637.689 472.162 613.121 467.28 594.056 477.001C575.528 486.425 570.071 504.566 566.047 517.837C556.018 550.659 543.419 587.579 527.525 630.707C515.959 662.14 499.068 696.299 461.439 711.312C421.295 727.328 381.422 711.004 355.045 694.485C351.763 692.432 348.5 690.332 345.247 688.24C322.608 673.646 299.205 658.573 264.745 657.723C261.94 657.631 259.025 657.685 256.147 657.902C213.998 660.56 161.604 690.606 148.356 719.709L145.535 719.136Z" fill="url(#paint13_linear_1501_1578)"/>
<path style="mix-blend-mode:screen" opacity="0.7" d="M144.443 716.378C156.069 683.242 209.539 650.938 254.507 649.855C257.589 649.789 260.64 649.882 263.594 650.084C298.652 652.694 321.823 670.522 344.302 687.773C348.017 690.638 351.861 693.583 355.673 696.414C376.474 711.791 417.803 734.997 460.93 717.731C498.607 702.647 513.667 667.159 523.43 634.439C536.713 589.993 547.42 550.026 556.173 512.257C559.462 498.023 564.383 476.586 584.889 465.04C597.976 457.665 622.567 453.447 648.803 465.811C660.118 471.211 670.398 478.495 679.237 487.377C694.011 501.85 704.241 518.621 714.143 534.829L716.101 537.989C727.295 556.283 739.338 574.498 751.936 592.142C778.822 629.813 804.773 659.033 833.533 684.099C858.127 705.392 884.836 724.081 913.28 739.899C946.462 758.209 981.482 773.107 1017.85 784.384C1097.64 809.543 1182.5 819.091 1263.21 811.997L1263.09 814.618C1181.87 821.731 1096.53 812.13 1016.31 786.849C979.754 775.512 944.549 760.532 911.193 742.12C882.599 726.224 855.75 707.436 831.033 686.026C802.163 660.877 776.113 631.538 749.041 593.713C736.447 576.043 724.375 557.79 713.142 539.452L711.231 536.326C701.399 520.217 691.234 503.57 676.649 489.268C668.013 480.588 657.97 473.47 646.913 468.193C621.89 456.4 598.689 460.276 586.44 467.184C568.728 477.16 563.513 494.266 559.332 512.416C550.569 550.237 539.842 590.25 526.556 634.739C522.387 648.726 516.25 666.857 505.746 683.094C494.305 700.801 479.994 712.906 461.987 720.113C417.147 738.058 374.673 714.285 353.339 698.525C349.515 695.671 345.626 692.767 341.93 689.857C319.826 672.854 296.962 655.27 262.843 652.771C260.006 652.565 257.075 652.485 254.12 652.555C210.537 653.534 158.747 684.74 147.527 716.753L144.443 716.378Z" fill="url(#paint14_linear_1501_1578)"/>
<path style="mix-blend-mode:screen" opacity="0.7" d="M143.365 713.56C152.995 677.225 206.085 643.59 252.598 644.333C255.697 644.386 258.783 644.599 261.845 644.969C296.885 649.185 319.697 669.638 341.68 689.349C345.778 693.02 350.01 696.821 354.218 700.421C405.23 743.94 449.141 731.312 461.407 726.424C500.58 710.695 514.49 671.238 522.227 638.625C532.972 593.277 542.075 548.996 549.226 506.95C552.556 487.33 557.438 467.17 577.029 455.145C597.247 442.723 624.684 445.892 642.906 454.542C654.46 460.08 664.827 467.751 673.507 477.184C688.061 492.62 697.743 511.16 707.122 529.065L708.96 532.566C719.842 553.416 731.668 573.984 744.107 593.69C770.327 635.181 797.782 669.739 827.989 699.305C852.811 723.554 880.074 745.1 909.375 763.625C942.644 784.504 978.207 801.567 1015.45 814.52C1095.99 842.806 1182.49 853.058 1265.7 844.045L1265.65 846.801C1181.88 855.901 1094.78 845.626 1013.76 817.144C976.305 804.108 940.542 786.947 907.082 765.953C877.627 747.331 850.221 725.673 825.269 701.298C794.891 671.575 767.336 636.881 741.014 595.237C728.543 575.478 716.687 554.872 705.781 533.958L703.943 530.457C694.638 512.685 685.009 494.305 670.69 479.075C662.23 469.867 652.121 462.379 640.853 456.973C623.557 448.757 597.646 445.665 578.797 457.272C560.487 468.521 555.823 487.964 552.6 506.919C545.429 549.011 536.334 593.358 525.567 638.735C517.658 672.101 503.337 712.497 462.523 728.884C443.38 736.579 422.744 737.14 401.241 730.521C379.738 723.901 362.316 711.624 351.605 702.541C347.369 698.919 343.129 695.112 339.021 691.434C317.321 671.98 294.887 651.87 260.878 647.756C257.941 647.419 254.982 647.236 252.012 647.207C207.188 646.436 155.945 678.807 146.698 713.757L143.365 713.56Z" fill="url(#paint15_linear_1501_1578)"/>
<path style="mix-blend-mode:screen" opacity="0.7" d="M142.297 710.677C146.255 690.28 162.17 670.4 185.897 656.091C209.624 641.783 236.706 635.828 260.143 639.73C295.224 645.557 317.702 668.57 339.362 690.864C343.735 695.353 348.261 700.003 352.78 704.373C392.875 743.199 435.402 745.666 461.821 735.031C502.7 718.567 515.121 674.479 520.966 642.682C529.53 595.83 536.701 548.317 542.229 501.506C543.332 492.167 544.84 481.334 548.767 471.156C553.144 459.792 559.803 451.261 569.107 445.091C589.936 431.277 618.187 434.14 636.932 443.114C671.43 459.613 686.14 492.243 700.35 523.784L701.843 527.078C753.979 642.447 820.618 727.628 905.524 787.52C1008.7 860.158 1140.87 892.522 1268.19 876.28L1268.22 879.205C1139.89 895.623 1006.72 863.1 902.872 789.965C817.672 729.714 750.768 644.213 698.441 528.443L696.955 525.14C682.919 494.003 668.402 461.791 634.797 445.716C617.062 437.239 590.494 434.434 571.097 447.31C552.167 459.868 548.226 480.901 545.781 501.41C540.251 548.264 533.12 595.838 524.496 642.751C512.06 710.658 483.43 729.454 462.971 737.702C420.829 754.666 376.937 732.674 349.849 706.516C345.302 702.125 340.757 697.462 336.383 692.956C315.02 671.036 292.919 648.367 258.894 642.706C236.515 638.91 210.531 644.683 187.735 658.379C164.938 672.076 149.641 691.201 145.842 710.727L142.297 710.677Z" fill="url(#paint16_linear_1501_1578)"/>
</g>
<circle cx="134" cy="710" r="54" fill="url(#paint17_radial_1501_1578)"/>
<circle cx="150" cy="738" r="54" fill="url(#paint18_radial_1501_1578)"/>
<circle cx="1269.5" cy="819.5" r="113.5" fill="url(#paint19_radial_1501_1578)"/>
<circle cx="1179.5" cy="327.5" r="113.5" fill="url(#paint20_radial_1501_1578)"/>
<circle cx="1261.5" cy="369.5" r="113.5" fill="url(#paint21_radial_1501_1578)"/>
<circle cx="1285.5" cy="446.5" r="113.5" fill="url(#paint22_radial_1501_1578)"/>
<circle cx="1299.5" cy="505.5" r="113.5" fill="url(#paint23_radial_1501_1578)"/>
<circle cx="1314.5" cy="596.5" r="113.5" fill="url(#paint24_radial_1501_1578)"/>
<circle cx="1292.5" cy="690.5" r="113.5" fill="url(#paint25_radial_1501_1578)"/>
<circle cx="1292.5" cy="749.5" r="113.5" fill="url(#paint26_radial_1501_1578)"/>
<circle cx="1210.5" cy="884.5" r="113.5" fill="url(#paint27_radial_1501_1578)"/>
<defs>
<linearGradient id="paint0_linear_1501_1578" x1="674.746" y1="452.585" x2="717.734" y2="636.848" gradientUnits="userSpaceOnUse">
<stop stop-color="#FFFFE0"/>
<stop offset="1" stop-color="#FEFCFF"/>
</linearGradient>
<linearGradient id="paint1_linear_1501_1578" x1="678.345" y1="481.756" x2="713.327" y2="631.569" gradientUnits="userSpaceOnUse">
<stop stop-color="#FFFFE0"/>
<stop offset="1" stop-color="#FEFCFF"/>
</linearGradient>
<linearGradient id="paint2_linear_1501_1578" x1="681.799" y1="510.269" x2="709.076" y2="626.979" gradientUnits="userSpaceOnUse">
<stop stop-color="#FFFFE0"/>
<stop offset="1" stop-color="#FEFCFF"/>
</linearGradient>
<linearGradient id="paint3_linear_1501_1578" x1="685.104" y1="537.814" x2="704.917" y2="622.509" gradientUnits="userSpaceOnUse">
<stop stop-color="#FFFFE0"/>
<stop offset="1" stop-color="#FEFCFF"/>
</linearGradient>
<linearGradient id="paint4_linear_1501_1578" x1="685.215" y1="548.218" x2="701.962" y2="619.739" gradientUnits="userSpaceOnUse">
<stop stop-color="#FFFFE0"/>
<stop offset="1" stop-color="#FEFCFF"/>
</linearGradient>
<linearGradient id="paint5_linear_1501_1578" x1="682.331" y1="542.361" x2="707.762" y2="650.865" gradientUnits="userSpaceOnUse">
<stop stop-color="#FFFFE0"/>
<stop offset="1" stop-color="#FEFCFF"/>
</linearGradient>
<linearGradient id="paint6_linear_1501_1578" x1="678.958" y1="533.716" x2="713.745" y2="681.994" gradientUnits="userSpaceOnUse">
<stop stop-color="#FFFFE0"/>
<stop offset="1" stop-color="#FEFCFF"/>
</linearGradient>
<linearGradient id="paint7_linear_1501_1578" x1="675.28" y1="524.153" x2="719.671" y2="713.179" gradientUnits="userSpaceOnUse">
<stop stop-color="#FFFFE0"/>
<stop offset="1" stop-color="#FEFCFF"/>
</linearGradient>
<linearGradient id="paint8_linear_1501_1578" x1="671.491" y1="514.072" x2="725.638" y2="744.404" gradientUnits="userSpaceOnUse">
<stop stop-color="#FFFFE0"/>
<stop offset="1" stop-color="#FEFCFF"/>
</linearGradient>
<linearGradient id="paint9_linear_1501_1578" x1="667.634" y1="503.622" x2="731.655" y2="775.673" gradientUnits="userSpaceOnUse">
<stop stop-color="#FFFFE0"/>
<stop offset="1" stop-color="#FEFCFF"/>
</linearGradient>
<linearGradient id="paint10_linear_1501_1578" x1="663.752" y1="492.942" x2="737.728" y2="806.966" gradientUnits="userSpaceOnUse">
<stop stop-color="#FFFFE0"/>
<stop offset="1" stop-color="#FEFCFF"/>
</linearGradient>
<linearGradient id="paint11_linear_1501_1578" x1="659.835" y1="482.045" x2="743.848" y2="838.288" gradientUnits="userSpaceOnUse">
<stop stop-color="#FFFFE0"/>
<stop offset="1" stop-color="#FEFCFF"/>
</linearGradient>
<linearGradient id="paint12_linear_1501_1578" x1="655.906" y1="471.013" x2="750.021" y2="869.658" gradientUnits="userSpaceOnUse">
<stop stop-color="#FFFFE0"/>
<stop offset="1" stop-color="#FEFCFF"/>
</linearGradient>
<linearGradient id="paint13_linear_1501_1578" x1="651.954" y1="459.716" x2="756.265" y2="901.043" gradientUnits="userSpaceOnUse">
<stop stop-color="#FFFFE0"/>
<stop offset="1" stop-color="#FEFCFF"/>
</linearGradient>
<linearGradient id="paint14_linear_1501_1578" x1="648.027" y1="448.415" x2="762.569" y2="932.465" gradientUnits="userSpaceOnUse">
<stop stop-color="#FFFFE0"/>
<stop offset="1" stop-color="#FEFCFF"/>
</linearGradient>
<linearGradient id="paint15_linear_1501_1578" x1="644.035" y1="436.797" x2="768.922" y2="963.935" gradientUnits="userSpaceOnUse">
<stop stop-color="#FFFFE0"/>
<stop offset="1" stop-color="#FEFCFF"/>
</linearGradient>
<linearGradient id="paint16_linear_1501_1578" x1="640.061" y1="425.099" x2="775.346" y2="995.43" gradientUnits="userSpaceOnUse">
<stop stop-color="#FEFCFF" stop-opacity="0"/>
<stop offset="0.388542" stop-color="#FFFFE0"/>
<stop offset="0.591667" stop-color="#FEFCFF" stop-opacity="0"/>
</linearGradient>
<radialGradient id="paint17_radial_1501_1578" cx="0" cy="0" r="1" gradientUnits="userSpaceOnUse" gradientTransform="translate(134 710) rotate(90) scale(54)">
<stop offset="0.427083" stop-color="#111827"/>
<stop offset="1" stop-color="#111827" stop-opacity="0"/>
</radialGradient>
<radialGradient id="paint18_radial_1501_1578" cx="0" cy="0" r="1" gradientUnits="userSpaceOnUse" gradientTransform="translate(150 738) rotate(90) scale(54)">
<stop offset="0.427083" stop-color="#111827"/>
<stop offset="1" stop-color="#111827" stop-opacity="0"/>
</radialGradient>
<radialGradient id="paint19_radial_1501_1578" cx="0" cy="0" r="1" gradientUnits="userSpaceOnUse" gradientTransform="translate(1269.5 819.5) rotate(90) scale(113.5)">
<stop offset="0.427083" stop-color="#111827"/>
<stop offset="1" stop-color="#111827" stop-opacity="0"/>
</radialGradient>
<radialGradient id="paint20_radial_1501_1578" cx="0" cy="0" r="1" gradientUnits="userSpaceOnUse" gradientTransform="translate(1179.5 327.5) rotate(90) scale(113.5)">
<stop offset="0.427083" stop-color="#111827"/>
<stop offset="1" stop-color="#111827" stop-opacity="0"/>
</radialGradient>
<radialGradient id="paint21_radial_1501_1578" cx="0" cy="0" r="1" gradientUnits="userSpaceOnUse" gradientTransform="translate(1261.5 369.5) rotate(90) scale(113.5)">
<stop offset="0.427083" stop-color="#111827"/>
<stop offset="1" stop-color="#111827" stop-opacity="0"/>
</radialGradient>
<radialGradient id="paint22_radial_1501_1578" cx="0" cy="0" r="1" gradientUnits="userSpaceOnUse" gradientTransform="translate(1285.5 446.5) rotate(90) scale(113.5)">
<stop offset="0.427083" stop-color="#111827"/>
<stop offset="1" stop-color="#111827" stop-opacity="0"/>
</radialGradient>
<radialGradient id="paint23_radial_1501_1578" cx="0" cy="0" r="1" gradientUnits="userSpaceOnUse" gradientTransform="translate(1299.5 505.5) rotate(90) scale(113.5)">
<stop offset="0.427083" stop-color="#111827"/>
<stop offset="1" stop-color="#111827" stop-opacity="0"/>
</radialGradient>
<radialGradient id="paint24_radial_1501_1578" cx="0" cy="0" r="1" gradientUnits="userSpaceOnUse" gradientTransform="translate(1314.5 596.5) rotate(90) scale(113.5)">
<stop offset="0.427083" stop-color="#111827"/>
<stop offset="1" stop-color="#111827" stop-opacity="0"/>
</radialGradient>
<radialGradient id="paint25_radial_1501_1578" cx="0" cy="0" r="1" gradientUnits="userSpaceOnUse" gradientTransform="translate(1292.5 690.5) rotate(90) scale(113.5)">
<stop offset="0.427083" stop-color="#111827"/>
<stop offset="1" stop-color="#111827" stop-opacity="0"/>
</radialGradient>
<radialGradient id="paint26_radial_1501_1578" cx="0" cy="0" r="1" gradientUnits="userSpaceOnUse" gradientTransform="translate(1292.5 749.5) rotate(90) scale(113.5)">
<stop offset="0.427083" stop-color="#111827"/>
<stop offset="1" stop-color="#111827" stop-opacity="0"/>
</radialGradient>
<radialGradient id="paint27_radial_1501_1578" cx="0" cy="0" r="1" gradientUnits="userSpaceOnUse" gradientTransform="translate(1210.5 884.5) rotate(90) scale(113.5)">
<stop offset="0.427083" stop-color="#111827"/>
<stop offset="1" stop-color="#111827" stop-opacity="0"/>
</radialGradient>
</defs>
</svg>
