<svg width="721" height="510" viewBox="0 0 721 510" fill="none" xmlns="http://www.w3.org/2000/svg">
<g opacity="0.28">
<path opacity="0.28" d="M653.33 347.177L653.199 347.308L653.068 347.432L616.24 384.329L616.109 384.46L615.978 384.584L579.143 421.415L579.019 421.546L578.888 421.677L553.112 447.414L553.498 447.771L579.26 422.012L579.391 421.881L579.515 421.75L616.35 384.919L616.481 384.795L616.612 384.664L653.44 347.833L653.571 347.709L653.702 347.578L661.14 340.14L660.783 339.754L653.33 347.177Z" fill="#FFFFE0"/>
<path opacity="0.28" d="M656.908 351.045L656.777 351.169L619.949 387.971L619.818 388.102L619.687 388.233L582.852 425.123L582.728 425.254L582.597 425.385L557.047 450.932L557.462 451.26L582.961 425.764L583.092 425.633L583.216 425.502L620.051 388.678L620.182 388.547L620.313 388.416L657.148 351.548L657.279 351.424L657.41 351.293L664.594 344.11C664.477 343.972 664.375 343.834 664.259 343.702L657.039 350.922L656.908 351.045Z" fill="#FFFFE0"/>
<path opacity="0.28" d="M671.748 365.877L671.617 366.008L634.76 402.839L634.629 402.963L634.505 403.094L597.67 439.925L597.539 440.056L597.415 440.18L575.472 462.122L575.989 462.347L597.787 440.552L597.911 440.428L598.042 440.297L634.877 403.466L635.001 403.335L635.132 403.211L671.967 366.38L672.098 366.248L672.222 366.125L675.69 362.657L675.471 362.133L671.828 365.775L671.748 365.877Z" fill="#FFFFE0"/>
<path opacity="0.28" d="M664.324 358.461L664.2 358.592L627.365 395.416L627.234 395.547L627.11 395.678L590.275 432.51L590.144 432.633L590.013 432.764L565.709 457.066L566.175 457.35L590.385 433.136L590.516 433.005L590.647 432.881L627.475 396.05L627.598 395.919L627.73 395.788L664.564 358.964L664.688 358.833L664.82 358.702L670.706 352.816L670.429 352.357L664.448 358.33L664.324 358.461Z" fill="#FFFFE0"/>
<path opacity="0.28" d="M675.456 369.585L675.325 369.716L638.49 406.547L638.366 406.678L638.235 406.802L601.4 443.633L601.269 443.764L601.145 443.888L580.848 464.183L581.409 464.365L601.516 444.26L601.64 444.136L601.771 444.005L638.606 407.174L638.737 407.042L638.861 406.919L675.696 370.087L675.827 369.956L675.951 369.832L677.736 368.048C677.671 367.866 677.612 367.676 677.547 367.494L675.58 369.461L675.456 369.585Z" fill="#FFFFE0"/>
<path opacity="0.28" d="M668.039 362.169L667.908 362.3L631.073 399.131L630.942 399.255L630.818 399.386L593.962 436.217L593.83 436.341L593.707 436.472L570.43 459.74L570.918 459.994L594.071 436.844L594.202 436.713L594.333 436.589L631.168 399.758L631.292 399.627L631.423 399.503L668.273 362.672L668.396 362.541L668.528 362.409L673.358 357.587L673.103 357.099L668.156 362.038L668.039 362.169Z" fill="#FFFFE0"/>
<path opacity="0.28" d="M660.616 354.753L660.493 354.884L623.658 391.708L623.527 391.839L623.395 391.97L586.568 428.802L586.437 428.925L586.305 429.057L561.251 454.116L561.681 454.422L586.677 429.428L586.808 429.297L586.939 429.173L623.767 392.342L623.898 392.211L624.029 392.08L660.864 355.256L660.988 355.125L661.119 354.994L667.785 348.328L667.479 347.891L660.748 354.622L660.616 354.753Z" fill="#FFFFE0"/>
<path opacity="0.28" d="M679.034 373.402L642.199 410.233L642.075 410.364L641.944 410.488L605.109 447.341L604.985 447.472L604.854 447.603L586.567 465.917L587.165 466.063L605.225 448.004L605.356 447.88L605.48 447.749L642.315 410.918L642.446 410.794L642.57 410.663L679.398 373.839C679.398 373.722 679.347 373.613 679.318 373.497C679.289 373.38 679.318 373.344 679.259 373.271L679.172 373.351L679.034 373.402Z" fill="#FFFFE0"/>
<path opacity="0.28" d="M656.908 425.218L656.777 425.349L619.949 462.18L619.818 462.304L619.687 462.435L614.412 467.716L615.25 467.614L620.058 462.806L620.189 462.675L620.321 462.544L657.148 425.72L657.279 425.589L657.411 425.458L680.986 401.885C680.986 401.608 681.052 401.324 681.081 401.047L657.039 425.087L656.908 425.218Z" fill="#FFFFE0"/>
<path opacity="0.28" d="M649.491 417.838L649.36 417.969L612.525 454.793L612.401 454.924L612.27 455.056L599.295 468.029L599.987 468.08L612.642 455.427L612.773 455.296L612.897 455.165L649.732 418.334L649.863 418.21L649.994 418.079L681.387 386.624C681.387 386.39 681.387 386.165 681.336 385.932L649.622 417.671L649.491 417.838Z" fill="#FFFFE0"/>
<path opacity="0.28" d="M653.2 421.481L653.069 421.612L616.241 458.436L616.11 458.567L615.979 458.698L606.508 468.168H607.236L616.358 459.048L616.489 458.916L616.62 458.785L653.448 421.961L653.579 421.83L653.71 421.699L681.598 393.814C681.598 393.566 681.598 393.318 681.598 393.085L653.331 421.35L653.2 421.481Z" fill="#FFFFE0"/>
<path opacity="0.28" d="M645.783 414.094L645.688 414.196L608.853 451.027L608.729 451.158L608.533 451.348L592.665 467.206L593.306 467.316L608.904 451.719L609.035 451.588L609.159 451.457L645.994 414.626L646.125 414.502L646.249 414.371L680.658 379.958L680.549 379.317L645.907 413.963L645.783 414.094Z" fill="#FFFFE0"/>
<path opacity="0.28" d="M664.324 432.633L664.2 432.764L634.432 462.522C634.869 462.347 635.291 462.165 635.721 461.983L664.571 433.136L664.695 433.005L664.826 432.881L675.346 422.355C675.536 421.932 675.718 421.502 675.893 421.073L664.455 432.51L664.324 432.633Z" fill="#FFFFE0"/>
<path opacity="0.28" d="M660.615 428.925L660.492 429.057L623.657 465.917L623.525 466.041L623.445 466.128H623.576L623.78 466.077L624.429 465.924L660.856 429.501L660.98 429.37L661.111 429.246L679.2 411.064C679.288 410.736 679.361 410.408 679.441 410.08L660.725 428.802L660.615 428.925Z" fill="#FFFFE0"/>
<path opacity="0.28" d="M568.259 336.578L568.39 336.454L586.552 318.286L585.54 318.556L568.018 336.083L567.887 336.207L567.763 336.338L531.912 372.185C531.817 372.52 531.73 372.856 531.643 373.198L568.135 336.709L568.259 336.578Z" fill="#FFFFE0"/>
<path opacity="0.28" d="M548.581 341.422L554.781 335.223C552.598 337.169 550.528 339.239 548.581 341.422Z" fill="#FFFFE0"/>
<path opacity="0.28" d="M564.551 332.87L564.682 332.739L575.297 322.133L573.964 322.715L564.31 332.375L564.179 332.499L564.092 332.608L536.109 360.588C535.905 361.025 535.715 361.47 535.519 361.914L564.463 332.979L564.551 332.87Z" fill="#FFFFE0"/>
<path opacity="0.28" d="M656.784 448.339L661.708 443.415C663.085 441.907 664.397 440.341 665.65 438.731L652.092 452.28C653.702 451.034 655.276 449.716 656.784 448.339Z" fill="#FFFFE0"/>
<path opacity="0.28" d="M546.01 388.503L546.134 388.372L582.969 351.548L583.1 351.424L583.224 351.293L617.618 316.902L616.977 316.8L582.852 350.922L582.728 351.053L582.597 351.176L545.762 387.971L545.638 388.102L545.507 388.233L530.149 403.589C530.149 403.801 530.215 404.012 530.251 404.223L545.879 388.634L546.01 388.503Z" fill="#FFFFE0"/>
<path opacity="0.28" d="M538.593 381.087L538.724 380.956L575.559 344.125L575.69 343.994L575.814 343.87L603.739 315.948H603.01L575.435 343.535L575.311 343.666L575.18 343.79L538.345 380.621L538.214 380.752L538.09 380.876L529.348 389.618C529.348 389.873 529.348 390.127 529.348 390.382L538.505 381.226L538.593 381.087Z" fill="#FFFFE0"/>
<path opacity="0.28" d="M542.301 384.795L542.425 384.664L579.26 347.833L579.391 347.709L579.515 347.578L610.973 316.13L610.244 316.079L579.143 347.177L579.019 347.308L578.888 347.432L542.053 384.329L541.929 384.46L541.798 384.584L529.413 396.968L529.457 397.696L542.148 385.006L542.301 384.795Z" fill="#FFFFE0"/>
<path opacity="0.28" d="M534.877 377.379L535.008 377.248L571.843 340.417L571.967 340.286L572.098 340.162L595.718 316.538L594.858 316.662L571.727 339.791L571.596 339.914L571.472 340.046L534.637 376.877L534.506 377.008L534.382 377.132L530.011 381.502C529.967 381.794 529.923 382.078 529.887 382.369L534.746 377.51L534.877 377.379Z" fill="#FFFFE0"/>
<path opacity="0.28" d="M575.682 418.173L575.806 418.042L612.641 381.211L612.772 381.087L612.896 380.956L649.731 344.125L649.862 343.994L649.993 343.87L657.432 336.432L657.046 336.075L649.622 343.535L649.491 343.666L649.359 343.79L612.525 380.621L612.401 380.752L612.27 380.876L575.435 417.707L575.311 417.838L575.18 417.969L549.426 443.713L549.783 444.099L575.551 418.334L575.682 418.173Z" fill="#FFFFE0"/>
<path opacity="0.28" d="M568.258 410.758L568.389 410.626L605.224 373.795L605.355 373.664L605.479 373.54L642.314 336.709L642.445 336.578L642.569 336.454L649.25 329.774L648.806 329.476L642.198 336.083L642.074 336.207L641.943 336.338L605.108 373.169L604.984 373.293L604.889 373.402L568.054 410.233L567.923 410.364L567.799 410.488L542.861 435.423L543.167 435.86L568.171 410.86L568.258 410.758Z" fill="#FFFFE0"/>
<path opacity="0.28" d="M560.842 403.335L560.973 403.211L597.808 366.38L597.932 366.248L598.063 366.125L634.898 329.293L635.022 329.162L635.153 329.031L639.99 324.194L639.495 323.946L634.76 328.66L634.628 328.791L634.505 328.922L597.691 365.753L597.56 365.877L597.436 366.008L560.601 402.839L560.47 402.963L560.339 403.094L537.303 426.135L537.55 426.631L560.711 403.466L560.842 403.335Z" fill="#FFFFE0"/>
<path opacity="0.28" d="M553.426 395.919L553.557 395.788L590.385 358.964L590.516 358.833L590.647 358.702L627.475 321.87L627.599 321.746L627.73 321.615L629.529 319.816L628.968 319.634L627.358 321.244L627.227 321.375L627.103 321.499L590.268 358.33L590.137 358.461L590.006 358.592L553.164 395.416L553.033 395.547L552.902 395.678L532.969 415.609C533.027 415.799 533.085 415.988 533.151 416.17L553.273 396.05L553.426 395.919Z" fill="#FFFFE0"/>
<path opacity="0.28" d="M571.967 414.465L572.098 414.334L608.933 377.503L609.064 377.379L609.188 377.248L646.023 340.417L646.154 340.286L646.278 340.162L653.469 332.972L653.053 332.644L645.906 339.791L645.783 339.914L645.651 340.046L608.816 376.877L608.693 377.008L608.561 377.132L571.727 413.963L571.595 414.094L571.472 414.218L545.973 439.714L546.308 440.122L571.807 414.626L571.967 414.465Z" fill="#FFFFE0"/>
<path opacity="0.28" d="M564.55 407.042L564.682 406.919L601.517 370.087L601.64 369.956L601.771 369.832L638.607 333.001L638.738 332.87L638.861 332.739L644.763 326.846L644.296 326.569L638.468 332.397L638.344 332.521L638.213 332.652L601.378 369.483L601.247 369.607L601.123 369.738L564.31 406.547L564.179 406.678L564.055 406.802L539.926 430.951L540.203 431.417L564.427 407.195L564.55 407.042Z" fill="#FFFFE0"/>
<path opacity="0.28" d="M557.133 399.627L557.264 399.503L594.092 362.672L594.223 362.541L594.354 362.409L631.189 325.586L631.313 325.454L631.444 325.323L634.927 321.841L634.402 321.63L631.073 324.952L630.942 325.083L630.818 325.214L593.961 362.038L593.83 362.169L593.706 362.3L556.871 399.131L556.74 399.255L556.609 399.386L534.949 421.036L535.168 421.561L556.973 399.758L557.133 399.627Z" fill="#FFFFE0"/>
<path opacity="0.28" d="M549.718 392.211L549.841 392.08L586.676 355.256L586.808 355.125L586.939 354.994L623.766 318.162L623.198 318.024L586.582 354.637L586.451 354.768L586.319 354.899L549.484 391.723L549.361 391.854L549.229 391.985L531.358 409.825C531.409 410.022 531.46 410.219 531.504 410.415L549.586 392.342L549.718 392.211Z" fill="#FFFFE0"/>
</g>
<g opacity="0.28">
<path opacity="0.28" d="M247.096 49.5438L246.921 49.7186L246.747 49.8934L196.674 99.9608L196.499 100.136L196.324 100.31L146.252 150.378L146.077 150.56L145.902 150.735L110.859 185.774L111.384 186.255L146.405 151.237L146.58 151.063L146.755 150.888L196.827 100.82L197.002 100.646L197.177 100.471L247.257 50.4033L247.431 50.2212L247.606 50.0464L257.711 39.9426L257.23 39.4181L247.096 49.5438Z" fill="#FFFFE0"/>
<path opacity="0.28" d="M251.964 54.7596L251.789 54.9344L201.716 105.002L201.541 105.177L201.367 105.351L151.294 155.412L151.119 155.586L150.944 155.761L116.215 190.487L116.769 190.939L151.447 156.264L151.622 156.089L151.797 155.914L201.869 105.876L202.044 105.701L202.219 105.526L252.313 55.4443L252.488 55.2695L252.663 55.0874L262.425 45.326C262.272 45.1438 262.127 44.9544 261.974 44.765L252.138 54.5847L251.964 54.7596Z" fill="#FFFFE0"/>
<path opacity="0.28" d="M272.136 74.9307L271.961 75.1056L221.889 125.173L221.714 125.348L221.539 125.523L171.445 175.59L171.27 175.765L171.088 175.94L141.283 205.77L142.012 206.069L171.641 176.442L171.816 176.267L171.991 176.093L222.064 126.025L222.238 125.85L222.413 125.676L272.486 75.6082L272.661 75.4334L272.836 75.2586L277.549 70.5454C277.447 70.3123 277.353 70.0719 277.251 69.8169L272.333 74.7341L272.136 74.9307Z" fill="#FFFFE0"/>
<path opacity="0.28" d="M262.053 64.8488L261.878 65.0236L211.798 115.091L211.624 115.266L211.449 115.441L161.376 165.508L161.201 165.683L161.027 165.858L127.987 198.894L128.614 199.272L161.529 166.338L161.711 166.164L161.886 165.989L211.959 115.921L212.134 115.747L212.308 115.572L262.381 65.5044L262.556 65.3296L262.731 65.1548L270.745 57.1416L270.358 56.5152L262.228 64.6667L262.053 64.8488Z" fill="#FFFFE0"/>
<path opacity="0.28" d="M277.177 79.9717L277.003 80.1466L226.93 130.214L226.755 130.389L226.58 130.564L176.544 180.631L176.369 180.806L176.195 180.981L148.568 208.589L149.297 208.837L176.632 181.512L176.807 181.338L176.981 181.155L227.054 131.088L227.229 130.913L227.404 130.738L277.476 80.6711L277.651 80.4962L277.826 80.3214L280.252 77.9029C280.164 77.6479 280.084 77.393 279.997 77.1744L277.323 79.8479L277.177 79.9717Z" fill="#FFFFE0"/>
<path opacity="0.28" d="M267.095 69.8898L266.92 70.0646L216.848 120.132L216.673 120.307L216.498 120.482L166.418 170.549L166.244 170.724L166.069 170.899L134.436 202.529L135.099 202.878L166.579 171.438L166.754 171.263L166.928 171.088L217.001 121.021L217.176 120.846L217.351 120.671L267.423 70.6037L267.598 70.4289L267.773 70.254L274.33 63.6978L273.987 63.0349L267.263 69.7587L267.095 69.8898Z" fill="#FFFFE0"/>
<path opacity="0.28" d="M257.012 59.8005L256.837 59.9754L206.757 110.05L206.582 110.225L206.408 110.4L156.335 160.467L156.16 160.642L155.985 160.817L121.904 194.88L122.494 195.295L156.473 161.319L156.648 161.145L156.83 160.97L206.903 110.902L207.078 110.727L207.253 110.553L257.34 60.4853L257.515 60.3105L257.689 60.1356L266.753 51.0663L266.337 50.4762L257.187 59.6257L257.012 59.8005Z" fill="#FFFFE0"/>
<path opacity="0.28" d="M282.044 85.1875L231.971 135.255L231.797 135.43L231.622 135.605L181.549 185.672L181.374 185.847L181.2 186.022L156.342 210.877L157.15 211.073L181.702 186.532L181.877 186.357L182.052 186.182L232.124 136.114L232.299 135.932L232.474 135.758L282.539 85.7047L282.43 85.2458C282.43 85.1365 282.379 85.0346 282.35 84.9326L282.233 85.0491L282.044 85.1875Z" fill="#FFFFE0"/>
<path opacity="0.28" d="M251.963 155.601L251.788 155.776L201.715 205.843L201.54 206.018L201.366 206.193L194.189 213.368L195.333 213.237L201.89 206.681L202.065 206.506L202.24 206.331L252.312 156.278L252.487 156.104L252.662 155.929L284.718 123.876L284.849 122.733L252.137 155.412L251.963 155.601Z" fill="#FFFFE0"/>
<path opacity="0.28" d="M241.88 145.512L241.706 145.687L191.633 195.761L191.458 195.936L191.283 196.111L173.631 213.747L174.571 213.82L191.779 196.613L191.954 196.439L192.128 196.264L242.201 146.196L242.376 146.022L242.551 145.847L285.272 103.13C285.272 102.816 285.229 102.503 285.199 102.19L242.048 145.337L241.88 145.512Z" fill="#FFFFE0"/>
<path opacity="0.28" d="M246.922 150.56L246.747 150.735L196.675 200.802L196.5 200.977L196.325 201.152L183.408 214.067H184.428L196.813 201.684L196.988 201.509L197.163 201.334L247.243 151.267L247.418 151.092L247.593 150.917L285.477 113.037C285.477 112.694 285.477 112.352 285.477 112.017L247.046 150.436L246.922 150.56Z" fill="#FFFFE0"/>
<path opacity="0.28" d="M236.839 140.471L236.664 140.646L186.592 190.713L186.417 190.888L186.242 191.063L164.67 212.632L165.537 212.778L186.745 191.572L186.92 191.398L187.094 191.223L237.167 141.155L237.342 140.981L237.517 140.799L284.238 94.0894C284.194 93.798 284.143 93.5139 284.092 93.2225L237.014 140.296L236.839 140.471Z" fill="#FFFFE0"/>
<path opacity="0.28" d="M262.054 165.683L261.879 165.858L221.416 206.317L223.165 205.588L262.382 166.338L262.557 166.164L262.731 165.989L277.033 151.689C277.285 151.106 277.528 150.524 277.761 149.941L262.214 165.486L262.054 165.683Z" fill="#FFFFE0"/>
<path opacity="0.28" d="M257.011 160.642L256.837 160.817L206.757 210.884L206.582 211.059L206.473 211.168L206.655 211.124L206.932 211.059C207.223 210.986 207.522 210.921 207.813 210.84L257.354 161.305L257.529 161.13L257.704 160.955L282.314 136.34C282.43 135.903 282.532 135.452 282.641 135.007L257.201 160.452L257.011 160.642Z" fill="#FFFFE0"/>
<path opacity="0.28" d="M131.455 35.0983L131.63 34.9235L156.327 10.2358L154.95 10.6L131.127 34.4208L130.952 34.5957L130.777 34.7705L82.0381 83.4975C81.9142 83.9564 81.7904 84.4154 81.6738 84.8743L131.28 35.2731L131.455 35.0983Z" fill="#FFFFE0"/>
<path opacity="0.28" d="M104.695 41.6836L113.161 33.2553C110.181 35.9013 107.354 38.7153 104.695 41.6836Z" fill="#FFFFE0"/>
<path opacity="0.28" d="M126.414 30.0574L126.589 29.8825L141.014 15.4589L139.207 16.2748L126.094 29.3872L125.912 29.562L125.737 29.7368L87.6632 67.7627C87.3937 68.36 87.1314 68.9646 86.8691 69.5693L126.21 30.2322L126.414 30.0574Z" fill="#FFFFE0"/>
<path opacity="0.28" d="M251.787 187.034L258.49 180.332C260.365 178.283 262.152 176.161 263.852 173.965L245.42 192.396C247.615 190.691 249.738 188.904 251.787 187.034Z" fill="#FFFFE0"/>
<path opacity="0.28" d="M101.2 105.687L101.374 105.512L151.447 55.4443L151.622 55.2695L151.797 55.0874L198.554 8.3418L197.673 8.20339L151.294 54.5847L151.119 54.7596L150.944 54.9344L100.872 105.002L100.697 105.177L100.522 105.351L79.6494 126.229C79.6931 126.521 79.7441 126.812 79.7878 127.096L101.025 105.876L101.2 105.687Z" fill="#FFFFE0"/>
<path opacity="0.28" d="M91.116 95.5973L91.2908 95.4225L141.363 45.3551L141.538 45.1803L141.713 45.0054L179.677 7.05243H178.635L141.21 44.5028L141.035 44.6776L140.861 44.8525L90.7881 94.949L90.6133 95.1238L90.4384 95.2986L78.5195 107.187C78.5195 107.53 78.5195 107.879 78.5195 108.229L90.9703 95.7794L91.116 95.5973Z" fill="#FFFFE0"/>
<path opacity="0.28" d="M96.1568 100.646L96.3317 100.471L146.404 50.4034L146.579 50.2213L146.754 50.0464L189.512 7.29284L188.565 7.23456L146.251 49.5438L146.076 49.7186L145.902 49.8934L95.829 99.9608L95.6541 100.136L95.4793 100.31L78.6719 117.116C78.6719 117.429 78.6719 117.75 78.7302 118.063L95.982 100.82L96.1568 100.646Z" fill="#FFFFE0"/>
<path opacity="0.28" d="M86.0742 90.5782L86.2491 90.4033L136.322 40.3141L136.496 40.1393L136.671 39.9645L168.785 7.86102C168.392 7.90473 167.999 7.97029 167.612 8.02129L136.169 39.4618L135.994 39.6366L135.819 39.8115L85.7464 89.8497L85.5716 90.0245L85.3894 90.1994L79.4591 96.1291C79.4081 96.5224 79.3498 96.9158 79.2988 97.3019L85.8994 90.702L86.0742 90.5782Z" fill="#FFFFE0"/>
<path opacity="0.28" d="M141.574 146.022L141.749 145.847L191.822 95.7794L191.997 95.5973L192.171 95.4225L242.244 45.3551L242.419 45.1803L242.594 45.0054L252.677 34.8944L252.152 34.4063L242.055 44.5028L241.88 44.6776L241.705 44.8525L191.632 94.949L191.458 95.1238L191.283 95.2986L141.21 145.337L141.035 145.512L140.86 145.687L105.876 180.697L106.364 181.214L141.392 146.196L141.574 146.022Z" fill="#FFFFE0"/>
<path opacity="0.28" d="M131.455 135.932L131.63 135.758L181.703 85.6902L181.878 85.5153L182.052 85.3405L232.125 35.2732L232.3 35.0983L232.475 34.9235L241.552 25.8541C241.356 25.7084 241.152 25.5773 240.955 25.4389L231.972 34.4208L231.797 34.5957L231.622 34.7705L181.55 84.8379L181.375 85.0127L181.2 85.1875L131.128 135.255L130.953 135.43L130.778 135.605L96.8789 169.5L97.2942 170.097L131.281 136.114L131.455 135.932Z" fill="#FFFFE0"/>
<path opacity="0.28" d="M121.372 125.85L121.547 125.676L171.619 75.6082L171.794 75.4334L171.969 75.2586L222.041 25.1912L222.216 25.0164L222.391 24.8415L228.948 18.2854L228.27 17.9503L221.867 24.3607L221.692 24.5356L221.517 24.7104L171.444 74.7559L171.269 74.9307L171.087 75.1056L121.015 125.173L120.84 125.348L120.665 125.523L89.3379 156.847C89.4472 157.072 89.5565 157.298 89.673 157.524L121.175 126.025L121.372 125.85Z" fill="#FFFFE0"/>
<path opacity="0.28" d="M111.283 115.768L111.458 115.594L161.53 65.5263L161.712 65.3514L161.887 65.1766L211.96 15.1093L212.134 14.9344L212.309 14.7596L214.75 12.3119L214.021 12.0643L211.836 14.2497L211.661 14.4245L211.486 14.5993L161.377 64.6667L161.202 64.8488L161.027 65.0236L110.977 115.091L110.802 115.266L110.627 115.441L83.5254 142.54C83.6055 142.787 83.693 143.042 83.7731 143.268L111.13 115.914L111.283 115.768Z" fill="#FFFFE0"/>
<path opacity="0.28" d="M136.475 140.981L136.649 140.798L186.744 90.7311L186.919 90.5563L187.094 90.3815L237.166 40.3141L237.341 40.1393L237.516 39.9644L247.285 30.1957L246.732 29.7441L237.013 39.4618L236.838 39.6366L236.663 39.8115L186.591 89.8497L186.416 90.0245L186.241 90.1994L136.169 140.267L135.994 140.442L135.819 140.616L101.191 175.24L101.636 175.801L136.322 141.126L136.475 140.981Z" fill="#FFFFE0"/>
<path opacity="0.28" d="M126.414 130.891L126.589 130.717L176.662 80.6492L176.836 80.4744L177.011 80.2995L227.084 30.2322L227.259 30.0573L227.433 29.8825L235.447 21.8694L234.806 21.4906L226.931 29.3872L226.756 29.562L226.581 29.7368L176.545 79.7969L176.37 79.9717L176.195 80.1466L126.123 130.214L125.941 130.389L125.766 130.564L92.9814 163.344C93.1053 163.556 93.2291 163.774 93.3603 163.978L126.29 131.052L126.414 130.891Z" fill="#FFFFE0"/>
<path opacity="0.28" d="M116.331 120.809L116.506 120.635L166.579 70.5673L166.753 70.3924L166.928 70.2176L217.001 20.1502L217.176 19.9754L217.35 19.8006L222.086 15.0655L221.357 14.7742L216.84 19.2906L216.666 19.4655L216.491 19.6476L166.418 69.715L166.243 69.8898L166.069 70.0646L115.996 120.132L115.821 120.307L115.646 120.482L86.2061 149.912C86.3008 150.152 86.3955 150.392 86.4975 150.64L116.142 120.999L116.331 120.809Z" fill="#FFFFE0"/>
<path opacity="0.28" d="M106.241 110.727L106.415 110.553L156.488 60.4853L156.663 60.3105L156.845 60.1356L206.917 10.0683H206.874L206.101 9.87888L156.335 59.6257L156.16 59.8005L155.985 59.9754L105.913 110.05L105.738 110.225L105.563 110.4L81.2881 134.665C81.3537 134.942 81.4192 135.211 81.4921 135.481L106.066 110.902L106.241 110.727Z" fill="#FFFFE0"/>
</g>
<path d="M197.585 84.8014V444.168H556.988V84.8014H197.585ZM214.691 443.985H197.767V427.063H214.691V443.985ZM214.691 426.881H197.767V409.959H214.691V426.881ZM214.691 409.777H197.767V392.891H214.691V409.777ZM214.691 392.672H197.767V375.75H214.691V392.672ZM214.691 375.568H197.767V358.653H214.691V375.568ZM214.691 358.464H197.767V341.541H214.691V358.464ZM214.691 341.359H197.767V324.415H214.691V341.359ZM214.691 324.255H197.767V307.333H214.691V324.255ZM214.691 307.151H197.767V290.236H214.691V307.151ZM214.691 290.054H197.767V273.131H214.691V290.054ZM214.691 272.949H197.767V256.027H214.691V272.949ZM214.691 255.845H197.767V238.923H214.691V255.845ZM214.691 238.741H197.767V221.818H214.691V238.741ZM214.691 221.636H197.767V204.714H214.691V221.636ZM214.691 204.532H197.767V187.61H214.691V204.532ZM214.691 187.428H197.767V170.505H214.691V187.428ZM214.691 170.323H197.767V153.401H214.691V170.323ZM214.691 153.219H197.767V136.297H214.691V153.219ZM214.691 136.114H197.767V119.192H214.691V136.114ZM214.691 119.01H197.767V102.088H214.691V119.01ZM214.691 101.906H197.767V84.9836H214.691V101.906ZM231.797 443.985H214.873V427.063H231.797V443.985ZM231.797 426.881H214.873V409.959H231.797V426.881ZM231.797 409.777H214.873V392.891H231.797V409.777ZM231.797 392.672H214.873V375.75H231.797V392.672ZM231.797 375.568H214.873V358.653H231.797V375.568ZM231.797 358.464H214.873V341.541H231.797V358.464ZM231.797 341.359H214.873V324.415H231.797V341.359ZM231.797 324.255H214.873V307.333H231.797V324.255ZM231.797 307.151H214.873V290.236H231.797V307.151ZM231.797 290.054H214.873V273.131H231.797V290.054ZM231.797 272.949H214.873V256.027H231.797V272.949ZM231.797 255.845H214.873V238.923H231.797V255.845ZM231.797 238.741H214.873V221.818H231.797V238.741ZM231.797 221.636H214.873V204.714H231.797V221.636ZM231.797 204.532H214.873V187.61H231.797V204.532ZM231.797 187.428H214.873V170.505H231.797V187.428ZM231.797 170.323H214.873V153.401H231.797V170.323ZM231.797 153.219H214.873V136.297H231.797V153.219ZM231.797 136.114H214.873V119.192H231.797V136.114ZM231.797 119.01H214.873V102.088H231.797V119.01ZM231.797 101.906H214.873V84.9836H231.797V101.906ZM248.903 443.985H231.979V427.063H248.903V443.985ZM248.903 426.881H231.979V409.959H248.903V426.881ZM248.903 409.777H231.979V392.891H248.903V409.777ZM248.903 392.672H231.979V375.75H248.903V392.672ZM248.903 375.568H231.979V358.653H248.903V375.568ZM248.903 358.464H231.979V341.541H248.903V358.464ZM248.903 341.359H231.979V324.415H248.903V341.359ZM248.903 324.255H231.979V307.333H248.903V324.255ZM248.903 307.151H231.979V290.236H248.903V307.151ZM248.903 290.054H231.979V273.131H248.903V290.054ZM248.903 272.949H231.979V256.027H248.903V272.949ZM248.903 255.845H231.979V238.923H248.903V255.845ZM248.903 238.741H231.979V221.818H248.903V238.741ZM248.903 221.636H231.979V204.714H248.903V221.636ZM248.903 204.532H231.979V187.61H248.903V204.532ZM248.903 187.428H231.979V170.505H248.903V187.428ZM248.903 170.323H231.979V153.401H248.903V170.323ZM248.903 153.219H231.979V136.297H248.903V153.219ZM248.903 136.114H231.979V119.192H248.903V136.114ZM248.903 119.01H231.979V102.088H248.903V119.01ZM248.903 101.906H231.979V84.9836H248.903V101.906ZM266.009 443.985H249.085V427.063H266.009V443.985ZM266.009 426.881H249.085V409.959H266.009V426.881ZM266.009 409.777H249.085V392.891H266.009V409.777ZM266.009 392.672H249.085V375.75H266.009V392.672ZM266.009 375.568H249.085V358.653H266.009V375.568ZM266.009 358.464H249.085V341.541H266.009V358.464ZM266.009 341.359H249.085V324.415H266.009V341.359ZM266.009 324.255H249.085V307.333H266.009V324.255ZM266.009 307.151H249.085V290.236H266.009V307.151ZM266.009 290.054H249.085V273.131H266.009V290.054ZM266.009 272.949H249.085V256.027H266.009V272.949ZM266.009 255.845H249.085V238.923H266.009V255.845ZM266.009 238.741H249.085V221.818H266.009V238.741ZM266.009 221.636H249.085V204.714H266.009V221.636ZM266.009 204.532H249.085V187.61H266.009V204.532ZM266.009 187.428H249.085V170.505H266.009V187.428ZM266.009 170.323H249.085V153.401H266.009V170.323ZM266.009 153.219H249.085V136.297H266.009V153.219ZM266.009 136.114H249.085V119.192H266.009V136.114ZM266.009 119.01H249.085V102.088H266.009V119.01ZM266.009 101.906H249.085V84.9836H266.009V101.906ZM283.115 443.985H266.192V427.063H283.115V443.985ZM283.115 426.881H266.192V409.959H283.115V426.881ZM283.115 409.777H266.192V392.891H283.115V409.777ZM283.115 392.672H266.192V375.75H283.115V392.672ZM283.115 375.568H266.192V358.653H283.115V375.568ZM283.115 358.464H266.192V341.541H283.115V358.464ZM283.115 341.359H266.192V324.415H283.115V341.359ZM283.115 324.255H266.192V307.333H283.115V324.255ZM283.115 307.151H266.192V290.236H283.115V307.151ZM283.115 290.054H266.192V273.131H283.115V290.054ZM283.115 272.949H266.192V256.027H283.115V272.949ZM283.115 255.845H266.192V238.923H283.115V255.845ZM283.115 238.741H266.192V221.818H283.115V238.741ZM283.115 221.636H266.192V204.714H283.115V221.636ZM283.115 204.532H266.192V187.61H283.115V204.532ZM283.115 187.428H266.192V170.505H283.115V187.428ZM283.115 170.323H266.192V153.401H283.115V170.323ZM283.115 153.219H266.192V136.297H283.115V153.219ZM283.115 136.114H266.192V119.192H283.115V136.114ZM283.115 119.01H266.192V102.088H283.115V119.01ZM283.115 101.906H266.192V84.9836H283.115V101.906ZM300.222 443.985H283.298V427.063H300.222V443.985ZM300.222 426.881H283.298V409.959H300.222V426.881ZM300.222 409.777H283.298V392.891H300.222V409.777ZM300.222 392.672H283.298V375.75H300.222V392.672ZM300.222 375.568H283.298V358.653H300.222V375.568ZM300.222 358.464H283.298V341.541H300.222V358.464ZM300.222 341.359H283.298V324.415H300.222V341.359ZM300.222 324.255H283.298V307.333H300.222V324.255ZM300.222 307.151H283.298V290.236H300.222V307.151ZM300.222 290.054H283.298V273.131H300.222V290.054ZM300.222 272.949H283.298V256.027H300.222V272.949ZM300.222 255.845H283.298V238.923H300.222V255.845ZM300.222 238.741H283.298V221.818H300.222V238.741ZM300.222 221.636H283.298V204.714H300.222V221.636ZM300.222 204.532H283.298V187.61H300.222V204.532ZM300.222 187.428H283.298V170.505H300.222V187.428ZM300.222 170.323H283.298V153.401H300.222V170.323ZM300.222 153.219H283.298V136.297H300.222V153.219ZM300.222 136.114H283.298V119.192H300.222V136.114ZM300.222 119.01H283.298V102.088H300.222V119.01ZM300.222 101.906H283.298V84.9836H300.222V101.906ZM317.328 443.985H300.396V427.063H317.32L317.328 443.985ZM317.328 426.881H300.396V409.959H317.32L317.328 426.881ZM317.328 409.777H300.396V392.891H317.32L317.328 409.777ZM317.328 392.672H300.396V375.75H317.32L317.328 392.672ZM317.328 375.568H300.396V358.653H317.32L317.328 375.568ZM317.328 358.464H300.396V341.541H317.32L317.328 358.464ZM317.328 341.359H300.396V324.415H317.32L317.328 341.359ZM317.328 324.255H300.396V307.333H317.32L317.328 324.255ZM317.328 307.151H300.396V290.236H317.32L317.328 307.151ZM317.328 290.054H300.396V273.131H317.32L317.328 290.054ZM317.328 272.949H300.396V256.027H317.32L317.328 272.949ZM317.328 255.845H300.396V238.923H317.32L317.328 255.845ZM317.328 238.741H300.396V221.818H317.32L317.328 238.741ZM317.328 221.636H300.396V204.714H317.32L317.328 221.636ZM317.328 204.532H300.396V187.61H317.32L317.328 204.532ZM317.328 187.428H300.396V170.505H317.32L317.328 187.428ZM317.328 170.323H300.396V153.401H317.32L317.328 170.323ZM317.328 153.219H300.396V136.297H317.32L317.328 153.219ZM317.328 136.114H300.396V119.192H317.32L317.328 136.114ZM317.328 119.01H300.396V102.088H317.32L317.328 119.01ZM317.328 101.906H300.396V84.9836H317.32L317.328 101.906ZM334.434 443.985H317.51V427.063H334.434V443.985ZM334.434 426.881H317.51V409.959H334.434V426.881ZM334.434 409.777H317.51V392.891H334.434V409.777ZM334.434 392.672H317.51V375.75H334.434V392.672ZM334.434 375.568H317.51V358.653H334.434V375.568ZM334.434 358.464H317.51V341.541H334.434V358.464ZM334.434 341.359H317.51V324.415H334.434V341.359ZM334.434 324.255H317.51V307.333H334.434V324.255ZM334.434 307.151H317.51V290.236H334.434V307.151ZM334.434 290.054H317.51V273.131H334.434V290.054ZM334.434 272.949H317.51V256.027H334.434V272.949ZM334.434 255.845H317.51V238.923H334.434V255.845ZM334.434 238.741H317.51V221.818H334.434V238.741ZM334.434 221.636H317.51V204.714H334.434V221.636ZM334.434 204.532H317.51V187.61H334.434V204.532ZM334.434 187.428H317.51V170.505H334.434V187.428ZM334.434 170.323H317.51V153.401H334.434V170.323ZM334.434 153.219H317.51V136.297H334.434V153.219ZM334.434 136.114H317.51V119.192H334.434V136.114ZM334.434 119.01H317.51V102.088H334.434V119.01ZM334.434 101.906H317.51V84.9836H334.434V101.906ZM351.533 443.985H334.638V427.063H351.554L351.533 443.985ZM351.533 426.881H334.638V409.959H351.554L351.533 426.881ZM351.533 409.777H334.638V392.891H351.554L351.533 409.777ZM351.533 392.672H334.638V375.75H351.554L351.533 392.672ZM351.533 375.568H334.638V358.653H351.554L351.533 375.568ZM351.533 358.464H334.638V341.541H351.554L351.533 358.464ZM351.533 341.359H334.638V324.415H351.554L351.533 341.359ZM351.533 324.255H334.638V307.333H351.554L351.533 324.255ZM351.533 307.151H334.638V290.236H351.554L351.533 307.151ZM351.533 290.054H334.638V273.131H351.554L351.533 290.054ZM351.533 272.949H334.638V256.027H351.554L351.533 272.949ZM351.533 255.845H334.638V238.923H351.554L351.533 255.845ZM351.533 238.741H334.638V221.818H351.554L351.533 238.741ZM351.533 221.636H334.638V204.714H351.554L351.533 221.636ZM351.533 204.532H334.638V187.61H351.554L351.533 204.532ZM351.533 187.428H334.638V170.505H351.554L351.533 187.428ZM351.533 170.323H334.638V153.401H351.554L351.533 170.323ZM351.533 153.219H334.638V136.297H351.554L351.533 153.219ZM351.533 136.114H334.638V119.192H351.554L351.533 136.114ZM351.533 119.01H334.638V102.088H351.554L351.533 119.01ZM351.533 101.906H334.638V84.9836H351.554L351.533 101.906ZM368.639 443.985H351.715V427.063H368.639V443.985ZM368.639 426.881H351.715V409.959H368.639V426.881ZM368.639 409.777H351.715V392.891H368.639V409.777ZM368.639 392.672H351.715V375.75H368.639V392.672ZM368.639 375.568H351.715V358.653H368.639V375.568ZM368.639 358.464H351.715V341.541H368.639V358.464ZM368.639 341.359H351.715V324.415H368.639V341.359ZM368.639 324.255H351.715V307.333H368.639V324.255ZM368.639 307.151H351.715V290.236H368.639V307.151ZM368.639 290.054H351.715V273.131H368.639V290.054ZM368.639 272.949H351.715V256.027H368.639V272.949ZM368.639 255.845H351.715V238.923H368.639V255.845ZM368.639 238.741H351.715V221.818H368.639V238.741ZM368.639 221.636H351.715V204.714H368.639V221.636ZM368.639 204.532H351.715V187.61H368.639V204.532ZM368.639 187.428H351.715V170.505H368.639V187.428ZM368.639 170.323H351.715V153.401H368.639V170.323ZM368.639 153.219H351.715V136.297H368.639V153.219ZM368.639 136.114H351.715V119.192H368.639V136.114ZM368.639 119.01H351.715V102.088H368.639V119.01ZM368.639 101.906H351.715V84.9836H368.639V101.906ZM385.745 443.985H368.821V427.063H385.745V443.985ZM385.745 426.881H368.821V409.959H385.745V426.881ZM385.745 409.777H368.821V392.891H385.745V409.777ZM385.745 392.672H368.821V375.75H385.745V392.672ZM385.745 375.568H368.821V358.653H385.745V375.568ZM385.745 358.464H368.821V341.541H385.745V358.464ZM385.745 341.359H368.821V324.415H385.745V341.359ZM385.745 324.255H368.821V307.333H385.745V324.255ZM385.745 307.151H368.821V290.236H385.745V307.151ZM385.745 290.054H368.821V273.131H385.745V290.054ZM385.745 272.949H368.821V256.027H385.745V272.949ZM385.745 255.845H368.821V238.923H385.745V255.845ZM385.745 238.741H368.821V221.818H385.745V238.741ZM385.745 221.636H368.821V204.714H385.745V221.636ZM385.745 204.532H368.821V187.61H385.745V204.532ZM385.745 187.428H368.821V170.505H385.745V187.428ZM385.745 170.323H368.821V153.401H385.745V170.323ZM385.745 153.219H368.821V136.297H385.745V153.219ZM385.745 136.114H368.821V119.192H385.745V136.114ZM385.745 119.01H368.821V102.088H385.745V119.01ZM385.745 101.906H368.821V84.9836H385.745V101.906ZM402.851 443.985H385.927V427.063H402.851V443.985ZM402.851 426.881H385.927V409.959H402.851V426.881ZM402.851 409.777H385.927V392.891H402.851V409.777ZM402.851 392.672H385.927V375.75H402.851V392.672ZM402.851 375.568H385.927V358.653H402.851V375.568ZM402.851 358.464H385.927V341.541H402.851V358.464ZM402.851 341.359H385.927V324.415H402.851V341.359ZM402.851 324.255H385.927V307.333H402.851V324.255ZM402.851 307.151H385.927V290.236H402.851V307.151ZM402.851 290.054H385.927V273.131H402.851V290.054ZM402.851 272.949H385.927V256.027H402.851V272.949ZM402.851 255.845H385.927V238.923H402.851V255.845ZM402.851 238.741H385.927V221.818H402.851V238.741ZM402.851 221.636H385.927V204.714H402.851V221.636ZM402.851 204.532H385.927V187.61H402.851V204.532ZM402.851 187.428H385.927V170.505H402.851V187.428ZM402.851 170.323H385.927V153.401H402.851V170.323ZM402.851 153.219H385.927V136.297H402.851V153.219ZM402.851 136.114H385.927V119.192H402.851V136.114ZM402.851 119.01H385.927V102.088H402.851V119.01ZM402.851 101.906H385.927V84.9836H402.851V101.906ZM419.957 443.985H403.033V427.063H419.957V443.985ZM419.957 426.881H403.033V409.959H419.957V426.881ZM419.957 409.777H403.033V392.891H419.957V409.777ZM419.957 392.672H403.033V375.75H419.957V392.672ZM419.957 375.568H403.033V358.653H419.957V375.568ZM419.957 358.464H403.033V341.541H419.957V358.464ZM419.957 341.359H403.033V324.415H419.957V341.359ZM419.957 324.255H403.033V307.333H419.957V324.255ZM419.957 307.151H403.033V290.236H419.957V307.151ZM419.957 290.054H403.033V273.131H419.957V290.054ZM419.957 272.949H403.033V256.027H419.957V272.949ZM419.957 255.845H403.033V238.923H419.957V255.845ZM419.957 238.741H403.033V221.818H419.957V238.741ZM419.957 221.636H403.033V204.714H419.957V221.636ZM419.957 204.532H403.033V187.61H419.957V204.532ZM419.957 187.428H403.033V170.505H419.957V187.428ZM419.957 170.323H403.033V153.401H419.957V170.323ZM419.957 153.219H403.033V136.297H419.957V153.219ZM419.957 136.114H403.033V119.192H419.957V136.114ZM419.957 119.01H403.033V102.088H419.957V119.01ZM419.957 101.906H403.033V84.9836H419.957V101.906ZM437.063 443.985H420.139V427.063H437.063V443.985ZM437.063 426.881H420.139V409.959H437.063V426.881ZM437.063 409.777H420.139V392.891H437.063V409.777ZM437.063 392.672H420.139V375.75H437.063V392.672ZM437.063 375.568H420.139V358.653H437.063V375.568ZM437.063 358.464H420.139V341.541H437.063V358.464ZM437.063 341.359H420.139V324.415H437.063V341.359ZM437.063 324.255H420.139V307.333H437.063V324.255ZM437.063 307.151H420.139V290.236H437.063V307.151ZM437.063 290.054H420.139V273.131H437.063V290.054ZM437.063 272.949H420.139V256.027H437.063V272.949ZM437.063 255.845H420.139V238.923H437.063V255.845ZM437.063 238.741H420.139V221.818H437.063V238.741ZM437.063 221.636H420.139V204.714H437.063V221.636ZM437.063 204.532H420.139V187.61H437.063V204.532ZM437.063 187.428H420.139V170.505H437.063V187.428ZM437.063 170.323H420.139V153.401H437.063V170.323ZM437.063 153.219H420.139V136.297H437.063V153.219ZM437.063 136.114H420.139V119.192H437.063V136.114ZM437.063 119.01H420.139V102.088H437.063V119.01ZM437.063 101.906H420.139V84.9836H437.063V101.906ZM454.169 443.985H437.245V427.063H454.169V443.985ZM454.169 426.881H437.245V409.959H454.169V426.881ZM454.169 409.777H437.245V392.891H454.169V409.777ZM454.169 392.672H437.245V375.75H454.169V392.672ZM454.169 375.568H437.245V358.653H454.169V375.568ZM454.169 358.464H437.245V341.541H454.169V358.464ZM454.169 341.359H437.245V324.415H454.169V341.359ZM454.169 324.255H437.245V307.333H454.169V324.255ZM454.169 307.151H437.245V290.236H454.169V307.151ZM454.169 290.054H437.245V273.131H454.169V290.054ZM454.169 272.949H437.245V256.027H454.169V272.949ZM454.169 255.845H437.245V238.923H454.169V255.845ZM454.169 238.741H437.245V221.818H454.169V238.741ZM454.169 221.636H437.245V204.714H454.169V221.636ZM454.169 204.532H437.245V187.61H454.169V204.532ZM454.169 187.428H437.245V170.505H454.169V187.428ZM454.169 170.323H437.245V153.401H454.169V170.323ZM454.169 153.219H437.245V136.297H454.169V153.219ZM454.169 136.114H437.245V119.192H454.169V136.114ZM454.169 119.01H437.245V102.088H454.169V119.01ZM454.169 101.906H437.245V84.9836H454.169V101.906ZM471.275 443.985H454.351V427.063H471.275V443.985ZM471.275 426.881H454.351V409.959H471.275V426.881ZM471.275 409.777H454.351V392.891H471.275V409.777ZM471.275 392.672H454.351V375.75H471.275V392.672ZM471.275 375.568H454.351V358.653H471.275V375.568ZM471.275 358.464H454.351V341.541H471.275V358.464ZM471.275 341.359H454.351V324.415H471.275V341.359ZM471.275 324.255H454.351V307.333H471.275V324.255ZM471.275 307.151H454.351V290.236H471.275V307.151ZM471.275 290.054H454.351V273.131H471.275V290.054ZM471.275 272.949H454.351V256.027H471.275V272.949ZM471.275 255.845H454.351V238.923H471.275V255.845ZM471.275 238.741H454.351V221.818H471.275V238.741ZM471.275 221.636H454.351V204.714H471.275V221.636ZM471.275 204.532H454.351V187.61H471.275V204.532ZM471.275 187.428H454.351V170.505H471.275V187.428ZM471.275 170.323H454.351V153.401H471.275V170.323ZM471.275 153.219H454.351V136.297H471.275V153.219ZM471.275 136.114H454.351V119.192H471.275V136.114ZM471.275 119.01H454.351V102.088H471.275V119.01ZM471.275 101.906H454.351V84.9836H471.275V101.906ZM488.36 443.985H471.457V427.063H488.36V443.985ZM488.36 426.881H471.457V409.959H488.36V426.881ZM488.36 409.777H471.457V392.891H488.36V409.777ZM488.36 392.672H471.457V375.75H488.36V392.672ZM488.36 375.568H471.457V358.653H488.36V375.568ZM488.36 358.464H471.457V341.541H488.36V358.464ZM488.36 341.359H471.457V324.415H488.36V341.359ZM488.36 324.255H471.457V307.333H488.36V324.255ZM488.36 307.151H471.457V290.236H488.36V307.151ZM488.36 290.054H471.457V273.131H488.36V290.054ZM488.36 272.949H471.457V256.027H488.36V272.949ZM488.36 255.845H471.457V238.923H488.36V255.845ZM488.36 238.741H471.457V221.818H488.36V238.741ZM488.36 221.636H471.457V204.714H488.36V221.636ZM488.36 204.532H471.457V187.61H488.36V204.532ZM488.36 187.464H471.457V170.505H488.36V187.464ZM488.36 170.36H471.457V153.401H488.36V170.36ZM488.36 153.226H471.457V136.297H488.36V153.226ZM488.36 136.122H471.457V119.192H488.36V136.122ZM488.36 118.988H471.457V102.088H488.36V118.988ZM488.36 101.884H471.457V84.9836H488.36V101.884ZM505.466 443.964H488.564V427.063H505.488L505.466 443.964ZM505.466 426.859H488.564V409.959H505.488L505.466 426.859ZM505.466 409.755H488.564V392.891H505.488L505.466 409.755ZM505.466 392.65H488.564V375.75H505.488L505.466 392.65ZM505.466 375.546H488.564V358.653H505.488L505.466 375.546ZM505.466 358.442H488.564V341.541H505.488L505.466 358.442ZM505.466 341.337H488.564V324.415H505.488L505.466 341.337ZM505.466 324.233H488.564V307.333H505.488L505.466 324.233ZM505.466 307.129H488.564V290.236H505.488L505.466 307.129ZM505.466 290.032H488.564V273.131H505.488L505.466 290.032ZM505.466 272.927H488.564V256.027H505.488L505.466 272.927ZM505.466 255.823H488.564V238.923H505.488L505.466 255.823ZM505.466 238.719H488.564V221.818H505.488L505.466 238.719ZM505.466 221.614H488.564V204.714H505.488L505.466 221.614ZM505.466 204.51H488.564V187.61H505.488L505.466 204.51ZM505.466 187.406H488.564V170.505H505.488L505.466 187.406ZM505.466 170.301H488.564V153.401H505.488L505.466 170.301ZM505.466 153.197H488.564V136.297H505.488L505.466 153.197ZM505.466 136.093H488.564V119.192H505.488L505.466 136.093ZM505.466 118.988H488.564V102.088H505.488L505.466 118.988ZM505.466 101.884H488.564V84.9836H505.488L505.466 101.884ZM522.601 443.985H505.67V427.063H522.601V443.985ZM522.601 426.881H505.67V409.959H522.601V426.881ZM522.601 409.777H505.67V392.891H522.601V409.777ZM522.601 392.672H505.67V375.75H522.601V392.672ZM522.601 375.568H505.67V358.653H522.601V375.568ZM522.601 358.464H505.67V341.541H522.601V358.464ZM522.601 341.359H505.67V324.415H522.601V341.359ZM522.601 324.255H505.67V307.333H522.601V324.255ZM522.601 307.151H505.67V290.236H522.601V307.151ZM522.601 290.054H505.67V273.131H522.601V290.054ZM522.601 272.949H505.67V256.027H522.601V272.949ZM522.601 255.845H505.67V238.923H522.601V255.845ZM522.601 238.741H505.67V221.818H522.601V238.741ZM522.601 221.636H505.67V204.714H522.601V221.636ZM522.601 204.532H505.67V187.61H522.601V204.532ZM522.601 187.464H505.67V170.505H522.601V187.464ZM522.601 170.36H505.67V153.401H522.601V170.36ZM522.601 153.226H505.67V136.297H522.601V153.226ZM522.601 136.122H505.67V119.192H522.601V136.122ZM522.601 118.988H505.67V102.088H522.601V118.988ZM522.601 101.884H505.67V84.9836H522.601V101.884ZM539.707 443.964H522.776V427.063H539.7L539.707 443.964ZM539.707 426.859H522.776V409.959H539.7L539.707 426.859ZM539.707 409.755H522.776V392.891H539.7L539.707 409.755ZM539.707 392.65H522.776V375.75H539.7L539.707 392.65ZM539.707 375.546H522.776V358.653H539.7L539.707 375.546ZM539.707 358.442H522.776V341.541H539.7L539.707 358.442ZM539.707 341.337H522.776V324.415H539.7L539.707 341.337ZM539.707 324.233H522.776V307.333H539.7L539.707 324.233ZM539.707 307.129H522.776V290.236H539.7L539.707 307.129ZM539.707 290.032H522.776V273.131H539.7L539.707 290.032ZM539.707 272.927H522.776V256.027H539.7L539.707 272.927ZM539.707 255.823H522.776V238.923H539.7L539.707 255.823ZM539.707 238.719H522.776V221.818H539.7L539.707 238.719ZM539.707 221.614H522.776V204.714H539.7L539.707 221.614ZM539.707 204.51H522.776V187.61H539.7L539.707 204.51ZM539.707 187.406H522.776V170.505H539.7L539.707 187.406ZM539.707 170.301H522.776V153.401H539.7L539.707 170.301ZM539.707 153.197H522.776V136.297H539.7L539.707 153.197ZM539.707 136.093H522.776V119.192H539.7L539.707 136.093ZM539.707 118.988H522.776V102.088H539.7L539.707 118.988ZM539.707 101.884H522.776V84.9836H539.7L539.707 101.884ZM556.842 443.985H539.882V427.063H556.842V443.985ZM556.842 426.881H539.882V409.959H556.842V426.881ZM556.842 409.777H539.882V392.891H556.842V409.777ZM556.842 392.672H539.882V375.75H556.842V392.672ZM556.842 375.568H539.882V358.653H556.842V375.568ZM556.842 358.464H539.882V341.541H556.842V358.464ZM556.842 341.359H539.882V324.415H556.842V341.359ZM556.842 324.255H539.882V307.333H556.842V324.255ZM556.842 307.151H539.882V290.236H556.842V307.151ZM556.842 290.054H539.882V273.131H556.842V290.054ZM556.842 272.949H539.882V256.027H556.842V272.949ZM556.842 255.845H539.882V238.923H556.842V255.845ZM556.842 238.741H539.882V221.818H556.842V238.741ZM556.842 221.636H539.882V204.714H556.842V221.636ZM556.842 204.532H539.882V187.61H556.842V204.532ZM556.842 187.464H539.882V170.505H556.842V187.464ZM556.842 170.36H539.882V153.401H556.842V170.36ZM556.842 153.226H539.882V136.297H556.842V153.226ZM556.842 136.122H539.882V119.192H556.842V136.122ZM556.842 118.988H539.882V102.088H556.842V118.988ZM556.842 101.884H539.882V84.9836H556.842V101.884Z" fill="url(#paint0_radial_526_4043)"/>
<path d="M388.872 387.693C428.254 348.315 428.254 284.47 388.872 245.092C349.489 205.714 285.638 205.714 246.256 245.092C206.874 284.47 206.874 348.315 246.256 387.693C285.638 427.071 349.489 427.071 388.872 387.693Z" stroke="#FFFFE0" stroke-width="0.25" stroke-miterlimit="10"/>
<path d="M615.914 475.597C643.225 448.289 643.225 404.013 615.914 376.705C588.603 349.397 544.323 349.397 517.012 376.705C489.701 404.013 489.701 448.289 517.012 475.597C544.323 502.905 588.603 502.905 615.914 475.597Z" stroke="#FFFFE0" stroke-width="0.25" stroke-miterlimit="10"/>
<path d="M551.288 92.7974C605.979 147.432 606.023 236.043 551.39 290.728C496.756 345.414 408.137 345.458 353.446 290.83C298.754 236.203 210.135 236.247 155.501 290.932C100.868 345.618 100.912 434.251 155.596 488.885" stroke="#FFFFE0" stroke-width="0.25" stroke-miterlimit="10"/>
<path d="M648.695 173.204C688.077 133.826 688.077 69.9813 648.695 30.6032C609.313 -8.77497 545.461 -8.77497 506.079 30.6032C466.697 69.9813 466.697 133.826 506.079 173.204C545.461 212.582 609.313 212.582 648.695 173.204Z" stroke="#FFFFE0" stroke-width="0.25" stroke-miterlimit="10"/>
<path d="M207.663 175.896C247.045 136.518 247.045 72.6737 207.663 33.2956C168.28 -6.08257 104.429 -6.08255 65.047 33.2956C25.6648 72.6737 25.6648 136.518 65.047 175.896C104.429 215.275 168.28 215.275 207.663 175.896Z" stroke="#FFFFE0" stroke-width="0.25" stroke-miterlimit="10"/>
<g opacity="0.28">
<path opacity="0.28" d="M244.062 333.762L243.894 333.929L243.72 334.104L194.485 383.334L194.317 383.501L194.142 383.676L144.908 432.906L144.733 433.081L144.565 433.248L110.105 467.705L110.623 468.178L145.061 433.744L145.228 433.576L145.403 433.401L194.638 384.208L194.813 384.04L194.98 383.866L244.215 334.636L244.39 334.461L244.557 334.294L254.502 324.35L254.021 323.84L244.062 333.762Z" fill="#FFFFE0"/>
<path opacity="0.28" d="M248.849 338.89L248.681 339.058L199.446 388.287L199.272 388.462L199.097 388.637L149.862 437.859L149.695 438.034L149.52 438.209L115.373 472.352L115.919 472.796L150.015 438.704L150.19 438.53L150.365 438.362L199.592 389.132L199.767 388.958L199.942 388.783L249.177 339.56L249.344 339.386L249.519 339.211L259.121 329.61L258.677 329.063L249.024 338.715L248.849 338.89Z" fill="#FFFFE0"/>
<path opacity="0.28" d="M268.68 358.712L268.512 358.887L219.277 408.109L219.102 408.284L218.928 408.459L169.7 457.688L169.525 457.856L169.351 458.031L140.02 487.358L140.748 487.65L169.89 458.511L170.065 458.336L170.239 458.169L219.43 408.976L219.598 408.801L219.773 408.633L269.029 359.389L269.197 359.214L269.372 359.04L274.005 354.406C273.911 354.173 273.809 353.948 273.707 353.714L268.876 358.544L268.68 358.712Z" fill="#FFFFE0"/>
<path opacity="0.28" d="M258.764 348.805L258.596 348.972L209.362 398.202L209.187 398.377L209.012 398.551L159.748 447.781L159.581 447.949L159.406 448.123L126.964 480.606L127.583 480.984L159.945 448.619L160.12 448.444L160.295 448.276L209.529 399.047L209.697 398.872L209.872 398.697L259.106 349.475L259.274 349.3L259.449 349.125L267.317 341.258L266.945 340.638L258.931 348.652L258.764 348.805Z" fill="#FFFFE0"/>
<path opacity="0.28" d="M273.641 363.673L273.466 363.847L224.232 413.077L224.064 413.252L223.889 413.419L174.654 462.649L174.48 462.824L174.312 462.991L147.188 490.119L147.917 490.367L174.793 463.494L174.968 463.319L175.135 463.144L224.37 413.915L224.545 413.747L224.712 413.572L273.947 364.343L274.122 364.175L274.297 364L276.672 361.618C276.592 361.371 276.512 361.123 276.424 360.89L273.794 363.52L273.641 363.673Z" fill="#FFFFE0"/>
<path opacity="0.28" d="M263.726 353.758L263.551 353.933L214.316 403.148L214.149 403.323L213.974 403.49L164.739 452.72L164.564 452.895L164.397 453.062L133.288 484.168L133.944 484.503L164.892 453.558L165.067 453.39L165.235 453.215L214.469 403.986L214.644 403.818L214.812 403.643L264.046 354.414L264.221 354.239L264.389 354.071L270.844 347.617L270.508 346.962L263.93 353.612L263.726 353.758Z" fill="#FFFFE0"/>
<path opacity="0.28" d="M253.811 343.844L253.636 344.019L204.401 393.248L204.234 393.423L204.059 393.591L154.824 442.82L154.649 442.995L154.482 443.163L120.969 476.672L121.552 477.08L154.962 443.673L155.137 443.505L155.305 443.33L204.54 394.1L204.714 393.933L204.882 393.758L254.117 344.528L254.291 344.361L254.459 344.142L263.369 335.226C263.231 335.037 263.1 334.84 262.961 334.643L253.956 343.647L253.811 343.844Z" fill="#FFFFE0"/>
<path opacity="0.28" d="M278.428 368.808L229.193 418.038L229.018 418.205L228.851 418.38L179.616 467.61L179.441 467.777L179.266 467.952L154.831 492.392L155.625 492.582L179.762 468.448L179.937 468.273L180.111 468.105L229.346 418.876L229.514 418.701L229.689 418.533L278.909 369.311L278.799 368.852C278.799 368.75 278.748 368.648 278.719 368.546L278.603 368.663L278.428 368.808Z" fill="#FFFFE0"/>
<path opacity="0.28" d="M248.849 438.034L248.682 438.209L199.447 487.439L199.272 487.606L199.097 487.781L192.045 494.84L193.167 494.709L199.593 488.276L199.767 488.102L199.942 487.934L249.177 438.704L249.345 438.53L249.519 438.362L281.029 406.849C281.08 406.477 281.116 406.12 281.16 405.727L249.024 437.859L248.849 438.034Z" fill="#FFFFE0"/>
<path opacity="0.28" d="M238.933 428.12L238.766 428.295L189.531 477.524L189.356 477.692L189.181 477.867L171.835 495.211L172.76 495.277L189.677 478.362L189.852 478.187L190.027 478.02L239.261 428.79L239.429 428.615L239.604 428.448L281.604 386.444L281.538 385.526L239.108 427.952L238.933 428.12Z" fill="#FFFFE0"/>
<path opacity="0.28" d="M243.895 433.081L243.72 433.248L194.486 482.478L194.318 482.653L194.143 482.82L181.438 495.525H182.443L194.639 483.337L194.813 483.163L194.981 482.988L244.216 433.743L244.391 433.576L244.558 433.401L281.837 396.133C281.837 395.798 281.837 395.463 281.837 395.128L244.048 432.906L243.895 433.081Z" fill="#FFFFE0"/>
<path opacity="0.28" d="M233.979 423.166L233.804 423.334L184.57 472.563L184.395 472.738L184.227 472.906L163.02 494.111L163.872 494.257L184.723 473.408L184.898 473.234L185.065 473.059L234.3 423.829L234.475 423.662L234.642 423.487L280.584 377.593C280.533 377.309 280.489 377.025 280.438 376.741L234.147 423.028L233.979 423.166Z" fill="#FFFFE0"/>
<path opacity="0.28" d="M258.765 447.949L258.597 448.123L218.812 487.905L220.531 487.176L259.092 448.619L259.26 448.444L259.435 448.276L273.503 434.21C273.743 433.642 273.991 433.066 274.232 432.491L258.932 447.788L258.765 447.949Z" fill="#FFFFE0"/>
<path opacity="0.28" d="M253.81 442.995L253.636 443.163L204.401 492.392L204.233 492.567L204.124 492.676L204.299 492.633L204.576 492.567L205.435 492.356L254.131 443.658L254.306 443.49L254.481 443.316L278.683 419.116C278.792 418.679 278.894 418.242 279.003 417.805L253.978 442.82L253.81 442.995Z" fill="#FFFFE0"/>
<path opacity="0.28" d="M130.359 319.557L130.534 319.382L154.809 295.102L153.461 295.466L130.032 318.887L129.864 319.061L129.689 319.229L81.7949 367.147C81.6711 367.599 81.5472 368.043 81.4307 368.502L130.206 319.732L130.359 319.557Z" fill="#FFFFE0"/>
<path opacity="0.28" d="M104.052 326.033L112.343 317.743C109.421 320.344 106.653 323.112 104.052 326.033Z" fill="#FFFFE0"/>
<path opacity="0.28" d="M125.398 314.596L125.573 314.428L139.757 300.245C139.167 300.5 138.57 300.755 137.987 301.025L125.077 313.933L124.903 314.101L124.735 314.275L87.3317 351.675C87.0622 352.265 86.8072 352.855 86.5449 353.445L125.23 314.771L125.398 314.596Z" fill="#FFFFE0"/>
<path opacity="0.28" d="M248.681 468.943L255.238 462.387C257.074 460.371 258.83 458.283 260.505 456.122L242.387 474.239C244.563 472.554 246.661 470.788 248.681 468.943Z" fill="#FFFFE0"/>
<path opacity="0.28" d="M100.614 388.958L100.781 388.783L150.016 339.56L150.191 339.386L150.366 339.211L196.329 293.252L195.477 293.106L149.863 338.715L149.695 338.89L149.55 339.043L100.286 388.287L100.118 388.462L99.9433 388.637L79.4131 409.158C79.4568 409.449 79.5078 409.726 79.5515 410.017L100.439 389.132L100.614 388.958Z" fill="#FFFFE0"/>
<path opacity="0.28" d="M90.6977 379.043L90.8652 378.868L140.078 329.646L140.253 329.471L140.428 329.296L177.751 291.977H176.724L139.925 328.772L139.758 328.947L139.583 329.114L90.3698 378.38L90.2023 378.555L90.0274 378.73L78.3125 390.436C78.3125 390.771 78.3125 391.114 78.3125 391.456L90.552 379.218L90.6977 379.043Z" fill="#FFFFE0"/>
<path opacity="0.28" d="M95.6365 384.004L95.8114 383.829L145.046 334.599L145.214 334.425L145.388 334.257L187.433 292.217L186.5 292.159L144.893 333.762L144.718 333.929L144.551 334.104L95.3305 383.334L95.1557 383.501L94.9881 383.676L78.4648 400.234C78.4648 400.547 78.4648 400.861 78.5231 401.167L95.4835 384.208L95.6365 384.004Z" fill="#FFFFE0"/>
<path opacity="0.28" d="M85.7366 374.09L85.9115 373.915L135.146 324.685L135.314 324.51L135.489 324.343L167.034 292.771L165.876 292.931L134.979 323.847L134.804 324.015L134.636 324.19L85.4379 373.419L85.2631 373.587L85.0882 373.762L79.2599 379.589C79.2016 379.968 79.1433 380.354 79.0996 380.74L85.5909 374.25L85.7366 374.09Z" fill="#FFFFE0"/>
<path opacity="0.28" d="M140.275 428.644L140.45 428.477L189.678 379.247L189.853 379.072L190.027 378.897L239.262 329.675L239.43 329.5L239.604 329.325L249.549 319.375L249.032 318.901L239.109 328.823L238.934 328.998L238.767 329.165L189.532 378.38L189.357 378.555L189.182 378.73L139.948 427.96L139.78 428.127L139.605 428.302L105.182 462.715L105.662 463.224L140.079 428.79L140.275 428.644Z" fill="#FFFFE0"/>
<path opacity="0.28" d="M130.359 418.701L130.534 418.533L179.761 369.304L179.936 369.129L180.111 368.954L229.346 319.732L229.513 319.557L229.688 319.375L238.613 310.458L238.022 310.05L229.193 318.879L229.018 319.054L228.85 319.222L179.615 368.451L179.441 368.626L179.266 368.801L130.031 418.031L129.863 418.198L129.689 418.373L96.3652 451.7L96.7659 452.29L130.184 418.876L130.359 418.701Z" fill="#FFFFE0"/>
<path opacity="0.28" d="M120.444 408.786L120.612 408.619L169.846 359.389L170.021 359.214L170.196 359.039L219.431 309.81L219.598 309.642L219.773 309.467L226.243 302.999L225.58 302.671L219.278 308.972L219.103 309.147L218.928 309.315L169.701 358.544L169.526 358.719L169.351 358.894L120.116 408.116L119.949 408.291L119.774 408.466L88.9785 439.258L89.3064 439.921L120.269 408.961L120.444 408.786Z" fill="#FFFFE0"/>
<path opacity="0.28" d="M110.529 398.872L110.696 398.697L159.931 349.475L160.106 349.3L160.281 349.125L209.515 299.895L209.683 299.728L209.858 299.553L212.262 297.149L211.533 296.909L209.384 299.058L209.209 299.233L209.035 299.4L159.749 348.63L159.581 348.805L159.406 348.972L110.208 398.202L110.041 398.377L109.866 398.551L83.2158 425.191C83.3032 425.446 83.3761 425.694 83.4635 425.92L110.361 399.025L110.529 398.872Z" fill="#FFFFE0"/>
<path opacity="0.28" d="M135.313 423.662L135.488 423.487L184.723 374.257L184.898 374.09L185.065 373.915L234.3 324.685L234.475 324.51L234.643 324.343L244.259 314.734L243.706 314.29L234.154 323.847L233.987 324.015L233.812 324.19L184.577 373.419L184.402 373.587L184.235 373.762L134.978 422.991L134.803 423.166L134.636 423.334L100.584 457.382L101.028 457.929L135.131 423.829L135.313 423.662Z" fill="#FFFFE0"/>
<path opacity="0.28" d="M125.398 413.747L125.573 413.572L174.807 364.343L174.982 364.175L175.15 364L224.384 314.771L224.559 314.596L224.727 314.428L232.602 306.546L231.983 306.175L224.224 313.933L224.056 314.101L223.86 314.275L174.625 363.505L174.45 363.673L174.283 363.847L125.048 413.077L124.873 413.252L124.706 413.419L92.4531 445.669C92.577 445.88 92.6935 446.084 92.8247 446.295L125.201 413.915L125.398 413.747Z" fill="#FFFFE0"/>
<path opacity="0.28" d="M115.483 403.833L115.658 403.658L164.892 354.428L165.067 354.253L165.235 354.086L214.469 304.856L214.644 304.681L214.812 304.514L219.467 299.859L218.739 299.568L214.295 304.019L214.127 304.186L213.952 304.361L164.739 353.612L164.565 353.78L164.397 353.955L115.162 403.148L114.987 403.323L114.82 403.49L85.875 432.447C85.9697 432.68 86.0644 432.913 86.1664 433.175L115.308 404.037L115.483 403.833Z" fill="#FFFFE0"/>
<path opacity="0.28" d="M105.567 393.918L105.742 393.744L154.977 344.514L155.152 344.346L155.319 344.172L204.554 294.942H204.51L203.782 294.76L154.831 343.705L154.656 343.873L154.489 344.048L105.254 393.277L105.079 393.452L104.912 393.62L81.0664 417.455C81.1247 417.725 81.1903 417.987 81.2558 418.256L105.429 394.086L105.567 393.918Z" fill="#FFFFE0"/>
</g>
<defs>
<radialGradient id="paint0_radial_526_4043" cx="0" cy="0" r="1" gradientUnits="userSpaceOnUse" gradientTransform="translate(377.286 264.484) scale(179.702 179.683)">
<stop stop-color="#FFFFE0"/>
<stop offset="1" stop-color="#FFFFE0" stop-opacity="0"/>
</radialGradient>
</defs>
</svg>
