<svg width="1124" height="498" viewBox="0 0 1124 498" fill="none" xmlns="http://www.w3.org/2000/svg">
<path style="mix-blend-mode:screen" opacity="0.7" d="M16.5489 418.595L16.8065 418.266C33.6946 423.924 54.807 423.275 77.8314 416.374C99.1398 409.798 119.566 399.505 138.139 385.983C157.305 372.097 174.296 355.929 190.765 340.321C204.889 326.934 219.5 313.083 235.389 300.679C325.311 230.518 463.125 209.991 549.165 254.033C553.179 256.089 557.206 258.324 561.104 260.477C576.364 268.96 592.191 277.657 611.974 278.656C630.103 279.574 649.909 273.814 669.217 261.995C686.544 251.33 701.809 237.2 713.943 220.593C726.077 203.799 734.954 185.769 743.543 168.339C750.821 153.559 758.344 138.27 767.834 123.777C782.949 100.675 804.023 78.6646 828.794 60.0903C854.164 41.193 881.99 26.416 911.108 16.3775C940.745 6.25502 971.235 0.929178 1001.39 0.607973C1031.38 0.330811 1060.11 5.20961 1084.49 14.7594L1084.27 15.0404C1059.97 5.54028 1031.34 0.626639 1001.37 0.949551C971.277 1.26775 940.847 6.58209 911.27 16.6849C882.209 26.7126 854.438 41.462 829.114 60.3179C804.406 78.8473 783.364 100.835 768.313 123.909C758.861 138.353 751.314 153.655 744.051 168.416C735.456 185.872 726.564 203.92 714.406 220.744C702.235 237.408 686.92 251.585 669.534 262.282C650.115 274.17 630.204 279.959 611.958 279.03C592.059 278.02 576.211 269.261 560.895 260.797C557.031 258.655 552.97 256.409 548.956 254.353C463.049 210.443 325.445 230.913 235.705 300.965C219.824 313.359 205.197 327.23 191.12 340.575C174.609 356.166 157.545 372.34 138.386 386.217C119.753 399.781 99.2629 410.109 77.8874 416.71C54.7491 423.633 33.5379 424.283 16.5489 418.595Z" fill="url(#paint0_linear_10_2)"/>
<path style="mix-blend-mode:screen" opacity="0.7" d="M15.598 416.543L15.9026 416.047C31.9197 420.21 52.6054 418.509 75.7179 411.133C96.9635 404.119 117.446 394.069 136.509 381.305C138.854 379.743 141.268 378.093 143.695 376.392C159.57 365.23 173.876 353.111 187.722 341.386C202.293 329.035 217.356 316.268 233.848 305.063C258.948 288.014 288.81 275.13 314.716 264.785C347.591 251.65 374.344 243.167 398.909 238.068C436.154 230.363 472.63 229.159 504.385 234.613C517.676 236.788 530.574 240.294 542.9 245.083C549.317 247.612 555.559 250.613 562.186 253.796C568.162 256.656 574.301 259.594 580.606 262.177C589.146 265.862 598.273 268.303 607.745 269.435C625.187 271.261 643.356 267.545 661.739 258.393C678.927 249.787 694.454 237.594 707.189 222.703C719.127 208.556 728.216 193.225 736.994 178.4C744.737 165.342 752.738 151.846 762.734 139.011C778.117 119.342 798.979 100.58 823.167 84.8026C849.999 67.5542 878.846 54.4068 908.651 45.8428C939.171 37.1555 970.235 32.7694 1000.93 32.8141C1031.62 32.8849 1061.47 37.3881 1087.12 45.9363L1086.75 46.412C1061.18 37.8482 1031.43 33.3427 1000.77 33.3147C970.158 33.2772 939.174 37.6563 908.734 46.3228C879.007 54.8625 850.235 67.9731 823.473 85.1739C799.322 100.886 778.486 119.545 763.2 139.179C753.201 151.964 745.24 165.461 737.528 178.48C728.701 193.315 719.631 208.692 707.656 222.886C694.843 237.854 679.228 250.111 661.946 258.766C643.667 267.858 624.846 271.714 607.469 269.876C597.938 268.733 588.752 266.279 580.155 262.577C573.85 259.994 567.694 257.043 561.742 254.186C555.124 251.009 548.874 248.019 542.482 245.493C530.192 240.721 517.334 237.224 504.084 235.05C472.43 229.61 436.036 230.815 398.891 238.517C374.382 243.598 347.678 252.071 314.851 265.18C289.043 275.647 259.212 288.492 234.214 305.464C217.754 316.647 202.706 329.394 188.173 341.696C174.321 353.448 159.983 365.589 144.1 376.761C141.674 378.462 139.252 380.121 136.907 381.683C117.758 394.525 97.1738 404.632 75.8211 411.675C52.5456 419.082 31.7197 420.785 15.598 416.543Z" fill="url(#paint1_linear_10_2)"/>
<path style="mix-blend-mode:screen" opacity="0.7" d="M14.6096 414.519L14.9363 413.853C48.6017 419.834 98.9816 398.545 134.865 376.664C137.249 375.217 139.7 373.682 142.175 372.118C157.369 362.504 170.908 352.394 183.999 342.625C199.939 330.725 214.997 319.489 232.294 309.516C250.712 298.891 272.497 290.413 295.595 281.413C301.953 278.936 308.521 276.369 315.077 273.747C320.447 271.621 325.726 269.487 330.914 267.346C354.373 257.83 376.545 248.841 398.05 242.569C433.317 232.319 468.087 227.983 498.588 230.047C511.568 230.726 524.282 232.788 536.526 236.2C545.828 238.865 555.517 243.096 564.9 247.186C568.568 248.789 572.372 250.448 576.119 252.003C586.628 256.342 595.07 258.915 603.398 260.284C620.56 263.015 638.702 260.78 655.845 253.824C672.18 247.342 687.361 237.501 700.353 224.97C712.117 213.36 721.398 200.642 730.423 188.304C738.608 177.094 747.064 165.502 757.558 154.431C773.515 137.586 794.897 121.678 819.358 108.429C845.556 94.2029 875.577 82.8746 906.192 75.6215C967.444 61.1939 1034.36 61.8707 1089.77 77.4588L1089.37 78.1148C1034.1 62.5574 967.359 61.8888 906.262 76.2787C875.752 83.487 845.811 94.7834 819.701 108.968C795.336 122.166 774.056 137.997 758.16 154.764C747.721 165.798 739.279 177.355 731.141 188.507C722.125 200.868 712.798 213.628 700.971 225.3C687.888 237.953 672.593 247.898 656.129 254.457C638.804 261.478 620.473 263.734 603.131 260.981C594.721 259.611 586.262 257.041 575.676 252.658C571.913 251.107 568.108 249.448 564.432 247.838C555.1 243.771 545.41 239.541 536.152 236.892C523.974 233.48 511.323 231.425 498.405 230.761C468.03 228.714 433.373 233.012 398.256 243.266C376.814 249.509 354.675 258.493 331.232 268.006C326.016 270.125 320.739 272.255 315.403 274.397C308.839 277.029 302.263 279.589 295.904 282.066C272.871 291.038 251.103 299.512 232.748 310.108C215.508 320.063 200.481 331.276 184.556 343.156C171.451 352.944 157.878 363.045 142.669 372.695C140.187 374.268 137.727 375.796 135.344 377.243C99.191 399.184 48.5355 420.558 14.6096 414.519Z" fill="url(#paint2_linear_10_2)"/>
<path style="mix-blend-mode:screen" opacity="0.7" d="M13.6741 412.391L13.9901 411.559C52.2388 414.875 114.935 382.025 133.234 371.882C135.764 370.489 138.244 369.099 140.675 367.713C154.728 359.738 167.127 351.706 179.182 343.971C196.175 332.932 212.343 322.54 230.765 313.842C244 307.607 259.214 302.405 275.44 296.978C288.381 292.615 301.768 288.109 315.451 282.602C330.176 276.689 343.954 270.384 357.282 264.28C371.203 257.898 384.354 251.879 397.167 246.968C430.264 234.29 463.312 226.804 492.743 225.347C503.815 224.798 515.823 224.477 530.117 227.146C542.731 229.504 556.1 235.119 569.016 240.546L571.636 241.648C580.418 245.553 589.595 248.665 599.07 250.953C615.426 254.643 632.925 253.999 649.988 249.079C665.478 244.625 680.283 237.091 693.496 226.939C705.244 217.745 714.408 207.882 724.106 197.445C732.679 188.266 741.519 178.747 752.341 169.596C768.976 155.633 790.806 142.579 815.47 131.813C842.209 120.105 872.701 110.9 903.682 105.2C965.445 93.9143 1034.13 95.1511 1092.37 108.791L1091.89 109.611C1033.85 96.0417 965.253 94.7305 903.697 106.018C872.797 111.686 842.437 120.882 815.81 132.536C791.266 143.237 769.548 156.237 752.997 170.094C742.203 179.172 733.394 188.653 724.871 197.838C715.134 208.308 705.939 218.21 694.104 227.462C680.748 237.726 665.782 245.344 650.124 249.849C632.855 254.822 615.147 255.471 598.594 251.74C589.074 249.448 579.852 246.336 571.019 242.437L568.398 241.335C555.525 235.925 542.198 230.311 529.694 227.99C515.518 225.348 503.584 225.663 492.564 226.235C463.273 227.691 430.372 235.132 397.411 247.759C384.648 252.66 371.514 258.677 357.607 265.039C344.263 271.146 330.478 277.46 315.721 283.396C301.989 288.913 288.585 293.422 275.62 297.797C259.478 303.242 244.236 308.375 231.107 314.598C212.742 323.293 196.69 333.663 179.727 344.663C167.674 352.431 155.218 360.482 141.148 368.444C138.68 369.817 136.197 371.21 133.699 372.623C115.292 382.745 52.2515 415.785 13.6741 412.391Z" fill="url(#paint3_linear_10_2)"/>
<path style="mix-blend-mode:screen" opacity="0.7" d="M12.7596 410.2L12.9983 409.199C36.4743 408.842 76.3646 394.677 131.604 367.031L139.186 363.245C151.2 357.219 161.929 351.355 172.306 345.691C191.193 335.358 209.033 325.614 229.262 318.133C239.463 314.372 251.014 311.292 263.265 307.996C279.367 303.685 297.584 298.83 315.827 291.46C335.94 283.378 353.476 273.933 370.413 264.827C379.426 259.979 387.926 255.412 396.288 251.377C427.256 236.344 458.575 225.713 486.852 220.629C497.183 218.77 508.884 216.659 523.674 218.055C537.659 219.323 552.821 225.168 567.153 231.254C576.077 235.27 585.29 238.721 594.743 241.588C610.406 246.138 627.268 247.049 644.17 244.258C658.849 241.741 673.268 236.532 686.702 228.892C698.566 222.006 708.125 214.338 718.242 206.223C727.519 198.527 737.194 191.374 747.21 184.807C764.538 173.774 786.854 163.535 811.658 155.291C841.131 145.632 871.119 138.8 901.203 134.888C963.181 126.654 1033.81 128.612 1094.99 140.236L1094.49 141.211C1033.41 129.66 962.947 127.72 901.115 135.91C871.133 139.816 841.248 146.626 811.873 156.247C787.169 164.489 765.012 174.631 747.796 185.593C737.831 192.129 728.207 199.247 718.979 206.905C708.805 215.056 699.207 222.757 687.197 229.687C673.59 237.421 658.988 242.696 644.121 245.248C627.009 248.052 609.943 247.112 594.091 242.493C584.59 239.612 575.331 236.143 566.364 232.103C552.11 226.06 537.019 220.284 523.232 218.995C508.643 217.627 497.048 219.71 486.815 221.55C458.655 226.644 427.483 237.231 396.69 252.148C388.387 256.196 379.894 260.754 370.905 265.589C353.965 274.754 336.36 284.162 316.151 292.312C297.817 299.691 279.537 304.591 263.386 308.912C251.183 312.182 239.657 315.265 229.522 319.014C209.414 326.447 191.631 336.171 172.791 346.462C162.406 352.136 151.669 358.01 139.622 364.042L132.033 367.838C76.6113 395.61 36.4696 409.865 12.7596 410.2Z" fill="url(#paint4_linear_10_2)"/>
<path style="mix-blend-mode:screen" opacity="0.7" d="M11.888 407.948L11.9593 406.802C38.0308 403.454 83.9657 382.816 120.919 366.168L129.972 362.123C132.564 360.972 135.148 359.814 137.724 358.65C145.941 355.046 153.514 351.624 160.835 348.308C184.244 337.692 204.465 328.524 227.812 322.349C235.881 320.222 244.81 318.497 254.309 316.706C273.131 313.115 294.467 309.045 316.228 300.25C340.209 290.566 360.458 277.681 378.243 266.372C384.2 262.583 389.823 259.007 395.362 255.68C424.063 238.481 453.651 224.634 480.867 215.766L481.526 215.549C491.881 212.163 502.595 208.675 517.168 208.781C529.316 208.857 544.182 212.753 562.629 220.67L568.239 223.098C575.823 226.398 582.978 229.514 590.37 232.078C606.726 237.679 622.851 240.145 638.3 239.434C652.26 238.804 666.299 235.904 679.884 230.845C692.241 226.187 702.558 220.544 713.444 214.601C722.198 209.831 731.239 204.888 742.052 200.058C760.175 191.981 782.887 184.669 807.79 178.847C837.965 171.904 868.338 167.171 898.665 164.687C960.41 159.518 1032.91 162.106 1097.56 171.79L1097.03 172.948C1032.49 163.285 960.133 160.694 898.512 165.848C868.272 168.325 837.988 173.047 807.901 179.975C783.121 185.765 760.507 193.058 742.477 201.035C731.736 205.826 722.735 210.752 714.023 215.507C703.063 221.488 692.714 227.137 680.238 231.876C666.461 237.013 652.222 239.956 638.063 240.595C622.39 241.306 606.132 238.849 589.604 233.164C582.138 230.623 574.957 227.487 567.355 224.173L561.754 221.752C543.479 213.902 528.79 210.048 516.841 209.967C502.56 209.863 492.001 213.313 481.784 216.648L481.124 216.849C454.056 225.688 424.604 239.452 396.024 256.586C390.508 259.9 384.893 263.466 378.952 267.252C361.063 278.623 340.767 291.55 316.617 301.308C294.669 310.164 273.243 314.259 254.33 317.859C244.89 319.664 235.968 321.363 227.965 323.477C204.78 329.605 184.624 338.743 161.303 349.301C153.974 352.627 146.402 356.066 138.176 359.662C135.65 360.77 133.081 361.908 130.47 363.077L121.426 367.129C84.3435 383.835 38.2324 404.573 11.888 407.948Z" fill="url(#paint5_linear_10_2)"/>
<path style="mix-blend-mode:screen" opacity="0.7" d="M10.8982 404.358C28.1489 399.932 55.2654 388.216 83.9857 375.811C98.9608 369.333 114.487 362.617 128.352 357.109C131.059 356.037 133.685 355.02 136.232 354.058L136.452 353.974C172.659 340.327 196.583 331.312 226.324 326.61C232.643 325.607 239.489 324.863 246.732 324.077C267.798 321.776 291.679 319.191 316.572 309.098C343.665 298.129 364.719 282.288 383.299 268.302C387.145 265.41 390.777 262.684 394.375 260.056C419.918 241.363 446.846 224.933 474.81 210.98L476.07 210.373C485.749 205.596 495.759 200.647 510.595 199.557C526.934 198.374 545.411 204.647 558.054 210.138C562.094 211.887 566.046 213.695 569.86 215.446C575.413 217.983 580.648 220.389 585.993 222.566C602.653 229.335 617.849 233.264 632.457 234.562C645.819 235.746 659.484 235.135 673.112 232.744C687.023 230.33 698.935 226.603 711.62 222.729C719.459 220.303 727.552 217.803 736.899 215.349C759.116 209.708 781.491 205.41 803.898 202.479C834.684 198.262 865.473 195.602 896.152 194.51C957.354 192.309 1029.81 195.463 1100.16 203.379L1099.61 204.7C1029.38 196.746 956.96 193.618 895.884 195.836C865.294 196.908 834.591 199.54 803.892 203.723C781.569 206.639 759.28 210.918 737.147 216.536C727.819 219.02 719.743 221.517 711.912 223.949C699.181 227.882 687.168 231.595 673.169 234.067C659.356 236.476 645.507 237.088 631.965 235.89C617.205 234.571 601.864 230.611 585.067 223.768C579.63 221.584 574.385 219.171 568.877 216.559C565.063 214.808 561.12 213.007 557.089 211.264C544.617 205.84 526.377 199.622 510.383 200.848C495.97 201.899 486.153 206.745 476.668 211.435L475.409 212.042C447.57 225.953 420.762 242.32 395.327 260.934C391.739 263.569 388.106 266.295 384.268 269.177C365.585 283.241 344.412 299.179 317.078 310.278C291.901 320.483 267.836 323.07 246.648 325.402C239.438 326.182 232.617 326.93 226.355 327.914C196.756 332.614 172.945 341.574 136.859 355.172L136.64 355.256C134.065 356.219 131.454 357.227 128.808 358.281C114.959 363.786 99.4648 370.479 84.4809 376.951C55.6498 389.444 28.4905 401.143 11.0675 405.61L10.8982 404.358Z" fill="url(#paint6_linear_10_2)"/>
<path style="mix-blend-mode:screen" opacity="0.7" d="M9.76339 401.863C18.5938 398.31 30.6439 392.85 44.5977 386.518C69.5893 375.193 100.708 361.099 126.748 352.023C129.544 351.014 132.202 350.166 134.778 349.35C172.975 337.225 197.412 332.189 224.896 330.776C229.576 330.537 234.515 330.432 239.746 330.314C261.742 329.779 289.035 329.221 316.95 317.875C346.752 305.785 367.999 286.902 386.752 270.256C389.02 268.237 391.259 266.29 393.416 264.359C417.4 243.397 442.549 223.923 468.695 206.064L469.979 205.176C479.114 198.884 488.63 192.41 503.981 190.123C522.425 187.365 542.908 194.737 553.478 199.368C559.75 202.118 565.743 205.08 571.512 207.934C574.911 209.618 578.259 211.278 581.601 212.857C598.786 220.982 613.507 226.444 626.604 229.549C639.525 232.551 652.853 234.234 666.403 234.573C684.925 235.142 700.263 233.643 719.707 231.705C723.574 231.32 727.6 230.93 731.859 230.528C753.538 228.533 776.496 227.02 800.099 226.029C830.887 224.663 862.349 224.106 893.611 224.397C950.252 224.996 1018.67 228.45 1102.72 235.053L1102.18 236.535C1018.16 229.968 949.803 226.485 893.212 225.893C861.946 225.662 830.563 226.154 799.817 227.519C776.247 228.505 753.314 230.021 731.703 232.037C727.461 232.435 723.435 232.825 719.559 233.204C700.056 235.128 684.644 236.649 665.981 236.083C652.297 235.742 638.838 234.039 625.793 230.998C612.569 227.876 597.753 222.374 580.474 214.207C577.123 212.623 573.775 210.962 570.367 209.271C564.584 206.453 558.634 203.509 552.385 200.729C541.996 196.173 521.889 188.929 503.941 191.61C489.161 193.813 479.919 200.134 470.989 206.254L469.696 207.135C443.63 224.943 418.559 244.361 394.648 265.261C392.465 267.172 390.225 269.119 387.984 271.158C369.082 287.941 347.668 306.965 317.476 319.212C289.138 330.722 261.574 331.34 239.432 331.828C234.21 331.953 229.279 332.064 224.633 332.297C197.356 333.695 173.1 338.696 135.108 350.757C132.573 351.557 129.894 352.452 127.159 353.398C101.182 362.412 70.155 376.498 45.2041 387.806C31.2173 394.144 19.1584 399.598 10.2984 403.206L9.76339 401.863Z" fill="url(#paint7_linear_10_2)"/>
<path style="mix-blend-mode:screen" opacity="0.7" d="M8.61158 399.367C32.6197 385.672 84.1813 359.198 125.144 346.88C127.941 346.038 130.649 345.238 133.309 344.589C172.178 334.462 196.644 333.413 223.463 334.947C226.464 335.121 229.584 335.339 232.823 335.568C256.646 337.228 286.281 339.298 317.319 326.667C349.594 313.517 371.496 290.595 389.101 272.158L392.436 268.669C413.355 246.914 435.657 225.44 462.564 201.155L463.603 200.204C471.896 192.698 481.291 184.196 497.332 180.665C511.65 177.521 530.424 180.402 548.839 188.542C557.542 192.394 565.456 196.714 573.118 200.89L577.146 203.096C594.196 212.332 608.117 219.511 620.689 224.493C633.29 229.423 646.317 233.418 659.676 236.453C680.481 241.358 698.663 243.9 726.782 245.823C745.508 247.147 768.139 248.281 794.341 249.614L815.053 250.595C838.007 251.675 864.027 252.901 891.084 254.365C917.11 255.815 943.846 257.473 972.162 259.233C1016.33 261.969 1062.03 264.823 1105.31 266.797L1104.77 268.457C1061.45 266.449 1015.74 263.596 971.589 260.883C943.281 259.13 916.572 257.491 890.528 256.027C863.523 254.588 837.468 253.335 814.531 252.251L793.793 251.268C767.583 249.944 744.982 248.755 726.192 247.476C697.964 245.548 679.681 242.992 658.748 238.053C645.329 235.001 632.241 230.995 619.575 226.062C606.932 221.042 592.944 213.843 575.884 204.6L571.832 202.391C564.236 198.202 556.332 193.922 547.69 190.1C529.619 182.096 511.324 179.249 497.52 182.312C482.215 185.694 473.471 193.579 465.037 201.212L463.997 202.163C437.13 226.415 414.891 247.827 393.995 269.552L390.66 273.042C372.883 291.662 350.724 314.859 317.976 328.183C286.359 341.049 256.397 338.967 232.322 337.287C229.099 337.055 225.987 336.844 222.977 336.647C196.323 335.081 172.101 336.142 133.552 346.184C130.977 346.85 128.232 347.59 125.495 348.446C84.7771 360.684 33.4236 387.018 9.53885 400.681L8.61158 399.367Z" fill="url(#paint8_linear_10_2)"/>
<path style="mix-blend-mode:screen" opacity="0.7" d="M7.43455 396.826C28.4827 380.732 80.5357 352.587 123.536 341.651C126.363 340.92 129.171 340.284 131.868 339.737C171.088 331.777 196.925 334.869 222.042 339.08L225.555 339.67C249.903 343.801 283.237 349.451 317.678 335.404C352.12 321.357 373.555 295.006 390.684 273.87L391.455 272.884C412.028 247.544 431.96 224.466 449.518 204.078L457.101 195.287C464.94 186.186 473.811 175.874 490.626 171.063C505.498 166.789 525.529 169.251 544.253 177.598C554.118 182.19 563.635 187.409 572.753 193.227C579.416 197.319 585.486 201.18 591.362 204.926C599.686 210.229 607.544 215.225 614.817 219.386C628.549 227.232 641.748 233.309 652.847 238.217C674.714 248.193 697.752 255.843 721.633 261.059C740.299 265.265 763.44 269.282 792.361 273.33C818.556 276.992 850.053 280.559 888.504 284.371C974.422 292.955 1046.21 297.567 1107.85 298.575L1107.35 300.407C1045.63 299.389 973.814 294.74 887.798 286.175C849.265 282.395 817.791 278.799 791.567 275.193C762.576 271.124 739.399 267.063 720.642 262.883C696.627 257.644 673.454 249.969 651.449 239.968C640.315 235.033 627.063 228.932 613.262 221.049C605.963 216.869 598.087 211.859 589.745 206.543C583.87 202.813 577.792 198.945 571.154 194.874C562.105 189.089 552.658 183.901 542.862 179.339C524.614 171.195 505.198 168.776 490.918 172.87C474.959 177.434 466.747 186.975 458.808 196.203L451.217 205.005C433.657 225.359 413.733 248.428 393.2 273.752L392.429 274.737C375.092 296.139 353.503 322.688 318.272 337.094C283.042 351.501 249.289 345.738 224.632 341.498L221.128 340.915C196.222 336.723 170.697 333.646 131.865 341.525C129.218 342.062 126.468 342.695 123.69 343.4C81.1749 354.202 29.6073 382.087 8.75876 398.034L7.43455 396.826Z" fill="url(#paint9_linear_10_2)"/>
<path style="mix-blend-mode:screen" opacity="0.7" d="M6.27355 394.25C26.6027 374.041 79.0716 345.309 121.954 336.338C124.829 335.732 127.685 335.222 130.43 334.817C169.802 328.944 195.644 336.178 220.647 343.185C242.779 349.385 279.843 359.728 318.06 344.123C354.813 329.108 375.411 299.081 390.462 277.153C400.817 262.112 410.873 247.724 420.592 233.821C431.116 218.782 441.05 204.585 450.259 191.082L450.622 190.618C457.96 179.85 466.282 167.641 483.944 161.472C499.535 155.982 520.369 157.958 539.654 166.642C549.742 171.366 559.338 176.96 568.349 183.369C579.427 190.993 589.07 198.646 597.576 205.407C601.531 208.545 605.272 211.506 608.953 214.327C621.954 224.258 634.467 232.592 646.051 240.111C668.119 254.443 688.542 266.113 716.549 276.482C736.236 283.803 760.446 290.76 788.56 297.183C816.674 303.606 849.362 309.327 886.003 314.488C941.114 322.319 1024.8 331.451 1110.51 330.457L1110.03 332.448C1024.15 333.441 940.349 324.272 885.144 316.417C848.443 311.241 815.588 305.41 787.512 299.063C759.437 292.717 734.993 285.645 715.21 278.283C687.048 267.86 666.503 256.129 644.347 241.73C632.728 234.184 620.188 225.829 607.142 215.865C603.464 213.077 599.738 210.097 595.765 206.945C587.278 200.214 577.653 192.574 566.627 184.974C557.708 178.629 548.208 173.093 538.221 168.419C519.507 159.98 499.434 158.061 484.53 163.268C467.877 169.086 459.836 180.862 452.742 191.265L452.379 191.729C443.177 205.206 433.221 219.448 422.697 234.488C412.978 248.391 402.921 262.762 392.613 277.76C377.355 299.988 356.467 330.424 318.831 345.809C279.618 361.838 241.995 351.308 219.528 345.012C194.704 338.156 169.112 331.017 130.371 336.77C127.684 337.172 124.894 337.67 122.114 338.3C81.0374 346.893 28.0252 375.543 8.07145 395.345L6.27355 394.25Z" fill="url(#paint10_linear_10_2)"/>
<path style="mix-blend-mode:screen" opacity="0.7" d="M5.14342 391.617C22.9768 369.036 76.0421 338.291 120.372 330.937C123.311 330.453 126.224 330.076 129.009 329.806C166.19 326.239 190.128 335.712 215.47 345.76L219.234 347.242C245.991 357.795 281.445 367.973 318.445 352.81C354.177 338.183 373.846 308.245 389.489 281.341L395.959 270.23C413.345 240.391 429.767 212.201 444.106 185.931C450.92 173.441 458.654 159.269 477.172 151.709C496.377 143.85 519.623 148.511 534.971 155.493C545.3 160.326 554.981 166.295 563.859 173.304C576.886 183.272 587.465 193.764 596.893 203.069L602.935 209.035C616.045 221.808 628.567 232.764 639.096 241.8C658.67 258.589 680.965 276.275 711.278 291.777C731.872 302.325 756.532 312.124 784.591 320.922C816.835 330.725 849.808 338.623 883.359 344.58C937.779 354.583 1021.77 365.778 1112.97 362.377L1112.54 364.523C1021.1 367.892 936.847 356.698 882.299 346.677C848.646 340.707 815.575 332.782 783.239 322.94C755.06 314.114 730.278 304.254 709.58 293.659C679.069 278.085 656.668 260.335 637.004 243.462C626.457 234.412 613.908 223.436 600.77 210.61C598.785 208.68 596.77 206.68 594.711 204.647C585.38 195.399 574.784 184.91 561.855 175.017C553.095 168.098 543.544 162.207 533.353 157.435C518.518 150.684 496.172 146.137 477.925 153.603C460.512 160.709 453.055 174.382 446.481 186.439C432.128 212.745 415.699 240.945 398.297 270.804L391.842 281.895C375.936 309.246 355.928 339.651 319.214 354.684C281.133 370.289 245 359.913 217.727 349.205L213.962 347.723C188.924 337.794 165.262 328.42 128.784 331.921C126.065 332.178 123.237 332.556 120.373 333.034C76.8163 340.249 24.7442 370.376 7.29009 392.471L5.14342 391.617Z" fill="url(#paint11_linear_10_2)"/>
<path style="mix-blend-mode:screen" opacity="0.7" d="M4.01994 388.909C21.5382 360.948 76.2442 330.707 118.823 325.485C121.8 325.104 124.753 324.862 127.612 324.74C163.632 323.138 186.436 334.99 210.579 347.541L217.846 351.297C255.567 370.57 288.602 373.909 318.837 361.51C354.445 346.898 373.363 316.349 388.525 285.512C404.101 253.836 422.166 216.622 437.906 180.696C443.694 167.424 450.895 150.897 470.368 141.855C483.498 135.76 506.131 133.188 530.29 144.251C540.889 149.202 550.676 155.56 559.425 163.176C573.296 174.906 583.984 187.952 593.472 199.487L596.977 203.723C607.169 216.061 618.041 228.346 632.172 243.495C651.051 263.555 674.603 286.809 706.092 307.092C727.461 320.889 752.564 333.552 780.728 344.713C813.051 357.243 846.496 367.288 880.81 374.77C958.781 392.253 1039.95 399.05 1115.56 394.366L1115.17 396.677C1039.24 401.338 957.791 394.551 879.547 377.019C842.658 368.769 808.872 358.654 779.062 346.861C750.767 335.633 725.523 322.895 704.049 309.034C672.383 288.633 648.732 265.288 629.763 245.144C615.613 229.964 604.732 217.673 594.494 205.284L590.99 201.049C581.547 189.564 570.907 176.602 557.169 164.973C548.575 157.487 538.966 151.233 528.562 146.352C514.026 139.693 490.315 135.035 471.382 143.839C453.127 152.32 446.172 168.261 440.597 181.061C424.791 217.017 406.712 254.267 391.138 285.976C375.718 317.36 356.41 348.498 319.668 363.546C288.398 376.344 254.521 373.031 216.005 353.36L208.729 349.598C184.901 337.207 162.369 325.514 127.155 327.046C124.379 327.17 121.511 327.412 118.634 327.774C77.0103 332.899 23.5423 362.372 6.46588 389.642L4.01994 388.909Z" fill="url(#paint12_linear_10_2)"/>
<path style="mix-blend-mode:screen" opacity="0.7" d="M2.89566 386.115C18.3662 355.109 72.8598 323.52 117.183 319.865C120.224 319.607 123.234 319.499 126.134 319.513C161.491 319.697 184.568 334.676 206.896 349.087C210.037 351.136 213.194 353.182 216.347 355.16C241.356 370.955 279.544 386.295 319.164 370.005C356.351 354.72 374.565 320.713 387.476 289.476C405.56 245.795 420.02 208.436 431.706 175.242C436.568 161.343 443.243 142.33 463.547 131.782C484.376 120.998 509.986 125.584 525.574 132.78C536.409 137.862 546.273 144.605 554.862 152.8C568.958 165.862 579.303 181.143 588.425 194.628L590.86 198.215C601.256 213.503 612.448 228.826 625.094 245.014C651.135 278.194 674.464 302.038 700.745 322.327C724.287 340.287 749.718 355.736 776.702 368.47C809.082 383.706 843.024 395.931 878.157 405.011C956.491 425.669 1039.42 433.046 1118.07 426.421L1117.74 428.894C1038.69 435.552 955.385 428.155 876.715 407.4C841.425 398.312 807.329 386.066 774.799 370.794C747.672 357.991 722.108 342.457 698.445 324.397C672.03 304.007 648.592 280.065 622.441 246.754C609.775 230.519 598.556 215.176 588.131 199.834L585.697 196.247C576.18 182.195 566.344 167.662 552.401 154.749C543.986 146.725 534.328 140.118 523.723 135.128C508.79 128.239 484.398 123.785 464.793 133.929C445.741 143.765 439.36 162.13 434.661 175.567C422.96 208.798 408.478 246.203 390.38 289.921C377.208 321.783 358.56 356.489 320.074 372.31C279.016 389.187 239.849 373.5 214.225 357.366C211.036 355.36 207.87 353.308 204.713 351.262C182.741 336.994 160.027 322.259 125.514 322.05C122.705 322.01 119.78 322.119 116.883 322.392C74.4822 325.858 20.4374 357.091 5.69524 386.639L2.89566 386.115Z" fill="url(#paint13_linear_10_2)"/>
<path style="mix-blend-mode:screen" opacity="0.7" d="M1.77177 383.251C15.1084 349.65 70.4309 316.103 115.651 314.166C118.75 314.042 121.809 314.078 124.766 314.226C159.846 316.196 182.225 333.721 203.938 350.678C207.527 353.495 211.239 356.389 214.927 359.17C235.048 374.269 275.395 396.871 319.576 378.666C358.174 362.762 375.078 326.728 386.523 293.581C402.091 248.556 414.847 208.092 425.531 169.878C429.548 155.477 435.564 133.789 456.739 121.771C470.252 114.095 495.162 109.384 520.894 121.346C531.988 126.574 541.947 133.719 550.38 142.501C564.494 156.804 573.928 173.506 583.062 189.648L584.869 192.795C595.195 211.015 606.379 229.139 618.148 246.676C643.264 284.121 667.865 313.07 695.495 337.781C719.129 358.771 745.019 377.096 772.794 392.497C805.205 410.318 839.631 424.669 875.589 435.347C954.474 459.192 1039.23 467.217 1120.65 458.553L1120.39 461.195C1038.46 469.888 953.231 461.819 873.924 437.859C837.775 427.125 803.167 412.695 770.588 394.773C742.664 379.297 716.64 360.875 692.888 339.77C665.15 314.977 640.457 285.91 615.161 248.313C603.398 230.749 592.187 212.588 581.824 194.324L580.061 191.211C570.994 175.167 561.618 158.589 547.686 144.455C539.447 135.872 529.716 128.89 518.876 123.782C494.334 112.372 470.838 116.713 458.189 123.902C439.899 134.285 433.805 151.615 428.696 169.979C417.999 208.245 405.221 248.756 389.647 293.825C384.759 307.994 377.687 326.375 366.323 342.93C353.945 360.983 338.965 373.447 320.518 381.046C274.583 399.966 233.114 376.815 212.476 361.34C208.778 358.536 205.018 355.684 201.452 352.821C180.102 336.109 158.02 318.824 123.877 316.947C121.038 316.792 118.098 316.768 115.126 316.893C71.3033 318.699 17.7233 351.11 4.85053 383.571L1.77177 383.251Z" fill="url(#paint14_linear_10_2)"/>
<path style="mix-blend-mode:screen" opacity="0.7" d="M0.654002 380.3C12.1636 343.49 67.2566 308.583 114.01 308.456C117.124 308.452 120.218 308.608 123.28 308.923C158.318 312.515 180.24 332.703 201.365 352.161C205.304 355.784 209.37 359.536 213.423 363.087C262.556 405.998 307.362 392.441 319.946 387.282C360.142 370.689 376.113 330.65 385.532 297.627C398.615 251.71 409.992 206.899 419.295 164.377C423.627 144.536 429.55 124.12 449.861 111.63C470.822 98.7263 498.263 101.404 516.161 109.782C527.506 115.147 537.55 122.685 545.808 132.032C559.675 147.318 568.485 165.827 577.022 183.7L578.696 187.194C588.597 208.009 599.462 228.521 610.987 248.152C635.283 289.486 661.168 323.807 690.073 353.044C713.827 377.022 740.172 398.23 768.719 416.354C801.14 436.775 836.059 453.307 872.875 465.664C952.477 492.663 1038.98 501.37 1123.14 490.718L1122.94 493.498C1038.23 504.248 951.121 495.529 871.039 468.341C834.018 455.905 798.902 439.277 766.296 418.743C737.599 400.525 711.116 379.207 687.237 355.105C658.168 325.712 632.189 291.256 607.798 249.77C596.243 230.086 585.351 209.536 575.428 188.658L573.755 185.163C565.285 167.422 556.52 149.074 542.88 133.991C534.831 124.867 525.037 117.508 513.973 112.271C496.986 104.314 471.075 101.684 451.532 113.74C432.549 125.426 426.882 145.113 422.69 164.282C413.365 206.851 401.993 251.729 388.886 297.676C379.256 331.461 362.825 372.453 320.946 389.742C301.303 397.859 280.516 398.813 259.217 392.544C237.917 386.276 221.007 374.228 210.688 365.272C206.609 361.701 202.533 357.943 198.586 354.312C177.732 335.109 156.173 315.259 122.167 311.751C119.23 311.467 116.262 311.338 113.276 311.365C68.2237 311.431 15.0516 345.029 3.99737 380.436L0.654002 380.3Z" fill="url(#paint15_linear_10_2)"/>
<path d="M1043.21 328.578C1080.61 328.578 1110.93 298.265 1110.93 260.872C1110.93 223.479 1080.61 193.167 1043.21 193.167C1005.81 193.167 975.492 223.479 975.492 260.872C975.492 298.265 1005.81 328.578 1043.21 328.578Z" fill="url(#paint16_radial_10_2)"/>
<defs>
<linearGradient id="paint0_linear_10_2" x1="537.797" y1="109.765" x2="583.369" y2="289.865" gradientUnits="userSpaceOnUse">
<stop stop-color="#FFFFE0"/>
<stop offset="1" stop-color="#FEFCFF"/>
</linearGradient>
<linearGradient id="paint1_linear_10_2" x1="540.598" y1="138.818" x2="577.668" y2="285.344" gradientUnits="userSpaceOnUse">
<stop stop-color="#FFFFE0"/>
<stop offset="1" stop-color="#FEFCFF"/>
</linearGradient>
<linearGradient id="paint2_linear_10_2" x1="543.307" y1="167.23" x2="572.201" y2="281.457" gradientUnits="userSpaceOnUse">
<stop stop-color="#FFFFE0"/>
<stop offset="1" stop-color="#FEFCFF"/>
</linearGradient>
<linearGradient id="paint3_linear_10_2" x1="545.918" y1="194.691" x2="566.897" y2="277.641" gradientUnits="userSpaceOnUse">
<stop stop-color="#FFFFE0"/>
<stop offset="1" stop-color="#FEFCFF"/>
</linearGradient>
<linearGradient id="paint4_linear_10_2" x1="546.231" y1="205.065" x2="563.958" y2="275.161" gradientUnits="userSpaceOnUse">
<stop stop-color="#FFFFE0"/>
<stop offset="1" stop-color="#FEFCFF"/>
</linearGradient>
<linearGradient id="paint5_linear_10_2" x1="544.387" y1="199.2" x2="571.296" y2="305.616" gradientUnits="userSpaceOnUse">
<stop stop-color="#FFFFE0"/>
<stop offset="1" stop-color="#FEFCFF"/>
</linearGradient>
<linearGradient id="paint6_linear_10_2" x1="542.184" y1="190.525" x2="578.982" y2="336.052" gradientUnits="userSpaceOnUse">
<stop stop-color="#FFFFE0"/>
<stop offset="1" stop-color="#FEFCFF"/>
</linearGradient>
<linearGradient id="paint7_linear_10_2" x1="539.713" y1="180.906" x2="586.656" y2="366.557" gradientUnits="userSpaceOnUse">
<stop stop-color="#FFFFE0"/>
<stop offset="1" stop-color="#FEFCFF"/>
</linearGradient>
<linearGradient id="paint8_linear_10_2" x1="537.144" y1="170.74" x2="594.387" y2="397.121" gradientUnits="userSpaceOnUse">
<stop stop-color="#FFFFE0"/>
<stop offset="1" stop-color="#FEFCFF"/>
</linearGradient>
<linearGradient id="paint9_linear_10_2" x1="534.512" y1="160.173" x2="602.177" y2="427.751" gradientUnits="userSpaceOnUse">
<stop stop-color="#FFFFE0"/>
<stop offset="1" stop-color="#FEFCFF"/>
</linearGradient>
<linearGradient id="paint10_linear_10_2" x1="531.857" y1="149.342" x2="610.025" y2="458.427" gradientUnits="userSpaceOnUse">
<stop stop-color="#FFFFE0"/>
<stop offset="1" stop-color="#FEFCFF"/>
</linearGradient>
<linearGradient id="paint11_linear_10_2" x1="529.17" y1="138.258" x2="617.922" y2="489.154" gradientUnits="userSpaceOnUse">
<stop stop-color="#FFFFE0"/>
<stop offset="1" stop-color="#FEFCFF"/>
</linearGradient>
<linearGradient id="paint12_linear_10_2" x1="526.459" y1="127.004" x2="625.863" y2="519.955" gradientUnits="userSpaceOnUse">
<stop stop-color="#FFFFE0"/>
<stop offset="1" stop-color="#FEFCFF"/>
</linearGradient>
<linearGradient id="paint13_linear_10_2" x1="523.718" y1="115.442" x2="633.869" y2="550.792" gradientUnits="userSpaceOnUse">
<stop stop-color="#FFFFE0"/>
<stop offset="1" stop-color="#FEFCFF"/>
</linearGradient>
<linearGradient id="paint14_linear_10_2" x1="520.985" y1="103.836" x2="641.919" y2="581.695" gradientUnits="userSpaceOnUse">
<stop stop-color="#FFFFE0"/>
<stop offset="1" stop-color="#FEFCFF"/>
</linearGradient>
<linearGradient id="paint15_linear_10_2" x1="518.186" y1="91.8721" x2="650.02" y2="612.668" gradientUnits="userSpaceOnUse">
<stop stop-color="#FFFFE0"/>
<stop offset="1" stop-color="#FEFCFF"/>
</linearGradient>
<radialGradient id="paint16_radial_10_2" cx="0" cy="0" r="1" gradientUnits="userSpaceOnUse" gradientTransform="translate(1080.51 222.517) rotate(44.9947) scale(105.768)">
<stop stop-color="#AAFF00"/>
<stop offset="1" stop-color="#00FFE0" stop-opacity="0"/>
</radialGradient>
</defs>
</svg>
