<svg width="172" height="172" viewBox="0 0 172 172" fill="none" xmlns="http://www.w3.org/2000/svg">
<path opacity="0.28" d="M139.616 35.4058L139.472 35.5502L139.327 35.6946L97.979 77.0385L97.8346 77.1829L97.6902 77.3272L56.3421 118.671L56.1977 118.822L56.0533 118.966L27.1162 147.9L27.5494 148.297L56.4684 119.381L56.6128 119.237L56.7572 119.092L98.1053 77.7483L98.2497 77.6039L98.3941 77.4596L139.748 36.1157L139.893 35.9653L140.037 35.8209L148.381 27.4775L147.984 27.0444L139.616 35.4058Z" fill="#FFFFE0"/>
<path opacity="0.28" d="M143.635 39.7129L143.49 39.8572L102.142 81.2011L101.998 81.3455L101.853 81.4899L60.5052 122.828L60.3608 122.972L60.2164 123.116L31.538 151.792L31.9952 152.165L60.6315 123.532L60.7759 123.387L60.9203 123.243L102.268 81.923L102.413 81.7786L102.557 81.6342L143.923 40.2783L144.068 40.1339L144.212 39.9836L152.274 31.9229C152.147 31.7725 152.027 31.6161 151.901 31.4597L143.779 39.5685L143.635 39.7129Z" fill="#FFFFE0"/>
<path opacity="0.28" d="M160.293 56.3695L160.149 56.5139L118.8 97.8578L118.656 98.0022L118.512 98.1466L77.1455 139.49L77.0011 139.635L76.8507 139.779L52.2391 164.412L52.8407 164.659L77.3079 140.194L77.4523 140.05L77.5967 139.906L118.945 98.5616L119.089 98.4173L119.234 98.2729L160.582 56.929L160.726 56.7846L160.871 56.6402L164.763 52.7483C164.679 52.5558 164.6 52.3573 164.516 52.1467L160.455 56.2071L160.293 56.3695Z" fill="#FFFFE0"/>
<path opacity="0.28" d="M151.967 48.0442L151.822 48.1886L110.468 89.5325L110.324 89.6769L110.179 89.8212L68.8312 131.165L68.6868 131.31L68.5424 131.454L41.2597 158.734L41.7771 159.047L68.9575 131.851L69.1079 131.707L69.2523 131.562L110.6 90.2183L110.745 90.0739L110.889 89.9295L152.237 48.5856L152.382 48.4412L152.526 48.2969L159.144 41.6799L158.825 41.1626L152.111 47.8938L151.967 48.0442Z" fill="#FFFFE0"/>
<path opacity="0.28" d="M164.456 60.5321L164.311 60.6765L122.963 102.02L122.819 102.165L122.674 102.309L81.3564 143.653L81.212 143.797L81.0676 143.942L58.2548 166.74L58.8564 166.945L81.4286 144.381L81.5729 144.236L81.7173 144.086L123.065 102.742L123.21 102.598L123.354 102.453L164.702 61.1096L164.847 60.9652L164.991 60.8208L166.995 58.8237C166.922 58.6132 166.856 58.4026 166.784 58.2222L164.576 60.4298L164.456 60.5321Z" fill="#FFFFE0"/>
<path opacity="0.28" d="M156.13 52.2069L155.985 52.3513L114.637 93.6952L114.493 93.8395L114.348 93.9839L72.9943 135.328L72.8499 135.472L72.7055 135.617L46.5839 161.735L47.1314 162.024L73.1266 136.062L73.271 135.917L73.4154 135.773L114.764 94.429L114.908 94.2847L115.052 94.1403L156.4 52.7964L156.545 52.652L156.689 52.5077L162.104 47.0938L161.821 46.5464L156.268 52.0986L156.13 52.2069Z" fill="#FFFFE0"/>
<path opacity="0.28" d="M147.804 43.8755L147.659 44.0199L106.305 85.3698L106.161 85.5142L106.016 85.6585L64.668 127.002L64.5236 127.147L64.3792 127.291L36.2363 155.419L36.7236 155.762L64.7823 127.706L64.9267 127.562L65.0771 127.417L106.425 86.0736L106.57 85.9292L106.714 85.7849L148.074 44.441L148.219 44.2966L148.363 44.1522L155.847 36.663L155.504 36.1758L147.948 43.7311L147.804 43.8755Z" fill="#FFFFE0"/>
<path opacity="0.28" d="M168.474 64.8392L127.126 106.183L126.982 106.327L126.837 106.472L85.4892 147.816L85.3448 147.96L85.2005 148.104L64.6738 168.629L65.3415 168.791L85.6156 148.526L85.7599 148.381L85.9043 148.237L127.252 106.893L127.397 106.743L127.541 106.598L168.883 65.2663L168.793 64.8873C168.793 64.7971 168.751 64.7129 168.727 64.6287L168.631 64.7249L168.474 64.8392Z" fill="#FFFFE0"/>
<path opacity="0.28" d="M143.635 122.984L143.49 123.128L102.142 164.472L101.998 164.617L101.853 164.761L95.9277 170.686L96.8722 170.578L102.287 165.164L102.431 165.02L102.575 164.875L143.924 123.543L144.068 123.399L144.212 123.255L170.683 96.787L170.791 95.8425L143.779 122.828L143.635 122.984Z" fill="#FFFFE0"/>
<path opacity="0.28" d="M135.309 114.653L135.165 114.797L93.8167 156.147L93.6723 156.291L93.528 156.436L78.9511 170.999L79.7272 171.059L93.937 156.851L94.0814 156.707L94.2258 156.562L135.574 115.218L135.718 115.074L135.863 114.929L171.141 79.6551C171.141 79.3965 171.105 79.1378 171.081 78.8792L135.448 114.508L135.309 114.653Z" fill="#FFFFE0"/>
<path opacity="0.28" d="M139.471 118.821L139.327 118.966L97.9786 160.31L97.8342 160.454L97.6898 160.598L87.0234 171.264H87.8656L98.0929 161.038L98.2373 160.893L98.3816 160.749L139.736 119.405L139.88 119.261L140.025 119.116L171.308 87.8361C171.308 87.5533 171.308 87.2706 171.308 86.9939L139.573 118.719L139.471 118.821Z" fill="#FFFFE0"/>
<path opacity="0.28" d="M131.145 110.49L131.001 110.634L89.6529 151.978L89.5086 152.123L89.3642 152.267L71.5507 170.079L72.2666 170.199L89.7793 152.688L89.9237 152.544L90.0681 152.399L131.416 111.056L131.561 110.911L131.705 110.761L170.286 72.19C170.25 71.9493 170.208 71.7147 170.165 71.4741L131.29 110.346L131.145 110.49Z" fill="#FFFFE0"/>
<path opacity="0.28" d="M151.967 131.309L151.822 131.454L118.409 164.863L119.853 164.262L152.237 131.851L152.382 131.706L152.526 131.562L164.335 119.754C164.544 119.273 164.745 118.791 164.937 118.31L152.099 131.147L151.967 131.309Z" fill="#FFFFE0"/>
<path opacity="0.28" d="M147.804 127.147L147.66 127.291L106.306 168.635L106.161 168.779L106.071 168.87L106.222 168.834L106.45 168.779C106.691 168.719 106.937 168.665 107.178 168.599L148.087 127.694L148.232 127.55L148.376 127.405L168.698 107.079C168.794 106.718 168.879 106.345 168.969 105.979L147.961 126.99L147.804 127.147Z" fill="#FFFFE0"/>
<path opacity="0.28" d="M44.1241 23.4771L44.2685 23.3328L64.6629 2.94653L63.5258 3.2473L43.8534 22.9177L43.709 23.0621L43.5646 23.2064L3.3174 63.4435C3.21513 63.8225 3.11286 64.2014 3.0166 64.5804L43.9797 23.6215L44.1241 23.4771Z" fill="#FFFFE0"/>
<path opacity="0.28" d="M22.0263 28.9151L29.0169 21.9553C26.5561 24.1403 24.2221 26.464 22.0263 28.9151Z" fill="#FFFFE0"/>
<path opacity="0.28" d="M39.9596 19.3146L40.104 19.1703L52.0157 7.25977L50.5238 7.93349L39.6949 18.7612L39.5445 18.9056L39.4001 19.05L7.96037 50.4504C7.73778 50.9437 7.5212 51.4429 7.30463 51.9422L39.7912 19.459L39.9596 19.3146Z" fill="#FFFFE0"/>
<path opacity="0.28" d="M143.49 148.941L149.025 143.406C150.573 141.714 152.049 139.962 153.453 138.149L138.232 153.368C140.045 151.96 141.798 150.485 143.49 148.941Z" fill="#FFFFE0"/>
<path opacity="0.28" d="M19.1391 81.7665L19.2835 81.6221L60.6316 40.2782L60.776 40.1339L60.9204 39.9835L99.5313 1.3826L98.8033 1.26831L60.5053 39.5684L60.3609 39.7128L60.2165 39.8572L18.8684 81.2011L18.724 81.3454L18.5796 81.4898L1.34369 98.73C1.37979 98.9706 1.4219 99.2112 1.45799 99.4458L18.9947 81.9229L19.1391 81.7665Z" fill="#FFFFE0"/>
<path opacity="0.28" d="M10.8128 73.4352L10.9572 73.2908L52.3053 31.9469L52.4497 31.8025L52.5941 31.6581L83.9436 0.317871H83.0833L52.179 31.2431L52.0346 31.3875L51.8902 31.5318L10.5421 72.8998L10.3977 73.0442L10.2533 73.1885L0.411072 83.0057C0.411072 83.2884 0.411072 83.5771 0.411072 83.8659L10.6925 73.5855L10.8128 73.4352Z" fill="#FFFFE0"/>
<path opacity="0.28" d="M14.9765 77.6039L15.1209 77.4595L56.469 36.1156L56.6134 35.9652L56.7578 35.8208L92.0659 0.516385L91.2838 0.468262L56.3427 35.4058L56.1983 35.5501L56.0539 35.6945L14.7058 77.0384L14.5614 77.1828L14.417 77.3272L0.538025 91.2047C0.538025 91.4634 0.538021 91.728 0.58615 91.9867L14.8321 77.7482L14.9765 77.6039Z" fill="#FFFFE0"/>
<path opacity="0.28" d="M6.6495 69.2906L6.79389 69.1462L48.142 27.7842L48.2864 27.6399L48.4308 27.4955L74.9495 0.985596C74.6246 1.02169 74.2997 1.07583 73.9809 1.11793L48.0157 27.0804L47.8713 27.2248L47.7269 27.3692L6.37878 68.689L6.2344 68.8334L6.084 68.9778L1.18695 73.8743C1.14484 74.1991 1.09671 74.524 1.0546 74.8428L6.50512 69.3928L6.6495 69.2906Z" fill="#FFFFE0"/>
<path opacity="0.28" d="M52.4795 115.074L52.6238 114.929L93.972 73.5856L94.1164 73.4352L94.2608 73.2908L135.609 31.9469L135.753 31.8026L135.898 31.6582L144.224 23.3088L143.791 22.9058L135.453 31.2431L135.308 31.3875L135.164 31.5319L93.8156 72.8998L93.6712 73.0442L93.5268 73.1886L52.1787 114.508L52.0343 114.653L51.8899 114.797L23.0009 143.707L23.404 144.134L52.3291 115.218L52.4795 115.074Z" fill="#FFFFE0"/>
<path opacity="0.28" d="M44.1233 106.742L44.2677 106.598L85.6158 65.2542L85.7602 65.1098L85.9046 64.9654L127.253 23.6215L127.397 23.4772L127.542 23.3328L135.038 15.8436C134.875 15.7233 134.707 15.615 134.544 15.5007L127.126 22.9177L126.982 23.0621L126.838 23.2065L85.4895 64.5504L85.3451 64.6947L85.2007 64.8391L43.8526 106.183L43.7082 106.327L43.5638 106.472L15.5712 134.461L15.9141 134.955L43.9789 106.893L44.1233 106.742Z" fill="#FFFFE0"/>
<path opacity="0.28" d="M35.7981 98.4171L35.9425 98.2728L77.2907 56.9289L77.435 56.7845L77.5794 56.6401L118.928 15.2962L119.072 15.1518L119.216 15.0075L124.631 9.5936L124.071 9.31689L118.783 14.6105L118.639 14.7548L118.494 14.8992L77.1463 56.225L77.0019 56.3694L76.8515 56.5138L35.5033 97.8577L35.3589 98.0021L35.2146 98.1464L9.34564 124.013C9.43588 124.199 9.52612 124.386 9.62238 124.572L35.6357 98.5615L35.7981 98.4171Z" fill="#FFFFE0"/>
<path opacity="0.28" d="M27.465 90.0919L27.6094 89.9475L68.9576 48.6036L69.1079 48.4593L69.2523 48.3149L110.6 6.97098L110.745 6.82661L110.889 6.68224L112.905 4.66107L112.303 4.45654L110.498 6.26117L110.354 6.40553L110.209 6.54991L68.8312 47.8938L68.6868 48.0442L68.5424 48.1886L27.2123 89.5325L27.0679 89.6768L26.9236 89.8212L4.54395 112.199C4.61012 112.403 4.68232 112.614 4.74849 112.8L27.3387 90.2122L27.465 90.0919Z" fill="#FFFFE0"/>
<path opacity="0.28" d="M48.2683 110.911L48.4127 110.761L89.7789 69.4169L89.9233 69.2725L90.0677 69.1282L131.416 27.7843L131.56 27.6399L131.705 27.4955L139.772 19.4289L139.315 19.0559L131.29 27.0805L131.145 27.2248L131.001 27.3692L89.6526 68.689L89.5082 68.8334L89.3638 68.9778L48.0157 110.322L47.8713 110.466L47.7269 110.61L19.1327 139.202L19.4997 139.665L48.142 111.032L48.2683 110.911Z" fill="#FFFFE0"/>
<path opacity="0.28" d="M39.961 102.58L40.1054 102.436L81.4536 61.0916L81.5979 60.9472L81.7423 60.8029L123.09 19.459L123.235 19.3146L123.379 19.1702L129.997 12.5533L129.467 12.2405L122.964 18.7612L122.82 18.9056L122.675 19.0499L81.3573 60.3878L81.2129 60.5322L81.0685 60.6766L39.7204 102.02L39.57 102.165L39.4256 102.309L12.3535 129.379C12.4557 129.553 12.558 129.733 12.6663 129.902L39.8587 102.712L39.961 102.58Z" fill="#FFFFE0"/>
<path opacity="0.28" d="M31.635 94.2544L31.7794 94.11L73.1275 52.7661L73.2719 52.6217L73.4163 52.4774L114.764 11.1335L114.909 10.9891L115.053 10.8447L118.964 6.93471L118.362 6.69409L114.632 10.4236L114.488 10.568L114.343 10.7184L72.9952 52.0623L72.8508 52.2067L72.7064 52.351L31.3583 93.695L31.2139 93.8393L31.0695 93.9837L6.75873 118.286C6.83694 118.484 6.91515 118.683 6.99937 118.887L31.4786 94.4108L31.635 94.2544Z" fill="#FFFFE0"/>
<path opacity="0.28" d="M23.3021 85.9292L23.4465 85.7848L64.7947 44.4409L64.9391 44.2965L65.0895 44.1522L106.438 2.80826H106.402L105.764 2.65186L64.6683 43.7311L64.5239 43.8754L64.3796 44.0198L23.0314 85.3697L22.887 85.5141L22.7426 85.6585L2.69724 105.696C2.75138 105.924 2.80552 106.147 2.86568 106.37L23.1577 86.0735L23.3021 85.9292Z" fill="#FFFFE0"/>
</svg>
