<svg width="255" height="237" viewBox="0 0 255 237" fill="none" xmlns="http://www.w3.org/2000/svg">
<path d="M198.279 185.166C201.197 185.166 203.563 182.8 203.563 179.882C203.563 176.964 201.197 174.599 198.279 174.599C195.361 174.599 192.996 176.964 192.996 179.882C192.996 182.8 195.361 185.166 198.279 185.166Z" fill="url(#paint0_radial_10_2)"/>
<g opacity="0.5">
<path d="M122.846 153.582L120.353 154.969C120.683 155.153 121.132 155.257 121.599 155.257C122.067 155.257 122.515 155.153 122.846 154.969C123.177 154.785 123.363 154.536 123.363 154.276C123.363 154.016 123.177 153.766 122.846 153.582V153.582Z" fill="#E4585D"/>
<path d="M120.335 154.96L122.828 153.572C122.498 153.389 122.049 153.285 121.582 153.285C121.114 153.285 120.665 153.389 120.335 153.572C120.004 153.756 119.818 154.006 119.818 154.266C119.818 154.526 120.004 154.776 120.335 154.96V154.96Z" fill="#E4585D"/>
<path d="M168.466 142.277L165.973 143.665C166.136 143.756 166.331 143.828 166.545 143.877C166.759 143.927 166.988 143.952 167.219 143.952C167.451 143.952 167.68 143.927 167.894 143.877C168.108 143.828 168.302 143.756 168.466 143.665C168.63 143.574 168.76 143.465 168.848 143.346C168.937 143.227 168.983 143.1 168.983 142.971C168.983 142.842 168.937 142.715 168.848 142.596C168.76 142.477 168.63 142.368 168.466 142.277V142.277Z" fill="#E4585D"/>
<path d="M165.973 143.664L168.466 142.277C168.135 142.093 167.687 141.989 167.219 141.989C166.752 141.989 166.303 142.093 165.973 142.277C165.642 142.461 165.456 142.71 165.456 142.97C165.456 143.23 165.642 143.48 165.973 143.664V143.664Z" fill="#E4585D"/>
<path d="M105.606 145.535L103.113 146.923C103.443 147.107 103.892 147.21 104.36 147.21C104.827 147.21 105.276 147.107 105.606 146.923C105.937 146.739 106.123 146.489 106.123 146.229C106.123 145.969 105.937 145.719 105.606 145.535V145.535Z" fill="#E4585D"/>
<path d="M103.113 146.923L105.607 145.535C105.276 145.351 104.828 145.248 104.36 145.248C103.892 145.248 103.444 145.351 103.113 145.535C102.782 145.719 102.597 145.969 102.597 146.229C102.597 146.489 102.782 146.739 103.113 146.923V146.923Z" fill="#E4585D"/>
<path d="M212.19 175.899L209.696 177.287C209.86 177.378 210.054 177.45 210.268 177.499C210.482 177.549 210.712 177.574 210.943 177.574C211.175 177.574 211.404 177.549 211.618 177.499C211.832 177.45 212.026 177.378 212.19 177.287C212.354 177.196 212.483 177.088 212.572 176.969C212.661 176.85 212.706 176.722 212.706 176.593C212.706 176.464 212.661 176.337 212.572 176.218C212.483 176.099 212.354 175.991 212.19 175.899V175.899Z" fill="#E4585D"/>
<path d="M209.696 177.286L212.19 175.899C211.859 175.715 211.411 175.611 210.943 175.611C210.475 175.611 210.027 175.715 209.696 175.899C209.365 176.083 209.18 176.332 209.18 176.592C209.18 176.853 209.365 177.102 209.696 177.286V177.286Z" fill="#E4585D"/>
<path d="M162.476 172.689L159.982 174.077C160.313 174.261 160.762 174.364 161.229 174.364C161.697 174.364 162.145 174.261 162.476 174.077C162.807 173.893 162.992 173.643 162.992 173.383C162.992 173.123 162.807 172.873 162.476 172.689V172.689Z" fill="#E4585D"/>
<path d="M240.873 115.022H235.645V115.558H240.873V115.022Z" fill="#020305"/>
<path d="M240.873 121.754H235.645V122.29H240.873V121.754Z" fill="#020305"/>
<path d="M240.873 107.54H235.645V108.076H240.873V107.54Z" fill="#020305"/>
<path d="M240.873 105.521H235.645V106.056H240.873V105.521Z" fill="#020305"/>
<path d="M240.873 103.507H235.645V104.043H240.873V103.507Z" fill="#020305"/>
<path d="M240.873 98.0586H235.645V98.5944H240.873V98.0586Z" fill="#020305"/>
<path d="M240.873 96.0439H235.645V96.5798H240.873V96.0439Z" fill="#020305"/>
<path d="M240.873 92.3125H235.645V92.8483H240.873V92.3125Z" fill="#020305"/>
<path d="M240.873 135.895H235.645V136.43H240.873V135.895Z" fill="#020305"/>
<path d="M240.873 130.149H235.645V130.685H240.873V130.149Z" fill="#020305"/>
<path d="M240.873 128.135H235.645V128.671H240.873V128.135Z" fill="#020305"/>
<path d="M240.873 126.121H235.645V126.657H240.873V126.121Z" fill="#020305"/>
<path d="M253.479 89.418H258.707V88.8822H253.479V89.418Z" fill="#020305"/>
<path d="M253.479 121.998H258.707V121.462H253.479V121.998Z" fill="#020305"/>
<path d="M253.479 127.446H258.707V126.91H253.479V127.446Z" fill="#020305"/>
<path d="M253.479 129.461H258.707V128.925H253.479V129.461Z" fill="#020305"/>
<path d="M253.479 133.192H258.707V132.657H253.479V133.192Z" fill="#020305"/>
<path d="M253.479 91.4316H258.707V90.8958H253.479V91.4316Z" fill="#020305"/>
<path d="M253.479 97.2256H258.707V96.6898H253.479V97.2256Z" fill="#020305"/>
<path d="M253.479 99.2393H258.707V98.7034H253.479V99.2393Z" fill="#020305"/>
<path d="M253.479 104.688H258.707V104.153H253.479V104.688Z" fill="#020305"/>
<path d="M253.479 108.07H258.707V107.535H253.479V108.07Z" fill="#020305"/>
<path d="M253.479 112.152H258.707V111.617H253.479V112.152Z" fill="#020305"/>
<path d="M253.479 114.166H258.707V113.63H253.479V114.166Z" fill="#020305"/>
<path d="M253.479 116.18H258.707V115.644H253.479V116.18Z" fill="#020305"/>
<path d="M239.557 93.2969H244.785V92.761H239.557V93.2969Z" fill="#020305"/>
<path d="M239.557 95.3115H244.785V94.7757H239.557V95.3115Z" fill="#020305"/>
<path d="M239.557 100.761H244.785V100.225H239.557V100.761Z" fill="#020305"/>
<path d="M239.557 117.036H244.785V116.5H239.557V117.036Z" fill="#020305"/>
</g>
<path d="M151.216 130.337C162.879 127.212 174.888 134.212 178.04 145.972C181.191 157.733 174.291 169.799 162.628 172.925C150.965 176.05 138.955 169.049 135.804 157.289C132.653 145.529 139.553 133.462 151.216 130.337Z" fill="url(#paint1_radial_10_2)"/>
<path d="M184.558 109.374C189.589 109.374 193.667 105.296 193.667 100.265C193.667 95.2337 189.589 91.1553 184.558 91.1553C179.527 91.1553 175.448 95.2337 175.448 100.265C175.448 105.296 179.527 109.374 184.558 109.374Z" fill="url(#paint2_radial_10_2)"/>
<path d="M244.924 161.116C247.842 161.116 250.208 158.75 250.208 155.832C250.208 152.914 247.842 150.549 244.924 150.549C242.006 150.549 239.641 152.914 239.641 155.832C239.641 158.75 242.006 161.116 244.924 161.116Z" fill="url(#paint3_radial_10_2)"/>
<path opacity="0.5" d="M93.0938 0.790039V204.842H297.146V0.790039H93.0938ZM102.806 204.739H93.1972V195.13H102.806V204.739ZM102.806 195.026H93.1972V185.418H102.806V195.026ZM102.806 185.314H93.1972V175.726H102.806V185.314ZM102.806 175.602H93.1972V165.994H102.806V175.602ZM102.806 165.89H93.1972V156.286H102.806V165.89ZM102.806 156.178H93.1972V146.57H102.806V156.178ZM102.806 146.466H93.1972V136.845H102.806V146.466ZM102.806 136.754H93.1972V127.146H102.806V136.754ZM102.806 127.042H93.1972V117.438H102.806V127.042ZM102.806 117.334H93.1972V107.726H102.806V117.334ZM102.806 107.622H93.1972V98.0137H102.806V107.622ZM102.806 97.9103H93.1972V88.3017H102.806V97.9103ZM102.806 88.1983H93.1972V78.5897H102.806V88.1983ZM102.806 78.4863H93.1972V68.8776H102.806V78.4863ZM102.806 68.7742H93.1972V59.1656H102.806V68.7742ZM102.806 59.0622H93.1972V49.4536H102.806V59.0622ZM102.806 49.3502H93.1972V39.7416H102.806V49.3502ZM102.806 39.6382H93.1972V30.0295H102.806V39.6382ZM102.806 29.9261H93.1972V20.3175H102.806V29.9261ZM102.806 20.2141H93.1972V10.6055H102.806V20.2141ZM102.806 10.5021H93.1972V0.893447H102.806V10.5021ZM112.518 204.739H102.909V195.13H112.518V204.739ZM112.518 195.026H102.909V185.418H112.518V195.026ZM112.518 185.314H102.909V175.726H112.518V185.314ZM112.518 175.602H102.909V165.994H112.518V175.602ZM112.518 165.89H102.909V156.286H112.518V165.89ZM112.518 156.178H102.909V146.57H112.518V156.178ZM112.518 146.466H102.909V136.845H112.518V146.466ZM112.518 136.754H102.909V127.146H112.518V136.754ZM112.518 127.042H102.909V117.438H112.518V127.042ZM112.518 117.334H102.909V107.726H112.518V117.334ZM112.518 107.622H102.909V98.0137H112.518V107.622ZM112.518 97.9103H102.909V88.3017H112.518V97.9103ZM112.518 88.1983H102.909V78.5897H112.518V88.1983ZM112.518 78.4863H102.909V68.8776H112.518V78.4863ZM112.518 68.7742H102.909V59.1656H112.518V68.7742ZM112.518 59.0622H102.909V49.4536H112.518V59.0622ZM112.518 49.3502H102.909V39.7416H112.518V49.3502ZM112.518 39.6382H102.909V30.0295H112.518V39.6382ZM112.518 29.9261H102.909V20.3175H112.518V29.9261ZM112.518 20.2141H102.909V10.6055H112.518V20.2141ZM112.518 10.5021H102.909V0.893447H112.518V10.5021ZM122.23 204.739H112.621V195.13H122.23V204.739ZM122.23 195.026H112.621V185.418H122.23V195.026ZM122.23 185.314H112.621V175.726H122.23V185.314ZM122.23 175.602H112.621V165.994H122.23V175.602ZM122.23 165.89H112.621V156.286H122.23V165.89ZM122.23 156.178H112.621V146.57H122.23V156.178ZM122.23 146.466H112.621V136.845H122.23V146.466ZM122.23 136.754H112.621V127.146H122.23V136.754ZM122.23 127.042H112.621V117.438H122.23V127.042ZM122.23 117.334H112.621V107.726H122.23V117.334ZM122.23 107.622H112.621V98.0137H122.23V107.622ZM122.23 97.9103H112.621V88.3017H122.23V97.9103ZM122.23 88.1983H112.621V78.5897H122.23V88.1983ZM122.23 78.4863H112.621V68.8776H122.23V78.4863ZM122.23 68.7742H112.621V59.1656H122.23V68.7742ZM122.23 59.0622H112.621V49.4536H122.23V59.0622ZM122.23 49.3502H112.621V39.7416H122.23V49.3502ZM122.23 39.6382H112.621V30.0295H122.23V39.6382ZM122.23 29.9261H112.621V20.3175H122.23V29.9261ZM122.23 20.2141H112.621V10.6055H122.23V20.2141ZM122.23 10.5021H112.621V0.893447H122.23V10.5021ZM131.942 204.739H122.333V195.13H131.942V204.739ZM131.942 195.026H122.333V185.418H131.942V195.026ZM131.942 185.314H122.333V175.726H131.942V185.314ZM131.942 175.602H122.333V165.994H131.942V175.602ZM131.942 165.89H122.333V156.286H131.942V165.89ZM131.942 156.178H122.333V146.57H131.942V156.178ZM131.942 146.466H122.333V136.845H131.942V146.466ZM131.942 136.754H122.333V127.146H131.942V136.754ZM131.942 127.042H122.333V117.438H131.942V127.042ZM131.942 117.334H122.333V107.726H131.942V117.334ZM131.942 107.622H122.333V98.0137H131.942V107.622ZM131.942 97.9103H122.333V88.3017H131.942V97.9103ZM131.942 88.1983H122.333V78.5897H131.942V88.1983ZM131.942 78.4863H122.333V68.8776H131.942V78.4863ZM131.942 68.7742H122.333V59.1656H131.942V68.7742ZM131.942 59.0622H122.333V49.4536H131.942V59.0622ZM131.942 49.3502H122.333V39.7416H131.942V49.3502ZM131.942 39.6382H122.333V30.0295H131.942V39.6382ZM131.942 29.9261H122.333V20.3175H131.942V29.9261ZM131.942 20.2141H122.333V10.6055H131.942V20.2141ZM131.942 10.5021H122.333V0.893447H131.942V10.5021ZM141.654 204.739H132.045V195.13H141.654V204.739ZM141.654 195.026H132.045V185.418H141.654V195.026ZM141.654 185.314H132.045V175.726H141.654V185.314ZM141.654 175.602H132.045V165.994H141.654V175.602ZM141.654 165.89H132.045V156.286H141.654V165.89ZM141.654 156.178H132.045V146.57H141.654V156.178ZM141.654 146.466H132.045V136.845H141.654V146.466ZM141.654 136.754H132.045V127.146H141.654V136.754ZM141.654 127.042H132.045V117.438H141.654V127.042ZM141.654 117.334H132.045V107.726H141.654V117.334ZM141.654 107.622H132.045V98.0137H141.654V107.622ZM141.654 97.9103H132.045V88.3017H141.654V97.9103ZM141.654 88.1983H132.045V78.5897H141.654V88.1983ZM141.654 78.4863H132.045V68.8776H141.654V78.4863ZM141.654 68.7742H132.045V59.1656H141.654V68.7742ZM141.654 59.0622H132.045V49.4536H141.654V59.0622ZM141.654 49.3502H132.045V39.7416H141.654V49.3502ZM141.654 39.6382H132.045V30.0295H141.654V39.6382ZM141.654 29.9261H132.045V20.3175H141.654V29.9261ZM141.654 20.2141H132.045V10.6055H141.654V20.2141ZM141.654 10.5021H132.045V0.893447H141.654V10.5021ZM151.366 204.739H141.757V195.13H151.366V204.739ZM151.366 195.026H141.757V185.418H151.366V195.026ZM151.366 185.314H141.757V175.726H151.366V185.314ZM151.366 175.602H141.757V165.994H151.366V175.602ZM151.366 165.89H141.757V156.286H151.366V165.89ZM151.366 156.178H141.757V146.57H151.366V156.178ZM151.366 146.466H141.757V136.845H151.366V146.466ZM151.366 136.754H141.757V127.146H151.366V136.754ZM151.366 127.042H141.757V117.438H151.366V127.042ZM151.366 117.334H141.757V107.726H151.366V117.334ZM151.366 107.622H141.757V98.0137H151.366V107.622ZM151.366 97.9103H141.757V88.3017H151.366V97.9103ZM151.366 88.1983H141.757V78.5897H151.366V88.1983ZM151.366 78.4863H141.757V68.8776H151.366V78.4863ZM151.366 68.7742H141.757V59.1656H151.366V68.7742ZM151.366 59.0622H141.757V49.4536H151.366V59.0622ZM151.366 49.3502H141.757V39.7416H151.366V49.3502ZM151.366 39.6382H141.757V30.0295H151.366V39.6382ZM151.366 29.9261H141.757V20.3175H151.366V29.9261ZM151.366 20.2141H141.757V10.6055H151.366V20.2141ZM151.366 10.5021H141.757V0.893447H151.366V10.5021ZM161.078 204.739H151.465V195.13H161.074L161.078 204.739ZM161.078 195.026H151.465V185.418H161.074L161.078 195.026ZM161.078 185.314H151.465V175.726H161.074L161.078 185.314ZM161.078 175.602H151.465V165.994H161.074L161.078 175.602ZM161.078 165.89H151.465V156.286H161.074L161.078 165.89ZM161.078 156.178H151.465V146.57H161.074L161.078 156.178ZM161.078 146.466H151.465V136.845H161.074L161.078 146.466ZM161.078 136.754H151.465V127.146H161.074L161.078 136.754ZM161.078 127.042H151.465V117.438H161.074L161.078 127.042ZM161.078 117.334H151.465V107.726H161.074L161.078 117.334ZM161.078 107.622H151.465V98.0137H161.074L161.078 107.622ZM161.078 97.9103H151.465V88.3017H161.074L161.078 97.9103ZM161.078 88.1983H151.465V78.5897H161.074L161.078 88.1983ZM161.078 78.4863H151.465V68.8776H161.074L161.078 78.4863ZM161.078 68.7742H151.465V59.1656H161.074L161.078 68.7742ZM161.078 59.0622H151.465V49.4536H161.074L161.078 59.0622ZM161.078 49.3502H151.465V39.7416H161.074L161.078 49.3502ZM161.078 39.6382H151.465V30.0295H161.074L161.078 39.6382ZM161.078 29.9261H151.465V20.3175H161.074L161.078 29.9261ZM161.078 20.2141H151.465V10.6055H161.074L161.078 20.2141ZM161.078 10.5021H151.465V0.893447H161.074L161.078 10.5021ZM170.79 204.739H161.181V195.13H170.79V204.739ZM170.79 195.026H161.181V185.418H170.79V195.026ZM170.79 185.314H161.181V175.726H170.79V185.314ZM170.79 175.602H161.181V165.994H170.79V175.602ZM170.79 165.89H161.181V156.286H170.79V165.89ZM170.79 156.178H161.181V146.57H170.79V156.178ZM170.79 146.466H161.181V136.845H170.79V146.466ZM170.79 136.754H161.181V127.146H170.79V136.754ZM170.79 127.042H161.181V117.438H170.79V127.042ZM170.79 117.334H161.181V107.726H170.79V117.334ZM170.79 107.622H161.181V98.0137H170.79V107.622ZM170.79 97.9103H161.181V88.3017H170.79V97.9103ZM170.79 88.1983H161.181V78.5897H170.79V88.1983ZM170.79 78.4863H161.181V68.8776H170.79V78.4863ZM170.79 68.7742H161.181V59.1656H170.79V68.7742ZM170.79 59.0622H161.181V49.4536H170.79V59.0622ZM170.79 49.3502H161.181V39.7416H170.79V49.3502ZM170.79 39.6382H161.181V30.0295H170.79V39.6382ZM170.79 29.9261H161.181V20.3175H170.79V29.9261ZM170.79 20.2141H161.181V10.6055H170.79V20.2141ZM170.79 10.5021H161.181V0.893447H170.79V10.5021ZM180.498 204.739H170.906V195.13H180.51L180.498 204.739ZM180.498 195.026H170.906V185.418H180.51L180.498 195.026ZM180.498 185.314H170.906V175.726H180.51L180.498 185.314ZM180.498 175.602H170.906V165.994H180.51L180.498 175.602ZM180.498 165.89H170.906V156.286H180.51L180.498 165.89ZM180.498 156.178H170.906V146.57H180.51L180.498 156.178ZM180.498 146.466H170.906V136.845H180.51L180.498 146.466ZM180.498 136.754H170.906V127.146H180.51L180.498 136.754ZM180.498 127.042H170.906V117.438H180.51L180.498 127.042ZM180.498 117.334H170.906V107.726H180.51L180.498 117.334ZM180.498 107.622H170.906V98.0137H180.51L180.498 107.622ZM180.498 97.9103H170.906V88.3017H180.51L180.498 97.9103ZM180.498 88.1983H170.906V78.5897H180.51L180.498 88.1983ZM180.498 78.4863H170.906V68.8776H180.51L180.498 78.4863ZM180.498 68.7742H170.906V59.1656H180.51L180.498 68.7742ZM180.498 59.0622H170.906V49.4536H180.51L180.498 59.0622ZM180.498 49.3502H170.906V39.7416H180.51L180.498 49.3502ZM180.498 39.6382H170.906V30.0295H180.51L180.498 39.6382ZM180.498 29.9261H170.906V20.3175H180.51L180.498 29.9261ZM180.498 20.2141H170.906V10.6055H180.51L180.498 20.2141ZM180.498 10.5021H170.906V0.893447H180.51L180.498 10.5021ZM190.21 204.739H180.601V195.13H190.21V204.739ZM190.21 195.026H180.601V185.418H190.21V195.026ZM190.21 185.314H180.601V175.726H190.21V185.314ZM190.21 175.602H180.601V165.994H190.21V175.602ZM190.21 165.89H180.601V156.286H190.21V165.89ZM190.21 156.178H180.601V146.57H190.21V156.178ZM190.21 146.466H180.601V136.845H190.21V146.466ZM190.21 136.754H180.601V127.146H190.21V136.754ZM190.21 127.042H180.601V117.438H190.21V127.042ZM190.21 117.334H180.601V107.726H190.21V117.334ZM190.21 107.622H180.601V98.0137H190.21V107.622ZM190.21 97.9103H180.601V88.3017H190.21V97.9103ZM190.21 88.1983H180.601V78.5897H190.21V88.1983ZM190.21 78.4863H180.601V68.8776H190.21V78.4863ZM190.21 68.7742H180.601V59.1656H190.21V68.7742ZM190.21 59.0622H180.601V49.4536H190.21V59.0622ZM190.21 49.3502H180.601V39.7416H190.21V49.3502ZM190.21 39.6382H180.601V30.0295H190.21V39.6382ZM190.21 29.9261H180.601V20.3175H190.21V29.9261ZM190.21 20.2141H180.601V10.6055H190.21V20.2141ZM190.21 10.5021H180.601V0.893447H190.21V10.5021ZM199.922 204.739H190.313V195.13H199.922V204.739ZM199.922 195.026H190.313V185.418H199.922V195.026ZM199.922 185.314H190.313V175.726H199.922V185.314ZM199.922 175.602H190.313V165.994H199.922V175.602ZM199.922 165.89H190.313V156.286H199.922V165.89ZM199.922 156.178H190.313V146.57H199.922V156.178ZM199.922 146.466H190.313V136.845H199.922V146.466ZM199.922 136.754H190.313V127.146H199.922V136.754ZM199.922 127.042H190.313V117.438H199.922V127.042ZM199.922 117.334H190.313V107.726H199.922V117.334ZM199.922 107.622H190.313V98.0137H199.922V107.622ZM199.922 97.9103H190.313V88.3017H199.922V97.9103ZM199.922 88.1983H190.313V78.5897H199.922V88.1983ZM199.922 78.4863H190.313V68.8776H199.922V78.4863ZM199.922 68.7742H190.313V59.1656H199.922V68.7742ZM199.922 59.0622H190.313V49.4536H199.922V59.0622ZM199.922 49.3502H190.313V39.7416H199.922V49.3502ZM199.922 39.6382H190.313V30.0295H199.922V39.6382ZM199.922 29.9261H190.313V20.3175H199.922V29.9261ZM199.922 20.2141H190.313V10.6055H199.922V20.2141ZM199.922 10.5021H190.313V0.893447H199.922V10.5021ZM209.634 204.739H200.025V195.13H209.634V204.739ZM209.634 195.026H200.025V185.418H209.634V195.026ZM209.634 185.314H200.025V175.726H209.634V185.314ZM209.634 175.602H200.025V165.994H209.634V175.602ZM209.634 165.89H200.025V156.286H209.634V165.89ZM209.634 156.178H200.025V146.57H209.634V156.178ZM209.634 146.466H200.025V136.845H209.634V146.466ZM209.634 136.754H200.025V127.146H209.634V136.754ZM209.634 127.042H200.025V117.438H209.634V127.042ZM209.634 117.334H200.025V107.726H209.634V117.334ZM209.634 107.622H200.025V98.0137H209.634V107.622ZM209.634 97.9103H200.025V88.3017H209.634V97.9103ZM209.634 88.1983H200.025V78.5897H209.634V88.1983ZM209.634 78.4863H200.025V68.8776H209.634V78.4863ZM209.634 68.7742H200.025V59.1656H209.634V68.7742ZM209.634 59.0622H200.025V49.4536H209.634V59.0622ZM209.634 49.3502H200.025V39.7416H209.634V49.3502ZM209.634 39.6382H200.025V30.0295H209.634V39.6382ZM209.634 29.9261H200.025V20.3175H209.634V29.9261ZM209.634 20.2141H200.025V10.6055H209.634V20.2141ZM209.634 10.5021H200.025V0.893447H209.634V10.5021ZM219.346 204.739H209.737V195.13H219.346V204.739ZM219.346 195.026H209.737V185.418H219.346V195.026ZM219.346 185.314H209.737V175.726H219.346V185.314ZM219.346 175.602H209.737V165.994H219.346V175.602ZM219.346 165.89H209.737V156.286H219.346V165.89ZM219.346 156.178H209.737V146.57H219.346V156.178ZM219.346 146.466H209.737V136.845H219.346V146.466ZM219.346 136.754H209.737V127.146H219.346V136.754ZM219.346 127.042H209.737V117.438H219.346V127.042ZM219.346 117.334H209.737V107.726H219.346V117.334ZM219.346 107.622H209.737V98.0137H219.346V107.622ZM219.346 97.9103H209.737V88.3017H219.346V97.9103ZM219.346 88.1983H209.737V78.5897H219.346V88.1983ZM219.346 78.4863H209.737V68.8776H219.346V78.4863ZM219.346 68.7742H209.737V59.1656H219.346V68.7742ZM219.346 59.0622H209.737V49.4536H219.346V59.0622ZM219.346 49.3502H209.737V39.7416H219.346V49.3502ZM219.346 39.6382H209.737V30.0295H219.346V39.6382ZM219.346 29.9261H209.737V20.3175H219.346V29.9261ZM219.346 20.2141H209.737V10.6055H219.346V20.2141ZM219.346 10.5021H209.737V0.893447H219.346V10.5021ZM229.058 204.739H219.449V195.13H229.058V204.739ZM229.058 195.026H219.449V185.418H229.058V195.026ZM229.058 185.314H219.449V175.726H229.058V185.314ZM229.058 175.602H219.449V165.994H229.058V175.602ZM229.058 165.89H219.449V156.286H229.058V165.89ZM229.058 156.178H219.449V146.57H229.058V156.178ZM229.058 146.466H219.449V136.845H229.058V146.466ZM229.058 136.754H219.449V127.146H229.058V136.754ZM229.058 127.042H219.449V117.438H229.058V127.042ZM229.058 117.334H219.449V107.726H229.058V117.334ZM229.058 107.622H219.449V98.0137H229.058V107.622ZM229.058 97.9103H219.449V88.3017H229.058V97.9103ZM229.058 88.1983H219.449V78.5897H229.058V88.1983ZM229.058 78.4863H219.449V68.8776H229.058V78.4863ZM229.058 68.7742H219.449V59.1656H229.058V68.7742ZM229.058 59.0622H219.449V49.4536H229.058V59.0622ZM229.058 49.3502H219.449V39.7416H229.058V49.3502ZM229.058 39.6382H219.449V30.0295H229.058V39.6382ZM229.058 29.9261H219.449V20.3175H229.058V29.9261ZM229.058 20.2141H219.449V10.6055H229.058V20.2141ZM229.058 10.5021H219.449V0.893447H229.058V10.5021ZM238.77 204.739H229.161V195.13H238.77V204.739ZM238.77 195.026H229.161V185.418H238.77V195.026ZM238.77 185.314H229.161V175.726H238.77V185.314ZM238.77 175.602H229.161V165.994H238.77V175.602ZM238.77 165.89H229.161V156.286H238.77V165.89ZM238.77 156.178H229.161V146.57H238.77V156.178ZM238.77 146.466H229.161V136.845H238.77V146.466ZM238.77 136.754H229.161V127.146H238.77V136.754ZM238.77 127.042H229.161V117.438H238.77V127.042ZM238.77 117.334H229.161V107.726H238.77V117.334ZM238.77 107.622H229.161V98.0137H238.77V107.622ZM238.77 97.9103H229.161V88.3017H238.77V97.9103ZM238.77 88.1983H229.161V78.5897H238.77V88.1983ZM238.77 78.4863H229.161V68.8776H238.77V78.4863ZM238.77 68.7742H229.161V59.1656H238.77V68.7742ZM238.77 59.0622H229.161V49.4536H238.77V59.0622ZM238.77 49.3502H229.161V39.7416H238.77V49.3502ZM238.77 39.6382H229.161V30.0295H238.77V39.6382ZM238.77 29.9261H229.161V20.3175H238.77V29.9261ZM238.77 20.2141H229.161V10.6055H238.77V20.2141ZM238.77 10.5021H229.161V0.893447H238.77V10.5021ZM248.482 204.739H238.873V195.13H248.482V204.739ZM248.482 195.026H238.873V185.418H248.482V195.026ZM248.482 185.314H238.873V175.726H248.482V185.314ZM248.482 175.602H238.873V165.994H248.482V175.602ZM248.482 165.89H238.873V156.286H248.482V165.89ZM248.482 156.178H238.873V146.57H248.482V156.178ZM248.482 146.466H238.873V136.845H248.482V146.466ZM248.482 136.754H238.873V127.146H248.482V136.754ZM248.482 127.042H238.873V117.438H248.482V127.042ZM248.482 117.334H238.873V107.726H248.482V117.334ZM248.482 107.622H238.873V98.0137H248.482V107.622ZM248.482 97.9103H238.873V88.3017H248.482V97.9103ZM248.482 88.1983H238.873V78.5897H248.482V88.1983ZM248.482 78.4863H238.873V68.8776H248.482V78.4863ZM248.482 68.7742H238.873V59.1656H248.482V68.7742ZM248.482 59.0622H238.873V49.4536H248.482V59.0622ZM248.482 49.3502H238.873V39.7416H248.482V49.3502ZM248.482 39.6382H238.873V30.0295H248.482V39.6382ZM248.482 29.9261H238.873V20.3175H248.482V29.9261ZM248.482 20.2141H238.873V10.6055H248.482V20.2141ZM248.482 10.5021H238.873V0.893447H248.482V10.5021ZM258.182 204.739H248.585V195.13H258.182V204.739ZM258.182 195.026H248.585V185.418H258.182V195.026ZM258.182 185.314H248.585V175.726H258.182V185.314ZM258.182 175.602H248.585V165.994H258.182V175.602ZM258.182 165.89H248.585V156.286H258.182V165.89ZM258.182 156.178H248.585V146.57H258.182V156.178ZM258.182 146.466H248.585V136.845H258.182V146.466ZM258.182 136.754H248.585V127.146H258.182V136.754ZM258.182 127.042H248.585V117.438H258.182V127.042ZM258.182 117.334H248.585V107.726H258.182V117.334ZM258.182 107.622H248.585V98.0137H258.182V107.622ZM258.182 97.9103H248.585V88.3017H258.182V97.9103ZM258.182 88.1983H248.585V78.5897H258.182V88.1983ZM258.182 78.4863H248.585V68.8776H258.182V78.4863ZM258.182 68.7742H248.585V59.1656H258.182V68.7742ZM258.182 59.0829H248.585V49.4536H258.182V59.0829ZM258.182 49.3709H248.585V39.7416H258.182V49.3709ZM258.182 39.6423H248.585V30.0295H258.182V39.6423ZM258.182 29.9303H248.585V20.3175H258.182V29.9303ZM258.182 20.2017H248.585V10.6055H258.182V20.2017ZM258.182 10.4897H248.585V0.893447H258.182V10.4897ZM267.894 204.726H258.298V195.13H267.906L267.894 204.726ZM267.894 195.014H258.298V185.418H267.906L267.894 195.014ZM267.894 185.302H258.298V175.726H267.906L267.894 185.302ZM267.894 175.59H258.298V165.994H267.906L267.894 175.59ZM267.894 165.878H258.298V156.286H267.906L267.894 165.878ZM267.894 156.166H258.298V146.57H267.906L267.894 156.166ZM267.894 146.454H258.298V136.845H267.906L267.894 146.454ZM267.894 136.742H258.298V127.146H267.906L267.894 136.742ZM267.894 127.03H258.298V117.438H267.906L267.894 127.03ZM267.894 117.322H258.298V107.726H267.906L267.894 117.322ZM267.894 107.61H258.298V98.0137H267.906L267.894 107.61ZM267.894 97.8979H258.298V88.3017H267.906L267.894 97.8979ZM267.894 88.1859H258.298V78.5897H267.906L267.894 88.1859ZM267.894 78.4739H258.298V68.8776H267.906L267.894 78.4739ZM267.894 68.7618H258.298V59.1656H267.906L267.894 68.7618ZM267.894 59.0498H258.298V49.4536H267.906L267.894 59.0498ZM267.894 49.3378H258.298V39.7416H267.906L267.894 49.3378ZM267.894 39.6257H258.298V30.0295H267.906L267.894 39.6257ZM267.894 29.9137H258.298V20.3175H267.906L267.894 29.9137ZM267.894 20.2017H258.298V10.6055H267.906L267.894 20.2017ZM267.894 10.4897H258.298V0.893447H267.906L267.894 10.4897ZM277.622 204.739H268.01V195.13H277.622V204.739ZM277.622 195.026H268.01V185.418H277.622V195.026ZM277.622 185.314H268.01V175.726H277.622V185.314ZM277.622 175.602H268.01V165.994H277.622V175.602ZM277.622 165.89H268.01V156.286H277.622V165.89ZM277.622 156.178H268.01V146.57H277.622V156.178ZM277.622 146.466H268.01V136.845H277.622V146.466ZM277.622 136.754H268.01V127.146H277.622V136.754ZM277.622 127.042H268.01V117.438H277.622V127.042ZM277.622 117.334H268.01V107.726H277.622V117.334ZM277.622 107.622H268.01V98.0137H277.622V107.622ZM277.622 97.9103H268.01V88.3017H277.622V97.9103ZM277.622 88.1983H268.01V78.5897H277.622V88.1983ZM277.622 78.4863H268.01V68.8776H277.622V78.4863ZM277.622 68.7742H268.01V59.1656H277.622V68.7742ZM277.622 59.0829H268.01V49.4536H277.622V59.0829ZM277.622 49.3709H268.01V39.7416H277.622V49.3709ZM277.622 39.6423H268.01V30.0295H277.622V39.6423ZM277.622 29.9303H268.01V20.3175H277.622V29.9303ZM277.622 20.2017H268.01V10.6055H277.622V20.2017ZM277.622 10.4897H268.01V0.893447H277.622V10.4897ZM287.334 204.726H277.722V195.13H287.33L287.334 204.726ZM287.334 195.014H277.722V185.418H287.33L287.334 195.014ZM287.334 185.302H277.722V175.726H287.33L287.334 185.302ZM287.334 175.59H277.722V165.994H287.33L287.334 175.59ZM287.334 165.878H277.722V156.286H287.33L287.334 165.878ZM287.334 156.166H277.722V146.57H287.33L287.334 156.166ZM287.334 146.454H277.722V136.845H287.33L287.334 146.454ZM287.334 136.742H277.722V127.146H287.33L287.334 136.742ZM287.334 127.03H277.722V117.438H287.33L287.334 127.03ZM287.334 117.322H277.722V107.726H287.33L287.334 117.322ZM287.334 107.61H277.722V98.0137H287.33L287.334 107.61ZM287.334 97.8979H277.722V88.3017H287.33L287.334 97.8979ZM287.334 88.1859H277.722V78.5897H287.33L287.334 88.1859ZM287.334 78.4739H277.722V68.8776H287.33L287.334 78.4739ZM287.334 68.7618H277.722V59.1656H287.33L287.334 68.7618ZM287.334 59.0498H277.722V49.4536H287.33L287.334 59.0498ZM287.334 49.3378H277.722V39.7416H287.33L287.334 49.3378ZM287.334 39.6257H277.722V30.0295H287.33L287.334 39.6257ZM287.334 29.9137H277.722V20.3175H287.33L287.334 29.9137ZM287.334 20.2017H277.722V10.6055H287.33L287.334 20.2017ZM287.334 10.4897H277.722V0.893447H287.33L287.334 10.4897ZM297.063 204.739H287.434V195.13H297.063V204.739ZM297.063 195.026H287.434V185.418H297.063V195.026ZM297.063 185.314H287.434V175.726H297.063V185.314ZM297.063 175.602H287.434V165.994H297.063V175.602ZM297.063 165.89H287.434V156.286H297.063V165.89ZM297.063 156.178H287.434V146.57H297.063V156.178ZM297.063 146.466H287.434V136.845H297.063V146.466ZM297.063 136.754H287.434V127.146H297.063V136.754ZM297.063 127.042H287.434V117.438H297.063V127.042ZM297.063 117.334H287.434V107.726H297.063V117.334ZM297.063 107.622H287.434V98.0137H297.063V107.622ZM297.063 97.9103H287.434V88.3017H297.063V97.9103ZM297.063 88.1983H287.434V78.5897H297.063V88.1983ZM297.063 78.4863H287.434V68.8776H297.063V78.4863ZM297.063 68.7742H287.434V59.1656H297.063V68.7742ZM297.063 59.0829H287.434V49.4536H297.063V59.0829ZM297.063 49.3709H287.434V39.7416H297.063V49.3709ZM297.063 39.6423H287.434V30.0295H297.063V39.6423ZM297.063 29.9303H287.434V20.3175H297.063V29.9303ZM297.063 20.2017H287.434V10.6055H297.063V20.2017ZM297.063 10.4897H287.434V0.893447H297.063V10.4897Z" fill="url(#paint4_radial_10_2)"/>
<g filter="url(#filter0_d_10_2)">
<path d="M265.05 153.236C269.019 187.964 244.087 219.333 209.362 223.306C174.637 227.279 143.272 202.35 139.301 167.625C135.331 132.899 103.965 107.97 69.2397 111.943C34.5147 115.917 9.57732 147.293 13.5431 182.019" stroke="#FFFFE0" stroke-width="0.25" stroke-miterlimit="10" shape-rendering="crispEdges"/>
</g>
<defs>
<filter id="filter0_d_10_2" x="0.00366211" y="98.4023" width="278.587" height="138.444" filterUnits="userSpaceOnUse" color-interpolation-filters="sRGB">
<feFlood flood-opacity="0" result="BackgroundImageFix"/>
<feColorMatrix in="SourceAlpha" type="matrix" values="0 0 0 0 0 0 0 0 0 0 0 0 0 0 0 0 0 0 127 0" result="hardAlpha"/>
<feOffset/>
<feGaussianBlur stdDeviation="6.5"/>
<feComposite in2="hardAlpha" operator="out"/>
<feColorMatrix type="matrix" values="0 0 0 0 1 0 0 0 0 1 0 0 0 0 1 0 0 0 1 0"/>
<feBlend mode="normal" in2="BackgroundImageFix" result="effect1_dropShadow_10_2"/>
<feBlend mode="normal" in="SourceGraphic" in2="effect1_dropShadow_10_2" result="shape"/>
</filter>
<radialGradient id="paint0_radial_10_2" cx="0" cy="0" r="1" gradientUnits="userSpaceOnUse" gradientTransform="translate(201.189 176.889) rotate(45) scale(8.25295)">
<stop stop-color="#34D399"/>
<stop offset="1" stop-color="#AAFF00"/>
</radialGradient>
<radialGradient id="paint1_radial_10_2" cx="0" cy="0" r="1" gradientUnits="userSpaceOnUse" gradientTransform="translate(171.785 160.577) rotate(-60.2377) scale(34.2927 34.2915)">
<stop stop-color="#34D399"/>
<stop offset="1" stop-color="#AAFF00"/>
</radialGradient>
<radialGradient id="paint2_radial_10_2" cx="0" cy="0" r="1" gradientUnits="userSpaceOnUse" gradientTransform="translate(184.558 100.265) rotate(90) scale(9.10946)">
<stop stop-color="#34D399"/>
<stop offset="1" stop-color="#AAFF00"/>
</radialGradient>
<radialGradient id="paint3_radial_10_2" cx="0" cy="0" r="1" gradientUnits="userSpaceOnUse" gradientTransform="translate(247.834 152.839) rotate(45) scale(8.25295)">
<stop stop-color="#34D399"/>
<stop offset="1" stop-color="#AAFF00"/>
</radialGradient>
<radialGradient id="paint4_radial_10_2" cx="0" cy="0" r="1" gradientUnits="userSpaceOnUse" gradientTransform="translate(195.12 102.816) scale(102.026)">
<stop stop-color="#FFFFE0"/>
<stop offset="1" stop-color="#FFFFE0" stop-opacity="0"/>
</radialGradient>
</defs>
</svg>
