<svg width="127" height="411" viewBox="0 0 127 411" fill="none" xmlns="http://www.w3.org/2000/svg">
<path d="M-11.3869 271.665C-34.574 271.665 -53.3708 252.869 -53.3708 229.682C-53.3708 206.495 -34.574 187.698 -11.3869 187.698C11.8001 187.698 30.5969 206.495 30.5969 229.682C30.5969 252.869 11.8001 271.665 -11.3869 271.665Z" fill="url(#paint0_radial_993_2185)"/>
<path d="M-230.547 101.75C-239.823 136.311 -219.33 171.846 -184.773 181.127C-150.216 190.408 -114.683 169.917 -105.405 135.359C-96.1274 100.801 -60.5951 80.3099 -26.038 89.5907C8.51907 98.8715 29.017 134.416 19.7436 168.975" stroke="white" stroke-width="0.25" stroke-miterlimit="10"/>
<path opacity="0.5" d="M117.857 177.819V362.219H-66.5423V177.819H117.857ZM109.081 362.125H117.764V353.442H109.081V362.125ZM109.081 353.348H117.764V344.665H109.081V353.348ZM109.081 344.572H117.764V335.907H109.081V344.572ZM109.081 335.795H117.764V327.112H109.081V335.795ZM109.081 327.018H117.764V318.339H109.081V327.018ZM109.081 318.242H117.764V309.559H109.081V318.242ZM109.081 309.465H117.764V300.771H109.081V309.465ZM109.081 300.688H117.764V292.005H109.081V300.688ZM109.081 291.912H117.764V283.232H109.081V291.912ZM109.081 283.139H117.764V274.456H109.081V283.139ZM109.081 274.362H117.764V265.679H109.081V274.362ZM109.081 265.585H117.764V256.902H109.081V265.585ZM109.081 256.809H117.764V248.126H109.081V256.809ZM109.081 248.032H117.764V239.349H109.081V248.032ZM109.081 239.256H117.764V230.572H109.081V239.256ZM109.081 230.479H117.764V221.796H109.081V230.479ZM109.081 221.702H117.764V213.019H109.081V221.702ZM109.081 212.926H117.764V204.242H109.081V212.926ZM109.081 204.149H117.764V195.466H109.081V204.149ZM109.081 195.372H117.764V186.689H109.081V195.372ZM109.081 186.596H117.764V177.912H109.081V186.596ZM100.304 362.125H108.987V353.442H100.304V362.125ZM100.304 353.348H108.987V344.665H100.304V353.348ZM100.304 344.572H108.987V335.907H100.304V344.572ZM100.304 335.795H108.987V327.112H100.304V335.795ZM100.304 327.018H108.987V318.339H100.304V327.018ZM100.304 318.242H108.987V309.559H100.304V318.242ZM100.304 309.465H108.987V300.771H100.304V309.465ZM100.304 300.688H108.987V292.005H100.304V300.688ZM100.304 291.912H108.987V283.232H100.304V291.912ZM100.304 283.139H108.987V274.456H100.304V283.139ZM100.304 274.362H108.987V265.679H100.304V274.362ZM100.304 265.585H108.987V256.902H100.304V265.585ZM100.304 256.809H108.987V248.126H100.304V256.809ZM100.304 248.032H108.987V239.349H100.304V248.032ZM100.304 239.256H108.987V230.572H100.304V239.256ZM100.304 230.479H108.987V221.796H100.304V230.479ZM100.304 221.702H108.987V213.019H100.304V221.702ZM100.304 212.926H108.987V204.242H100.304V212.926ZM100.304 204.149H108.987V195.466H100.304V204.149ZM100.304 195.372H108.987V186.689H100.304V195.372ZM100.304 186.596H108.987V177.912H100.304V186.596ZM91.5274 362.125H100.211V353.442H91.5274V362.125ZM91.5274 353.348H100.211V344.665H91.5274V353.348ZM91.5274 344.572H100.211V335.907H91.5274V344.572ZM91.5274 335.795H100.211V327.112H91.5274V335.795ZM91.5274 327.018H100.211V318.339H91.5274V327.018ZM91.5274 318.242H100.211V309.559H91.5274V318.242ZM91.5274 309.465H100.211V300.771H91.5274V309.465ZM91.5274 300.688H100.211V292.005H91.5274V300.688ZM91.5274 291.912H100.211V283.232H91.5274V291.912ZM91.5274 283.139H100.211V274.456H91.5274V283.139ZM91.5274 274.362H100.211V265.679H91.5274V274.362ZM91.5274 265.585H100.211V256.902H91.5274V265.585ZM91.5274 256.809H100.211V248.126H91.5274V256.809ZM91.5274 248.032H100.211V239.349H91.5274V248.032ZM91.5274 239.256H100.211V230.572H91.5274V239.256ZM91.5274 230.479H100.211V221.796H91.5274V230.479ZM91.5274 221.702H100.211V213.019H91.5274V221.702ZM91.5274 212.926H100.211V204.242H91.5274V212.926ZM91.5274 204.149H100.211V195.466H91.5274V204.149ZM91.5274 195.372H100.211V186.689H91.5274V195.372ZM91.5274 186.596H100.211V177.912H91.5274V186.596ZM82.7508 362.125H91.434V353.442H82.7508V362.125ZM82.7508 353.348H91.434V344.665H82.7508V353.348ZM82.7508 344.572H91.434V335.907H82.7508V344.572ZM82.7508 335.795H91.434V327.112H82.7508V335.795ZM82.7508 327.018H91.434V318.339H82.7508V327.018ZM82.7508 318.242H91.434V309.559H82.7508V318.242ZM82.7508 309.465H91.434V300.771H82.7508V309.465ZM82.7508 300.688H91.434V292.005H82.7508V300.688ZM82.7508 291.912H91.434V283.232H82.7508V291.912ZM82.7508 283.139H91.434V274.456H82.7508V283.139ZM82.7508 274.362H91.434V265.679H82.7508V274.362ZM82.7508 265.585H91.434V256.902H82.7508V265.585ZM82.7508 256.809H91.434V248.126H82.7508V256.809ZM82.7508 248.032H91.434V239.349H82.7508V248.032ZM82.7508 239.256H91.434V230.572H82.7508V239.256ZM82.7508 230.479H91.434V221.796H82.7508V230.479ZM82.7508 221.702H91.434V213.019H82.7508V221.702ZM82.7508 212.926H91.434V204.242H82.7508V212.926ZM82.7508 204.149H91.434V195.466H82.7508V204.149ZM82.7508 195.372H91.434V186.689H82.7508V195.372ZM82.7508 186.596H91.434V177.912H82.7508V186.596ZM73.9741 362.125H82.6573V353.442H73.9741V362.125ZM73.9741 353.348H82.6573V344.665H73.9741V353.348ZM73.9741 344.572H82.6573V335.907H73.9741V344.572ZM73.9741 335.795H82.6573V327.112H73.9741V335.795ZM73.9741 327.018H82.6573V318.339H73.9741V327.018ZM73.9741 318.242H82.6573V309.559H73.9741V318.242ZM73.9741 309.465H82.6573V300.771H73.9741V309.465ZM73.9741 300.688H82.6573V292.005H73.9741V300.688ZM73.9741 291.912H82.6573V283.232H73.9741V291.912ZM73.9741 283.139H82.6573V274.456H73.9741V283.139ZM73.9741 274.362H82.6573V265.679H73.9741V274.362ZM73.9741 265.585H82.6573V256.902H73.9741V265.585ZM73.9741 256.809H82.6573V248.126H73.9741V256.809ZM73.9741 248.032H82.6573V239.349H73.9741V248.032ZM73.9741 239.256H82.6573V230.572H73.9741V239.256ZM73.9741 230.479H82.6573V221.796H73.9741V230.479ZM73.9741 221.702H82.6573V213.019H73.9741V221.702ZM73.9741 212.926H82.6573V204.242H73.9741V212.926ZM73.9741 204.149H82.6573V195.466H73.9741V204.149ZM73.9741 195.372H82.6573V186.689H73.9741V195.372ZM73.9741 186.596H82.6573V177.912H73.9741V186.596ZM65.1974 362.125H73.8806V353.442H65.1974V362.125ZM65.1974 353.348H73.8806V344.665H65.1974V353.348ZM65.1974 344.572H73.8806V335.907H65.1974V344.572ZM65.1974 335.795H73.8806V327.112H65.1974V335.795ZM65.1974 327.018H73.8806V318.339H65.1974V327.018ZM65.1974 318.242H73.8806V309.559H65.1974V318.242ZM65.1974 309.465H73.8806V300.771H65.1974V309.465ZM65.1974 300.688H73.8806V292.005H65.1974V300.688ZM65.1974 291.912H73.8806V283.232H65.1974V291.912ZM65.1974 283.139H73.8806V274.456H65.1974V283.139ZM65.1974 274.362H73.8806V265.679H65.1974V274.362ZM65.1974 265.585H73.8806V256.902H65.1974V265.585ZM65.1974 256.809H73.8806V248.126H65.1974V256.809ZM65.1974 248.032H73.8806V239.349H65.1974V248.032ZM65.1974 239.256H73.8806V230.572H65.1974V239.256ZM65.1974 230.479H73.8806V221.796H65.1974V230.479ZM65.1974 221.702H73.8806V213.019H65.1974V221.702ZM65.1974 212.926H73.8806V204.242H65.1974V212.926ZM65.1974 204.149H73.8806V195.466H65.1974V204.149ZM65.1974 195.372H73.8806V186.689H65.1974V195.372ZM65.1974 186.596H73.8806V177.912H65.1974V186.596ZM56.4208 362.125H65.1077V353.442H56.4245L56.4208 362.125ZM56.4208 353.348H65.1077V344.665H56.4245L56.4208 353.348ZM56.4208 344.572H65.1077V335.907H56.4245L56.4208 344.572ZM56.4208 335.795H65.1077V327.112H56.4245L56.4208 335.795ZM56.4208 327.018H65.1077V318.339H56.4245L56.4208 327.018ZM56.4208 318.242H65.1077V309.559H56.4245L56.4208 318.242ZM56.4208 309.465H65.1077V300.771H56.4245L56.4208 309.465ZM56.4208 300.688H65.1077V292.005H56.4245L56.4208 300.688ZM56.4208 291.912H65.1077V283.232H56.4245L56.4208 291.912ZM56.4208 283.139H65.1077V274.456H56.4245L56.4208 283.139ZM56.4208 274.362H65.1077V265.679H56.4245L56.4208 274.362ZM56.4208 265.585H65.1077V256.902H56.4245L56.4208 265.585ZM56.4208 256.809H65.1077V248.126H56.4245L56.4208 256.809ZM56.4208 248.032H65.1077V239.349H56.4245L56.4208 248.032ZM56.4208 239.256H65.1077V230.572H56.4245L56.4208 239.256ZM56.4208 230.479H65.1077V221.796H56.4245L56.4208 230.479ZM56.4208 221.702H65.1077V213.019H56.4245L56.4208 221.702ZM56.4208 212.926H65.1077V204.242H56.4245L56.4208 212.926ZM56.4208 204.149H65.1077V195.466H56.4245L56.4208 204.149ZM56.4208 195.372H65.1077V186.689H56.4245L56.4208 195.372ZM56.4208 186.596H65.1077V177.912H56.4245L56.4208 186.596ZM47.6441 362.125H56.3273V353.442H47.6441V362.125ZM47.6441 353.348H56.3273V344.665H47.6441V353.348ZM47.6441 344.572H56.3273V335.907H47.6441V344.572ZM47.6441 335.795H56.3273V327.112H47.6441V335.795ZM47.6441 327.018H56.3273V318.339H47.6441V327.018ZM47.6441 318.242H56.3273V309.559H47.6441V318.242ZM47.6441 309.465H56.3273V300.771H47.6441V309.465ZM47.6441 300.688H56.3273V292.005H47.6441V300.688ZM47.6441 291.912H56.3273V283.232H47.6441V291.912ZM47.6441 283.139H56.3273V274.456H47.6441V283.139ZM47.6441 274.362H56.3273V265.679H47.6441V274.362ZM47.6441 265.585H56.3273V256.902H47.6441V265.585ZM47.6441 256.809H56.3273V248.126H47.6441V256.809ZM47.6441 248.032H56.3273V239.349H47.6441V248.032ZM47.6441 239.256H56.3273V230.572H47.6441V239.256ZM47.6441 230.479H56.3273V221.796H47.6441V230.479ZM47.6441 221.702H56.3273V213.019H47.6441V221.702ZM47.6441 212.926H56.3273V204.242H47.6441V212.926ZM47.6441 204.149H56.3273V195.466H47.6441V204.149ZM47.6441 195.372H56.3273V186.689H47.6441V195.372ZM47.6441 186.596H56.3273V177.912H47.6441V186.596ZM38.8712 362.125H47.5394V353.442H38.86L38.8712 362.125ZM38.8712 353.348H47.5394V344.665H38.86L38.8712 353.348ZM38.8712 344.572H47.5394V335.907H38.86L38.8712 344.572ZM38.8712 335.795H47.5394V327.112H38.86L38.8712 335.795ZM38.8712 327.018H47.5394V318.339H38.86L38.8712 327.018ZM38.8712 318.242H47.5394V309.559H38.86L38.8712 318.242ZM38.8712 309.465H47.5394V300.771H38.86L38.8712 309.465ZM38.8712 300.688H47.5394V292.005H38.86L38.8712 300.688ZM38.8712 291.912H47.5394V283.232H38.86L38.8712 291.912ZM38.8712 283.139H47.5394V274.456H38.86L38.8712 283.139ZM38.8712 274.362H47.5394V265.679H38.86L38.8712 274.362ZM38.8712 265.585H47.5394V256.902H38.86L38.8712 265.585ZM38.8712 256.809H47.5394V248.126H38.86L38.8712 256.809ZM38.8712 248.032H47.5394V239.349H38.86L38.8712 248.032ZM38.8712 239.256H47.5394V230.572H38.86L38.8712 239.256ZM38.8712 230.479H47.5394V221.796H38.86L38.8712 230.479ZM38.8712 221.702H47.5394V213.019H38.86L38.8712 221.702ZM38.8712 212.926H47.5394V204.242H38.86L38.8712 212.926ZM38.8712 204.149H47.5394V195.466H38.86L38.8712 204.149ZM38.8712 195.372H47.5394V186.689H38.86L38.8712 195.372ZM38.8712 186.596H47.5394V177.912H38.86L38.8712 186.596ZM30.0945 362.125H38.7777V353.442H30.0945V362.125ZM30.0945 353.348H38.7777V344.665H30.0945V353.348ZM30.0945 344.572H38.7777V335.907H30.0945V344.572ZM30.0945 335.795H38.7777V327.112H30.0945V335.795ZM30.0945 327.018H38.7777V318.339H30.0945V327.018ZM30.0945 318.242H38.7777V309.559H30.0945V318.242ZM30.0945 309.465H38.7777V300.771H30.0945V309.465ZM30.0945 300.688H38.7777V292.005H30.0945V300.688ZM30.0945 291.912H38.7777V283.232H30.0945V291.912ZM30.0945 283.139H38.7777V274.456H30.0945V283.139ZM30.0945 274.362H38.7777V265.679H30.0945V274.362ZM30.0945 265.585H38.7777V256.902H30.0945V265.585ZM30.0945 256.809H38.7777V248.126H30.0945V256.809ZM30.0945 248.032H38.7777V239.349H30.0945V248.032ZM30.0945 239.256H38.7777V230.572H30.0945V239.256ZM30.0945 230.479H38.7777V221.796H30.0945V230.479ZM30.0945 221.702H38.7777V213.019H30.0945V221.702ZM30.0945 212.926H38.7777V204.242H30.0945V212.926ZM30.0945 204.149H38.7777V195.466H30.0945V204.149ZM30.0945 195.372H38.7777V186.689H30.0945V195.372ZM30.0945 186.596H38.7777V177.912H30.0945V186.596ZM21.3178 362.125H30.0011V353.442H21.3178V362.125ZM21.3178 353.348H30.0011V344.665H21.3178V353.348ZM21.3178 344.572H30.0011V335.907H21.3178V344.572ZM21.3178 335.795H30.0011V327.112H21.3178V335.795ZM21.3178 327.018H30.0011V318.339H21.3178V327.018ZM21.3178 318.242H30.0011V309.559H21.3178V318.242ZM21.3178 309.465H30.0011V300.771H21.3178V309.465ZM21.3178 300.688H30.0011V292.005H21.3178V300.688ZM21.3178 291.912H30.0011V283.232H21.3178V291.912ZM21.3178 283.139H30.0011V274.456H21.3178V283.139ZM21.3178 274.362H30.0011V265.679H21.3178V274.362ZM21.3178 265.585H30.0011V256.902H21.3178V265.585ZM21.3178 256.809H30.0011V248.126H21.3178V256.809ZM21.3178 248.032H30.0011V239.349H21.3178V248.032ZM21.3178 239.256H30.0011V230.572H21.3178V239.256ZM21.3178 230.479H30.0011V221.796H21.3178V230.479ZM21.3178 221.702H30.0011V213.019H21.3178V221.702ZM21.3178 212.926H30.0011V204.242H21.3178V212.926ZM21.3178 204.149H30.0011V195.466H21.3178V204.149ZM21.3178 195.372H30.0011V186.689H21.3178V195.372ZM21.3178 186.596H30.0011V177.912H21.3178V186.596ZM12.5412 362.125H21.2244V353.442H12.5412V362.125ZM12.5412 353.348H21.2244V344.665H12.5412V353.348ZM12.5412 344.572H21.2244V335.907H12.5412V344.572ZM12.5412 335.795H21.2244V327.112H12.5412V335.795ZM12.5412 327.018H21.2244V318.339H12.5412V327.018ZM12.5412 318.242H21.2244V309.559H12.5412V318.242ZM12.5412 309.465H21.2244V300.771H12.5412V309.465ZM12.5412 300.688H21.2244V292.005H12.5412V300.688ZM12.5412 291.912H21.2244V283.232H12.5412V291.912ZM12.5412 283.139H21.2244V274.456H12.5412V283.139ZM12.5412 274.362H21.2244V265.679H12.5412V274.362ZM12.5412 265.585H21.2244V256.902H12.5412V265.585ZM12.5412 256.809H21.2244V248.126H12.5412V256.809ZM12.5412 248.032H21.2244V239.349H12.5412V248.032ZM12.5412 239.256H21.2244V230.572H12.5412V239.256ZM12.5412 230.479H21.2244V221.796H12.5412V230.479ZM12.5412 221.702H21.2244V213.019H12.5412V221.702ZM12.5412 212.926H21.2244V204.242H12.5412V212.926ZM12.5412 204.149H21.2244V195.466H12.5412V204.149ZM12.5412 195.372H21.2244V186.689H12.5412V195.372ZM12.5412 186.596H21.2244V177.912H12.5412V186.596ZM3.76452 362.125H12.4477V353.442H3.76452V362.125ZM3.76452 353.348H12.4477V344.665H3.76452V353.348ZM3.76452 344.572H12.4477V335.907H3.76452V344.572ZM3.76452 335.795H12.4477V327.112H3.76452V335.795ZM3.76452 327.018H12.4477V318.339H3.76452V327.018ZM3.76452 318.242H12.4477V309.559H3.76452V318.242ZM3.76452 309.465H12.4477V300.771H3.76452V309.465ZM3.76452 300.688H12.4477V292.005H3.76452V300.688ZM3.76452 291.912H12.4477V283.232H3.76452V291.912ZM3.76452 283.139H12.4477V274.456H3.76452V283.139ZM3.76452 274.362H12.4477V265.679H3.76452V274.362ZM3.76452 265.585H12.4477V256.902H3.76452V265.585ZM3.76452 256.809H12.4477V248.126H3.76452V256.809ZM3.76452 248.032H12.4477V239.349H3.76452V248.032ZM3.76452 239.256H12.4477V230.572H3.76452V239.256ZM3.76452 230.479H12.4477V221.796H3.76452V230.479ZM3.76452 221.702H12.4477V213.019H3.76452V221.702ZM3.76452 212.926H12.4477V204.242H3.76452V212.926ZM3.76452 204.149H12.4477V195.466H3.76452V204.149ZM3.76452 195.372H12.4477V186.689H3.76452V195.372ZM3.76452 186.596H12.4477V177.912H3.76452V186.596ZM-5.01216 362.125H3.67107V353.442H-5.01216V362.125ZM-5.01216 353.348H3.67107V344.665H-5.01216V353.348ZM-5.01216 344.572H3.67107V335.907H-5.01216V344.572ZM-5.01216 335.795H3.67107V327.112H-5.01216V335.795ZM-5.01216 327.018H3.67107V318.339H-5.01216V327.018ZM-5.01216 318.242H3.67107V309.559H-5.01216V318.242ZM-5.01216 309.465H3.67107V300.771H-5.01216V309.465ZM-5.01216 300.688H3.67107V292.005H-5.01216V300.688ZM-5.01216 291.912H3.67107V283.232H-5.01216V291.912ZM-5.01216 283.139H3.67107V274.456H-5.01216V283.139ZM-5.01216 274.362H3.67107V265.679H-5.01216V274.362ZM-5.01216 265.585H3.67107V256.902H-5.01216V265.585ZM-5.01216 256.809H3.67107V248.126H-5.01216V256.809ZM-5.01216 248.032H3.67107V239.349H-5.01216V248.032ZM-5.01216 239.256H3.67107V230.572H-5.01216V239.256ZM-5.01216 230.479H3.67107V221.796H-5.01216V230.479ZM-5.01216 221.702H3.67107V213.019H-5.01216V221.702ZM-5.01216 212.926H3.67107V204.242H-5.01216V212.926ZM-5.01216 204.149H3.67107V195.466H-5.01216V204.149ZM-5.01216 195.372H3.67107V186.689H-5.01216V195.372ZM-5.01216 186.596H3.67107V177.912H-5.01216V186.596ZM-13.7888 362.125H-5.10561V353.442H-13.7888V362.125ZM-13.7888 353.348H-5.10561V344.665H-13.7888V353.348ZM-13.7888 344.572H-5.10561V335.907H-13.7888V344.572ZM-13.7888 335.795H-5.10561V327.112H-13.7888V335.795ZM-13.7888 327.018H-5.10561V318.339H-13.7888V327.018ZM-13.7888 318.242H-5.10561V309.559H-13.7888V318.242ZM-13.7888 309.465H-5.10561V300.771H-13.7888V309.465ZM-13.7888 300.688H-5.10561V292.005H-13.7888V300.688ZM-13.7888 291.912H-5.10561V283.232H-13.7888V291.912ZM-13.7888 283.139H-5.10561V274.456H-13.7888V283.139ZM-13.7888 274.362H-5.10561V265.679H-13.7888V274.362ZM-13.7888 265.585H-5.10561V256.902H-13.7888V265.585ZM-13.7888 256.809H-5.10561V248.126H-13.7888V256.809ZM-13.7888 248.032H-5.10561V239.349H-13.7888V248.032ZM-13.7888 239.256H-5.10561V230.572H-13.7888V239.256ZM-13.7888 230.479H-5.10561V221.796H-13.7888V230.479ZM-13.7888 221.702H-5.10561V213.019H-13.7888V221.702ZM-13.7888 212.926H-5.10561V204.242H-13.7888V212.926ZM-13.7888 204.149H-5.10561V195.466H-13.7888V204.149ZM-13.7888 195.372H-5.10561V186.689H-13.7888V195.372ZM-13.7888 186.596H-5.10561V177.912H-13.7888V186.596ZM-22.5655 362.125H-13.8823V353.442H-22.5655V362.125ZM-22.5655 353.348H-13.8823V344.665H-22.5655V353.348ZM-22.5655 344.572H-13.8823V335.907H-22.5655V344.572ZM-22.5655 335.795H-13.8823V327.112H-22.5655V335.795ZM-22.5655 327.018H-13.8823V318.339H-22.5655V327.018ZM-22.5655 318.242H-13.8823V309.559H-22.5655V318.242ZM-22.5655 309.465H-13.8823V300.771H-22.5655V309.465ZM-22.5655 300.688H-13.8823V292.005H-22.5655V300.688ZM-22.5655 291.912H-13.8823V283.232H-22.5655V291.912ZM-22.5655 283.139H-13.8823V274.456H-22.5655V283.139ZM-22.5655 274.362H-13.8823V265.679H-22.5655V274.362ZM-22.5655 265.585H-13.8823V256.902H-22.5655V265.585ZM-22.5655 256.809H-13.8823V248.126H-22.5655V256.809ZM-22.5655 248.032H-13.8823V239.349H-22.5655V248.032ZM-22.5655 239.256H-13.8823V230.572H-22.5655V239.256ZM-22.5655 230.479H-13.8823V221.796H-22.5655V230.479ZM-22.5655 221.702H-13.8823V213.019H-22.5655V221.702ZM-22.5655 212.926H-13.8823V204.242H-22.5655V212.926ZM-22.5655 204.149H-13.8823V195.466H-22.5655V204.149ZM-22.5655 195.372H-13.8823V186.689H-22.5655V195.372ZM-22.5655 186.596H-13.8823V177.912H-22.5655V186.596ZM-31.3309 362.125H-22.6589V353.442H-31.3309V362.125ZM-31.3309 353.348H-22.6589V344.665H-31.3309V353.348ZM-31.3309 344.572H-22.6589V335.907H-31.3309V344.572ZM-31.3309 335.795H-22.6589V327.112H-31.3309V335.795ZM-31.3309 327.018H-22.6589V318.339H-31.3309V327.018ZM-31.3309 318.242H-22.6589V309.559H-31.3309V318.242ZM-31.3309 309.465H-22.6589V300.771H-31.3309V309.465ZM-31.3309 300.688H-22.6589V292.005H-31.3309V300.688ZM-31.3309 291.912H-22.6589V283.232H-31.3309V291.912ZM-31.3309 283.139H-22.6589V274.456H-31.3309V283.139ZM-31.3309 274.362H-22.6589V265.679H-31.3309V274.362ZM-31.3309 265.585H-22.6589V256.902H-31.3309V265.585ZM-31.3309 256.809H-22.6589V248.126H-31.3309V256.809ZM-31.3309 248.032H-22.6589V239.349H-31.3309V248.032ZM-31.3309 239.256H-22.6589V230.572H-31.3309V239.256ZM-31.3309 230.498H-22.6589V221.796H-31.3309V230.498ZM-31.3309 221.721H-22.6589V213.019H-31.3309V221.721ZM-31.3309 212.929H-22.6589V204.242H-31.3309V212.929ZM-31.3309 204.153H-22.6589V195.466H-31.3309V204.153ZM-31.3309 195.361H-22.6589V186.689H-31.3309V195.361ZM-31.3309 186.584H-22.6589V177.912H-31.3309V186.584ZM-40.1076 362.114H-31.4356V353.442H-40.1188L-40.1076 362.114ZM-40.1076 353.337H-31.4356V344.665H-40.1188L-40.1076 353.337ZM-40.1076 344.561H-31.4356V335.907H-40.1188L-40.1076 344.561ZM-40.1076 335.784H-31.4356V327.112H-40.1188L-40.1076 335.784ZM-40.1076 327.007H-31.4356V318.339H-40.1188L-40.1076 327.007ZM-40.1076 318.231H-31.4356V309.559H-40.1188L-40.1076 318.231ZM-40.1076 309.454H-31.4356V300.771H-40.1188L-40.1076 309.454ZM-40.1076 300.677H-31.4356V292.005H-40.1188L-40.1076 300.677ZM-40.1076 291.901H-31.4356V283.232H-40.1188L-40.1076 291.901ZM-40.1076 283.128H-31.4356V274.456H-40.1188L-40.1076 283.128ZM-40.1076 274.351H-31.4356V265.679H-40.1188L-40.1076 274.351ZM-40.1076 265.574H-31.4356V256.902H-40.1188L-40.1076 265.574ZM-40.1076 256.798H-31.4356V248.126H-40.1188L-40.1076 256.798ZM-40.1076 248.021H-31.4356V239.349H-40.1188L-40.1076 248.021ZM-40.1076 239.244H-31.4356V230.572H-40.1188L-40.1076 239.244ZM-40.1076 230.468H-31.4356V221.796H-40.1188L-40.1076 230.468ZM-40.1076 221.691H-31.4356V213.019H-40.1188L-40.1076 221.691ZM-40.1076 212.914H-31.4356V204.242H-40.1188L-40.1076 212.914ZM-40.1076 204.138H-31.4356V195.466H-40.1188L-40.1076 204.138ZM-40.1076 195.361H-31.4356V186.689H-40.1188L-40.1076 195.361ZM-40.1076 186.584H-31.4356V177.912H-40.1188L-40.1076 186.584ZM-48.8992 362.125H-40.2123V353.442H-48.8992V362.125ZM-48.8992 353.348H-40.2123V344.665H-48.8992V353.348ZM-48.8992 344.572H-40.2123V335.907H-48.8992V344.572ZM-48.8992 335.795H-40.2123V327.112H-48.8992V335.795ZM-48.8992 327.018H-40.2123V318.339H-48.8992V327.018ZM-48.8992 318.242H-40.2123V309.559H-48.8992V318.242ZM-48.8992 309.465H-40.2123V300.771H-48.8992V309.465ZM-48.8992 300.688H-40.2123V292.005H-48.8992V300.688ZM-48.8992 291.912H-40.2123V283.232H-48.8992V291.912ZM-48.8992 283.139H-40.2123V274.456H-48.8992V283.139ZM-48.8992 274.362H-40.2123V265.679H-48.8992V274.362ZM-48.8992 265.585H-40.2123V256.902H-48.8992V265.585ZM-48.8992 256.809H-40.2123V248.126H-48.8992V256.809ZM-48.8992 248.032H-40.2123V239.349H-48.8992V248.032ZM-48.8992 239.256H-40.2123V230.572H-48.8992V239.256ZM-48.8992 230.498H-40.2123V221.796H-48.8992V230.498ZM-48.8992 221.721H-40.2123V213.019H-48.8992V221.721ZM-48.8992 212.929H-40.2123V204.242H-48.8992V212.929ZM-48.8992 204.153H-40.2123V195.466H-48.8992V204.153ZM-48.8992 195.361H-40.2123V186.689H-48.8992V195.361ZM-48.8992 186.584H-40.2123V177.912H-48.8992V186.584ZM-57.6759 362.114H-48.9889V353.442H-57.6721L-57.6759 362.114ZM-57.6759 353.337H-48.9889V344.665H-57.6721L-57.6759 353.337ZM-57.6759 344.561H-48.9889V335.907H-57.6721L-57.6759 344.561ZM-57.6759 335.784H-48.9889V327.112H-57.6721L-57.6759 335.784ZM-57.6759 327.007H-48.9889V318.339H-57.6721L-57.6759 327.007ZM-57.6759 318.231H-48.9889V309.559H-57.6721L-57.6759 318.231ZM-57.6759 309.454H-48.9889V300.771H-57.6721L-57.6759 309.454ZM-57.6759 300.677H-48.9889V292.005H-57.6721L-57.6759 300.677ZM-57.6759 291.901H-48.9889V283.232H-57.6721L-57.6759 291.901ZM-57.6759 283.128H-48.9889V274.456H-57.6721L-57.6759 283.128ZM-57.6759 274.351H-48.9889V265.679H-57.6721L-57.6759 274.351ZM-57.6759 265.574H-48.9889V256.902H-57.6721L-57.6759 265.574ZM-57.6759 256.798H-48.9889V248.126H-57.6721L-57.6759 256.798ZM-57.6759 248.021H-48.9889V239.349H-57.6721L-57.6759 248.021ZM-57.6759 239.244H-48.9889V230.572H-57.6721L-57.6759 239.244ZM-57.6759 230.468H-48.9889V221.796H-57.6721L-57.6759 230.468ZM-57.6759 221.691H-48.9889V213.019H-57.6721L-57.6759 221.691ZM-57.6759 212.914H-48.9889V204.242H-57.6721L-57.6759 212.914ZM-57.6759 204.138H-48.9889V195.466H-57.6721L-57.6759 204.138ZM-57.6759 195.361H-48.9889V186.689H-57.6721L-57.6759 195.361ZM-57.6759 186.584H-48.9889V177.912H-57.6721L-57.6759 186.584ZM-66.4675 362.125H-57.7656V353.442H-66.4675V362.125ZM-66.4675 353.348H-57.7656V344.665H-66.4675V353.348ZM-66.4675 344.572H-57.7656V335.907H-66.4675V344.572ZM-66.4675 335.795H-57.7656V327.112H-66.4675V335.795ZM-66.4675 327.018H-57.7656V318.339H-66.4675V327.018ZM-66.4675 318.242H-57.7656V309.559H-66.4675V318.242ZM-66.4675 309.465H-57.7656V300.771H-66.4675V309.465ZM-66.4675 300.688H-57.7656V292.005H-66.4675V300.688ZM-66.4675 291.912H-57.7656V283.232H-66.4675V291.912ZM-66.4675 283.139H-57.7656V274.456H-66.4675V283.139ZM-66.4675 274.362H-57.7656V265.679H-66.4675V274.362ZM-66.4675 265.585H-57.7656V256.902H-66.4675V265.585ZM-66.4675 256.809H-57.7656V248.126H-66.4675V256.809ZM-66.4675 248.032H-57.7656V239.349H-66.4675V248.032ZM-66.4675 239.256H-57.7656V230.572H-66.4675V239.256ZM-66.4675 230.498H-57.7656V221.796H-66.4675V230.498ZM-66.4675 221.721H-57.7656V213.019H-66.4675V221.721ZM-66.4675 212.929H-57.7656V204.242H-66.4675V212.929ZM-66.4675 204.153H-57.7656V195.466H-66.4675V204.153ZM-66.4675 195.361H-57.7656V186.689H-66.4675V195.361ZM-66.4675 186.584H-57.7656V177.912H-66.4675V186.584Z" fill="url(#paint1_radial_993_2185)"/>
<g filter="url(#filter0_d_993_2185)">
<path d="M97.3862 247.298C118.08 267.974 118.097 301.509 97.4248 322.205C76.7527 342.901 43.2207 342.918 22.5264 322.244C1.83217 301.57 -31.6998 301.586 -52.372 322.282C-73.0442 342.978 -73.0277 376.521 -52.3362 397.198" stroke="#FFFFE0" stroke-width="0.25" stroke-miterlimit="10" shape-rendering="crispEdges"/>
</g>
<path d="M79.0544 345.729C68.4208 345.729 59.8007 337.11 59.8007 326.479C59.8007 315.847 68.4208 307.229 79.0544 307.229C89.6879 307.229 98.3081 315.847 98.3081 326.479C98.3081 337.11 89.6879 345.729 79.0544 345.729Z" fill="url(#paint2_radial_993_2185)"/>
<defs>
<filter id="filter0_d_993_2185" x="-80.9905" y="234.209" width="207.033" height="176.077" filterUnits="userSpaceOnUse" color-interpolation-filters="sRGB">
<feFlood flood-opacity="0" result="BackgroundImageFix"/>
<feColorMatrix in="SourceAlpha" type="matrix" values="0 0 0 0 0 0 0 0 0 0 0 0 0 0 0 0 0 0 127 0" result="hardAlpha"/>
<feOffset/>
<feGaussianBlur stdDeviation="6.5"/>
<feComposite in2="hardAlpha" operator="out"/>
<feColorMatrix type="matrix" values="0 0 0 0 1 0 0 0 0 1 0 0 0 0 1 0 0 0 1 0"/>
<feBlend mode="normal" in2="BackgroundImageFix" result="effect1_dropShadow_993_2185"/>
<feBlend mode="normal" in="SourceGraphic" in2="effect1_dropShadow_993_2185" result="shape"/>
</filter>
<radialGradient id="paint0_radial_993_2185" cx="0" cy="0" r="1" gradientUnits="userSpaceOnUse" gradientTransform="translate(-59.2979 183.088) rotate(49.357) scale(98.0761)">
<stop stop-color="#5DD334"/>
<stop offset="0.71875" stop-color="#00FFE0" stop-opacity="0"/>
</radialGradient>
<radialGradient id="paint1_radial_993_2185" cx="0" cy="0" r="1" gradientUnits="userSpaceOnUse" gradientTransform="translate(25.6576 270.019) rotate(180) scale(92.1998)">
<stop stop-color="#FFFFE0"/>
<stop offset="1" stop-color="#FFFFE0" stop-opacity="0"/>
</radialGradient>
<radialGradient id="paint2_radial_993_2185" cx="0" cy="0" r="1" gradientUnits="userSpaceOnUse" gradientTransform="translate(103.661 352.536) rotate(-131.572) scale(67.9832)">
<stop stop-color="#AAFF00"/>
<stop offset="1" stop-color="#00FFE0" stop-opacity="0"/>
</radialGradient>
</defs>
</svg>
