<svg width="256" height="293" viewBox="0 0 256 293" fill="none" xmlns="http://www.w3.org/2000/svg">
<path opacity="0.5" d="M0.693848 36.5459V240.598H204.746V36.5459H0.693848ZM10.4059 240.494H0.797255V230.886H10.4059V240.494ZM10.4059 230.782H0.797255V221.174H10.4059V230.782ZM10.4059 221.07H0.797255V211.482H10.4059V221.07ZM10.4059 211.358H0.797255V201.75H10.4059V211.358ZM10.4059 201.646H0.797255V192.042H10.4059V201.646ZM10.4059 191.934H0.797255V182.326H10.4059V191.934ZM10.4059 182.222H0.797255V172.601H10.4059V182.222ZM10.4059 172.51H0.797255V162.902H10.4059V172.51ZM10.4059 162.798H0.797255V153.194H10.4059V162.798ZM10.4059 153.09H0.797255V143.482H10.4059V153.09ZM10.4059 143.378H0.797255V133.77H10.4059V143.378ZM10.4059 133.666H0.797255V124.058H10.4059V133.666ZM10.4059 123.954H0.797255V114.346H10.4059V123.954ZM10.4059 114.242H0.797255V104.634H10.4059V114.242ZM10.4059 104.53H0.797255V94.9215H10.4059V104.53ZM10.4059 94.8181H0.797255V85.2094H10.4059V94.8181ZM10.4059 85.106H0.797255V75.4974H10.4059V85.106ZM10.4059 75.394H0.797255V65.7854H10.4059V75.394ZM10.4059 65.682H0.797255V56.0734H10.4059V65.682ZM10.4059 55.97H0.797255V46.3613H10.4059V55.97ZM10.4059 46.2579H0.797255V36.6493H10.4059V46.2579ZM20.1179 240.494H10.5093V230.886H20.1179V240.494ZM20.1179 230.782H10.5093V221.174H20.1179V230.782ZM20.1179 221.07H10.5093V211.482H20.1179V221.07ZM20.1179 211.358H10.5093V201.75H20.1179V211.358ZM20.1179 201.646H10.5093V192.042H20.1179V201.646ZM20.1179 191.934H10.5093V182.326H20.1179V191.934ZM20.1179 182.222H10.5093V172.601H20.1179V182.222ZM20.1179 172.51H10.5093V162.902H20.1179V172.51ZM20.1179 162.798H10.5093V153.194H20.1179V162.798ZM20.1179 153.09H10.5093V143.482H20.1179V153.09ZM20.1179 143.378H10.5093V133.77H20.1179V143.378ZM20.1179 133.666H10.5093V124.058H20.1179V133.666ZM20.1179 123.954H10.5093V114.346H20.1179V123.954ZM20.1179 114.242H10.5093V104.634H20.1179V114.242ZM20.1179 104.53H10.5093V94.9215H20.1179V104.53ZM20.1179 94.8181H10.5093V85.2094H20.1179V94.8181ZM20.1179 85.106H10.5093V75.4974H20.1179V85.106ZM20.1179 75.394H10.5093V65.7854H20.1179V75.394ZM20.1179 65.682H10.5093V56.0734H20.1179V65.682ZM20.1179 55.97H10.5093V46.3613H20.1179V55.97ZM20.1179 46.2579H10.5093V36.6493H20.1179V46.2579ZM29.8299 240.494H20.2213V230.886H29.8299V240.494ZM29.8299 230.782H20.2213V221.174H29.8299V230.782ZM29.8299 221.07H20.2213V211.482H29.8299V221.07ZM29.8299 211.358H20.2213V201.75H29.8299V211.358ZM29.8299 201.646H20.2213V192.042H29.8299V201.646ZM29.8299 191.934H20.2213V182.326H29.8299V191.934ZM29.8299 182.222H20.2213V172.601H29.8299V182.222ZM29.8299 172.51H20.2213V162.902H29.8299V172.51ZM29.8299 162.798H20.2213V153.194H29.8299V162.798ZM29.8299 153.09H20.2213V143.482H29.8299V153.09ZM29.8299 143.378H20.2213V133.77H29.8299V143.378ZM29.8299 133.666H20.2213V124.058H29.8299V133.666ZM29.8299 123.954H20.2213V114.346H29.8299V123.954ZM29.8299 114.242H20.2213V104.634H29.8299V114.242ZM29.8299 104.53H20.2213V94.9215H29.8299V104.53ZM29.8299 94.8181H20.2213V85.2094H29.8299V94.8181ZM29.8299 85.106H20.2213V75.4974H29.8299V85.106ZM29.8299 75.394H20.2213V65.7854H29.8299V75.394ZM29.8299 65.682H20.2213V56.0734H29.8299V65.682ZM29.8299 55.97H20.2213V46.3613H29.8299V55.97ZM29.8299 46.2579H20.2213V36.6493H29.8299V46.2579ZM39.542 240.494H29.9333V230.886H39.542V240.494ZM39.542 230.782H29.9333V221.174H39.542V230.782ZM39.542 221.07H29.9333V211.482H39.542V221.07ZM39.542 211.358H29.9333V201.75H39.542V211.358ZM39.542 201.646H29.9333V192.042H39.542V201.646ZM39.542 191.934H29.9333V182.326H39.542V191.934ZM39.542 182.222H29.9333V172.601H39.542V182.222ZM39.542 172.51H29.9333V162.902H39.542V172.51ZM39.542 162.798H29.9333V153.194H39.542V162.798ZM39.542 153.09H29.9333V143.482H39.542V153.09ZM39.542 143.378H29.9333V133.77H39.542V143.378ZM39.542 133.666H29.9333V124.058H39.542V133.666ZM39.542 123.954H29.9333V114.346H39.542V123.954ZM39.542 114.242H29.9333V104.634H39.542V114.242ZM39.542 104.53H29.9333V94.9215H39.542V104.53ZM39.542 94.8181H29.9333V85.2094H39.542V94.8181ZM39.542 85.106H29.9333V75.4974H39.542V85.106ZM39.542 75.394H29.9333V65.7854H39.542V75.394ZM39.542 65.682H29.9333V56.0734H39.542V65.682ZM39.542 55.97H29.9333V46.3613H39.542V55.97ZM39.542 46.2579H29.9333V36.6493H39.542V46.2579ZM49.254 240.494H39.6454V230.886H49.254V240.494ZM49.254 230.782H39.6454V221.174H49.254V230.782ZM49.254 221.07H39.6454V211.482H49.254V221.07ZM49.254 211.358H39.6454V201.75H49.254V211.358ZM49.254 201.646H39.6454V192.042H49.254V201.646ZM49.254 191.934H39.6454V182.326H49.254V191.934ZM49.254 182.222H39.6454V172.601H49.254V182.222ZM49.254 172.51H39.6454V162.902H49.254V172.51ZM49.254 162.798H39.6454V153.194H49.254V162.798ZM49.254 153.09H39.6454V143.482H49.254V153.09ZM49.254 143.378H39.6454V133.77H49.254V143.378ZM49.254 133.666H39.6454V124.058H49.254V133.666ZM49.254 123.954H39.6454V114.346H49.254V123.954ZM49.254 114.242H39.6454V104.634H49.254V114.242ZM49.254 104.53H39.6454V94.9215H49.254V104.53ZM49.254 94.8181H39.6454V85.2094H49.254V94.8181ZM49.254 85.106H39.6454V75.4974H49.254V85.106ZM49.254 75.394H39.6454V65.7854H49.254V75.394ZM49.254 65.682H39.6454V56.0734H49.254V65.682ZM49.254 55.97H39.6454V46.3613H49.254V55.97ZM49.254 46.2579H39.6454V36.6493H49.254V46.2579ZM58.966 240.494H49.3574V230.886H58.966V240.494ZM58.966 230.782H49.3574V221.174H58.966V230.782ZM58.966 221.07H49.3574V211.482H58.966V221.07ZM58.966 211.358H49.3574V201.75H58.966V211.358ZM58.966 201.646H49.3574V192.042H58.966V201.646ZM58.966 191.934H49.3574V182.326H58.966V191.934ZM58.966 182.222H49.3574V172.601H58.966V182.222ZM58.966 172.51H49.3574V162.902H58.966V172.51ZM58.966 162.798H49.3574V153.194H58.966V162.798ZM58.966 153.09H49.3574V143.482H58.966V153.09ZM58.966 143.378H49.3574V133.77H58.966V143.378ZM58.966 133.666H49.3574V124.058H58.966V133.666ZM58.966 123.954H49.3574V114.346H58.966V123.954ZM58.966 114.242H49.3574V104.634H58.966V114.242ZM58.966 104.53H49.3574V94.9215H58.966V104.53ZM58.966 94.8181H49.3574V85.2094H58.966V94.8181ZM58.966 85.106H49.3574V75.4974H58.966V85.106ZM58.966 75.394H49.3574V65.7854H58.966V75.394ZM58.966 65.682H49.3574V56.0734H58.966V65.682ZM58.966 55.97H49.3574V46.3613H58.966V55.97ZM58.966 46.2579H49.3574V36.6493H58.966V46.2579ZM68.678 240.494H59.0653V230.886H68.6739L68.678 240.494ZM68.678 230.782H59.0653V221.174H68.6739L68.678 230.782ZM68.678 221.07H59.0653V211.482H68.6739L68.678 221.07ZM68.678 211.358H59.0653V201.75H68.6739L68.678 211.358ZM68.678 201.646H59.0653V192.042H68.6739L68.678 201.646ZM68.678 191.934H59.0653V182.326H68.6739L68.678 191.934ZM68.678 182.222H59.0653V172.601H68.6739L68.678 182.222ZM68.678 172.51H59.0653V162.902H68.6739L68.678 172.51ZM68.678 162.798H59.0653V153.194H68.6739L68.678 162.798ZM68.678 153.09H59.0653V143.482H68.6739L68.678 153.09ZM68.678 143.378H59.0653V133.77H68.6739L68.678 143.378ZM68.678 133.666H59.0653V124.058H68.6739L68.678 133.666ZM68.678 123.954H59.0653V114.346H68.6739L68.678 123.954ZM68.678 114.242H59.0653V104.634H68.6739L68.678 114.242ZM68.678 104.53H59.0653V94.9215H68.6739L68.678 104.53ZM68.678 94.8181H59.0653V85.2094H68.6739L68.678 94.8181ZM68.678 85.106H59.0653V75.4974H68.6739L68.678 85.106ZM68.678 75.394H59.0653V65.7854H68.6739L68.678 75.394ZM68.678 65.682H59.0653V56.0734H68.6739L68.678 65.682ZM68.678 55.97H59.0653V46.3613H68.6739L68.678 55.97ZM68.678 46.2579H59.0653V36.6493H68.6739L68.678 46.2579ZM78.3901 240.494H68.7814V230.886H78.3901V240.494ZM78.3901 230.782H68.7814V221.174H78.3901V230.782ZM78.3901 221.07H68.7814V211.482H78.3901V221.07ZM78.3901 211.358H68.7814V201.75H78.3901V211.358ZM78.3901 201.646H68.7814V192.042H78.3901V201.646ZM78.3901 191.934H68.7814V182.326H78.3901V191.934ZM78.3901 182.222H68.7814V172.601H78.3901V182.222ZM78.3901 172.51H68.7814V162.902H78.3901V172.51ZM78.3901 162.798H68.7814V153.194H78.3901V162.798ZM78.3901 153.09H68.7814V143.482H78.3901V153.09ZM78.3901 143.378H68.7814V133.77H78.3901V143.378ZM78.3901 133.666H68.7814V124.058H78.3901V133.666ZM78.3901 123.954H68.7814V114.346H78.3901V123.954ZM78.3901 114.242H68.7814V104.634H78.3901V114.242ZM78.3901 104.53H68.7814V94.9215H78.3901V104.53ZM78.3901 94.8181H68.7814V85.2094H78.3901V94.8181ZM78.3901 85.106H68.7814V75.4974H78.3901V85.106ZM78.3901 75.394H68.7814V65.7854H78.3901V75.394ZM78.3901 65.682H68.7814V56.0734H78.3901V65.682ZM78.3901 55.97H68.7814V46.3613H78.3901V55.97ZM78.3901 46.2579H68.7814V36.6493H78.3901V46.2579ZM88.098 240.494H78.5059V230.886H88.1104L88.098 240.494ZM88.098 230.782H78.5059V221.174H88.1104L88.098 230.782ZM88.098 221.07H78.5059V211.482H88.1104L88.098 221.07ZM88.098 211.358H78.5059V201.75H88.1104L88.098 211.358ZM88.098 201.646H78.5059V192.042H88.1104L88.098 201.646ZM88.098 191.934H78.5059V182.326H88.1104L88.098 191.934ZM88.098 182.222H78.5059V172.601H88.1104L88.098 182.222ZM88.098 172.51H78.5059V162.902H88.1104L88.098 172.51ZM88.098 162.798H78.5059V153.194H88.1104L88.098 162.798ZM88.098 153.09H78.5059V143.482H88.1104L88.098 153.09ZM88.098 143.378H78.5059V133.77H88.1104L88.098 143.378ZM88.098 133.666H78.5059V124.058H88.1104L88.098 133.666ZM88.098 123.954H78.5059V114.346H88.1104L88.098 123.954ZM88.098 114.242H78.5059V104.634H88.1104L88.098 114.242ZM88.098 104.53H78.5059V94.9215H88.1104L88.098 104.53ZM88.098 94.8181H78.5059V85.2094H88.1104L88.098 94.8181ZM88.098 85.106H78.5059V75.4974H88.1104L88.098 85.106ZM88.098 75.394H78.5059V65.7854H88.1104L88.098 75.394ZM88.098 65.682H78.5059V56.0734H88.1104L88.098 65.682ZM88.098 55.97H78.5059V46.3613H88.1104L88.098 55.97ZM88.098 46.2579H78.5059V36.6493H88.1104L88.098 46.2579ZM97.81 240.494H88.2014V230.886H97.81V240.494ZM97.81 230.782H88.2014V221.174H97.81V230.782ZM97.81 221.07H88.2014V211.482H97.81V221.07ZM97.81 211.358H88.2014V201.75H97.81V211.358ZM97.81 201.646H88.2014V192.042H97.81V201.646ZM97.81 191.934H88.2014V182.326H97.81V191.934ZM97.81 182.222H88.2014V172.601H97.81V182.222ZM97.81 172.51H88.2014V162.902H97.81V172.51ZM97.81 162.798H88.2014V153.194H97.81V162.798ZM97.81 153.09H88.2014V143.482H97.81V153.09ZM97.81 143.378H88.2014V133.77H97.81V143.378ZM97.81 133.666H88.2014V124.058H97.81V133.666ZM97.81 123.954H88.2014V114.346H97.81V123.954ZM97.81 114.242H88.2014V104.634H97.81V114.242ZM97.81 104.53H88.2014V94.9215H97.81V104.53ZM97.81 94.8181H88.2014V85.2094H97.81V94.8181ZM97.81 85.106H88.2014V75.4974H97.81V85.106ZM97.81 75.394H88.2014V65.7854H97.81V75.394ZM97.81 65.682H88.2014V56.0734H97.81V65.682ZM97.81 55.97H88.2014V46.3613H97.81V55.97ZM97.81 46.2579H88.2014V36.6493H97.81V46.2579ZM107.522 240.494H97.9134V230.886H107.522V240.494ZM107.522 230.782H97.9134V221.174H107.522V230.782ZM107.522 221.07H97.9134V211.482H107.522V221.07ZM107.522 211.358H97.9134V201.75H107.522V211.358ZM107.522 201.646H97.9134V192.042H107.522V201.646ZM107.522 191.934H97.9134V182.326H107.522V191.934ZM107.522 182.222H97.9134V172.601H107.522V182.222ZM107.522 172.51H97.9134V162.902H107.522V172.51ZM107.522 162.798H97.9134V153.194H107.522V162.798ZM107.522 153.09H97.9134V143.482H107.522V153.09ZM107.522 143.378H97.9134V133.77H107.522V143.378ZM107.522 133.666H97.9134V124.058H107.522V133.666ZM107.522 123.954H97.9134V114.346H107.522V123.954ZM107.522 114.242H97.9134V104.634H107.522V114.242ZM107.522 104.53H97.9134V94.9215H107.522V104.53ZM107.522 94.8181H97.9134V85.2094H107.522V94.8181ZM107.522 85.106H97.9134V75.4974H107.522V85.106ZM107.522 75.394H97.9134V65.7854H107.522V75.394ZM107.522 65.682H97.9134V56.0734H107.522V65.682ZM107.522 55.97H97.9134V46.3613H107.522V55.97ZM107.522 46.2579H97.9134V36.6493H107.522V46.2579ZM117.234 240.494H107.625V230.886H117.234V240.494ZM117.234 230.782H107.625V221.174H117.234V230.782ZM117.234 221.07H107.625V211.482H117.234V221.07ZM117.234 211.358H107.625V201.75H117.234V211.358ZM117.234 201.646H107.625V192.042H117.234V201.646ZM117.234 191.934H107.625V182.326H117.234V191.934ZM117.234 182.222H107.625V172.601H117.234V182.222ZM117.234 172.51H107.625V162.902H117.234V172.51ZM117.234 162.798H107.625V153.194H117.234V162.798ZM117.234 153.09H107.625V143.482H117.234V153.09ZM117.234 143.378H107.625V133.77H117.234V143.378ZM117.234 133.666H107.625V124.058H117.234V133.666ZM117.234 123.954H107.625V114.346H117.234V123.954ZM117.234 114.242H107.625V104.634H117.234V114.242ZM117.234 104.53H107.625V94.9215H117.234V104.53ZM117.234 94.8181H107.625V85.2094H117.234V94.8181ZM117.234 85.106H107.625V75.4974H117.234V85.106ZM117.234 75.394H107.625V65.7854H117.234V75.394ZM117.234 65.682H107.625V56.0734H117.234V65.682ZM117.234 55.97H107.625V46.3613H117.234V55.97ZM117.234 46.2579H107.625V36.6493H117.234V46.2579ZM126.946 240.494H117.337V230.886H126.946V240.494ZM126.946 230.782H117.337V221.174H126.946V230.782ZM126.946 221.07H117.337V211.482H126.946V221.07ZM126.946 211.358H117.337V201.75H126.946V211.358ZM126.946 201.646H117.337V192.042H126.946V201.646ZM126.946 191.934H117.337V182.326H126.946V191.934ZM126.946 182.222H117.337V172.601H126.946V182.222ZM126.946 172.51H117.337V162.902H126.946V172.51ZM126.946 162.798H117.337V153.194H126.946V162.798ZM126.946 153.09H117.337V143.482H126.946V153.09ZM126.946 143.378H117.337V133.77H126.946V143.378ZM126.946 133.666H117.337V124.058H126.946V133.666ZM126.946 123.954H117.337V114.346H126.946V123.954ZM126.946 114.242H117.337V104.634H126.946V114.242ZM126.946 104.53H117.337V94.9215H126.946V104.53ZM126.946 94.8181H117.337V85.2094H126.946V94.8181ZM126.946 85.106H117.337V75.4974H126.946V85.106ZM126.946 75.394H117.337V65.7854H126.946V75.394ZM126.946 65.682H117.337V56.0734H126.946V65.682ZM126.946 55.97H117.337V46.3613H126.946V55.97ZM126.946 46.2579H117.337V36.6493H126.946V46.2579ZM136.658 240.494H127.049V230.886H136.658V240.494ZM136.658 230.782H127.049V221.174H136.658V230.782ZM136.658 221.07H127.049V211.482H136.658V221.07ZM136.658 211.358H127.049V201.75H136.658V211.358ZM136.658 201.646H127.049V192.042H136.658V201.646ZM136.658 191.934H127.049V182.326H136.658V191.934ZM136.658 182.222H127.049V172.601H136.658V182.222ZM136.658 172.51H127.049V162.902H136.658V172.51ZM136.658 162.798H127.049V153.194H136.658V162.798ZM136.658 153.09H127.049V143.482H136.658V153.09ZM136.658 143.378H127.049V133.77H136.658V143.378ZM136.658 133.666H127.049V124.058H136.658V133.666ZM136.658 123.954H127.049V114.346H136.658V123.954ZM136.658 114.242H127.049V104.634H136.658V114.242ZM136.658 104.53H127.049V94.9215H136.658V104.53ZM136.658 94.8181H127.049V85.2094H136.658V94.8181ZM136.658 85.106H127.049V75.4974H136.658V85.106ZM136.658 75.394H127.049V65.7854H136.658V75.394ZM136.658 65.682H127.049V56.0734H136.658V65.682ZM136.658 55.97H127.049V46.3613H136.658V55.97ZM136.658 46.2579H127.049V36.6493H136.658V46.2579ZM146.37 240.494H136.762V230.886H146.37V240.494ZM146.37 230.782H136.762V221.174H146.37V230.782ZM146.37 221.07H136.762V211.482H146.37V221.07ZM146.37 211.358H136.762V201.75H146.37V211.358ZM146.37 201.646H136.762V192.042H146.37V201.646ZM146.37 191.934H136.762V182.326H146.37V191.934ZM146.37 182.222H136.762V172.601H146.37V182.222ZM146.37 172.51H136.762V162.902H146.37V172.51ZM146.37 162.798H136.762V153.194H146.37V162.798ZM146.37 153.09H136.762V143.482H146.37V153.09ZM146.37 143.378H136.762V133.77H146.37V143.378ZM146.37 133.666H136.762V124.058H146.37V133.666ZM146.37 123.954H136.762V114.346H146.37V123.954ZM146.37 114.242H136.762V104.634H146.37V114.242ZM146.37 104.53H136.762V94.9215H146.37V104.53ZM146.37 94.8181H136.762V85.2094H146.37V94.8181ZM146.37 85.106H136.762V75.4974H146.37V85.106ZM146.37 75.394H136.762V65.7854H146.37V75.394ZM146.37 65.682H136.762V56.0734H146.37V65.682ZM146.37 55.97H136.762V46.3613H146.37V55.97ZM146.37 46.2579H136.762V36.6493H146.37V46.2579ZM156.082 240.494H146.474V230.886H156.082V240.494ZM156.082 230.782H146.474V221.174H156.082V230.782ZM156.082 221.07H146.474V211.482H156.082V221.07ZM156.082 211.358H146.474V201.75H156.082V211.358ZM156.082 201.646H146.474V192.042H156.082V201.646ZM156.082 191.934H146.474V182.326H156.082V191.934ZM156.082 182.222H146.474V172.601H156.082V182.222ZM156.082 172.51H146.474V162.902H156.082V172.51ZM156.082 162.798H146.474V153.194H156.082V162.798ZM156.082 153.09H146.474V143.482H156.082V153.09ZM156.082 143.378H146.474V133.77H156.082V143.378ZM156.082 133.666H146.474V124.058H156.082V133.666ZM156.082 123.954H146.474V114.346H156.082V123.954ZM156.082 114.242H146.474V104.634H156.082V114.242ZM156.082 104.53H146.474V94.9215H156.082V104.53ZM156.082 94.8181H146.474V85.2094H156.082V94.8181ZM156.082 85.106H146.474V75.4974H156.082V85.106ZM156.082 75.394H146.474V65.7854H156.082V75.394ZM156.082 65.682H146.474V56.0734H156.082V65.682ZM156.082 55.97H146.474V46.3613H156.082V55.97ZM156.082 46.2579H146.474V36.6493H156.082V46.2579ZM165.782 240.494H156.186V230.886H165.782V240.494ZM165.782 230.782H156.186V221.174H165.782V230.782ZM165.782 221.07H156.186V211.482H165.782V221.07ZM165.782 211.358H156.186V201.75H165.782V211.358ZM165.782 201.646H156.186V192.042H165.782V201.646ZM165.782 191.934H156.186V182.326H165.782V191.934ZM165.782 182.222H156.186V172.601H165.782V182.222ZM165.782 172.51H156.186V162.902H165.782V172.51ZM165.782 162.798H156.186V153.194H165.782V162.798ZM165.782 153.09H156.186V143.482H165.782V153.09ZM165.782 143.378H156.186V133.77H165.782V143.378ZM165.782 133.666H156.186V124.058H165.782V133.666ZM165.782 123.954H156.186V114.346H165.782V123.954ZM165.782 114.242H156.186V104.634H165.782V114.242ZM165.782 104.53H156.186V94.9215H165.782V104.53ZM165.782 94.8387H156.186V85.2094H165.782V94.8387ZM165.782 85.1267H156.186V75.4974H165.782V85.1267ZM165.782 75.3981H156.186V65.7854H165.782V75.3981ZM165.782 65.6861H156.186V56.0734H165.782V65.6861ZM165.782 55.9575H156.186V46.3613H165.782V55.9575ZM165.782 46.2455H156.186V36.6493H165.782V46.2455ZM175.494 240.482H165.898V230.886H175.506L175.494 240.482ZM175.494 230.77H165.898V221.174H175.506L175.494 230.77ZM175.494 221.058H165.898V211.482H175.506L175.494 221.058ZM175.494 211.346H165.898V201.75H175.506L175.494 211.346ZM175.494 201.634H165.898V192.042H175.506L175.494 201.634ZM175.494 191.922H165.898V182.326H175.506L175.494 191.922ZM175.494 182.21H165.898V172.601H175.506L175.494 182.21ZM175.494 172.498H165.898V162.902H175.506L175.494 172.498ZM175.494 162.786H165.898V153.194H175.506L175.494 162.786ZM175.494 153.078H165.898V143.482H175.506L175.494 153.078ZM175.494 143.366H165.898V133.77H175.506L175.494 143.366ZM175.494 133.654H165.898V124.058H175.506L175.494 133.654ZM175.494 123.942H165.898V114.346H175.506L175.494 123.942ZM175.494 114.23H165.898V104.634H175.506L175.494 114.23ZM175.494 104.518H165.898V94.9215H175.506L175.494 104.518ZM175.494 94.8057H165.898V85.2094H175.506L175.494 94.8057ZM175.494 85.0936H165.898V75.4974H175.506L175.494 85.0936ZM175.494 75.3816H165.898V65.7854H175.506L175.494 75.3816ZM175.494 65.6696H165.898V56.0734H175.506L175.494 65.6696ZM175.494 55.9575H165.898V46.3613H175.506L175.494 55.9575ZM175.494 46.2455H165.898V36.6493H175.506L175.494 46.2455ZM185.222 240.494H175.61V230.886H185.222V240.494ZM185.222 230.782H175.61V221.174H185.222V230.782ZM185.222 221.07H175.61V211.482H185.222V221.07ZM185.222 211.358H175.61V201.75H185.222V211.358ZM185.222 201.646H175.61V192.042H185.222V201.646ZM185.222 191.934H175.61V182.326H185.222V191.934ZM185.222 182.222H175.61V172.601H185.222V182.222ZM185.222 172.51H175.61V162.902H185.222V172.51ZM185.222 162.798H175.61V153.194H185.222V162.798ZM185.222 153.09H175.61V143.482H185.222V153.09ZM185.222 143.378H175.61V133.77H185.222V143.378ZM185.222 133.666H175.61V124.058H185.222V133.666ZM185.222 123.954H175.61V114.346H185.222V123.954ZM185.222 114.242H175.61V104.634H185.222V114.242ZM185.222 104.53H175.61V94.9215H185.222V104.53ZM185.222 94.8387H175.61V85.2094H185.222V94.8387ZM185.222 85.1267H175.61V75.4974H185.222V85.1267ZM185.222 75.3981H175.61V65.7854H185.222V75.3981ZM185.222 65.6861H175.61V56.0734H185.222V65.6861ZM185.222 55.9575H175.61V46.3613H185.222V55.9575ZM185.222 46.2455H175.61V36.6493H185.222V46.2455ZM194.934 240.482H185.322V230.886H194.93L194.934 240.482ZM194.934 230.77H185.322V221.174H194.93L194.934 230.77ZM194.934 221.058H185.322V211.482H194.93L194.934 221.058ZM194.934 211.346H185.322V201.75H194.93L194.934 211.346ZM194.934 201.634H185.322V192.042H194.93L194.934 201.634ZM194.934 191.922H185.322V182.326H194.93L194.934 191.922ZM194.934 182.21H185.322V172.601H194.93L194.934 182.21ZM194.934 172.498H185.322V162.902H194.93L194.934 172.498ZM194.934 162.786H185.322V153.194H194.93L194.934 162.786ZM194.934 153.078H185.322V143.482H194.93L194.934 153.078ZM194.934 143.366H185.322V133.77H194.93L194.934 143.366ZM194.934 133.654H185.322V124.058H194.93L194.934 133.654ZM194.934 123.942H185.322V114.346H194.93L194.934 123.942ZM194.934 114.23H185.322V104.634H194.93L194.934 114.23ZM194.934 104.518H185.322V94.9215H194.93L194.934 104.518ZM194.934 94.8057H185.322V85.2094H194.93L194.934 94.8057ZM194.934 85.0936H185.322V75.4974H194.93L194.934 85.0936ZM194.934 75.3816H185.322V65.7854H194.93L194.934 75.3816ZM194.934 65.6696H185.322V56.0734H194.93L194.934 65.6696ZM194.934 55.9575H185.322V46.3613H194.93L194.934 55.9575ZM194.934 46.2455H185.322V36.6493H194.93L194.934 46.2455ZM204.663 240.494H195.034V230.886H204.663V240.494ZM204.663 230.782H195.034V221.174H204.663V230.782ZM204.663 221.07H195.034V211.482H204.663V221.07ZM204.663 211.358H195.034V201.75H204.663V211.358ZM204.663 201.646H195.034V192.042H204.663V201.646ZM204.663 191.934H195.034V182.326H204.663V191.934ZM204.663 182.222H195.034V172.601H204.663V182.222ZM204.663 172.51H195.034V162.902H204.663V172.51ZM204.663 162.798H195.034V153.194H204.663V162.798ZM204.663 153.09H195.034V143.482H204.663V153.09ZM204.663 143.378H195.034V133.77H204.663V143.378ZM204.663 133.666H195.034V124.058H204.663V133.666ZM204.663 123.954H195.034V114.346H204.663V123.954ZM204.663 114.242H195.034V104.634H204.663V114.242ZM204.663 104.53H195.034V94.9215H204.663V104.53ZM204.663 94.8387H195.034V85.2094H204.663V94.8387ZM204.663 85.1267H195.034V75.4974H204.663V85.1267ZM204.663 75.3981H195.034V65.7854H204.663V75.3981ZM204.663 65.6861H195.034V56.0734H204.663V65.6861ZM204.663 55.9575H195.034V46.3613H204.663V55.9575ZM204.663 46.2455H195.034V36.6493H204.663V46.2455Z" fill="url(#paint0_radial_10_2)"/>
<g filter="url(#filter0_d_10_2)">
<path d="M243.939 113.793C266.839 136.673 266.857 173.782 243.982 196.683C221.107 219.585 184.001 219.603 161.101 196.726C138.202 173.849 101.096 173.867 78.2206 196.769C55.3453 219.67 55.3636 256.788 78.2602 279.668" stroke="#FFFFE0" stroke-width="0.25" stroke-miterlimit="10" shape-rendering="crispEdges"/>
</g>
<path opacity="0.5" d="M211.091 0.542969V188.303H319.494V0.542969H211.091ZM216.251 188.208H211.146V179.366H216.251V188.208ZM216.251 179.271H211.146V170.43H216.251V179.271ZM216.251 170.335H211.146V161.512H216.251V170.335ZM216.251 161.398H211.146V152.557H216.251V161.398ZM216.251 152.461H211.146V143.624H216.251V152.461ZM216.251 143.525H211.146V134.683H216.251V143.525ZM216.251 134.588H211.146V125.735H216.251V134.588ZM216.251 125.652H211.146V116.81H216.251V125.652ZM216.251 116.715H211.146V107.877H216.251V116.715ZM216.251 107.782H211.146V98.9407H216.251V107.782ZM216.251 98.8456H211.146V90.0041H216.251V98.8456ZM216.251 89.909H211.146V81.0675H216.251V89.909ZM216.251 80.9724H211.146V72.1309H216.251V80.9724ZM216.251 72.0358H211.146V63.1943H216.251V72.0358ZM216.251 63.0992H211.146V54.2577H216.251V63.0992ZM216.251 54.1626H211.146V45.3211H216.251V54.1626ZM216.251 45.226H211.146V36.3845H216.251V45.226ZM216.251 36.2894H211.146V27.4479H216.251V36.2894ZM216.251 27.3528H211.146V18.5113H216.251V27.3528ZM216.251 18.4162H211.146V9.57472H216.251V18.4162ZM216.251 9.47957H211.146V0.63812H216.251V9.47957ZM221.41 188.208H216.306V179.366H221.41V188.208ZM221.41 179.271H216.306V170.43H221.41V179.271ZM221.41 170.335H216.306V161.512H221.41V170.335ZM221.41 161.398H216.306V152.557H221.41V161.398ZM221.41 152.461H216.306V143.624H221.41V152.461ZM221.41 143.525H216.306V134.683H221.41V143.525ZM221.41 134.588H216.306V125.735H221.41V134.588ZM221.41 125.652H216.306V116.81H221.41V125.652ZM221.41 116.715H216.306V107.877H221.41V116.715ZM221.41 107.782H216.306V98.9407H221.41V107.782ZM221.41 98.8456H216.306V90.0041H221.41V98.8456ZM221.41 89.909H216.306V81.0675H221.41V89.909ZM221.41 80.9724H216.306V72.1309H221.41V80.9724ZM221.41 72.0358H216.306V63.1943H221.41V72.0358ZM221.41 63.0992H216.306V54.2577H221.41V63.0992ZM221.41 54.1626H216.306V45.3211H221.41V54.1626ZM221.41 45.226H216.306V36.3845H221.41V45.226ZM221.41 36.2894H216.306V27.4479H221.41V36.2894ZM221.41 27.3528H216.306V18.5113H221.41V27.3528ZM221.41 18.4162H216.306V9.57472H221.41V18.4162ZM221.41 9.47957H216.306V0.63812H221.41V9.47957ZM226.57 188.208H221.465V179.366H226.57V188.208ZM226.57 179.271H221.465V170.43H226.57V179.271ZM226.57 170.335H221.465V161.512H226.57V170.335ZM226.57 161.398H221.465V152.557H226.57V161.398ZM226.57 152.461H221.465V143.624H226.57V152.461ZM226.57 143.525H221.465V134.683H226.57V143.525ZM226.57 134.588H221.465V125.735H226.57V134.588ZM226.57 125.652H221.465V116.81H226.57V125.652ZM226.57 116.715H221.465V107.877H226.57V116.715ZM226.57 107.782H221.465V98.9407H226.57V107.782ZM226.57 98.8456H221.465V90.0041H226.57V98.8456ZM226.57 89.909H221.465V81.0675H226.57V89.909ZM226.57 80.9724H221.465V72.1309H226.57V80.9724ZM226.57 72.0358H221.465V63.1943H226.57V72.0358ZM226.57 63.0992H221.465V54.2577H226.57V63.0992ZM226.57 54.1626H221.465V45.3211H226.57V54.1626ZM226.57 45.226H221.465V36.3845H226.57V45.226ZM226.57 36.2894H221.465V27.4479H226.57V36.2894ZM226.57 27.3528H221.465V18.5113H226.57V27.3528ZM226.57 18.4162H221.465V9.57472H226.57V18.4162ZM226.57 9.47957H221.465V0.63812H226.57V9.47957ZM231.729 188.208H226.625V179.366H231.729V188.208ZM231.729 179.271H226.625V170.43H231.729V179.271ZM231.729 170.335H226.625V161.512H231.729V170.335ZM231.729 161.398H226.625V152.557H231.729V161.398ZM231.729 152.461H226.625V143.624H231.729V152.461ZM231.729 143.525H226.625V134.683H231.729V143.525ZM231.729 134.588H226.625V125.735H231.729V134.588ZM231.729 125.652H226.625V116.81H231.729V125.652ZM231.729 116.715H226.625V107.877H231.729V116.715ZM231.729 107.782H226.625V98.9407H231.729V107.782ZM231.729 98.8456H226.625V90.0041H231.729V98.8456ZM231.729 89.909H226.625V81.0675H231.729V89.909ZM231.729 80.9724H226.625V72.1309H231.729V80.9724ZM231.729 72.0358H226.625V63.1943H231.729V72.0358ZM231.729 63.0992H226.625V54.2577H231.729V63.0992ZM231.729 54.1626H226.625V45.3211H231.729V54.1626ZM231.729 45.226H226.625V36.3845H231.729V45.226ZM231.729 36.2894H226.625V27.4479H231.729V36.2894ZM231.729 27.3528H226.625V18.5113H231.729V27.3528ZM231.729 18.4162H226.625V9.57472H231.729V18.4162ZM231.729 9.47957H226.625V0.63812H231.729V9.47957ZM236.889 188.208H231.784V179.366H236.889V188.208ZM236.889 179.271H231.784V170.43H236.889V179.271ZM236.889 170.335H231.784V161.512H236.889V170.335ZM236.889 161.398H231.784V152.557H236.889V161.398ZM236.889 152.461H231.784V143.624H236.889V152.461ZM236.889 143.525H231.784V134.683H236.889V143.525ZM236.889 134.588H231.784V125.735H236.889V134.588ZM236.889 125.652H231.784V116.81H236.889V125.652ZM236.889 116.715H231.784V107.877H236.889V116.715ZM236.889 107.782H231.784V98.9407H236.889V107.782ZM236.889 98.8456H231.784V90.0041H236.889V98.8456ZM236.889 89.909H231.784V81.0675H236.889V89.909ZM236.889 80.9724H231.784V72.1309H236.889V80.9724ZM236.889 72.0358H231.784V63.1943H236.889V72.0358ZM236.889 63.0992H231.784V54.2577H236.889V63.0992ZM236.889 54.1626H231.784V45.3211H236.889V54.1626ZM236.889 45.226H231.784V36.3845H236.889V45.226ZM236.889 36.2894H231.784V27.4479H236.889V36.2894ZM236.889 27.3528H231.784V18.5113H236.889V27.3528ZM236.889 18.4162H231.784V9.57472H236.889V18.4162ZM236.889 9.47957H231.784V0.63812H236.889V9.47957ZM242.048 188.208H236.944V179.366H242.048V188.208ZM242.048 179.271H236.944V170.43H242.048V179.271ZM242.048 170.335H236.944V161.512H242.048V170.335ZM242.048 161.398H236.944V152.557H242.048V161.398ZM242.048 152.461H236.944V143.624H242.048V152.461ZM242.048 143.525H236.944V134.683H242.048V143.525ZM242.048 134.588H236.944V125.735H242.048V134.588ZM242.048 125.652H236.944V116.81H242.048V125.652ZM242.048 116.715H236.944V107.877H242.048V116.715ZM242.048 107.782H236.944V98.9407H242.048V107.782ZM242.048 98.8456H236.944V90.0041H242.048V98.8456ZM242.048 89.909H236.944V81.0675H242.048V89.909ZM242.048 80.9724H236.944V72.1309H242.048V80.9724ZM242.048 72.0358H236.944V63.1943H242.048V72.0358ZM242.048 63.0992H236.944V54.2577H242.048V63.0992ZM242.048 54.1626H236.944V45.3211H242.048V54.1626ZM242.048 45.226H236.944V36.3845H242.048V45.226ZM242.048 36.2894H236.944V27.4479H242.048V36.2894ZM242.048 27.3528H236.944V18.5113H242.048V27.3528ZM242.048 18.4162H236.944V9.57472H242.048V18.4162ZM242.048 9.47957H236.944V0.63812H242.048V9.47957ZM247.208 188.208H242.101V179.366H247.206L247.208 188.208ZM247.208 179.271H242.101V170.43H247.206L247.208 179.271ZM247.208 170.335H242.101V161.512H247.206L247.208 170.335ZM247.208 161.398H242.101V152.557H247.206L247.208 161.398ZM247.208 152.461H242.101V143.624H247.206L247.208 152.461ZM247.208 143.525H242.101V134.683H247.206L247.208 143.525ZM247.208 134.588H242.101V125.735H247.206L247.208 134.588ZM247.208 125.652H242.101V116.81H247.206L247.208 125.652ZM247.208 116.715H242.101V107.877H247.206L247.208 116.715ZM247.208 107.782H242.101V98.9407H247.206L247.208 107.782ZM247.208 98.8456H242.101V90.0041H247.206L247.208 98.8456ZM247.208 89.909H242.101V81.0675H247.206L247.208 89.909ZM247.208 80.9724H242.101V72.1309H247.206L247.208 80.9724ZM247.208 72.0358H242.101V63.1943H247.206L247.208 72.0358ZM247.208 63.0992H242.101V54.2577H247.206L247.208 63.0992ZM247.208 54.1626H242.101V45.3211H247.206L247.208 54.1626ZM247.208 45.226H242.101V36.3845H247.206L247.208 45.226ZM247.208 36.2894H242.101V27.4479H247.206L247.208 36.2894ZM247.208 27.3528H242.101V18.5113H247.206L247.208 27.3528ZM247.208 18.4162H242.101V9.57472H247.206L247.208 18.4162ZM247.208 9.47957H242.101V0.63812H247.206L247.208 9.47957ZM252.367 188.208H247.263V179.366H252.367V188.208ZM252.367 179.271H247.263V170.43H252.367V179.271ZM252.367 170.335H247.263V161.512H252.367V170.335ZM252.367 161.398H247.263V152.557H252.367V161.398ZM252.367 152.461H247.263V143.624H252.367V152.461ZM252.367 143.525H247.263V134.683H252.367V143.525ZM252.367 134.588H247.263V125.735H252.367V134.588ZM252.367 125.652H247.263V116.81H252.367V125.652ZM252.367 116.715H247.263V107.877H252.367V116.715ZM252.367 107.782H247.263V98.9407H252.367V107.782ZM252.367 98.8456H247.263V90.0041H252.367V98.8456ZM252.367 89.909H247.263V81.0675H252.367V89.909ZM252.367 80.9724H247.263V72.1309H252.367V80.9724ZM252.367 72.0358H247.263V63.1943H252.367V72.0358ZM252.367 63.0992H247.263V54.2577H252.367V63.0992ZM252.367 54.1626H247.263V45.3211H252.367V54.1626ZM252.367 45.226H247.263V36.3845H252.367V45.226ZM252.367 36.2894H247.263V27.4479H252.367V36.2894ZM252.367 27.3528H247.263V18.5113H252.367V27.3528ZM252.367 18.4162H247.263V9.57472H252.367V18.4162ZM252.367 9.47957H247.263V0.63812H252.367V9.47957ZM257.525 188.208H252.429V179.366H257.531L257.525 188.208ZM257.525 179.271H252.429V170.43H257.531L257.525 179.271ZM257.525 170.335H252.429V161.512H257.531L257.525 170.335ZM257.525 161.398H252.429V152.557H257.531L257.525 161.398ZM257.525 152.461H252.429V143.624H257.531L257.525 152.461ZM257.525 143.525H252.429V134.683H257.531L257.525 143.525ZM257.525 134.588H252.429V125.735H257.531L257.525 134.588ZM257.525 125.652H252.429V116.81H257.531L257.525 125.652ZM257.525 116.715H252.429V107.877H257.531L257.525 116.715ZM257.525 107.782H252.429V98.9407H257.531L257.525 107.782ZM257.525 98.8456H252.429V90.0041H257.531L257.525 98.8456ZM257.525 89.909H252.429V81.0675H257.531L257.525 89.909ZM257.525 80.9724H252.429V72.1309H257.531L257.525 80.9724ZM257.525 72.0358H252.429V63.1943H257.531L257.525 72.0358ZM257.525 63.0992H252.429V54.2577H257.531L257.525 63.0992ZM257.525 54.1626H252.429V45.3211H257.531L257.525 54.1626ZM257.525 45.226H252.429V36.3845H257.531L257.525 45.226ZM257.525 36.2894H252.429V27.4479H257.531L257.525 36.2894ZM257.525 27.3528H252.429V18.5113H257.531L257.525 27.3528ZM257.525 18.4162H252.429V9.57472H257.531L257.525 18.4162ZM257.525 9.47957H252.429V0.63812H257.531L257.525 9.47957ZM262.684 188.208H257.58V179.366H262.684V188.208ZM262.684 179.271H257.58V170.43H262.684V179.271ZM262.684 170.335H257.58V161.512H262.684V170.335ZM262.684 161.398H257.58V152.557H262.684V161.398ZM262.684 152.461H257.58V143.624H262.684V152.461ZM262.684 143.525H257.58V134.683H262.684V143.525ZM262.684 134.588H257.58V125.735H262.684V134.588ZM262.684 125.652H257.58V116.81H262.684V125.652ZM262.684 116.715H257.58V107.877H262.684V116.715ZM262.684 107.782H257.58V98.9407H262.684V107.782ZM262.684 98.8456H257.58V90.0041H262.684V98.8456ZM262.684 89.909H257.58V81.0675H262.684V89.909ZM262.684 80.9724H257.58V72.1309H262.684V80.9724ZM262.684 72.0358H257.58V63.1943H262.684V72.0358ZM262.684 63.0992H257.58V54.2577H262.684V63.0992ZM262.684 54.1626H257.58V45.3211H262.684V54.1626ZM262.684 45.226H257.58V36.3845H262.684V45.226ZM262.684 36.2894H257.58V27.4479H262.684V36.2894ZM262.684 27.3528H257.58V18.5113H262.684V27.3528ZM262.684 18.4162H257.58V9.57472H262.684V18.4162ZM262.684 9.47957H257.58V0.63812H262.684V9.47957ZM267.844 188.208H262.739V179.366H267.844V188.208ZM267.844 179.271H262.739V170.43H267.844V179.271ZM267.844 170.335H262.739V161.512H267.844V170.335ZM267.844 161.398H262.739V152.557H267.844V161.398ZM267.844 152.461H262.739V143.624H267.844V152.461ZM267.844 143.525H262.739V134.683H267.844V143.525ZM267.844 134.588H262.739V125.735H267.844V134.588ZM267.844 125.652H262.739V116.81H267.844V125.652ZM267.844 116.715H262.739V107.877H267.844V116.715ZM267.844 107.782H262.739V98.9407H267.844V107.782ZM267.844 98.8456H262.739V90.0041H267.844V98.8456ZM267.844 89.909H262.739V81.0675H267.844V89.909ZM267.844 80.9724H262.739V72.1309H267.844V80.9724ZM267.844 72.0358H262.739V63.1943H267.844V72.0358ZM267.844 63.0992H262.739V54.2577H267.844V63.0992ZM267.844 54.1626H262.739V45.3211H267.844V54.1626ZM267.844 45.226H262.739V36.3845H267.844V45.226ZM267.844 36.2894H262.739V27.4479H267.844V36.2894ZM267.844 27.3528H262.739V18.5113H267.844V27.3528ZM267.844 18.4162H262.739V9.57472H267.844V18.4162ZM267.844 9.47957H262.739V0.63812H267.844V9.47957ZM273.003 188.208H267.899V179.366H273.003V188.208ZM273.003 179.271H267.899V170.43H273.003V179.271ZM273.003 170.335H267.899V161.512H273.003V170.335ZM273.003 161.398H267.899V152.557H273.003V161.398ZM273.003 152.461H267.899V143.624H273.003V152.461ZM273.003 143.525H267.899V134.683H273.003V143.525ZM273.003 134.588H267.899V125.735H273.003V134.588ZM273.003 125.652H267.899V116.81H273.003V125.652ZM273.003 116.715H267.899V107.877H273.003V116.715ZM273.003 107.782H267.899V98.9407H273.003V107.782ZM273.003 98.8456H267.899V90.0041H273.003V98.8456ZM273.003 89.909H267.899V81.0675H273.003V89.909ZM273.003 80.9724H267.899V72.1309H273.003V80.9724ZM273.003 72.0358H267.899V63.1943H273.003V72.0358ZM273.003 63.0992H267.899V54.2577H273.003V63.0992ZM273.003 54.1626H267.899V45.3211H273.003V54.1626ZM273.003 45.226H267.899V36.3845H273.003V45.226ZM273.003 36.2894H267.899V27.4479H273.003V36.2894ZM273.003 27.3528H267.899V18.5113H273.003V27.3528ZM273.003 18.4162H267.899V9.57472H273.003V18.4162ZM273.003 9.47957H267.899V0.63812H273.003V9.47957ZM278.163 188.208H273.058V179.366H278.163V188.208ZM278.163 179.271H273.058V170.43H278.163V179.271ZM278.163 170.335H273.058V161.512H278.163V170.335ZM278.163 161.398H273.058V152.557H278.163V161.398ZM278.163 152.461H273.058V143.624H278.163V152.461ZM278.163 143.525H273.058V134.683H278.163V143.525ZM278.163 134.588H273.058V125.735H278.163V134.588ZM278.163 125.652H273.058V116.81H278.163V125.652ZM278.163 116.715H273.058V107.877H278.163V116.715ZM278.163 107.782H273.058V98.9407H278.163V107.782ZM278.163 98.8456H273.058V90.0041H278.163V98.8456ZM278.163 89.909H273.058V81.0675H278.163V89.909ZM278.163 80.9724H273.058V72.1309H278.163V80.9724ZM278.163 72.0358H273.058V63.1943H278.163V72.0358ZM278.163 63.0992H273.058V54.2577H278.163V63.0992ZM278.163 54.1626H273.058V45.3211H278.163V54.1626ZM278.163 45.226H273.058V36.3845H278.163V45.226ZM278.163 36.2894H273.058V27.4479H278.163V36.2894ZM278.163 27.3528H273.058V18.5113H278.163V27.3528ZM278.163 18.4162H273.058V9.57472H278.163V18.4162ZM278.163 9.47957H273.058V0.63812H278.163V9.47957ZM283.322 188.208H278.218V179.366H283.322V188.208ZM283.322 179.271H278.218V170.43H283.322V179.271ZM283.322 170.335H278.218V161.512H283.322V170.335ZM283.322 161.398H278.218V152.557H283.322V161.398ZM283.322 152.461H278.218V143.624H283.322V152.461ZM283.322 143.525H278.218V134.683H283.322V143.525ZM283.322 134.588H278.218V125.735H283.322V134.588ZM283.322 125.652H278.218V116.81H283.322V125.652ZM283.322 116.715H278.218V107.877H283.322V116.715ZM283.322 107.782H278.218V98.9407H283.322V107.782ZM283.322 98.8456H278.218V90.0041H283.322V98.8456ZM283.322 89.909H278.218V81.0675H283.322V89.909ZM283.322 80.9724H278.218V72.1309H283.322V80.9724ZM283.322 72.0358H278.218V63.1943H283.322V72.0358ZM283.322 63.0992H278.218V54.2577H283.322V63.0992ZM283.322 54.1626H278.218V45.3211H283.322V54.1626ZM283.322 45.226H278.218V36.3845H283.322V45.226ZM283.322 36.2894H278.218V27.4479H283.322V36.2894ZM283.322 27.3528H278.218V18.5113H283.322V27.3528ZM283.322 18.4162H278.218V9.57472H283.322V18.4162ZM283.322 9.47957H278.218V0.63812H283.322V9.47957ZM288.482 188.208H283.377V179.366H288.482V188.208ZM288.482 179.271H283.377V170.43H288.482V179.271ZM288.482 170.335H283.377V161.512H288.482V170.335ZM288.482 161.398H283.377V152.557H288.482V161.398ZM288.482 152.461H283.377V143.624H288.482V152.461ZM288.482 143.525H283.377V134.683H288.482V143.525ZM288.482 134.588H283.377V125.735H288.482V134.588ZM288.482 125.652H283.377V116.81H288.482V125.652ZM288.482 116.715H283.377V107.877H288.482V116.715ZM288.482 107.782H283.377V98.9407H288.482V107.782ZM288.482 98.8456H283.377V90.0041H288.482V98.8456ZM288.482 89.909H283.377V81.0675H288.482V89.909ZM288.482 80.9724H283.377V72.1309H288.482V80.9724ZM288.482 72.0358H283.377V63.1943H288.482V72.0358ZM288.482 63.0992H283.377V54.2577H288.482V63.0992ZM288.482 54.1626H283.377V45.3211H288.482V54.1626ZM288.482 45.226H283.377V36.3845H288.482V45.226ZM288.482 36.2894H283.377V27.4479H288.482V36.2894ZM288.482 27.3528H283.377V18.5113H288.482V27.3528ZM288.482 18.4162H283.377V9.57472H288.482V18.4162ZM288.482 9.47957H283.377V0.63812H288.482V9.47957ZM293.641 188.208H288.537V179.366H293.641V188.208ZM293.641 179.271H288.537V170.43H293.641V179.271ZM293.641 170.335H288.537V161.512H293.641V170.335ZM293.641 161.398H288.537V152.557H293.641V161.398ZM293.641 152.461H288.537V143.624H293.641V152.461ZM293.641 143.525H288.537V134.683H293.641V143.525ZM293.641 134.588H288.537V125.735H293.641V134.588ZM293.641 125.652H288.537V116.81H293.641V125.652ZM293.641 116.715H288.537V107.877H293.641V116.715ZM293.641 107.782H288.537V98.9407H293.641V107.782ZM293.641 98.8456H288.537V90.0041H293.641V98.8456ZM293.641 89.909H288.537V81.0675H293.641V89.909ZM293.641 80.9724H288.537V72.1309H293.641V80.9724ZM293.641 72.0358H288.537V63.1943H293.641V72.0358ZM293.641 63.0992H288.537V54.2577H293.641V63.0992ZM293.641 54.1626H288.537V45.3211H293.641V54.1626ZM293.641 45.226H288.537V36.3845H293.641V45.226ZM293.641 36.2894H288.537V27.4479H293.641V36.2894ZM293.641 27.3528H288.537V18.5113H293.641V27.3528ZM293.641 18.4162H288.537V9.57472H293.641V18.4162ZM293.641 9.47957H288.537V0.63812H293.641V9.47957ZM298.794 188.208H293.696V179.366H298.794V188.208ZM298.794 179.271H293.696V170.43H298.794V179.271ZM298.794 170.335H293.696V161.512H298.794V170.335ZM298.794 161.398H293.696V152.557H298.794V161.398ZM298.794 152.461H293.696V143.624H298.794V152.461ZM298.794 143.525H293.696V134.683H298.794V143.525ZM298.794 134.588H293.696V125.735H298.794V134.588ZM298.794 125.652H293.696V116.81H298.794V125.652ZM298.794 116.715H293.696V107.877H298.794V116.715ZM298.794 107.782H293.696V98.9407H298.794V107.782ZM298.794 98.8456H293.696V90.0041H298.794V98.8456ZM298.794 89.909H293.696V81.0675H298.794V89.909ZM298.794 80.9724H293.696V72.1309H298.794V80.9724ZM298.794 72.0358H293.696V63.1943H298.794V72.0358ZM298.794 63.0992H293.696V54.2577H298.794V63.0992ZM298.794 54.1816H293.696V45.3211H298.794V54.1816ZM298.794 45.245H293.696V36.3845H298.794V45.245ZM298.794 36.2932H293.696V27.4479H298.794V36.2932ZM298.794 27.3566H293.696V18.5113H298.794V27.3566ZM298.794 18.4048H293.696V9.57472H298.794V18.4048ZM298.794 9.46815H293.696V0.63812H298.794V9.46815ZM303.954 188.196H298.856V179.366H303.96L303.954 188.196ZM303.954 179.26H298.856V170.43H303.96L303.954 179.26ZM303.954 170.323H298.856V161.512H303.96L303.954 170.323ZM303.954 161.387H298.856V152.557H303.96L303.954 161.387ZM303.954 152.45H298.856V143.624H303.96L303.954 152.45ZM303.954 143.513H298.856V134.683H303.96L303.954 143.513ZM303.954 134.577H298.856V125.735H303.96L303.954 134.577ZM303.954 125.64H298.856V116.81H303.96L303.954 125.64ZM303.954 116.704H298.856V107.877H303.96L303.954 116.704ZM303.954 107.771H298.856V98.9407H303.96L303.954 107.771ZM303.954 98.8342H298.856V90.0041H303.96L303.954 98.8342ZM303.954 89.8976H298.856V81.0675H303.96L303.954 89.8976ZM303.954 80.961H298.856V72.1309H303.96L303.954 80.961ZM303.954 72.0244H298.856V63.1943H303.96L303.954 72.0244ZM303.954 63.0878H298.856V54.2577H303.96L303.954 63.0878ZM303.954 54.1512H298.856V45.3211H303.96L303.954 54.1512ZM303.954 45.2146H298.856V36.3845H303.96L303.954 45.2146ZM303.954 36.278H298.856V27.4479H303.96L303.954 36.278ZM303.954 27.3414H298.856V18.5113H303.96L303.954 27.3414ZM303.954 18.4048H298.856V9.57472H303.96L303.954 18.4048ZM303.954 9.46815H298.856V0.63812H303.96L303.954 9.46815ZM309.122 188.208H304.015V179.366H309.122V188.208ZM309.122 179.271H304.015V170.43H309.122V179.271ZM309.122 170.335H304.015V161.512H309.122V170.335ZM309.122 161.398H304.015V152.557H309.122V161.398ZM309.122 152.461H304.015V143.624H309.122V152.461ZM309.122 143.525H304.015V134.683H309.122V143.525ZM309.122 134.588H304.015V125.735H309.122V134.588ZM309.122 125.652H304.015V116.81H309.122V125.652ZM309.122 116.715H304.015V107.877H309.122V116.715ZM309.122 107.782H304.015V98.9407H309.122V107.782ZM309.122 98.8456H304.015V90.0041H309.122V98.8456ZM309.122 89.909H304.015V81.0675H309.122V89.909ZM309.122 80.9724H304.015V72.1309H309.122V80.9724ZM309.122 72.0358H304.015V63.1943H309.122V72.0358ZM309.122 63.0992H304.015V54.2577H309.122V63.0992ZM309.122 54.1816H304.015V45.3211H309.122V54.1816ZM309.122 45.245H304.015V36.3845H309.122V45.245ZM309.122 36.2932H304.015V27.4479H309.122V36.2932ZM309.122 27.3566H304.015V18.5113H309.122V27.3566ZM309.122 18.4048H304.015V9.57472H309.122V18.4048ZM309.122 9.46815H304.015V0.63812H309.122V9.46815ZM314.282 188.196H309.175V179.366H314.279L314.282 188.196ZM314.282 179.26H309.175V170.43H314.279L314.282 179.26ZM314.282 170.323H309.175V161.512H314.279L314.282 170.323ZM314.282 161.387H309.175V152.557H314.279L314.282 161.387ZM314.282 152.45H309.175V143.624H314.279L314.282 152.45ZM314.282 143.513H309.175V134.683H314.279L314.282 143.513ZM314.282 134.577H309.175V125.735H314.279L314.282 134.577ZM314.282 125.64H309.175V116.81H314.279L314.282 125.64ZM314.282 116.704H309.175V107.877H314.279L314.282 116.704ZM314.282 107.771H309.175V98.9407H314.279L314.282 107.771ZM314.282 98.8342H309.175V90.0041H314.279L314.282 98.8342ZM314.282 89.8976H309.175V81.0675H314.279L314.282 89.8976ZM314.282 80.961H309.175V72.1309H314.279L314.282 80.961ZM314.282 72.0244H309.175V63.1943H314.279L314.282 72.0244ZM314.282 63.0878H309.175V54.2577H314.279L314.282 63.0878ZM314.282 54.1512H309.175V45.3211H314.279L314.282 54.1512ZM314.282 45.2146H309.175V36.3845H314.279L314.282 45.2146ZM314.282 36.278H309.175V27.4479H314.279L314.282 36.278ZM314.282 27.3414H309.175V18.5113H314.279L314.282 27.3414ZM314.282 18.4048H309.175V9.57472H314.279L314.282 18.4048ZM314.282 9.46815H309.175V0.63812H314.279L314.282 9.46815ZM319.45 188.208H314.334V179.366H319.45V188.208ZM319.45 179.271H314.334V170.43H319.45V179.271ZM319.45 170.335H314.334V161.512H319.45V170.335ZM319.45 161.398H314.334V152.557H319.45V161.398ZM319.45 152.461H314.334V143.624H319.45V152.461ZM319.45 143.525H314.334V134.683H319.45V143.525ZM319.45 134.588H314.334V125.735H319.45V134.588ZM319.45 125.652H314.334V116.81H319.45V125.652ZM319.45 116.715H314.334V107.877H319.45V116.715ZM319.45 107.782H314.334V98.9407H319.45V107.782ZM319.45 98.8456H314.334V90.0041H319.45V98.8456ZM319.45 89.909H314.334V81.0675H319.45V89.909ZM319.45 80.9724H314.334V72.1309H319.45V80.9724ZM319.45 72.0358H314.334V63.1943H319.45V72.0358ZM319.45 63.0992H314.334V54.2577H319.45V63.0992ZM319.45 54.1816H314.334V45.3211H319.45V54.1816ZM319.45 45.245H314.334V36.3845H319.45V45.245ZM319.45 36.2932H314.334V27.4479H319.45V36.2932ZM319.45 27.3566H314.334V18.5113H319.45V27.3566ZM319.45 18.4048H314.334V9.57472H319.45V18.4048ZM319.45 9.46815H314.334V0.63812H319.45V9.46815Z" fill="url(#paint1_radial_10_2)"/>
<defs>
<filter id="filter0_d_10_2" x="47.9509" y="100.704" width="226.3" height="192.053" filterUnits="userSpaceOnUse" color-interpolation-filters="sRGB">
<feFlood flood-opacity="0" result="BackgroundImageFix"/>
<feColorMatrix in="SourceAlpha" type="matrix" values="0 0 0 0 0 0 0 0 0 0 0 0 0 0 0 0 0 0 127 0" result="hardAlpha"/>
<feOffset/>
<feGaussianBlur stdDeviation="6.5"/>
<feComposite in2="hardAlpha" operator="out"/>
<feColorMatrix type="matrix" values="0 0 0 0 1 0 0 0 0 1 0 0 0 0 1 0 0 0 1 0"/>
<feBlend mode="normal" in2="BackgroundImageFix" result="effect1_dropShadow_10_2"/>
<feBlend mode="normal" in="SourceGraphic" in2="effect1_dropShadow_10_2" result="shape"/>
</filter>
<radialGradient id="paint0_radial_10_2" cx="0" cy="0" r="1" gradientUnits="userSpaceOnUse" gradientTransform="translate(102.72 138.572) scale(102.026)">
<stop stop-color="#FFFFE0"/>
<stop offset="1" stop-color="#FFFFE0" stop-opacity="0"/>
</radialGradient>
<radialGradient id="paint1_radial_10_2" cx="0" cy="0" r="1" gradientUnits="userSpaceOnUse" gradientTransform="translate(265.293 94.423) scale(54.2013 93.88)">
<stop stop-color="#FFFFE0"/>
<stop offset="1" stop-color="#FFFFE0" stop-opacity="0"/>
</radialGradient>
</defs>
</svg>
