<svg width="76" height="95" viewBox="0 0 76 95" fill="none" xmlns="http://www.w3.org/2000/svg">
<path d="M23.2791 94.1656C26.1971 94.1656 28.5626 91.8001 28.5626 88.8821C28.5626 85.9641 26.1971 83.5986 23.2791 83.5986C20.3611 83.5986 17.9956 85.9641 17.9956 88.8821C17.9956 91.8001 20.3611 94.1656 23.2791 94.1656Z" fill="url(#paint0_radial_1508_1564)"/>
<path d="M9.5577 18.3742C14.5887 18.3742 18.6672 14.2957 18.6672 9.26473C18.6672 4.23372 14.5887 0.155273 9.5577 0.155273C4.52668 0.155273 0.448242 4.23372 0.448242 9.26473C0.448242 14.2957 4.52668 18.3742 9.5577 18.3742Z" fill="url(#paint1_radial_1508_1564)"/>
<path d="M69.9241 70.1158C72.8421 70.1158 75.2076 67.7503 75.2076 64.8323C75.2076 61.9143 72.8421 59.5488 69.9241 59.5488C67.0061 59.5488 64.6406 61.9143 64.6406 64.8323C64.6406 67.7503 67.0061 70.1158 69.9241 70.1158Z" fill="url(#paint2_radial_1508_1564)"/>
<defs>
<radialGradient id="paint0_radial_1508_1564" cx="0" cy="0" r="1" gradientUnits="userSpaceOnUse" gradientTransform="translate(26.1891 85.889) rotate(45) scale(8.25295)">
<stop stop-color="#34D399"/>
<stop offset="1" stop-color="#AAFF00"/>
</radialGradient>
<radialGradient id="paint1_radial_1508_1564" cx="0" cy="0" r="1" gradientUnits="userSpaceOnUse" gradientTransform="translate(9.5577 9.26473) rotate(90) scale(9.10946)">
<stop stop-color="#34D399"/>
<stop offset="1" stop-color="#AAFF00"/>
</radialGradient>
<radialGradient id="paint2_radial_1508_1564" cx="0" cy="0" r="1" gradientUnits="userSpaceOnUse" gradientTransform="translate(72.8342 61.8392) rotate(45) scale(8.25295)">
<stop stop-color="#34D399"/>
<stop offset="1" stop-color="#AAFF00"/>
</radialGradient>
</defs>
</svg>
