<svg width="743" height="851" viewBox="0 0 743 851" fill="none" xmlns="http://www.w3.org/2000/svg">
<path d="M557.25 664.295C659.836 561.7 659.836 395.36 557.25 292.765C454.663 190.17 288.337 190.17 185.75 292.765C83.1631 395.36 83.163 561.7 185.75 664.295C288.337 766.891 454.663 766.89 557.25 664.295Z" stroke="#FFFFE0" stroke-width="0.25" stroke-miterlimit="10"/>
<path opacity="0.5" d="M5.99414 0V515.289H565.994V0H5.99414ZM32.6478 515.027H6.27793V490.763H32.6478V515.027ZM32.6478 490.502H6.27793V466.237H32.6478V490.502ZM32.6478 465.976H6.27793V441.764H32.6478V465.976ZM32.6478 441.451H6.27793V417.186H32.6478V441.451ZM32.6478 416.925H6.27793V392.671H32.6478V416.925ZM32.6478 392.399H6.27793V368.135H32.6478V392.399ZM32.6478 367.874H6.27793V343.578H32.6478V367.874ZM32.6478 343.348H6.27793V319.084H32.6478V343.348ZM32.6478 318.822H6.27793V294.568H32.6478V318.822ZM32.6478 294.307H6.27793V270.043H32.6478V294.307ZM32.6478 269.782H6.27793V245.517H32.6478V269.782ZM32.6478 245.256H6.27793V220.992H32.6478V245.256ZM32.6478 220.731H6.27793V196.466H32.6478V220.731ZM32.6478 196.205H6.27793V171.94H32.6478V196.205ZM32.6478 171.679H6.27793V147.415H32.6478V171.679ZM32.6478 147.154H6.27793V122.889H32.6478V147.154ZM32.6478 122.628H6.27793V98.3636H32.6478V122.628ZM32.6478 98.1025H6.27793V73.838H32.6478V98.1025ZM32.6478 73.5768H6.27793V49.3124H32.6478V73.5768ZM32.6478 49.0512H6.27793V24.7867H32.6478V49.0512ZM32.6478 24.5256H6.27793V0.261133H32.6478V24.5256ZM59.3015 515.027H32.9316V490.763H59.3015V515.027ZM59.3015 490.502H32.9316V466.237H59.3015V490.502ZM59.3015 465.976H32.9316V441.764H59.3015V465.976ZM59.3015 441.451H32.9316V417.186H59.3015V441.451ZM59.3015 416.925H32.9316V392.671H59.3015V416.925ZM59.3015 392.399H32.9316V368.135H59.3015V392.399ZM59.3015 367.874H32.9316V343.578H59.3015V367.874ZM59.3015 343.348H32.9316V319.084H59.3015V343.348ZM59.3015 318.822H32.9316V294.568H59.3015V318.822ZM59.3015 294.307H32.9316V270.043H59.3015V294.307ZM59.3015 269.782H32.9316V245.517H59.3015V269.782ZM59.3015 245.256H32.9316V220.992H59.3015V245.256ZM59.3015 220.731H32.9316V196.466H59.3015V220.731ZM59.3015 196.205H32.9316V171.94H59.3015V196.205ZM59.3015 171.679H32.9316V147.415H59.3015V171.679ZM59.3015 147.154H32.9316V122.889H59.3015V147.154ZM59.3015 122.628H32.9316V98.3636H59.3015V122.628ZM59.3015 98.1025H32.9316V73.838H59.3015V98.1025ZM59.3015 73.5768H32.9316V49.3124H59.3015V73.5768ZM59.3015 49.0512H32.9316V24.7867H59.3015V49.0512ZM59.3015 24.5256H32.9316V0.261133H59.3015V24.5256ZM85.9552 515.027H59.5853V490.763H85.9552V515.027ZM85.9552 490.502H59.5853V466.237H85.9552V490.502ZM85.9552 465.976H59.5853V441.764H85.9552V465.976ZM85.9552 441.451H59.5853V417.186H85.9552V441.451ZM85.9552 416.925H59.5853V392.671H85.9552V416.925ZM85.9552 392.399H59.5853V368.135H85.9552V392.399ZM85.9552 367.874H59.5853V343.578H85.9552V367.874ZM85.9552 343.348H59.5853V319.084H85.9552V343.348ZM85.9552 318.822H59.5853V294.568H85.9552V318.822ZM85.9552 294.307H59.5853V270.043H85.9552V294.307ZM85.9552 269.782H59.5853V245.517H85.9552V269.782ZM85.9552 245.256H59.5853V220.992H85.9552V245.256ZM85.9552 220.731H59.5853V196.466H85.9552V220.731ZM85.9552 196.205H59.5853V171.94H85.9552V196.205ZM85.9552 171.679H59.5853V147.415H85.9552V171.679ZM85.9552 147.154H59.5853V122.889H85.9552V147.154ZM85.9552 122.628H59.5853V98.3636H85.9552V122.628ZM85.9552 98.1025H59.5853V73.838H85.9552V98.1025ZM85.9552 73.5768H59.5853V49.3124H85.9552V73.5768ZM85.9552 49.0512H59.5853V24.7867H85.9552V49.0512ZM85.9552 24.5256H59.5853V0.261133H85.9552V24.5256ZM112.609 515.027H86.239V490.763H112.609V515.027ZM112.609 490.502H86.239V466.237H112.609V490.502ZM112.609 465.976H86.239V441.764H112.609V465.976ZM112.609 441.451H86.239V417.186H112.609V441.451ZM112.609 416.925H86.239V392.671H112.609V416.925ZM112.609 392.399H86.239V368.135H112.609V392.399ZM112.609 367.874H86.239V343.578H112.609V367.874ZM112.609 343.348H86.239V319.084H112.609V343.348ZM112.609 318.822H86.239V294.568H112.609V318.822ZM112.609 294.307H86.239V270.043H112.609V294.307ZM112.609 269.782H86.239V245.517H112.609V269.782ZM112.609 245.256H86.239V220.992H112.609V245.256ZM112.609 220.731H86.239V196.466H112.609V220.731ZM112.609 196.205H86.239V171.94H112.609V196.205ZM112.609 171.679H86.239V147.415H112.609V171.679ZM112.609 147.154H86.239V122.889H112.609V147.154ZM112.609 122.628H86.239V98.3636H112.609V122.628ZM112.609 98.1025H86.239V73.838H112.609V98.1025ZM112.609 73.5768H86.239V49.3124H112.609V73.5768ZM112.609 49.0512H86.239V24.7867H112.609V49.0512ZM112.609 24.5256H86.239V0.261133H112.609V24.5256ZM139.263 515.027H112.893V490.763H139.263V515.027ZM139.263 490.502H112.893V466.237H139.263V490.502ZM139.263 465.976H112.893V441.764H139.263V465.976ZM139.263 441.451H112.893V417.186H139.263V441.451ZM139.263 416.925H112.893V392.671H139.263V416.925ZM139.263 392.399H112.893V368.135H139.263V392.399ZM139.263 367.874H112.893V343.578H139.263V367.874ZM139.263 343.348H112.893V319.084H139.263V343.348ZM139.263 318.822H112.893V294.568H139.263V318.822ZM139.263 294.307H112.893V270.043H139.263V294.307ZM139.263 269.782H112.893V245.517H139.263V269.782ZM139.263 245.256H112.893V220.992H139.263V245.256ZM139.263 220.731H112.893V196.466H139.263V220.731ZM139.263 196.205H112.893V171.94H139.263V196.205ZM139.263 171.679H112.893V147.415H139.263V171.679ZM139.263 147.154H112.893V122.889H139.263V147.154ZM139.263 122.628H112.893V98.3636H139.263V122.628ZM139.263 98.1025H112.893V73.838H139.263V98.1025ZM139.263 73.5768H112.893V49.3124H139.263V73.5768ZM139.263 49.0512H112.893V24.7867H139.263V49.0512ZM139.263 24.5256H112.893V0.261133H139.263V24.5256ZM165.916 515.027H139.546V490.763H165.916V515.027ZM165.916 490.502H139.546V466.237H165.916V490.502ZM165.916 465.976H139.546V441.764H165.916V465.976ZM165.916 441.451H139.546V417.186H165.916V441.451ZM165.916 416.925H139.546V392.671H165.916V416.925ZM165.916 392.399H139.546V368.135H165.916V392.399ZM165.916 367.874H139.546V343.578H165.916V367.874ZM165.916 343.348H139.546V319.084H165.916V343.348ZM165.916 318.822H139.546V294.568H165.916V318.822ZM165.916 294.307H139.546V270.043H165.916V294.307ZM165.916 269.782H139.546V245.517H165.916V269.782ZM165.916 245.256H139.546V220.992H165.916V245.256ZM165.916 220.731H139.546V196.466H165.916V220.731ZM165.916 196.205H139.546V171.94H165.916V196.205ZM165.916 171.679H139.546V147.415H165.916V171.679ZM165.916 147.154H139.546V122.889H165.916V147.154ZM165.916 122.628H139.546V98.3636H165.916V122.628ZM165.916 98.1025H139.546V73.838H165.916V98.1025ZM165.916 73.5768H139.546V49.3124H165.916V73.5768ZM165.916 49.0512H139.546V24.7867H165.916V49.0512ZM165.916 24.5256H139.546V0.261133H165.916V24.5256ZM192.57 515.027H166.189V490.763H192.559L192.57 515.027ZM192.57 490.502H166.189V466.237H192.559L192.57 490.502ZM192.57 465.976H166.189V441.764H192.559L192.57 465.976ZM192.57 441.451H166.189V417.186H192.559L192.57 441.451ZM192.57 416.925H166.189V392.671H192.559L192.57 416.925ZM192.57 392.399H166.189V368.135H192.559L192.57 392.399ZM192.57 367.874H166.189V343.578H192.559L192.57 367.874ZM192.57 343.348H166.189V319.084H192.559L192.57 343.348ZM192.57 318.822H166.189V294.568H192.559L192.57 318.822ZM192.57 294.307H166.189V270.043H192.559L192.57 294.307ZM192.57 269.782H166.189V245.517H192.559L192.57 269.782ZM192.57 245.256H166.189V220.992H192.559L192.57 245.256ZM192.57 220.731H166.189V196.466H192.559L192.57 220.731ZM192.57 196.205H166.189V171.94H192.559L192.57 196.205ZM192.57 171.679H166.189V147.415H192.559L192.57 171.679ZM192.57 147.154H166.189V122.889H192.559L192.57 147.154ZM192.57 122.628H166.189V98.3636H192.559L192.57 122.628ZM192.57 98.1025H166.189V73.838H192.559L192.57 98.1025ZM192.57 73.5768H166.189V49.3124H192.559L192.57 73.5768ZM192.57 49.0512H166.189V24.7867H192.559L192.57 49.0512ZM192.57 24.5256H166.189V0.261133H192.559L192.57 24.5256ZM219.224 515.027H192.854V490.763H219.224V515.027ZM219.224 490.502H192.854V466.237H219.224V490.502ZM219.224 465.976H192.854V441.764H219.224V465.976ZM219.224 441.451H192.854V417.186H219.224V441.451ZM219.224 416.925H192.854V392.671H219.224V416.925ZM219.224 392.399H192.854V368.135H219.224V392.399ZM219.224 367.874H192.854V343.578H219.224V367.874ZM219.224 343.348H192.854V319.084H219.224V343.348ZM219.224 318.822H192.854V294.568H219.224V318.822ZM219.224 294.307H192.854V270.043H219.224V294.307ZM219.224 269.782H192.854V245.517H219.224V269.782ZM219.224 245.256H192.854V220.992H219.224V245.256ZM219.224 220.731H192.854V196.466H219.224V220.731ZM219.224 196.205H192.854V171.94H219.224V196.205ZM219.224 171.679H192.854V147.415H219.224V171.679ZM219.224 147.154H192.854V122.889H219.224V147.154ZM219.224 122.628H192.854V98.3636H219.224V122.628ZM219.224 98.1025H192.854V73.838H219.224V98.1025ZM219.224 73.5768H192.854V49.3124H219.224V73.5768ZM219.224 49.0512H192.854V24.7867H219.224V49.0512ZM219.224 24.5256H192.854V0.261133H219.224V24.5256ZM245.866 515.027H219.542V490.763H245.9L245.866 515.027ZM245.866 490.502H219.542V466.237H245.9L245.866 490.502ZM245.866 465.976H219.542V441.764H245.9L245.866 465.976ZM245.866 441.451H219.542V417.186H245.9L245.866 441.451ZM245.866 416.925H219.542V392.671H245.9L245.866 416.925ZM245.866 392.399H219.542V368.135H245.9L245.866 392.399ZM245.866 367.874H219.542V343.578H245.9L245.866 367.874ZM245.866 343.348H219.542V319.084H245.9L245.866 343.348ZM245.866 318.822H219.542V294.568H245.9L245.866 318.822ZM245.866 294.307H219.542V270.043H245.9L245.866 294.307ZM245.866 269.782H219.542V245.517H245.9L245.866 269.782ZM245.866 245.256H219.542V220.992H245.9L245.866 245.256ZM245.866 220.731H219.542V196.466H245.9L245.866 220.731ZM245.866 196.205H219.542V171.94H245.9L245.866 196.205ZM245.866 171.679H219.542V147.415H245.9L245.866 171.679ZM245.866 147.154H219.542V122.889H245.9L245.866 147.154ZM245.866 122.628H219.542V98.3636H245.9L245.866 122.628ZM245.866 98.1025H219.542V73.838H245.9L245.866 98.1025ZM245.866 73.5768H219.542V49.3124H245.9L245.866 73.5768ZM245.866 49.0512H219.542V24.7867H245.9L245.866 49.0512ZM245.866 24.5256H219.542V0.261133H245.9L245.866 24.5256ZM272.52 515.027H246.15V490.763H272.52V515.027ZM272.52 490.502H246.15V466.237H272.52V490.502ZM272.52 465.976H246.15V441.764H272.52V465.976ZM272.52 441.451H246.15V417.186H272.52V441.451ZM272.52 416.925H246.15V392.671H272.52V416.925ZM272.52 392.399H246.15V368.135H272.52V392.399ZM272.52 367.874H246.15V343.578H272.52V367.874ZM272.52 343.348H246.15V319.084H272.52V343.348ZM272.52 318.822H246.15V294.568H272.52V318.822ZM272.52 294.307H246.15V270.043H272.52V294.307ZM272.52 269.782H246.15V245.517H272.52V269.782ZM272.52 245.256H246.15V220.992H272.52V245.256ZM272.52 220.731H246.15V196.466H272.52V220.731ZM272.52 196.205H246.15V171.94H272.52V196.205ZM272.52 171.679H246.15V147.415H272.52V171.679ZM272.52 147.154H246.15V122.889H272.52V147.154ZM272.52 122.628H246.15V98.3636H272.52V122.628ZM272.52 98.1025H246.15V73.838H272.52V98.1025ZM272.52 73.5768H246.15V49.3124H272.52V73.5768ZM272.52 49.0512H246.15V24.7867H272.52V49.0512ZM272.52 24.5256H246.15V0.261133H272.52V24.5256ZM299.173 515.027H272.804V490.763H299.173V515.027ZM299.173 490.502H272.804V466.237H299.173V490.502ZM299.173 465.976H272.804V441.764H299.173V465.976ZM299.173 441.451H272.804V417.186H299.173V441.451ZM299.173 416.925H272.804V392.671H299.173V416.925ZM299.173 392.399H272.804V368.135H299.173V392.399ZM299.173 367.874H272.804V343.578H299.173V367.874ZM299.173 343.348H272.804V319.084H299.173V343.348ZM299.173 318.822H272.804V294.568H299.173V318.822ZM299.173 294.307H272.804V270.043H299.173V294.307ZM299.173 269.782H272.804V245.517H299.173V269.782ZM299.173 245.256H272.804V220.992H299.173V245.256ZM299.173 220.731H272.804V196.466H299.173V220.731ZM299.173 196.205H272.804V171.94H299.173V196.205ZM299.173 171.679H272.804V147.415H299.173V171.679ZM299.173 147.154H272.804V122.889H299.173V147.154ZM299.173 122.628H272.804V98.3636H299.173V122.628ZM299.173 98.1025H272.804V73.838H299.173V98.1025ZM299.173 73.5768H272.804V49.3124H299.173V73.5768ZM299.173 49.0512H272.804V24.7867H299.173V49.0512ZM299.173 24.5256H272.804V0.261133H299.173V24.5256ZM325.827 515.027H299.457V490.763H325.827V515.027ZM325.827 490.502H299.457V466.237H325.827V490.502ZM325.827 465.976H299.457V441.764H325.827V465.976ZM325.827 441.451H299.457V417.186H325.827V441.451ZM325.827 416.925H299.457V392.671H325.827V416.925ZM325.827 392.399H299.457V368.135H325.827V392.399ZM325.827 367.874H299.457V343.578H325.827V367.874ZM325.827 343.348H299.457V319.084H325.827V343.348ZM325.827 318.822H299.457V294.568H325.827V318.822ZM325.827 294.307H299.457V270.043H325.827V294.307ZM325.827 269.782H299.457V245.517H325.827V269.782ZM325.827 245.256H299.457V220.992H325.827V245.256ZM325.827 220.731H299.457V196.466H325.827V220.731ZM325.827 196.205H299.457V171.94H325.827V196.205ZM325.827 171.679H299.457V147.415H325.827V171.679ZM325.827 147.154H299.457V122.889H325.827V147.154ZM325.827 122.628H299.457V98.3636H325.827V122.628ZM325.827 98.1025H299.457V73.838H325.827V98.1025ZM325.827 73.5768H299.457V49.3124H325.827V73.5768ZM325.827 49.0512H299.457V24.7867H325.827V49.0512ZM325.827 24.5256H299.457V0.261133H325.827V24.5256ZM352.481 515.027H326.111V490.763H352.481V515.027ZM352.481 490.502H326.111V466.237H352.481V490.502ZM352.481 465.976H326.111V441.764H352.481V465.976ZM352.481 441.451H326.111V417.186H352.481V441.451ZM352.481 416.925H326.111V392.671H352.481V416.925ZM352.481 392.399H326.111V368.135H352.481V392.399ZM352.481 367.874H326.111V343.578H352.481V367.874ZM352.481 343.348H326.111V319.084H352.481V343.348ZM352.481 318.822H326.111V294.568H352.481V318.822ZM352.481 294.307H326.111V270.043H352.481V294.307ZM352.481 269.782H326.111V245.517H352.481V269.782ZM352.481 245.256H326.111V220.992H352.481V245.256ZM352.481 220.731H326.111V196.466H352.481V220.731ZM352.481 196.205H326.111V171.94H352.481V196.205ZM352.481 171.679H326.111V147.415H352.481V171.679ZM352.481 147.154H326.111V122.889H352.481V147.154ZM352.481 122.628H326.111V98.3636H352.481V122.628ZM352.481 98.1025H326.111V73.838H352.481V98.1025ZM352.481 73.5768H326.111V49.3124H352.481V73.5768ZM352.481 49.0512H326.111V24.7867H352.481V49.0512ZM352.481 24.5256H326.111V0.261133H352.481V24.5256ZM379.135 515.027H352.765V490.763H379.135V515.027ZM379.135 490.502H352.765V466.237H379.135V490.502ZM379.135 465.976H352.765V441.764H379.135V465.976ZM379.135 441.451H352.765V417.186H379.135V441.451ZM379.135 416.925H352.765V392.671H379.135V416.925ZM379.135 392.399H352.765V368.135H379.135V392.399ZM379.135 367.874H352.765V343.578H379.135V367.874ZM379.135 343.348H352.765V319.084H379.135V343.348ZM379.135 318.822H352.765V294.568H379.135V318.822ZM379.135 294.307H352.765V270.043H379.135V294.307ZM379.135 269.782H352.765V245.517H379.135V269.782ZM379.135 245.256H352.765V220.992H379.135V245.256ZM379.135 220.731H352.765V196.466H379.135V220.731ZM379.135 196.205H352.765V171.94H379.135V196.205ZM379.135 171.679H352.765V147.415H379.135V171.679ZM379.135 147.154H352.765V122.889H379.135V147.154ZM379.135 122.628H352.765V98.3636H379.135V122.628ZM379.135 98.1025H352.765V73.838H379.135V98.1025ZM379.135 73.5768H352.765V49.3124H379.135V73.5768ZM379.135 49.0512H352.765V24.7867H379.135V49.0512ZM379.135 24.5256H352.765V0.261133H379.135V24.5256ZM405.788 515.027H379.418V490.763H405.788V515.027ZM405.788 490.502H379.418V466.237H405.788V490.502ZM405.788 465.976H379.418V441.764H405.788V465.976ZM405.788 441.451H379.418V417.186H405.788V441.451ZM405.788 416.925H379.418V392.671H405.788V416.925ZM405.788 392.399H379.418V368.135H405.788V392.399ZM405.788 367.874H379.418V343.578H405.788V367.874ZM405.788 343.348H379.418V319.084H405.788V343.348ZM405.788 318.822H379.418V294.568H405.788V318.822ZM405.788 294.307H379.418V270.043H405.788V294.307ZM405.788 269.782H379.418V245.517H405.788V269.782ZM405.788 245.256H379.418V220.992H405.788V245.256ZM405.788 220.731H379.418V196.466H405.788V220.731ZM405.788 196.205H379.418V171.94H405.788V196.205ZM405.788 171.679H379.418V147.415H405.788V171.679ZM405.788 147.154H379.418V122.889H405.788V147.154ZM405.788 122.628H379.418V98.3636H405.788V122.628ZM405.788 98.1025H379.418V73.838H405.788V98.1025ZM405.788 73.5768H379.418V49.3124H405.788V73.5768ZM405.788 49.0512H379.418V24.7867H405.788V49.0512ZM405.788 24.5256H379.418V0.261133H405.788V24.5256ZM432.442 515.027H406.072V490.763H432.442V515.027ZM432.442 490.502H406.072V466.237H432.442V490.502ZM432.442 465.976H406.072V441.764H432.442V465.976ZM432.442 441.451H406.072V417.186H432.442V441.451ZM432.442 416.925H406.072V392.671H432.442V416.925ZM432.442 392.399H406.072V368.135H432.442V392.399ZM432.442 367.874H406.072V343.578H432.442V367.874ZM432.442 343.348H406.072V319.084H432.442V343.348ZM432.442 318.822H406.072V294.568H432.442V318.822ZM432.442 294.307H406.072V270.043H432.442V294.307ZM432.442 269.782H406.072V245.517H432.442V269.782ZM432.442 245.256H406.072V220.992H432.442V245.256ZM432.442 220.731H406.072V196.466H432.442V220.731ZM432.442 196.205H406.072V171.94H432.442V196.205ZM432.442 171.679H406.072V147.415H432.442V171.679ZM432.442 147.154H406.072V122.889H432.442V147.154ZM432.442 122.628H406.072V98.3636H432.442V122.628ZM432.442 98.1025H406.072V73.838H432.442V98.1025ZM432.442 73.5768H406.072V49.3124H432.442V73.5768ZM432.442 49.0512H406.072V24.7867H432.442V49.0512ZM432.442 24.5256H406.072V0.261133H432.442V24.5256ZM459.062 515.027H432.726V490.763H459.062V515.027ZM459.062 490.502H432.726V466.237H459.062V490.502ZM459.062 465.976H432.726V441.764H459.062V465.976ZM459.062 441.451H432.726V417.186H459.062V441.451ZM459.062 416.925H432.726V392.671H459.062V416.925ZM459.062 392.399H432.726V368.135H459.062V392.399ZM459.062 367.874H432.726V343.578H459.062V367.874ZM459.062 343.348H432.726V319.084H459.062V343.348ZM459.062 318.822H432.726V294.568H459.062V318.822ZM459.062 294.307H432.726V270.043H459.062V294.307ZM459.062 269.782H432.726V245.517H459.062V269.782ZM459.062 245.256H432.726V220.992H459.062V245.256ZM459.062 220.731H432.726V196.466H459.062V220.731ZM459.062 196.205H432.726V171.94H459.062V196.205ZM459.062 171.679H432.726V147.415H459.062V171.679ZM459.062 147.206H432.726V122.889H459.062V147.206ZM459.062 122.68H432.726V98.3636H459.062V122.68ZM459.062 98.1129H432.726V73.838H459.062V98.1129ZM459.062 73.5873H432.726V49.3124H459.062V73.5873ZM459.062 49.0199H432.726V24.7867H459.062V49.0199ZM459.062 24.4943H432.726V0.261133H459.062V24.4943ZM485.715 514.996H459.379V490.763H485.749L485.715 514.996ZM485.715 490.47H459.379V466.237H485.749L485.715 490.47ZM485.715 465.945H459.379V441.764H485.749L485.715 465.945ZM485.715 441.419H459.379V417.186H485.749L485.715 441.419ZM485.715 416.894H459.379V392.671H485.749L485.715 416.894ZM485.715 392.368H459.379V368.135H485.749L485.715 392.368ZM485.715 367.842H459.379V343.578H485.749L485.715 367.842ZM485.715 343.317H459.379V319.084H485.749L485.715 343.317ZM485.715 318.791H459.379V294.568H485.749L485.715 318.791ZM485.715 294.276H459.379V270.043H485.749L485.715 294.276ZM485.715 269.75H459.379V245.517H485.749L485.715 269.75ZM485.715 245.225H459.379V220.992H485.749L485.715 245.225ZM485.715 220.699H459.379V196.466H485.749L485.715 220.699ZM485.715 196.174H459.379V171.94H485.749L485.715 196.174ZM485.715 171.648H459.379V147.415H485.749L485.715 171.648ZM485.715 147.122H459.379V122.889H485.749L485.715 147.122ZM485.715 122.597H459.379V98.3636H485.749L485.715 122.597ZM485.715 98.0711H459.379V73.838H485.749L485.715 98.0711ZM485.715 73.5455H459.379V49.3124H485.749L485.715 73.5455ZM485.715 49.0199H459.379V24.7867H485.749L485.715 49.0199ZM485.715 24.4943H459.379V0.261133H485.749L485.715 24.4943ZM512.414 515.027H486.033V490.763H512.414V515.027ZM512.414 490.502H486.033V466.237H512.414V490.502ZM512.414 465.976H486.033V441.764H512.414V465.976ZM512.414 441.451H486.033V417.186H512.414V441.451ZM512.414 416.925H486.033V392.671H512.414V416.925ZM512.414 392.399H486.033V368.135H512.414V392.399ZM512.414 367.874H486.033V343.578H512.414V367.874ZM512.414 343.348H486.033V319.084H512.414V343.348ZM512.414 318.822H486.033V294.568H512.414V318.822ZM512.414 294.307H486.033V270.043H512.414V294.307ZM512.414 269.782H486.033V245.517H512.414V269.782ZM512.414 245.256H486.033V220.992H512.414V245.256ZM512.414 220.731H486.033V196.466H512.414V220.731ZM512.414 196.205H486.033V171.94H512.414V196.205ZM512.414 171.679H486.033V147.415H512.414V171.679ZM512.414 147.206H486.033V122.889H512.414V147.206ZM512.414 122.68H486.033V98.3636H512.414V122.68ZM512.414 98.1129H486.033V73.838H512.414V98.1129ZM512.414 73.5873H486.033V49.3124H512.414V73.5873ZM512.414 49.0199H486.033V24.7867H512.414V49.0199ZM512.414 24.4943H486.033V0.261133H512.414V24.4943ZM539.068 514.996H512.687V490.763H539.057L539.068 514.996ZM539.068 490.47H512.687V466.237H539.057L539.068 490.47ZM539.068 465.945H512.687V441.764H539.057L539.068 465.945ZM539.068 441.419H512.687V417.186H539.057L539.068 441.419ZM539.068 416.894H512.687V392.671H539.057L539.068 416.894ZM539.068 392.368H512.687V368.135H539.057L539.068 392.368ZM539.068 367.842H512.687V343.578H539.057L539.068 367.842ZM539.068 343.317H512.687V319.084H539.057L539.068 343.317ZM539.068 318.791H512.687V294.568H539.057L539.068 318.791ZM539.068 294.276H512.687V270.043H539.057L539.068 294.276ZM539.068 269.75H512.687V245.517H539.057L539.068 269.75ZM539.068 245.225H512.687V220.992H539.057L539.068 245.225ZM539.068 220.699H512.687V196.466H539.057L539.068 220.699ZM539.068 196.174H512.687V171.94H539.057L539.068 196.174ZM539.068 171.648H512.687V147.415H539.057L539.068 171.648ZM539.068 147.122H512.687V122.889H539.057L539.068 147.122ZM539.068 122.597H512.687V98.3636H539.057L539.068 122.597ZM539.068 98.0711H512.687V73.838H539.057L539.068 98.0711ZM539.068 73.5455H512.687V49.3124H539.057L539.068 73.5455ZM539.068 49.0199H512.687V24.7867H539.057L539.068 49.0199ZM539.068 24.4943H512.687V0.261133H539.057L539.068 24.4943ZM565.767 515.027H539.34V490.763H565.767V515.027ZM565.767 490.502H539.34V466.237H565.767V490.502ZM565.767 465.976H539.34V441.764H565.767V465.976ZM565.767 441.451H539.34V417.186H565.767V441.451ZM565.767 416.925H539.34V392.671H565.767V416.925ZM565.767 392.399H539.34V368.135H565.767V392.399ZM565.767 367.874H539.34V343.578H565.767V367.874ZM565.767 343.348H539.34V319.084H565.767V343.348ZM565.767 318.822H539.34V294.568H565.767V318.822ZM565.767 294.307H539.34V270.043H565.767V294.307ZM565.767 269.782H539.34V245.517H565.767V269.782ZM565.767 245.256H539.34V220.992H565.767V245.256ZM565.767 220.731H539.34V196.466H565.767V220.731ZM565.767 196.205H539.34V171.94H565.767V196.205ZM565.767 171.679H539.34V147.415H565.767V171.679ZM565.767 147.206H539.34V122.889H565.767V147.206ZM565.767 122.68H539.34V98.3636H565.767V122.68ZM565.767 98.1129H539.34V73.838H565.767V98.1129ZM565.767 73.5873H539.34V49.3124H565.767V73.5873ZM565.767 49.0199H539.34V24.7867H565.767V49.0199ZM565.767 24.4943H539.34V0.261133H565.767V24.4943Z" fill="url(#paint0_radial_1522_1659)"/>
<defs>
<radialGradient id="paint0_radial_1522_1659" cx="0" cy="0" r="1" gradientUnits="userSpaceOnUse" gradientTransform="translate(285.994 257.644) scale(280 257.644)">
<stop stop-color="#FFFFE0"/>
<stop offset="1" stop-color="#FFFFE0" stop-opacity="0"/>
</radialGradient>
</defs>
</svg>
