<svg width="407" height="318" viewBox="0 0 407 318" fill="none" xmlns="http://www.w3.org/2000/svg">
<path d="M57.5 274C73.7924 274 87 260.792 87 244.5C87 228.208 73.7924 215 57.5 215C41.2076 215 28 228.208 28 244.5C28 260.792 41.2076 274 57.5 274Z" fill="url(#paint0_radial_10_2)"/>
<path d="M400.061 69.94C428.232 174.897 365.998 282.813 261.052 310.998C156.106 339.183 48.1989 276.953 20.0227 172.005C-8.15341 67.057 -116.061 4.82759 -221.007 33.0123C-325.953 61.197 -388.202 169.14 -360.04 274.092" stroke="white" stroke-width="0.25" stroke-miterlimit="10"/>
<path opacity="0.28" d="M257.858 85.7257L257.757 85.8272L257.655 85.9287L228.588 114.993L228.486 115.095L228.385 115.196L199.317 144.261L199.216 144.366L199.114 144.468L178.771 164.809L179.076 165.088L199.406 144.76L199.507 144.658L199.609 144.557L228.676 115.492L228.778 115.391L228.879 115.289L257.951 86.2247L258.053 86.119L258.154 86.0175L264.02 80.1521L263.741 79.8477L257.858 85.7257Z" fill="#CDCDCD"/>
<path opacity="0.28" d="M260.683 88.7531L260.582 88.8546L231.514 117.919L231.413 118.021L231.311 118.122L202.244 147.182L202.142 147.284L202.041 147.385L181.88 167.544L182.201 167.806L202.332 147.677L202.434 147.576L202.535 147.474L231.603 118.427L231.705 118.325L231.806 118.224L260.886 89.1506L260.988 89.0491L261.089 88.9434L266.756 83.2768C266.668 83.1711 266.583 83.0611 266.494 82.9512L260.785 88.6516L260.683 88.7531Z" fill="#CDCDCD"/>
<path opacity="0.28" d="M272.394 100.463L272.292 100.564L243.225 129.629L243.123 129.73L243.022 129.832L213.942 158.896L213.84 158.998L213.734 159.099L196.433 176.416L196.856 176.59L214.056 159.391L214.157 159.29L214.259 159.188L243.326 130.124L243.428 130.022L243.529 129.921L272.597 100.856L272.698 100.755L272.8 100.653L275.536 97.917C275.477 97.7817 275.422 97.6421 275.363 97.4941L272.508 100.349L272.394 100.463Z" fill="#CDCDCD"/>
<path opacity="0.28" d="M266.541 94.6102L266.44 94.7117L237.368 123.776L237.266 123.878L237.165 123.979L208.097 153.044L207.996 153.145L207.894 153.247L188.715 172.424L189.079 172.644L208.186 153.526L208.292 153.424L208.393 153.323L237.461 124.258L237.563 124.157L237.664 124.055L266.732 94.9908L266.833 94.8893L266.935 94.7878L271.587 90.1361L271.363 89.7725L266.643 94.5045L266.541 94.6102Z" fill="#CDCDCD"/>
<path opacity="0.28" d="M275.321 103.389L275.219 103.491L246.152 132.556L246.05 132.657L245.949 132.759L216.902 161.823L216.801 161.925L216.699 162.026L200.662 178.053L201.085 178.197L216.953 162.335L217.055 162.233L217.156 162.128L246.224 133.063L246.325 132.961L246.427 132.86L275.494 103.795L275.596 103.694L275.697 103.592L277.106 102.189C277.055 102.04 277.008 101.892 276.958 101.766L275.405 103.318L275.321 103.389Z" fill="#CDCDCD"/>
<path opacity="0.28" d="M269.468 97.5359L269.367 97.6374L240.299 126.702L240.198 126.803L240.096 126.905L211.024 155.97L210.923 156.071L210.821 156.173L192.458 174.534L192.843 174.737L211.117 156.485L211.219 156.384L211.32 156.282L240.388 127.218L240.489 127.116L240.591 127.015L269.658 97.9504L269.76 97.8489L269.862 97.7474L273.668 93.9415L273.469 93.5566L269.565 97.4598L269.468 97.5359Z" fill="#CDCDCD"/>
<path opacity="0.28" d="M263.614 91.6795L263.512 91.781L234.441 120.85L234.339 120.951L234.238 121.053L205.17 150.117L205.068 150.219L204.967 150.32L185.183 170.094L185.525 170.335L205.25 150.612L205.352 150.511L205.458 150.409L234.525 121.345L234.627 121.243L234.728 121.142L263.804 92.077L263.906 91.9755L264.007 91.874L269.268 86.6091L269.027 86.2666L263.715 91.578L263.614 91.6795Z" fill="#CDCDCD"/>
<path opacity="0.28" d="M278.146 106.417L249.079 135.481L248.977 135.583L248.876 135.684L219.808 164.749L219.706 164.85L219.605 164.952L205.175 179.38L205.644 179.494L219.897 165.248L219.998 165.146L220.1 165.045L249.167 135.98L249.269 135.874L249.37 135.773L278.434 106.717L278.37 106.45C278.37 106.387 278.341 106.328 278.324 106.269L278.256 106.336L278.146 106.417Z" fill="#CDCDCD"/>
<path opacity="0.28" d="M260.683 147.292L260.582 147.394L231.514 176.458L231.413 176.56L231.311 176.661L227.146 180.827L227.81 180.751L231.616 176.945L231.717 176.843L231.819 176.742L260.886 147.686L260.988 147.584L261.089 147.483L279.698 128.876L279.774 128.212L260.785 147.182L260.683 147.292Z" fill="#CDCDCD"/>
<path opacity="0.28" d="M254.83 141.436L254.729 141.537L225.661 170.606L225.56 170.708L225.458 170.809L215.211 181.047L215.757 181.089L225.746 171.101L225.847 170.999L225.949 170.898L255.017 141.833L255.118 141.732L255.22 141.63L280.02 116.833C280.02 116.651 279.994 116.469 279.977 116.287L254.928 141.334L254.83 141.436Z" fill="#CDCDCD"/>
<path opacity="0.28" d="M257.757 144.366L257.656 144.467L228.588 173.532L228.487 173.633L228.385 173.735L220.887 181.232H221.479L228.669 174.044L228.77 173.942L228.872 173.841L257.943 144.776L258.045 144.675L258.146 144.573L280.138 122.583C280.138 122.384 280.138 122.186 280.138 121.991L257.829 144.294L257.757 144.366Z" fill="#CDCDCD"/>
<path opacity="0.28" d="M251.904 138.509L251.802 138.611L222.735 167.675L222.633 167.777L222.532 167.878L210.009 180.4L210.512 180.484L222.823 168.174L222.925 168.073L223.026 167.971L252.094 138.907L252.195 138.805L252.297 138.699L279.419 111.584C279.394 111.415 279.364 111.25 279.334 111.081L252.005 138.408L251.904 138.509Z" fill="#CDCDCD"/>
<path opacity="0.28" d="M266.541 153.145L266.439 153.247L242.95 176.734L243.965 176.311L266.731 153.526L266.833 153.424L266.934 153.323L275.236 145.022C275.383 144.683 275.524 144.345 275.659 144.007L266.634 153.031L266.541 153.145Z" fill="#CDCDCD"/>
<path opacity="0.28" d="M263.615 150.219L263.513 150.321L234.441 179.385L234.34 179.487L234.276 179.55L234.382 179.525L234.543 179.487C234.712 179.444 234.885 179.406 235.055 179.36L263.813 150.604L263.915 150.502L264.016 150.401L278.303 136.112C278.37 135.858 278.43 135.596 278.493 135.338L263.725 150.109L263.615 150.219Z" fill="#CDCDCD"/>
<path opacity="0.28" d="M190.728 77.3392L190.83 77.2377L205.167 62.9062L204.368 63.1177L190.538 76.9459L190.437 77.0474L190.335 77.1489L162.042 105.435C161.97 105.702 161.898 105.968 161.83 106.235L190.627 77.4406L190.728 77.3392Z" fill="#CDCDCD"/>
<path opacity="0.28" d="M175.193 81.1623L180.108 76.2695C178.378 77.8056 176.737 79.4391 175.193 81.1623V81.1623Z" fill="#CDCDCD"/>
<path opacity="0.28" d="M187.801 74.413L187.903 74.3115L196.276 65.9385L195.228 66.4121L187.615 74.0239L187.509 74.1254L187.408 74.2269L165.306 96.3013C165.149 96.648 164.997 96.999 164.845 97.35L187.683 74.5145L187.801 74.413Z" fill="#CDCDCD"/>
<path opacity="0.28" d="M260.582 165.54L264.473 161.649C265.561 160.459 266.599 159.227 267.586 157.953L256.886 168.652C258.16 167.662 259.392 166.625 260.582 165.54Z" fill="#CDCDCD"/>
<path opacity="0.28" d="M173.163 118.316L173.265 118.215L202.332 89.1503L202.434 89.0489L202.535 88.9431L229.679 61.8069L229.167 61.7266L202.244 88.6513L202.142 88.7528L202.041 88.8543L172.973 117.919L172.872 118.02L172.77 118.122L160.653 130.242C160.679 130.411 160.708 130.58 160.734 130.745L173.062 118.426L173.163 118.316Z" fill="#CDCDCD"/>
<path opacity="0.28" d="M167.31 112.46L167.412 112.358L196.479 83.2936L196.581 83.1921L196.682 83.0907L218.721 61.0586H218.116L196.391 82.7989L196.289 82.9004L196.188 83.0018L167.12 112.083L167.019 112.185L166.917 112.286L159.998 119.188C159.998 119.386 159.998 119.589 159.998 119.792L167.226 112.565L167.31 112.46Z" fill="#CDCDCD"/>
<path opacity="0.28" d="M170.237 115.39L170.339 115.289L199.406 86.2239L199.508 86.1182L199.609 86.0167L224.431 61.1979L223.881 61.1641L199.317 85.7249L199.216 85.8264L199.114 85.9279L170.047 114.992L169.945 115.094L169.844 115.195L160.087 124.951C160.087 125.133 160.087 125.319 160.121 125.501L170.136 115.491L170.237 115.39Z" fill="#CDCDCD"/>
<path opacity="0.28" d="M164.384 109.546L164.486 109.445L193.553 80.3676L193.655 80.2661L193.756 80.1647L212.399 61.5283C212.171 61.5537 211.942 61.5918 211.718 61.6214L193.465 79.8729L193.363 79.9744L193.262 80.0758L164.194 109.123L164.093 109.225L163.987 109.326L160.544 112.769C160.515 112.997 160.481 113.225 160.451 113.45L164.283 109.618L164.384 109.546Z" fill="#CDCDCD"/>
<path opacity="0.28" d="M196.602 141.731L196.704 141.63L225.771 112.565L225.873 112.459L225.974 112.358L255.042 83.2934L255.143 83.1919L255.245 83.0904L261.098 77.2208L260.794 76.9375L254.932 82.7986L254.83 82.9001L254.729 83.0016L225.661 112.083L225.56 112.185L225.458 112.286L196.391 141.334L196.289 141.435L196.188 141.537L175.879 161.86L176.162 162.161L196.496 141.833L196.602 141.731Z" fill="#CDCDCD"/>
<path opacity="0.28" d="M190.728 135.875L190.83 135.773L219.897 106.709L219.999 106.607L220.1 106.506L249.168 77.4413L249.269 77.3398L249.371 77.2383L254.64 71.9735C254.526 71.8889 254.408 71.8128 254.294 71.7324L249.079 76.9465L248.977 77.048L248.876 77.1495L219.808 106.214L219.707 106.316L219.605 106.417L190.538 135.482L190.436 135.583L190.335 135.685L170.656 155.361L170.897 155.708L190.627 135.981L190.728 135.875Z" fill="#CDCDCD"/>
<path opacity="0.28" d="M184.874 130.022L184.976 129.92L214.043 100.856L214.145 100.754L214.246 100.653L243.314 71.5882L243.415 71.4867L243.517 71.3852L247.323 67.5793L246.93 67.3848L243.212 71.1061L243.111 71.2076L243.009 71.3091L213.942 100.361L213.84 100.462L213.735 100.564L184.667 129.629L184.566 129.73L184.464 129.831L166.278 148.015C166.342 148.146 166.405 148.278 166.473 148.409L184.76 130.123L184.874 130.022Z" fill="#CDCDCD"/>
<path opacity="0.28" d="M179.017 124.169L179.118 124.068L208.186 95.0029L208.291 94.9015L208.393 94.8L237.461 65.7354L237.562 65.6339L237.664 65.5324L239.08 64.1116L238.657 63.9678L237.389 65.2364L237.287 65.3379L237.186 65.4394L208.097 94.504L207.995 94.6097L207.894 94.7112L178.839 123.776L178.738 123.877L178.636 123.979L162.903 139.71C162.95 139.854 163.001 140.002 163.047 140.133L178.928 124.254L179.017 124.169Z" fill="#CDCDCD"/>
<path opacity="0.28" d="M193.641 138.805L193.743 138.7L222.823 109.635L222.925 109.533L223.026 109.432L252.094 80.3674L252.195 80.2659L252.297 80.1645L257.968 74.4936L257.647 74.2314L252.005 79.8727L251.903 79.9742L251.802 80.0756L222.734 109.123L222.633 109.225L222.531 109.326L193.464 138.391L193.362 138.492L193.261 138.594L173.159 158.693L173.417 159.019L193.553 138.89L193.641 138.805Z" fill="#CDCDCD"/>
<path opacity="0.28" d="M187.801 132.949L187.902 132.847L216.97 103.783L217.071 103.681L217.173 103.58L246.24 74.515L246.342 74.4135L246.443 74.312L251.095 69.6603L250.723 69.4404L246.151 74.0245L246.05 74.1259L245.948 74.2274L216.902 103.288L216.8 103.389L216.699 103.491L187.631 132.555L187.526 132.657L187.424 132.758L168.393 151.788C168.464 151.911 168.536 152.037 168.612 152.156L187.729 133.042L187.801 132.949Z" fill="#CDCDCD"/>
<path opacity="0.28" d="M181.948 127.095L182.049 126.994L211.117 97.9294L211.218 97.8279L211.32 97.7264L240.387 68.6619L240.489 68.5604L240.59 68.4589L243.339 65.7102L242.917 65.541L240.294 68.1629L240.193 68.2644L240.091 68.3701L211.024 97.4346L210.922 97.5361L210.821 97.6376L181.753 126.702L181.652 126.804L181.55 126.905L164.46 143.99C164.515 144.129 164.57 144.269 164.629 144.412L181.838 127.205L181.948 127.095Z" fill="#CDCDCD"/>
<path opacity="0.28" d="M176.091 121.243L176.192 121.141L205.26 92.0767L205.361 91.9752L205.467 91.8737L234.534 62.8092H234.509L234.061 62.6992L205.171 91.5777L205.069 91.6792L204.968 91.7807L175.9 120.849L175.799 120.951L175.697 121.052L161.605 135.139C161.644 135.299 161.682 135.456 161.724 135.612L175.989 121.344L176.091 121.243Z" fill="#CDCDCD"/>
<path d="M276.088 163.438C308.381 163.438 334.56 137.264 334.56 104.977C334.56 72.6903 308.381 46.5166 276.088 46.5166C243.796 46.5166 217.617 72.6903 217.617 104.977C217.617 137.264 243.796 163.438 276.088 163.438Z" fill="url(#paint1_radial_10_2)"/>
<path d="M154.859 0.00683594V212.462H367.337V0.00683594H154.859ZM164.972 212.355H154.967V202.35H164.972V212.355ZM164.972 202.243H154.967V192.238H164.972V202.243ZM164.972 192.131H154.967V182.148H164.972V192.131ZM164.972 182.019H154.967V172.014H164.972V182.019ZM164.972 171.907H154.967V161.907H164.972V171.907ZM164.972 161.795H154.967V151.79H164.972V161.795ZM164.972 151.683H154.967V141.665H164.972V151.683ZM164.972 141.571H154.967V131.566H164.972V141.571ZM164.972 131.459H154.967V121.459H164.972V131.459ZM164.972 121.351H154.967V111.347H164.972V121.351ZM164.972 111.239H154.967V101.235H164.972V111.239ZM164.972 101.127H154.967V91.1225H164.972V101.127ZM164.972 91.0149H154.967V81.0105H164.972V91.0149ZM164.972 80.9029H154.967V70.8985H164.972V80.9029ZM164.972 70.7909H154.967V60.7865H164.972V70.7909ZM164.972 60.6789H154.967V50.6745H164.972V60.6789ZM164.972 50.5669H154.967V40.5625H164.972V50.5669ZM164.972 40.4549H154.967V30.4505H164.972V40.4549ZM164.972 30.3428H154.967V20.3385H164.972V30.3428ZM164.972 20.2308H154.967V10.2265H164.972V20.2308ZM164.972 10.1188H154.967V0.114502H164.972V10.1188ZM175.085 212.355H165.08V202.35H175.085V212.355ZM175.085 202.243H165.08V192.238H175.085V202.243ZM175.085 192.131H165.08V182.148H175.085V192.131ZM175.085 182.019H165.08V172.014H175.085V182.019ZM175.085 171.907H165.08V161.907H175.085V171.907ZM175.085 161.795H165.08V151.79H175.085V161.795ZM175.085 151.683H165.08V141.665H175.085V151.683ZM175.085 141.571H165.08V131.566H175.085V141.571ZM175.085 131.459H165.08V121.459H175.085V131.459ZM175.085 121.351H165.08V111.347H175.085V121.351ZM175.085 111.239H165.08V101.235H175.085V111.239ZM175.085 101.127H165.08V91.1225H175.085V101.127ZM175.085 91.0149H165.08V81.0105H175.085V91.0149ZM175.085 80.9029H165.08V70.8985H175.085V80.9029ZM175.085 70.7909H165.08V60.7865H175.085V70.7909ZM175.085 60.6789H165.08V50.6745H175.085V60.6789ZM175.085 50.5669H165.08V40.5625H175.085V50.5669ZM175.085 40.4549H165.08V30.4505H175.085V40.4549ZM175.085 30.3428H165.08V20.3385H175.085V30.3428ZM175.085 20.2308H165.08V10.2265H175.085V20.2308ZM175.085 10.1188H165.08V0.114502H175.085V10.1188ZM185.199 212.355H175.193V202.35H185.199V212.355ZM185.199 202.243H175.193V192.238H185.199V202.243ZM185.199 192.131H175.193V182.148H185.199V192.131ZM185.199 182.019H175.193V172.014H185.199V182.019ZM185.199 171.907H175.193V161.907H185.199V171.907ZM185.199 161.795H175.193V151.79H185.199V161.795ZM185.199 151.683H175.193V141.665H185.199V151.683ZM185.199 141.571H175.193V131.566H185.199V141.571ZM185.199 131.459H175.193V121.459H185.199V131.459ZM185.199 121.351H175.193V111.347H185.199V121.351ZM185.199 111.239H175.193V101.235H185.199V111.239ZM185.199 101.127H175.193V91.1225H185.199V101.127ZM185.199 91.0149H175.193V81.0105H185.199V91.0149ZM185.199 80.9029H175.193V70.8985H185.199V80.9029ZM185.199 70.7909H175.193V60.7865H185.199V70.7909ZM185.199 60.6789H175.193V50.6745H185.199V60.6789ZM185.199 50.5669H175.193V40.5625H185.199V50.5669ZM185.199 40.4549H175.193V30.4505H185.199V40.4549ZM185.199 30.3428H175.193V20.3385H185.199V30.3428ZM185.199 20.2308H175.193V10.2265H185.199V20.2308ZM185.199 10.1188H175.193V0.114502H185.199V10.1188ZM195.312 212.355H185.306V202.35H195.312V212.355ZM195.312 202.243H185.306V192.238H195.312V202.243ZM195.312 192.131H185.306V182.148H195.312V192.131ZM195.312 182.019H185.306V172.014H195.312V182.019ZM195.312 171.907H185.306V161.907H195.312V171.907ZM195.312 161.795H185.306V151.79H195.312V161.795ZM195.312 151.683H185.306V141.665H195.312V151.683ZM195.312 141.571H185.306V131.566H195.312V141.571ZM195.312 131.459H185.306V121.459H195.312V131.459ZM195.312 121.351H185.306V111.347H195.312V121.351ZM195.312 111.239H185.306V101.235H195.312V111.239ZM195.312 101.127H185.306V91.1225H195.312V101.127ZM195.312 91.0149H185.306V81.0105H195.312V91.0149ZM195.312 80.9029H185.306V70.8985H195.312V80.9029ZM195.312 70.7909H185.306V60.7865H195.312V70.7909ZM195.312 60.6789H185.306V50.6745H195.312V60.6789ZM195.312 50.5669H185.306V40.5625H195.312V50.5669ZM195.312 40.4549H185.306V30.4505H195.312V40.4549ZM195.312 30.3428H185.306V20.3385H195.312V30.3428ZM195.312 20.2308H185.306V10.2265H195.312V20.2308ZM195.312 10.1188H185.306V0.114502H195.312V10.1188ZM205.425 212.355H195.419V202.35H205.425V212.355ZM205.425 202.243H195.419V192.238H205.425V202.243ZM205.425 192.131H195.419V182.148H205.425V192.131ZM205.425 182.019H195.419V172.014H205.425V182.019ZM205.425 171.907H195.419V161.907H205.425V171.907ZM205.425 161.795H195.419V151.79H205.425V161.795ZM205.425 151.683H195.419V141.665H205.425V151.683ZM205.425 141.571H195.419V131.566H205.425V141.571ZM205.425 131.459H195.419V121.459H205.425V131.459ZM205.425 121.351H195.419V111.347H205.425V121.351ZM205.425 111.239H195.419V101.235H205.425V111.239ZM205.425 101.127H195.419V91.1225H205.425V101.127ZM205.425 91.0149H195.419V81.0105H205.425V91.0149ZM205.425 80.9029H195.419V70.8985H205.425V80.9029ZM205.425 70.7909H195.419V60.7865H205.425V70.7909ZM205.425 60.6789H195.419V50.6745H205.425V60.6789ZM205.425 50.5669H195.419V40.5625H205.425V50.5669ZM205.425 40.4549H195.419V30.4505H205.425V40.4549ZM205.425 30.3428H195.419V20.3385H205.425V30.3428ZM205.425 20.2308H195.419V10.2265H205.425V20.2308ZM205.425 10.1188H195.419V0.114502H205.425V10.1188ZM215.538 212.355H205.532V202.35H215.538V212.355ZM215.538 202.243H205.532V192.238H215.538V202.243ZM215.538 192.131H205.532V182.148H215.538V192.131ZM215.538 182.019H205.532V172.014H215.538V182.019ZM215.538 171.907H205.532V161.907H215.538V171.907ZM215.538 161.795H205.532V151.79H215.538V161.795ZM215.538 151.683H205.532V141.665H215.538V151.683ZM215.538 141.571H205.532V131.566H215.538V141.571ZM215.538 131.459H205.532V121.459H215.538V131.459ZM215.538 121.351H205.532V111.347H215.538V121.351ZM215.538 111.239H205.532V101.235H215.538V111.239ZM215.538 101.127H205.532V91.1225H215.538V101.127ZM215.538 91.0149H205.532V81.0105H215.538V91.0149ZM215.538 80.9029H205.532V70.8985H215.538V80.9029ZM215.538 70.7909H205.532V60.7865H215.538V70.7909ZM215.538 60.6789H205.532V50.6745H215.538V60.6789ZM215.538 50.5669H205.532V40.5625H215.538V50.5669ZM215.538 40.4549H205.532V30.4505H215.538V40.4549ZM215.538 30.3428H205.532V20.3385H215.538V30.3428ZM215.538 20.2308H205.532V10.2265H215.538V20.2308ZM215.538 10.1188H205.532V0.114502H215.538V10.1188ZM225.651 212.355H215.641V202.35H225.646L225.651 212.355ZM225.651 202.243H215.641V192.238H225.646L225.651 202.243ZM225.651 192.131H215.641V182.148H225.646L225.651 192.131ZM225.651 182.019H215.641V172.014H225.646L225.651 182.019ZM225.651 171.907H215.641V161.907H225.646L225.651 171.907ZM225.651 161.795H215.641V151.79H225.646L225.651 161.795ZM225.651 151.683H215.641V141.665H225.646L225.651 151.683ZM225.651 141.571H215.641V131.566H225.646L225.651 141.571ZM225.651 131.459H215.641V121.459H225.646L225.651 131.459ZM225.651 121.351H215.641V111.347H225.646L225.651 121.351ZM225.651 111.239H215.641V101.235H225.646L225.651 111.239ZM225.651 101.127H215.641V91.1225H225.646L225.651 101.127ZM225.651 91.0149H215.641V81.0105H225.646L225.651 91.0149ZM225.651 80.9029H215.641V70.8985H225.646L225.651 80.9029ZM225.651 70.7909H215.641V60.7865H225.646L225.651 70.7909ZM225.651 60.6789H215.641V50.6745H225.646L225.651 60.6789ZM225.651 50.5669H215.641V40.5625H225.646L225.651 50.5669ZM225.651 40.4549H215.641V30.4505H225.646L225.651 40.4549ZM225.651 30.3428H215.641V20.3385H225.646L225.651 30.3428ZM225.651 20.2308H215.641V10.2265H225.646L225.651 20.2308ZM225.651 10.1188H215.641V0.114502H225.646L225.651 10.1188ZM235.764 212.355H225.758V202.35H235.764V212.355ZM235.764 202.243H225.758V192.238H235.764V202.243ZM235.764 192.131H225.758V182.148H235.764V192.131ZM235.764 182.019H225.758V172.014H235.764V182.019ZM235.764 171.907H225.758V161.907H235.764V171.907ZM235.764 161.795H225.758V151.79H235.764V161.795ZM235.764 151.683H225.758V141.665H235.764V151.683ZM235.764 141.571H225.758V131.566H235.764V141.571ZM235.764 131.459H225.758V121.459H235.764V131.459ZM235.764 121.351H225.758V111.347H235.764V121.351ZM235.764 111.239H225.758V101.235H235.764V111.239ZM235.764 101.127H225.758V91.1225H235.764V101.127ZM235.764 91.0149H225.758V81.0105H235.764V91.0149ZM235.764 80.9029H225.758V70.8985H235.764V80.9029ZM235.764 70.7909H225.758V60.7865H235.764V70.7909ZM235.764 60.6789H225.758V50.6745H235.764V60.6789ZM235.764 50.5669H225.758V40.5625H235.764V50.5669ZM235.764 40.4549H225.758V30.4505H235.764V40.4549ZM235.764 30.3428H225.758V20.3385H235.764V30.3428ZM235.764 20.2308H225.758V10.2265H235.764V20.2308ZM235.764 10.1188H225.758V0.114502H235.764V10.1188ZM245.872 212.355H235.884V202.35H245.885L245.872 212.355ZM245.872 202.243H235.884V192.238H245.885L245.872 202.243ZM245.872 192.131H235.884V182.148H245.885L245.872 192.131ZM245.872 182.019H235.884V172.014H245.885L245.872 182.019ZM245.872 171.907H235.884V161.907H245.885L245.872 171.907ZM245.872 161.795H235.884V151.79H245.885L245.872 161.795ZM245.872 151.683H235.884V141.665H245.885L245.872 151.683ZM245.872 141.571H235.884V131.566H245.885L245.872 141.571ZM245.872 131.459H235.884V121.459H245.885L245.872 131.459ZM245.872 121.351H235.884V111.347H245.885L245.872 121.351ZM245.872 111.239H235.884V101.235H245.885L245.872 111.239ZM245.872 101.127H235.884V91.1225H245.885L245.872 101.127ZM245.872 91.0149H235.884V81.0105H245.885L245.872 91.0149ZM245.872 80.9029H235.884V70.8985H245.885L245.872 80.9029ZM245.872 70.7909H235.884V60.7865H245.885L245.872 70.7909ZM245.872 60.6789H235.884V50.6745H245.885L245.872 60.6789ZM245.872 50.5669H235.884V40.5625H245.885L245.872 50.5669ZM245.872 40.4549H235.884V30.4505H245.885L245.872 40.4549ZM245.872 30.3428H235.884V20.3385H245.885L245.872 30.3428ZM245.872 20.2308H235.884V10.2265H245.885L245.872 20.2308ZM245.872 10.1188H235.884V0.114502H245.885L245.872 10.1188ZM255.986 212.355H245.98V202.35H255.986V212.355ZM255.986 202.243H245.98V192.238H255.986V202.243ZM255.986 192.131H245.98V182.148H255.986V192.131ZM255.986 182.019H245.98V172.014H255.986V182.019ZM255.986 171.907H245.98V161.907H255.986V171.907ZM255.986 161.795H245.98V151.79H255.986V161.795ZM255.986 151.683H245.98V141.665H255.986V151.683ZM255.986 141.571H245.98V131.566H255.986V141.571ZM255.986 131.459H245.98V121.459H255.986V131.459ZM255.986 121.351H245.98V111.347H255.986V121.351ZM255.986 111.239H245.98V101.235H255.986V111.239ZM255.986 101.127H245.98V91.1225H255.986V101.127ZM255.986 91.0149H245.98V81.0105H255.986V91.0149ZM255.986 80.9029H245.98V70.8985H255.986V80.9029ZM255.986 70.7909H245.98V60.7865H255.986V70.7909ZM255.986 60.6789H245.98V50.6745H255.986V60.6789ZM255.986 50.5669H245.98V40.5625H255.986V50.5669ZM255.986 40.4549H245.98V30.4505H255.986V40.4549ZM255.986 30.3428H245.98V20.3385H255.986V30.3428ZM255.986 20.2308H245.98V10.2265H255.986V20.2308ZM255.986 10.1188H245.98V0.114502H255.986V10.1188ZM266.099 212.355H256.093V202.35H266.099V212.355ZM266.099 202.243H256.093V192.238H266.099V202.243ZM266.099 192.131H256.093V182.148H266.099V192.131ZM266.099 182.019H256.093V172.014H266.099V182.019ZM266.099 171.907H256.093V161.907H266.099V171.907ZM266.099 161.795H256.093V151.79H266.099V161.795ZM266.099 151.683H256.093V141.665H266.099V151.683ZM266.099 141.571H256.093V131.566H266.099V141.571ZM266.099 131.459H256.093V121.459H266.099V131.459ZM266.099 121.351H256.093V111.347H266.099V121.351ZM266.099 111.239H256.093V101.235H266.099V111.239ZM266.099 101.127H256.093V91.1225H266.099V101.127ZM266.099 91.0149H256.093V81.0105H266.099V91.0149ZM266.099 80.9029H256.093V70.8985H266.099V80.9029ZM266.099 70.7909H256.093V60.7865H266.099V70.7909ZM266.099 60.6789H256.093V50.6745H266.099V60.6789ZM266.099 50.5669H256.093V40.5625H266.099V50.5669ZM266.099 40.4549H256.093V30.4505H266.099V40.4549ZM266.099 30.3428H256.093V20.3385H266.099V30.3428ZM266.099 20.2308H256.093V10.2265H266.099V20.2308ZM266.099 10.1188H256.093V0.114502H266.099V10.1188ZM276.212 212.355H266.206V202.35H276.212V212.355ZM276.212 202.243H266.206V192.238H276.212V202.243ZM276.212 192.131H266.206V182.148H276.212V192.131ZM276.212 182.019H266.206V172.014H276.212V182.019ZM276.212 171.907H266.206V161.907H276.212V171.907ZM276.212 161.795H266.206V151.79H276.212V161.795ZM276.212 151.683H266.206V141.665H276.212V151.683ZM276.212 141.571H266.206V131.566H276.212V141.571ZM276.212 131.459H266.206V121.459H276.212V131.459ZM276.212 121.351H266.206V111.347H276.212V121.351ZM276.212 111.239H266.206V101.235H276.212V111.239ZM276.212 101.127H266.206V91.1225H276.212V101.127ZM276.212 91.0149H266.206V81.0105H276.212V91.0149ZM276.212 80.9029H266.206V70.8985H276.212V80.9029ZM276.212 70.7909H266.206V60.7865H276.212V70.7909ZM276.212 60.6789H266.206V50.6745H276.212V60.6789ZM276.212 50.5669H266.206V40.5625H276.212V50.5669ZM276.212 40.4549H266.206V30.4505H276.212V40.4549ZM276.212 30.3428H266.206V20.3385H276.212V30.3428ZM276.212 20.2308H266.206V10.2265H276.212V20.2308ZM276.212 10.1188H266.206V0.114502H276.212V10.1188ZM286.325 212.355H276.319V202.35H286.325V212.355ZM286.325 202.243H276.319V192.238H286.325V202.243ZM286.325 192.131H276.319V182.148H286.325V192.131ZM286.325 182.019H276.319V172.014H286.325V182.019ZM286.325 171.907H276.319V161.907H286.325V171.907ZM286.325 161.795H276.319V151.79H286.325V161.795ZM286.325 151.683H276.319V141.665H286.325V151.683ZM286.325 141.571H276.319V131.566H286.325V141.571ZM286.325 131.459H276.319V121.459H286.325V131.459ZM286.325 121.351H276.319V111.347H286.325V121.351ZM286.325 111.239H276.319V101.235H286.325V111.239ZM286.325 101.127H276.319V91.1225H286.325V101.127ZM286.325 91.0149H276.319V81.0105H286.325V91.0149ZM286.325 80.9029H276.319V70.8985H286.325V80.9029ZM286.325 70.7909H276.319V60.7865H286.325V70.7909ZM286.325 60.6789H276.319V50.6745H286.325V60.6789ZM286.325 50.5669H276.319V40.5625H286.325V50.5669ZM286.325 40.4549H276.319V30.4505H286.325V40.4549ZM286.325 30.3428H276.319V20.3385H286.325V30.3428ZM286.325 20.2308H276.319V10.2265H286.325V20.2308ZM286.325 10.1188H276.319V0.114502H286.325V10.1188ZM296.438 212.355H286.432V202.35H296.438V212.355ZM296.438 202.243H286.432V192.238H296.438V202.243ZM296.438 192.131H286.432V182.148H296.438V192.131ZM296.438 182.019H286.432V172.014H296.438V182.019ZM296.438 171.907H286.432V161.907H296.438V171.907ZM296.438 161.795H286.432V151.79H296.438V161.795ZM296.438 151.683H286.432V141.665H296.438V151.683ZM296.438 141.571H286.432V131.566H296.438V141.571ZM296.438 131.459H286.432V121.459H296.438V131.459ZM296.438 121.351H286.432V111.347H296.438V121.351ZM296.438 111.239H286.432V101.235H296.438V111.239ZM296.438 101.127H286.432V91.1225H296.438V101.127ZM296.438 91.0149H286.432V81.0105H296.438V91.0149ZM296.438 80.9029H286.432V70.8985H296.438V80.9029ZM296.438 70.7909H286.432V60.7865H296.438V70.7909ZM296.438 60.6789H286.432V50.6745H296.438V60.6789ZM296.438 50.5669H286.432V40.5625H296.438V50.5669ZM296.438 40.4549H286.432V30.4505H296.438V40.4549ZM296.438 30.3428H286.432V20.3385H296.438V30.3428ZM296.438 20.2308H286.432V10.2265H296.438V20.2308ZM296.438 10.1188H286.432V0.114502H296.438V10.1188ZM306.551 212.355H296.545V202.35H306.551V212.355ZM306.551 202.243H296.545V192.238H306.551V202.243ZM306.551 192.131H296.545V182.148H306.551V192.131ZM306.551 182.019H296.545V172.014H306.551V182.019ZM306.551 171.907H296.545V161.907H306.551V171.907ZM306.551 161.795H296.545V151.79H306.551V161.795ZM306.551 151.683H296.545V141.665H306.551V151.683ZM306.551 141.571H296.545V131.566H306.551V141.571ZM306.551 131.459H296.545V121.459H306.551V131.459ZM306.551 121.351H296.545V111.347H306.551V121.351ZM306.551 111.239H296.545V101.235H306.551V111.239ZM306.551 101.127H296.545V91.1225H306.551V101.127ZM306.551 91.0149H296.545V81.0105H306.551V91.0149ZM306.551 80.9029H296.545V70.8985H306.551V80.9029ZM306.551 70.7909H296.545V60.7865H306.551V70.7909ZM306.551 60.6789H296.545V50.6745H306.551V60.6789ZM306.551 50.5669H296.545V40.5625H306.551V50.5669ZM306.551 40.4549H296.545V30.4505H306.551V40.4549ZM306.551 30.3428H296.545V20.3385H306.551V30.3428ZM306.551 20.2308H296.545V10.2265H306.551V20.2308ZM306.551 10.1188H296.545V0.114502H306.551V10.1188ZM316.664 212.355H306.658V202.35H316.664V212.355ZM316.664 202.243H306.658V192.238H316.664V202.243ZM316.664 192.131H306.658V182.148H316.664V192.131ZM316.664 182.019H306.658V172.014H316.664V182.019ZM316.664 171.907H306.658V161.907H316.664V171.907ZM316.664 161.795H306.658V151.79H316.664V161.795ZM316.664 151.683H306.658V141.665H316.664V151.683ZM316.664 141.571H306.658V131.566H316.664V141.571ZM316.664 131.459H306.658V121.459H316.664V131.459ZM316.664 121.351H306.658V111.347H316.664V121.351ZM316.664 111.239H306.658V101.235H316.664V111.239ZM316.664 101.127H306.658V91.1225H316.664V101.127ZM316.664 91.0149H306.658V81.0105H316.664V91.0149ZM316.664 80.9029H306.658V70.8985H316.664V80.9029ZM316.664 70.7909H306.658V60.7865H316.664V70.7909ZM316.664 60.6789H306.658V50.6745H316.664V60.6789ZM316.664 50.5669H306.658V40.5625H316.664V50.5669ZM316.664 40.4549H306.658V30.4505H316.664V40.4549ZM316.664 30.3428H306.658V20.3385H316.664V30.3428ZM316.664 20.2308H306.658V10.2265H316.664V20.2308ZM316.664 10.1188H306.658V0.114502H316.664V10.1188ZM326.764 212.355H316.771V202.35H326.764V212.355ZM326.764 202.243H316.771V192.238H326.764V202.243ZM326.764 192.131H316.771V182.148H326.764V192.131ZM326.764 182.019H316.771V172.014H326.764V182.019ZM326.764 171.907H316.771V161.907H326.764V171.907ZM326.764 161.795H316.771V151.79H326.764V161.795ZM326.764 151.683H316.771V141.665H326.764V151.683ZM326.764 141.571H316.771V131.566H326.764V141.571ZM326.764 131.459H316.771V121.459H326.764V131.459ZM326.764 121.351H316.771V111.347H326.764V121.351ZM326.764 111.239H316.771V101.235H326.764V111.239ZM326.764 101.127H316.771V91.1225H326.764V101.127ZM326.764 91.0149H316.771V81.0105H326.764V91.0149ZM326.764 80.9029H316.771V70.8985H326.764V80.9029ZM326.764 70.7909H316.771V60.7865H326.764V70.7909ZM326.764 60.7004H316.771V50.6745H326.764V60.7004ZM326.764 50.5884H316.771V40.5625H326.764V50.5884ZM326.764 40.4592H316.771V30.4505H326.764V40.4592ZM326.764 30.3472H316.771V20.3385H326.764V30.3472ZM326.764 20.2179H316.771V10.2265H326.764V20.2179ZM326.764 10.1059H316.771V0.114502H326.764V10.1059ZM336.877 212.342H326.884V202.35H336.89L336.877 212.342ZM336.877 202.23H326.884V192.238H336.89L336.877 202.23ZM336.877 192.118H326.884V182.148H336.89L336.877 192.118ZM336.877 182.006H326.884V172.014H336.89L336.877 182.006ZM336.877 171.894H326.884V161.907H336.89L336.877 171.894ZM336.877 161.782H326.884V151.79H336.89L336.877 161.782ZM336.877 151.67H326.884V141.665H336.89L336.877 151.67ZM336.877 141.558H326.884V131.566H336.89L336.877 141.558ZM336.877 131.446H326.884V121.459H336.89L336.877 131.446ZM336.877 121.338H326.884V111.347H336.89L336.877 121.338ZM336.877 111.226H326.884V101.235H336.89L336.877 111.226ZM336.877 101.114H326.884V91.1225H336.89L336.877 101.114ZM336.877 91.0019H326.884V81.0105H336.89L336.877 91.0019ZM336.877 80.8899H326.884V70.8985H336.89L336.877 80.8899ZM336.877 70.7779H326.884V60.7865H336.89L336.877 70.7779ZM336.877 60.6659H326.884V50.6745H336.89L336.877 60.6659ZM336.877 50.5539H326.884V40.5625H336.89L336.877 50.5539ZM336.877 40.4419H326.884V30.4505H336.89L336.877 40.4419ZM336.877 30.3299H326.884V20.3385H336.89L336.877 30.3299ZM336.877 20.2179H326.884V10.2265H336.89L336.877 20.2179ZM336.877 10.1059H326.884V0.114502H336.89L336.877 10.1059ZM347.007 212.355H336.998V202.35H347.007V212.355ZM347.007 202.243H336.998V192.238H347.007V202.243ZM347.007 192.131H336.998V182.148H347.007V192.131ZM347.007 182.019H336.998V172.014H347.007V182.019ZM347.007 171.907H336.998V161.907H347.007V171.907ZM347.007 161.795H336.998V151.79H347.007V161.795ZM347.007 151.683H336.998V141.665H347.007V151.683ZM347.007 141.571H336.998V131.566H347.007V141.571ZM347.007 131.459H336.998V121.459H347.007V131.459ZM347.007 121.351H336.998V111.347H347.007V121.351ZM347.007 111.239H336.998V101.235H347.007V111.239ZM347.007 101.127H336.998V91.1225H347.007V101.127ZM347.007 91.0149H336.998V81.0105H347.007V91.0149ZM347.007 80.9029H336.998V70.8985H347.007V80.9029ZM347.007 70.7909H336.998V60.7865H347.007V70.7909ZM347.007 60.7004H336.998V50.6745H347.007V60.7004ZM347.007 50.5884H336.998V40.5625H347.007V50.5884ZM347.007 40.4592H336.998V30.4505H347.007V40.4592ZM347.007 30.3472H336.998V20.3385H347.007V30.3472ZM347.007 20.2179H336.998V10.2265H347.007V20.2179ZM347.007 10.1059H336.998V0.114502H347.007V10.1059ZM357.12 212.342H347.111V202.35H357.116L357.12 212.342ZM357.12 202.23H347.111V192.238H357.116L357.12 202.23ZM357.12 192.118H347.111V182.148H357.116L357.12 192.118ZM357.12 182.006H347.111V172.014H357.116L357.12 182.006ZM357.12 171.894H347.111V161.907H357.116L357.12 171.894ZM357.12 161.782H347.111V151.79H357.116L357.12 161.782ZM357.12 151.67H347.111V141.665H357.116L357.12 151.67ZM357.12 141.558H347.111V131.566H357.116L357.12 141.558ZM357.12 131.446H347.111V121.459H357.116L357.12 131.446ZM357.12 121.338H347.111V111.347H357.116L357.12 121.338ZM357.12 111.226H347.111V101.235H357.116L357.12 111.226ZM357.12 101.114H347.111V91.1225H357.116L357.12 101.114ZM357.12 91.0019H347.111V81.0105H357.116L357.12 91.0019ZM357.12 80.8899H347.111V70.8985H357.116L357.12 80.8899ZM357.12 70.7779H347.111V60.7865H357.116L357.12 70.7779ZM357.12 60.6659H347.111V50.6745H357.116L357.12 60.6659ZM357.12 50.5539H347.111V40.5625H357.116L357.12 50.5539ZM357.12 40.4419H347.111V30.4505H357.116L357.12 40.4419ZM357.12 30.3299H347.111V20.3385H357.116L357.12 30.3299ZM357.12 20.2179H347.111V10.2265H357.116L357.12 20.2179ZM357.12 10.1059H347.111V0.114502H357.116L357.12 10.1059ZM367.251 212.355H357.224V202.35H367.251V212.355ZM367.251 202.243H357.224V192.238H367.251V202.243ZM367.251 192.131H357.224V182.148H367.251V192.131ZM367.251 182.019H357.224V172.014H367.251V182.019ZM367.251 171.907H357.224V161.907H367.251V171.907ZM367.251 161.795H357.224V151.79H367.251V161.795ZM367.251 151.683H357.224V141.665H367.251V151.683ZM367.251 141.571H357.224V131.566H367.251V141.571ZM367.251 131.459H357.224V121.459H367.251V131.459ZM367.251 121.351H357.224V111.347H367.251V121.351ZM367.251 111.239H357.224V101.235H367.251V111.239ZM367.251 101.127H357.224V91.1225H367.251V101.127ZM367.251 91.0149H357.224V81.0105H367.251V91.0149ZM367.251 80.9029H357.224V70.8985H367.251V80.9029ZM367.251 70.7909H357.224V60.7865H367.251V70.7909ZM367.251 60.7004H357.224V50.6745H367.251V60.7004ZM367.251 50.5884H357.224V40.5625H367.251V50.5884ZM367.251 40.4592H357.224V30.4505H367.251V40.4592ZM367.251 30.3472H357.224V20.3385H367.251V30.3472ZM367.251 20.2179H357.224V10.2265H367.251V20.2179ZM367.251 10.1059H357.224V0.114502H367.251V10.1059Z" fill="url(#paint2_radial_10_2)"/>
<defs>
<radialGradient id="paint0_radial_10_2" cx="0" cy="0" r="1" gradientUnits="userSpaceOnUse" gradientTransform="translate(73.7492 227.791) rotate(45) scale(46.0798)">
<stop stop-color="#66BF4A"/>
<stop offset="1" stop-color="#3D7BA0" stop-opacity="0.12"/>
</radialGradient>
<radialGradient id="paint1_radial_10_2" cx="0" cy="0" r="1" gradientUnits="userSpaceOnUse" gradientTransform="translate(201.362 184.111) rotate(-48.4284) scale(206.457)">
<stop stop-color="#AAFF00"/>
<stop offset="1" stop-color="#00FFE0" stop-opacity="0"/>
</radialGradient>
<radialGradient id="paint2_radial_10_2" cx="0" cy="0" r="1" gradientUnits="userSpaceOnUse" gradientTransform="translate(261.098 106.235) scale(106.239 106.228)">
<stop stop-color="#FFFFE0"/>
<stop offset="1" stop-color="#FFFFE0" stop-opacity="0"/>
</radialGradient>
</defs>
</svg>
