<svg width="444" height="268" viewBox="0 0 444 268" fill="none" xmlns="http://www.w3.org/2000/svg">
<path d="M111.47 229.507C114.791 229.507 117.482 226.815 117.482 223.495C117.482 220.174 114.791 217.482 111.47 217.482C108.15 217.482 105.458 220.174 105.458 223.495C105.458 226.815 108.15 229.507 111.47 229.507Z" fill="url(#paint0_radial_10_2)"/>
<g filter="url(#filter0_d_10_2)">
<path d="M412.939 13.7939C435.839 36.6742 435.857 73.7828 412.982 96.6844C390.106 119.586 353.001 119.604 330.101 96.7271C307.201 73.85 270.096 73.8683 247.22 96.7698C224.345 119.671 224.363 156.789 247.26 179.669" stroke="#FFFFE0" stroke-width="0.25" stroke-miterlimit="10" shape-rendering="crispEdges"/>
</g>
<path d="M146.749 248.498C152.685 248.498 157.498 243.686 157.498 237.749C157.498 231.813 152.685 227 146.749 227C140.812 227 136 231.813 136 237.749C136 243.686 140.812 248.498 146.749 248.498Z" fill="url(#paint1_radial_10_2)"/>
<path d="M261.168 141.842C271.433 180.086 248.756 219.409 210.516 229.679C172.276 239.948 132.957 217.273 122.69 179.033C112.424 140.792 73.1044 118.117 34.8644 128.387C-3.37558 138.657 -26.0581 177.989 -15.7964 216.231" stroke="white" stroke-width="0.25" stroke-miterlimit="10"/>
<path d="M218.084 249.342C229.85 249.342 239.389 239.805 239.389 228.04C239.389 216.275 229.85 206.738 218.084 206.738C206.317 206.738 196.778 216.275 196.778 228.04C196.778 239.805 206.317 249.342 218.084 249.342Z" fill="url(#paint2_radial_10_2)"/>
<path d="M173.91 189.792V267.206H251.332V189.792H173.91ZM177.595 267.167H173.949V263.522H177.595V267.167ZM177.595 263.482H173.949V259.837H177.595V263.482ZM177.595 259.798H173.949V256.16H177.595V259.798ZM177.595 256.113H173.949V252.468H177.595V256.113ZM177.595 252.429H173.949V248.785H177.595V252.429ZM177.595 248.744H173.949V245.099H177.595V248.744ZM177.595 245.059H173.949V241.409H177.595V245.059ZM177.595 241.375H173.949V237.729H177.595V241.375ZM177.595 237.69H173.949V234.046H177.595V237.69ZM177.595 234.007H173.949V230.362H177.595V234.007ZM177.595 230.323H173.949V226.677H177.595V230.323ZM177.595 226.638H173.949V222.993H177.595V226.638ZM177.595 222.953H173.949V219.308H177.595V222.953ZM177.595 219.269H173.949V215.623H177.595V219.269ZM177.595 215.584H173.949V211.939H177.595V215.584ZM177.595 211.9H173.949V208.254H177.595V211.9ZM177.595 208.215H173.949V204.57H177.595V208.215ZM177.595 204.53H173.949V200.885H177.595V204.53ZM177.595 200.846H173.949V197.2H177.595V200.846ZM177.595 197.161H173.949V193.516H177.595V197.161ZM177.595 193.477H173.949V189.831H177.595V193.477ZM181.28 267.167H177.634V263.522H181.28V267.167ZM181.28 263.482H177.634V259.837H181.28V263.482ZM181.28 259.798H177.634V256.16H181.28V259.798ZM181.28 256.113H177.634V252.468H181.28V256.113ZM181.28 252.429H177.634V248.785H181.28V252.429ZM181.28 248.744H177.634V245.099H181.28V248.744ZM181.28 245.059H177.634V241.409H181.28V245.059ZM181.28 241.375H177.634V237.729H181.28V241.375ZM181.28 237.69H177.634V234.046H181.28V237.69ZM181.28 234.007H177.634V230.362H181.28V234.007ZM181.28 230.323H177.634V226.677H181.28V230.323ZM181.28 226.638H177.634V222.993H181.28V226.638ZM181.28 222.953H177.634V219.308H181.28V222.953ZM181.28 219.269H177.634V215.623H181.28V219.269ZM181.28 215.584H177.634V211.939H181.28V215.584ZM181.28 211.9H177.634V208.254H181.28V211.9ZM181.28 208.215H177.634V204.57H181.28V208.215ZM181.28 204.53H177.634V200.885H181.28V204.53ZM181.28 200.846H177.634V197.2H181.28V200.846ZM181.28 197.161H177.634V193.516H181.28V197.161ZM181.28 193.477H177.634V189.831H181.28V193.477ZM184.965 267.167H181.319V263.522H184.965V267.167ZM184.965 263.482H181.319V259.837H184.965V263.482ZM184.965 259.798H181.319V256.16H184.965V259.798ZM184.965 256.113H181.319V252.468H184.965V256.113ZM184.965 252.429H181.319V248.785H184.965V252.429ZM184.965 248.744H181.319V245.099H184.965V248.744ZM184.965 245.059H181.319V241.409H184.965V245.059ZM184.965 241.375H181.319V237.729H184.965V241.375ZM184.965 237.69H181.319V234.046H184.965V237.69ZM184.965 234.007H181.319V230.362H184.965V234.007ZM184.965 230.323H181.319V226.677H184.965V230.323ZM184.965 226.638H181.319V222.993H184.965V226.638ZM184.965 222.953H181.319V219.308H184.965V222.953ZM184.965 219.269H181.319V215.623H184.965V219.269ZM184.965 215.584H181.319V211.939H184.965V215.584ZM184.965 211.9H181.319V208.254H184.965V211.9ZM184.965 208.215H181.319V204.57H184.965V208.215ZM184.965 204.53H181.319V200.885H184.965V204.53ZM184.965 200.846H181.319V197.2H184.965V200.846ZM184.965 197.161H181.319V193.516H184.965V197.161ZM184.965 193.477H181.319V189.831H184.965V193.477ZM188.65 267.167H185.004V263.522H188.65V267.167ZM188.65 263.482H185.004V259.837H188.65V263.482ZM188.65 259.798H185.004V256.16H188.65V259.798ZM188.65 256.113H185.004V252.468H188.65V256.113ZM188.65 252.429H185.004V248.785H188.65V252.429ZM188.65 248.744H185.004V245.099H188.65V248.744ZM188.65 245.059H185.004V241.409H188.65V245.059ZM188.65 241.375H185.004V237.729H188.65V241.375ZM188.65 237.69H185.004V234.046H188.65V237.69ZM188.65 234.007H185.004V230.362H188.65V234.007ZM188.65 230.323H185.004V226.677H188.65V230.323ZM188.65 226.638H185.004V222.993H188.65V226.638ZM188.65 222.953H185.004V219.308H188.65V222.953ZM188.65 219.269H185.004V215.623H188.65V219.269ZM188.65 215.584H185.004V211.939H188.65V215.584ZM188.65 211.9H185.004V208.254H188.65V211.9ZM188.65 208.215H185.004V204.57H188.65V208.215ZM188.65 204.53H185.004V200.885H188.65V204.53ZM188.65 200.846H185.004V197.2H188.65V200.846ZM188.65 197.161H185.004V193.516H188.65V197.161ZM188.65 193.477H185.004V189.831H188.65V193.477ZM192.335 267.167H188.689V263.522H192.335V267.167ZM192.335 263.482H188.689V259.837H192.335V263.482ZM192.335 259.798H188.689V256.16H192.335V259.798ZM192.335 256.113H188.689V252.468H192.335V256.113ZM192.335 252.429H188.689V248.785H192.335V252.429ZM192.335 248.744H188.689V245.099H192.335V248.744ZM192.335 245.059H188.689V241.409H192.335V245.059ZM192.335 241.375H188.689V237.729H192.335V241.375ZM192.335 237.69H188.689V234.046H192.335V237.69ZM192.335 234.007H188.689V230.362H192.335V234.007ZM192.335 230.323H188.689V226.677H192.335V230.323ZM192.335 226.638H188.689V222.993H192.335V226.638ZM192.335 222.953H188.689V219.308H192.335V222.953ZM192.335 219.269H188.689V215.623H192.335V219.269ZM192.335 215.584H188.689V211.939H192.335V215.584ZM192.335 211.9H188.689V208.254H192.335V211.9ZM192.335 208.215H188.689V204.57H192.335V208.215ZM192.335 204.53H188.689V200.885H192.335V204.53ZM192.335 200.846H188.689V197.2H192.335V200.846ZM192.335 197.161H188.689V193.516H192.335V197.161ZM192.335 193.477H188.689V189.831H192.335V193.477ZM196.02 267.167H192.374V263.522H196.02V267.167ZM196.02 263.482H192.374V259.837H196.02V263.482ZM196.02 259.798H192.374V256.16H196.02V259.798ZM196.02 256.113H192.374V252.468H196.02V256.113ZM196.02 252.429H192.374V248.785H196.02V252.429ZM196.02 248.744H192.374V245.099H196.02V248.744ZM196.02 245.059H192.374V241.409H196.02V245.059ZM196.02 241.375H192.374V237.729H196.02V241.375ZM196.02 237.69H192.374V234.046H196.02V237.69ZM196.02 234.007H192.374V230.362H196.02V234.007ZM196.02 230.323H192.374V226.677H196.02V230.323ZM196.02 226.638H192.374V222.993H196.02V226.638ZM196.02 222.953H192.374V219.308H196.02V222.953ZM196.02 219.269H192.374V215.623H196.02V219.269ZM196.02 215.584H192.374V211.939H196.02V215.584ZM196.02 211.9H192.374V208.254H196.02V211.9ZM196.02 208.215H192.374V204.57H196.02V208.215ZM196.02 204.53H192.374V200.885H196.02V204.53ZM196.02 200.846H192.374V197.2H196.02V200.846ZM196.02 197.161H192.374V193.516H196.02V197.161ZM196.02 193.477H192.374V189.831H196.02V193.477ZM199.704 267.167H196.057V263.522H199.703L199.704 267.167ZM199.704 263.482H196.057V259.837H199.703L199.704 263.482ZM199.704 259.798H196.057V256.16H199.703L199.704 259.798ZM199.704 256.113H196.057V252.468H199.703L199.704 256.113ZM199.704 252.429H196.057V248.785H199.703L199.704 252.429ZM199.704 248.744H196.057V245.099H199.703L199.704 248.744ZM199.704 245.059H196.057V241.409H199.703L199.704 245.059ZM199.704 241.375H196.057V237.729H199.703L199.704 241.375ZM199.704 237.69H196.057V234.046H199.703L199.704 237.69ZM199.704 234.007H196.057V230.362H199.703L199.704 234.007ZM199.704 230.323H196.057V226.677H199.703L199.704 230.323ZM199.704 226.638H196.057V222.993H199.703L199.704 226.638ZM199.704 222.953H196.057V219.308H199.703L199.704 222.953ZM199.704 219.269H196.057V215.623H199.703L199.704 219.269ZM199.704 215.584H196.057V211.939H199.703L199.704 215.584ZM199.704 211.9H196.057V208.254H199.703L199.704 211.9ZM199.704 208.215H196.057V204.57H199.703L199.704 208.215ZM199.704 204.53H196.057V200.885H199.703L199.704 204.53ZM199.704 200.846H196.057V197.2H199.703L199.704 200.846ZM199.704 197.161H196.057V193.516H199.703L199.704 197.161ZM199.704 193.477H196.057V189.831H199.703L199.704 193.477ZM203.389 267.167H199.744V263.522H203.389V267.167ZM203.389 263.482H199.744V259.837H203.389V263.482ZM203.389 259.798H199.744V256.16H203.389V259.798ZM203.389 256.113H199.744V252.468H203.389V256.113ZM203.389 252.429H199.744V248.785H203.389V252.429ZM203.389 248.744H199.744V245.099H203.389V248.744ZM203.389 245.059H199.744V241.409H203.389V245.059ZM203.389 241.375H199.744V237.729H203.389V241.375ZM203.389 237.69H199.744V234.046H203.389V237.69ZM203.389 234.007H199.744V230.362H203.389V234.007ZM203.389 230.323H199.744V226.677H203.389V230.323ZM203.389 226.638H199.744V222.993H203.389V226.638ZM203.389 222.953H199.744V219.308H203.389V222.953ZM203.389 219.269H199.744V215.623H203.389V219.269ZM203.389 215.584H199.744V211.939H203.389V215.584ZM203.389 211.9H199.744V208.254H203.389V211.9ZM203.389 208.215H199.744V204.57H203.389V208.215ZM203.389 204.53H199.744V200.885H203.389V204.53ZM203.389 200.846H199.744V197.2H203.389V200.846ZM203.389 197.161H199.744V193.516H203.389V197.161ZM203.389 193.477H199.744V189.831H203.389V193.477ZM207.073 267.167H203.433V263.522H207.078L207.073 267.167ZM207.073 263.482H203.433V259.837H207.078L207.073 263.482ZM207.073 259.798H203.433V256.16H207.078L207.073 259.798ZM207.073 256.113H203.433V252.468H207.078L207.073 256.113ZM207.073 252.429H203.433V248.785H207.078L207.073 252.429ZM207.073 248.744H203.433V245.099H207.078L207.073 248.744ZM207.073 245.059H203.433V241.409H207.078L207.073 245.059ZM207.073 241.375H203.433V237.729H207.078L207.073 241.375ZM207.073 237.69H203.433V234.046H207.078L207.073 237.69ZM207.073 234.007H203.433V230.362H207.078L207.073 234.007ZM207.073 230.323H203.433V226.677H207.078L207.073 230.323ZM207.073 226.638H203.433V222.993H207.078L207.073 226.638ZM207.073 222.953H203.433V219.308H207.078L207.073 222.953ZM207.073 219.269H203.433V215.623H207.078L207.073 219.269ZM207.073 215.584H203.433V211.939H207.078L207.073 215.584ZM207.073 211.9H203.433V208.254H207.078L207.073 211.9ZM207.073 208.215H203.433V204.57H207.078L207.073 208.215ZM207.073 204.53H203.433V200.885H207.078L207.073 204.53ZM207.073 200.846H203.433V197.2H207.078L207.073 200.846ZM207.073 197.161H203.433V193.516H207.078L207.073 197.161ZM207.073 193.477H203.433V189.831H207.078L207.073 193.477ZM210.758 267.167H207.112V263.522H210.758V267.167ZM210.758 263.482H207.112V259.837H210.758V263.482ZM210.758 259.798H207.112V256.16H210.758V259.798ZM210.758 256.113H207.112V252.468H210.758V256.113ZM210.758 252.429H207.112V248.785H210.758V252.429ZM210.758 248.744H207.112V245.099H210.758V248.744ZM210.758 245.059H207.112V241.409H210.758V245.059ZM210.758 241.375H207.112V237.729H210.758V241.375ZM210.758 237.69H207.112V234.046H210.758V237.69ZM210.758 234.007H207.112V230.362H210.758V234.007ZM210.758 230.323H207.112V226.677H210.758V230.323ZM210.758 226.638H207.112V222.993H210.758V226.638ZM210.758 222.953H207.112V219.308H210.758V222.953ZM210.758 219.269H207.112V215.623H210.758V219.269ZM210.758 215.584H207.112V211.939H210.758V215.584ZM210.758 211.9H207.112V208.254H210.758V211.9ZM210.758 208.215H207.112V204.57H210.758V208.215ZM210.758 204.53H207.112V200.885H210.758V204.53ZM210.758 200.846H207.112V197.2H210.758V200.846ZM210.758 197.161H207.112V193.516H210.758V197.161ZM210.758 193.477H207.112V189.831H210.758V193.477ZM214.443 267.167H210.797V263.522H214.443V267.167ZM214.443 263.482H210.797V259.837H214.443V263.482ZM214.443 259.798H210.797V256.16H214.443V259.798ZM214.443 256.113H210.797V252.468H214.443V256.113ZM214.443 252.429H210.797V248.785H214.443V252.429ZM214.443 248.744H210.797V245.099H214.443V248.744ZM214.443 245.059H210.797V241.409H214.443V245.059ZM214.443 241.375H210.797V237.729H214.443V241.375ZM214.443 237.69H210.797V234.046H214.443V237.69ZM214.443 234.007H210.797V230.362H214.443V234.007ZM214.443 230.323H210.797V226.677H214.443V230.323ZM214.443 226.638H210.797V222.993H214.443V226.638ZM214.443 222.953H210.797V219.308H214.443V222.953ZM214.443 219.269H210.797V215.623H214.443V219.269ZM214.443 215.584H210.797V211.939H214.443V215.584ZM214.443 211.9H210.797V208.254H214.443V211.9ZM214.443 208.215H210.797V204.57H214.443V208.215ZM214.443 204.53H210.797V200.885H214.443V204.53ZM214.443 200.846H210.797V197.2H214.443V200.846ZM214.443 197.161H210.797V193.516H214.443V197.161ZM214.443 193.477H210.797V189.831H214.443V193.477ZM218.128 267.167H214.482V263.522H218.128V267.167ZM218.128 263.482H214.482V259.837H218.128V263.482ZM218.128 259.798H214.482V256.16H218.128V259.798ZM218.128 256.113H214.482V252.468H218.128V256.113ZM218.128 252.429H214.482V248.785H218.128V252.429ZM218.128 248.744H214.482V245.099H218.128V248.744ZM218.128 245.059H214.482V241.409H218.128V245.059ZM218.128 241.375H214.482V237.729H218.128V241.375ZM218.128 237.69H214.482V234.046H218.128V237.69ZM218.128 234.007H214.482V230.362H218.128V234.007ZM218.128 230.323H214.482V226.677H218.128V230.323ZM218.128 226.638H214.482V222.993H218.128V226.638ZM218.128 222.953H214.482V219.308H218.128V222.953ZM218.128 219.269H214.482V215.623H218.128V219.269ZM218.128 215.584H214.482V211.939H218.128V215.584ZM218.128 211.9H214.482V208.254H218.128V211.9ZM218.128 208.215H214.482V204.57H218.128V208.215ZM218.128 204.53H214.482V200.885H218.128V204.53ZM218.128 200.846H214.482V197.2H218.128V200.846ZM218.128 197.161H214.482V193.516H218.128V197.161ZM218.128 193.477H214.482V189.831H218.128V193.477ZM221.813 267.167H218.167V263.522H221.813V267.167ZM221.813 263.482H218.167V259.837H221.813V263.482ZM221.813 259.798H218.167V256.16H221.813V259.798ZM221.813 256.113H218.167V252.468H221.813V256.113ZM221.813 252.429H218.167V248.785H221.813V252.429ZM221.813 248.744H218.167V245.099H221.813V248.744ZM221.813 245.059H218.167V241.409H221.813V245.059ZM221.813 241.375H218.167V237.729H221.813V241.375ZM221.813 237.69H218.167V234.046H221.813V237.69ZM221.813 234.007H218.167V230.362H221.813V234.007ZM221.813 230.323H218.167V226.677H221.813V230.323ZM221.813 226.638H218.167V222.993H221.813V226.638ZM221.813 222.953H218.167V219.308H221.813V222.953ZM221.813 219.269H218.167V215.623H221.813V219.269ZM221.813 215.584H218.167V211.939H221.813V215.584ZM221.813 211.9H218.167V208.254H221.813V211.9ZM221.813 208.215H218.167V204.57H221.813V208.215ZM221.813 204.53H218.167V200.885H221.813V204.53ZM221.813 200.846H218.167V197.2H221.813V200.846ZM221.813 197.161H218.167V193.516H221.813V197.161ZM221.813 193.477H218.167V189.831H221.813V193.477ZM225.498 267.167H221.852V263.522H225.498V267.167ZM225.498 263.482H221.852V259.837H225.498V263.482ZM225.498 259.798H221.852V256.16H225.498V259.798ZM225.498 256.113H221.852V252.468H225.498V256.113ZM225.498 252.429H221.852V248.785H225.498V252.429ZM225.498 248.744H221.852V245.099H225.498V248.744ZM225.498 245.059H221.852V241.409H225.498V245.059ZM225.498 241.375H221.852V237.729H225.498V241.375ZM225.498 237.69H221.852V234.046H225.498V237.69ZM225.498 234.007H221.852V230.362H225.498V234.007ZM225.498 230.323H221.852V226.677H225.498V230.323ZM225.498 226.638H221.852V222.993H225.498V226.638ZM225.498 222.953H221.852V219.308H225.498V222.953ZM225.498 219.269H221.852V215.623H225.498V219.269ZM225.498 215.584H221.852V211.939H225.498V215.584ZM225.498 211.9H221.852V208.254H225.498V211.9ZM225.498 208.215H221.852V204.57H225.498V208.215ZM225.498 204.53H221.852V200.885H225.498V204.53ZM225.498 200.846H221.852V197.2H225.498V200.846ZM225.498 197.161H221.852V193.516H225.498V197.161ZM225.498 193.477H221.852V189.831H225.498V193.477ZM229.183 267.167H225.537V263.522H229.183V267.167ZM229.183 263.482H225.537V259.837H229.183V263.482ZM229.183 259.798H225.537V256.16H229.183V259.798ZM229.183 256.113H225.537V252.468H229.183V256.113ZM229.183 252.429H225.537V248.785H229.183V252.429ZM229.183 248.744H225.537V245.099H229.183V248.744ZM229.183 245.059H225.537V241.409H229.183V245.059ZM229.183 241.375H225.537V237.729H229.183V241.375ZM229.183 237.69H225.537V234.046H229.183V237.69ZM229.183 234.007H225.537V230.362H229.183V234.007ZM229.183 230.323H225.537V226.677H229.183V230.323ZM229.183 226.638H225.537V222.993H229.183V226.638ZM229.183 222.953H225.537V219.308H229.183V222.953ZM229.183 219.269H225.537V215.623H229.183V219.269ZM229.183 215.584H225.537V211.939H229.183V215.584ZM229.183 211.9H225.537V208.254H229.183V211.9ZM229.183 208.215H225.537V204.57H229.183V208.215ZM229.183 204.53H225.537V200.885H229.183V204.53ZM229.183 200.846H225.537V197.2H229.183V200.846ZM229.183 197.161H225.537V193.516H229.183V197.161ZM229.183 193.477H225.537V189.831H229.183V193.477ZM232.868 267.167H229.222V263.522H232.868V267.167ZM232.868 263.482H229.222V259.837H232.868V263.482ZM232.868 259.798H229.222V256.16H232.868V259.798ZM232.868 256.113H229.222V252.468H232.868V256.113ZM232.868 252.429H229.222V248.785H232.868V252.429ZM232.868 248.744H229.222V245.099H232.868V248.744ZM232.868 245.059H229.222V241.409H232.868V245.059ZM232.868 241.375H229.222V237.729H232.868V241.375ZM232.868 237.69H229.222V234.046H232.868V237.69ZM232.868 234.007H229.222V230.362H232.868V234.007ZM232.868 230.323H229.222V226.677H232.868V230.323ZM232.868 226.638H229.222V222.993H232.868V226.638ZM232.868 222.953H229.222V219.308H232.868V222.953ZM232.868 219.269H229.222V215.623H232.868V219.269ZM232.868 215.584H229.222V211.939H232.868V215.584ZM232.868 211.9H229.222V208.254H232.868V211.9ZM232.868 208.215H229.222V204.57H232.868V208.215ZM232.868 204.53H229.222V200.885H232.868V204.53ZM232.868 200.846H229.222V197.2H232.868V200.846ZM232.868 197.161H229.222V193.516H232.868V197.161ZM232.868 193.477H229.222V189.831H232.868V193.477ZM236.548 267.167H232.907V263.522H236.548V267.167ZM236.548 263.482H232.907V259.837H236.548V263.482ZM236.548 259.798H232.907V256.16H236.548V259.798ZM236.548 256.113H232.907V252.468H236.548V256.113ZM236.548 252.429H232.907V248.785H236.548V252.429ZM236.548 248.744H232.907V245.099H236.548V248.744ZM236.548 245.059H232.907V241.409H236.548V245.059ZM236.548 241.375H232.907V237.729H236.548V241.375ZM236.548 237.69H232.907V234.046H236.548V237.69ZM236.548 234.007H232.907V230.362H236.548V234.007ZM236.548 230.323H232.907V226.677H236.548V230.323ZM236.548 226.638H232.907V222.993H236.548V226.638ZM236.548 222.953H232.907V219.308H236.548V222.953ZM236.548 219.269H232.907V215.623H236.548V219.269ZM236.548 215.584H232.907V211.939H236.548V215.584ZM236.548 211.907H232.907V208.254H236.548V211.907ZM236.548 208.223H232.907V204.57H236.548V208.223ZM236.548 204.532H232.907V200.885H236.548V204.532ZM236.548 200.847H232.907V197.2H236.548V200.847ZM236.548 197.156H232.907V193.516H236.548V197.156ZM236.548 193.472H232.907V189.831H236.548V193.472ZM240.233 267.162H236.592V263.522H240.238L240.233 267.162ZM240.233 263.478H236.592V259.837H240.238L240.233 263.478ZM240.233 259.793H236.592V256.16H240.238L240.233 259.793ZM240.233 256.108H236.592V252.468H240.238L240.233 256.108ZM240.233 252.424H236.592V248.785H240.238L240.233 252.424ZM240.233 248.739H236.592V245.099H240.238L240.233 248.739ZM240.233 245.055H236.592V241.409H240.238L240.233 245.055ZM240.233 241.37H236.592V237.729H240.238L240.233 241.37ZM240.233 237.685H236.592V234.046H240.238L240.233 237.685ZM240.233 234.002H236.592V230.362H240.238L240.233 234.002ZM240.233 230.318H236.592V226.677H240.238L240.233 230.318ZM240.233 226.633H236.592V222.993H240.238L240.233 226.633ZM240.233 222.949H236.592V219.308H240.238L240.233 222.949ZM240.233 219.264H236.592V215.623H240.238L240.233 219.264ZM240.233 215.579H236.592V211.939H240.238L240.233 215.579ZM240.233 211.895H236.592V208.254H240.238L240.233 211.895ZM240.233 208.21H236.592V204.57H240.238L240.233 208.21ZM240.233 204.526H236.592V200.885H240.238L240.233 204.526ZM240.233 200.841H236.592V197.2H240.238L240.233 200.841ZM240.233 197.156H236.592V193.516H240.238L240.233 197.156ZM240.233 193.472H236.592V189.831H240.238L240.233 193.472ZM243.924 267.167H240.277V263.522H243.924V267.167ZM243.924 263.482H240.277V259.837H243.924V263.482ZM243.924 259.798H240.277V256.16H243.924V259.798ZM243.924 256.113H240.277V252.468H243.924V256.113ZM243.924 252.429H240.277V248.785H243.924V252.429ZM243.924 248.744H240.277V245.099H243.924V248.744ZM243.924 245.059H240.277V241.409H243.924V245.059ZM243.924 241.375H240.277V237.729H243.924V241.375ZM243.924 237.69H240.277V234.046H243.924V237.69ZM243.924 234.007H240.277V230.362H243.924V234.007ZM243.924 230.323H240.277V226.677H243.924V230.323ZM243.924 226.638H240.277V222.993H243.924V226.638ZM243.924 222.953H240.277V219.308H243.924V222.953ZM243.924 219.269H240.277V215.623H243.924V219.269ZM243.924 215.584H240.277V211.939H243.924V215.584ZM243.924 211.907H240.277V208.254H243.924V211.907ZM243.924 208.223H240.277V204.57H243.924V208.223ZM243.924 204.532H240.277V200.885H243.924V204.532ZM243.924 200.847H240.277V197.2H243.924V200.847ZM243.924 197.156H240.277V193.516H243.924V197.156ZM243.924 193.472H240.277V189.831H243.924V193.472ZM247.609 267.162H243.962V263.522H247.608L247.609 267.162ZM247.609 263.478H243.962V259.837H247.608L247.609 263.478ZM247.609 259.793H243.962V256.16H247.608L247.609 259.793ZM247.609 256.108H243.962V252.468H247.608L247.609 256.108ZM247.609 252.424H243.962V248.785H247.608L247.609 252.424ZM247.609 248.739H243.962V245.099H247.608L247.609 248.739ZM247.609 245.055H243.962V241.409H247.608L247.609 245.055ZM247.609 241.37H243.962V237.729H247.608L247.609 241.37ZM247.609 237.685H243.962V234.046H247.608L247.609 237.685ZM247.609 234.002H243.962V230.362H247.608L247.609 234.002ZM247.609 230.318H243.962V226.677H247.608L247.609 230.318ZM247.609 226.633H243.962V222.993H247.608L247.609 226.633ZM247.609 222.949H243.962V219.308H247.608L247.609 222.949ZM247.609 219.264H243.962V215.623H247.608L247.609 219.264ZM247.609 215.579H243.962V211.939H247.608L247.609 215.579ZM247.609 211.895H243.962V208.254H247.608L247.609 211.895ZM247.609 208.21H243.962V204.57H247.608L247.609 208.21ZM247.609 204.526H243.962V200.885H247.608L247.609 204.526ZM247.609 200.841H243.962V197.2H247.608L247.609 200.841ZM247.609 197.156H243.962V193.516H247.608L247.609 197.156ZM247.609 193.472H243.962V189.831H247.608L247.609 193.472ZM251.3 267.167H247.647V263.522H251.3V267.167ZM251.3 263.482H247.647V259.837H251.3V263.482ZM251.3 259.798H247.647V256.16H251.3V259.798ZM251.3 256.113H247.647V252.468H251.3V256.113ZM251.3 252.429H247.647V248.785H251.3V252.429ZM251.3 248.744H247.647V245.099H251.3V248.744ZM251.3 245.059H247.647V241.409H251.3V245.059ZM251.3 241.375H247.647V237.729H251.3V241.375ZM251.3 237.69H247.647V234.046H251.3V237.69ZM251.3 234.007H247.647V230.362H251.3V234.007ZM251.3 230.323H247.647V226.677H251.3V230.323ZM251.3 226.638H247.647V222.993H251.3V226.638ZM251.3 222.953H247.647V219.308H251.3V222.953ZM251.3 219.269H247.647V215.623H251.3V219.269ZM251.3 215.584H247.647V211.939H251.3V215.584ZM251.3 211.907H247.647V208.254H251.3V211.907ZM251.3 208.223H247.647V204.57H251.3V208.223ZM251.3 204.532H247.647V200.885H251.3V204.532ZM251.3 200.847H247.647V197.2H251.3V200.847ZM251.3 197.156H247.647V193.516H251.3V197.156ZM251.3 193.472H247.647V189.831H251.3V193.472Z" fill="url(#paint3_radial_10_2)"/>
<defs>
<filter id="filter0_d_10_2" x="216.951" y="0.705078" width="226.3" height="192.053" filterUnits="userSpaceOnUse" color-interpolation-filters="sRGB">
<feFlood flood-opacity="0" result="BackgroundImageFix"/>
<feColorMatrix in="SourceAlpha" type="matrix" values="0 0 0 0 0 0 0 0 0 0 0 0 0 0 0 0 0 0 127 0" result="hardAlpha"/>
<feOffset/>
<feGaussianBlur stdDeviation="6.5"/>
<feComposite in2="hardAlpha" operator="out"/>
<feColorMatrix type="matrix" values="0 0 0 0 1 0 0 0 0 1 0 0 0 0 1 0 0 0 1 0"/>
<feBlend mode="normal" in2="BackgroundImageFix" result="effect1_dropShadow_10_2"/>
<feBlend mode="normal" in="SourceGraphic" in2="effect1_dropShadow_10_2" result="shape"/>
</filter>
<radialGradient id="paint0_radial_10_2" cx="0" cy="0" r="1" gradientUnits="userSpaceOnUse" gradientTransform="translate(114.782 220.089) rotate(45) scale(9.39129)">
<stop stop-color="#AAFF00"/>
<stop offset="1" stop-color="#3D7BA0"/>
</radialGradient>
<radialGradient id="paint1_radial_10_2" cx="0" cy="0" r="1" gradientUnits="userSpaceOnUse" gradientTransform="translate(152.67 231.661) rotate(45) scale(16.7905)">
<stop stop-color="#AAFF00"/>
<stop offset="1" stop-color="#3D7BA0"/>
</radialGradient>
<radialGradient id="paint2_radial_10_2" cx="0" cy="0" r="1" gradientUnits="userSpaceOnUse" gradientTransform="translate(190.855 256.875) rotate(-48.4284) scale(75.2284)">
<stop stop-color="#AAFF00"/>
<stop offset="1" stop-color="#00FFE0" stop-opacity="0"/>
</radialGradient>
<radialGradient id="paint3_radial_10_2" cx="0" cy="0" r="1" gradientUnits="userSpaceOnUse" gradientTransform="translate(212.621 228.499) scale(38.7111 38.7071)">
<stop stop-color="#FFFFE0"/>
<stop offset="1" stop-color="#FFFFE0" stop-opacity="0"/>
</radialGradient>
</defs>
</svg>
