<svg width="272" height="248" viewBox="0 0 272 248" fill="none" xmlns="http://www.w3.org/2000/svg">
<path d="M108.479 52.4186C94.0905 52.4186 82.4261 40.7543 82.4261 26.3656C82.4261 11.9768 94.0905 0.3125 108.479 0.3125C122.868 0.3125 134.532 11.9768 134.532 26.3656C134.532 40.7543 122.868 52.4186 108.479 52.4186Z" fill="url(#paint0_radial_10_2)"/>
<g filter="url(#filter0_d_10_2)">
<path d="M230.09 205.93C267.47 168.546 267.47 107.936 230.09 70.5524C192.709 33.169 132.104 33.169 94.7233 70.5524C57.3429 107.936 57.3428 168.546 94.7233 205.93C132.104 243.313 192.709 243.313 230.09 205.93Z" stroke="#FFFFE0" stroke-width="0.25" stroke-miterlimit="10" shape-rendering="crispEdges"/>
</g>
<g filter="url(#filter1_d_10_2)">
<path d="M163.377 72.3923C161.133 93.0301 142.586 107.949 121.948 105.717C101.31 103.486 86.3996 84.9487 88.642 64.3121C90.8843 43.6756 75.9736 25.1381 55.3358 22.9068C34.6981 20.6755 16.1461 35.5979 13.901 56.2341" stroke="#FFFFE0" stroke-width="0.25" stroke-miterlimit="10" shape-rendering="crispEdges"/>
</g>
<defs>
<filter id="filter0_d_10_2" x="53.563" y="29.3896" width="217.687" height="217.703" filterUnits="userSpaceOnUse" color-interpolation-filters="sRGB">
<feFlood flood-opacity="0" result="BackgroundImageFix"/>
<feColorMatrix in="SourceAlpha" type="matrix" values="0 0 0 0 0 0 0 0 0 0 0 0 0 0 0 0 0 0 127 0" result="hardAlpha"/>
<feOffset/>
<feGaussianBlur stdDeviation="6.5"/>
<feComposite in2="hardAlpha" operator="out"/>
<feColorMatrix type="matrix" values="0 0 0 0 1 0 0 0 0 1 0 0 0 0 1 0 0 0 0.8 0"/>
<feBlend mode="normal" in2="BackgroundImageFix" result="effect1_dropShadow_10_2"/>
<feBlend mode="normal" in="SourceGraphic" in2="effect1_dropShadow_10_2" result="shape"/>
</filter>
<filter id="filter1_d_10_2" x="0.776855" y="9.56055" width="175.725" height="109.503" filterUnits="userSpaceOnUse" color-interpolation-filters="sRGB">
<feFlood flood-opacity="0" result="BackgroundImageFix"/>
<feColorMatrix in="SourceAlpha" type="matrix" values="0 0 0 0 0 0 0 0 0 0 0 0 0 0 0 0 0 0 127 0" result="hardAlpha"/>
<feOffset/>
<feGaussianBlur stdDeviation="6.5"/>
<feComposite in2="hardAlpha" operator="out"/>
<feColorMatrix type="matrix" values="0 0 0 0 1 0 0 0 0 1 0 0 0 0 1 0 0 0 1 0"/>
<feBlend mode="normal" in2="BackgroundImageFix" result="effect1_dropShadow_10_2"/>
<feBlend mode="normal" in="SourceGraphic" in2="effect1_dropShadow_10_2" result="shape"/>
</filter>
<radialGradient id="paint0_radial_10_2" cx="0" cy="0" r="1" gradientUnits="userSpaceOnUse" gradientTransform="translate(78.7481 -2.54823) rotate(49.357) scale(60.8611)">
<stop stop-color="#5DD334"/>
<stop offset="0.71875" stop-color="#00FFE0" stop-opacity="0"/>
</radialGradient>
</defs>
</svg>
