<svg width="698" height="655" viewBox="0 0 698 655" fill="none" xmlns="http://www.w3.org/2000/svg">
<path d="M273.501 143C234.013 143 202.001 110.988 202.001 71.5C202.001 32.0116 234.013 0 273.501 0C312.989 0 345.001 32.0116 345.001 71.5C345.001 110.988 312.989 143 273.501 143Z" fill="url(#paint0_radial_10_2)"/>
<g filter="url(#filter0_d_10_2)">
<path d="M607.251 564.295C709.837 461.7 709.837 295.36 607.251 192.765C504.664 90.17 338.338 90.17 235.751 192.765C133.164 295.36 133.164 461.7 235.751 564.295C338.338 666.891 504.664 666.89 607.251 564.295Z" stroke="#FFFFE0" stroke-width="0.25" stroke-miterlimit="10" shape-rendering="crispEdges"/>
</g>
<g filter="url(#filter1_d_10_2)">
<path d="M424.163 197.817C418.005 254.455 367.104 295.398 310.466 289.275C253.827 283.151 212.906 232.277 219.06 175.642C225.214 119.007 184.293 68.1326 127.655 62.009C71.0166 55.8854 20.1025 96.8384 13.941 153.473" stroke="#FFFFE0" stroke-width="0.25" stroke-miterlimit="10" shape-rendering="crispEdges"/>
</g>
<defs>
<filter id="filter0_d_10_2" x="145.686" y="102.693" width="551.63" height="551.673" filterUnits="userSpaceOnUse" color-interpolation-filters="sRGB">
<feFlood flood-opacity="0" result="BackgroundImageFix"/>
<feColorMatrix in="SourceAlpha" type="matrix" values="0 0 0 0 0 0 0 0 0 0 0 0 0 0 0 0 0 0 127 0" result="hardAlpha"/>
<feOffset/>
<feGaussianBlur stdDeviation="6.5"/>
<feComposite in2="hardAlpha" operator="out"/>
<feColorMatrix type="matrix" values="0 0 0 0 1 0 0 0 0 1 0 0 0 0 1 0 0 0 0.8 0"/>
<feBlend mode="normal" in2="BackgroundImageFix" result="effect1_dropShadow_10_2"/>
<feBlend mode="normal" in="SourceGraphic" in2="effect1_dropShadow_10_2" result="shape"/>
</filter>
<filter id="filter1_d_10_2" x="0.816406" y="48.2773" width="436.472" height="254.729" filterUnits="userSpaceOnUse" color-interpolation-filters="sRGB">
<feFlood flood-opacity="0" result="BackgroundImageFix"/>
<feColorMatrix in="SourceAlpha" type="matrix" values="0 0 0 0 0 0 0 0 0 0 0 0 0 0 0 0 0 0 127 0" result="hardAlpha"/>
<feOffset/>
<feGaussianBlur stdDeviation="6.5"/>
<feComposite in2="hardAlpha" operator="out"/>
<feColorMatrix type="matrix" values="0 0 0 0 1 0 0 0 0 1 0 0 0 0 1 0 0 0 1 0"/>
<feBlend mode="normal" in2="BackgroundImageFix" result="effect1_dropShadow_10_2"/>
<feBlend mode="normal" in="SourceGraphic" in2="effect1_dropShadow_10_2" result="shape"/>
</filter>
<radialGradient id="paint0_radial_10_2" cx="0" cy="0" r="1" gradientUnits="userSpaceOnUse" gradientTransform="translate(191.907 -7.85098) rotate(49.357) scale(167.027)">
<stop stop-color="#5DD334"/>
<stop offset="0.71875" stop-color="#00FFE0" stop-opacity="0"/>
</radialGradient>
</defs>
</svg>
