<svg width="365" height="397" viewBox="0 0 365 397" fill="none" xmlns="http://www.w3.org/2000/svg">
<path d="M16.4535 101.071C7.17718 135.632 27.6701 171.167 62.2272 180.448C96.7843 189.728 132.317 169.237 141.595 134.679C150.873 100.121 186.405 79.6302 220.962 88.911C255.519 98.1919 276.017 133.736 266.744 168.295" stroke="white" stroke-width="0.25" stroke-miterlimit="10"/>
<path opacity="0.5" d="M364.857 177.139V361.539H180.458V177.139H364.857ZM356.081 361.445H364.764V352.762H356.081V361.445ZM356.081 352.669H364.764V343.986H356.081V352.669ZM356.081 343.892H364.764V335.228H356.081V343.892ZM356.081 335.115H364.764V326.432H356.081V335.115ZM356.081 326.339H364.764V317.659H356.081V326.339ZM356.081 317.562H364.764V308.879H356.081V317.562ZM356.081 308.785H364.764V300.091H356.081V308.785ZM356.081 300.009H364.764V291.326H356.081V300.009ZM356.081 291.232H364.764V282.553H356.081V291.232ZM356.081 282.459H364.764V273.776H356.081V282.459ZM356.081 273.682H364.764V264.999H356.081V273.682ZM356.081 264.906H364.764V256.223H356.081V264.906ZM356.081 256.129H364.764V247.446H356.081V256.129ZM356.081 247.352H364.764V238.669H356.081V247.352ZM356.081 238.576H364.764V229.893H356.081V238.576ZM356.081 229.799H364.764V221.116H356.081V229.799ZM356.081 221.022H364.764V212.339H356.081V221.022ZM356.081 212.246H364.764V203.563H356.081V212.246ZM356.081 203.469H364.764V194.786H356.081V203.469ZM356.081 194.692H364.764V186.009H356.081V194.692ZM356.081 185.916H364.764V177.233H356.081V185.916ZM347.304 361.445H355.987V352.762H347.304V361.445ZM347.304 352.669H355.987V343.986H347.304V352.669ZM347.304 343.892H355.987V335.228H347.304V343.892ZM347.304 335.115H355.987V326.432H347.304V335.115ZM347.304 326.339H355.987V317.659H347.304V326.339ZM347.304 317.562H355.987V308.879H347.304V317.562ZM347.304 308.785H355.987V300.091H347.304V308.785ZM347.304 300.009H355.987V291.326H347.304V300.009ZM347.304 291.232H355.987V282.553H347.304V291.232ZM347.304 282.459H355.987V273.776H347.304V282.459ZM347.304 273.682H355.987V264.999H347.304V273.682ZM347.304 264.906H355.987V256.223H347.304V264.906ZM347.304 256.129H355.987V247.446H347.304V256.129ZM347.304 247.352H355.987V238.669H347.304V247.352ZM347.304 238.576H355.987V229.893H347.304V238.576ZM347.304 229.799H355.987V221.116H347.304V229.799ZM347.304 221.022H355.987V212.339H347.304V221.022ZM347.304 212.246H355.987V203.563H347.304V212.246ZM347.304 203.469H355.987V194.786H347.304V203.469ZM347.304 194.692H355.987V186.009H347.304V194.692ZM347.304 185.916H355.987V177.233H347.304V185.916ZM338.527 361.445H347.211V352.762H338.527V361.445ZM338.527 352.669H347.211V343.986H338.527V352.669ZM338.527 343.892H347.211V335.228H338.527V343.892ZM338.527 335.115H347.211V326.432H338.527V335.115ZM338.527 326.339H347.211V317.659H338.527V326.339ZM338.527 317.562H347.211V308.879H338.527V317.562ZM338.527 308.785H347.211V300.091H338.527V308.785ZM338.527 300.009H347.211V291.326H338.527V300.009ZM338.527 291.232H347.211V282.553H338.527V291.232ZM338.527 282.459H347.211V273.776H338.527V282.459ZM338.527 273.682H347.211V264.999H338.527V273.682ZM338.527 264.906H347.211V256.223H338.527V264.906ZM338.527 256.129H347.211V247.446H338.527V256.129ZM338.527 247.352H347.211V238.669H338.527V247.352ZM338.527 238.576H347.211V229.893H338.527V238.576ZM338.527 229.799H347.211V221.116H338.527V229.799ZM338.527 221.022H347.211V212.339H338.527V221.022ZM338.527 212.246H347.211V203.563H338.527V212.246ZM338.527 203.469H347.211V194.786H338.527V203.469ZM338.527 194.692H347.211V186.009H338.527V194.692ZM338.527 185.916H347.211V177.233H338.527V185.916ZM329.751 361.445H338.434V352.762H329.751V361.445ZM329.751 352.669H338.434V343.986H329.751V352.669ZM329.751 343.892H338.434V335.228H329.751V343.892ZM329.751 335.115H338.434V326.432H329.751V335.115ZM329.751 326.339H338.434V317.659H329.751V326.339ZM329.751 317.562H338.434V308.879H329.751V317.562ZM329.751 308.785H338.434V300.091H329.751V308.785ZM329.751 300.009H338.434V291.326H329.751V300.009ZM329.751 291.232H338.434V282.553H329.751V291.232ZM329.751 282.459H338.434V273.776H329.751V282.459ZM329.751 273.682H338.434V264.999H329.751V273.682ZM329.751 264.906H338.434V256.223H329.751V264.906ZM329.751 256.129H338.434V247.446H329.751V256.129ZM329.751 247.352H338.434V238.669H329.751V247.352ZM329.751 238.576H338.434V229.893H329.751V238.576ZM329.751 229.799H338.434V221.116H329.751V229.799ZM329.751 221.022H338.434V212.339H329.751V221.022ZM329.751 212.246H338.434V203.563H329.751V212.246ZM329.751 203.469H338.434V194.786H329.751V203.469ZM329.751 194.692H338.434V186.009H329.751V194.692ZM329.751 185.916H338.434V177.233H329.751V185.916ZM320.974 361.445H329.657V352.762H320.974V361.445ZM320.974 352.669H329.657V343.986H320.974V352.669ZM320.974 343.892H329.657V335.228H320.974V343.892ZM320.974 335.115H329.657V326.432H320.974V335.115ZM320.974 326.339H329.657V317.659H320.974V326.339ZM320.974 317.562H329.657V308.879H320.974V317.562ZM320.974 308.785H329.657V300.091H320.974V308.785ZM320.974 300.009H329.657V291.326H320.974V300.009ZM320.974 291.232H329.657V282.553H320.974V291.232ZM320.974 282.459H329.657V273.776H320.974V282.459ZM320.974 273.682H329.657V264.999H320.974V273.682ZM320.974 264.906H329.657V256.223H320.974V264.906ZM320.974 256.129H329.657V247.446H320.974V256.129ZM320.974 247.352H329.657V238.669H320.974V247.352ZM320.974 238.576H329.657V229.893H320.974V238.576ZM320.974 229.799H329.657V221.116H320.974V229.799ZM320.974 221.022H329.657V212.339H320.974V221.022ZM320.974 212.246H329.657V203.563H320.974V212.246ZM320.974 203.469H329.657V194.786H320.974V203.469ZM320.974 194.692H329.657V186.009H320.974V194.692ZM320.974 185.916H329.657V177.233H320.974V185.916ZM312.197 361.445H320.881V352.762H312.197V361.445ZM312.197 352.669H320.881V343.986H312.197V352.669ZM312.197 343.892H320.881V335.228H312.197V343.892ZM312.197 335.115H320.881V326.432H312.197V335.115ZM312.197 326.339H320.881V317.659H312.197V326.339ZM312.197 317.562H320.881V308.879H312.197V317.562ZM312.197 308.785H320.881V300.091H312.197V308.785ZM312.197 300.009H320.881V291.326H312.197V300.009ZM312.197 291.232H320.881V282.553H312.197V291.232ZM312.197 282.459H320.881V273.776H312.197V282.459ZM312.197 273.682H320.881V264.999H312.197V273.682ZM312.197 264.906H320.881V256.223H312.197V264.906ZM312.197 256.129H320.881V247.446H312.197V256.129ZM312.197 247.352H320.881V238.669H312.197V247.352ZM312.197 238.576H320.881V229.893H312.197V238.576ZM312.197 229.799H320.881V221.116H312.197V229.799ZM312.197 221.022H320.881V212.339H312.197V221.022ZM312.197 212.246H320.881V203.563H312.197V212.246ZM312.197 203.469H320.881V194.786H312.197V203.469ZM312.197 194.692H320.881V186.009H312.197V194.692ZM312.197 185.916H320.881V177.233H312.197V185.916ZM303.421 361.445H312.108V352.762H303.424L303.421 361.445ZM303.421 352.669H312.108V343.986H303.424L303.421 352.669ZM303.421 343.892H312.108V335.228H303.424L303.421 343.892ZM303.421 335.115H312.108V326.432H303.424L303.421 335.115ZM303.421 326.339H312.108V317.659H303.424L303.421 326.339ZM303.421 317.562H312.108V308.879H303.424L303.421 317.562ZM303.421 308.785H312.108V300.091H303.424L303.421 308.785ZM303.421 300.009H312.108V291.326H303.424L303.421 300.009ZM303.421 291.232H312.108V282.553H303.424L303.421 291.232ZM303.421 282.459H312.108V273.776H303.424L303.421 282.459ZM303.421 273.682H312.108V264.999H303.424L303.421 273.682ZM303.421 264.906H312.108V256.223H303.424L303.421 264.906ZM303.421 256.129H312.108V247.446H303.424L303.421 256.129ZM303.421 247.352H312.108V238.669H303.424L303.421 247.352ZM303.421 238.576H312.108V229.893H303.424L303.421 238.576ZM303.421 229.799H312.108V221.116H303.424L303.421 229.799ZM303.421 221.022H312.108V212.339H303.424L303.421 221.022ZM303.421 212.246H312.108V203.563H303.424L303.421 212.246ZM303.421 203.469H312.108V194.786H303.424L303.421 203.469ZM303.421 194.692H312.108V186.009H303.424L303.421 194.692ZM303.421 185.916H312.108V177.233H303.424L303.421 185.916ZM294.644 361.445H303.327V352.762H294.644V361.445ZM294.644 352.669H303.327V343.986H294.644V352.669ZM294.644 343.892H303.327V335.228H294.644V343.892ZM294.644 335.115H303.327V326.432H294.644V335.115ZM294.644 326.339H303.327V317.659H294.644V326.339ZM294.644 317.562H303.327V308.879H294.644V317.562ZM294.644 308.785H303.327V300.091H294.644V308.785ZM294.644 300.009H303.327V291.326H294.644V300.009ZM294.644 291.232H303.327V282.553H294.644V291.232ZM294.644 282.459H303.327V273.776H294.644V282.459ZM294.644 273.682H303.327V264.999H294.644V273.682ZM294.644 264.906H303.327V256.223H294.644V264.906ZM294.644 256.129H303.327V247.446H294.644V256.129ZM294.644 247.352H303.327V238.669H294.644V247.352ZM294.644 238.576H303.327V229.893H294.644V238.576ZM294.644 229.799H303.327V221.116H294.644V229.799ZM294.644 221.022H303.327V212.339H294.644V221.022ZM294.644 212.246H303.327V203.563H294.644V212.246ZM294.644 203.469H303.327V194.786H294.644V203.469ZM294.644 194.692H303.327V186.009H294.644V194.692ZM294.644 185.916H303.327V177.233H294.644V185.916ZM285.871 361.445H294.539V352.762H285.86L285.871 361.445ZM285.871 352.669H294.539V343.986H285.86L285.871 352.669ZM285.871 343.892H294.539V335.228H285.86L285.871 343.892ZM285.871 335.115H294.539V326.432H285.86L285.871 335.115ZM285.871 326.339H294.539V317.659H285.86L285.871 326.339ZM285.871 317.562H294.539V308.879H285.86L285.871 317.562ZM285.871 308.785H294.539V300.091H285.86L285.871 308.785ZM285.871 300.009H294.539V291.326H285.86L285.871 300.009ZM285.871 291.232H294.539V282.553H285.86L285.871 291.232ZM285.871 282.459H294.539V273.776H285.86L285.871 282.459ZM285.871 273.682H294.539V264.999H285.86L285.871 273.682ZM285.871 264.906H294.539V256.223H285.86L285.871 264.906ZM285.871 256.129H294.539V247.446H285.86L285.871 256.129ZM285.871 247.352H294.539V238.669H285.86L285.871 247.352ZM285.871 238.576H294.539V229.893H285.86L285.871 238.576ZM285.871 229.799H294.539V221.116H285.86L285.871 229.799ZM285.871 221.022H294.539V212.339H285.86L285.871 221.022ZM285.871 212.246H294.539V203.563H285.86L285.871 212.246ZM285.871 203.469H294.539V194.786H285.86L285.871 203.469ZM285.871 194.692H294.539V186.009H285.86L285.871 194.692ZM285.871 185.916H294.539V177.233H285.86L285.871 185.916ZM277.094 361.445H285.778V352.762H277.094V361.445ZM277.094 352.669H285.778V343.986H277.094V352.669ZM277.094 343.892H285.778V335.228H277.094V343.892ZM277.094 335.115H285.778V326.432H277.094V335.115ZM277.094 326.339H285.778V317.659H277.094V326.339ZM277.094 317.562H285.778V308.879H277.094V317.562ZM277.094 308.785H285.778V300.091H277.094V308.785ZM277.094 300.009H285.778V291.326H277.094V300.009ZM277.094 291.232H285.778V282.553H277.094V291.232ZM277.094 282.459H285.778V273.776H277.094V282.459ZM277.094 273.682H285.778V264.999H277.094V273.682ZM277.094 264.906H285.778V256.223H277.094V264.906ZM277.094 256.129H285.778V247.446H277.094V256.129ZM277.094 247.352H285.778V238.669H277.094V247.352ZM277.094 238.576H285.778V229.893H277.094V238.576ZM277.094 229.799H285.778V221.116H277.094V229.799ZM277.094 221.022H285.778V212.339H277.094V221.022ZM277.094 212.246H285.778V203.563H277.094V212.246ZM277.094 203.469H285.778V194.786H277.094V203.469ZM277.094 194.692H285.778V186.009H277.094V194.692ZM277.094 185.916H285.778V177.233H277.094V185.916ZM268.318 361.445H277.001V352.762H268.318V361.445ZM268.318 352.669H277.001V343.986H268.318V352.669ZM268.318 343.892H277.001V335.228H268.318V343.892ZM268.318 335.115H277.001V326.432H268.318V335.115ZM268.318 326.339H277.001V317.659H268.318V326.339ZM268.318 317.562H277.001V308.879H268.318V317.562ZM268.318 308.785H277.001V300.091H268.318V308.785ZM268.318 300.009H277.001V291.326H268.318V300.009ZM268.318 291.232H277.001V282.553H268.318V291.232ZM268.318 282.459H277.001V273.776H268.318V282.459ZM268.318 273.682H277.001V264.999H268.318V273.682ZM268.318 264.906H277.001V256.223H268.318V264.906ZM268.318 256.129H277.001V247.446H268.318V256.129ZM268.318 247.352H277.001V238.669H268.318V247.352ZM268.318 238.576H277.001V229.893H268.318V238.576ZM268.318 229.799H277.001V221.116H268.318V229.799ZM268.318 221.022H277.001V212.339H268.318V221.022ZM268.318 212.246H277.001V203.563H268.318V212.246ZM268.318 203.469H277.001V194.786H268.318V203.469ZM268.318 194.692H277.001V186.009H268.318V194.692ZM268.318 185.916H277.001V177.233H268.318V185.916ZM259.541 361.445H268.224V352.762H259.541V361.445ZM259.541 352.669H268.224V343.986H259.541V352.669ZM259.541 343.892H268.224V335.228H259.541V343.892ZM259.541 335.115H268.224V326.432H259.541V335.115ZM259.541 326.339H268.224V317.659H259.541V326.339ZM259.541 317.562H268.224V308.879H259.541V317.562ZM259.541 308.785H268.224V300.091H259.541V308.785ZM259.541 300.009H268.224V291.326H259.541V300.009ZM259.541 291.232H268.224V282.553H259.541V291.232ZM259.541 282.459H268.224V273.776H259.541V282.459ZM259.541 273.682H268.224V264.999H259.541V273.682ZM259.541 264.906H268.224V256.223H259.541V264.906ZM259.541 256.129H268.224V247.446H259.541V256.129ZM259.541 247.352H268.224V238.669H259.541V247.352ZM259.541 238.576H268.224V229.893H259.541V238.576ZM259.541 229.799H268.224V221.116H259.541V229.799ZM259.541 221.022H268.224V212.339H259.541V221.022ZM259.541 212.246H268.224V203.563H259.541V212.246ZM259.541 203.469H268.224V194.786H259.541V203.469ZM259.541 194.692H268.224V186.009H259.541V194.692ZM259.541 185.916H268.224V177.233H259.541V185.916ZM250.765 361.445H259.448V352.762H250.765V361.445ZM250.765 352.669H259.448V343.986H250.765V352.669ZM250.765 343.892H259.448V335.228H250.765V343.892ZM250.765 335.115H259.448V326.432H250.765V335.115ZM250.765 326.339H259.448V317.659H250.765V326.339ZM250.765 317.562H259.448V308.879H250.765V317.562ZM250.765 308.785H259.448V300.091H250.765V308.785ZM250.765 300.009H259.448V291.326H250.765V300.009ZM250.765 291.232H259.448V282.553H250.765V291.232ZM250.765 282.459H259.448V273.776H250.765V282.459ZM250.765 273.682H259.448V264.999H250.765V273.682ZM250.765 264.906H259.448V256.223H250.765V264.906ZM250.765 256.129H259.448V247.446H250.765V256.129ZM250.765 247.352H259.448V238.669H250.765V247.352ZM250.765 238.576H259.448V229.893H250.765V238.576ZM250.765 229.799H259.448V221.116H250.765V229.799ZM250.765 221.022H259.448V212.339H250.765V221.022ZM250.765 212.246H259.448V203.563H250.765V212.246ZM250.765 203.469H259.448V194.786H250.765V203.469ZM250.765 194.692H259.448V186.009H250.765V194.692ZM250.765 185.916H259.448V177.233H250.765V185.916ZM241.988 361.445H250.671V352.762H241.988V361.445ZM241.988 352.669H250.671V343.986H241.988V352.669ZM241.988 343.892H250.671V335.228H241.988V343.892ZM241.988 335.115H250.671V326.432H241.988V335.115ZM241.988 326.339H250.671V317.659H241.988V326.339ZM241.988 317.562H250.671V308.879H241.988V317.562ZM241.988 308.785H250.671V300.091H241.988V308.785ZM241.988 300.009H250.671V291.326H241.988V300.009ZM241.988 291.232H250.671V282.553H241.988V291.232ZM241.988 282.459H250.671V273.776H241.988V282.459ZM241.988 273.682H250.671V264.999H241.988V273.682ZM241.988 264.906H250.671V256.223H241.988V264.906ZM241.988 256.129H250.671V247.446H241.988V256.129ZM241.988 247.352H250.671V238.669H241.988V247.352ZM241.988 238.576H250.671V229.893H241.988V238.576ZM241.988 229.799H250.671V221.116H241.988V229.799ZM241.988 221.022H250.671V212.339H241.988V221.022ZM241.988 212.246H250.671V203.563H241.988V212.246ZM241.988 203.469H250.671V194.786H241.988V203.469ZM241.988 194.692H250.671V186.009H241.988V194.692ZM241.988 185.916H250.671V177.233H241.988V185.916ZM233.211 361.445H241.894V352.762H233.211V361.445ZM233.211 352.669H241.894V343.986H233.211V352.669ZM233.211 343.892H241.894V335.228H233.211V343.892ZM233.211 335.115H241.894V326.432H233.211V335.115ZM233.211 326.339H241.894V317.659H233.211V326.339ZM233.211 317.562H241.894V308.879H233.211V317.562ZM233.211 308.785H241.894V300.091H233.211V308.785ZM233.211 300.009H241.894V291.326H233.211V300.009ZM233.211 291.232H241.894V282.553H233.211V291.232ZM233.211 282.459H241.894V273.776H233.211V282.459ZM233.211 273.682H241.894V264.999H233.211V273.682ZM233.211 264.906H241.894V256.223H233.211V264.906ZM233.211 256.129H241.894V247.446H233.211V256.129ZM233.211 247.352H241.894V238.669H233.211V247.352ZM233.211 238.576H241.894V229.893H233.211V238.576ZM233.211 229.799H241.894V221.116H233.211V229.799ZM233.211 221.022H241.894V212.339H233.211V221.022ZM233.211 212.246H241.894V203.563H233.211V212.246ZM233.211 203.469H241.894V194.786H233.211V203.469ZM233.211 194.692H241.894V186.009H233.211V194.692ZM233.211 185.916H241.894V177.233H233.211V185.916ZM224.435 361.445H233.118V352.762H224.435V361.445ZM224.435 352.669H233.118V343.986H224.435V352.669ZM224.435 343.892H233.118V335.228H224.435V343.892ZM224.435 335.115H233.118V326.432H224.435V335.115ZM224.435 326.339H233.118V317.659H224.435V326.339ZM224.435 317.562H233.118V308.879H224.435V317.562ZM224.435 308.785H233.118V300.091H224.435V308.785ZM224.435 300.009H233.118V291.326H224.435V300.009ZM224.435 291.232H233.118V282.553H224.435V291.232ZM224.435 282.459H233.118V273.776H224.435V282.459ZM224.435 273.682H233.118V264.999H224.435V273.682ZM224.435 264.906H233.118V256.223H224.435V264.906ZM224.435 256.129H233.118V247.446H224.435V256.129ZM224.435 247.352H233.118V238.669H224.435V247.352ZM224.435 238.576H233.118V229.893H224.435V238.576ZM224.435 229.799H233.118V221.116H224.435V229.799ZM224.435 221.022H233.118V212.339H224.435V221.022ZM224.435 212.246H233.118V203.563H224.435V212.246ZM224.435 203.469H233.118V194.786H224.435V203.469ZM224.435 194.692H233.118V186.009H224.435V194.692ZM224.435 185.916H233.118V177.233H224.435V185.916ZM215.669 361.445H224.341V352.762H215.669V361.445ZM215.669 352.669H224.341V343.986H215.669V352.669ZM215.669 343.892H224.341V335.228H215.669V343.892ZM215.669 335.115H224.341V326.432H215.669V335.115ZM215.669 326.339H224.341V317.659H215.669V326.339ZM215.669 317.562H224.341V308.879H215.669V317.562ZM215.669 308.785H224.341V300.091H215.669V308.785ZM215.669 300.009H224.341V291.326H215.669V300.009ZM215.669 291.232H224.341V282.553H215.669V291.232ZM215.669 282.459H224.341V273.776H215.669V282.459ZM215.669 273.682H224.341V264.999H215.669V273.682ZM215.669 264.906H224.341V256.223H215.669V264.906ZM215.669 256.129H224.341V247.446H215.669V256.129ZM215.669 247.352H224.341V238.669H215.669V247.352ZM215.669 238.576H224.341V229.893H215.669V238.576ZM215.669 229.818H224.341V221.116H215.669V229.818ZM215.669 221.041H224.341V212.339H215.669V221.041ZM215.669 212.25H224.341V203.563H215.669V212.25ZM215.669 203.473H224.341V194.786H215.669V203.473ZM215.669 194.681H224.341V186.009H215.669V194.681ZM215.669 185.905H224.341V177.233H215.669V185.905ZM206.892 361.434H215.564V352.762H206.881L206.892 361.434ZM206.892 352.658H215.564V343.986H206.881L206.892 352.658ZM206.892 343.881H215.564V335.228H206.881L206.892 343.881ZM206.892 335.104H215.564V326.432H206.881L206.892 335.104ZM206.892 326.328H215.564V317.659H206.881L206.892 326.328ZM206.892 317.551H215.564V308.879H206.881L206.892 317.551ZM206.892 308.774H215.564V300.091H206.881L206.892 308.774ZM206.892 299.998H215.564V291.326H206.881L206.892 299.998ZM206.892 291.221H215.564V282.553H206.881L206.892 291.221ZM206.892 282.448H215.564V273.776H206.881L206.892 282.448ZM206.892 273.671H215.564V264.999H206.881L206.892 273.671ZM206.892 264.895H215.564V256.223H206.881L206.892 264.895ZM206.892 256.118H215.564V247.446H206.881L206.892 256.118ZM206.892 247.341H215.564V238.669H206.881L206.892 247.341ZM206.892 238.565H215.564V229.893H206.881L206.892 238.565ZM206.892 229.788H215.564V221.116H206.881L206.892 229.788ZM206.892 221.011H215.564V212.339H206.881L206.892 221.011ZM206.892 212.235H215.564V203.563H206.881L206.892 212.235ZM206.892 203.458H215.564V194.786H206.881L206.892 203.458ZM206.892 194.681H215.564V186.009H206.881L206.892 194.681ZM206.892 185.905H215.564V177.233H206.881L206.892 185.905ZM198.101 361.445H206.788V352.762H198.101V361.445ZM198.101 352.669H206.788V343.986H198.101V352.669ZM198.101 343.892H206.788V335.228H198.101V343.892ZM198.101 335.115H206.788V326.432H198.101V335.115ZM198.101 326.339H206.788V317.659H198.101V326.339ZM198.101 317.562H206.788V308.879H198.101V317.562ZM198.101 308.785H206.788V300.091H198.101V308.785ZM198.101 300.009H206.788V291.326H198.101V300.009ZM198.101 291.232H206.788V282.553H198.101V291.232ZM198.101 282.459H206.788V273.776H198.101V282.459ZM198.101 273.682H206.788V264.999H198.101V273.682ZM198.101 264.906H206.788V256.223H198.101V264.906ZM198.101 256.129H206.788V247.446H198.101V256.129ZM198.101 247.352H206.788V238.669H198.101V247.352ZM198.101 238.576H206.788V229.893H198.101V238.576ZM198.101 229.818H206.788V221.116H198.101V229.818ZM198.101 221.041H206.788V212.339H198.101V221.041ZM198.101 212.25H206.788V203.563H198.101V212.25ZM198.101 203.473H206.788V194.786H198.101V203.473ZM198.101 194.681H206.788V186.009H198.101V194.681ZM198.101 185.905H206.788V177.233H198.101V185.905ZM189.324 361.434H198.011V352.762H189.328L189.324 361.434ZM189.324 352.658H198.011V343.986H189.328L189.324 352.658ZM189.324 343.881H198.011V335.228H189.328L189.324 343.881ZM189.324 335.104H198.011V326.432H189.328L189.324 335.104ZM189.324 326.328H198.011V317.659H189.328L189.324 326.328ZM189.324 317.551H198.011V308.879H189.328L189.324 317.551ZM189.324 308.774H198.011V300.091H189.328L189.324 308.774ZM189.324 299.998H198.011V291.326H189.328L189.324 299.998ZM189.324 291.221H198.011V282.553H189.328L189.324 291.221ZM189.324 282.448H198.011V273.776H189.328L189.324 282.448ZM189.324 273.671H198.011V264.999H189.328L189.324 273.671ZM189.324 264.895H198.011V256.223H189.328L189.324 264.895ZM189.324 256.118H198.011V247.446H189.328L189.324 256.118ZM189.324 247.341H198.011V238.669H189.328L189.324 247.341ZM189.324 238.565H198.011V229.893H189.328L189.324 238.565ZM189.324 229.788H198.011V221.116H189.328L189.324 229.788ZM189.324 221.011H198.011V212.339H189.328L189.324 221.011ZM189.324 212.235H198.011V203.563H189.328L189.324 212.235ZM189.324 203.458H198.011V194.786H189.328L189.324 203.458ZM189.324 194.681H198.011V186.009H189.328L189.324 194.681ZM189.324 185.905H198.011V177.233H189.328L189.324 185.905ZM180.533 361.445H189.234V352.762H180.533V361.445ZM180.533 352.669H189.234V343.986H180.533V352.669ZM180.533 343.892H189.234V335.228H180.533V343.892ZM180.533 335.115H189.234V326.432H180.533V335.115ZM180.533 326.339H189.234V317.659H180.533V326.339ZM180.533 317.562H189.234V308.879H180.533V317.562ZM180.533 308.785H189.234V300.091H180.533V308.785ZM180.533 300.009H189.234V291.326H180.533V300.009ZM180.533 291.232H189.234V282.553H180.533V291.232ZM180.533 282.459H189.234V273.776H180.533V282.459ZM180.533 273.682H189.234V264.999H180.533V273.682ZM180.533 264.906H189.234V256.223H180.533V264.906ZM180.533 256.129H189.234V247.446H180.533V256.129ZM180.533 247.352H189.234V238.669H180.533V247.352ZM180.533 238.576H189.234V229.893H180.533V238.576ZM180.533 229.818H189.234V221.116H180.533V229.818ZM180.533 221.041H189.234V212.339H180.533V221.041ZM180.533 212.25H189.234V203.563H180.533V212.25ZM180.533 203.473H189.234V194.786H180.533V203.473ZM180.533 194.681H189.234V186.009H180.533V194.681ZM180.533 185.905H189.234V177.233H180.533V185.905Z" fill="url(#paint0_radial_1508_1560)"/>
<path d="M344.386 246.618C365.081 267.295 365.097 300.83 344.425 321.525C323.753 342.221 290.221 342.238 269.527 321.564C248.832 300.89 215.3 300.907 194.628 321.603C173.956 342.299 173.973 375.842 194.664 396.518" stroke="#FFFFE0" stroke-width="0.25" stroke-miterlimit="10"/>
<defs>
<radialGradient id="paint0_radial_1508_1560" cx="0" cy="0" r="1" gradientUnits="userSpaceOnUse" gradientTransform="translate(272.658 269.339) rotate(180) scale(92.1998)">
<stop stop-color="#FFFFE0"/>
<stop offset="1" stop-color="#FFFFE0" stop-opacity="0"/>
</radialGradient>
</defs>
</svg>
