<svg width="299" height="305" viewBox="0 0 299 305" fill="none" xmlns="http://www.w3.org/2000/svg">
<path d="M199.257 184.376C202.175 184.376 204.54 182.01 204.54 179.092C204.54 176.174 202.175 173.809 199.257 173.809C196.339 173.809 193.973 176.174 193.973 179.092C193.973 182.01 196.339 184.376 199.257 184.376Z" fill="url(#paint0_radial_993_1611)"/>
<g opacity="0.5">
<path d="M123.824 152.792L121.33 154.179C121.661 154.363 122.109 154.467 122.577 154.467C123.045 154.467 123.493 154.363 123.824 154.179C124.154 153.995 124.34 153.746 124.34 153.486C124.34 153.226 124.154 152.976 123.824 152.792Z" fill="#E4585D"/>
<path d="M121.312 154.17L123.806 152.782C123.475 152.598 123.027 152.495 122.559 152.495C122.091 152.495 121.643 152.598 121.312 152.782C120.982 152.966 120.796 153.216 120.796 153.476C120.796 153.736 120.982 153.986 121.312 154.17Z" fill="#E4585D"/>
<path d="M169.444 141.487L166.95 142.875C167.114 142.966 167.308 143.038 167.522 143.087C167.736 143.137 167.965 143.162 168.197 143.162C168.428 143.162 168.658 143.137 168.872 143.087C169.086 143.038 169.28 142.966 169.444 142.875C169.607 142.784 169.737 142.675 169.826 142.556C169.915 142.437 169.96 142.31 169.96 142.181C169.96 142.052 169.915 141.925 169.826 141.806C169.737 141.687 169.607 141.578 169.444 141.487Z" fill="#E4585D"/>
<path d="M166.95 142.874L169.444 141.487C169.113 141.303 168.664 141.199 168.197 141.199C167.729 141.199 167.281 141.303 166.95 141.487C166.619 141.671 166.434 141.92 166.434 142.18C166.434 142.44 166.619 142.69 166.95 142.874Z" fill="#E4585D"/>
<path d="M106.584 144.745L104.09 146.132C104.421 146.316 104.869 146.42 105.337 146.42C105.805 146.42 106.253 146.316 106.584 146.132C106.915 145.949 107.1 145.699 107.1 145.439C107.1 145.179 106.915 144.929 106.584 144.745Z" fill="#E4585D"/>
<path d="M104.091 146.133L106.584 144.745C106.254 144.561 105.805 144.458 105.337 144.458C104.87 144.458 104.421 144.561 104.091 144.745C103.76 144.929 103.574 145.179 103.574 145.439C103.574 145.699 103.76 145.949 104.091 146.133Z" fill="#E4585D"/>
<path d="M213.167 175.109L210.674 176.497C210.838 176.588 211.032 176.66 211.246 176.709C211.46 176.759 211.689 176.784 211.921 176.784C212.152 176.784 212.381 176.759 212.595 176.709C212.809 176.66 213.004 176.588 213.167 176.497C213.331 176.406 213.461 176.298 213.55 176.178C213.638 176.059 213.684 175.932 213.684 175.803C213.684 175.674 213.638 175.547 213.55 175.428C213.461 175.309 213.331 175.2 213.167 175.109Z" fill="#E4585D"/>
<path d="M210.674 176.496L213.167 175.109C212.837 174.925 212.388 174.821 211.92 174.821C211.453 174.821 211.004 174.925 210.674 175.109C210.343 175.293 210.157 175.542 210.157 175.802C210.157 176.063 210.343 176.312 210.674 176.496Z" fill="#E4585D"/>
<path d="M163.454 171.899L160.96 173.287C161.291 173.471 161.739 173.574 162.207 173.574C162.674 173.574 163.123 173.471 163.454 173.287C163.784 173.103 163.97 172.853 163.97 172.593C163.97 172.333 163.784 172.083 163.454 171.899Z" fill="#E4585D"/>
<path d="M241.85 114.232H236.623V114.768H241.85V114.232Z" fill="#020305"/>
<path d="M241.85 120.964H236.623V121.5H241.85V120.964Z" fill="#020305"/>
<path d="M241.85 106.75H236.623V107.286H241.85V106.75Z" fill="#020305"/>
<path d="M241.85 104.73H236.623V105.266H241.85V104.73Z" fill="#020305"/>
<path d="M241.85 102.717H236.623V103.253H241.85V102.717Z" fill="#020305"/>
<path d="M241.85 97.2686H236.623V97.8044H241.85V97.2686Z" fill="#020305"/>
<path d="M241.85 95.2539H236.623V95.7897H241.85V95.2539Z" fill="#020305"/>
<path d="M241.85 91.5225H236.623V92.0583H241.85V91.5225Z" fill="#020305"/>
<path d="M241.85 135.104H236.623V135.64H241.85V135.104Z" fill="#020305"/>
<path d="M241.85 129.359H236.623V129.895H241.85V129.359Z" fill="#020305"/>
<path d="M241.85 127.345H236.623V127.881H241.85V127.345Z" fill="#020305"/>
<path d="M241.85 125.331H236.623V125.867H241.85V125.331Z" fill="#020305"/>
<path d="M254.456 88.6279H259.684V88.0921H254.456V88.6279Z" fill="#020305"/>
<path d="M254.456 121.208H259.684V120.672H254.456V121.208Z" fill="#020305"/>
<path d="M254.456 126.656H259.684V126.12H254.456V126.656Z" fill="#020305"/>
<path d="M254.456 128.671H259.684V128.135H254.456V128.671Z" fill="#020305"/>
<path d="M254.456 132.402H259.684V131.867H254.456V132.402Z" fill="#020305"/>
<path d="M254.456 90.6416H259.684V90.1058H254.456V90.6416Z" fill="#020305"/>
<path d="M254.456 96.4355H259.684V95.8997H254.456V96.4355Z" fill="#020305"/>
<path d="M254.456 98.4492H259.684V97.9134H254.456V98.4492Z" fill="#020305"/>
<path d="M254.456 103.898H259.684V103.363H254.456V103.898Z" fill="#020305"/>
<path d="M254.456 107.28H259.684V106.744H254.456V107.28Z" fill="#020305"/>
<path d="M254.456 111.362H259.684V110.826H254.456V111.362Z" fill="#020305"/>
<path d="M254.456 113.376H259.684V112.84H254.456V113.376Z" fill="#020305"/>
<path d="M254.456 115.39H259.684V114.854H254.456V115.39Z" fill="#020305"/>
<path d="M240.535 92.5068H245.763V91.971H240.535V92.5068Z" fill="#020305"/>
<path d="M240.535 94.5215H245.763V93.9857H240.535V94.5215Z" fill="#020305"/>
<path d="M240.535 99.9707H245.763V99.4349H240.535V99.9707Z" fill="#020305"/>
<path d="M240.535 116.246H245.763V115.71H240.535V116.246Z" fill="#020305"/>
</g>
<path d="M152.194 129.547C163.857 126.422 175.866 133.422 179.017 145.182C182.168 156.942 175.268 169.009 163.605 172.134C151.942 175.26 139.933 168.259 136.782 156.499C133.631 144.739 140.531 132.672 152.194 129.547Z" fill="url(#paint1_radial_993_1611)"/>
<path d="M185.535 108.584C190.566 108.584 194.645 104.506 194.645 99.4747C194.645 94.4437 190.566 90.3652 185.535 90.3652C180.504 90.3652 176.426 94.4437 176.426 99.4747C176.426 104.506 180.504 108.584 185.535 108.584Z" fill="url(#paint2_radial_993_1611)"/>
<path d="M245.902 160.326C248.82 160.326 251.185 157.96 251.185 155.042C251.185 152.124 248.82 149.759 245.902 149.759C242.984 149.759 240.618 152.124 240.618 155.042C240.618 157.96 242.984 160.326 245.902 160.326Z" fill="url(#paint3_radial_993_1611)"/>
<path opacity="0.5" d="M94.0713 0V204.052H298.123V0H94.0713ZM103.783 203.948H94.1747V194.34H103.783V203.948ZM103.783 194.236H94.1747V184.628H103.783V194.236ZM103.783 184.524H94.1747V174.936H103.783V184.524ZM103.783 174.812H94.1747V165.204H103.783V174.812ZM103.783 165.1H94.1747V155.496H103.783V165.1ZM103.783 155.388H94.1747V145.78H103.783V155.388ZM103.783 145.676H94.1747V136.055H103.783V145.676ZM103.783 135.964H94.1747V126.356H103.783V135.964ZM103.783 126.252H94.1747V116.648H103.783V126.252ZM103.783 116.544H94.1747V106.936H103.783V116.544ZM103.783 106.832H94.1747V97.2237H103.783V106.832ZM103.783 97.1203H94.1747V87.5117H103.783V97.1203ZM103.783 87.4083H94.1747V77.7996H103.783V87.4083ZM103.783 77.6962H94.1747V68.0876H103.783V77.6962ZM103.783 67.9842H94.1747V58.3756H103.783V67.9842ZM103.783 58.2722H94.1747V48.6636H103.783V58.2722ZM103.783 48.5601H94.1747V38.9515H103.783V48.5601ZM103.783 38.8481H94.1747V29.2395H103.783V38.8481ZM103.783 29.1361H94.1747V19.5275H103.783V29.1361ZM103.783 19.4241H94.1747V9.81544H103.783V19.4241ZM103.783 9.71203H94.1747V0.103407H103.783V9.71203ZM113.495 203.948H103.887V194.34H113.495V203.948ZM113.495 194.236H103.887V184.628H113.495V194.236ZM113.495 184.524H103.887V174.936H113.495V184.524ZM113.495 174.812H103.887V165.204H113.495V174.812ZM113.495 165.1H103.887V155.496H113.495V165.1ZM113.495 155.388H103.887V145.78H113.495V155.388ZM113.495 145.676H103.887V136.055H113.495V145.676ZM113.495 135.964H103.887V126.356H113.495V135.964ZM113.495 126.252H103.887V116.648H113.495V126.252ZM113.495 116.544H103.887V106.936H113.495V116.544ZM113.495 106.832H103.887V97.2237H113.495V106.832ZM113.495 97.1203H103.887V87.5117H113.495V97.1203ZM113.495 87.4083H103.887V77.7996H113.495V87.4083ZM113.495 77.6962H103.887V68.0876H113.495V77.6962ZM113.495 67.9842H103.887V58.3756H113.495V67.9842ZM113.495 58.2722H103.887V48.6636H113.495V58.2722ZM113.495 48.5601H103.887V38.9515H113.495V48.5601ZM113.495 38.8481H103.887V29.2395H113.495V38.8481ZM113.495 29.1361H103.887V19.5275H113.495V29.1361ZM113.495 19.4241H103.887V9.81544H113.495V19.4241ZM113.495 9.71203H103.887V0.103407H113.495V9.71203ZM123.207 203.948H113.599V194.34H123.207V203.948ZM123.207 194.236H113.599V184.628H123.207V194.236ZM123.207 184.524H113.599V174.936H123.207V184.524ZM123.207 174.812H113.599V165.204H123.207V174.812ZM123.207 165.1H113.599V155.496H123.207V165.1ZM123.207 155.388H113.599V145.78H123.207V155.388ZM123.207 145.676H113.599V136.055H123.207V145.676ZM123.207 135.964H113.599V126.356H123.207V135.964ZM123.207 126.252H113.599V116.648H123.207V126.252ZM123.207 116.544H113.599V106.936H123.207V116.544ZM123.207 106.832H113.599V97.2237H123.207V106.832ZM123.207 97.1203H113.599V87.5117H123.207V97.1203ZM123.207 87.4083H113.599V77.7996H123.207V87.4083ZM123.207 77.6962H113.599V68.0876H123.207V77.6962ZM123.207 67.9842H113.599V58.3756H123.207V67.9842ZM123.207 58.2722H113.599V48.6636H123.207V58.2722ZM123.207 48.5601H113.599V38.9515H123.207V48.5601ZM123.207 38.8481H113.599V29.2395H123.207V38.8481ZM123.207 29.1361H113.599V19.5275H123.207V29.1361ZM123.207 19.4241H113.599V9.81544H123.207V19.4241ZM123.207 9.71203H113.599V0.103407H123.207V9.71203ZM132.919 203.948H123.311V194.34H132.919V203.948ZM132.919 194.236H123.311V184.628H132.919V194.236ZM132.919 184.524H123.311V174.936H132.919V184.524ZM132.919 174.812H123.311V165.204H132.919V174.812ZM132.919 165.1H123.311V155.496H132.919V165.1ZM132.919 155.388H123.311V145.78H132.919V155.388ZM132.919 145.676H123.311V136.055H132.919V145.676ZM132.919 135.964H123.311V126.356H132.919V135.964ZM132.919 126.252H123.311V116.648H132.919V126.252ZM132.919 116.544H123.311V106.936H132.919V116.544ZM132.919 106.832H123.311V97.2237H132.919V106.832ZM132.919 97.1203H123.311V87.5117H132.919V97.1203ZM132.919 87.4083H123.311V77.7996H132.919V87.4083ZM132.919 77.6962H123.311V68.0876H132.919V77.6962ZM132.919 67.9842H123.311V58.3756H132.919V67.9842ZM132.919 58.2722H123.311V48.6636H132.919V58.2722ZM132.919 48.5601H123.311V38.9515H132.919V48.5601ZM132.919 38.8481H123.311V29.2395H132.919V38.8481ZM132.919 29.1361H123.311V19.5275H132.919V29.1361ZM132.919 19.4241H123.311V9.81544H132.919V19.4241ZM132.919 9.71203H123.311V0.103407H132.919V9.71203ZM142.631 203.948H133.023V194.34H142.631V203.948ZM142.631 194.236H133.023V184.628H142.631V194.236ZM142.631 184.524H133.023V174.936H142.631V184.524ZM142.631 174.812H133.023V165.204H142.631V174.812ZM142.631 165.1H133.023V155.496H142.631V165.1ZM142.631 155.388H133.023V145.78H142.631V155.388ZM142.631 145.676H133.023V136.055H142.631V145.676ZM142.631 135.964H133.023V126.356H142.631V135.964ZM142.631 126.252H133.023V116.648H142.631V126.252ZM142.631 116.544H133.023V106.936H142.631V116.544ZM142.631 106.832H133.023V97.2237H142.631V106.832ZM142.631 97.1203H133.023V87.5117H142.631V97.1203ZM142.631 87.4083H133.023V77.7996H142.631V87.4083ZM142.631 77.6962H133.023V68.0876H142.631V77.6962ZM142.631 67.9842H133.023V58.3756H142.631V67.9842ZM142.631 58.2722H133.023V48.6636H142.631V58.2722ZM142.631 48.5601H133.023V38.9515H142.631V48.5601ZM142.631 38.8481H133.023V29.2395H142.631V38.8481ZM142.631 29.1361H133.023V19.5275H142.631V29.1361ZM142.631 19.4241H133.023V9.81544H142.631V19.4241ZM142.631 9.71203H133.023V0.103407H142.631V9.71203ZM152.343 203.948H142.735V194.34H152.343V203.948ZM152.343 194.236H142.735V184.628H152.343V194.236ZM152.343 184.524H142.735V174.936H152.343V184.524ZM152.343 174.812H142.735V165.204H152.343V174.812ZM152.343 165.1H142.735V155.496H152.343V165.1ZM152.343 155.388H142.735V145.78H152.343V155.388ZM152.343 145.676H142.735V136.055H152.343V145.676ZM152.343 135.964H142.735V126.356H152.343V135.964ZM152.343 126.252H142.735V116.648H152.343V126.252ZM152.343 116.544H142.735V106.936H152.343V116.544ZM152.343 106.832H142.735V97.2237H152.343V106.832ZM152.343 97.1203H142.735V87.5117H152.343V97.1203ZM152.343 87.4083H142.735V77.7996H152.343V87.4083ZM152.343 77.6962H142.735V68.0876H152.343V77.6962ZM152.343 67.9842H142.735V58.3756H152.343V67.9842ZM152.343 58.2722H142.735V48.6636H152.343V58.2722ZM152.343 48.5601H142.735V38.9515H152.343V48.5601ZM152.343 38.8481H142.735V29.2395H152.343V38.8481ZM152.343 29.1361H142.735V19.5275H152.343V29.1361ZM152.343 19.4241H142.735V9.81544H152.343V19.4241ZM152.343 9.71203H142.735V0.103407H152.343V9.71203ZM162.055 203.948H152.443V194.34H162.051L162.055 203.948ZM162.055 194.236H152.443V184.628H162.051L162.055 194.236ZM162.055 184.524H152.443V174.936H162.051L162.055 184.524ZM162.055 174.812H152.443V165.204H162.051L162.055 174.812ZM162.055 165.1H152.443V155.496H162.051L162.055 165.1ZM162.055 155.388H152.443V145.78H162.051L162.055 155.388ZM162.055 145.676H152.443V136.055H162.051L162.055 145.676ZM162.055 135.964H152.443V126.356H162.051L162.055 135.964ZM162.055 126.252H152.443V116.648H162.051L162.055 126.252ZM162.055 116.544H152.443V106.936H162.051L162.055 116.544ZM162.055 106.832H152.443V97.2237H162.051L162.055 106.832ZM162.055 97.1203H152.443V87.5117H162.051L162.055 97.1203ZM162.055 87.4083H152.443V77.7996H162.051L162.055 87.4083ZM162.055 77.6962H152.443V68.0876H162.051L162.055 77.6962ZM162.055 67.9842H152.443V58.3756H162.051L162.055 67.9842ZM162.055 58.2722H152.443V48.6636H162.051L162.055 58.2722ZM162.055 48.5601H152.443V38.9515H162.051L162.055 48.5601ZM162.055 38.8481H152.443V29.2395H162.051L162.055 38.8481ZM162.055 29.1361H152.443V19.5275H162.051L162.055 29.1361ZM162.055 19.4241H152.443V9.81544H162.051L162.055 19.4241ZM162.055 9.71203H152.443V0.103407H162.051L162.055 9.71203ZM171.768 203.948H162.159V194.34H171.768V203.948ZM171.768 194.236H162.159V184.628H171.768V194.236ZM171.768 184.524H162.159V174.936H171.768V184.524ZM171.768 174.812H162.159V165.204H171.768V174.812ZM171.768 165.1H162.159V155.496H171.768V165.1ZM171.768 155.388H162.159V145.78H171.768V155.388ZM171.768 145.676H162.159V136.055H171.768V145.676ZM171.768 135.964H162.159V126.356H171.768V135.964ZM171.768 126.252H162.159V116.648H171.768V126.252ZM171.768 116.544H162.159V106.936H171.768V116.544ZM171.768 106.832H162.159V97.2237H171.768V106.832ZM171.768 97.1203H162.159V87.5117H171.768V97.1203ZM171.768 87.4083H162.159V77.7996H171.768V87.4083ZM171.768 77.6962H162.159V68.0876H171.768V77.6962ZM171.768 67.9842H162.159V58.3756H171.768V67.9842ZM171.768 58.2722H162.159V48.6636H171.768V58.2722ZM171.768 48.5601H162.159V38.9515H171.768V48.5601ZM171.768 38.8481H162.159V29.2395H171.768V38.8481ZM171.768 29.1361H162.159V19.5275H171.768V29.1361ZM171.768 19.4241H162.159V9.81544H171.768V19.4241ZM171.768 9.71203H162.159V0.103407H171.768V9.71203ZM181.475 203.948H171.883V194.34H181.488L181.475 203.948ZM181.475 194.236H171.883V184.628H181.488L181.475 194.236ZM181.475 184.524H171.883V174.936H181.488L181.475 184.524ZM181.475 174.812H171.883V165.204H181.488L181.475 174.812ZM181.475 165.1H171.883V155.496H181.488L181.475 165.1ZM181.475 155.388H171.883V145.78H181.488L181.475 155.388ZM181.475 145.676H171.883V136.055H181.488L181.475 145.676ZM181.475 135.964H171.883V126.356H181.488L181.475 135.964ZM181.475 126.252H171.883V116.648H181.488L181.475 126.252ZM181.475 116.544H171.883V106.936H181.488L181.475 116.544ZM181.475 106.832H171.883V97.2237H181.488L181.475 106.832ZM181.475 97.1203H171.883V87.5117H181.488L181.475 97.1203ZM181.475 87.4083H171.883V77.7996H181.488L181.475 87.4083ZM181.475 77.6962H171.883V68.0876H181.488L181.475 77.6962ZM181.475 67.9842H171.883V58.3756H181.488L181.475 67.9842ZM181.475 58.2722H171.883V48.6636H181.488L181.475 58.2722ZM181.475 48.5601H171.883V38.9515H181.488L181.475 48.5601ZM181.475 38.8481H171.883V29.2395H181.488L181.475 38.8481ZM181.475 29.1361H171.883V19.5275H181.488L181.475 29.1361ZM181.475 19.4241H171.883V9.81544H181.488L181.475 19.4241ZM181.475 9.71203H171.883V0.103407H181.488L181.475 9.71203ZM191.187 203.948H181.579V194.34H191.187V203.948ZM191.187 194.236H181.579V184.628H191.187V194.236ZM191.187 184.524H181.579V174.936H191.187V184.524ZM191.187 174.812H181.579V165.204H191.187V174.812ZM191.187 165.1H181.579V155.496H191.187V165.1ZM191.187 155.388H181.579V145.78H191.187V155.388ZM191.187 145.676H181.579V136.055H191.187V145.676ZM191.187 135.964H181.579V126.356H191.187V135.964ZM191.187 126.252H181.579V116.648H191.187V126.252ZM191.187 116.544H181.579V106.936H191.187V116.544ZM191.187 106.832H181.579V97.2237H191.187V106.832ZM191.187 97.1203H181.579V87.5117H191.187V97.1203ZM191.187 87.4083H181.579V77.7996H191.187V87.4083ZM191.187 77.6962H181.579V68.0876H191.187V77.6962ZM191.187 67.9842H181.579V58.3756H191.187V67.9842ZM191.187 58.2722H181.579V48.6636H191.187V58.2722ZM191.187 48.5601H181.579V38.9515H191.187V48.5601ZM191.187 38.8481H181.579V29.2395H191.187V38.8481ZM191.187 29.1361H181.579V19.5275H191.187V29.1361ZM191.187 19.4241H181.579V9.81544H191.187V19.4241ZM191.187 9.71203H181.579V0.103407H191.187V9.71203ZM200.899 203.948H191.291V194.34H200.899V203.948ZM200.899 194.236H191.291V184.628H200.899V194.236ZM200.899 184.524H191.291V174.936H200.899V184.524ZM200.899 174.812H191.291V165.204H200.899V174.812ZM200.899 165.1H191.291V155.496H200.899V165.1ZM200.899 155.388H191.291V145.78H200.899V155.388ZM200.899 145.676H191.291V136.055H200.899V145.676ZM200.899 135.964H191.291V126.356H200.899V135.964ZM200.899 126.252H191.291V116.648H200.899V126.252ZM200.899 116.544H191.291V106.936H200.899V116.544ZM200.899 106.832H191.291V97.2237H200.899V106.832ZM200.899 97.1203H191.291V87.5117H200.899V97.1203ZM200.899 87.4083H191.291V77.7996H200.899V87.4083ZM200.899 77.6962H191.291V68.0876H200.899V77.6962ZM200.899 67.9842H191.291V58.3756H200.899V67.9842ZM200.899 58.2722H191.291V48.6636H200.899V58.2722ZM200.899 48.5601H191.291V38.9515H200.899V48.5601ZM200.899 38.8481H191.291V29.2395H200.899V38.8481ZM200.899 29.1361H191.291V19.5275H200.899V29.1361ZM200.899 19.4241H191.291V9.81544H200.899V19.4241ZM200.899 9.71203H191.291V0.103407H200.899V9.71203ZM210.611 203.948H201.003V194.34H210.611V203.948ZM210.611 194.236H201.003V184.628H210.611V194.236ZM210.611 184.524H201.003V174.936H210.611V184.524ZM210.611 174.812H201.003V165.204H210.611V174.812ZM210.611 165.1H201.003V155.496H210.611V165.1ZM210.611 155.388H201.003V145.78H210.611V155.388ZM210.611 145.676H201.003V136.055H210.611V145.676ZM210.611 135.964H201.003V126.356H210.611V135.964ZM210.611 126.252H201.003V116.648H210.611V126.252ZM210.611 116.544H201.003V106.936H210.611V116.544ZM210.611 106.832H201.003V97.2237H210.611V106.832ZM210.611 97.1203H201.003V87.5117H210.611V97.1203ZM210.611 87.4083H201.003V77.7996H210.611V87.4083ZM210.611 77.6962H201.003V68.0876H210.611V77.6962ZM210.611 67.9842H201.003V58.3756H210.611V67.9842ZM210.611 58.2722H201.003V48.6636H210.611V58.2722ZM210.611 48.5601H201.003V38.9515H210.611V48.5601ZM210.611 38.8481H201.003V29.2395H210.611V38.8481ZM210.611 29.1361H201.003V19.5275H210.611V29.1361ZM210.611 19.4241H201.003V9.81544H210.611V19.4241ZM210.611 9.71203H201.003V0.103407H210.611V9.71203ZM220.324 203.948H210.715V194.34H220.324V203.948ZM220.324 194.236H210.715V184.628H220.324V194.236ZM220.324 184.524H210.715V174.936H220.324V184.524ZM220.324 174.812H210.715V165.204H220.324V174.812ZM220.324 165.1H210.715V155.496H220.324V165.1ZM220.324 155.388H210.715V145.78H220.324V155.388ZM220.324 145.676H210.715V136.055H220.324V145.676ZM220.324 135.964H210.715V126.356H220.324V135.964ZM220.324 126.252H210.715V116.648H220.324V126.252ZM220.324 116.544H210.715V106.936H220.324V116.544ZM220.324 106.832H210.715V97.2237H220.324V106.832ZM220.324 97.1203H210.715V87.5117H220.324V97.1203ZM220.324 87.4083H210.715V77.7996H220.324V87.4083ZM220.324 77.6962H210.715V68.0876H220.324V77.6962ZM220.324 67.9842H210.715V58.3756H220.324V67.9842ZM220.324 58.2722H210.715V48.6636H220.324V58.2722ZM220.324 48.5601H210.715V38.9515H220.324V48.5601ZM220.324 38.8481H210.715V29.2395H220.324V38.8481ZM220.324 29.1361H210.715V19.5275H220.324V29.1361ZM220.324 19.4241H210.715V9.81544H220.324V19.4241ZM220.324 9.71203H210.715V0.103407H220.324V9.71203ZM230.036 203.948H220.427V194.34H230.036V203.948ZM230.036 194.236H220.427V184.628H230.036V194.236ZM230.036 184.524H220.427V174.936H230.036V184.524ZM230.036 174.812H220.427V165.204H230.036V174.812ZM230.036 165.1H220.427V155.496H230.036V165.1ZM230.036 155.388H220.427V145.78H230.036V155.388ZM230.036 145.676H220.427V136.055H230.036V145.676ZM230.036 135.964H220.427V126.356H230.036V135.964ZM230.036 126.252H220.427V116.648H230.036V126.252ZM230.036 116.544H220.427V106.936H230.036V116.544ZM230.036 106.832H220.427V97.2237H230.036V106.832ZM230.036 97.1203H220.427V87.5117H230.036V97.1203ZM230.036 87.4083H220.427V77.7996H230.036V87.4083ZM230.036 77.6962H220.427V68.0876H230.036V77.6962ZM230.036 67.9842H220.427V58.3756H230.036V67.9842ZM230.036 58.2722H220.427V48.6636H230.036V58.2722ZM230.036 48.5601H220.427V38.9515H230.036V48.5601ZM230.036 38.8481H220.427V29.2395H230.036V38.8481ZM230.036 29.1361H220.427V19.5275H230.036V29.1361ZM230.036 19.4241H220.427V9.81544H230.036V19.4241ZM230.036 9.71203H220.427V0.103407H230.036V9.71203ZM239.748 203.948H230.139V194.34H239.748V203.948ZM239.748 194.236H230.139V184.628H239.748V194.236ZM239.748 184.524H230.139V174.936H239.748V184.524ZM239.748 174.812H230.139V165.204H239.748V174.812ZM239.748 165.1H230.139V155.496H239.748V165.1ZM239.748 155.388H230.139V145.78H239.748V155.388ZM239.748 145.676H230.139V136.055H239.748V145.676ZM239.748 135.964H230.139V126.356H239.748V135.964ZM239.748 126.252H230.139V116.648H239.748V126.252ZM239.748 116.544H230.139V106.936H239.748V116.544ZM239.748 106.832H230.139V97.2237H239.748V106.832ZM239.748 97.1203H230.139V87.5117H239.748V97.1203ZM239.748 87.4083H230.139V77.7996H239.748V87.4083ZM239.748 77.6962H230.139V68.0876H239.748V77.6962ZM239.748 67.9842H230.139V58.3756H239.748V67.9842ZM239.748 58.2722H230.139V48.6636H239.748V58.2722ZM239.748 48.5601H230.139V38.9515H239.748V48.5601ZM239.748 38.8481H230.139V29.2395H239.748V38.8481ZM239.748 29.1361H230.139V19.5275H239.748V29.1361ZM239.748 19.4241H230.139V9.81544H239.748V19.4241ZM239.748 9.71203H230.139V0.103407H239.748V9.71203ZM249.46 203.948H239.851V194.34H249.46V203.948ZM249.46 194.236H239.851V184.628H249.46V194.236ZM249.46 184.524H239.851V174.936H249.46V184.524ZM249.46 174.812H239.851V165.204H249.46V174.812ZM249.46 165.1H239.851V155.496H249.46V165.1ZM249.46 155.388H239.851V145.78H249.46V155.388ZM249.46 145.676H239.851V136.055H249.46V145.676ZM249.46 135.964H239.851V126.356H249.46V135.964ZM249.46 126.252H239.851V116.648H249.46V126.252ZM249.46 116.544H239.851V106.936H249.46V116.544ZM249.46 106.832H239.851V97.2237H249.46V106.832ZM249.46 97.1203H239.851V87.5117H249.46V97.1203ZM249.46 87.4083H239.851V77.7996H249.46V87.4083ZM249.46 77.6962H239.851V68.0876H249.46V77.6962ZM249.46 67.9842H239.851V58.3756H249.46V67.9842ZM249.46 58.2722H239.851V48.6636H249.46V58.2722ZM249.46 48.5601H239.851V38.9515H249.46V48.5601ZM249.46 38.8481H239.851V29.2395H249.46V38.8481ZM249.46 29.1361H239.851V19.5275H249.46V29.1361ZM249.46 19.4241H239.851V9.81544H249.46V19.4241ZM249.46 9.71203H239.851V0.103407H249.46V9.71203ZM259.159 203.948H249.563V194.34H259.159V203.948ZM259.159 194.236H249.563V184.628H259.159V194.236ZM259.159 184.524H249.563V174.936H259.159V184.524ZM259.159 174.812H249.563V165.204H259.159V174.812ZM259.159 165.1H249.563V155.496H259.159V165.1ZM259.159 155.388H249.563V145.78H259.159V155.388ZM259.159 145.676H249.563V136.055H259.159V145.676ZM259.159 135.964H249.563V126.356H259.159V135.964ZM259.159 126.252H249.563V116.648H259.159V126.252ZM259.159 116.544H249.563V106.936H259.159V116.544ZM259.159 106.832H249.563V97.2237H259.159V106.832ZM259.159 97.1203H249.563V87.5117H259.159V97.1203ZM259.159 87.4083H249.563V77.7996H259.159V87.4083ZM259.159 77.6962H249.563V68.0876H259.159V77.6962ZM259.159 67.9842H249.563V58.3756H259.159V67.9842ZM259.159 58.2929H249.563V48.6636H259.159V58.2929ZM259.159 48.5808H249.563V38.9515H259.159V48.5808ZM259.159 38.8522H249.563V29.2395H259.159V38.8522ZM259.159 29.1402H249.563V19.5275H259.159V29.1402ZM259.159 19.4116H249.563V9.81544H259.159V19.4116ZM259.159 9.69962H249.563V0.103407H259.159V9.69962ZM268.871 203.936H259.275V194.34H268.884L268.871 203.936ZM268.871 194.224H259.275V184.628H268.884L268.871 194.224ZM268.871 184.512H259.275V174.936H268.884L268.871 184.512ZM268.871 174.8H259.275V165.204H268.884L268.871 174.8ZM268.871 165.088H259.275V155.496H268.884L268.871 165.088ZM268.871 155.376H259.275V145.78H268.884L268.871 155.376ZM268.871 145.664H259.275V136.055H268.884L268.871 145.664ZM268.871 135.952H259.275V126.356H268.884L268.871 135.952ZM268.871 126.24H259.275V116.648H268.884L268.871 126.24ZM268.871 116.532H259.275V106.936H268.884L268.871 116.532ZM268.871 106.82H259.275V97.2237H268.884L268.871 106.82ZM268.871 97.1079H259.275V87.5117H268.884L268.871 97.1079ZM268.871 87.3958H259.275V77.7996H268.884L268.871 87.3958ZM268.871 77.6838H259.275V68.0876H268.884L268.871 77.6838ZM268.871 67.9718H259.275V58.3756H268.884L268.871 67.9718ZM268.871 58.2598H259.275V48.6636H268.884L268.871 58.2598ZM268.871 48.5477H259.275V38.9515H268.884L268.871 48.5477ZM268.871 38.8357H259.275V29.2395H268.884L268.871 38.8357ZM268.871 29.1237H259.275V19.5275H268.884L268.871 29.1237ZM268.871 19.4116H259.275V9.81544H268.884L268.871 19.4116ZM268.871 9.69962H259.275V0.103407H268.884L268.871 9.69962ZM278.6 203.948H268.987V194.34H278.6V203.948ZM278.6 194.236H268.987V184.628H278.6V194.236ZM278.6 184.524H268.987V174.936H278.6V184.524ZM278.6 174.812H268.987V165.204H278.6V174.812ZM278.6 165.1H268.987V155.496H278.6V165.1ZM278.6 155.388H268.987V145.78H278.6V155.388ZM278.6 145.676H268.987V136.055H278.6V145.676ZM278.6 135.964H268.987V126.356H278.6V135.964ZM278.6 126.252H268.987V116.648H278.6V126.252ZM278.6 116.544H268.987V106.936H278.6V116.544ZM278.6 106.832H268.987V97.2237H278.6V106.832ZM278.6 97.1203H268.987V87.5117H278.6V97.1203ZM278.6 87.4083H268.987V77.7996H278.6V87.4083ZM278.6 77.6962H268.987V68.0876H278.6V77.6962ZM278.6 67.9842H268.987V58.3756H278.6V67.9842ZM278.6 58.2929H268.987V48.6636H278.6V58.2929ZM278.6 48.5808H268.987V38.9515H278.6V48.5808ZM278.6 38.8522H268.987V29.2395H278.6V38.8522ZM278.6 29.1402H268.987V19.5275H278.6V29.1402ZM278.6 19.4116H268.987V9.81544H278.6V19.4116ZM278.6 9.69962H268.987V0.103407H278.6V9.69962ZM288.312 203.936H278.699V194.34H288.308L288.312 203.936ZM288.312 194.224H278.699V184.628H288.308L288.312 194.224ZM288.312 184.512H278.699V174.936H288.308L288.312 184.512ZM288.312 174.8H278.699V165.204H288.308L288.312 174.8ZM288.312 165.088H278.699V155.496H288.308L288.312 165.088ZM288.312 155.376H278.699V145.78H288.308L288.312 155.376ZM288.312 145.664H278.699V136.055H288.308L288.312 145.664ZM288.312 135.952H278.699V126.356H288.308L288.312 135.952ZM288.312 126.24H278.699V116.648H288.308L288.312 126.24ZM288.312 116.532H278.699V106.936H288.308L288.312 116.532ZM288.312 106.82H278.699V97.2237H288.308L288.312 106.82ZM288.312 97.1079H278.699V87.5117H288.308L288.312 97.1079ZM288.312 87.3958H278.699V77.7996H288.308L288.312 87.3958ZM288.312 77.6838H278.699V68.0876H288.308L288.312 77.6838ZM288.312 67.9718H278.699V58.3756H288.308L288.312 67.9718ZM288.312 58.2598H278.699V48.6636H288.308L288.312 58.2598ZM288.312 48.5477H278.699V38.9515H288.308L288.312 48.5477ZM288.312 38.8357H278.699V29.2395H288.308L288.312 38.8357ZM288.312 29.1237H278.699V19.5275H288.308L288.312 29.1237ZM288.312 19.4116H278.699V9.81544H288.308L288.312 19.4116ZM288.312 9.69962H278.699V0.103407H288.308L288.312 9.69962ZM298.04 203.948H288.411V194.34H298.04V203.948ZM298.04 194.236H288.411V184.628H298.04V194.236ZM298.04 184.524H288.411V174.936H298.04V184.524ZM298.04 174.812H288.411V165.204H298.04V174.812ZM298.04 165.1H288.411V155.496H298.04V165.1ZM298.04 155.388H288.411V145.78H298.04V155.388ZM298.04 145.676H288.411V136.055H298.04V145.676ZM298.04 135.964H288.411V126.356H298.04V135.964ZM298.04 126.252H288.411V116.648H298.04V126.252ZM298.04 116.544H288.411V106.936H298.04V116.544ZM298.04 106.832H288.411V97.2237H298.04V106.832ZM298.04 97.1203H288.411V87.5117H298.04V97.1203ZM298.04 87.4083H288.411V77.7996H298.04V87.4083ZM298.04 77.6962H288.411V68.0876H298.04V77.6962ZM298.04 67.9842H288.411V58.3756H298.04V67.9842ZM298.04 58.2929H288.411V48.6636H298.04V58.2929ZM298.04 48.5808H288.411V38.9515H298.04V48.5808ZM298.04 38.8522H288.411V29.2395H298.04V38.8522ZM298.04 29.1402H288.411V19.5275H298.04V29.1402ZM298.04 19.4116H288.411V9.81544H298.04V19.4116ZM298.04 9.69962H288.411V0.103407H298.04V9.69962Z" fill="url(#paint4_radial_993_1611)"/>
<g filter="url(#filter0_d_993_1611)">
<path d="M266.028 152.446C269.996 187.174 245.065 218.543 210.34 222.516C175.615 226.489 144.249 201.56 140.278 166.835C136.308 132.109 104.942 107.18 70.217 111.153C35.492 115.127 10.5546 146.503 14.5204 181.229" stroke="#FFFFE0" stroke-width="0.25" stroke-miterlimit="10" shape-rendering="crispEdges"/>
</g>
<defs>
<filter id="filter0_d_993_1611" x="0.980957" y="97.6123" width="278.587" height="138.444" filterUnits="userSpaceOnUse" color-interpolation-filters="sRGB">
<feFlood flood-opacity="0" result="BackgroundImageFix"/>
<feColorMatrix in="SourceAlpha" type="matrix" values="0 0 0 0 0 0 0 0 0 0 0 0 0 0 0 0 0 0 127 0" result="hardAlpha"/>
<feOffset/>
<feGaussianBlur stdDeviation="6.5"/>
<feComposite in2="hardAlpha" operator="out"/>
<feColorMatrix type="matrix" values="0 0 0 0 1 0 0 0 0 1 0 0 0 0 1 0 0 0 1 0"/>
<feBlend mode="normal" in2="BackgroundImageFix" result="effect1_dropShadow_993_1611"/>
<feBlend mode="normal" in="SourceGraphic" in2="effect1_dropShadow_993_1611" result="shape"/>
</filter>
<radialGradient id="paint0_radial_993_1611" cx="0" cy="0" r="1" gradientUnits="userSpaceOnUse" gradientTransform="translate(202.167 176.099) rotate(45) scale(8.25295)">
<stop stop-color="#34D399"/>
<stop offset="1" stop-color="#AAFF00"/>
</radialGradient>
<radialGradient id="paint1_radial_993_1611" cx="0" cy="0" r="1" gradientUnits="userSpaceOnUse" gradientTransform="translate(172.762 159.787) rotate(-60.2377) scale(34.2927 34.2915)">
<stop stop-color="#34D399"/>
<stop offset="1" stop-color="#AAFF00"/>
</radialGradient>
<radialGradient id="paint2_radial_993_1611" cx="0" cy="0" r="1" gradientUnits="userSpaceOnUse" gradientTransform="translate(185.535 99.4747) rotate(90) scale(9.10946)">
<stop stop-color="#34D399"/>
<stop offset="1" stop-color="#AAFF00"/>
</radialGradient>
<radialGradient id="paint3_radial_993_1611" cx="0" cy="0" r="1" gradientUnits="userSpaceOnUse" gradientTransform="translate(248.812 152.049) rotate(45) scale(8.25295)">
<stop stop-color="#34D399"/>
<stop offset="1" stop-color="#AAFF00"/>
</radialGradient>
<radialGradient id="paint4_radial_993_1611" cx="0" cy="0" r="1" gradientUnits="userSpaceOnUse" gradientTransform="translate(196.097 102.026) scale(102.026)">
<stop stop-color="#FFFFE0"/>
<stop offset="1" stop-color="#FFFFE0" stop-opacity="0"/>
</radialGradient>
</defs>
</svg>
