<svg width="256" height="305" viewBox="0 0 256 305" fill="none" xmlns="http://www.w3.org/2000/svg">
<g opacity="0.5">
<path d="M123.846 153.582L121.353 154.969C121.683 155.153 122.132 155.257 122.599 155.257C123.067 155.257 123.515 155.153 123.846 154.969C124.177 154.785 124.363 154.536 124.363 154.276C124.363 154.016 124.177 153.766 123.846 153.582Z" fill="#E4585D"/>
<path d="M121.335 154.96L123.828 153.572C123.498 153.389 123.049 153.285 122.582 153.285C122.114 153.285 121.665 153.389 121.335 153.572C121.004 153.756 120.818 154.006 120.818 154.266C120.818 154.526 121.004 154.776 121.335 154.96Z" fill="#E4585D"/>
<path d="M169.466 142.277L166.973 143.665C167.136 143.756 167.331 143.828 167.545 143.877C167.759 143.927 167.988 143.952 168.219 143.952C168.451 143.952 168.68 143.927 168.894 143.877C169.108 143.828 169.302 143.756 169.466 143.665C169.63 143.574 169.76 143.465 169.848 143.346C169.937 143.227 169.983 143.1 169.983 142.971C169.983 142.842 169.937 142.715 169.848 142.596C169.76 142.477 169.63 142.368 169.466 142.277Z" fill="#E4585D"/>
<path d="M166.973 143.664L169.466 142.277C169.135 142.093 168.687 141.989 168.219 141.989C167.752 141.989 167.303 142.093 166.973 142.277C166.642 142.461 166.456 142.71 166.456 142.97C166.456 143.23 166.642 143.48 166.973 143.664Z" fill="#E4585D"/>
<path d="M106.606 145.535L104.113 146.923C104.443 147.107 104.892 147.21 105.36 147.21C105.827 147.21 106.276 147.107 106.606 146.923C106.937 146.739 107.123 146.489 107.123 146.229C107.123 145.969 106.937 145.719 106.606 145.535Z" fill="#E4585D"/>
<path d="M104.113 146.923L106.607 145.535C106.276 145.351 105.828 145.248 105.36 145.248C104.892 145.248 104.444 145.351 104.113 145.535C103.782 145.719 103.597 145.969 103.597 146.229C103.597 146.489 103.782 146.739 104.113 146.923Z" fill="#E4585D"/>
<path d="M213.19 175.899L210.696 177.287C210.86 177.378 211.054 177.45 211.268 177.499C211.482 177.549 211.712 177.574 211.943 177.574C212.175 177.574 212.404 177.549 212.618 177.499C212.832 177.45 213.026 177.378 213.19 177.287C213.354 177.196 213.483 177.088 213.572 176.969C213.661 176.85 213.706 176.722 213.706 176.593C213.706 176.464 213.661 176.337 213.572 176.218C213.483 176.099 213.354 175.991 213.19 175.899Z" fill="#E4585D"/>
<path d="M210.696 177.286L213.19 175.899C212.859 175.715 212.411 175.611 211.943 175.611C211.475 175.611 211.027 175.715 210.696 175.899C210.365 176.083 210.18 176.332 210.18 176.592C210.18 176.853 210.365 177.102 210.696 177.286Z" fill="#E4585D"/>
<path d="M163.476 172.689L160.982 174.077C161.313 174.261 161.762 174.364 162.229 174.364C162.697 174.364 163.145 174.261 163.476 174.077C163.807 173.893 163.992 173.643 163.992 173.383C163.992 173.123 163.807 172.873 163.476 172.689Z" fill="#E4585D"/>
<path d="M241.873 115.022H236.645V115.558H241.873V115.022Z" fill="#020305"/>
<path d="M241.873 121.754H236.645V122.29H241.873V121.754Z" fill="#020305"/>
<path d="M241.873 107.54H236.645V108.076H241.873V107.54Z" fill="#020305"/>
<path d="M241.873 105.521H236.645V106.056H241.873V105.521Z" fill="#020305"/>
<path d="M241.873 103.507H236.645V104.043H241.873V103.507Z" fill="#020305"/>
<path d="M241.873 98.0586H236.645V98.5944H241.873V98.0586Z" fill="#020305"/>
<path d="M241.873 96.0439H236.645V96.5798H241.873V96.0439Z" fill="#020305"/>
<path d="M241.873 92.3125H236.645V92.8483H241.873V92.3125Z" fill="#020305"/>
<path d="M241.873 135.895H236.645V136.43H241.873V135.895Z" fill="#020305"/>
<path d="M241.873 130.149H236.645V130.685H241.873V130.149Z" fill="#020305"/>
<path d="M241.873 128.135H236.645V128.671H241.873V128.135Z" fill="#020305"/>
<path d="M241.873 126.121H236.645V126.657H241.873V126.121Z" fill="#020305"/>
<path d="M254.479 89.418H259.707V88.8822H254.479V89.418Z" fill="#020305"/>
<path d="M254.479 121.998H259.707V121.462H254.479V121.998Z" fill="#020305"/>
<path d="M254.479 127.445H259.707V126.91H254.479V127.445Z" fill="#020305"/>
<path d="M254.479 129.461H259.707V128.925H254.479V129.461Z" fill="#020305"/>
<path d="M254.479 133.192H259.707V132.657H254.479V133.192Z" fill="#020305"/>
<path d="M254.479 91.4316H259.707V90.8958H254.479V91.4316Z" fill="#020305"/>
<path d="M254.479 97.2256H259.707V96.6898H254.479V97.2256Z" fill="#020305"/>
<path d="M254.479 99.2393H259.707V98.7034H254.479V99.2393Z" fill="#020305"/>
<path d="M254.479 104.688H259.707V104.153H254.479V104.688Z" fill="#020305"/>
<path d="M254.479 108.07H259.707V107.535H254.479V108.07Z" fill="#020305"/>
<path d="M254.479 112.152H259.707V111.617H254.479V112.152Z" fill="#020305"/>
<path d="M254.479 114.166H259.707V113.63H254.479V114.166Z" fill="#020305"/>
<path d="M254.479 116.18H259.707V115.644H254.479V116.18Z" fill="#020305"/>
<path d="M240.557 93.2969H245.785V92.761H240.557V93.2969Z" fill="#020305"/>
<path d="M240.557 95.3115H245.785V94.7757H240.557V95.3115Z" fill="#020305"/>
<path d="M240.557 100.761H245.785V100.225H240.557V100.761Z" fill="#020305"/>
<path d="M240.557 117.036H245.785V116.5H240.557V117.036Z" fill="#020305"/>
</g>
<path opacity="0.5" d="M94.0938 0.790039V204.842H298.146V0.790039H94.0938ZM103.806 204.738H94.1972V195.13H103.806V204.738ZM103.806 195.026H94.1972V185.418H103.806V195.026ZM103.806 185.314H94.1972V175.727H103.806V185.314ZM103.806 175.602H94.1972V165.994H103.806V175.602ZM103.806 165.89H94.1972V156.286H103.806V165.89ZM103.806 156.178H94.1972V146.57H103.806V156.178ZM103.806 146.466H94.1972V136.845H103.806V146.466ZM103.806 136.754H94.1972V127.146H103.806V136.754ZM103.806 127.042H94.1972V117.438H103.806V127.042ZM103.806 117.334H94.1972V107.726H103.806V117.334ZM103.806 107.622H94.1972V98.0137H103.806V107.622ZM103.806 97.9103H94.1972V88.3017H103.806V97.9103ZM103.806 88.1983H94.1972V78.5897H103.806V88.1983ZM103.806 78.4863H94.1972V68.8776H103.806V78.4863ZM103.806 68.7742H94.1972V59.1656H103.806V68.7742ZM103.806 59.0622H94.1972V49.4536H103.806V59.0622ZM103.806 49.3502H94.1972V39.7416H103.806V49.3502ZM103.806 39.6382H94.1972V30.0295H103.806V39.6382ZM103.806 29.9261H94.1972V20.3175H103.806V29.9261ZM103.806 20.2141H94.1972V10.6055H103.806V20.2141ZM103.806 10.5021H94.1972V0.893447H103.806V10.5021ZM113.518 204.738H103.909V195.13H113.518V204.738ZM113.518 195.026H103.909V185.418H113.518V195.026ZM113.518 185.314H103.909V175.727H113.518V185.314ZM113.518 175.602H103.909V165.994H113.518V175.602ZM113.518 165.89H103.909V156.286H113.518V165.89ZM113.518 156.178H103.909V146.57H113.518V156.178ZM113.518 146.466H103.909V136.845H113.518V146.466ZM113.518 136.754H103.909V127.146H113.518V136.754ZM113.518 127.042H103.909V117.438H113.518V127.042ZM113.518 117.334H103.909V107.726H113.518V117.334ZM113.518 107.622H103.909V98.0137H113.518V107.622ZM113.518 97.9103H103.909V88.3017H113.518V97.9103ZM113.518 88.1983H103.909V78.5897H113.518V88.1983ZM113.518 78.4863H103.909V68.8776H113.518V78.4863ZM113.518 68.7742H103.909V59.1656H113.518V68.7742ZM113.518 59.0622H103.909V49.4536H113.518V59.0622ZM113.518 49.3502H103.909V39.7416H113.518V49.3502ZM113.518 39.6382H103.909V30.0295H113.518V39.6382ZM113.518 29.9261H103.909V20.3175H113.518V29.9261ZM113.518 20.2141H103.909V10.6055H113.518V20.2141ZM113.518 10.5021H103.909V0.893447H113.518V10.5021ZM123.23 204.738H113.621V195.13H123.23V204.738ZM123.23 195.026H113.621V185.418H123.23V195.026ZM123.23 185.314H113.621V175.727H123.23V185.314ZM123.23 175.602H113.621V165.994H123.23V175.602ZM123.23 165.89H113.621V156.286H123.23V165.89ZM123.23 156.178H113.621V146.57H123.23V156.178ZM123.23 146.466H113.621V136.845H123.23V146.466ZM123.23 136.754H113.621V127.146H123.23V136.754ZM123.23 127.042H113.621V117.438H123.23V127.042ZM123.23 117.334H113.621V107.726H123.23V117.334ZM123.23 107.622H113.621V98.0137H123.23V107.622ZM123.23 97.9103H113.621V88.3017H123.23V97.9103ZM123.23 88.1983H113.621V78.5897H123.23V88.1983ZM123.23 78.4863H113.621V68.8776H123.23V78.4863ZM123.23 68.7742H113.621V59.1656H123.23V68.7742ZM123.23 59.0622H113.621V49.4536H123.23V59.0622ZM123.23 49.3502H113.621V39.7416H123.23V49.3502ZM123.23 39.6382H113.621V30.0295H123.23V39.6382ZM123.23 29.9261H113.621V20.3175H123.23V29.9261ZM123.23 20.2141H113.621V10.6055H123.23V20.2141ZM123.23 10.5021H113.621V0.893447H123.23V10.5021ZM132.942 204.738H123.333V195.13H132.942V204.738ZM132.942 195.026H123.333V185.418H132.942V195.026ZM132.942 185.314H123.333V175.727H132.942V185.314ZM132.942 175.602H123.333V165.994H132.942V175.602ZM132.942 165.89H123.333V156.286H132.942V165.89ZM132.942 156.178H123.333V146.57H132.942V156.178ZM132.942 146.466H123.333V136.845H132.942V146.466ZM132.942 136.754H123.333V127.146H132.942V136.754ZM132.942 127.042H123.333V117.438H132.942V127.042ZM132.942 117.334H123.333V107.726H132.942V117.334ZM132.942 107.622H123.333V98.0137H132.942V107.622ZM132.942 97.9103H123.333V88.3017H132.942V97.9103ZM132.942 88.1983H123.333V78.5897H132.942V88.1983ZM132.942 78.4863H123.333V68.8776H132.942V78.4863ZM132.942 68.7742H123.333V59.1656H132.942V68.7742ZM132.942 59.0622H123.333V49.4536H132.942V59.0622ZM132.942 49.3502H123.333V39.7416H132.942V49.3502ZM132.942 39.6382H123.333V30.0295H132.942V39.6382ZM132.942 29.9261H123.333V20.3175H132.942V29.9261ZM132.942 20.2141H123.333V10.6055H132.942V20.2141ZM132.942 10.5021H123.333V0.893447H132.942V10.5021ZM142.654 204.738H133.045V195.13H142.654V204.738ZM142.654 195.026H133.045V185.418H142.654V195.026ZM142.654 185.314H133.045V175.727H142.654V185.314ZM142.654 175.602H133.045V165.994H142.654V175.602ZM142.654 165.89H133.045V156.286H142.654V165.89ZM142.654 156.178H133.045V146.57H142.654V156.178ZM142.654 146.466H133.045V136.845H142.654V146.466ZM142.654 136.754H133.045V127.146H142.654V136.754ZM142.654 127.042H133.045V117.438H142.654V127.042ZM142.654 117.334H133.045V107.726H142.654V117.334ZM142.654 107.622H133.045V98.0137H142.654V107.622ZM142.654 97.9103H133.045V88.3017H142.654V97.9103ZM142.654 88.1983H133.045V78.5897H142.654V88.1983ZM142.654 78.4863H133.045V68.8776H142.654V78.4863ZM142.654 68.7742H133.045V59.1656H142.654V68.7742ZM142.654 59.0622H133.045V49.4536H142.654V59.0622ZM142.654 49.3502H133.045V39.7416H142.654V49.3502ZM142.654 39.6382H133.045V30.0295H142.654V39.6382ZM142.654 29.9261H133.045V20.3175H142.654V29.9261ZM142.654 20.2141H133.045V10.6055H142.654V20.2141ZM142.654 10.5021H133.045V0.893447H142.654V10.5021ZM152.366 204.738H142.757V195.13H152.366V204.738ZM152.366 195.026H142.757V185.418H152.366V195.026ZM152.366 185.314H142.757V175.727H152.366V185.314ZM152.366 175.602H142.757V165.994H152.366V175.602ZM152.366 165.89H142.757V156.286H152.366V165.89ZM152.366 156.178H142.757V146.57H152.366V156.178ZM152.366 146.466H142.757V136.845H152.366V146.466ZM152.366 136.754H142.757V127.146H152.366V136.754ZM152.366 127.042H142.757V117.438H152.366V127.042ZM152.366 117.334H142.757V107.726H152.366V117.334ZM152.366 107.622H142.757V98.0137H152.366V107.622ZM152.366 97.9103H142.757V88.3017H152.366V97.9103ZM152.366 88.1983H142.757V78.5897H152.366V88.1983ZM152.366 78.4863H142.757V68.8776H152.366V78.4863ZM152.366 68.7742H142.757V59.1656H152.366V68.7742ZM152.366 59.0622H142.757V49.4536H152.366V59.0622ZM152.366 49.3502H142.757V39.7416H152.366V49.3502ZM152.366 39.6382H142.757V30.0295H152.366V39.6382ZM152.366 29.9261H142.757V20.3175H152.366V29.9261ZM152.366 20.2141H142.757V10.6055H152.366V20.2141ZM152.366 10.5021H142.757V0.893447H152.366V10.5021ZM162.078 204.738H152.465V195.13H162.074L162.078 204.738ZM162.078 195.026H152.465V185.418H162.074L162.078 195.026ZM162.078 185.314H152.465V175.727H162.074L162.078 185.314ZM162.078 175.602H152.465V165.994H162.074L162.078 175.602ZM162.078 165.89H152.465V156.286H162.074L162.078 165.89ZM162.078 156.178H152.465V146.57H162.074L162.078 156.178ZM162.078 146.466H152.465V136.845H162.074L162.078 146.466ZM162.078 136.754H152.465V127.146H162.074L162.078 136.754ZM162.078 127.042H152.465V117.438H162.074L162.078 127.042ZM162.078 117.334H152.465V107.726H162.074L162.078 117.334ZM162.078 107.622H152.465V98.0137H162.074L162.078 107.622ZM162.078 97.9103H152.465V88.3017H162.074L162.078 97.9103ZM162.078 88.1983H152.465V78.5897H162.074L162.078 88.1983ZM162.078 78.4863H152.465V68.8776H162.074L162.078 78.4863ZM162.078 68.7742H152.465V59.1656H162.074L162.078 68.7742ZM162.078 59.0622H152.465V49.4536H162.074L162.078 59.0622ZM162.078 49.3502H152.465V39.7416H162.074L162.078 49.3502ZM162.078 39.6382H152.465V30.0295H162.074L162.078 39.6382ZM162.078 29.9261H152.465V20.3175H162.074L162.078 29.9261ZM162.078 20.2141H152.465V10.6055H162.074L162.078 20.2141ZM162.078 10.5021H152.465V0.893447H162.074L162.078 10.5021ZM171.79 204.738H162.181V195.13H171.79V204.738ZM171.79 195.026H162.181V185.418H171.79V195.026ZM171.79 185.314H162.181V175.727H171.79V185.314ZM171.79 175.602H162.181V165.994H171.79V175.602ZM171.79 165.89H162.181V156.286H171.79V165.89ZM171.79 156.178H162.181V146.57H171.79V156.178ZM171.79 146.466H162.181V136.845H171.79V146.466ZM171.79 136.754H162.181V127.146H171.79V136.754ZM171.79 127.042H162.181V117.438H171.79V127.042ZM171.79 117.334H162.181V107.726H171.79V117.334ZM171.79 107.622H162.181V98.0137H171.79V107.622ZM171.79 97.9103H162.181V88.3017H171.79V97.9103ZM171.79 88.1983H162.181V78.5897H171.79V88.1983ZM171.79 78.4863H162.181V68.8776H171.79V78.4863ZM171.79 68.7742H162.181V59.1656H171.79V68.7742ZM171.79 59.0622H162.181V49.4536H171.79V59.0622ZM171.79 49.3502H162.181V39.7416H171.79V49.3502ZM171.79 39.6382H162.181V30.0295H171.79V39.6382ZM171.79 29.9261H162.181V20.3175H171.79V29.9261ZM171.79 20.2141H162.181V10.6055H171.79V20.2141ZM171.79 10.5021H162.181V0.893447H171.79V10.5021ZM181.498 204.738H171.906V195.13H181.51L181.498 204.738ZM181.498 195.026H171.906V185.418H181.51L181.498 195.026ZM181.498 185.314H171.906V175.727H181.51L181.498 185.314ZM181.498 175.602H171.906V165.994H181.51L181.498 175.602ZM181.498 165.89H171.906V156.286H181.51L181.498 165.89ZM181.498 156.178H171.906V146.57H181.51L181.498 156.178ZM181.498 146.466H171.906V136.845H181.51L181.498 146.466ZM181.498 136.754H171.906V127.146H181.51L181.498 136.754ZM181.498 127.042H171.906V117.438H181.51L181.498 127.042ZM181.498 117.334H171.906V107.726H181.51L181.498 117.334ZM181.498 107.622H171.906V98.0137H181.51L181.498 107.622ZM181.498 97.9103H171.906V88.3017H181.51L181.498 97.9103ZM181.498 88.1983H171.906V78.5897H181.51L181.498 88.1983ZM181.498 78.4863H171.906V68.8776H181.51L181.498 78.4863ZM181.498 68.7742H171.906V59.1656H181.51L181.498 68.7742ZM181.498 59.0622H171.906V49.4536H181.51L181.498 59.0622ZM181.498 49.3502H171.906V39.7416H181.51L181.498 49.3502ZM181.498 39.6382H171.906V30.0295H181.51L181.498 39.6382ZM181.498 29.9261H171.906V20.3175H181.51L181.498 29.9261ZM181.498 20.2141H171.906V10.6055H181.51L181.498 20.2141ZM181.498 10.5021H171.906V0.893447H181.51L181.498 10.5021ZM191.21 204.738H181.601V195.13H191.21V204.738ZM191.21 195.026H181.601V185.418H191.21V195.026ZM191.21 185.314H181.601V175.727H191.21V185.314ZM191.21 175.602H181.601V165.994H191.21V175.602ZM191.21 165.89H181.601V156.286H191.21V165.89ZM191.21 156.178H181.601V146.57H191.21V156.178ZM191.21 146.466H181.601V136.845H191.21V146.466ZM191.21 136.754H181.601V127.146H191.21V136.754ZM191.21 127.042H181.601V117.438H191.21V127.042ZM191.21 117.334H181.601V107.726H191.21V117.334ZM191.21 107.622H181.601V98.0137H191.21V107.622ZM191.21 97.9103H181.601V88.3017H191.21V97.9103ZM191.21 88.1983H181.601V78.5897H191.21V88.1983ZM191.21 78.4863H181.601V68.8776H191.21V78.4863ZM191.21 68.7742H181.601V59.1656H191.21V68.7742ZM191.21 59.0622H181.601V49.4536H191.21V59.0622ZM191.21 49.3502H181.601V39.7416H191.21V49.3502ZM191.21 39.6382H181.601V30.0295H191.21V39.6382ZM191.21 29.9261H181.601V20.3175H191.21V29.9261ZM191.21 20.2141H181.601V10.6055H191.21V20.2141ZM191.21 10.5021H181.601V0.893447H191.21V10.5021ZM200.922 204.738H191.313V195.13H200.922V204.738ZM200.922 195.026H191.313V185.418H200.922V195.026ZM200.922 185.314H191.313V175.727H200.922V185.314ZM200.922 175.602H191.313V165.994H200.922V175.602ZM200.922 165.89H191.313V156.286H200.922V165.89ZM200.922 156.178H191.313V146.57H200.922V156.178ZM200.922 146.466H191.313V136.845H200.922V146.466ZM200.922 136.754H191.313V127.146H200.922V136.754ZM200.922 127.042H191.313V117.438H200.922V127.042ZM200.922 117.334H191.313V107.726H200.922V117.334ZM200.922 107.622H191.313V98.0137H200.922V107.622ZM200.922 97.9103H191.313V88.3017H200.922V97.9103ZM200.922 88.1983H191.313V78.5897H200.922V88.1983ZM200.922 78.4863H191.313V68.8776H200.922V78.4863ZM200.922 68.7742H191.313V59.1656H200.922V68.7742ZM200.922 59.0622H191.313V49.4536H200.922V59.0622ZM200.922 49.3502H191.313V39.7416H200.922V49.3502ZM200.922 39.6382H191.313V30.0295H200.922V39.6382ZM200.922 29.9261H191.313V20.3175H200.922V29.9261ZM200.922 20.2141H191.313V10.6055H200.922V20.2141ZM200.922 10.5021H191.313V0.893447H200.922V10.5021ZM210.634 204.738H201.025V195.13H210.634V204.738ZM210.634 195.026H201.025V185.418H210.634V195.026ZM210.634 185.314H201.025V175.727H210.634V185.314ZM210.634 175.602H201.025V165.994H210.634V175.602ZM210.634 165.89H201.025V156.286H210.634V165.89ZM210.634 156.178H201.025V146.57H210.634V156.178ZM210.634 146.466H201.025V136.845H210.634V146.466ZM210.634 136.754H201.025V127.146H210.634V136.754ZM210.634 127.042H201.025V117.438H210.634V127.042ZM210.634 117.334H201.025V107.726H210.634V117.334ZM210.634 107.622H201.025V98.0137H210.634V107.622ZM210.634 97.9103H201.025V88.3017H210.634V97.9103ZM210.634 88.1983H201.025V78.5897H210.634V88.1983ZM210.634 78.4863H201.025V68.8776H210.634V78.4863ZM210.634 68.7742H201.025V59.1656H210.634V68.7742ZM210.634 59.0622H201.025V49.4536H210.634V59.0622ZM210.634 49.3502H201.025V39.7416H210.634V49.3502ZM210.634 39.6382H201.025V30.0295H210.634V39.6382ZM210.634 29.9261H201.025V20.3175H210.634V29.9261ZM210.634 20.2141H201.025V10.6055H210.634V20.2141ZM210.634 10.5021H201.025V0.893447H210.634V10.5021ZM220.346 204.738H210.737V195.13H220.346V204.738ZM220.346 195.026H210.737V185.418H220.346V195.026ZM220.346 185.314H210.737V175.727H220.346V185.314ZM220.346 175.602H210.737V165.994H220.346V175.602ZM220.346 165.89H210.737V156.286H220.346V165.89ZM220.346 156.178H210.737V146.57H220.346V156.178ZM220.346 146.466H210.737V136.845H220.346V146.466ZM220.346 136.754H210.737V127.146H220.346V136.754ZM220.346 127.042H210.737V117.438H220.346V127.042ZM220.346 117.334H210.737V107.726H220.346V117.334ZM220.346 107.622H210.737V98.0137H220.346V107.622ZM220.346 97.9103H210.737V88.3017H220.346V97.9103ZM220.346 88.1983H210.737V78.5897H220.346V88.1983ZM220.346 78.4863H210.737V68.8776H220.346V78.4863ZM220.346 68.7742H210.737V59.1656H220.346V68.7742ZM220.346 59.0622H210.737V49.4536H220.346V59.0622ZM220.346 49.3502H210.737V39.7416H220.346V49.3502ZM220.346 39.6382H210.737V30.0295H220.346V39.6382ZM220.346 29.9261H210.737V20.3175H220.346V29.9261ZM220.346 20.2141H210.737V10.6055H220.346V20.2141ZM220.346 10.5021H210.737V0.893447H220.346V10.5021ZM230.058 204.738H220.449V195.13H230.058V204.738ZM230.058 195.026H220.449V185.418H230.058V195.026ZM230.058 185.314H220.449V175.727H230.058V185.314ZM230.058 175.602H220.449V165.994H230.058V175.602ZM230.058 165.89H220.449V156.286H230.058V165.89ZM230.058 156.178H220.449V146.57H230.058V156.178ZM230.058 146.466H220.449V136.845H230.058V146.466ZM230.058 136.754H220.449V127.146H230.058V136.754ZM230.058 127.042H220.449V117.438H230.058V127.042ZM230.058 117.334H220.449V107.726H230.058V117.334ZM230.058 107.622H220.449V98.0137H230.058V107.622ZM230.058 97.9103H220.449V88.3017H230.058V97.9103ZM230.058 88.1983H220.449V78.5897H230.058V88.1983ZM230.058 78.4863H220.449V68.8776H230.058V78.4863ZM230.058 68.7742H220.449V59.1656H230.058V68.7742ZM230.058 59.0622H220.449V49.4536H230.058V59.0622ZM230.058 49.3502H220.449V39.7416H230.058V49.3502ZM230.058 39.6382H220.449V30.0295H230.058V39.6382ZM230.058 29.9261H220.449V20.3175H230.058V29.9261ZM230.058 20.2141H220.449V10.6055H230.058V20.2141ZM230.058 10.5021H220.449V0.893447H230.058V10.5021ZM239.77 204.738H230.161V195.13H239.77V204.738ZM239.77 195.026H230.161V185.418H239.77V195.026ZM239.77 185.314H230.161V175.727H239.77V185.314ZM239.77 175.602H230.161V165.994H239.77V175.602ZM239.77 165.89H230.161V156.286H239.77V165.89ZM239.77 156.178H230.161V146.57H239.77V156.178ZM239.77 146.466H230.161V136.845H239.77V146.466ZM239.77 136.754H230.161V127.146H239.77V136.754ZM239.77 127.042H230.161V117.438H239.77V127.042ZM239.77 117.334H230.161V107.726H239.77V117.334ZM239.77 107.622H230.161V98.0137H239.77V107.622ZM239.77 97.9103H230.161V88.3017H239.77V97.9103ZM239.77 88.1983H230.161V78.5897H239.77V88.1983ZM239.77 78.4863H230.161V68.8776H239.77V78.4863ZM239.77 68.7742H230.161V59.1656H239.77V68.7742ZM239.77 59.0622H230.161V49.4536H239.77V59.0622ZM239.77 49.3502H230.161V39.7416H239.77V49.3502ZM239.77 39.6382H230.161V30.0295H239.77V39.6382ZM239.77 29.9261H230.161V20.3175H239.77V29.9261ZM239.77 20.2141H230.161V10.6055H239.77V20.2141ZM239.77 10.5021H230.161V0.893447H239.77V10.5021ZM249.482 204.738H239.873V195.13H249.482V204.738ZM249.482 195.026H239.873V185.418H249.482V195.026ZM249.482 185.314H239.873V175.727H249.482V185.314ZM249.482 175.602H239.873V165.994H249.482V175.602ZM249.482 165.89H239.873V156.286H249.482V165.89ZM249.482 156.178H239.873V146.57H249.482V156.178ZM249.482 146.466H239.873V136.845H249.482V146.466ZM249.482 136.754H239.873V127.146H249.482V136.754ZM249.482 127.042H239.873V117.438H249.482V127.042ZM249.482 117.334H239.873V107.726H249.482V117.334ZM249.482 107.622H239.873V98.0137H249.482V107.622ZM249.482 97.9103H239.873V88.3017H249.482V97.9103ZM249.482 88.1983H239.873V78.5897H249.482V88.1983ZM249.482 78.4863H239.873V68.8776H249.482V78.4863ZM249.482 68.7742H239.873V59.1656H249.482V68.7742ZM249.482 59.0622H239.873V49.4536H249.482V59.0622ZM249.482 49.3502H239.873V39.7416H249.482V49.3502ZM249.482 39.6382H239.873V30.0295H249.482V39.6382ZM249.482 29.9261H239.873V20.3175H249.482V29.9261ZM249.482 20.2141H239.873V10.6055H249.482V20.2141ZM249.482 10.5021H239.873V0.893447H249.482V10.5021ZM259.182 204.738H249.585V195.13H259.182V204.738ZM259.182 195.026H249.585V185.418H259.182V195.026ZM259.182 185.314H249.585V175.727H259.182V185.314ZM259.182 175.602H249.585V165.994H259.182V175.602ZM259.182 165.89H249.585V156.286H259.182V165.89ZM259.182 156.178H249.585V146.57H259.182V156.178ZM259.182 146.466H249.585V136.845H259.182V146.466ZM259.182 136.754H249.585V127.146H259.182V136.754ZM259.182 127.042H249.585V117.438H259.182V127.042ZM259.182 117.334H249.585V107.726H259.182V117.334ZM259.182 107.622H249.585V98.0137H259.182V107.622ZM259.182 97.9103H249.585V88.3017H259.182V97.9103ZM259.182 88.1983H249.585V78.5897H259.182V88.1983ZM259.182 78.4863H249.585V68.8776H259.182V78.4863ZM259.182 68.7742H249.585V59.1656H259.182V68.7742ZM259.182 59.0829H249.585V49.4536H259.182V59.0829ZM259.182 49.3709H249.585V39.7416H259.182V49.3709ZM259.182 39.6423H249.585V30.0295H259.182V39.6423ZM259.182 29.9303H249.585V20.3175H259.182V29.9303ZM259.182 20.2017H249.585V10.6055H259.182V20.2017ZM259.182 10.4897H249.585V0.893447H259.182V10.4897ZM268.894 204.726H259.298V195.13H268.906L268.894 204.726ZM268.894 195.014H259.298V185.418H268.906L268.894 195.014ZM268.894 185.302H259.298V175.727H268.906L268.894 185.302ZM268.894 175.59H259.298V165.994H268.906L268.894 175.59ZM268.894 165.878H259.298V156.286H268.906L268.894 165.878ZM268.894 156.166H259.298V146.57H268.906L268.894 156.166ZM268.894 146.454H259.298V136.845H268.906L268.894 146.454ZM268.894 136.742H259.298V127.146H268.906L268.894 136.742ZM268.894 127.03H259.298V117.438H268.906L268.894 127.03ZM268.894 117.322H259.298V107.726H268.906L268.894 117.322ZM268.894 107.61H259.298V98.0137H268.906L268.894 107.61ZM268.894 97.8979H259.298V88.3017H268.906L268.894 97.8979ZM268.894 88.1859H259.298V78.5897H268.906L268.894 88.1859ZM268.894 78.4739H259.298V68.8776H268.906L268.894 78.4739ZM268.894 68.7618H259.298V59.1656H268.906L268.894 68.7618ZM268.894 59.0498H259.298V49.4536H268.906L268.894 59.0498ZM268.894 49.3378H259.298V39.7416H268.906L268.894 49.3378ZM268.894 39.6257H259.298V30.0295H268.906L268.894 39.6257ZM268.894 29.9137H259.298V20.3175H268.906L268.894 29.9137ZM268.894 20.2017H259.298V10.6055H268.906L268.894 20.2017ZM268.894 10.4897H259.298V0.893447H268.906L268.894 10.4897ZM278.622 204.738H269.01V195.13H278.622V204.738ZM278.622 195.026H269.01V185.418H278.622V195.026ZM278.622 185.314H269.01V175.727H278.622V185.314ZM278.622 175.602H269.01V165.994H278.622V175.602ZM278.622 165.89H269.01V156.286H278.622V165.89ZM278.622 156.178H269.01V146.57H278.622V156.178ZM278.622 146.466H269.01V136.845H278.622V146.466ZM278.622 136.754H269.01V127.146H278.622V136.754ZM278.622 127.042H269.01V117.438H278.622V127.042ZM278.622 117.334H269.01V107.726H278.622V117.334ZM278.622 107.622H269.01V98.0137H278.622V107.622ZM278.622 97.9103H269.01V88.3017H278.622V97.9103ZM278.622 88.1983H269.01V78.5897H278.622V88.1983ZM278.622 78.4863H269.01V68.8776H278.622V78.4863ZM278.622 68.7742H269.01V59.1656H278.622V68.7742ZM278.622 59.0829H269.01V49.4536H278.622V59.0829ZM278.622 49.3709H269.01V39.7416H278.622V49.3709ZM278.622 39.6423H269.01V30.0295H278.622V39.6423ZM278.622 29.9303H269.01V20.3175H278.622V29.9303ZM278.622 20.2017H269.01V10.6055H278.622V20.2017ZM278.622 10.4897H269.01V0.893447H278.622V10.4897ZM288.334 204.726H278.722V195.13H288.33L288.334 204.726ZM288.334 195.014H278.722V185.418H288.33L288.334 195.014ZM288.334 185.302H278.722V175.727H288.33L288.334 185.302ZM288.334 175.59H278.722V165.994H288.33L288.334 175.59ZM288.334 165.878H278.722V156.286H288.33L288.334 165.878ZM288.334 156.166H278.722V146.57H288.33L288.334 156.166ZM288.334 146.454H278.722V136.845H288.33L288.334 146.454ZM288.334 136.742H278.722V127.146H288.33L288.334 136.742ZM288.334 127.03H278.722V117.438H288.33L288.334 127.03ZM288.334 117.322H278.722V107.726H288.33L288.334 117.322ZM288.334 107.61H278.722V98.0137H288.33L288.334 107.61ZM288.334 97.8979H278.722V88.3017H288.33L288.334 97.8979ZM288.334 88.1859H278.722V78.5897H288.33L288.334 88.1859ZM288.334 78.4739H278.722V68.8776H288.33L288.334 78.4739ZM288.334 68.7618H278.722V59.1656H288.33L288.334 68.7618ZM288.334 59.0498H278.722V49.4536H288.33L288.334 59.0498ZM288.334 49.3378H278.722V39.7416H288.33L288.334 49.3378ZM288.334 39.6257H278.722V30.0295H288.33L288.334 39.6257ZM288.334 29.9137H278.722V20.3175H288.33L288.334 29.9137ZM288.334 20.2017H278.722V10.6055H288.33L288.334 20.2017ZM288.334 10.4897H278.722V0.893447H288.33L288.334 10.4897ZM298.063 204.738H288.434V195.13H298.063V204.738ZM298.063 195.026H288.434V185.418H298.063V195.026ZM298.063 185.314H288.434V175.727H298.063V185.314ZM298.063 175.602H288.434V165.994H298.063V175.602ZM298.063 165.89H288.434V156.286H298.063V165.89ZM298.063 156.178H288.434V146.57H298.063V156.178ZM298.063 146.466H288.434V136.845H298.063V146.466ZM298.063 136.754H288.434V127.146H298.063V136.754ZM298.063 127.042H288.434V117.438H298.063V127.042ZM298.063 117.334H288.434V107.726H298.063V117.334ZM298.063 107.622H288.434V98.0137H298.063V107.622ZM298.063 97.9103H288.434V88.3017H298.063V97.9103ZM298.063 88.1983H288.434V78.5897H298.063V88.1983ZM298.063 78.4863H288.434V68.8776H298.063V78.4863ZM298.063 68.7742H288.434V59.1656H298.063V68.7742ZM298.063 59.0829H288.434V49.4536H298.063V59.0829ZM298.063 49.3709H288.434V39.7416H298.063V49.3709ZM298.063 39.6423H288.434V30.0295H298.063V39.6423ZM298.063 29.9303H288.434V20.3175H298.063V29.9303ZM298.063 20.2017H288.434V10.6055H298.063V20.2017ZM298.063 10.4897H288.434V0.893447H298.063V10.4897Z" fill="url(#paint0_radial_1508_1563)"/>
<path d="M266.05 153.236C270.019 187.964 245.087 219.333 210.362 223.306C175.637 227.279 144.272 202.35 140.301 167.625C136.331 132.899 104.965 107.97 70.2397 111.943C35.5147 115.917 10.5773 147.293 14.5431 182.019" stroke="#FFFFE0" stroke-width="0.25" stroke-miterlimit="10"/>
<defs>
<radialGradient id="paint0_radial_1508_1563" cx="0" cy="0" r="1" gradientUnits="userSpaceOnUse" gradientTransform="translate(196.12 102.816) scale(102.026)">
<stop stop-color="#FFFFE0"/>
<stop offset="1" stop-color="#FFFFE0" stop-opacity="0"/>
</radialGradient>
</defs>
</svg>
