<svg width="700" height="630" viewBox="0 0 700 630" fill="none" xmlns="http://www.w3.org/2000/svg">
<path opacity="0.5" d="M263.714 208.223V629.223H684.714V208.223H263.714ZM283.752 629.009H263.927V609.185H283.752V629.009ZM283.752 608.971H263.927V589.147H283.752V608.971ZM283.752 588.934H263.927V569.152H283.752V588.934ZM283.752 568.896H263.927V549.071H283.752V568.896ZM283.752 548.858H263.927V529.042H283.752V548.858ZM283.752 528.82H263.927V508.995H283.752V528.82ZM283.752 508.782H263.927V488.932H283.752V508.782ZM283.752 488.744H263.927V468.92H283.752V488.744ZM283.752 468.706H263.927V448.89H283.752V468.706ZM283.752 448.677H263.927V428.853H283.752V448.677ZM283.752 428.639H263.927V408.815H283.752V428.639ZM283.752 408.601H263.927V388.777H283.752V408.601ZM283.752 388.563H263.927V368.739H283.752V388.563ZM283.752 368.526H263.927V348.701H283.752V368.526ZM283.752 348.488H263.927V328.663H283.752V348.488ZM283.752 328.45H263.927V308.625H283.752V328.45ZM283.752 308.412H263.927V288.587H283.752V308.412ZM283.752 288.374H263.927V268.55H283.752V288.374ZM283.752 268.336H263.927V248.512H283.752V268.336ZM283.752 248.298H263.927V228.474H283.752V248.298ZM283.752 228.261H263.927V208.436H283.752V228.261ZM303.79 629.009H283.965V609.185H303.79V629.009ZM303.79 608.971H283.965V589.147H303.79V608.971ZM303.79 588.934H283.965V569.152H303.79V588.934ZM303.79 568.896H283.965V549.071H303.79V568.896ZM303.79 548.858H283.965V529.042H303.79V548.858ZM303.79 528.82H283.965V508.995H303.79V528.82ZM303.79 508.782H283.965V488.932H303.79V508.782ZM303.79 488.744H283.965V468.92H303.79V488.744ZM303.79 468.706H283.965V448.89H303.79V468.706ZM303.79 448.677H283.965V428.853H303.79V448.677ZM303.79 428.639H283.965V408.815H303.79V428.639ZM303.79 408.601H283.965V388.777H303.79V408.601ZM303.79 388.563H283.965V368.739H303.79V388.563ZM303.79 368.526H283.965V348.701H303.79V368.526ZM303.79 348.488H283.965V328.663H303.79V348.488ZM303.79 328.45H283.965V308.625H303.79V328.45ZM303.79 308.412H283.965V288.587H303.79V308.412ZM303.79 288.374H283.965V268.55H303.79V288.374ZM303.79 268.336H283.965V248.512H303.79V268.336ZM303.79 248.298H283.965V228.474H303.79V248.298ZM303.79 228.261H283.965V208.436H303.79V228.261ZM323.828 629.009H304.003V609.185H323.828V629.009ZM323.828 608.971H304.003V589.147H323.828V608.971ZM323.828 588.934H304.003V569.152H323.828V588.934ZM323.828 568.896H304.003V549.071H323.828V568.896ZM323.828 548.858H304.003V529.042H323.828V548.858ZM323.828 528.82H304.003V508.995H323.828V528.82ZM323.828 508.782H304.003V488.932H323.828V508.782ZM323.828 488.744H304.003V468.92H323.828V488.744ZM323.828 468.706H304.003V448.89H323.828V468.706ZM323.828 448.677H304.003V428.853H323.828V448.677ZM323.828 428.639H304.003V408.815H323.828V428.639ZM323.828 408.601H304.003V388.777H323.828V408.601ZM323.828 388.563H304.003V368.739H323.828V388.563ZM323.828 368.526H304.003V348.701H323.828V368.526ZM323.828 348.488H304.003V328.663H323.828V348.488ZM323.828 328.45H304.003V308.625H323.828V328.45ZM323.828 308.412H304.003V288.587H323.828V308.412ZM323.828 288.374H304.003V268.55H323.828V288.374ZM323.828 268.336H304.003V248.512H323.828V268.336ZM323.828 248.298H304.003V228.474H323.828V248.298ZM323.828 228.261H304.003V208.436H323.828V228.261ZM343.866 629.009H324.041V609.185H343.866V629.009ZM343.866 608.971H324.041V589.147H343.866V608.971ZM343.866 588.934H324.041V569.152H343.866V588.934ZM343.866 568.896H324.041V549.071H343.866V568.896ZM343.866 548.858H324.041V529.042H343.866V548.858ZM343.866 528.82H324.041V508.995H343.866V528.82ZM343.866 508.782H324.041V488.932H343.866V508.782ZM343.866 488.744H324.041V468.92H343.866V488.744ZM343.866 468.706H324.041V448.89H343.866V468.706ZM343.866 448.677H324.041V428.853H343.866V448.677ZM343.866 428.639H324.041V408.815H343.866V428.639ZM343.866 408.601H324.041V388.777H343.866V408.601ZM343.866 388.563H324.041V368.739H343.866V388.563ZM343.866 368.526H324.041V348.701H343.866V368.526ZM343.866 348.488H324.041V328.663H343.866V348.488ZM343.866 328.45H324.041V308.625H343.866V328.45ZM343.866 308.412H324.041V288.587H343.866V308.412ZM343.866 288.374H324.041V268.55H343.866V288.374ZM343.866 268.336H324.041V248.512H343.866V268.336ZM343.866 248.298H324.041V228.474H343.866V248.298ZM343.866 228.261H324.041V208.436H343.866V228.261ZM363.903 629.009H344.079V609.185H363.903V629.009ZM363.903 608.971H344.079V589.147H363.903V608.971ZM363.903 588.934H344.079V569.152H363.903V588.934ZM363.903 568.896H344.079V549.071H363.903V568.896ZM363.903 548.858H344.079V529.042H363.903V548.858ZM363.903 528.82H344.079V508.995H363.903V528.82ZM363.903 508.782H344.079V488.932H363.903V508.782ZM363.903 488.744H344.079V468.92H363.903V488.744ZM363.903 468.706H344.079V448.89H363.903V468.706ZM363.903 448.677H344.079V428.853H363.903V448.677ZM363.903 428.639H344.079V408.815H363.903V428.639ZM363.903 408.601H344.079V388.777H363.903V408.601ZM363.903 388.563H344.079V368.739H363.903V388.563ZM363.903 368.526H344.079V348.701H363.903V368.526ZM363.903 348.488H344.079V328.663H363.903V348.488ZM363.903 328.45H344.079V308.625H363.903V328.45ZM363.903 308.412H344.079V288.587H363.903V308.412ZM363.903 288.374H344.079V268.55H363.903V288.374ZM363.903 268.336H344.079V248.512H363.903V268.336ZM363.903 248.298H344.079V228.474H363.903V248.298ZM363.903 228.261H344.079V208.436H363.903V228.261ZM383.941 629.009H364.117V609.185H383.941V629.009ZM383.941 608.971H364.117V589.147H383.941V608.971ZM383.941 588.934H364.117V569.152H383.941V588.934ZM383.941 568.896H364.117V549.071H383.941V568.896ZM383.941 548.858H364.117V529.042H383.941V548.858ZM383.941 528.82H364.117V508.995H383.941V528.82ZM383.941 508.782H364.117V488.932H383.941V508.782ZM383.941 488.744H364.117V468.92H383.941V488.744ZM383.941 468.706H364.117V448.89H383.941V468.706ZM383.941 448.677H364.117V428.853H383.941V448.677ZM383.941 428.639H364.117V408.815H383.941V428.639ZM383.941 408.601H364.117V388.777H383.941V408.601ZM383.941 388.563H364.117V368.739H383.941V388.563ZM383.941 368.526H364.117V348.701H383.941V368.526ZM383.941 348.488H364.117V328.663H383.941V348.488ZM383.941 328.45H364.117V308.625H383.941V328.45ZM383.941 308.412H364.117V288.587H383.941V308.412ZM383.941 288.374H364.117V268.55H383.941V288.374ZM383.941 268.336H364.117V248.512H383.941V268.336ZM383.941 248.298H364.117V228.474H383.941V248.298ZM383.941 228.261H364.117V208.436H383.941V228.261ZM403.979 629.009H384.146V609.185H403.971L403.979 629.009ZM403.979 608.971H384.146V589.147H403.971L403.979 608.971ZM403.979 588.934H384.146V569.152H403.971L403.979 588.934ZM403.979 568.896H384.146V549.071H403.971L403.979 568.896ZM403.979 548.858H384.146V529.042H403.971L403.979 548.858ZM403.979 528.82H384.146V508.995H403.971L403.979 528.82ZM403.979 508.782H384.146V488.932H403.971L403.979 508.782ZM403.979 488.744H384.146V468.92H403.971L403.979 488.744ZM403.979 468.706H384.146V448.89H403.971L403.979 468.706ZM403.979 448.677H384.146V428.853H403.971L403.979 448.677ZM403.979 428.639H384.146V408.815H403.971L403.979 428.639ZM403.979 408.601H384.146V388.777H403.971L403.979 408.601ZM403.979 388.563H384.146V368.739H403.971L403.979 388.563ZM403.979 368.526H384.146V348.701H403.971L403.979 368.526ZM403.979 348.488H384.146V328.663H403.971L403.979 348.488ZM403.979 328.45H384.146V308.625H403.971L403.979 328.45ZM403.979 308.412H384.146V288.587H403.971L403.979 308.412ZM403.979 288.374H384.146V268.55H403.971L403.979 288.374ZM403.979 268.336H384.146V248.512H403.971L403.979 268.336ZM403.979 248.298H384.146V228.474H403.971L403.979 248.298ZM403.979 228.261H384.146V208.436H403.971L403.979 228.261ZM424.017 629.009H404.193V609.185H424.017V629.009ZM424.017 608.971H404.193V589.147H424.017V608.971ZM424.017 588.934H404.193V569.152H424.017V588.934ZM424.017 568.896H404.193V549.071H424.017V568.896ZM424.017 548.858H404.193V529.042H424.017V548.858ZM424.017 528.82H404.193V508.995H424.017V528.82ZM424.017 508.782H404.193V488.932H424.017V508.782ZM424.017 488.744H404.193V468.92H424.017V488.744ZM424.017 468.706H404.193V448.89H424.017V468.706ZM424.017 448.677H404.193V428.853H424.017V448.677ZM424.017 428.639H404.193V408.815H424.017V428.639ZM424.017 408.601H404.193V388.777H424.017V408.601ZM424.017 388.563H404.193V368.739H424.017V388.563ZM424.017 368.526H404.193V348.701H424.017V368.526ZM424.017 348.488H404.193V328.663H424.017V348.488ZM424.017 328.45H404.193V308.625H424.017V328.45ZM424.017 308.412H404.193V288.587H424.017V308.412ZM424.017 288.374H404.193V268.55H424.017V288.374ZM424.017 268.336H404.193V248.512H424.017V268.336ZM424.017 248.298H404.193V228.474H424.017V248.298ZM424.017 228.261H404.193V208.436H424.017V228.261ZM444.046 629.009H424.256V609.185H444.072L444.046 629.009ZM444.046 608.971H424.256V589.147H444.072L444.046 608.971ZM444.046 588.934H424.256V569.152H444.072L444.046 588.934ZM444.046 568.896H424.256V549.071H444.072L444.046 568.896ZM444.046 548.858H424.256V529.042H444.072L444.046 548.858ZM444.046 528.82H424.256V508.995H444.072L444.046 528.82ZM444.046 508.782H424.256V488.932H444.072L444.046 508.782ZM444.046 488.744H424.256V468.92H444.072L444.046 488.744ZM444.046 468.706H424.256V448.89H444.072L444.046 468.706ZM444.046 448.677H424.256V428.853H444.072L444.046 448.677ZM444.046 428.639H424.256V408.815H444.072L444.046 428.639ZM444.046 408.601H424.256V388.777H444.072L444.046 408.601ZM444.046 388.563H424.256V368.739H444.072L444.046 388.563ZM444.046 368.526H424.256V348.701H444.072L444.046 368.526ZM444.046 348.488H424.256V328.663H444.072L444.046 348.488ZM444.046 328.45H424.256V308.625H444.072L444.046 328.45ZM444.046 308.412H424.256V288.587H444.072L444.046 308.412ZM444.046 288.374H424.256V268.55H444.072L444.046 288.374ZM444.046 268.336H424.256V248.512H444.072L444.046 268.336ZM444.046 248.298H424.256V228.474H444.072L444.046 248.298ZM444.046 228.261H424.256V208.436H444.072L444.046 228.261ZM464.084 629.009H444.26V609.185H464.084V629.009ZM464.084 608.971H444.26V589.147H464.084V608.971ZM464.084 588.934H444.26V569.152H464.084V588.934ZM464.084 568.896H444.26V549.071H464.084V568.896ZM464.084 548.858H444.26V529.042H464.084V548.858ZM464.084 528.82H444.26V508.995H464.084V528.82ZM464.084 508.782H444.26V488.932H464.084V508.782ZM464.084 488.744H444.26V468.92H464.084V488.744ZM464.084 468.706H444.26V448.89H464.084V468.706ZM464.084 448.677H444.26V428.853H464.084V448.677ZM464.084 428.639H444.26V408.815H464.084V428.639ZM464.084 408.601H444.26V388.777H464.084V408.601ZM464.084 388.563H444.26V368.739H464.084V388.563ZM464.084 368.526H444.26V348.701H464.084V368.526ZM464.084 348.488H444.26V328.663H464.084V348.488ZM464.084 328.45H444.26V308.625H464.084V328.45ZM464.084 308.412H444.26V288.587H464.084V308.412ZM464.084 288.374H444.26V268.55H464.084V288.374ZM464.084 268.336H444.26V248.512H464.084V268.336ZM464.084 248.298H444.26V228.474H464.084V248.298ZM464.084 228.261H444.26V208.436H464.084V228.261ZM484.122 629.009H464.298V609.185H484.122V629.009ZM484.122 608.971H464.298V589.147H484.122V608.971ZM484.122 588.934H464.298V569.152H484.122V588.934ZM484.122 568.896H464.298V549.071H484.122V568.896ZM484.122 548.858H464.298V529.042H484.122V548.858ZM484.122 528.82H464.298V508.995H484.122V528.82ZM484.122 508.782H464.298V488.932H484.122V508.782ZM484.122 488.744H464.298V468.92H484.122V488.744ZM484.122 468.706H464.298V448.89H484.122V468.706ZM484.122 448.677H464.298V428.853H484.122V448.677ZM484.122 428.639H464.298V408.815H484.122V428.639ZM484.122 408.601H464.298V388.777H484.122V408.601ZM484.122 388.563H464.298V368.739H484.122V388.563ZM484.122 368.526H464.298V348.701H484.122V368.526ZM484.122 348.488H464.298V328.663H484.122V348.488ZM484.122 328.45H464.298V308.625H484.122V328.45ZM484.122 308.412H464.298V288.587H484.122V308.412ZM484.122 288.374H464.298V268.55H484.122V288.374ZM484.122 268.336H464.298V248.512H484.122V268.336ZM484.122 248.298H464.298V228.474H484.122V248.298ZM484.122 228.261H464.298V208.436H484.122V228.261ZM504.16 629.009H484.335V609.185H504.16V629.009ZM504.16 608.971H484.335V589.147H504.16V608.971ZM504.16 588.934H484.335V569.152H504.16V588.934ZM504.16 568.896H484.335V549.071H504.16V568.896ZM504.16 548.858H484.335V529.042H504.16V548.858ZM504.16 528.82H484.335V508.995H504.16V528.82ZM504.16 508.782H484.335V488.932H504.16V508.782ZM504.16 488.744H484.335V468.92H504.16V488.744ZM504.16 468.706H484.335V448.89H504.16V468.706ZM504.16 448.677H484.335V428.853H504.16V448.677ZM504.16 428.639H484.335V408.815H504.16V428.639ZM504.16 408.601H484.335V388.777H504.16V408.601ZM504.16 388.563H484.335V368.739H504.16V388.563ZM504.16 368.526H484.335V348.701H504.16V368.526ZM504.16 348.488H484.335V328.663H504.16V348.488ZM504.16 328.45H484.335V308.625H504.16V328.45ZM504.16 308.412H484.335V288.587H504.16V308.412ZM504.16 288.374H484.335V268.55H504.16V288.374ZM504.16 268.336H484.335V248.512H504.16V268.336ZM504.16 248.298H484.335V228.474H504.16V248.298ZM504.16 228.261H484.335V208.436H504.16V228.261ZM524.198 629.009H504.373V609.185H524.198V629.009ZM524.198 608.971H504.373V589.147H524.198V608.971ZM524.198 588.934H504.373V569.152H524.198V588.934ZM524.198 568.896H504.373V549.071H524.198V568.896ZM524.198 548.858H504.373V529.042H524.198V548.858ZM524.198 528.82H504.373V508.995H524.198V528.82ZM524.198 508.782H504.373V488.932H524.198V508.782ZM524.198 488.744H504.373V468.92H524.198V488.744ZM524.198 468.706H504.373V448.89H524.198V468.706ZM524.198 448.677H504.373V428.853H524.198V448.677ZM524.198 428.639H504.373V408.815H524.198V428.639ZM524.198 408.601H504.373V388.777H524.198V408.601ZM524.198 388.563H504.373V368.739H524.198V388.563ZM524.198 368.526H504.373V348.701H524.198V368.526ZM524.198 348.488H504.373V328.663H524.198V348.488ZM524.198 328.45H504.373V308.625H524.198V328.45ZM524.198 308.412H504.373V288.587H524.198V308.412ZM524.198 288.374H504.373V268.55H524.198V288.374ZM524.198 268.336H504.373V248.512H524.198V268.336ZM524.198 248.298H504.373V228.474H524.198V248.298ZM524.198 228.261H504.373V208.436H524.198V228.261ZM544.236 629.009H524.411V609.185H544.236V629.009ZM544.236 608.971H524.411V589.147H544.236V608.971ZM544.236 588.934H524.411V569.152H544.236V588.934ZM544.236 568.896H524.411V549.071H544.236V568.896ZM544.236 548.858H524.411V529.042H544.236V548.858ZM544.236 528.82H524.411V508.995H544.236V528.82ZM544.236 508.782H524.411V488.932H544.236V508.782ZM544.236 488.744H524.411V468.92H544.236V488.744ZM544.236 468.706H524.411V448.89H544.236V468.706ZM544.236 448.677H524.411V428.853H544.236V448.677ZM544.236 428.639H524.411V408.815H544.236V428.639ZM544.236 408.601H524.411V388.777H544.236V408.601ZM544.236 388.563H524.411V368.739H544.236V388.563ZM544.236 368.526H524.411V348.701H544.236V368.526ZM544.236 348.488H524.411V328.663H544.236V348.488ZM544.236 328.45H524.411V308.625H544.236V328.45ZM544.236 308.412H524.411V288.587H544.236V308.412ZM544.236 288.374H524.411V268.55H544.236V288.374ZM544.236 268.336H524.411V248.512H544.236V268.336ZM544.236 248.298H524.411V228.474H544.236V248.298ZM544.236 228.261H524.411V208.436H544.236V228.261ZM564.274 629.009H544.449V609.185H564.274V629.009ZM564.274 608.971H544.449V589.147H564.274V608.971ZM564.274 588.934H544.449V569.152H564.274V588.934ZM564.274 568.896H544.449V549.071H564.274V568.896ZM564.274 548.858H544.449V529.042H564.274V548.858ZM564.274 528.82H544.449V508.995H564.274V528.82ZM564.274 508.782H544.449V488.932H564.274V508.782ZM564.274 488.744H544.449V468.92H564.274V488.744ZM564.274 468.706H544.449V448.89H564.274V468.706ZM564.274 448.677H544.449V428.853H564.274V448.677ZM564.274 428.639H544.449V408.815H564.274V428.639ZM564.274 408.601H544.449V388.777H564.274V408.601ZM564.274 388.563H544.449V368.739H564.274V388.563ZM564.274 368.526H544.449V348.701H564.274V368.526ZM564.274 348.488H544.449V328.663H564.274V348.488ZM564.274 328.45H544.449V308.625H564.274V328.45ZM564.274 308.412H544.449V288.587H564.274V308.412ZM564.274 288.374H544.449V268.55H564.274V288.374ZM564.274 268.336H544.449V248.512H564.274V268.336ZM564.274 248.298H544.449V228.474H564.274V248.298ZM564.274 228.261H544.449V208.436H564.274V228.261ZM584.311 629.009H564.487V609.185H584.311V629.009ZM584.311 608.971H564.487V589.147H584.311V608.971ZM584.311 588.934H564.487V569.152H584.311V588.934ZM584.311 568.896H564.487V549.071H584.311V568.896ZM584.311 548.858H564.487V529.042H584.311V548.858ZM584.311 528.82H564.487V508.995H584.311V528.82ZM584.311 508.782H564.487V488.932H584.311V508.782ZM584.311 488.744H564.487V468.92H584.311V488.744ZM584.311 468.706H564.487V448.89H584.311V468.706ZM584.311 448.677H564.487V428.853H584.311V448.677ZM584.311 428.639H564.487V408.815H584.311V428.639ZM584.311 408.601H564.487V388.777H584.311V408.601ZM584.311 388.563H564.487V368.739H584.311V388.563ZM584.311 368.526H564.487V348.701H584.311V368.526ZM584.311 348.488H564.487V328.663H584.311V348.488ZM584.311 328.45H564.487V308.625H584.311V328.45ZM584.311 308.412H564.487V288.587H584.311V308.412ZM584.311 288.374H564.487V268.55H584.311V288.374ZM584.311 268.336H564.487V248.512H584.311V268.336ZM584.311 248.298H564.487V228.474H584.311V248.298ZM584.311 228.261H564.487V208.436H584.311V228.261ZM604.324 629.009H584.525V609.185H604.324V629.009ZM604.324 608.971H584.525V589.147H604.324V608.971ZM604.324 588.934H584.525V569.152H604.324V588.934ZM604.324 568.896H584.525V549.071H604.324V568.896ZM604.324 548.858H584.525V529.042H604.324V548.858ZM604.324 528.82H584.525V508.995H604.324V528.82ZM604.324 508.782H584.525V488.932H604.324V508.782ZM604.324 488.744H584.525V468.92H604.324V488.744ZM604.324 468.706H584.525V448.89H604.324V468.706ZM604.324 448.677H584.525V428.853H604.324V448.677ZM604.324 428.639H584.525V408.815H604.324V428.639ZM604.324 408.601H584.525V388.777H604.324V408.601ZM604.324 388.563H584.525V368.739H604.324V388.563ZM604.324 368.526H584.525V348.701H604.324V368.526ZM604.324 348.488H584.525V328.663H604.324V348.488ZM604.324 328.493H584.525V308.625H604.324V328.493ZM604.324 308.455H584.525V288.587H604.324V308.455ZM604.324 288.383H584.525V268.55H604.324V288.383ZM604.324 268.345H584.525V248.512H604.324V268.345ZM604.324 248.273H584.525V228.474H604.324V248.273ZM604.324 228.235H584.525V208.436H604.324V228.235ZM624.362 628.984H604.563V609.185H624.387L624.362 628.984ZM624.362 608.946H604.563V589.147H624.387L624.362 608.946ZM624.362 588.908H604.563V569.152H624.387L624.362 588.908ZM624.362 568.87H604.563V549.071H624.387L624.362 568.87ZM624.362 548.832H604.563V529.042H624.387L624.362 548.832ZM624.362 528.794H604.563V508.995H624.387L624.362 528.794ZM624.362 508.757H604.563V488.932H624.387L624.362 508.757ZM624.362 488.719H604.563V468.92H624.387L624.362 488.719ZM624.362 468.681H604.563V448.89H624.387L624.362 468.681ZM624.362 448.651H604.563V428.853H624.387L624.362 448.651ZM624.362 428.614H604.563V408.815H624.387L624.362 428.614ZM624.362 408.576H604.563V388.777H624.387L624.362 408.576ZM624.362 388.538H604.563V368.739H624.387L624.362 388.538ZM624.362 368.5H604.563V348.701H624.387L624.362 368.5ZM624.362 348.462H604.563V328.663H624.387L624.362 348.462ZM624.362 328.424H604.563V308.625H624.387L624.362 328.424ZM624.362 308.386H604.563V288.587H624.387L624.362 308.386ZM624.362 288.349H604.563V268.55H624.387L624.362 288.349ZM624.362 268.311H604.563V248.512H624.387L624.362 268.311ZM624.362 248.273H604.563V228.474H624.387L624.362 248.273ZM624.362 228.235H604.563V208.436H624.387L624.362 228.235ZM644.434 629.009H624.6V609.185H644.434V629.009ZM644.434 608.971H624.6V589.147H644.434V608.971ZM644.434 588.934H624.6V569.152H644.434V588.934ZM644.434 568.896H624.6V549.071H644.434V568.896ZM644.434 548.858H624.6V529.042H644.434V548.858ZM644.434 528.82H624.6V508.995H644.434V528.82ZM644.434 508.782H624.6V488.932H644.434V508.782ZM644.434 488.744H624.6V468.92H644.434V488.744ZM644.434 468.706H624.6V448.89H644.434V468.706ZM644.434 448.677H624.6V428.853H644.434V448.677ZM644.434 428.639H624.6V408.815H644.434V428.639ZM644.434 408.601H624.6V388.777H644.434V408.601ZM644.434 388.563H624.6V368.739H644.434V388.563ZM644.434 368.526H624.6V348.701H644.434V368.526ZM644.434 348.488H624.6V328.663H644.434V348.488ZM644.434 328.493H624.6V308.625H644.434V328.493ZM644.434 308.455H624.6V288.587H644.434V308.455ZM644.434 288.383H624.6V268.55H644.434V288.383ZM644.434 268.345H624.6V248.512H644.434V268.345ZM644.434 248.273H624.6V228.474H644.434V248.273ZM644.434 228.235H624.6V208.436H644.434V228.235ZM664.471 628.984H644.638V609.185H664.463L664.471 628.984ZM664.471 608.946H644.638V589.147H664.463L664.471 608.946ZM664.471 588.908H644.638V569.152H664.463L664.471 588.908ZM664.471 568.87H644.638V549.071H664.463L664.471 568.87ZM664.471 548.832H644.638V529.042H664.463L664.471 548.832ZM664.471 528.794H644.638V508.995H664.463L664.471 528.794ZM664.471 508.757H644.638V488.932H664.463L664.471 508.757ZM664.471 488.719H644.638V468.92H664.463L664.471 488.719ZM664.471 468.681H644.638V448.89H664.463L664.471 468.681ZM664.471 448.651H644.638V428.853H664.463L664.471 448.651ZM664.471 428.614H644.638V408.815H664.463L664.471 428.614ZM664.471 408.576H644.638V388.777H664.463L664.471 408.576ZM664.471 388.538H644.638V368.739H664.463L664.471 388.538ZM664.471 368.5H644.638V348.701H664.463L664.471 368.5ZM664.471 348.462H644.638V328.663H664.463L664.471 348.462ZM664.471 328.424H644.638V308.625H664.463L664.471 328.424ZM664.471 308.386H644.638V288.587H664.463L664.471 308.386ZM664.471 288.349H644.638V268.55H664.463L664.471 288.349ZM664.471 268.311H644.638V248.512H664.463L664.471 268.311ZM664.471 248.273H644.638V228.474H664.463L664.471 248.273ZM664.471 228.235H644.638V208.436H664.463L664.471 228.235ZM684.543 629.009H664.676V609.185H684.543V629.009ZM684.543 608.971H664.676V589.147H684.543V608.971ZM684.543 588.934H664.676V569.152H684.543V588.934ZM684.543 568.896H664.676V549.071H684.543V568.896ZM684.543 548.858H664.676V529.042H684.543V548.858ZM684.543 528.82H664.676V508.995H684.543V528.82ZM684.543 508.782H664.676V488.932H684.543V508.782ZM684.543 488.744H664.676V468.92H684.543V488.744ZM684.543 468.706H664.676V448.89H684.543V468.706ZM684.543 448.677H664.676V428.853H684.543V448.677ZM684.543 428.639H664.676V408.815H684.543V428.639ZM684.543 408.601H664.676V388.777H684.543V408.601ZM684.543 388.563H664.676V368.739H684.543V388.563ZM684.543 368.526H664.676V348.701H684.543V368.526ZM684.543 348.488H664.676V328.663H684.543V348.488ZM684.543 328.493H664.676V308.625H684.543V328.493ZM684.543 308.455H664.676V288.587H684.543V308.455ZM684.543 288.383H664.676V268.55H684.543V288.383ZM684.543 268.345H664.676V248.512H684.543V268.345ZM684.543 248.273H664.676V228.474H684.543V248.273ZM684.543 228.235H664.676V208.436H684.543V228.235Z" fill="url(#paint0_radial_1520_1616)"/>
<path d="M649.776 278.162C677.947 383.119 615.712 491.036 510.766 519.22C405.821 547.405 297.913 485.176 269.737 380.227C241.561 275.279 133.654 213.05 28.7077 241.235" stroke="white" stroke-width="0.25" stroke-miterlimit="10"/>
<path opacity="0.28" d="M507.572 293.948L507.471 294.05L507.369 294.151L478.302 323.216L478.2 323.317L478.099 323.419L449.031 352.483L448.929 352.589L448.828 352.691L428.485 373.031L428.79 373.31L449.12 352.982L449.221 352.881L449.323 352.779L478.39 323.715L478.492 323.613L478.593 323.512L507.665 294.447L507.767 294.342L507.868 294.24L513.734 288.375L513.455 288.07L507.572 293.948Z" fill="#CDCDCD"/>
<path opacity="0.28" d="M510.397 296.976L510.296 297.077L481.228 326.142L481.127 326.243L481.025 326.345L451.958 355.405L451.856 355.507L451.755 355.608L431.594 375.767L431.915 376.029L452.046 355.9L452.148 355.798L452.249 355.697L481.317 326.649L481.418 326.548L481.52 326.446L510.6 297.373L510.702 297.272L510.803 297.166L516.47 291.499C516.381 291.394 516.297 291.284 516.208 291.174L510.499 296.874L510.397 296.976Z" fill="#CDCDCD"/>
<path opacity="0.28" d="M522.108 308.685L522.006 308.787L492.939 337.851L492.837 337.953L492.736 338.054L463.656 367.119L463.554 367.22L463.448 367.322L446.146 384.639L446.569 384.812L463.77 367.614L463.871 367.512L463.973 367.411L493.04 338.346L493.142 338.245L493.243 338.143L522.311 309.079L522.412 308.977L522.514 308.876L525.25 306.14C525.191 306.004 525.136 305.865 525.077 305.717L522.222 308.571L522.108 308.685Z" fill="#CDCDCD"/>
<path opacity="0.28" d="M516.255 302.833L516.154 302.934L487.082 331.999L486.98 332.1L486.879 332.202L457.811 361.266L457.71 361.368L457.608 361.469L438.429 380.647L438.792 380.867L457.9 361.749L458.006 361.647L458.107 361.546L487.175 332.481L487.276 332.38L487.378 332.278L516.445 303.213L516.547 303.112L516.648 303.01L521.301 298.359L521.076 297.995L516.357 302.727L516.255 302.833Z" fill="#CDCDCD"/>
<path opacity="0.28" d="M525.035 311.612L524.933 311.714L495.866 340.778L495.764 340.88L495.663 340.981L466.616 370.046L466.515 370.147L466.413 370.249L450.376 386.276L450.799 386.42L466.667 370.557L466.769 370.456L466.87 370.35L495.938 341.286L496.039 341.184L496.141 341.083L525.208 312.018L525.31 311.917L525.411 311.815L526.82 310.411C526.769 310.263 526.722 310.115 526.672 309.988L525.12 311.54L525.035 311.612Z" fill="#CDCDCD"/>
<path opacity="0.28" d="M519.182 305.759L519.081 305.86L490.013 334.925L489.911 335.026L489.81 335.128L460.738 364.192L460.637 364.294L460.535 364.395L442.172 382.757L442.557 382.96L460.831 364.708L460.933 364.607L461.034 364.505L490.102 335.441L490.203 335.339L490.305 335.238L519.372 306.173L519.474 306.072L519.575 305.97L523.382 302.164L523.183 301.779L519.279 305.682L519.182 305.759Z" fill="#CDCDCD"/>
<path opacity="0.28" d="M513.328 299.902L513.226 300.004L484.154 329.072L484.053 329.174L483.951 329.275L454.884 358.34L454.782 358.441L454.681 358.543L434.896 378.317L435.239 378.558L454.964 358.835L455.066 358.733L455.171 358.632L484.239 329.567L484.341 329.466L484.442 329.364L513.518 300.3L513.62 300.198L513.721 300.097L518.982 294.832L518.741 294.489L513.429 299.801L513.328 299.902Z" fill="#CDCDCD"/>
<path opacity="0.28" d="M527.86 314.639L498.792 343.704L498.691 343.805L498.589 343.907L469.522 372.971L469.42 373.073L469.319 373.174L454.889 387.603L455.358 387.717L469.611 373.47L469.712 373.369L469.814 373.267L498.881 344.203L498.983 344.097L499.084 343.996L528.148 314.939L528.084 314.673C528.084 314.61 528.054 314.55 528.038 314.491L527.97 314.559L527.86 314.639Z" fill="#CDCDCD"/>
<path opacity="0.28" d="M510.397 355.515L510.296 355.616L481.228 384.681L481.127 384.782L481.025 384.884L476.859 389.049L477.523 388.973L481.33 385.167L481.431 385.066L481.533 384.964L510.6 355.908L510.702 355.807L510.803 355.705L529.412 337.098L529.488 336.435L510.499 355.405L510.397 355.515Z" fill="#CDCDCD"/>
<path opacity="0.28" d="M504.544 349.658L504.443 349.76L475.375 378.829L475.274 378.93L475.172 379.032L464.925 389.27L465.47 389.312L475.46 379.324L475.561 379.222L475.663 379.121L504.73 350.056L504.832 349.954L504.933 349.853L529.733 325.055C529.733 324.873 529.708 324.692 529.691 324.51L504.641 349.557L504.544 349.658Z" fill="#CDCDCD"/>
<path opacity="0.28" d="M507.471 352.588L507.37 352.69L478.302 381.755L478.201 381.856L478.099 381.957L470.601 389.455H471.193L478.382 382.266L478.484 382.165L478.585 382.063L507.657 352.999L507.759 352.897L507.86 352.796L529.852 330.806C529.852 330.607 529.852 330.408 529.852 330.214L507.543 352.517L507.471 352.588Z" fill="#CDCDCD"/>
<path opacity="0.28" d="M501.618 346.732L501.516 346.833L472.449 375.898L472.347 375.999L472.246 376.101L459.723 388.622L460.226 388.707L472.537 376.397L472.639 376.295L472.74 376.194L501.808 347.129L501.91 347.028L502.011 346.922L529.133 319.807C529.108 319.638 529.078 319.473 529.049 319.304L501.719 346.63L501.618 346.732Z" fill="#CDCDCD"/>
<path opacity="0.28" d="M516.255 361.368L516.153 361.469L492.664 384.956L493.679 384.533L516.445 361.749L516.547 361.647L516.648 361.546L524.95 353.244C525.097 352.906 525.238 352.568 525.373 352.229L516.348 361.254L516.255 361.368Z" fill="#CDCDCD"/>
<path opacity="0.28" d="M513.328 358.442L513.227 358.543L484.155 387.608L484.054 387.709L483.99 387.773L484.096 387.747L484.257 387.709C484.426 387.667 484.599 387.629 484.768 387.582L513.527 358.827L513.629 358.725L513.73 358.624L528.017 344.334C528.084 344.081 528.143 343.819 528.207 343.561L513.438 358.332L513.328 358.442Z" fill="#CDCDCD"/>
<path opacity="0.28" d="M440.442 285.562L440.544 285.46L454.881 271.129L454.082 271.34L440.252 285.169L440.151 285.27L440.049 285.372L411.755 313.658C411.684 313.924 411.612 314.191 411.544 314.457L440.341 285.663L440.442 285.562Z" fill="#CDCDCD"/>
<path opacity="0.28" d="M424.907 289.385L429.822 284.492C428.092 286.028 426.451 287.662 424.907 289.385V289.385Z" fill="#CDCDCD"/>
<path opacity="0.28" d="M437.515 282.636L437.616 282.534L445.99 274.161L444.941 274.635L437.329 282.247L437.223 282.348L437.122 282.45L415.02 304.524C414.863 304.871 414.711 305.222 414.559 305.573L437.396 282.737L437.515 282.636Z" fill="#CDCDCD"/>
<path opacity="0.28" d="M510.296 373.762L514.187 369.872C515.275 368.682 516.313 367.45 517.3 366.176L506.6 376.875C507.874 375.885 509.106 374.848 510.296 373.762Z" fill="#CDCDCD"/>
<path opacity="0.28" d="M422.877 326.539L422.979 326.438L452.046 297.373L452.148 297.272L452.249 297.166L479.393 270.03L478.881 269.949L451.958 296.874L451.856 296.975L451.755 297.077L422.687 326.142L422.585 326.243L422.484 326.345L410.367 338.464C410.393 338.633 410.422 338.803 410.448 338.968L422.776 326.649L422.877 326.539Z" fill="#CDCDCD"/>
<path opacity="0.28" d="M417.024 320.682L417.126 320.581L446.193 291.516L446.295 291.415L446.396 291.313L468.435 269.281H467.83L446.105 291.022L446.003 291.123L445.901 291.225L416.834 320.306L416.732 320.407L416.631 320.509L409.712 327.41C409.712 327.609 409.712 327.812 409.712 328.015L416.94 320.788L417.024 320.682Z" fill="#CDCDCD"/>
<path opacity="0.28" d="M419.951 323.613L420.052 323.511L449.12 294.447L449.221 294.341L449.323 294.239L474.144 269.421L473.595 269.387L449.031 293.948L448.93 294.049L448.828 294.151L419.761 323.215L419.659 323.317L419.558 323.418L409.801 333.174C409.801 333.356 409.801 333.542 409.835 333.724L419.849 323.714L419.951 323.613Z" fill="#CDCDCD"/>
<path opacity="0.28" d="M414.098 317.769L414.2 317.668L443.267 288.59L443.369 288.489L443.47 288.387L462.113 269.751C461.884 269.776 461.656 269.814 461.432 269.844L443.178 288.096L443.077 288.197L442.975 288.299L413.908 317.346L413.806 317.448L413.701 317.549L410.258 320.991C410.228 321.22 410.195 321.448 410.165 321.672L413.997 317.841L414.098 317.769Z" fill="#CDCDCD"/>
<path opacity="0.28" d="M446.316 349.954L446.418 349.852L475.485 320.788L475.587 320.682L475.688 320.581L504.756 291.516L504.857 291.415L504.959 291.313L510.812 285.443L510.507 285.16L504.646 291.021L504.544 291.123L504.443 291.224L475.375 320.306L475.274 320.407L475.172 320.509L446.105 349.556L446.003 349.658L445.902 349.759L425.593 370.083L425.876 370.383L446.21 350.055L446.316 349.954Z" fill="#CDCDCD"/>
<path opacity="0.28" d="M440.442 344.098L440.544 343.996L469.611 314.931L469.713 314.83L469.814 314.729L498.882 285.664L498.983 285.562L499.085 285.461L504.354 280.196C504.24 280.112 504.122 280.035 504.008 279.955L498.793 285.169L498.691 285.271L498.59 285.372L469.522 314.437L469.421 314.538L469.319 314.64L440.252 343.704L440.15 343.806L440.049 343.907L420.37 363.584L420.611 363.931L440.341 344.203L440.442 344.098Z" fill="#CDCDCD"/>
<path opacity="0.28" d="M434.588 338.244L434.69 338.143L463.757 309.078L463.859 308.977L463.96 308.875L493.028 279.811L493.129 279.709L493.231 279.608L497.037 275.802L496.644 275.607L492.926 279.329L492.825 279.43L492.723 279.532L463.656 308.584L463.554 308.685L463.448 308.787L434.381 337.851L434.279 337.953L434.178 338.054L415.992 356.238C416.056 356.369 416.119 356.5 416.187 356.631L434.474 338.346L434.588 338.244Z" fill="#CDCDCD"/>
<path opacity="0.28" d="M428.731 332.392L428.832 332.29L457.9 303.226L458.005 303.124L458.107 303.023L487.174 273.958L487.276 273.857L487.377 273.755L488.794 272.334L488.371 272.19L487.103 273.459L487.001 273.561L486.9 273.662L457.811 302.727L457.709 302.832L457.608 302.934L428.553 331.998L428.451 332.1L428.35 332.201L412.617 347.932C412.664 348.076 412.714 348.224 412.761 348.355L428.642 332.476L428.731 332.392Z" fill="#CDCDCD"/>
<path opacity="0.28" d="M443.355 347.028L443.457 346.922L472.537 317.858L472.638 317.756L472.74 317.655L501.808 288.59L501.909 288.489L502.011 288.387L507.682 282.716L507.361 282.454L501.719 288.095L501.617 288.197L501.516 288.298L472.448 317.346L472.347 317.447L472.245 317.549L443.178 346.613L443.076 346.715L442.975 346.816L422.873 366.916L423.131 367.242L443.266 347.112L443.355 347.028Z" fill="#CDCDCD"/>
<path opacity="0.28" d="M437.514 341.17L437.616 341.069L466.683 312.004L466.785 311.903L466.886 311.801L495.954 282.737L496.056 282.635L496.157 282.534L500.809 277.882L500.437 277.662L495.865 282.246L495.764 282.348L495.662 282.449L466.616 311.509L466.514 311.611L466.413 311.712L437.345 340.777L437.24 340.878L437.138 340.98L418.106 360.01C418.178 360.132 418.25 360.259 418.326 360.377L437.443 341.263L437.514 341.17Z" fill="#CDCDCD"/>
<path opacity="0.28" d="M431.662 335.318L431.763 335.217L460.831 306.152L460.932 306.051L461.034 305.949L490.101 276.885L490.203 276.783L490.304 276.682L493.053 273.933L492.63 273.764L490.008 276.386L489.907 276.487L489.805 276.593L460.738 305.657L460.636 305.759L460.535 305.86L431.467 334.925L431.366 335.026L431.264 335.128L414.174 352.212C414.229 352.352 414.284 352.491 414.343 352.635L431.552 335.428L431.662 335.318Z" fill="#CDCDCD"/>
<path opacity="0.28" d="M425.804 329.465L425.906 329.364L454.974 300.299L455.075 300.198L455.181 300.096L484.248 271.032H484.223L483.775 270.922L454.885 299.8L454.783 299.902L454.682 300.003L425.614 329.072L425.513 329.174L425.411 329.275L411.319 343.361C411.357 343.522 411.395 343.678 411.438 343.835L425.703 329.567L425.804 329.465Z" fill="#CDCDCD"/>
<path d="M404.573 208.229V420.685H617.051V208.229H404.573ZM414.686 420.577H404.681V410.573H414.686V420.577ZM414.686 410.465H404.681V400.461H414.686V410.465ZM414.686 400.353H404.681V390.37H414.686V400.353ZM414.686 390.241H404.681V380.237H414.686V390.241ZM414.686 380.129H404.681V370.129H414.686V380.129ZM414.686 370.017H404.681V360.013H414.686V370.017ZM414.686 359.905H404.681V349.888H414.686V359.905ZM414.686 349.793H404.681V339.789H414.686V349.793ZM414.686 339.681H404.681V329.681H414.686V339.681ZM414.686 329.574H404.681V319.569H414.686V329.574ZM414.686 319.462H404.681V309.457H414.686V319.462ZM414.686 309.35H404.681V299.345H414.686V309.35ZM414.686 299.238H404.681V289.233H414.686V299.238ZM414.686 289.126H404.681V279.121H414.686V289.126ZM414.686 279.014H404.681V269.009H414.686V279.014ZM414.686 268.902H404.681V258.897H414.686V268.902ZM414.686 258.79H404.681V248.785H414.686V258.79ZM414.686 248.678H404.681V238.673H414.686V248.678ZM414.686 238.566H404.681V228.561H414.686V238.566ZM414.686 228.454H404.681V218.449H414.686V228.454ZM414.686 218.341H404.681V208.337H414.686V218.341ZM424.799 420.577H414.794V410.573H424.799V420.577ZM424.799 410.465H414.794V400.461H424.799V410.465ZM424.799 400.353H414.794V390.37H424.799V400.353ZM424.799 390.241H414.794V380.237H424.799V390.241ZM424.799 380.129H414.794V370.129H424.799V380.129ZM424.799 370.017H414.794V360.013H424.799V370.017ZM424.799 359.905H414.794V349.888H424.799V359.905ZM424.799 349.793H414.794V339.789H424.799V349.793ZM424.799 339.681H414.794V329.681H424.799V339.681ZM424.799 329.574H414.794V319.569H424.799V329.574ZM424.799 319.462H414.794V309.457H424.799V319.462ZM424.799 309.35H414.794V299.345H424.799V309.35ZM424.799 299.238H414.794V289.233H424.799V299.238ZM424.799 289.126H414.794V279.121H424.799V289.126ZM424.799 279.014H414.794V269.009H424.799V279.014ZM424.799 268.902H414.794V258.897H424.799V268.902ZM424.799 258.79H414.794V248.785H424.799V258.79ZM424.799 248.678H414.794V238.673H424.799V248.678ZM424.799 238.566H414.794V228.561H424.799V238.566ZM424.799 228.454H414.794V218.449H424.799V228.454ZM424.799 218.341H414.794V208.337H424.799V218.341ZM434.912 420.577H424.907V410.573H434.912V420.577ZM434.912 410.465H424.907V400.461H434.912V410.465ZM434.912 400.353H424.907V390.37H434.912V400.353ZM434.912 390.241H424.907V380.237H434.912V390.241ZM434.912 380.129H424.907V370.129H434.912V380.129ZM434.912 370.017H424.907V360.013H434.912V370.017ZM434.912 359.905H424.907V349.888H434.912V359.905ZM434.912 349.793H424.907V339.789H434.912V349.793ZM434.912 339.681H424.907V329.681H434.912V339.681ZM434.912 329.574H424.907V319.569H434.912V329.574ZM434.912 319.462H424.907V309.457H434.912V319.462ZM434.912 309.35H424.907V299.345H434.912V309.35ZM434.912 299.238H424.907V289.233H434.912V299.238ZM434.912 289.126H424.907V279.121H434.912V289.126ZM434.912 279.014H424.907V269.009H434.912V279.014ZM434.912 268.902H424.907V258.897H434.912V268.902ZM434.912 258.79H424.907V248.785H434.912V258.79ZM434.912 248.678H424.907V238.673H434.912V248.678ZM434.912 238.566H424.907V228.561H434.912V238.566ZM434.912 228.454H424.907V218.449H434.912V228.454ZM434.912 218.341H424.907V208.337H434.912V218.341ZM445.025 420.577H435.02V410.573H445.025V420.577ZM445.025 410.465H435.02V400.461H445.025V410.465ZM445.025 400.353H435.02V390.37H445.025V400.353ZM445.025 390.241H435.02V380.237H445.025V390.241ZM445.025 380.129H435.02V370.129H445.025V380.129ZM445.025 370.017H435.02V360.013H445.025V370.017ZM445.025 359.905H435.02V349.888H445.025V359.905ZM445.025 349.793H435.02V339.789H445.025V349.793ZM445.025 339.681H435.02V329.681H445.025V339.681ZM445.025 329.574H435.02V319.569H445.025V329.574ZM445.025 319.462H435.02V309.457H445.025V319.462ZM445.025 309.35H435.02V299.345H445.025V309.35ZM445.025 299.238H435.02V289.233H445.025V299.238ZM445.025 289.126H435.02V279.121H445.025V289.126ZM445.025 279.014H435.02V269.009H445.025V279.014ZM445.025 268.902H435.02V258.897H445.025V268.902ZM445.025 258.79H435.02V248.785H445.025V258.79ZM445.025 248.678H435.02V238.673H445.025V248.678ZM445.025 238.566H435.02V228.561H445.025V238.566ZM445.025 228.454H435.02V218.449H445.025V228.454ZM445.025 218.341H435.02V208.337H445.025V218.341ZM455.138 420.577H445.133V410.573H455.138V420.577ZM455.138 410.465H445.133V400.461H455.138V410.465ZM455.138 400.353H445.133V390.37H455.138V400.353ZM455.138 390.241H445.133V380.237H455.138V390.241ZM455.138 380.129H445.133V370.129H455.138V380.129ZM455.138 370.017H445.133V360.013H455.138V370.017ZM455.138 359.905H445.133V349.888H455.138V359.905ZM455.138 349.793H445.133V339.789H455.138V349.793ZM455.138 339.681H445.133V329.681H455.138V339.681ZM455.138 329.574H445.133V319.569H455.138V329.574ZM455.138 319.462H445.133V309.457H455.138V319.462ZM455.138 309.35H445.133V299.345H455.138V309.35ZM455.138 299.238H445.133V289.233H455.138V299.238ZM455.138 289.126H445.133V279.121H455.138V289.126ZM455.138 279.014H445.133V269.009H455.138V279.014ZM455.138 268.902H445.133V258.897H455.138V268.902ZM455.138 258.79H445.133V248.785H455.138V258.79ZM455.138 248.678H445.133V238.673H455.138V248.678ZM455.138 238.566H445.133V228.561H455.138V238.566ZM455.138 228.454H445.133V218.449H455.138V228.454ZM455.138 218.341H445.133V208.337H455.138V218.341ZM465.252 420.577H455.246V410.573H465.252V420.577ZM465.252 410.465H455.246V400.461H465.252V410.465ZM465.252 400.353H455.246V390.37H465.252V400.353ZM465.252 390.241H455.246V380.237H465.252V390.241ZM465.252 380.129H455.246V370.129H465.252V380.129ZM465.252 370.017H455.246V360.013H465.252V370.017ZM465.252 359.905H455.246V349.888H465.252V359.905ZM465.252 349.793H455.246V339.789H465.252V349.793ZM465.252 339.681H455.246V329.681H465.252V339.681ZM465.252 329.574H455.246V319.569H465.252V329.574ZM465.252 319.462H455.246V309.457H465.252V319.462ZM465.252 309.35H455.246V299.345H465.252V309.35ZM465.252 299.238H455.246V289.233H465.252V299.238ZM465.252 289.126H455.246V279.121H465.252V289.126ZM465.252 279.014H455.246V269.009H465.252V279.014ZM465.252 268.902H455.246V258.897H465.252V268.902ZM465.252 258.79H455.246V248.785H465.252V258.79ZM465.252 248.678H455.246V238.673H465.252V248.678ZM465.252 238.566H455.246V228.561H465.252V238.566ZM465.252 228.454H455.246V218.449H465.252V228.454ZM465.252 218.341H455.246V208.337H465.252V218.341ZM475.365 420.577H465.355V410.573H475.36L475.365 420.577ZM475.365 410.465H465.355V400.461H475.36L475.365 410.465ZM475.365 400.353H465.355V390.37H475.36L475.365 400.353ZM475.365 390.241H465.355V380.237H475.36L475.365 390.241ZM475.365 380.129H465.355V370.129H475.36L475.365 380.129ZM475.365 370.017H465.355V360.013H475.36L475.365 370.017ZM475.365 359.905H465.355V349.888H475.36L475.365 359.905ZM475.365 349.793H465.355V339.789H475.36L475.365 349.793ZM475.365 339.681H465.355V329.681H475.36L475.365 339.681ZM475.365 329.574H465.355V319.569H475.36L475.365 329.574ZM475.365 319.462H465.355V309.457H475.36L475.365 319.462ZM475.365 309.35H465.355V299.345H475.36L475.365 309.35ZM475.365 299.238H465.355V289.233H475.36L475.365 299.238ZM475.365 289.126H465.355V279.121H475.36L475.365 289.126ZM475.365 279.014H465.355V269.009H475.36L475.365 279.014ZM475.365 268.902H465.355V258.897H475.36L475.365 268.902ZM475.365 258.79H465.355V248.785H475.36L475.365 258.79ZM475.365 248.678H465.355V238.673H475.36L475.365 248.678ZM475.365 238.566H465.355V228.561H475.36L475.365 238.566ZM475.365 228.454H465.355V218.449H475.36L475.365 228.454ZM475.365 218.341H465.355V208.337H475.36L475.365 218.341ZM485.478 420.577H475.472V410.573H485.478V420.577ZM485.478 410.465H475.472V400.461H485.478V410.465ZM485.478 400.353H475.472V390.37H485.478V400.353ZM485.478 390.241H475.472V380.237H485.478V390.241ZM485.478 380.129H475.472V370.129H485.478V380.129ZM485.478 370.017H475.472V360.013H485.478V370.017ZM485.478 359.905H475.472V349.888H485.478V359.905ZM485.478 349.793H475.472V339.789H485.478V349.793ZM485.478 339.681H475.472V329.681H485.478V339.681ZM485.478 329.574H475.472V319.569H485.478V329.574ZM485.478 319.462H475.472V309.457H485.478V319.462ZM485.478 309.35H475.472V299.345H485.478V309.35ZM485.478 299.238H475.472V289.233H485.478V299.238ZM485.478 289.126H475.472V279.121H485.478V289.126ZM485.478 279.014H475.472V269.009H485.478V279.014ZM485.478 268.902H475.472V258.897H485.478V268.902ZM485.478 258.79H475.472V248.785H485.478V258.79ZM485.478 248.678H475.472V238.673H485.478V248.678ZM485.478 238.566H475.472V228.561H485.478V238.566ZM485.478 228.454H475.472V218.449H485.478V228.454ZM485.478 218.341H475.472V208.337H485.478V218.341ZM495.586 420.577H485.598V410.573H495.599L495.586 420.577ZM495.586 410.465H485.598V400.461H495.599L495.586 410.465ZM495.586 400.353H485.598V390.37H495.599L495.586 400.353ZM495.586 390.241H485.598V380.237H495.599L495.586 390.241ZM495.586 380.129H485.598V370.129H495.599L495.586 380.129ZM495.586 370.017H485.598V360.013H495.599L495.586 370.017ZM495.586 359.905H485.598V349.888H495.599L495.586 359.905ZM495.586 349.793H485.598V339.789H495.599L495.586 349.793ZM495.586 339.681H485.598V329.681H495.599L495.586 339.681ZM495.586 329.574H485.598V319.569H495.599L495.586 329.574ZM495.586 319.462H485.598V309.457H495.599L495.586 319.462ZM495.586 309.35H485.598V299.345H495.599L495.586 309.35ZM495.586 299.238H485.598V289.233H495.599L495.586 299.238ZM495.586 289.126H485.598V279.121H495.599L495.586 289.126ZM495.586 279.014H485.598V269.009H495.599L495.586 279.014ZM495.586 268.902H485.598V258.897H495.599L495.586 268.902ZM495.586 258.79H485.598V248.785H495.599L495.586 258.79ZM495.586 248.678H485.598V238.673H495.599L495.586 248.678ZM495.586 238.566H485.598V228.561H495.599L495.586 238.566ZM495.586 228.454H485.598V218.449H495.599L495.586 228.454ZM495.586 218.341H485.598V208.337H495.599L495.586 218.341ZM505.699 420.577H495.694V410.573H505.699V420.577ZM505.699 410.465H495.694V400.461H505.699V410.465ZM505.699 400.353H495.694V390.37H505.699V400.353ZM505.699 390.241H495.694V380.237H505.699V390.241ZM505.699 380.129H495.694V370.129H505.699V380.129ZM505.699 370.017H495.694V360.013H505.699V370.017ZM505.699 359.905H495.694V349.888H505.699V359.905ZM505.699 349.793H495.694V339.789H505.699V349.793ZM505.699 339.681H495.694V329.681H505.699V339.681ZM505.699 329.574H495.694V319.569H505.699V329.574ZM505.699 319.462H495.694V309.457H505.699V319.462ZM505.699 309.35H495.694V299.345H505.699V309.35ZM505.699 299.238H495.694V289.233H505.699V299.238ZM505.699 289.126H495.694V279.121H505.699V289.126ZM505.699 279.014H495.694V269.009H505.699V279.014ZM505.699 268.902H495.694V258.897H505.699V268.902ZM505.699 258.79H495.694V248.785H505.699V258.79ZM505.699 248.678H495.694V238.673H505.699V248.678ZM505.699 238.566H495.694V228.561H505.699V238.566ZM505.699 228.454H495.694V218.449H505.699V228.454ZM505.699 218.341H495.694V208.337H505.699V218.341ZM515.812 420.577H505.807V410.573H515.812V420.577ZM515.812 410.465H505.807V400.461H515.812V410.465ZM515.812 400.353H505.807V390.37H515.812V400.353ZM515.812 390.241H505.807V380.237H515.812V390.241ZM515.812 380.129H505.807V370.129H515.812V380.129ZM515.812 370.017H505.807V360.013H515.812V370.017ZM515.812 359.905H505.807V349.888H515.812V359.905ZM515.812 349.793H505.807V339.789H515.812V349.793ZM515.812 339.681H505.807V329.681H515.812V339.681ZM515.812 329.574H505.807V319.569H515.812V329.574ZM515.812 319.462H505.807V309.457H515.812V319.462ZM515.812 309.35H505.807V299.345H515.812V309.35ZM515.812 299.238H505.807V289.233H515.812V299.238ZM515.812 289.126H505.807V279.121H515.812V289.126ZM515.812 279.014H505.807V269.009H515.812V279.014ZM515.812 268.902H505.807V258.897H515.812V268.902ZM515.812 258.79H505.807V248.785H515.812V258.79ZM515.812 248.678H505.807V238.673H515.812V248.678ZM515.812 238.566H505.807V228.561H515.812V238.566ZM515.812 228.454H505.807V218.449H515.812V228.454ZM515.812 218.341H505.807V208.337H515.812V218.341ZM525.925 420.577H515.92V410.573H525.925V420.577ZM525.925 410.465H515.92V400.461H525.925V410.465ZM525.925 400.353H515.92V390.37H525.925V400.353ZM525.925 390.241H515.92V380.237H525.925V390.241ZM525.925 380.129H515.92V370.129H525.925V380.129ZM525.925 370.017H515.92V360.013H525.925V370.017ZM525.925 359.905H515.92V349.888H525.925V359.905ZM525.925 349.793H515.92V339.789H525.925V349.793ZM525.925 339.681H515.92V329.681H525.925V339.681ZM525.925 329.574H515.92V319.569H525.925V329.574ZM525.925 319.462H515.92V309.457H525.925V319.462ZM525.925 309.35H515.92V299.345H525.925V309.35ZM525.925 299.238H515.92V289.233H525.925V299.238ZM525.925 289.126H515.92V279.121H525.925V289.126ZM525.925 279.014H515.92V269.009H525.925V279.014ZM525.925 268.902H515.92V258.897H525.925V268.902ZM525.925 258.79H515.92V248.785H525.925V258.79ZM525.925 248.678H515.92V238.673H525.925V248.678ZM525.925 238.566H515.92V228.561H525.925V238.566ZM525.925 228.454H515.92V218.449H525.925V228.454ZM525.925 218.341H515.92V208.337H525.925V218.341ZM536.038 420.577H526.033V410.573H536.038V420.577ZM536.038 410.465H526.033V400.461H536.038V410.465ZM536.038 400.353H526.033V390.37H536.038V400.353ZM536.038 390.241H526.033V380.237H536.038V390.241ZM536.038 380.129H526.033V370.129H536.038V380.129ZM536.038 370.017H526.033V360.013H536.038V370.017ZM536.038 359.905H526.033V349.888H536.038V359.905ZM536.038 349.793H526.033V339.789H536.038V349.793ZM536.038 339.681H526.033V329.681H536.038V339.681ZM536.038 329.574H526.033V319.569H536.038V329.574ZM536.038 319.462H526.033V309.457H536.038V319.462ZM536.038 309.35H526.033V299.345H536.038V309.35ZM536.038 299.238H526.033V289.233H536.038V299.238ZM536.038 289.126H526.033V279.121H536.038V289.126ZM536.038 279.014H526.033V269.009H536.038V279.014ZM536.038 268.902H526.033V258.897H536.038V268.902ZM536.038 258.79H526.033V248.785H536.038V258.79ZM536.038 248.678H526.033V238.673H536.038V248.678ZM536.038 238.566H526.033V228.561H536.038V238.566ZM536.038 228.454H526.033V218.449H536.038V228.454ZM536.038 218.341H526.033V208.337H536.038V218.341ZM546.152 420.577H536.146V410.573H546.152V420.577ZM546.152 410.465H536.146V400.461H546.152V410.465ZM546.152 400.353H536.146V390.37H546.152V400.353ZM546.152 390.241H536.146V380.237H546.152V390.241ZM546.152 380.129H536.146V370.129H546.152V380.129ZM546.152 370.017H536.146V360.013H546.152V370.017ZM546.152 359.905H536.146V349.888H546.152V359.905ZM546.152 349.793H536.146V339.789H546.152V349.793ZM546.152 339.681H536.146V329.681H546.152V339.681ZM546.152 329.574H536.146V319.569H546.152V329.574ZM546.152 319.462H536.146V309.457H546.152V319.462ZM546.152 309.35H536.146V299.345H546.152V309.35ZM546.152 299.238H536.146V289.233H546.152V299.238ZM546.152 289.126H536.146V279.121H546.152V289.126ZM546.152 279.014H536.146V269.009H546.152V279.014ZM546.152 268.902H536.146V258.897H546.152V268.902ZM546.152 258.79H536.146V248.785H546.152V258.79ZM546.152 248.678H536.146V238.673H546.152V248.678ZM546.152 238.566H536.146V228.561H546.152V238.566ZM546.152 228.454H536.146V218.449H546.152V228.454ZM546.152 218.341H536.146V208.337H546.152V218.341ZM556.265 420.577H546.259V410.573H556.265V420.577ZM556.265 410.465H546.259V400.461H556.265V410.465ZM556.265 400.353H546.259V390.37H556.265V400.353ZM556.265 390.241H546.259V380.237H556.265V390.241ZM556.265 380.129H546.259V370.129H556.265V380.129ZM556.265 370.017H546.259V360.013H556.265V370.017ZM556.265 359.905H546.259V349.888H556.265V359.905ZM556.265 349.793H546.259V339.789H556.265V349.793ZM556.265 339.681H546.259V329.681H556.265V339.681ZM556.265 329.574H546.259V319.569H556.265V329.574ZM556.265 319.462H546.259V309.457H556.265V319.462ZM556.265 309.35H546.259V299.345H556.265V309.35ZM556.265 299.238H546.259V289.233H556.265V299.238ZM556.265 289.126H546.259V279.121H556.265V289.126ZM556.265 279.014H546.259V269.009H556.265V279.014ZM556.265 268.902H546.259V258.897H556.265V268.902ZM556.265 258.79H546.259V248.785H556.265V258.79ZM556.265 248.678H546.259V238.673H556.265V248.678ZM556.265 238.566H546.259V228.561H556.265V238.566ZM556.265 228.454H546.259V218.449H556.265V228.454ZM556.265 218.341H546.259V208.337H556.265V218.341ZM566.378 420.577H556.372V410.573H566.378V420.577ZM566.378 410.465H556.372V400.461H566.378V410.465ZM566.378 400.353H556.372V390.37H566.378V400.353ZM566.378 390.241H556.372V380.237H566.378V390.241ZM566.378 380.129H556.372V370.129H566.378V380.129ZM566.378 370.017H556.372V360.013H566.378V370.017ZM566.378 359.905H556.372V349.888H566.378V359.905ZM566.378 349.793H556.372V339.789H566.378V349.793ZM566.378 339.681H556.372V329.681H566.378V339.681ZM566.378 329.574H556.372V319.569H566.378V329.574ZM566.378 319.462H556.372V309.457H566.378V319.462ZM566.378 309.35H556.372V299.345H566.378V309.35ZM566.378 299.238H556.372V289.233H566.378V299.238ZM566.378 289.126H556.372V279.121H566.378V289.126ZM566.378 279.014H556.372V269.009H566.378V279.014ZM566.378 268.902H556.372V258.897H566.378V268.902ZM566.378 258.79H556.372V248.785H566.378V258.79ZM566.378 248.678H556.372V238.673H566.378V248.678ZM566.378 238.566H556.372V228.561H566.378V238.566ZM566.378 228.454H556.372V218.449H566.378V228.454ZM566.378 218.341H556.372V208.337H566.378V218.341ZM576.478 420.577H566.485V410.573H576.478V420.577ZM576.478 410.465H566.485V400.461H576.478V410.465ZM576.478 400.353H566.485V390.37H576.478V400.353ZM576.478 390.241H566.485V380.237H576.478V390.241ZM576.478 380.129H566.485V370.129H576.478V380.129ZM576.478 370.017H566.485V360.013H576.478V370.017ZM576.478 359.905H566.485V349.888H576.478V359.905ZM576.478 349.793H566.485V339.789H576.478V349.793ZM576.478 339.681H566.485V329.681H576.478V339.681ZM576.478 329.574H566.485V319.569H576.478V329.574ZM576.478 319.462H566.485V309.457H576.478V319.462ZM576.478 309.35H566.485V299.345H576.478V309.35ZM576.478 299.238H566.485V289.233H576.478V299.238ZM576.478 289.126H566.485V279.121H576.478V289.126ZM576.478 279.014H566.485V269.009H576.478V279.014ZM576.478 268.923H566.485V258.897H576.478V268.923ZM576.478 258.811H566.485V248.785H576.478V258.811ZM576.478 248.682H566.485V238.673H576.478V248.682ZM576.478 238.57H566.485V228.561H576.478V238.57ZM576.478 228.441H566.485V218.449H576.478V228.441ZM576.478 218.329H566.485V208.337H576.478V218.329ZM586.591 420.564H576.598V410.573H586.604L586.591 420.564ZM586.591 410.452H576.598V400.461H586.604L586.591 410.452ZM586.591 400.34H576.598V390.37H586.604L586.591 400.34ZM586.591 390.228H576.598V380.237H586.604L586.591 390.228ZM586.591 380.116H576.598V370.129H586.604L586.591 380.116ZM586.591 370.004H576.598V360.013H586.604L586.591 370.004ZM586.591 359.892H576.598V349.888H586.604L586.591 359.892ZM586.591 349.78H576.598V339.789H586.604L586.591 349.78ZM586.591 339.668H576.598V329.681H586.604L586.591 339.668ZM586.591 329.561H576.598V319.569H586.604L586.591 329.561ZM586.591 319.449H576.598V309.457H586.604L586.591 319.449ZM586.591 309.337H576.598V299.345H586.604L586.591 309.337ZM586.591 299.225H576.598V289.233H586.604L586.591 299.225ZM586.591 289.113H576.598V279.121H586.604L586.591 289.113ZM586.591 279.001H576.598V269.009H586.604L586.591 279.001ZM586.591 268.889H576.598V258.897H586.604L586.591 268.889ZM586.591 258.777H576.598V248.785H586.604L586.591 258.777ZM586.591 248.665H576.598V238.673H586.604L586.591 248.665ZM586.591 238.553H576.598V228.561H586.604L586.591 238.553ZM586.591 228.441H576.598V218.449H586.604L586.591 228.441ZM586.591 218.329H576.598V208.337H586.604L586.591 218.329ZM596.721 420.577H586.711V410.573H596.721V420.577ZM596.721 410.465H586.711V400.461H596.721V410.465ZM596.721 400.353H586.711V390.37H596.721V400.353ZM596.721 390.241H586.711V380.237H596.721V390.241ZM596.721 380.129H586.711V370.129H596.721V380.129ZM596.721 370.017H586.711V360.013H596.721V370.017ZM596.721 359.905H586.711V349.888H596.721V359.905ZM596.721 349.793H586.711V339.789H596.721V349.793ZM596.721 339.681H586.711V329.681H596.721V339.681ZM596.721 329.574H586.711V319.569H596.721V329.574ZM596.721 319.462H586.711V309.457H596.721V319.462ZM596.721 309.35H586.711V299.345H596.721V309.35ZM596.721 299.238H586.711V289.233H596.721V299.238ZM596.721 289.126H586.711V279.121H596.721V289.126ZM596.721 279.014H586.711V269.009H596.721V279.014ZM596.721 268.923H586.711V258.897H596.721V268.923ZM596.721 258.811H586.711V248.785H596.721V258.811ZM596.721 248.682H586.711V238.673H596.721V248.682ZM596.721 238.57H586.711V228.561H596.721V238.57ZM596.721 228.441H586.711V218.449H596.721V228.441ZM596.721 218.329H586.711V208.337H596.721V218.329ZM606.834 420.564H596.824V410.573H606.83L606.834 420.564ZM606.834 410.452H596.824V400.461H606.83L606.834 410.452ZM606.834 400.34H596.824V390.37H606.83L606.834 400.34ZM606.834 390.228H596.824V380.237H606.83L606.834 390.228ZM606.834 380.116H596.824V370.129H606.83L606.834 380.116ZM606.834 370.004H596.824V360.013H606.83L606.834 370.004ZM606.834 359.892H596.824V349.888H606.83L606.834 359.892ZM606.834 349.78H596.824V339.789H606.83L606.834 349.78ZM606.834 339.668H596.824V329.681H606.83L606.834 339.668ZM606.834 329.561H596.824V319.569H606.83L606.834 329.561ZM606.834 319.449H596.824V309.457H606.83L606.834 319.449ZM606.834 309.337H596.824V299.345H606.83L606.834 309.337ZM606.834 299.225H596.824V289.233H606.83L606.834 299.225ZM606.834 289.113H596.824V279.121H606.83L606.834 289.113ZM606.834 279.001H596.824V269.009H606.83L606.834 279.001ZM606.834 268.889H596.824V258.897H606.83L606.834 268.889ZM606.834 258.777H596.824V248.785H606.83L606.834 258.777ZM606.834 248.665H596.824V238.673H606.83L606.834 248.665ZM606.834 238.553H596.824V228.561H606.83L606.834 238.553ZM606.834 228.441H596.824V218.449H606.83L606.834 228.441ZM606.834 218.329H596.824V208.337H606.83L606.834 218.329ZM616.964 420.577H606.937V410.573H616.964V420.577ZM616.964 410.465H606.937V400.461H616.964V410.465ZM616.964 400.353H606.937V390.37H616.964V400.353ZM616.964 390.241H606.937V380.237H616.964V390.241ZM616.964 380.129H606.937V370.129H616.964V380.129ZM616.964 370.017H606.937V360.013H616.964V370.017ZM616.964 359.905H606.937V349.888H616.964V359.905ZM616.964 349.793H606.937V339.789H616.964V349.793ZM616.964 339.681H606.937V329.681H616.964V339.681ZM616.964 329.574H606.937V319.569H616.964V329.574ZM616.964 319.462H606.937V309.457H616.964V319.462ZM616.964 309.35H606.937V299.345H616.964V309.35ZM616.964 299.238H606.937V289.233H616.964V299.238ZM616.964 289.126H606.937V279.121H616.964V289.126ZM616.964 279.014H606.937V269.009H616.964V279.014ZM616.964 268.923H606.937V258.897H616.964V268.923ZM616.964 258.811H606.937V248.785H616.964V258.811ZM616.964 248.682H606.937V238.673H616.964V248.682ZM616.964 238.57H606.937V228.561H616.964V238.57ZM616.964 228.441H606.937V218.449H616.964V228.441ZM616.964 218.329H606.937V208.337H616.964V218.329Z" fill="url(#paint1_radial_1520_1616)"/>
<defs>
<radialGradient id="paint0_radial_1520_1616" cx="0" cy="0" r="1" gradientUnits="userSpaceOnUse" gradientTransform="translate(474.214 418.723) scale(210.5)">
<stop stop-color="#FFFFE0"/>
<stop offset="1" stop-color="#FFFFE0" stop-opacity="0"/>
</radialGradient>
<radialGradient id="paint1_radial_1520_1616" cx="0" cy="0" r="1" gradientUnits="userSpaceOnUse" gradientTransform="translate(510.812 314.457) scale(106.239 106.228)">
<stop stop-color="#FFFFE0"/>
<stop offset="1" stop-color="#FFFFE0" stop-opacity="0"/>
</radialGradient>
</defs>
</svg>
