<svg width="129" height="49" viewBox="0 0 129 49" fill="none" xmlns="http://www.w3.org/2000/svg">
<path d="M51.1805 48.8687C54.0984 48.8687 56.4639 46.5032 56.4639 43.5852C56.4639 40.6673 54.0984 38.3018 51.1805 38.3018C48.2625 38.3018 45.897 40.6673 45.897 43.5852C45.897 46.5032 48.2625 48.8687 51.1805 48.8687Z" fill="url(#paint0_radial_1530_1586)"/>
<path d="M9.45907 18.6759C14.4901 18.6759 18.5685 14.5975 18.5685 9.56649C18.5685 4.53547 14.4901 0.457031 9.45907 0.457031C4.42805 0.457031 0.349609 4.53547 0.349609 9.56649C0.349609 14.5975 4.42805 18.6759 9.45907 18.6759Z" fill="url(#paint1_radial_1530_1586)"/>
<path d="M123.185 20.8687C126.103 20.8687 128.468 18.5032 128.468 15.5852C128.468 12.6673 126.103 10.3018 123.185 10.3018C120.267 10.3018 117.901 12.6673 117.901 15.5852C117.901 18.5032 120.267 20.8687 123.185 20.8687Z" fill="url(#paint2_radial_1530_1586)"/>
<defs>
<radialGradient id="paint0_radial_1530_1586" cx="0" cy="0" r="1" gradientUnits="userSpaceOnUse" gradientTransform="translate(54.0905 40.5921) rotate(45) scale(8.25295)">
<stop stop-color="#34D399"/>
<stop offset="1" stop-color="#AAFF00"/>
</radialGradient>
<radialGradient id="paint1_radial_1530_1586" cx="0" cy="0" r="1" gradientUnits="userSpaceOnUse" gradientTransform="translate(9.45907 9.56649) rotate(90) scale(9.10946)">
<stop stop-color="#34D399"/>
<stop offset="1" stop-color="#AAFF00"/>
</radialGradient>
<radialGradient id="paint2_radial_1530_1586" cx="0" cy="0" r="1" gradientUnits="userSpaceOnUse" gradientTransform="translate(126.095 12.5921) rotate(45) scale(8.25295)">
<stop stop-color="#34D399"/>
<stop offset="1" stop-color="#AAFF00"/>
</radialGradient>
</defs>
</svg>
