<svg width="313" height="114" viewBox="0 0 313 114" fill="none" xmlns="http://www.w3.org/2000/svg">
<path d="M156.032 13.1719L153.199 14.7483C153.575 14.9573 154.084 15.0748 154.616 15.0748C155.147 15.0748 155.657 14.9573 156.032 14.7483C156.408 14.5393 156.619 14.2557 156.619 13.9601C156.619 13.6645 156.408 13.3809 156.032 13.1719V13.1719Z" fill="#E4585D"/>
<path d="M153.179 14.7379L156.012 13.1615C155.636 12.9524 155.127 12.835 154.596 12.835C154.064 12.835 153.555 12.9524 153.179 13.1615C152.803 13.3705 152.592 13.654 152.592 13.9497C152.592 14.2453 152.803 14.5288 153.179 14.7379V14.7379Z" fill="#E4585D"/>
<path d="M251.047 0.326172L248.214 1.9026C248.4 2.00611 248.62 2.08822 248.864 2.14424C249.107 2.20025 249.367 2.22909 249.63 2.22909C249.893 2.22909 250.154 2.20025 250.397 2.14424C250.64 2.08822 250.861 2.00611 251.047 1.9026C251.233 1.79909 251.381 1.67621 251.481 1.54097C251.582 1.40573 251.634 1.26078 251.634 1.11439C251.634 0.968008 251.582 0.823059 251.481 0.687817C251.381 0.552575 251.233 0.429682 251.047 0.326172V0.326172Z" fill="#E4585D"/>
<path d="M248.214 1.90292L251.047 0.326493C250.671 0.117445 250.162 -2.28908e-08 249.63 0C249.099 2.28909e-08 248.589 0.117445 248.214 0.326493C247.838 0.53554 247.627 0.819076 247.627 1.11471C247.627 1.41035 247.838 1.69387 248.214 1.90292V1.90292Z" fill="#E4585D"/>
<path d="M312.091 38.5303L309.258 40.1067C309.444 40.2102 309.665 40.2923 309.908 40.3483C310.151 40.4044 310.412 40.4332 310.675 40.4332C310.938 40.4332 311.198 40.4044 311.441 40.3483C311.685 40.2923 311.905 40.2102 312.091 40.1067C312.277 40.0032 312.425 39.8803 312.526 39.7451C312.626 39.6098 312.678 39.4649 312.678 39.3185C312.678 39.1721 312.626 39.0272 312.526 38.8919C312.425 38.7567 312.277 38.6338 312.091 38.5303V38.5303Z" fill="#E4585D"/>
<path d="M309.258 40.108L312.091 38.5316C311.716 38.3225 311.206 38.2051 310.675 38.2051C310.143 38.2051 309.634 38.3225 309.258 38.5316C308.882 38.7406 308.671 39.0242 308.671 39.3198C308.671 39.6154 308.882 39.8989 309.258 40.108V40.108Z" fill="#E4585D"/>
<path d="M212.425 34.8828L209.592 36.4592C209.967 36.6683 210.477 36.7857 211.008 36.7857C211.54 36.7857 212.049 36.6683 212.425 36.4592C212.801 36.2502 213.012 35.9667 213.012 35.671C213.012 35.3754 212.801 35.0919 212.425 34.8828V34.8828Z" fill="#E4585D"/>
<path d="M210.151 36.7521L213.029 35.2592C212.66 35.0393 212.154 34.907 211.623 34.8914C211.092 34.8759 210.579 34.9784 210.197 35.1764C209.815 35.3744 209.596 35.6516 209.588 35.9471C209.579 36.2426 209.782 36.5322 210.151 36.7521V36.7521Z" fill="#E4585D"/>
<path d="M21.1178 65.6398C32.7809 62.5147 44.7901 69.5148 47.9412 81.2751C51.0924 93.0352 44.1921 105.102 32.5291 108.227C20.8661 111.352 8.85688 104.352 5.70574 92.592C2.5546 80.8318 9.45484 68.7649 21.1178 65.6398Z" fill="url(#paint0_radial_1530_1584)"/>
<defs>
<radialGradient id="paint0_radial_1530_1584" cx="0" cy="0" r="1" gradientUnits="userSpaceOnUse" gradientTransform="translate(41.6863 95.8801) rotate(-60.2377) scale(34.2927 34.2915)">
<stop stop-color="#34D399"/>
<stop offset="1" stop-color="#AAFF00"/>
</radialGradient>
</defs>
</svg>
