<svg width="390" height="364" viewBox="0 0 390 364" fill="none" xmlns="http://www.w3.org/2000/svg">
<path d="M129.018 211.339C154.676 211.339 175.477 190.539 175.477 164.881C175.477 139.223 154.676 118.423 129.018 118.423C103.36 118.423 82.5601 139.223 82.5601 164.881C82.5601 190.539 103.36 211.339 129.018 211.339Z" fill="url(#paint0_radial_993_1844)"/>
<path d="M371.534 111.842C381.799 150.086 359.122 189.409 320.882 199.679C282.642 209.948 243.323 187.273 233.057 149.033C222.79 110.792 183.471 88.1167 145.231 98.3866C106.991 108.657 84.3081 147.989 94.5698 186.231" stroke="white" stroke-width="0.25" stroke-miterlimit="10"/>
<path opacity="0.5" d="M8 107.492V311.544H212.052V107.492H8ZM17.712 311.441H8.10341V301.832H17.712V311.441ZM17.712 301.729H8.10341V292.12H17.712V301.729ZM17.712 292.017H8.10341V282.429H17.712V292.017ZM17.712 282.305H8.10341V272.696H17.712V282.305ZM17.712 272.593H8.10341V262.988H17.712V272.593ZM17.712 262.88H8.10341V253.272H17.712V262.88ZM17.712 253.168H8.10341V243.547H17.712V253.168ZM17.712 243.456H8.10341V233.848H17.712V243.456ZM17.712 233.744H8.10341V224.14H17.712V233.744ZM17.712 224.037H8.10341V214.428H17.712V224.037ZM17.712 214.324H8.10341V204.716H17.712V214.324ZM17.712 204.612H8.10341V195.004H17.712V204.612ZM17.712 194.9H8.10341V185.292H17.712V194.9ZM17.712 185.188H8.10341V175.58H17.712V185.188ZM17.712 175.476H8.10341V165.868H17.712V175.476ZM17.712 165.764H8.10341V156.156H17.712V165.764ZM17.712 156.052H8.10341V146.444H17.712V156.052ZM17.712 146.34H8.10341V136.732H17.712V146.34ZM17.712 136.628H8.10341V127.02H17.712V136.628ZM17.712 126.916H8.10341V117.308H17.712V126.916ZM17.712 117.204H8.10341V107.596H17.712V117.204ZM27.4241 311.441H17.8154V301.832H27.4241V311.441ZM27.4241 301.729H17.8154V292.12H27.4241V301.729ZM27.4241 292.017H17.8154V282.429H27.4241V292.017ZM27.4241 282.305H17.8154V272.696H27.4241V282.305ZM27.4241 272.593H17.8154V262.988H27.4241V272.593ZM27.4241 262.88H17.8154V253.272H27.4241V262.88ZM27.4241 253.168H17.8154V243.547H27.4241V253.168ZM27.4241 243.456H17.8154V233.848H27.4241V243.456ZM27.4241 233.744H17.8154V224.14H27.4241V233.744ZM27.4241 224.037H17.8154V214.428H27.4241V224.037ZM27.4241 214.324H17.8154V204.716H27.4241V214.324ZM27.4241 204.612H17.8154V195.004H27.4241V204.612ZM27.4241 194.9H17.8154V185.292H27.4241V194.9ZM27.4241 185.188H17.8154V175.58H27.4241V185.188ZM27.4241 175.476H17.8154V165.868H27.4241V175.476ZM27.4241 165.764H17.8154V156.156H27.4241V165.764ZM27.4241 156.052H17.8154V146.444H27.4241V156.052ZM27.4241 146.34H17.8154V136.732H27.4241V146.34ZM27.4241 136.628H17.8154V127.02H27.4241V136.628ZM27.4241 126.916H17.8154V117.308H27.4241V126.916ZM27.4241 117.204H17.8154V107.596H27.4241V117.204ZM37.1361 311.441H27.5275V301.832H37.1361V311.441ZM37.1361 301.729H27.5275V292.12H37.1361V301.729ZM37.1361 292.017H27.5275V282.429H37.1361V292.017ZM37.1361 282.305H27.5275V272.696H37.1361V282.305ZM37.1361 272.593H27.5275V262.988H37.1361V272.593ZM37.1361 262.88H27.5275V253.272H37.1361V262.88ZM37.1361 253.168H27.5275V243.547H37.1361V253.168ZM37.1361 243.456H27.5275V233.848H37.1361V243.456ZM37.1361 233.744H27.5275V224.14H37.1361V233.744ZM37.1361 224.037H27.5275V214.428H37.1361V224.037ZM37.1361 214.324H27.5275V204.716H37.1361V214.324ZM37.1361 204.612H27.5275V195.004H37.1361V204.612ZM37.1361 194.9H27.5275V185.292H37.1361V194.9ZM37.1361 185.188H27.5275V175.58H37.1361V185.188ZM37.1361 175.476H27.5275V165.868H37.1361V175.476ZM37.1361 165.764H27.5275V156.156H37.1361V165.764ZM37.1361 156.052H27.5275V146.444H37.1361V156.052ZM37.1361 146.34H27.5275V136.732H37.1361V146.34ZM37.1361 136.628H27.5275V127.02H37.1361V136.628ZM37.1361 126.916H27.5275V117.308H37.1361V126.916ZM37.1361 117.204H27.5275V107.596H37.1361V117.204ZM46.8481 311.441H37.2395V301.832H46.8481V311.441ZM46.8481 301.729H37.2395V292.12H46.8481V301.729ZM46.8481 292.017H37.2395V282.429H46.8481V292.017ZM46.8481 282.305H37.2395V272.696H46.8481V282.305ZM46.8481 272.593H37.2395V262.988H46.8481V272.593ZM46.8481 262.88H37.2395V253.272H46.8481V262.88ZM46.8481 253.168H37.2395V243.547H46.8481V253.168ZM46.8481 243.456H37.2395V233.848H46.8481V243.456ZM46.8481 233.744H37.2395V224.14H46.8481V233.744ZM46.8481 224.037H37.2395V214.428H46.8481V224.037ZM46.8481 214.324H37.2395V204.716H46.8481V214.324ZM46.8481 204.612H37.2395V195.004H46.8481V204.612ZM46.8481 194.9H37.2395V185.292H46.8481V194.9ZM46.8481 185.188H37.2395V175.58H46.8481V185.188ZM46.8481 175.476H37.2395V165.868H46.8481V175.476ZM46.8481 165.764H37.2395V156.156H46.8481V165.764ZM46.8481 156.052H37.2395V146.444H46.8481V156.052ZM46.8481 146.34H37.2395V136.732H46.8481V146.34ZM46.8481 136.628H37.2395V127.02H46.8481V136.628ZM46.8481 126.916H37.2395V117.308H46.8481V126.916ZM46.8481 117.204H37.2395V107.596H46.8481V117.204ZM56.5601 311.441H46.9515V301.832H56.5601V311.441ZM56.5601 301.729H46.9515V292.12H56.5601V301.729ZM56.5601 292.017H46.9515V282.429H56.5601V292.017ZM56.5601 282.305H46.9515V272.696H56.5601V282.305ZM56.5601 272.593H46.9515V262.988H56.5601V272.593ZM56.5601 262.88H46.9515V253.272H56.5601V262.88ZM56.5601 253.168H46.9515V243.547H56.5601V253.168ZM56.5601 243.456H46.9515V233.848H56.5601V243.456ZM56.5601 233.744H46.9515V224.14H56.5601V233.744ZM56.5601 224.037H46.9515V214.428H56.5601V224.037ZM56.5601 214.324H46.9515V204.716H56.5601V214.324ZM56.5601 204.612H46.9515V195.004H56.5601V204.612ZM56.5601 194.9H46.9515V185.292H56.5601V194.9ZM56.5601 185.188H46.9515V175.58H56.5601V185.188ZM56.5601 175.476H46.9515V165.868H56.5601V175.476ZM56.5601 165.764H46.9515V156.156H56.5601V165.764ZM56.5601 156.052H46.9515V146.444H56.5601V156.052ZM56.5601 146.34H46.9515V136.732H56.5601V146.34ZM56.5601 136.628H46.9515V127.02H56.5601V136.628ZM56.5601 126.916H46.9515V117.308H56.5601V126.916ZM56.5601 117.204H46.9515V107.596H56.5601V117.204ZM66.2722 311.441H56.6635V301.832H66.2722V311.441ZM66.2722 301.729H56.6635V292.12H66.2722V301.729ZM66.2722 292.017H56.6635V282.429H66.2722V292.017ZM66.2722 282.305H56.6635V272.696H66.2722V282.305ZM66.2722 272.593H56.6635V262.988H66.2722V272.593ZM66.2722 262.88H56.6635V253.272H66.2722V262.88ZM66.2722 253.168H56.6635V243.547H66.2722V253.168ZM66.2722 243.456H56.6635V233.848H66.2722V243.456ZM66.2722 233.744H56.6635V224.14H66.2722V233.744ZM66.2722 224.037H56.6635V214.428H66.2722V224.037ZM66.2722 214.324H56.6635V204.716H66.2722V214.324ZM66.2722 204.612H56.6635V195.004H66.2722V204.612ZM66.2722 194.9H56.6635V185.292H66.2722V194.9ZM66.2722 185.188H56.6635V175.58H66.2722V185.188ZM66.2722 175.476H56.6635V165.868H66.2722V175.476ZM66.2722 165.764H56.6635V156.156H66.2722V165.764ZM66.2722 156.052H56.6635V146.444H66.2722V156.052ZM66.2722 146.34H56.6635V136.732H66.2722V146.34ZM66.2722 136.628H56.6635V127.02H66.2722V136.628ZM66.2722 126.916H56.6635V117.308H66.2722V126.916ZM66.2722 117.204H56.6635V107.596H66.2722V117.204ZM75.9842 311.441H66.3714V301.832H75.9801L75.9842 311.441ZM75.9842 301.729H66.3714V292.12H75.9801L75.9842 301.729ZM75.9842 292.017H66.3714V282.429H75.9801L75.9842 292.017ZM75.9842 282.305H66.3714V272.696H75.9801L75.9842 282.305ZM75.9842 272.593H66.3714V262.988H75.9801L75.9842 272.593ZM75.9842 262.88H66.3714V253.272H75.9801L75.9842 262.88ZM75.9842 253.168H66.3714V243.547H75.9801L75.9842 253.168ZM75.9842 243.456H66.3714V233.848H75.9801L75.9842 243.456ZM75.9842 233.744H66.3714V224.14H75.9801L75.9842 233.744ZM75.9842 224.037H66.3714V214.428H75.9801L75.9842 224.037ZM75.9842 214.324H66.3714V204.716H75.9801L75.9842 214.324ZM75.9842 204.612H66.3714V195.004H75.9801L75.9842 204.612ZM75.9842 194.9H66.3714V185.292H75.9801L75.9842 194.9ZM75.9842 185.188H66.3714V175.58H75.9801L75.9842 185.188ZM75.9842 175.476H66.3714V165.868H75.9801L75.9842 175.476ZM75.9842 165.764H66.3714V156.156H75.9801L75.9842 165.764ZM75.9842 156.052H66.3714V146.444H75.9801L75.9842 156.052ZM75.9842 146.34H66.3714V136.732H75.9801L75.9842 146.34ZM75.9842 136.628H66.3714V127.02H75.9801L75.9842 136.628ZM75.9842 126.916H66.3714V117.308H75.9801L75.9842 126.916ZM75.9842 117.204H66.3714V107.596H75.9801L75.9842 117.204ZM85.6962 311.441H76.0876V301.832H85.6962V311.441ZM85.6962 301.729H76.0876V292.12H85.6962V301.729ZM85.6962 292.017H76.0876V282.429H85.6962V292.017ZM85.6962 282.305H76.0876V272.696H85.6962V282.305ZM85.6962 272.593H76.0876V262.988H85.6962V272.593ZM85.6962 262.88H76.0876V253.272H85.6962V262.88ZM85.6962 253.168H76.0876V243.547H85.6962V253.168ZM85.6962 243.456H76.0876V233.848H85.6962V243.456ZM85.6962 233.744H76.0876V224.14H85.6962V233.744ZM85.6962 224.037H76.0876V214.428H85.6962V224.037ZM85.6962 214.324H76.0876V204.716H85.6962V214.324ZM85.6962 204.612H76.0876V195.004H85.6962V204.612ZM85.6962 194.9H76.0876V185.292H85.6962V194.9ZM85.6962 185.188H76.0876V175.58H85.6962V185.188ZM85.6962 175.476H76.0876V165.868H85.6962V175.476ZM85.6962 165.764H76.0876V156.156H85.6962V165.764ZM85.6962 156.052H76.0876V146.444H85.6962V156.052ZM85.6962 146.34H76.0876V136.732H85.6962V146.34ZM85.6962 136.628H76.0876V127.02H85.6962V136.628ZM85.6962 126.916H76.0876V117.308H85.6962V126.916ZM85.6962 117.204H76.0876V107.596H85.6962V117.204ZM95.4041 311.441H85.812V301.832H95.4165L95.4041 311.441ZM95.4041 301.729H85.812V292.12H95.4165L95.4041 301.729ZM95.4041 292.017H85.812V282.429H95.4165L95.4041 292.017ZM95.4041 282.305H85.812V272.696H95.4165L95.4041 282.305ZM95.4041 272.593H85.812V262.988H95.4165L95.4041 272.593ZM95.4041 262.88H85.812V253.272H95.4165L95.4041 262.88ZM95.4041 253.168H85.812V243.547H95.4165L95.4041 253.168ZM95.4041 243.456H85.812V233.848H95.4165L95.4041 243.456ZM95.4041 233.744H85.812V224.14H95.4165L95.4041 233.744ZM95.4041 224.037H85.812V214.428H95.4165L95.4041 224.037ZM95.4041 214.324H85.812V204.716H95.4165L95.4041 214.324ZM95.4041 204.612H85.812V195.004H95.4165L95.4041 204.612ZM95.4041 194.9H85.812V185.292H95.4165L95.4041 194.9ZM95.4041 185.188H85.812V175.58H95.4165L95.4041 185.188ZM95.4041 175.476H85.812V165.868H95.4165L95.4041 175.476ZM95.4041 165.764H85.812V156.156H95.4165L95.4041 165.764ZM95.4041 156.052H85.812V146.444H95.4165L95.4041 156.052ZM95.4041 146.34H85.812V136.732H95.4165L95.4041 146.34ZM95.4041 136.628H85.812V127.02H95.4165L95.4041 136.628ZM95.4041 126.916H85.812V117.308H95.4165L95.4041 126.916ZM95.4041 117.204H85.812V107.596H95.4165L95.4041 117.204ZM105.116 311.441H95.5075V301.832H105.116V311.441ZM105.116 301.729H95.5075V292.12H105.116V301.729ZM105.116 292.017H95.5075V282.429H105.116V292.017ZM105.116 282.305H95.5075V272.696H105.116V282.305ZM105.116 272.593H95.5075V262.988H105.116V272.593ZM105.116 262.88H95.5075V253.272H105.116V262.88ZM105.116 253.168H95.5075V243.547H105.116V253.168ZM105.116 243.456H95.5075V233.848H105.116V243.456ZM105.116 233.744H95.5075V224.14H105.116V233.744ZM105.116 224.037H95.5075V214.428H105.116V224.037ZM105.116 214.324H95.5075V204.716H105.116V214.324ZM105.116 204.612H95.5075V195.004H105.116V204.612ZM105.116 194.9H95.5075V185.292H105.116V194.9ZM105.116 185.188H95.5075V175.58H105.116V185.188ZM105.116 175.476H95.5075V165.868H105.116V175.476ZM105.116 165.764H95.5075V156.156H105.116V165.764ZM105.116 156.052H95.5075V146.444H105.116V156.052ZM105.116 146.34H95.5075V136.732H105.116V146.34ZM105.116 136.628H95.5075V127.02H105.116V136.628ZM105.116 126.916H95.5075V117.308H105.116V126.916ZM105.116 117.204H95.5075V107.596H105.116V117.204ZM114.828 311.441H105.22V301.832H114.828V311.441ZM114.828 301.729H105.22V292.12H114.828V301.729ZM114.828 292.017H105.22V282.429H114.828V292.017ZM114.828 282.305H105.22V272.696H114.828V282.305ZM114.828 272.593H105.22V262.988H114.828V272.593ZM114.828 262.88H105.22V253.272H114.828V262.88ZM114.828 253.168H105.22V243.547H114.828V253.168ZM114.828 243.456H105.22V233.848H114.828V243.456ZM114.828 233.744H105.22V224.14H114.828V233.744ZM114.828 224.037H105.22V214.428H114.828V224.037ZM114.828 214.324H105.22V204.716H114.828V214.324ZM114.828 204.612H105.22V195.004H114.828V204.612ZM114.828 194.9H105.22V185.292H114.828V194.9ZM114.828 185.188H105.22V175.58H114.828V185.188ZM114.828 175.476H105.22V165.868H114.828V175.476ZM114.828 165.764H105.22V156.156H114.828V165.764ZM114.828 156.052H105.22V146.444H114.828V156.052ZM114.828 146.34H105.22V136.732H114.828V146.34ZM114.828 136.628H105.22V127.02H114.828V136.628ZM114.828 126.916H105.22V117.308H114.828V126.916ZM114.828 117.204H105.22V107.596H114.828V117.204ZM124.54 311.441H114.932V301.832H124.54V311.441ZM124.54 301.729H114.932V292.12H124.54V301.729ZM124.54 292.017H114.932V282.429H124.54V292.017ZM124.54 282.305H114.932V272.696H124.54V282.305ZM124.54 272.593H114.932V262.988H124.54V272.593ZM124.54 262.88H114.932V253.272H124.54V262.88ZM124.54 253.168H114.932V243.547H124.54V253.168ZM124.54 243.456H114.932V233.848H124.54V243.456ZM124.54 233.744H114.932V224.14H124.54V233.744ZM124.54 224.037H114.932V214.428H124.54V224.037ZM124.54 214.324H114.932V204.716H124.54V214.324ZM124.54 204.612H114.932V195.004H124.54V204.612ZM124.54 194.9H114.932V185.292H124.54V194.9ZM124.54 185.188H114.932V175.58H124.54V185.188ZM124.54 175.476H114.932V165.868H124.54V175.476ZM124.54 165.764H114.932V156.156H124.54V165.764ZM124.54 156.052H114.932V146.444H124.54V156.052ZM124.54 146.34H114.932V136.732H124.54V146.34ZM124.54 136.628H114.932V127.02H124.54V136.628ZM124.54 126.916H114.932V117.308H124.54V126.916ZM124.54 117.204H114.932V107.596H124.54V117.204ZM134.252 311.441H124.644V301.832H134.252V311.441ZM134.252 301.729H124.644V292.12H134.252V301.729ZM134.252 292.017H124.644V282.429H134.252V292.017ZM134.252 282.305H124.644V272.696H134.252V282.305ZM134.252 272.593H124.644V262.988H134.252V272.593ZM134.252 262.88H124.644V253.272H134.252V262.88ZM134.252 253.168H124.644V243.547H134.252V253.168ZM134.252 243.456H124.644V233.848H134.252V243.456ZM134.252 233.744H124.644V224.14H134.252V233.744ZM134.252 224.037H124.644V214.428H134.252V224.037ZM134.252 214.324H124.644V204.716H134.252V214.324ZM134.252 204.612H124.644V195.004H134.252V204.612ZM134.252 194.9H124.644V185.292H134.252V194.9ZM134.252 185.188H124.644V175.58H134.252V185.188ZM134.252 175.476H124.644V165.868H134.252V175.476ZM134.252 165.764H124.644V156.156H134.252V165.764ZM134.252 156.052H124.644V146.444H134.252V156.052ZM134.252 146.34H124.644V136.732H134.252V146.34ZM134.252 136.628H124.644V127.02H134.252V136.628ZM134.252 126.916H124.644V117.308H134.252V126.916ZM134.252 117.204H124.644V107.596H134.252V117.204ZM143.964 311.441H134.356V301.832H143.964V311.441ZM143.964 301.729H134.356V292.12H143.964V301.729ZM143.964 292.017H134.356V282.429H143.964V292.017ZM143.964 282.305H134.356V272.696H143.964V282.305ZM143.964 272.593H134.356V262.988H143.964V272.593ZM143.964 262.88H134.356V253.272H143.964V262.88ZM143.964 253.168H134.356V243.547H143.964V253.168ZM143.964 243.456H134.356V233.848H143.964V243.456ZM143.964 233.744H134.356V224.14H143.964V233.744ZM143.964 224.037H134.356V214.428H143.964V224.037ZM143.964 214.324H134.356V204.716H143.964V214.324ZM143.964 204.612H134.356V195.004H143.964V204.612ZM143.964 194.9H134.356V185.292H143.964V194.9ZM143.964 185.188H134.356V175.58H143.964V185.188ZM143.964 175.476H134.356V165.868H143.964V175.476ZM143.964 165.764H134.356V156.156H143.964V165.764ZM143.964 156.052H134.356V146.444H143.964V156.052ZM143.964 146.34H134.356V136.732H143.964V146.34ZM143.964 136.628H134.356V127.02H143.964V136.628ZM143.964 126.916H134.356V117.308H143.964V126.916ZM143.964 117.204H134.356V107.596H143.964V117.204ZM153.676 311.441H144.068V301.832H153.676V311.441ZM153.676 301.729H144.068V292.12H153.676V301.729ZM153.676 292.017H144.068V282.429H153.676V292.017ZM153.676 282.305H144.068V272.696H153.676V282.305ZM153.676 272.593H144.068V262.988H153.676V272.593ZM153.676 262.88H144.068V253.272H153.676V262.88ZM153.676 253.168H144.068V243.547H153.676V253.168ZM153.676 243.456H144.068V233.848H153.676V243.456ZM153.676 233.744H144.068V224.14H153.676V233.744ZM153.676 224.037H144.068V214.428H153.676V224.037ZM153.676 214.324H144.068V204.716H153.676V214.324ZM153.676 204.612H144.068V195.004H153.676V204.612ZM153.676 194.9H144.068V185.292H153.676V194.9ZM153.676 185.188H144.068V175.58H153.676V185.188ZM153.676 175.476H144.068V165.868H153.676V175.476ZM153.676 165.764H144.068V156.156H153.676V165.764ZM153.676 156.052H144.068V146.444H153.676V156.052ZM153.676 146.34H144.068V136.732H153.676V146.34ZM153.676 136.628H144.068V127.02H153.676V136.628ZM153.676 126.916H144.068V117.308H153.676V126.916ZM153.676 117.204H144.068V107.596H153.676V117.204ZM163.388 311.441H153.78V301.832H163.388V311.441ZM163.388 301.729H153.78V292.12H163.388V301.729ZM163.388 292.017H153.78V282.429H163.388V292.017ZM163.388 282.305H153.78V272.696H163.388V282.305ZM163.388 272.593H153.78V262.988H163.388V272.593ZM163.388 262.88H153.78V253.272H163.388V262.88ZM163.388 253.168H153.78V243.547H163.388V253.168ZM163.388 243.456H153.78V233.848H163.388V243.456ZM163.388 233.744H153.78V224.14H163.388V233.744ZM163.388 224.037H153.78V214.428H163.388V224.037ZM163.388 214.324H153.78V204.716H163.388V214.324ZM163.388 204.612H153.78V195.004H163.388V204.612ZM163.388 194.9H153.78V185.292H163.388V194.9ZM163.388 185.188H153.78V175.58H163.388V185.188ZM163.388 175.476H153.78V165.868H163.388V175.476ZM163.388 165.764H153.78V156.156H163.388V165.764ZM163.388 156.052H153.78V146.444H163.388V156.052ZM163.388 146.34H153.78V136.732H163.388V146.34ZM163.388 136.628H153.78V127.02H163.388V136.628ZM163.388 126.916H153.78V117.308H163.388V126.916ZM163.388 117.204H153.78V107.596H163.388V117.204ZM173.088 311.441H163.492V301.832H173.088V311.441ZM173.088 301.729H163.492V292.12H173.088V301.729ZM173.088 292.017H163.492V282.429H173.088V292.017ZM173.088 282.305H163.492V272.696H173.088V282.305ZM173.088 272.593H163.492V262.988H173.088V272.593ZM173.088 262.88H163.492V253.272H173.088V262.88ZM173.088 253.168H163.492V243.547H173.088V253.168ZM173.088 243.456H163.492V233.848H173.088V243.456ZM173.088 233.744H163.492V224.14H173.088V233.744ZM173.088 224.037H163.492V214.428H173.088V224.037ZM173.088 214.324H163.492V204.716H173.088V214.324ZM173.088 204.612H163.492V195.004H173.088V204.612ZM173.088 194.9H163.492V185.292H173.088V194.9ZM173.088 185.188H163.492V175.58H173.088V185.188ZM173.088 175.476H163.492V165.868H173.088V175.476ZM173.088 165.785H163.492V156.156H173.088V165.785ZM173.088 156.073H163.492V146.444H173.088V156.073ZM173.088 146.344H163.492V136.732H173.088V146.344ZM173.088 136.632H163.492V127.02H173.088V136.632ZM173.088 126.904H163.492V117.308H173.088V126.904ZM173.088 117.192H163.492V107.596H173.088V117.192ZM182.8 311.428H173.204V301.832H182.812L182.8 311.428ZM182.8 301.716H173.204V292.12H182.812L182.8 301.716ZM182.8 292.004H173.204V282.429H182.812L182.8 292.004ZM182.8 282.292H173.204V272.696H182.812L182.8 282.292ZM182.8 272.58H173.204V262.988H182.812L182.8 272.58ZM182.8 262.868H173.204V253.272H182.812L182.8 262.868ZM182.8 253.156H173.204V243.547H182.812L182.8 253.156ZM182.8 243.444H173.204V233.848H182.812L182.8 243.444ZM182.8 233.732H173.204V224.14H182.812L182.8 233.732ZM182.8 224.024H173.204V214.428H182.812L182.8 224.024ZM182.8 214.312H173.204V204.716H182.812L182.8 214.312ZM182.8 204.6H173.204V195.004H182.812L182.8 204.6ZM182.8 194.888H173.204V185.292H182.812L182.8 194.888ZM182.8 185.176H173.204V175.58H182.812L182.8 185.176ZM182.8 175.464H173.204V165.868H182.812L182.8 175.464ZM182.8 165.752H173.204V156.156H182.812L182.8 165.752ZM182.8 156.04H173.204V146.444H182.812L182.8 156.04ZM182.8 146.328H173.204V136.732H182.812L182.8 146.328ZM182.8 136.616H173.204V127.02H182.812L182.8 136.616ZM182.8 126.904H173.204V117.308H182.812L182.8 126.904ZM182.8 117.192H173.204V107.596H182.812L182.8 117.192ZM192.529 311.441H182.916V301.832H192.529V311.441ZM192.529 301.729H182.916V292.12H192.529V301.729ZM192.529 292.017H182.916V282.429H192.529V292.017ZM192.529 282.305H182.916V272.696H192.529V282.305ZM192.529 272.593H182.916V262.988H192.529V272.593ZM192.529 262.88H182.916V253.272H192.529V262.88ZM192.529 253.168H182.916V243.547H192.529V253.168ZM192.529 243.456H182.916V233.848H192.529V243.456ZM192.529 233.744H182.916V224.14H192.529V233.744ZM192.529 224.037H182.916V214.428H192.529V224.037ZM192.529 214.324H182.916V204.716H192.529V214.324ZM192.529 204.612H182.916V195.004H192.529V204.612ZM192.529 194.9H182.916V185.292H192.529V194.9ZM192.529 185.188H182.916V175.58H192.529V185.188ZM192.529 175.476H182.916V165.868H192.529V175.476ZM192.529 165.785H182.916V156.156H192.529V165.785ZM192.529 156.073H182.916V146.444H192.529V156.073ZM192.529 146.344H182.916V136.732H192.529V146.344ZM192.529 136.632H182.916V127.02H192.529V136.632ZM192.529 126.904H182.916V117.308H192.529V126.904ZM192.529 117.192H182.916V107.596H192.529V117.192ZM202.241 311.428H192.628V301.832H202.236L202.241 311.428ZM202.241 301.716H192.628V292.12H202.236L202.241 301.716ZM202.241 292.004H192.628V282.429H202.236L202.241 292.004ZM202.241 282.292H192.628V272.696H202.236L202.241 282.292ZM202.241 272.58H192.628V262.988H202.236L202.241 272.58ZM202.241 262.868H192.628V253.272H202.236L202.241 262.868ZM202.241 253.156H192.628V243.547H202.236L202.241 253.156ZM202.241 243.444H192.628V233.848H202.236L202.241 243.444ZM202.241 233.732H192.628V224.14H202.236L202.241 233.732ZM202.241 224.024H192.628V214.428H202.236L202.241 224.024ZM202.241 214.312H192.628V204.716H202.236L202.241 214.312ZM202.241 204.6H192.628V195.004H202.236L202.241 204.6ZM202.241 194.888H192.628V185.292H202.236L202.241 194.888ZM202.241 185.176H192.628V175.58H202.236L202.241 185.176ZM202.241 175.464H192.628V165.868H202.236L202.241 175.464ZM202.241 165.752H192.628V156.156H202.236L202.241 165.752ZM202.241 156.04H192.628V146.444H202.236L202.241 156.04ZM202.241 146.328H192.628V136.732H202.236L202.241 146.328ZM202.241 136.616H192.628V127.02H202.236L202.241 136.616ZM202.241 126.904H192.628V117.308H202.236L202.241 126.904ZM202.241 117.192H192.628V107.596H202.236L202.241 117.192ZM211.969 311.441H202.34V301.832H211.969V311.441ZM211.969 301.729H202.34V292.12H211.969V301.729ZM211.969 292.017H202.34V282.429H211.969V292.017ZM211.969 282.305H202.34V272.696H211.969V282.305ZM211.969 272.593H202.34V262.988H211.969V272.593ZM211.969 262.88H202.34V253.272H211.969V262.88ZM211.969 253.168H202.34V243.547H211.969V253.168ZM211.969 243.456H202.34V233.848H211.969V243.456ZM211.969 233.744H202.34V224.14H211.969V233.744ZM211.969 224.037H202.34V214.428H211.969V224.037ZM211.969 214.324H202.34V204.716H211.969V214.324ZM211.969 204.612H202.34V195.004H211.969V204.612ZM211.969 194.9H202.34V185.292H211.969V194.9ZM211.969 185.188H202.34V175.58H211.969V185.188ZM211.969 175.476H202.34V165.868H211.969V175.476ZM211.969 165.785H202.34V156.156H211.969V165.785ZM211.969 156.073H202.34V146.444H211.969V156.073ZM211.969 146.344H202.34V136.732H211.969V146.344ZM211.969 136.632H202.34V127.02H211.969V136.632ZM211.969 126.904H202.34V117.308H211.969V126.904ZM211.969 117.192H202.34V107.596H211.969V117.192Z" fill="url(#paint1_radial_993_1844)"/>
<g filter="url(#filter0_d_993_1844)">
<path d="M30.6529 184.375C7.75318 207.255 7.73487 244.364 30.6102 267.265C53.4855 290.167 90.5911 290.185 113.491 267.308C136.391 244.431 173.496 244.449 196.371 267.351C219.247 290.252 219.228 327.37 196.332 350.251" stroke="#FFFFE0" stroke-width="0.25" stroke-miterlimit="10" shape-rendering="crispEdges"/>
</g>
<path d="M39.8731 293.296C51.6399 293.296 61.1787 283.759 61.1787 271.994C61.1787 260.229 51.6399 250.692 39.8731 250.692C28.1063 250.692 18.5674 260.229 18.5674 271.994C18.5674 283.759 28.1063 293.296 39.8731 293.296Z" fill="url(#paint2_radial_993_1844)"/>
<defs>
<filter id="filter0_d_993_1844" x="0.34082" y="171.286" width="226.3" height="192.053" filterUnits="userSpaceOnUse" color-interpolation-filters="sRGB">
<feFlood flood-opacity="0" result="BackgroundImageFix"/>
<feColorMatrix in="SourceAlpha" type="matrix" values="0 0 0 0 0 0 0 0 0 0 0 0 0 0 0 0 0 0 127 0" result="hardAlpha"/>
<feOffset/>
<feGaussianBlur stdDeviation="6.5"/>
<feComposite in2="hardAlpha" operator="out"/>
<feColorMatrix type="matrix" values="0 0 0 0 1 0 0 0 0 1 0 0 0 0 1 0 0 0 1 0"/>
<feBlend mode="normal" in2="BackgroundImageFix" result="effect1_dropShadow_993_1844"/>
<feBlend mode="normal" in="SourceGraphic" in2="effect1_dropShadow_993_1844" result="shape"/>
</filter>
<radialGradient id="paint0_radial_993_1844" cx="0" cy="0" r="1" gradientUnits="userSpaceOnUse" gradientTransform="translate(182.035 113.322) rotate(130.643) scale(108.528)">
<stop stop-color="#5DD334"/>
<stop offset="0.71875" stop-color="#00FFE0" stop-opacity="0"/>
</radialGradient>
<radialGradient id="paint1_radial_993_1844" cx="0" cy="0" r="1" gradientUnits="userSpaceOnUse" gradientTransform="translate(110.026 209.518) scale(102.026)">
<stop stop-color="#FFFFE0"/>
<stop offset="1" stop-color="#FFFFE0" stop-opacity="0"/>
</radialGradient>
<radialGradient id="paint2_radial_993_1844" cx="0" cy="0" r="1" gradientUnits="userSpaceOnUse" gradientTransform="translate(12.6442 300.829) rotate(-48.4284) scale(75.2284)">
<stop stop-color="#AAFF00"/>
<stop offset="1" stop-color="#00FFE0" stop-opacity="0"/>
</radialGradient>
</defs>
</svg>
