<svg width="174" height="67" viewBox="0 0 174 67" fill="none" xmlns="http://www.w3.org/2000/svg">
<path d="M172.425 21.8213L169.375 23.5184C169.575 23.6298 169.813 23.7182 170.074 23.7785C170.336 23.8388 170.617 23.8699 170.9 23.8699C171.183 23.8699 171.464 23.8388 171.725 23.7785C171.987 23.7182 172.225 23.6298 172.425 23.5184C172.625 23.4069 172.784 23.2747 172.892 23.1291C173.001 22.9835 173.057 22.8274 173.057 22.6698C173.057 22.5122 173.001 22.3562 172.892 22.2106C172.784 22.065 172.625 21.9327 172.425 21.8213V21.8213Z" fill="#E4585D"/>
<path d="M169.374 23.5193L172.424 21.8222C172.02 21.5971 171.471 21.4707 170.899 21.4707C170.327 21.4707 169.779 21.5971 169.374 21.8222C168.97 22.0472 168.742 22.3525 168.742 22.6707C168.742 22.989 168.97 23.2942 169.374 23.5193V23.5193Z" fill="#E4585D"/>
<path d="M3.78995 25.8066L0.739746 27.5037C1.14423 27.7288 1.69284 27.8552 2.26486 27.8552C2.83689 27.8552 3.38547 27.7288 3.78995 27.5037C4.19443 27.2787 4.42168 26.9735 4.42168 26.6552C4.42168 26.3369 4.19443 26.0317 3.78995 25.8066V25.8066Z" fill="#E4585D"/>
<path d="M0.740369 27.5046L3.79057 25.8075C3.38609 25.5825 2.83751 25.4561 2.26549 25.4561C1.69346 25.4561 1.14485 25.5825 0.740369 25.8075C0.335886 26.0326 0.108643 26.3378 0.108643 26.6561C0.108643 26.9744 0.335886 27.2796 0.740369 27.5046V27.5046Z" fill="#E4585D"/>
<path d="M130.847 59.0234L127.797 60.7205C128.202 60.9456 128.75 61.072 129.322 61.072C129.894 61.072 130.443 60.9456 130.847 60.7205C131.252 60.4955 131.479 60.1903 131.479 59.872C131.479 59.5537 131.252 59.2485 130.847 59.0234V59.0234Z" fill="#E4585D"/>
<path d="M128.18 60.7643L131.321 59.2432C130.93 58.9955 130.39 58.8381 129.819 58.8056C129.247 58.7732 128.693 58.8682 128.276 59.07C127.859 59.2717 127.615 59.5635 127.597 59.8813C127.579 60.199 127.788 60.5166 128.18 60.7643V60.7643Z" fill="#E4585D"/>
<path d="M71.8137 7.21533C86.0803 3.39261 100.77 11.9554 104.625 26.3409C108.48 40.7264 100.039 55.4871 85.7724 59.3098C71.5058 63.1325 56.8157 54.5697 52.9611 40.1842C49.1065 25.7987 57.5471 11.0381 71.8137 7.21533Z" fill="url(#paint0_radial_1531_1643)"/>
<defs>
<radialGradient id="paint0_radial_1531_1643" cx="0" cy="0" r="1" gradientUnits="userSpaceOnUse" gradientTransform="translate(96.9738 44.2064) rotate(-60.2377) scale(41.9481 41.9466)">
<stop stop-color="#34D399"/>
<stop offset="1" stop-color="#AAFF00"/>
</radialGradient>
</defs>
</svg>
