<svg width="420" height="258" viewBox="0 0 420 258" fill="none" xmlns="http://www.w3.org/2000/svg">
<path d="M352 258C360.009 258 366.5 251.508 366.5 243.5C366.5 235.492 360.009 229 352 229C343.992 229 337.5 235.492 337.5 243.5C337.5 251.508 343.992 258 352 258Z" fill="url(#paint0_radial_10_2)"/>
<path d="M40.6954 171.324L33.8521 175.132C34.7595 175.637 35.9904 175.92 37.2737 175.92C38.5571 175.92 39.788 175.637 40.6954 175.132C41.6029 174.627 42.1127 173.942 42.1127 173.228C42.1127 172.514 41.6029 171.829 40.6954 171.324V171.324Z" fill="#E4585D"/>
<path d="M33.8035 175.106L40.6469 171.298C39.7394 170.793 38.5086 170.51 37.2252 170.51C35.9419 170.51 34.711 170.793 33.8035 171.298C32.8961 171.803 32.3862 172.488 32.3862 173.202C32.3862 173.916 32.8961 174.601 33.8035 175.106V175.106Z" fill="#E4585D"/>
<path d="M270.183 140.299L263.339 144.106C263.789 144.356 264.322 144.555 264.909 144.69C265.496 144.825 266.125 144.895 266.761 144.895C267.396 144.895 268.026 144.825 268.613 144.69C269.2 144.555 269.733 144.356 270.183 144.106C270.632 143.856 270.988 143.56 271.232 143.233C271.475 142.906 271.6 142.556 271.6 142.203C271.6 141.849 271.475 141.499 271.232 141.172C270.988 140.846 270.632 140.549 270.183 140.299V140.299Z" fill="#E4585D"/>
<path d="M263.338 144.107L270.182 140.299C269.274 139.794 268.043 139.511 266.76 139.511C265.476 139.511 264.246 139.794 263.338 140.299C262.431 140.804 261.921 141.489 261.921 142.203C261.921 142.917 262.431 143.602 263.338 144.107V144.107Z" fill="#E4585D"/>
<path d="M417.621 232.572L410.778 236.38C411.227 236.63 411.761 236.828 412.348 236.963C412.935 237.099 413.564 237.168 414.2 237.168C414.835 237.168 415.464 237.099 416.051 236.963C416.638 236.828 417.172 236.63 417.621 236.38C418.071 236.13 418.427 235.833 418.67 235.506C418.913 235.18 419.038 234.83 419.038 234.476C419.038 234.122 418.913 233.772 418.67 233.446C418.427 233.119 418.071 232.822 417.621 232.572V232.572Z" fill="#E4585D"/>
<path d="M410.778 236.379L417.621 232.572C416.714 232.067 415.483 231.783 414.2 231.783C412.916 231.783 411.686 232.067 410.778 232.572C409.871 233.077 409.361 233.761 409.361 234.476C409.361 235.19 409.871 235.874 410.778 236.379V236.379Z" fill="#E4585D"/>
<path d="M176.9 223.763L170.057 227.57C170.964 228.075 172.195 228.359 173.478 228.359C174.762 228.359 175.993 228.075 176.9 227.57C177.808 227.065 178.317 226.381 178.317 225.666C178.317 224.952 177.808 224.268 176.9 223.763V223.763Z" fill="#E4585D"/>
<path d="M44.4558 107.529C76.4638 98.9529 109.422 118.164 118.07 150.439C126.718 182.713 107.781 215.83 75.7729 224.406C43.765 232.983 10.8068 213.772 2.15883 181.497C-6.48916 149.222 12.4479 116.106 44.4558 107.529Z" fill="url(#paint1_radial_10_2)"/>
<path d="M237.5 50C251.308 50 262.5 38.8071 262.5 25C262.5 11.1929 251.308 0 237.5 0C223.693 0 212.5 11.1929 212.5 25C212.5 38.8071 223.693 50 237.5 50Z" fill="url(#paint2_radial_10_2)"/>
<defs>
<radialGradient id="paint0_radial_10_2" cx="0" cy="0" r="1" gradientUnits="userSpaceOnUse" gradientTransform="translate(359.987 235.286) rotate(45) scale(22.6494)">
<stop stop-color="#34D399"/>
<stop offset="1" stop-color="#AAFF00"/>
</radialGradient>
<radialGradient id="paint1_radial_10_2" cx="0" cy="0" r="1" gradientUnits="userSpaceOnUse" gradientTransform="translate(100.904 190.521) rotate(-60.2377) scale(94.113 94.1097)">
<stop stop-color="#34D399"/>
<stop offset="1" stop-color="#AAFF00"/>
</radialGradient>
<radialGradient id="paint2_radial_10_2" cx="0" cy="0" r="1" gradientUnits="userSpaceOnUse" gradientTransform="translate(237.5 25) rotate(90) scale(25)">
<stop stop-color="#34D399"/>
<stop offset="1" stop-color="#AAFF00"/>
</radialGradient>
</defs>
</svg>
