<svg width="366" height="351" viewBox="0 0 366 351" fill="none" xmlns="http://www.w3.org/2000/svg">
<path d="M347.534 111.842C357.799 150.086 335.122 189.409 296.882 199.679C258.642 209.948 219.323 187.273 209.057 149.033C198.79 110.792 159.471 88.1167 121.231 98.3866C82.9906 108.657 60.3081 147.989 70.5698 186.231" stroke="white" stroke-width="0.25" stroke-miterlimit="10"/>
<path opacity="0.5" d="M0 107.492V311.544H204.052V107.492H0ZM9.71202 311.441H0.103407V301.832H9.71202V311.441ZM9.71202 301.729H0.103407V292.12H9.71202V301.729ZM9.71202 292.017H0.103407V282.429H9.71202V292.017ZM9.71202 282.305H0.103407V272.696H9.71202V282.305ZM9.71202 272.593H0.103407V262.988H9.71202V272.593ZM9.71202 262.88H0.103407V253.272H9.71202V262.88ZM9.71202 253.168H0.103407V243.547H9.71202V253.168ZM9.71202 243.456H0.103407V233.848H9.71202V243.456ZM9.71202 233.744H0.103407V224.14H9.71202V233.744ZM9.71202 224.037H0.103407V214.428H9.71202V224.037ZM9.71202 214.324H0.103407V204.716H9.71202V214.324ZM9.71202 204.612H0.103407V195.004H9.71202V204.612ZM9.71202 194.9H0.103407V185.292H9.71202V194.9ZM9.71202 185.188H0.103407V175.58H9.71202V185.188ZM9.71202 175.476H0.103407V165.868H9.71202V175.476ZM9.71202 165.764H0.103407V156.156H9.71202V165.764ZM9.71202 156.052H0.103407V146.444H9.71202V156.052ZM9.71202 146.34H0.103407V136.732H9.71202V146.34ZM9.71202 136.628H0.103407V127.02H9.71202V136.628ZM9.71202 126.916H0.103407V117.308H9.71202V126.916ZM9.71202 117.204H0.103407V107.596H9.71202V117.204ZM19.4241 311.441H9.81543V301.832H19.4241V311.441ZM19.4241 301.729H9.81543V292.12H19.4241V301.729ZM19.4241 292.017H9.81543V282.429H19.4241V292.017ZM19.4241 282.305H9.81543V272.696H19.4241V282.305ZM19.4241 272.593H9.81543V262.988H19.4241V272.593ZM19.4241 262.88H9.81543V253.272H19.4241V262.88ZM19.4241 253.168H9.81543V243.547H19.4241V253.168ZM19.4241 243.456H9.81543V233.848H19.4241V243.456ZM19.4241 233.744H9.81543V224.14H19.4241V233.744ZM19.4241 224.037H9.81543V214.428H19.4241V224.037ZM19.4241 214.324H9.81543V204.716H19.4241V214.324ZM19.4241 204.612H9.81543V195.004H19.4241V204.612ZM19.4241 194.9H9.81543V185.292H19.4241V194.9ZM19.4241 185.188H9.81543V175.58H19.4241V185.188ZM19.4241 175.476H9.81543V165.868H19.4241V175.476ZM19.4241 165.764H9.81543V156.156H19.4241V165.764ZM19.4241 156.052H9.81543V146.444H19.4241V156.052ZM19.4241 146.34H9.81543V136.732H19.4241V146.34ZM19.4241 136.628H9.81543V127.02H19.4241V136.628ZM19.4241 126.916H9.81543V117.308H19.4241V126.916ZM19.4241 117.204H9.81543V107.596H19.4241V117.204ZM29.1361 311.441H19.5275V301.832H29.1361V311.441ZM29.1361 301.729H19.5275V292.12H29.1361V301.729ZM29.1361 292.017H19.5275V282.429H29.1361V292.017ZM29.1361 282.305H19.5275V272.696H29.1361V282.305ZM29.1361 272.593H19.5275V262.988H29.1361V272.593ZM29.1361 262.88H19.5275V253.272H29.1361V262.88ZM29.1361 253.168H19.5275V243.547H29.1361V253.168ZM29.1361 243.456H19.5275V233.848H29.1361V243.456ZM29.1361 233.744H19.5275V224.14H29.1361V233.744ZM29.1361 224.037H19.5275V214.428H29.1361V224.037ZM29.1361 214.324H19.5275V204.716H29.1361V214.324ZM29.1361 204.612H19.5275V195.004H29.1361V204.612ZM29.1361 194.9H19.5275V185.292H29.1361V194.9ZM29.1361 185.188H19.5275V175.58H29.1361V185.188ZM29.1361 175.476H19.5275V165.868H29.1361V175.476ZM29.1361 165.764H19.5275V156.156H29.1361V165.764ZM29.1361 156.052H19.5275V146.444H29.1361V156.052ZM29.1361 146.34H19.5275V136.732H29.1361V146.34ZM29.1361 136.628H19.5275V127.02H29.1361V136.628ZM29.1361 126.916H19.5275V117.308H29.1361V126.916ZM29.1361 117.204H19.5275V107.596H29.1361V117.204ZM38.8481 311.441H29.2395V301.832H38.8481V311.441ZM38.8481 301.729H29.2395V292.12H38.8481V301.729ZM38.8481 292.017H29.2395V282.429H38.8481V292.017ZM38.8481 282.305H29.2395V272.696H38.8481V282.305ZM38.8481 272.593H29.2395V262.988H38.8481V272.593ZM38.8481 262.88H29.2395V253.272H38.8481V262.88ZM38.8481 253.168H29.2395V243.547H38.8481V253.168ZM38.8481 243.456H29.2395V233.848H38.8481V243.456ZM38.8481 233.744H29.2395V224.14H38.8481V233.744ZM38.8481 224.037H29.2395V214.428H38.8481V224.037ZM38.8481 214.324H29.2395V204.716H38.8481V214.324ZM38.8481 204.612H29.2395V195.004H38.8481V204.612ZM38.8481 194.9H29.2395V185.292H38.8481V194.9ZM38.8481 185.188H29.2395V175.58H38.8481V185.188ZM38.8481 175.476H29.2395V165.868H38.8481V175.476ZM38.8481 165.764H29.2395V156.156H38.8481V165.764ZM38.8481 156.052H29.2395V146.444H38.8481V156.052ZM38.8481 146.34H29.2395V136.732H38.8481V146.34ZM38.8481 136.628H29.2395V127.02H38.8481V136.628ZM38.8481 126.916H29.2395V117.308H38.8481V126.916ZM38.8481 117.204H29.2395V107.596H38.8481V117.204ZM48.5601 311.441H38.9515V301.832H48.5601V311.441ZM48.5601 301.729H38.9515V292.12H48.5601V301.729ZM48.5601 292.017H38.9515V282.429H48.5601V292.017ZM48.5601 282.305H38.9515V272.696H48.5601V282.305ZM48.5601 272.593H38.9515V262.988H48.5601V272.593ZM48.5601 262.88H38.9515V253.272H48.5601V262.88ZM48.5601 253.168H38.9515V243.547H48.5601V253.168ZM48.5601 243.456H38.9515V233.848H48.5601V243.456ZM48.5601 233.744H38.9515V224.14H48.5601V233.744ZM48.5601 224.037H38.9515V214.428H48.5601V224.037ZM48.5601 214.324H38.9515V204.716H48.5601V214.324ZM48.5601 204.612H38.9515V195.004H48.5601V204.612ZM48.5601 194.9H38.9515V185.292H48.5601V194.9ZM48.5601 185.188H38.9515V175.58H48.5601V185.188ZM48.5601 175.476H38.9515V165.868H48.5601V175.476ZM48.5601 165.764H38.9515V156.156H48.5601V165.764ZM48.5601 156.052H38.9515V146.444H48.5601V156.052ZM48.5601 146.34H38.9515V136.732H48.5601V146.34ZM48.5601 136.628H38.9515V127.02H48.5601V136.628ZM48.5601 126.916H38.9515V117.308H48.5601V126.916ZM48.5601 117.204H38.9515V107.596H48.5601V117.204ZM58.2722 311.441H48.6635V301.832H58.2722V311.441ZM58.2722 301.729H48.6635V292.12H58.2722V301.729ZM58.2722 292.017H48.6635V282.429H58.2722V292.017ZM58.2722 282.305H48.6635V272.696H58.2722V282.305ZM58.2722 272.593H48.6635V262.988H58.2722V272.593ZM58.2722 262.88H48.6635V253.272H58.2722V262.88ZM58.2722 253.168H48.6635V243.547H58.2722V253.168ZM58.2722 243.456H48.6635V233.848H58.2722V243.456ZM58.2722 233.744H48.6635V224.14H58.2722V233.744ZM58.2722 224.037H48.6635V214.428H58.2722V224.037ZM58.2722 214.324H48.6635V204.716H58.2722V214.324ZM58.2722 204.612H48.6635V195.004H58.2722V204.612ZM58.2722 194.9H48.6635V185.292H58.2722V194.9ZM58.2722 185.188H48.6635V175.58H58.2722V185.188ZM58.2722 175.476H48.6635V165.868H58.2722V175.476ZM58.2722 165.764H48.6635V156.156H58.2722V165.764ZM58.2722 156.052H48.6635V146.444H58.2722V156.052ZM58.2722 146.34H48.6635V136.732H58.2722V146.34ZM58.2722 136.628H48.6635V127.02H58.2722V136.628ZM58.2722 126.916H48.6635V117.308H58.2722V126.916ZM58.2722 117.204H48.6635V107.596H58.2722V117.204ZM67.9842 311.441H58.3714V301.832H67.9801L67.9842 311.441ZM67.9842 301.729H58.3714V292.12H67.9801L67.9842 301.729ZM67.9842 292.017H58.3714V282.429H67.9801L67.9842 292.017ZM67.9842 282.305H58.3714V272.696H67.9801L67.9842 282.305ZM67.9842 272.593H58.3714V262.988H67.9801L67.9842 272.593ZM67.9842 262.88H58.3714V253.272H67.9801L67.9842 262.88ZM67.9842 253.168H58.3714V243.547H67.9801L67.9842 253.168ZM67.9842 243.456H58.3714V233.848H67.9801L67.9842 243.456ZM67.9842 233.744H58.3714V224.14H67.9801L67.9842 233.744ZM67.9842 224.037H58.3714V214.428H67.9801L67.9842 224.037ZM67.9842 214.324H58.3714V204.716H67.9801L67.9842 214.324ZM67.9842 204.612H58.3714V195.004H67.9801L67.9842 204.612ZM67.9842 194.9H58.3714V185.292H67.9801L67.9842 194.9ZM67.9842 185.188H58.3714V175.58H67.9801L67.9842 185.188ZM67.9842 175.476H58.3714V165.868H67.9801L67.9842 175.476ZM67.9842 165.764H58.3714V156.156H67.9801L67.9842 165.764ZM67.9842 156.052H58.3714V146.444H67.9801L67.9842 156.052ZM67.9842 146.34H58.3714V136.732H67.9801L67.9842 146.34ZM67.9842 136.628H58.3714V127.02H67.9801L67.9842 136.628ZM67.9842 126.916H58.3714V117.308H67.9801L67.9842 126.916ZM67.9842 117.204H58.3714V107.596H67.9801L67.9842 117.204ZM77.6962 311.441H68.0876V301.832H77.6962V311.441ZM77.6962 301.729H68.0876V292.12H77.6962V301.729ZM77.6962 292.017H68.0876V282.429H77.6962V292.017ZM77.6962 282.305H68.0876V272.696H77.6962V282.305ZM77.6962 272.593H68.0876V262.988H77.6962V272.593ZM77.6962 262.88H68.0876V253.272H77.6962V262.88ZM77.6962 253.168H68.0876V243.547H77.6962V253.168ZM77.6962 243.456H68.0876V233.848H77.6962V243.456ZM77.6962 233.744H68.0876V224.14H77.6962V233.744ZM77.6962 224.037H68.0876V214.428H77.6962V224.037ZM77.6962 214.324H68.0876V204.716H77.6962V214.324ZM77.6962 204.612H68.0876V195.004H77.6962V204.612ZM77.6962 194.9H68.0876V185.292H77.6962V194.9ZM77.6962 185.188H68.0876V175.58H77.6962V185.188ZM77.6962 175.476H68.0876V165.868H77.6962V175.476ZM77.6962 165.764H68.0876V156.156H77.6962V165.764ZM77.6962 156.052H68.0876V146.444H77.6962V156.052ZM77.6962 146.34H68.0876V136.732H77.6962V146.34ZM77.6962 136.628H68.0876V127.02H77.6962V136.628ZM77.6962 126.916H68.0876V117.308H77.6962V126.916ZM77.6962 117.204H68.0876V107.596H77.6962V117.204ZM87.4041 311.441H77.812V301.832H87.4165L87.4041 311.441ZM87.4041 301.729H77.812V292.12H87.4165L87.4041 301.729ZM87.4041 292.017H77.812V282.429H87.4165L87.4041 292.017ZM87.4041 282.305H77.812V272.696H87.4165L87.4041 282.305ZM87.4041 272.593H77.812V262.988H87.4165L87.4041 272.593ZM87.4041 262.88H77.812V253.272H87.4165L87.4041 262.88ZM87.4041 253.168H77.812V243.547H87.4165L87.4041 253.168ZM87.4041 243.456H77.812V233.848H87.4165L87.4041 243.456ZM87.4041 233.744H77.812V224.14H87.4165L87.4041 233.744ZM87.4041 224.037H77.812V214.428H87.4165L87.4041 224.037ZM87.4041 214.324H77.812V204.716H87.4165L87.4041 214.324ZM87.4041 204.612H77.812V195.004H87.4165L87.4041 204.612ZM87.4041 194.9H77.812V185.292H87.4165L87.4041 194.9ZM87.4041 185.188H77.812V175.58H87.4165L87.4041 185.188ZM87.4041 175.476H77.812V165.868H87.4165L87.4041 175.476ZM87.4041 165.764H77.812V156.156H87.4165L87.4041 165.764ZM87.4041 156.052H77.812V146.444H87.4165L87.4041 156.052ZM87.4041 146.34H77.812V136.732H87.4165L87.4041 146.34ZM87.4041 136.628H77.812V127.02H87.4165L87.4041 136.628ZM87.4041 126.916H77.812V117.308H87.4165L87.4041 126.916ZM87.4041 117.204H77.812V107.596H87.4165L87.4041 117.204ZM97.1162 311.441H87.5075V301.832H97.1162V311.441ZM97.1162 301.729H87.5075V292.12H97.1162V301.729ZM97.1162 292.017H87.5075V282.429H97.1162V292.017ZM97.1162 282.305H87.5075V272.696H97.1162V282.305ZM97.1162 272.593H87.5075V262.988H97.1162V272.593ZM97.1162 262.88H87.5075V253.272H97.1162V262.88ZM97.1162 253.168H87.5075V243.547H97.1162V253.168ZM97.1162 243.456H87.5075V233.848H97.1162V243.456ZM97.1162 233.744H87.5075V224.14H97.1162V233.744ZM97.1162 224.037H87.5075V214.428H97.1162V224.037ZM97.1162 214.324H87.5075V204.716H97.1162V214.324ZM97.1162 204.612H87.5075V195.004H97.1162V204.612ZM97.1162 194.9H87.5075V185.292H97.1162V194.9ZM97.1162 185.188H87.5075V175.58H97.1162V185.188ZM97.1162 175.476H87.5075V165.868H97.1162V175.476ZM97.1162 165.764H87.5075V156.156H97.1162V165.764ZM97.1162 156.052H87.5075V146.444H97.1162V156.052ZM97.1162 146.34H87.5075V136.732H97.1162V146.34ZM97.1162 136.628H87.5075V127.02H97.1162V136.628ZM97.1162 126.916H87.5075V117.308H97.1162V126.916ZM97.1162 117.204H87.5075V107.596H97.1162V117.204ZM106.828 311.441H97.2196V301.832H106.828V311.441ZM106.828 301.729H97.2196V292.12H106.828V301.729ZM106.828 292.017H97.2196V282.429H106.828V292.017ZM106.828 282.305H97.2196V272.696H106.828V282.305ZM106.828 272.593H97.2196V262.988H106.828V272.593ZM106.828 262.88H97.2196V253.272H106.828V262.88ZM106.828 253.168H97.2196V243.547H106.828V253.168ZM106.828 243.456H97.2196V233.848H106.828V243.456ZM106.828 233.744H97.2196V224.14H106.828V233.744ZM106.828 224.037H97.2196V214.428H106.828V224.037ZM106.828 214.324H97.2196V204.716H106.828V214.324ZM106.828 204.612H97.2196V195.004H106.828V204.612ZM106.828 194.9H97.2196V185.292H106.828V194.9ZM106.828 185.188H97.2196V175.58H106.828V185.188ZM106.828 175.476H97.2196V165.868H106.828V175.476ZM106.828 165.764H97.2196V156.156H106.828V165.764ZM106.828 156.052H97.2196V146.444H106.828V156.052ZM106.828 146.34H97.2196V136.732H106.828V146.34ZM106.828 136.628H97.2196V127.02H106.828V136.628ZM106.828 126.916H97.2196V117.308H106.828V126.916ZM106.828 117.204H97.2196V107.596H106.828V117.204ZM116.54 311.441H106.932V301.832H116.54V311.441ZM116.54 301.729H106.932V292.12H116.54V301.729ZM116.54 292.017H106.932V282.429H116.54V292.017ZM116.54 282.305H106.932V272.696H116.54V282.305ZM116.54 272.593H106.932V262.988H116.54V272.593ZM116.54 262.88H106.932V253.272H116.54V262.88ZM116.54 253.168H106.932V243.547H116.54V253.168ZM116.54 243.456H106.932V233.848H116.54V243.456ZM116.54 233.744H106.932V224.14H116.54V233.744ZM116.54 224.037H106.932V214.428H116.54V224.037ZM116.54 214.324H106.932V204.716H116.54V214.324ZM116.54 204.612H106.932V195.004H116.54V204.612ZM116.54 194.9H106.932V185.292H116.54V194.9ZM116.54 185.188H106.932V175.58H116.54V185.188ZM116.54 175.476H106.932V165.868H116.54V175.476ZM116.54 165.764H106.932V156.156H116.54V165.764ZM116.54 156.052H106.932V146.444H116.54V156.052ZM116.54 146.34H106.932V136.732H116.54V146.34ZM116.54 136.628H106.932V127.02H116.54V136.628ZM116.54 126.916H106.932V117.308H116.54V126.916ZM116.54 117.204H106.932V107.596H116.54V117.204ZM126.252 311.441H116.644V301.832H126.252V311.441ZM126.252 301.729H116.644V292.12H126.252V301.729ZM126.252 292.017H116.644V282.429H126.252V292.017ZM126.252 282.305H116.644V272.696H126.252V282.305ZM126.252 272.593H116.644V262.988H126.252V272.593ZM126.252 262.88H116.644V253.272H126.252V262.88ZM126.252 253.168H116.644V243.547H126.252V253.168ZM126.252 243.456H116.644V233.848H126.252V243.456ZM126.252 233.744H116.644V224.14H126.252V233.744ZM126.252 224.037H116.644V214.428H126.252V224.037ZM126.252 214.324H116.644V204.716H126.252V214.324ZM126.252 204.612H116.644V195.004H126.252V204.612ZM126.252 194.9H116.644V185.292H126.252V194.9ZM126.252 185.188H116.644V175.58H126.252V185.188ZM126.252 175.476H116.644V165.868H126.252V175.476ZM126.252 165.764H116.644V156.156H126.252V165.764ZM126.252 156.052H116.644V146.444H126.252V156.052ZM126.252 146.34H116.644V136.732H126.252V146.34ZM126.252 136.628H116.644V127.02H126.252V136.628ZM126.252 126.916H116.644V117.308H126.252V126.916ZM126.252 117.204H116.644V107.596H126.252V117.204ZM135.964 311.441H126.356V301.832H135.964V311.441ZM135.964 301.729H126.356V292.12H135.964V301.729ZM135.964 292.017H126.356V282.429H135.964V292.017ZM135.964 282.305H126.356V272.696H135.964V282.305ZM135.964 272.593H126.356V262.988H135.964V272.593ZM135.964 262.88H126.356V253.272H135.964V262.88ZM135.964 253.168H126.356V243.547H135.964V253.168ZM135.964 243.456H126.356V233.848H135.964V243.456ZM135.964 233.744H126.356V224.14H135.964V233.744ZM135.964 224.037H126.356V214.428H135.964V224.037ZM135.964 214.324H126.356V204.716H135.964V214.324ZM135.964 204.612H126.356V195.004H135.964V204.612ZM135.964 194.9H126.356V185.292H135.964V194.9ZM135.964 185.188H126.356V175.58H135.964V185.188ZM135.964 175.476H126.356V165.868H135.964V175.476ZM135.964 165.764H126.356V156.156H135.964V165.764ZM135.964 156.052H126.356V146.444H135.964V156.052ZM135.964 146.34H126.356V136.732H135.964V146.34ZM135.964 136.628H126.356V127.02H135.964V136.628ZM135.964 126.916H126.356V117.308H135.964V126.916ZM135.964 117.204H126.356V107.596H135.964V117.204ZM145.676 311.441H136.068V301.832H145.676V311.441ZM145.676 301.729H136.068V292.12H145.676V301.729ZM145.676 292.017H136.068V282.429H145.676V292.017ZM145.676 282.305H136.068V272.696H145.676V282.305ZM145.676 272.593H136.068V262.988H145.676V272.593ZM145.676 262.88H136.068V253.272H145.676V262.88ZM145.676 253.168H136.068V243.547H145.676V253.168ZM145.676 243.456H136.068V233.848H145.676V243.456ZM145.676 233.744H136.068V224.14H145.676V233.744ZM145.676 224.037H136.068V214.428H145.676V224.037ZM145.676 214.324H136.068V204.716H145.676V214.324ZM145.676 204.612H136.068V195.004H145.676V204.612ZM145.676 194.9H136.068V185.292H145.676V194.9ZM145.676 185.188H136.068V175.58H145.676V185.188ZM145.676 175.476H136.068V165.868H145.676V175.476ZM145.676 165.764H136.068V156.156H145.676V165.764ZM145.676 156.052H136.068V146.444H145.676V156.052ZM145.676 146.34H136.068V136.732H145.676V146.34ZM145.676 136.628H136.068V127.02H145.676V136.628ZM145.676 126.916H136.068V117.308H145.676V126.916ZM145.676 117.204H136.068V107.596H145.676V117.204ZM155.388 311.441H145.78V301.832H155.388V311.441ZM155.388 301.729H145.78V292.12H155.388V301.729ZM155.388 292.017H145.78V282.429H155.388V292.017ZM155.388 282.305H145.78V272.696H155.388V282.305ZM155.388 272.593H145.78V262.988H155.388V272.593ZM155.388 262.88H145.78V253.272H155.388V262.88ZM155.388 253.168H145.78V243.547H155.388V253.168ZM155.388 243.456H145.78V233.848H155.388V243.456ZM155.388 233.744H145.78V224.14H155.388V233.744ZM155.388 224.037H145.78V214.428H155.388V224.037ZM155.388 214.324H145.78V204.716H155.388V214.324ZM155.388 204.612H145.78V195.004H155.388V204.612ZM155.388 194.9H145.78V185.292H155.388V194.9ZM155.388 185.188H145.78V175.58H155.388V185.188ZM155.388 175.476H145.78V165.868H155.388V175.476ZM155.388 165.764H145.78V156.156H155.388V165.764ZM155.388 156.052H145.78V146.444H155.388V156.052ZM155.388 146.34H145.78V136.732H155.388V146.34ZM155.388 136.628H145.78V127.02H155.388V136.628ZM155.388 126.916H145.78V117.308H155.388V126.916ZM155.388 117.204H145.78V107.596H155.388V117.204ZM165.088 311.441H155.492V301.832H165.088V311.441ZM165.088 301.729H155.492V292.12H165.088V301.729ZM165.088 292.017H155.492V282.429H165.088V292.017ZM165.088 282.305H155.492V272.696H165.088V282.305ZM165.088 272.593H155.492V262.988H165.088V272.593ZM165.088 262.88H155.492V253.272H165.088V262.88ZM165.088 253.168H155.492V243.547H165.088V253.168ZM165.088 243.456H155.492V233.848H165.088V243.456ZM165.088 233.744H155.492V224.14H165.088V233.744ZM165.088 224.037H155.492V214.428H165.088V224.037ZM165.088 214.324H155.492V204.716H165.088V214.324ZM165.088 204.612H155.492V195.004H165.088V204.612ZM165.088 194.9H155.492V185.292H165.088V194.9ZM165.088 185.188H155.492V175.58H165.088V185.188ZM165.088 175.476H155.492V165.868H165.088V175.476ZM165.088 165.785H155.492V156.156H165.088V165.785ZM165.088 156.073H155.492V146.444H165.088V156.073ZM165.088 146.344H155.492V136.732H165.088V146.344ZM165.088 136.632H155.492V127.02H165.088V136.632ZM165.088 126.904H155.492V117.308H165.088V126.904ZM165.088 117.192H155.492V107.596H165.088V117.192ZM174.8 311.428H165.204V301.832H174.812L174.8 311.428ZM174.8 301.716H165.204V292.12H174.812L174.8 301.716ZM174.8 292.004H165.204V282.429H174.812L174.8 292.004ZM174.8 282.292H165.204V272.696H174.812L174.8 282.292ZM174.8 272.58H165.204V262.988H174.812L174.8 272.58ZM174.8 262.868H165.204V253.272H174.812L174.8 262.868ZM174.8 253.156H165.204V243.547H174.812L174.8 253.156ZM174.8 243.444H165.204V233.848H174.812L174.8 243.444ZM174.8 233.732H165.204V224.14H174.812L174.8 233.732ZM174.8 224.024H165.204V214.428H174.812L174.8 224.024ZM174.8 214.312H165.204V204.716H174.812L174.8 214.312ZM174.8 204.6H165.204V195.004H174.812L174.8 204.6ZM174.8 194.888H165.204V185.292H174.812L174.8 194.888ZM174.8 185.176H165.204V175.58H174.812L174.8 185.176ZM174.8 175.464H165.204V165.868H174.812L174.8 175.464ZM174.8 165.752H165.204V156.156H174.812L174.8 165.752ZM174.8 156.04H165.204V146.444H174.812L174.8 156.04ZM174.8 146.328H165.204V136.732H174.812L174.8 146.328ZM174.8 136.616H165.204V127.02H174.812L174.8 136.616ZM174.8 126.904H165.204V117.308H174.812L174.8 126.904ZM174.8 117.192H165.204V107.596H174.812L174.8 117.192ZM184.529 311.441H174.916V301.832H184.529V311.441ZM184.529 301.729H174.916V292.12H184.529V301.729ZM184.529 292.017H174.916V282.429H184.529V292.017ZM184.529 282.305H174.916V272.696H184.529V282.305ZM184.529 272.593H174.916V262.988H184.529V272.593ZM184.529 262.88H174.916V253.272H184.529V262.88ZM184.529 253.168H174.916V243.547H184.529V253.168ZM184.529 243.456H174.916V233.848H184.529V243.456ZM184.529 233.744H174.916V224.14H184.529V233.744ZM184.529 224.037H174.916V214.428H184.529V224.037ZM184.529 214.324H174.916V204.716H184.529V214.324ZM184.529 204.612H174.916V195.004H184.529V204.612ZM184.529 194.9H174.916V185.292H184.529V194.9ZM184.529 185.188H174.916V175.58H184.529V185.188ZM184.529 175.476H174.916V165.868H184.529V175.476ZM184.529 165.785H174.916V156.156H184.529V165.785ZM184.529 156.073H174.916V146.444H184.529V156.073ZM184.529 146.344H174.916V136.732H184.529V146.344ZM184.529 136.632H174.916V127.02H184.529V136.632ZM184.529 126.904H174.916V117.308H184.529V126.904ZM184.529 117.192H174.916V107.596H184.529V117.192ZM194.241 311.428H184.628V301.832H194.236L194.241 311.428ZM194.241 301.716H184.628V292.12H194.236L194.241 301.716ZM194.241 292.004H184.628V282.429H194.236L194.241 292.004ZM194.241 282.292H184.628V272.696H194.236L194.241 282.292ZM194.241 272.58H184.628V262.988H194.236L194.241 272.58ZM194.241 262.868H184.628V253.272H194.236L194.241 262.868ZM194.241 253.156H184.628V243.547H194.236L194.241 253.156ZM194.241 243.444H184.628V233.848H194.236L194.241 243.444ZM194.241 233.732H184.628V224.14H194.236L194.241 233.732ZM194.241 224.024H184.628V214.428H194.236L194.241 224.024ZM194.241 214.312H184.628V204.716H194.236L194.241 214.312ZM194.241 204.6H184.628V195.004H194.236L194.241 204.6ZM194.241 194.888H184.628V185.292H194.236L194.241 194.888ZM194.241 185.176H184.628V175.58H194.236L194.241 185.176ZM194.241 175.464H184.628V165.868H194.236L194.241 175.464ZM194.241 165.752H184.628V156.156H194.236L194.241 165.752ZM194.241 156.04H184.628V146.444H194.236L194.241 156.04ZM194.241 146.328H184.628V136.732H194.236L194.241 146.328ZM194.241 136.616H184.628V127.02H194.236L194.241 136.616ZM194.241 126.904H184.628V117.308H194.236L194.241 126.904ZM194.241 117.192H184.628V107.596H194.236L194.241 117.192ZM203.969 311.441H194.34V301.832H203.969V311.441ZM203.969 301.729H194.34V292.12H203.969V301.729ZM203.969 292.017H194.34V282.429H203.969V292.017ZM203.969 282.305H194.34V272.696H203.969V282.305ZM203.969 272.593H194.34V262.988H203.969V272.593ZM203.969 262.88H194.34V253.272H203.969V262.88ZM203.969 253.168H194.34V243.547H203.969V253.168ZM203.969 243.456H194.34V233.848H203.969V243.456ZM203.969 233.744H194.34V224.14H203.969V233.744ZM203.969 224.037H194.34V214.428H203.969V224.037ZM203.969 214.324H194.34V204.716H203.969V214.324ZM203.969 204.612H194.34V195.004H203.969V204.612ZM203.969 194.9H194.34V185.292H203.969V194.9ZM203.969 185.188H194.34V175.58H203.969V185.188ZM203.969 175.476H194.34V165.868H203.969V175.476ZM203.969 165.785H194.34V156.156H203.969V165.785ZM203.969 156.073H194.34V146.444H203.969V156.073ZM203.969 146.344H194.34V136.732H203.969V146.344ZM203.969 136.632H194.34V127.02H203.969V136.632ZM203.969 126.904H194.34V117.308H203.969V126.904ZM203.969 117.192H194.34V107.596H203.969V117.192Z" fill="url(#paint0_radial_1512_1554)"/>
<path d="M22.6529 184.375C-0.246823 207.255 -0.265131 244.364 22.6102 267.265C45.4855 290.167 82.5911 290.185 105.491 267.308C128.391 244.431 165.496 244.449 188.371 267.351C211.247 290.252 211.228 327.37 188.332 350.251" stroke="#FFFFE0" stroke-width="0.25" stroke-miterlimit="10"/>
<defs>
<radialGradient id="paint0_radial_1512_1554" cx="0" cy="0" r="1" gradientUnits="userSpaceOnUse" gradientTransform="translate(102.026 209.518) scale(102.026)">
<stop stop-color="#FFFFE0"/>
<stop offset="1" stop-color="#FFFFE0" stop-opacity="0"/>
</radialGradient>
</defs>
</svg>
