<svg width="334" height="316" viewBox="0 0 334 316" fill="none" xmlns="http://www.w3.org/2000/svg">
<g opacity="0.28">
<path opacity="0.28" d="M96.7519 299.767L100.629 295.89C101.715 294.698 102.753 293.463 103.744 292.186L93.0298 302.898C94.3164 301.902 95.5571 300.858 96.7519 299.767Z" fill="#FFFFE0"/>
</g>
<g opacity="0.28">
<path opacity="0.28" d="M149.815 51.7687L149.711 51.8721L149.608 51.9755L119.999 81.5812L119.896 81.6846L119.792 81.788L90.1835 111.394L90.0801 111.501L89.9768 111.605L69.2554 132.324L69.5655 132.608L90.274 111.902L90.3774 111.799L90.4808 111.695L120.09 82.0895L120.193 81.9861L120.296 81.8827L149.909 52.277L150.013 52.1693L150.116 52.0659L156.091 46.0914L155.807 45.7812L149.815 51.7687Z" fill="#FFFFE0"/>
<path opacity="0.28" d="M152.692 54.8533L152.589 54.9567L122.98 84.5624L122.877 84.6658L122.774 84.7691L93.1648 114.371L93.0614 114.474L92.958 114.577L72.4219 135.111L72.7493 135.378L93.2553 114.875L93.3586 114.771L93.462 114.668L123.071 85.0793L123.174 84.9759L123.278 84.8725L152.899 55.2582L153.003 55.1548L153.106 55.0471L158.879 49.275C158.788 49.1674 158.702 49.0554 158.612 48.9434L152.796 54.7499L152.692 54.8533Z" fill="#FFFFE0"/>
<path opacity="0.28" d="M164.621 66.7807L164.518 66.8841L134.909 96.4898L134.806 96.5932L134.702 96.6966L105.081 126.302L104.977 126.406L104.87 126.509L87.2456 144.148L87.6764 144.325L105.197 126.806L105.3 126.703L105.404 126.599L135.012 96.9938L135.116 96.8904L135.219 96.787L164.828 67.1813L164.931 67.0779L165.035 66.9746L167.822 64.1876C167.762 64.0497 167.706 63.9076 167.645 63.7568L164.738 66.6644L164.621 66.7807Z" fill="#FFFFE0"/>
<path opacity="0.28" d="M158.659 60.8189L158.555 60.9223L128.942 90.528L128.839 90.6314L128.736 90.7348L99.1268 120.34L99.0234 120.444L98.92 120.547L79.3833 140.082L79.7538 140.306L99.2172 120.832L99.3249 120.728L99.4283 120.625L129.037 91.0191L129.14 90.9157L129.244 90.8123L158.853 61.2066L158.956 61.1032L159.059 60.9999L163.798 56.2616L163.57 55.8911L158.762 60.7112L158.659 60.8189Z" fill="#FFFFE0"/>
<path opacity="0.28" d="M167.603 69.7615L167.499 69.8649L137.89 99.4706L137.787 99.574L137.684 99.6774L108.096 129.283L107.993 129.386L107.89 129.49L91.5537 145.815L91.9845 145.962L108.148 129.804L108.251 129.701L108.355 129.593L137.964 99.9875L138.067 99.8841L138.17 99.7807L167.779 70.175L167.883 70.0717L167.986 69.9683L169.42 68.5382C169.369 68.3874 169.321 68.2366 169.27 68.1074L167.689 69.6883L167.603 69.7615Z" fill="#FFFFE0"/>
<path opacity="0.28" d="M161.64 63.8L161.537 63.9034L131.928 93.5091L131.825 93.6124L131.721 93.7158L102.108 123.322L102.005 123.425L101.902 123.528L83.1963 142.232L83.5883 142.438L102.203 123.847L102.306 123.744L102.41 123.64L132.019 94.0346L132.122 93.9312L132.225 93.8278L161.834 64.2221L161.938 64.1187L162.041 64.0153L165.918 60.1386L165.716 59.7466L161.739 63.7224L161.64 63.8Z" fill="#FFFFE0"/>
<path opacity="0.28" d="M155.678 57.834L155.574 57.9373L125.961 87.5474L125.858 87.6507L125.754 87.7541L96.1456 117.36L96.0423 117.463L95.9389 117.567L75.7861 137.709L76.1351 137.954L96.2275 117.864L96.3309 117.76L96.4386 117.657L126.047 88.0513L126.151 87.948L126.254 87.8446L155.871 58.2389L155.975 58.1355L156.078 58.0321L161.437 52.6692L161.192 52.3203L155.781 57.7306L155.678 57.834Z" fill="#FFFFE0"/>
<path opacity="0.28" d="M170.48 72.8456L140.871 102.451L140.768 102.555L140.664 102.658L111.056 132.264L110.952 132.367L110.849 132.471L96.1499 147.168L96.6281 147.284L111.146 132.772L111.249 132.669L111.353 132.565L140.962 102.96L141.065 102.852L141.168 102.749L170.773 73.1514L170.708 72.88C170.708 72.8154 170.678 72.7551 170.661 72.6948L170.592 72.7637L170.48 72.8456Z" fill="#FFFFE0"/>
<path opacity="0.28" d="M152.692 114.482L152.589 114.586L122.98 144.192L122.877 144.295L122.773 144.398L118.53 148.641L119.206 148.564L123.083 144.687L123.187 144.584L123.29 144.48L152.899 114.883L153.002 114.78L153.106 114.676L172.061 95.7232L172.138 95.0469L152.795 114.37L152.692 114.482Z" fill="#FFFFE0"/>
<path opacity="0.28" d="M146.73 108.516L146.627 108.62L117.018 138.23L116.915 138.333L116.811 138.436L106.373 148.865L106.929 148.908L117.104 138.734L117.208 138.63L117.311 138.527L146.92 108.921L147.023 108.818L147.127 108.714L172.389 83.4551C172.389 83.2699 172.363 83.0846 172.345 82.8994L146.829 108.413L146.73 108.516Z" fill="#FFFFE0"/>
<path opacity="0.28" d="M149.711 111.502L149.608 111.605L119.999 141.211L119.896 141.314L119.792 141.417L112.154 149.055H112.757L120.081 141.732L120.184 141.629L120.288 141.525L149.901 111.919L150.004 111.816L150.108 111.713L172.509 89.3135C172.509 89.1111 172.509 88.9086 172.509 88.7104L149.784 111.428L149.711 111.502Z" fill="#FFFFE0"/>
<path opacity="0.28" d="M143.749 105.535L143.646 105.639L114.037 135.244L113.934 135.348L113.83 135.451L101.074 148.206L101.587 148.292L114.127 135.753L114.231 135.649L114.334 135.546L143.943 105.94L144.046 105.837L144.15 105.729L171.777 78.1093C171.751 77.937 171.721 77.769 171.691 77.5967L143.852 105.432L143.749 105.535Z" fill="#FFFFE0"/>
<path opacity="0.28" d="M158.659 120.444L158.556 120.547L134.629 144.471L135.663 144.041L158.853 120.832L158.957 120.728L159.06 120.625L167.517 112.169C167.666 111.824 167.809 111.48 167.947 111.135L158.754 120.328L158.659 120.444Z" fill="#FFFFE0"/>
<path opacity="0.28" d="M155.678 117.463L155.575 117.567L125.961 147.172L125.858 147.276L125.793 147.34L125.901 147.315L126.065 147.276C126.237 147.233 126.414 147.194 126.586 147.147L155.88 117.855L155.984 117.752L156.087 117.649L170.64 103.093C170.708 102.835 170.769 102.568 170.833 102.305L155.79 117.351L155.678 117.463Z" fill="#FFFFE0"/>
<path opacity="0.28" d="M81.434 43.227L81.5374 43.1236L96.1414 28.5254L95.3272 28.7408L81.2401 42.8264L81.1367 42.9298L81.0333 43.0332L52.213 71.8463C52.1397 72.1177 52.0665 72.389 51.9976 72.6604L81.3306 43.3304L81.434 43.227Z" fill="#FFFFE0"/>
<path opacity="0.28" d="M65.6108 47.121L70.6167 42.1372C68.8545 43.7018 67.1832 45.3658 65.6108 47.121Z" fill="#FFFFE0"/>
<path opacity="0.28" d="M78.453 40.2461L78.5564 40.1427L87.0862 31.6138L86.0179 32.0962L78.2635 39.8498L78.1558 39.9532L78.0524 40.0565L55.5389 62.5419C55.3795 62.8951 55.2244 63.2526 55.0693 63.6102L78.3324 40.3495L78.453 40.2461Z" fill="#FFFFE0"/>
<path opacity="0.28" d="M152.589 133.07L156.552 129.107C157.661 127.895 158.718 126.64 159.723 125.342L148.824 136.24C150.122 135.232 151.377 134.175 152.589 133.07Z" fill="#FFFFE0"/>
<path opacity="0.28" d="M63.5433 84.9672L63.6467 84.8638L93.2554 55.2581L93.3588 55.1547L93.4622 55.047L121.111 27.4056L120.59 27.3237L93.165 54.7498L93.0616 54.8532L92.9582 54.9566L63.3494 84.5623L63.246 84.6657L63.1427 84.769L50.8003 97.1144C50.8261 97.2868 50.8563 97.4591 50.8821 97.627L63.4399 85.0792L63.5433 84.9672Z" fill="#FFFFE0"/>
<path opacity="0.28" d="M57.5808 79.0012L57.6842 78.8978L87.293 49.2921L87.3963 49.1887L87.4997 49.0853L109.949 26.6431H109.333L87.2025 48.7881L87.0991 48.8915L86.9957 48.9949L57.387 78.6178L57.2836 78.7212L57.1802 78.8246L50.1323 85.8545C50.1323 86.0569 50.1323 86.2637 50.1323 86.4705L57.4947 79.1089L57.5808 79.0012Z" fill="#FFFFE0"/>
<path opacity="0.28" d="M60.5618 81.9865L60.6652 81.8832L90.2739 52.2774L90.3773 52.1698L90.4807 52.0664L115.764 26.7854L115.204 26.751L90.1835 51.7692L90.0801 51.8725L89.9767 51.9759L60.368 81.5816L60.2646 81.685L60.1612 81.7884L50.2227 91.7259C50.2227 91.9111 50.2227 92.1006 50.2571 92.2859L60.4584 82.0899L60.5618 81.9865Z" fill="#FFFFE0"/>
<path opacity="0.28" d="M54.5999 76.0332L54.7033 75.9298L84.3121 46.3112L84.4155 46.2078L84.5189 46.1044L103.508 27.1211C103.276 27.1469 103.043 27.1857 102.815 27.2159L84.2216 45.8072L84.1182 45.9106L84.0148 46.014L54.4061 75.6024L54.3027 75.7058L54.195 75.8092L50.6883 79.3155C50.6581 79.5481 50.6237 79.7807 50.5935 80.009L54.4965 76.1064L54.5999 76.0332Z" fill="#FFFFE0"/>
<path opacity="0.28" d="M87.4177 108.818L87.5211 108.715L117.13 79.1089L117.233 79.0012L117.337 78.8978L146.945 49.2921L147.049 49.1887L147.152 49.0853L153.114 43.1065L152.804 42.8179L146.833 48.7881L146.73 48.8915L146.627 48.9949L117.018 78.6178L116.914 78.7212L116.811 78.8246L87.2023 108.413L87.0989 108.516L86.9955 108.62L66.3086 129.322L66.5972 129.628L87.31 108.921L87.4177 108.818Z" fill="#FFFFE0"/>
<path opacity="0.28" d="M81.434 102.852L81.5373 102.748L111.146 73.1428L111.249 73.0394L111.353 72.936L140.962 43.3303L141.065 43.2269L141.168 43.1235L146.536 37.7607C146.42 37.6745 146.299 37.597 146.183 37.5151L140.871 42.8263L140.768 42.9297L140.664 43.0331L111.056 72.6388L110.952 72.7422L110.849 72.8456L81.2401 102.451L81.1367 102.555L81.0333 102.658L60.9883 122.701L61.2338 123.054L81.3306 102.96L81.434 102.852Z" fill="#FFFFE0"/>
<path opacity="0.28" d="M75.472 96.8902L75.5754 96.7868L105.184 67.1811L105.287 67.0777L105.391 66.9743L135 37.3686L135.103 37.2652L135.206 37.1618L139.084 33.2851L138.683 33.0869L134.896 36.8775L134.793 36.9809L134.689 37.0843L105.081 66.6771L104.977 66.7805L104.87 66.8839L75.2609 96.4896L75.1575 96.5929L75.0541 96.6963L56.5298 115.219C56.5944 115.352 56.659 115.486 56.728 115.619L75.3557 96.9935L75.472 96.8902Z" fill="#FFFFE0"/>
<path opacity="0.28" d="M69.5057 90.9286L69.6091 90.8252L99.2178 61.2195L99.3255 61.1161L99.4289 61.0127L129.038 31.407L129.141 31.3036L129.244 31.2002L130.688 29.7529L130.257 29.6064L128.964 30.8987L128.861 31.0021L128.758 31.1055L99.1274 60.7112L99.024 60.8189L98.9206 60.9222L69.3248 90.5279L69.2214 90.6313L69.118 90.7347L53.0923 106.759C53.1397 106.905 53.1914 107.056 53.2388 107.19L69.4152 91.0147L69.5057 90.9286Z" fill="#FFFFE0"/>
<path opacity="0.28" d="M84.4026 105.837L84.506 105.729L114.128 76.1237L114.231 76.0204L114.334 75.917L143.943 46.3113L144.047 46.2079L144.15 46.1045L149.927 40.3281L149.6 40.061L143.853 45.8073L143.749 45.9107L143.646 46.0141L114.037 75.6025L113.934 75.7059L113.83 75.8093L84.2217 105.415L84.1183 105.518L84.0149 105.622L63.5391 126.095L63.8018 126.427L84.3121 105.923L84.4026 105.837Z" fill="#FFFFE0"/>
<path opacity="0.28" d="M78.4529 99.8713L78.5563 99.7679L108.165 70.1622L108.268 70.0588L108.372 69.9554L137.981 40.3497L138.084 40.2463L138.187 40.1429L142.926 35.4047L142.547 35.1807L137.89 39.85L137.787 39.9534L137.683 40.0568L108.096 69.6582L107.993 69.7616L107.889 69.865L78.2806 99.4707L78.1729 99.574L78.0695 99.6774L58.6836 119.061C58.7568 119.186 58.8301 119.315 58.9076 119.436L78.3797 99.966L78.4529 99.8713Z" fill="#FFFFE0"/>
<path opacity="0.28" d="M72.4907 93.9095L72.5941 93.8061L102.203 64.2004L102.306 64.097L102.41 63.9937L132.018 34.3879L132.122 34.2846L132.225 34.1812L135.025 31.3813L134.595 31.209L131.924 33.8797L131.82 33.983L131.717 34.0907L102.108 63.6964L102.005 63.7998L101.901 63.9032L72.2926 93.5089L72.1892 93.6123L72.0858 93.7157L54.6772 111.118C54.7332 111.26 54.7893 111.402 54.8496 111.549L72.3787 94.0215L72.4907 93.9095Z" fill="#FFFFE0"/>
<path opacity="0.28" d="M66.5244 87.948L66.6278 87.8446L96.2365 58.2389L96.3399 58.1355L96.4476 58.0322L126.056 28.4264H126.03L125.574 28.3145L96.146 57.7306L96.0426 57.834L95.9392 57.9374L66.3305 87.5474L66.2271 87.6508L66.1237 87.7542L51.7695 102.103C51.8083 102.266 51.8471 102.426 51.8902 102.585L66.421 88.0514L66.5244 87.948Z" fill="#FFFFE0"/>
</g>
<path d="M120.538 72.6172V285.117H333.059V72.6172H120.538ZM130.653 285.009H120.645V275.002H130.653V285.009ZM130.653 274.895H120.645V264.888H130.653V274.895ZM130.653 264.781H120.645V254.796H130.653V264.781ZM130.653 254.667H120.645V244.66H130.653V254.667ZM130.653 244.553H120.645V234.55H130.653V244.553ZM130.653 234.438H120.645V224.432H130.653V234.438ZM130.653 224.324H120.645V214.305H130.653V224.324ZM130.653 214.21H120.645V204.204H130.653V214.21ZM130.653 204.096H120.645V194.094H130.653V204.096ZM130.653 193.986H120.645V183.98H130.653V193.986ZM130.653 183.872H120.645V173.866H130.653V183.872ZM130.653 173.758H120.645V163.752H130.653V173.758ZM130.653 163.644H120.645V153.638H130.653V163.644ZM130.653 153.53H120.645V143.524H130.653V153.53ZM130.653 143.416H120.645V133.409H130.653V143.416ZM130.653 133.302H120.645V123.295H130.653V133.302ZM130.653 123.188H120.645V113.181H130.653V123.188ZM130.653 113.074H120.645V103.067H130.653V113.074ZM130.653 102.959H120.645V92.9531H130.653V102.959ZM130.653 92.8454H120.645V82.839H130.653V92.8454ZM130.653 82.7313H120.645V72.7249H130.653V82.7313ZM140.768 285.009H130.76V275.002H140.768V285.009ZM140.768 274.895H130.76V264.888H140.768V274.895ZM140.768 264.781H130.76V254.796H140.768V264.781ZM140.768 254.667H130.76V244.66H140.768V254.667ZM140.768 244.553H130.76V234.55H140.768V244.553ZM140.768 234.438H130.76V224.432H140.768V234.438ZM140.768 224.324H130.76V214.305H140.768V224.324ZM140.768 214.21H130.76V204.204H140.768V214.21ZM140.768 204.096H130.76V194.094H140.768V204.096ZM140.768 193.986H130.76V183.98H140.768V193.986ZM140.768 183.872H130.76V173.866H140.768V183.872ZM140.768 173.758H130.76V163.752H140.768V173.758ZM140.768 163.644H130.76V153.638H140.768V163.644ZM140.768 153.53H130.76V143.524H140.768V153.53ZM140.768 143.416H130.76V133.409H140.768V143.416ZM140.768 133.302H130.76V123.295H140.768V133.302ZM140.768 123.188H130.76V113.181H140.768V123.188ZM140.768 113.074H130.76V103.067H140.768V113.074ZM140.768 102.959H130.76V92.9531H140.768V102.959ZM140.768 92.8454H130.76V82.839H140.768V92.8454ZM140.768 82.7313H130.76V72.7249H140.768V82.7313ZM150.883 285.009H140.876V275.002H150.883V285.009ZM150.883 274.895H140.876V264.888H150.883V274.895ZM150.883 264.781H140.876V254.796H150.883V264.781ZM150.883 254.667H140.876V244.66H150.883V254.667ZM150.883 244.553H140.876V234.55H150.883V244.553ZM150.883 234.438H140.876V224.432H150.883V234.438ZM150.883 224.324H140.876V214.305H150.883V224.324ZM150.883 214.21H140.876V204.204H150.883V214.21ZM150.883 204.096H140.876V194.094H150.883V204.096ZM150.883 193.986H140.876V183.98H150.883V193.986ZM150.883 183.872H140.876V173.866H150.883V183.872ZM150.883 173.758H140.876V163.752H150.883V173.758ZM150.883 163.644H140.876V153.638H150.883V163.644ZM150.883 153.53H140.876V143.524H150.883V153.53ZM150.883 143.416H140.876V133.409H150.883V143.416ZM150.883 133.302H140.876V123.295H150.883V133.302ZM150.883 123.188H140.876V113.181H150.883V123.188ZM150.883 113.074H140.876V103.067H150.883V113.074ZM150.883 102.959H140.876V92.9531H150.883V102.959ZM150.883 92.8454H140.876V82.839H150.883V92.8454ZM150.883 82.7313H140.876V72.7249H150.883V82.7313ZM160.998 285.009H150.991V275.002H160.998V285.009ZM160.998 274.895H150.991V264.888H160.998V274.895ZM160.998 264.781H150.991V254.796H160.998V264.781ZM160.998 254.667H150.991V244.66H160.998V254.667ZM160.998 244.553H150.991V234.55H160.998V244.553ZM160.998 234.438H150.991V224.432H160.998V234.438ZM160.998 224.324H150.991V214.305H160.998V224.324ZM160.998 214.21H150.991V204.204H160.998V214.21ZM160.998 204.096H150.991V194.094H160.998V204.096ZM160.998 193.986H150.991V183.98H160.998V193.986ZM160.998 183.872H150.991V173.866H160.998V183.872ZM160.998 173.758H150.991V163.752H160.998V173.758ZM160.998 163.644H150.991V153.638H160.998V163.644ZM160.998 153.53H150.991V143.524H160.998V153.53ZM160.998 143.416H150.991V133.409H160.998V143.416ZM160.998 133.302H150.991V123.295H160.998V133.302ZM160.998 123.188H150.991V113.181H160.998V123.188ZM160.998 113.074H150.991V103.067H160.998V113.074ZM160.998 102.959H150.991V92.9531H160.998V102.959ZM160.998 92.8454H150.991V82.839H160.998V92.8454ZM160.998 82.7313H150.991V72.7249H160.998V82.7313ZM171.113 285.009H161.106V275.002H171.113V285.009ZM171.113 274.895H161.106V264.888H171.113V274.895ZM171.113 264.781H161.106V254.796H171.113V264.781ZM171.113 254.667H161.106V244.66H171.113V254.667ZM171.113 244.553H161.106V234.55H171.113V244.553ZM171.113 234.438H161.106V224.432H171.113V234.438ZM171.113 224.324H161.106V214.305H171.113V224.324ZM171.113 214.21H161.106V204.204H171.113V214.21ZM171.113 204.096H161.106V194.094H171.113V204.096ZM171.113 193.986H161.106V183.98H171.113V193.986ZM171.113 183.872H161.106V173.866H171.113V183.872ZM171.113 173.758H161.106V163.752H171.113V173.758ZM171.113 163.644H161.106V153.638H171.113V163.644ZM171.113 153.53H161.106V143.524H171.113V153.53ZM171.113 143.416H161.106V133.409H171.113V143.416ZM171.113 133.302H161.106V123.295H171.113V133.302ZM171.113 123.188H161.106V113.181H171.113V123.188ZM171.113 113.074H161.106V103.067H171.113V113.074ZM171.113 102.959H161.106V92.9531H171.113V102.959ZM171.113 92.8454H161.106V82.839H171.113V92.8454ZM171.113 82.7313H161.106V72.7249H171.113V82.7313ZM181.228 285.009H171.221V275.002H181.228V285.009ZM181.228 274.895H171.221V264.888H181.228V274.895ZM181.228 264.781H171.221V254.796H181.228V264.781ZM181.228 254.667H171.221V244.66H181.228V254.667ZM181.228 244.553H171.221V234.55H181.228V244.553ZM181.228 234.438H171.221V224.432H181.228V234.438ZM181.228 224.324H171.221V214.305H181.228V224.324ZM181.228 214.21H171.221V204.204H181.228V214.21ZM181.228 204.096H171.221V194.094H181.228V204.096ZM181.228 193.986H171.221V183.98H181.228V193.986ZM181.228 183.872H171.221V173.866H181.228V183.872ZM181.228 173.758H171.221V163.752H181.228V173.758ZM181.228 163.644H171.221V153.638H181.228V163.644ZM181.228 153.53H171.221V143.524H181.228V153.53ZM181.228 143.416H171.221V133.409H181.228V143.416ZM181.228 133.302H171.221V123.295H181.228V133.302ZM181.228 123.188H171.221V113.181H181.228V123.188ZM181.228 113.074H171.221V103.067H181.228V113.074ZM181.228 102.959H171.221V92.9531H181.228V102.959ZM181.228 92.8454H171.221V82.839H181.228V92.8454ZM181.228 82.7313H171.221V72.7249H181.228V82.7313ZM191.344 285.009H181.332V275.002H191.339L191.344 285.009ZM191.344 274.895H181.332V264.888H191.339L191.344 274.895ZM191.344 264.781H181.332V254.796H191.339L191.344 264.781ZM191.344 254.667H181.332V244.66H191.339L191.344 254.667ZM191.344 244.553H181.332V234.55H191.339L191.344 244.553ZM191.344 234.438H181.332V224.432H191.339L191.344 234.438ZM191.344 224.324H181.332V214.305H191.339L191.344 224.324ZM191.344 214.21H181.332V204.204H191.339L191.344 214.21ZM191.344 204.096H181.332V194.094H191.339L191.344 204.096ZM191.344 193.986H181.332V183.98H191.339L191.344 193.986ZM191.344 183.872H181.332V173.866H191.339L191.344 183.872ZM191.344 173.758H181.332V163.752H191.339L191.344 173.758ZM191.344 163.644H181.332V153.638H191.339L191.344 163.644ZM191.344 153.53H181.332V143.524H191.339L191.344 153.53ZM191.344 143.416H181.332V133.409H191.339L191.344 143.416ZM191.344 133.302H181.332V123.295H191.339L191.344 133.302ZM191.344 123.188H181.332V113.181H191.339L191.344 123.188ZM191.344 113.074H181.332V103.067H191.339L191.344 113.074ZM191.344 102.959H181.332V92.9531H191.339L191.344 102.959ZM191.344 92.8454H181.332V82.839H191.339L191.344 92.8454ZM191.344 82.7313H181.332V72.7249H191.339L191.344 82.7313ZM201.459 285.009H191.451V275.002H201.459V285.009ZM201.459 274.895H191.451V264.888H201.459V274.895ZM201.459 264.781H191.451V254.796H201.459V264.781ZM201.459 254.667H191.451V244.66H201.459V254.667ZM201.459 244.553H191.451V234.55H201.459V244.553ZM201.459 234.438H191.451V224.432H201.459V234.438ZM201.459 224.324H191.451V214.305H201.459V224.324ZM201.459 214.21H191.451V204.204H201.459V214.21ZM201.459 204.096H191.451V194.094H201.459V204.096ZM201.459 193.986H191.451V183.98H201.459V193.986ZM201.459 183.872H191.451V173.866H201.459V183.872ZM201.459 173.758H191.451V163.752H201.459V173.758ZM201.459 163.644H191.451V153.638H201.459V163.644ZM201.459 153.53H191.451V143.524H201.459V153.53ZM201.459 143.416H191.451V133.409H201.459V143.416ZM201.459 133.302H191.451V123.295H201.459V133.302ZM201.459 123.188H191.451V113.181H201.459V123.188ZM201.459 113.074H191.451V103.067H201.459V113.074ZM201.459 102.959H191.451V92.9531H201.459V102.959ZM201.459 92.8454H191.451V82.839H201.459V92.8454ZM201.459 82.7313H191.451V72.7249H201.459V82.7313ZM211.57 285.009H201.579V275.002H211.582L211.57 285.009ZM211.57 274.895H201.579V264.888H211.582L211.57 274.895ZM211.57 264.781H201.579V254.796H211.582L211.57 264.781ZM211.57 254.667H201.579V244.66H211.582L211.57 254.667ZM211.57 244.553H201.579V234.55H211.582L211.57 244.553ZM211.57 234.438H201.579V224.432H211.582L211.57 234.438ZM211.57 224.324H201.579V214.305H211.582L211.57 224.324ZM211.57 214.21H201.579V204.204H211.582L211.57 214.21ZM211.57 204.096H201.579V194.094H211.582L211.57 204.096ZM211.57 193.986H201.579V183.98H211.582L211.57 193.986ZM211.57 183.872H201.579V173.866H211.582L211.57 183.872ZM211.57 173.758H201.579V163.752H211.582L211.57 173.758ZM211.57 163.644H201.579V153.638H211.582L211.57 163.644ZM211.57 153.53H201.579V143.524H211.582L211.57 153.53ZM211.57 143.416H201.579V133.409H211.582L211.57 143.416ZM211.57 133.302H201.579V123.295H211.582L211.57 133.302ZM211.57 123.188H201.579V113.181H211.582L211.57 123.188ZM211.57 113.074H201.579V103.067H211.582L211.57 113.074ZM211.57 102.959H201.579V92.9531H211.582L211.57 102.959ZM211.57 92.8454H201.579V82.839H211.582L211.57 92.8454ZM211.57 82.7313H201.579V72.7249H211.582L211.57 82.7313ZM221.685 285.009H211.677V275.002H221.685V285.009ZM221.685 274.895H211.677V264.888H221.685V274.895ZM221.685 264.781H211.677V254.796H221.685V264.781ZM221.685 254.667H211.677V244.66H221.685V254.667ZM221.685 244.553H211.677V234.55H221.685V244.553ZM221.685 234.438H211.677V224.432H221.685V234.438ZM221.685 224.324H211.677V214.305H221.685V224.324ZM221.685 214.21H211.677V204.204H221.685V214.21ZM221.685 204.096H211.677V194.094H221.685V204.096ZM221.685 193.986H211.677V183.98H221.685V193.986ZM221.685 183.872H211.677V173.866H221.685V183.872ZM221.685 173.758H211.677V163.752H221.685V173.758ZM221.685 163.644H211.677V153.638H221.685V163.644ZM221.685 153.53H211.677V143.524H221.685V153.53ZM221.685 143.416H211.677V133.409H221.685V143.416ZM221.685 133.302H211.677V123.295H221.685V133.302ZM221.685 123.188H211.677V113.181H221.685V123.188ZM221.685 113.074H211.677V103.067H221.685V113.074ZM221.685 102.959H211.677V92.9531H221.685V102.959ZM221.685 92.8454H211.677V82.839H221.685V92.8454ZM221.685 82.7313H211.677V72.7249H221.685V82.7313ZM231.8 285.009H221.792V275.002H231.8V285.009ZM231.8 274.895H221.792V264.888H231.8V274.895ZM231.8 264.781H221.792V254.796H231.8V264.781ZM231.8 254.667H221.792V244.66H231.8V254.667ZM231.8 244.553H221.792V234.55H231.8V244.553ZM231.8 234.438H221.792V224.432H231.8V234.438ZM231.8 224.324H221.792V214.305H231.8V224.324ZM231.8 214.21H221.792V204.204H231.8V214.21ZM231.8 204.096H221.792V194.094H231.8V204.096ZM231.8 193.986H221.792V183.98H231.8V193.986ZM231.8 183.872H221.792V173.866H231.8V183.872ZM231.8 173.758H221.792V163.752H231.8V173.758ZM231.8 163.644H221.792V153.638H231.8V163.644ZM231.8 153.53H221.792V143.524H231.8V153.53ZM231.8 143.416H221.792V133.409H231.8V143.416ZM231.8 133.302H221.792V123.295H231.8V133.302ZM231.8 123.188H221.792V113.181H231.8V123.188ZM231.8 113.074H221.792V103.067H231.8V113.074ZM231.8 102.959H221.792V92.9531H231.8V102.959ZM231.8 92.8454H221.792V82.839H231.8V92.8454ZM231.8 82.7313H221.792V72.7249H231.8V82.7313ZM241.915 285.009H231.908V275.002H241.915V285.009ZM241.915 274.895H231.908V264.888H241.915V274.895ZM241.915 264.781H231.908V254.796H241.915V264.781ZM241.915 254.667H231.908V244.66H241.915V254.667ZM241.915 244.553H231.908V234.55H241.915V244.553ZM241.915 234.438H231.908V224.432H241.915V234.438ZM241.915 224.324H231.908V214.305H241.915V224.324ZM241.915 214.21H231.908V204.204H241.915V214.21ZM241.915 204.096H231.908V194.094H241.915V204.096ZM241.915 193.986H231.908V183.98H241.915V193.986ZM241.915 183.872H231.908V173.866H241.915V183.872ZM241.915 173.758H231.908V163.752H241.915V173.758ZM241.915 163.644H231.908V153.638H241.915V163.644ZM241.915 153.53H231.908V143.524H241.915V153.53ZM241.915 143.416H231.908V133.409H241.915V143.416ZM241.915 133.302H231.908V123.295H241.915V133.302ZM241.915 123.188H231.908V113.181H241.915V123.188ZM241.915 113.074H231.908V103.067H241.915V113.074ZM241.915 102.959H231.908V92.9531H241.915V102.959ZM241.915 92.8454H231.908V82.839H241.915V92.8454ZM241.915 82.7313H231.908V72.7249H241.915V82.7313ZM252.03 285.009H242.023V275.002H252.03V285.009ZM252.03 274.895H242.023V264.888H252.03V274.895ZM252.03 264.781H242.023V254.796H252.03V264.781ZM252.03 254.667H242.023V244.66H252.03V254.667ZM252.03 244.553H242.023V234.55H252.03V244.553ZM252.03 234.438H242.023V224.432H252.03V234.438ZM252.03 224.324H242.023V214.305H252.03V224.324ZM252.03 214.21H242.023V204.204H252.03V214.21ZM252.03 204.096H242.023V194.094H252.03V204.096ZM252.03 193.986H242.023V183.98H252.03V193.986ZM252.03 183.872H242.023V173.866H252.03V183.872ZM252.03 173.758H242.023V163.752H252.03V173.758ZM252.03 163.644H242.023V153.638H252.03V163.644ZM252.03 153.53H242.023V143.524H252.03V153.53ZM252.03 143.416H242.023V133.409H252.03V143.416ZM252.03 133.302H242.023V123.295H252.03V133.302ZM252.03 123.188H242.023V113.181H252.03V123.188ZM252.03 113.074H242.023V103.067H252.03V113.074ZM252.03 102.959H242.023V92.9531H252.03V102.959ZM252.03 92.8454H242.023V82.839H252.03V92.8454ZM252.03 82.7313H242.023V72.7249H252.03V82.7313ZM262.145 285.009H252.138V275.002H262.145V285.009ZM262.145 274.895H252.138V264.888H262.145V274.895ZM262.145 264.781H252.138V254.796H262.145V264.781ZM262.145 254.667H252.138V244.66H262.145V254.667ZM262.145 244.553H252.138V234.55H262.145V244.553ZM262.145 234.438H252.138V224.432H262.145V234.438ZM262.145 224.324H252.138V214.305H262.145V224.324ZM262.145 214.21H252.138V204.204H262.145V214.21ZM262.145 204.096H252.138V194.094H262.145V204.096ZM262.145 193.986H252.138V183.98H262.145V193.986ZM262.145 183.872H252.138V173.866H262.145V183.872ZM262.145 173.758H252.138V163.752H262.145V173.758ZM262.145 163.644H252.138V153.638H262.145V163.644ZM262.145 153.53H252.138V143.524H262.145V153.53ZM262.145 143.416H252.138V133.409H262.145V143.416ZM262.145 133.302H252.138V123.295H262.145V133.302ZM262.145 123.188H252.138V113.181H262.145V123.188ZM262.145 113.074H252.138V103.067H262.145V113.074ZM262.145 102.959H252.138V92.9531H262.145V102.959ZM262.145 92.8454H252.138V82.839H262.145V92.8454ZM262.145 82.7313H252.138V72.7249H262.145V82.7313ZM272.26 285.009H262.253V275.002H272.26V285.009ZM272.26 274.895H262.253V264.888H272.26V274.895ZM272.26 264.781H262.253V254.796H272.26V264.781ZM272.26 254.667H262.253V244.66H272.26V254.667ZM272.26 244.553H262.253V234.55H272.26V244.553ZM272.26 234.438H262.253V224.432H272.26V234.438ZM272.26 224.324H262.253V214.305H272.26V224.324ZM272.26 214.21H262.253V204.204H272.26V214.21ZM272.26 204.096H262.253V194.094H272.26V204.096ZM272.26 193.986H262.253V183.98H272.26V193.986ZM272.26 183.872H262.253V173.866H272.26V183.872ZM272.26 173.758H262.253V163.752H272.26V173.758ZM272.26 163.644H262.253V153.638H272.26V163.644ZM272.26 153.53H262.253V143.524H272.26V153.53ZM272.26 143.416H262.253V133.409H272.26V143.416ZM272.26 133.302H262.253V123.295H272.26V133.302ZM272.26 123.188H262.253V113.181H272.26V123.188ZM272.26 113.074H262.253V103.067H272.26V113.074ZM272.26 102.959H262.253V92.9531H272.26V102.959ZM272.26 92.8454H262.253V82.839H272.26V92.8454ZM272.26 82.7313H262.253V72.7249H272.26V82.7313ZM282.375 285.009H272.368V275.002H282.375V285.009ZM282.375 274.895H272.368V264.888H282.375V274.895ZM282.375 264.781H272.368V254.796H282.375V264.781ZM282.375 254.667H272.368V244.66H282.375V254.667ZM282.375 244.553H272.368V234.55H282.375V244.553ZM282.375 234.438H272.368V224.432H282.375V234.438ZM282.375 224.324H272.368V214.305H282.375V224.324ZM282.375 214.21H272.368V204.204H282.375V214.21ZM282.375 204.096H272.368V194.094H282.375V204.096ZM282.375 193.986H272.368V183.98H282.375V193.986ZM282.375 183.872H272.368V173.866H282.375V183.872ZM282.375 173.758H272.368V163.752H282.375V173.758ZM282.375 163.644H272.368V153.638H282.375V163.644ZM282.375 153.53H272.368V143.524H282.375V153.53ZM282.375 143.416H272.368V133.409H282.375V143.416ZM282.375 133.302H272.368V123.295H282.375V133.302ZM282.375 123.188H272.368V113.181H282.375V123.188ZM282.375 113.074H272.368V103.067H282.375V113.074ZM282.375 102.959H272.368V92.9531H282.375V102.959ZM282.375 92.8454H272.368V82.839H282.375V92.8454ZM282.375 82.7313H272.368V72.7249H282.375V82.7313ZM292.478 285.009H282.483V275.002H292.478V285.009ZM292.478 274.895H282.483V264.888H292.478V274.895ZM292.478 264.781H282.483V254.796H292.478V264.781ZM292.478 254.667H282.483V244.66H292.478V254.667ZM292.478 244.553H282.483V234.55H292.478V244.553ZM292.478 234.438H282.483V224.432H292.478V234.438ZM292.478 224.324H282.483V214.305H292.478V224.324ZM292.478 214.21H282.483V204.204H292.478V214.21ZM292.478 204.096H282.483V194.094H292.478V204.096ZM292.478 193.986H282.483V183.98H292.478V193.986ZM292.478 183.872H282.483V173.866H292.478V183.872ZM292.478 173.758H282.483V163.752H292.478V173.758ZM292.478 163.644H282.483V153.638H292.478V163.644ZM292.478 153.53H282.483V143.524H292.478V153.53ZM292.478 143.416H282.483V133.409H292.478V143.416ZM292.478 133.323H282.483V123.295H292.478V133.323ZM292.478 123.209H282.483V113.181H292.478V123.209ZM292.478 113.078H282.483V103.067H292.478V113.078ZM292.478 102.964H282.483V92.9531H292.478V102.964ZM292.478 92.8325H282.483V82.839H292.478V92.8325ZM292.478 82.7184H282.483V72.7249H292.478V82.7184ZM302.593 284.996H292.598V275.002H302.606L302.593 284.996ZM302.593 274.882H292.598V264.888H302.606L302.593 274.882ZM302.593 264.768H292.598V254.796H302.606L302.593 264.768ZM302.593 254.654H292.598V244.66H302.606L302.593 254.654ZM302.593 244.54H292.598V234.55H302.606L302.593 244.54ZM302.593 234.425H292.598V224.432H302.606L302.593 234.425ZM302.593 224.311H292.598V214.305H302.606L302.593 224.311ZM302.593 214.197H292.598V204.204H302.606L302.593 214.197ZM302.593 204.083H292.598V194.094H302.606L302.593 204.083ZM302.593 193.973H292.598V183.98H302.606L302.593 193.973ZM302.593 183.859H292.598V173.866H302.606L302.593 183.859ZM302.593 173.745H292.598V163.752H302.606L302.593 173.745ZM302.593 163.631H292.598V153.638H302.606L302.593 163.631ZM302.593 153.517H292.598V143.524H302.606L302.593 153.517ZM302.593 143.403H292.598V133.409H302.606L302.593 143.403ZM302.593 133.289H292.598V123.295H302.606L302.593 133.289ZM302.593 123.175H292.598V113.181H302.606L302.593 123.175ZM302.593 113.061H292.598V103.067H302.606L302.593 113.061ZM302.593 102.947H292.598V92.9531H302.606L302.593 102.947ZM302.593 92.8325H292.598V82.839H302.606L302.593 92.8325ZM302.593 82.7184H292.598V72.7249H302.606L302.593 82.7184ZM312.725 285.009H302.713V275.002H312.725V285.009ZM312.725 274.895H302.713V264.888H312.725V274.895ZM312.725 264.781H302.713V254.796H312.725V264.781ZM312.725 254.667H302.713V244.66H312.725V254.667ZM312.725 244.553H302.713V234.55H312.725V244.553ZM312.725 234.438H302.713V224.432H312.725V234.438ZM312.725 224.324H302.713V214.305H312.725V224.324ZM312.725 214.21H302.713V204.204H312.725V214.21ZM312.725 204.096H302.713V194.094H312.725V204.096ZM312.725 193.986H302.713V183.98H312.725V193.986ZM312.725 183.872H302.713V173.866H312.725V183.872ZM312.725 173.758H302.713V163.752H312.725V173.758ZM312.725 163.644H302.713V153.638H312.725V163.644ZM312.725 153.53H302.713V143.524H312.725V153.53ZM312.725 143.416H302.713V133.409H312.725V143.416ZM312.725 133.323H302.713V123.295H312.725V133.323ZM312.725 123.209H302.713V113.181H312.725V123.209ZM312.725 113.078H302.713V103.067H312.725V113.078ZM312.725 102.964H302.713V92.9531H312.725V102.964ZM312.725 92.8325H302.713V82.839H312.725V92.8325ZM312.725 82.7184H302.713V72.7249H312.725V82.7184ZM322.84 284.996H312.829V275.002H322.836L322.84 284.996ZM322.84 274.882H312.829V264.888H322.836L322.84 274.882ZM322.84 264.768H312.829V254.796H322.836L322.84 264.768ZM322.84 254.654H312.829V244.66H322.836L322.84 254.654ZM322.84 244.54H312.829V234.55H322.836L322.84 244.54ZM322.84 234.425H312.829V224.432H322.836L322.84 234.425ZM322.84 224.311H312.829V214.305H322.836L322.84 224.311ZM322.84 214.197H312.829V204.204H322.836L322.84 214.197ZM322.84 204.083H312.829V194.094H322.836L322.84 204.083ZM322.84 193.973H312.829V183.98H322.836L322.84 193.973ZM322.84 183.859H312.829V173.866H322.836L322.84 183.859ZM322.84 173.745H312.829V163.752H322.836L322.84 173.745ZM322.84 163.631H312.829V153.638H322.836L322.84 163.631ZM322.84 153.517H312.829V143.524H322.836L322.84 153.517ZM322.84 143.403H312.829V133.409H322.836L322.84 143.403ZM322.84 133.289H312.829V123.295H322.836L322.84 133.289ZM322.84 123.175H312.829V113.181H322.836L322.84 123.175ZM322.84 113.061H312.829V103.067H322.836L322.84 113.061ZM322.84 102.947H312.829V92.9531H322.836L322.84 102.947ZM322.84 92.8325H312.829V82.839H322.836L322.84 92.8325ZM322.84 82.7184H312.829V72.7249H322.836L322.84 82.7184ZM332.973 285.009H322.944V275.002H332.973V285.009ZM332.973 274.895H322.944V264.888H332.973V274.895ZM332.973 264.781H322.944V254.796H332.973V264.781ZM332.973 254.667H322.944V244.66H332.973V254.667ZM332.973 244.553H322.944V234.55H332.973V244.553ZM332.973 234.438H322.944V224.432H332.973V234.438ZM332.973 224.324H322.944V214.305H332.973V224.324ZM332.973 214.21H322.944V204.204H332.973V214.21ZM332.973 204.096H322.944V194.094H332.973V204.096ZM332.973 193.986H322.944V183.98H332.973V193.986ZM332.973 183.872H322.944V173.866H332.973V183.872ZM332.973 173.758H322.944V163.752H332.973V173.758ZM332.973 163.644H322.944V153.638H332.973V163.644ZM332.973 153.53H322.944V143.524H332.973V153.53ZM332.973 143.416H322.944V133.409H332.973V143.416ZM332.973 133.323H322.944V123.295H332.973V133.323ZM332.973 123.209H322.944V113.181H332.973V123.209ZM332.973 113.078H322.944V103.067H332.973V113.078ZM332.973 102.964H322.944V92.9531H332.973V102.964ZM332.973 92.8325H322.944V82.839H332.973V92.8325ZM332.973 82.7184H322.944V72.7249H332.973V82.7184Z" fill="url(#paint0_radial_1505_1553)"/>
<path d="M126.497 126.483C149.784 103.198 149.784 65.446 126.497 42.161C103.209 18.8761 65.4529 18.8761 42.1655 42.1611C18.8782 65.4461 18.8781 103.198 42.1655 126.483C65.4529 149.768 103.209 149.768 126.497 126.483Z" stroke="#FFFFE0" stroke-width="0.25" stroke-miterlimit="10"/>
<path opacity="0.28" d="M148.02 219.832L147.921 219.931L147.818 220.035L118.705 249.145L118.606 249.244L118.502 249.347L89.3888 278.458L89.2854 278.561L89.1863 278.66L68.8096 299.035L69.1154 299.315L89.4793 278.953L89.5783 278.854L89.6817 278.751L118.795 249.662L118.898 249.563L118.998 249.459L148.111 220.349L148.214 220.246L148.313 220.147L154.194 214.267L153.909 213.965L148.02 219.832Z" fill="#FFFFE0"/>
<path opacity="0.28" d="M150.851 222.865L150.752 222.964L121.638 252.074L121.535 252.177L121.432 252.281L92.3183 281.387L92.2192 281.49L92.1158 281.594L71.9243 301.783L72.2474 302.046L92.4088 281.886L92.5122 281.783L92.6155 281.684L121.725 252.574L121.828 252.47L121.931 252.367L151.045 223.261L151.144 223.157L151.247 223.054L156.925 217.377L156.662 217.054L150.954 222.761L150.851 222.865Z" fill="#FFFFE0"/>
<path opacity="0.28" d="M162.577 234.585L162.478 234.689L133.365 263.795L133.261 263.898L133.158 264.001L104.049 293.112L103.945 293.211L103.842 293.314L86.498 310.656L86.9288 310.829L104.161 293.599L104.264 293.495L104.368 293.396L133.455 264.307L133.554 264.204L133.658 264.105L162.784 234.986L162.883 234.883L162.986 234.779L165.726 232.04C165.67 231.902 165.61 231.768 165.55 231.63L162.693 234.486L162.577 234.585Z" fill="#FFFFE0"/>
<path opacity="0.28" d="M156.714 228.727L156.615 228.826L127.502 257.937L127.398 258.04L127.295 258.143L98.1642 287.254L98.0651 287.353L97.9618 287.456L78.7783 306.663L79.1445 306.887L98.2805 287.749L98.3839 287.646L98.4873 287.547L127.601 258.436L127.7 258.333L127.803 258.23L156.916 229.123L157.016 229.02L157.119 228.917L161.772 224.265L161.552 223.898L156.813 228.637L156.714 228.727Z" fill="#FFFFE0"/>
<path opacity="0.28" d="M165.511 237.519L165.408 237.622L136.294 266.733L136.195 266.836L136.092 266.935L106.978 296.046L106.875 296.149L106.776 296.248L90.7373 312.289L91.1681 312.436L107.06 296.545L107.164 296.442L107.263 296.338L136.376 267.228L136.479 267.129L136.579 267.026L165.692 237.915L165.795 237.816L165.899 237.713L167.303 236.304C167.256 236.158 167.208 236.011 167.157 235.874L165.601 237.429L165.511 237.519Z" fill="#FFFFE0"/>
<path opacity="0.28" d="M159.648 231.656L159.544 231.76L130.431 260.861L130.332 260.965L130.228 261.064L101.115 290.174L101.012 290.277L100.913 290.376L82.5176 308.77L82.9053 308.968L101.206 290.669L101.309 290.57L101.408 290.467L130.521 261.357L130.625 261.258L130.724 261.154L159.837 232.044L159.941 231.94L160.04 231.841L163.857 228.025L163.658 227.637L159.768 231.57L159.648 231.656Z" fill="#FFFFE0"/>
<path opacity="0.28" d="M153.785 225.793L153.682 225.897L124.568 255.007L124.469 255.111L124.366 255.21L95.2526 284.32L95.1492 284.423L95.0501 284.522L75.2334 304.337L75.578 304.578L95.3344 284.824L95.4378 284.725L95.5369 284.622L124.65 255.511L124.754 255.412L124.853 255.309L153.966 226.198L154.069 226.099L154.169 225.97L159.437 220.698C159.355 220.586 159.278 220.469 159.196 220.353L153.871 225.677L153.785 225.793Z" fill="#FFFFE0"/>
<path opacity="0.28" d="M168.342 240.555L139.228 269.666L139.125 269.765L139.026 269.868L109.913 298.979L109.809 299.078L109.706 299.181L95.2568 313.633L95.7264 313.745L109.999 299.474L110.102 299.371L110.206 299.272L139.319 270.161L139.418 270.058L139.521 269.959L168.626 240.853L168.561 240.581C168.561 240.521 168.531 240.461 168.514 240.4L168.445 240.469L168.342 240.555Z" fill="#FFFFE0"/>
<path opacity="0.28" d="M150.851 281.49L150.752 281.594L121.639 310.704L121.535 310.803L121.432 310.906L117.262 315.08L117.925 315.003L121.725 311.199L121.828 311.096L121.932 310.997L151.045 281.886L151.144 281.783L151.247 281.684L169.879 263.05C169.91 262.83 169.931 262.619 169.957 262.386L150.954 281.387L150.851 281.49Z" fill="#FFFFE0"/>
<path opacity="0.28" d="M144.988 275.628L144.888 275.731L115.775 304.841L115.672 304.94L115.568 305.044L105.311 315.3L105.858 315.339L115.861 305.337L115.965 305.233L116.068 305.134L145.181 276.024L145.28 275.92L145.384 275.821L170.219 250.984L170.181 250.441L145.091 275.528L144.988 275.628Z" fill="#FFFFE0"/>
<path opacity="0.28" d="M147.922 278.561L147.818 278.66L118.705 307.77L118.606 307.874L118.502 307.973L110.989 315.485H111.584L118.795 308.279L118.899 308.175L118.998 308.072L148.111 278.953L148.215 278.854L148.314 278.75L170.358 256.713C170.358 256.515 170.358 256.317 170.358 256.119L148.012 278.458L147.922 278.561Z" fill="#FFFFE0"/>
<path opacity="0.28" d="M142.058 272.699L141.955 272.798L112.842 301.908L112.738 302.011L112.639 302.11L100.099 314.65L100.603 314.736L112.932 302.408L113.035 302.304L113.135 302.201L142.248 273.091L142.351 272.991L142.45 272.888L169.616 245.751C169.586 245.583 169.56 245.415 169.53 245.247L142.157 272.617L142.058 272.699Z" fill="#FFFFE0"/>
<path opacity="0.28" d="M156.714 287.352L156.615 287.456L133.089 310.979L134.106 310.549L156.908 287.749L157.007 287.645L157.111 287.546L165.429 279.228C165.572 278.892 165.718 278.552 165.86 278.212L156.813 287.258L156.714 287.352Z" fill="#FFFFE0"/>
<path opacity="0.28" d="M153.785 284.424L153.681 284.523L124.568 313.633L124.469 313.737L124.404 313.801L124.508 313.775L124.671 313.737L125.18 313.612L153.974 284.816L154.078 284.717L154.181 284.613L168.492 270.304C168.557 270.045 168.617 269.787 168.682 269.528L153.884 284.32L153.785 284.424Z" fill="#FFFFE0"/>
<path opacity="0.28" d="M80.7859 211.433L80.8893 211.329L95.2435 196.972L94.4465 197.188L80.5921 211.036L80.493 211.14L80.3896 211.239L52.0689 239.574C51.9957 239.841 51.9224 240.104 51.8535 240.375L80.6954 211.536L80.7859 211.433Z" fill="#FFFFE0"/>
<path opacity="0.28" d="M65.2295 215.262L70.132 210.36C68.4044 211.898 66.7675 213.534 65.2295 215.262Z" fill="#FFFFE0"/>
<path opacity="0.28" d="M77.8524 208.499L77.9558 208.4L86.3434 200.013C85.9945 200.164 85.6412 200.315 85.2966 200.474L77.6628 208.107L77.5594 208.206L77.4604 208.31L55.3432 230.424C55.1838 230.773 55.033 231.122 54.8779 231.471L77.7533 208.602L77.8524 208.499Z" fill="#FFFFE0"/>
<path opacity="0.28" d="M63.1964 252.47L63.2955 252.367L92.4088 223.261L92.5122 223.157L92.6156 223.054L119.795 195.878L119.291 195.792L92.3183 222.761L92.2192 222.864L92.1331 222.955L63.0025 252.074L62.9034 252.177L62.8 252.281L50.6602 264.415C50.686 264.587 50.7162 264.751 50.742 264.923L63.093 252.573L63.1964 252.47Z" fill="#FFFFE0"/>
<path opacity="0.28" d="M57.3333 246.608L57.4324 246.504L86.5328 217.398L86.6362 217.295L86.7396 217.192L108.809 195.124H108.202L86.4423 216.881L86.3433 216.985L86.2399 217.084L57.1395 246.216L57.0404 246.319L56.937 246.422L50.0098 253.345C50.0098 253.543 50.0098 253.745 50.0098 253.948L57.2472 246.711L57.3333 246.608Z" fill="#FFFFE0"/>
<path opacity="0.28" d="M60.254 249.541L60.3574 249.438L89.4707 220.328L89.5698 220.224L89.6732 220.125L114.535 195.266L113.983 195.232L89.3803 219.832L89.2769 219.931L89.1778 220.035L60.0731 249.145L59.9697 249.244L59.8706 249.348L50.1001 259.139C50.1001 259.324 50.1001 259.509 50.1346 259.69L60.1635 249.662L60.254 249.541Z" fill="#FFFFE0"/>
<path opacity="0.28" d="M54.3997 243.679L54.5031 243.575L83.6164 214.465L83.7155 214.362L83.8189 214.263L102.472 195.594L101.787 195.689L83.5173 213.97L83.4139 214.069L83.3148 214.172L54.223 243.282L54.1196 243.382L54.0163 243.485L50.5699 246.931C50.5354 247.155 50.5009 247.383 50.4751 247.612L54.3135 243.774L54.3997 243.679Z" fill="#FFFFE0"/>
<path opacity="0.28" d="M86.649 275.938L86.7524 275.839L115.861 246.729L115.965 246.625L116.068 246.522L145.182 217.416L145.281 217.312L145.384 217.209L151.264 211.325L150.959 211.045L145.091 216.912L144.988 217.015L144.889 217.114L115.775 246.216L115.672 246.319L115.568 246.423L86.4551 275.533L86.3561 275.632L86.2527 275.735L65.8975 296.084L66.1818 296.386L86.5327 276.024L86.649 275.938Z" fill="#FFFFE0"/>
<path opacity="0.28" d="M80.7861 270.058L80.8895 269.959L109.999 240.849L110.102 240.745L110.205 240.642L139.319 211.536L139.418 211.432L139.521 211.325L144.798 206.052L144.449 205.811L139.228 211.032L139.125 211.135L139.026 211.234L109.912 240.345L109.809 240.448L109.706 240.551L80.5922 269.662L80.4932 269.761L80.3898 269.864L60.6851 289.571L60.922 289.92L80.6827 270.161L80.7861 270.058Z" fill="#FFFFE0"/>
<path opacity="0.28" d="M74.9226 264.195L75.0217 264.096L104.135 234.986L104.238 234.882L104.342 234.779L133.455 205.669L133.554 205.57L133.658 205.466L137.483 201.641L137.091 201.447L133.365 205.173L133.261 205.277L133.158 205.376L104.049 234.486L103.945 234.589L103.842 234.693L74.7287 263.799L74.6296 263.902L74.5262 264.006L56.3164 282.214L56.5103 282.606L74.8192 264.299L74.9226 264.195Z" fill="#FFFFE0"/>
<path opacity="0.28" d="M69.0598 258.333L69.1589 258.229L98.2722 229.123L98.3756 229.02L98.479 228.916L127.592 199.806L127.691 199.707L127.795 199.604L129.216 198.182L128.786 198.04L127.515 199.311L127.411 199.414L127.308 199.513L98.1645 228.624L98.0654 228.727L97.962 228.826L68.8702 257.936L68.7712 258.04L68.6678 258.143L52.9092 273.896C52.9609 274.047 53.004 274.193 53.0557 274.327L68.9607 258.423L69.0598 258.333Z" fill="#FFFFE0"/>
<path opacity="0.28" d="M83.7153 272.991L83.8187 272.888L112.932 243.778L113.035 243.678L113.135 243.575L142.248 214.465L142.351 214.361L142.45 214.262L148.137 208.581L147.809 208.318L142.162 213.969L142.063 214.068L141.959 214.172L112.846 243.282L112.743 243.381L112.643 243.485L83.5172 272.595L83.4138 272.698L83.3147 272.797L63.1792 292.931L63.442 293.254L83.6076 273.09L83.7153 272.991Z" fill="#FFFFE0"/>
<path opacity="0.28" d="M77.8523 267.129L77.9557 267.026L107.069 237.915L107.172 237.816L107.271 237.713L136.385 208.602L136.488 208.499L136.587 208.4L141.244 203.739L140.878 203.52L136.29 208.107L136.191 208.206L136.075 208.31L106.961 237.42L106.858 237.519L106.759 237.622L77.6455 266.733L77.5421 266.836L77.443 266.935L58.3716 286.005C58.4448 286.129 58.5137 286.25 58.5913 286.375L77.736 267.228L77.8523 267.129Z" fill="#FFFFE0"/>
<path opacity="0.28" d="M71.9891 261.266L72.0925 261.163L101.206 232.052L101.309 231.949L101.408 231.85L130.522 202.74L130.625 202.636L130.724 202.537L133.477 199.785L133.046 199.612L130.418 202.244L130.319 202.343L130.216 202.447L101.115 231.57L101.012 231.669L100.913 231.772L71.7995 260.861L71.6961 260.965L71.5971 261.064L54.4814 278.186C54.5374 278.324 54.5935 278.462 54.6538 278.617L71.8857 261.387L71.9891 261.266Z" fill="#FFFFE0"/>
<path opacity="0.28" d="M66.1259 255.404L66.2293 255.3L95.3427 226.19L95.446 226.091L95.5451 225.988L124.658 196.877H124.633L124.202 196.77L95.2565 225.712L95.1531 225.811L95.054 225.914L65.9407 255.025L65.8373 255.128L65.7382 255.227L51.6382 269.321C51.6726 269.481 51.7114 269.636 51.7502 269.795L66.0441 255.503L66.1259 255.404Z" fill="#FFFFE0"/>
<path d="M98.1157 92.2347C113.791 92.2347 126.499 79.5271 126.499 63.8515C126.499 48.1759 113.791 35.4683 98.1157 35.4683C82.44 35.4683 69.7324 48.1759 69.7324 63.8515C69.7324 79.5271 82.44 92.2347 98.1157 92.2347Z" fill="url(#paint1_radial_1505_1553)"/>
<defs>
<radialGradient id="paint0_radial_1505_1553" cx="0" cy="0" r="1" gradientUnits="userSpaceOnUse" gradientTransform="translate(226.798 178.867) scale(106.261 106.25)">
<stop stop-color="#FFFFE0"/>
<stop offset="1" stop-color="#FFFFE0" stop-opacity="0"/>
</radialGradient>
<radialGradient id="paint1_radial_1505_1553" cx="0" cy="0" r="1" gradientUnits="userSpaceOnUse" gradientTransform="translate(113.748 47.7722) rotate(94.1349) scale(44.5785 41.0446)">
<stop stop-color="#8CE717"/>
<stop offset="1" stop-color="#00FFE0" stop-opacity="0"/>
</radialGradient>
</defs>
</svg>
