<svg width="387" height="418" viewBox="0 0 387 418" fill="none" xmlns="http://www.w3.org/2000/svg">
<g opacity="0.28">
<path opacity="0.28" d="M202.815 153.769L202.711 153.872L202.608 153.975L172.999 183.581L172.896 183.685L172.792 183.788L143.184 213.394L143.08 213.501L142.977 213.605L122.255 234.324L122.566 234.608L143.274 213.902L143.377 213.799L143.481 213.695L173.09 184.089L173.193 183.986L173.296 183.883L202.909 154.277L203.013 154.169L203.116 154.066L209.091 148.091L208.807 147.781L202.815 153.769Z" fill="#FFFFE0"/>
<path opacity="0.28" d="M205.692 156.853L205.589 156.957L175.98 186.562L175.877 186.666L175.774 186.769L146.165 216.371L146.061 216.474L145.958 216.577L125.422 237.111L125.749 237.378L146.255 216.875L146.359 216.771L146.462 216.668L176.071 187.079L176.174 186.976L176.278 186.873L205.899 157.258L206.003 157.155L206.106 157.047L211.879 151.275C211.788 151.167 211.702 151.055 211.612 150.943L205.796 156.75L205.692 156.853Z" fill="#FFFFE0"/>
<path opacity="0.28" d="M217.621 168.781L217.518 168.884L187.909 198.49L187.806 198.593L187.702 198.697L158.081 228.302L157.977 228.406L157.87 228.509L140.246 246.148L140.676 246.325L158.197 228.806L158.3 228.703L158.404 228.599L188.012 198.994L188.116 198.89L188.219 198.787L217.828 169.181L217.931 169.078L218.035 168.975L220.822 166.188C220.762 166.05 220.706 165.908 220.645 165.757L217.738 168.664L217.621 168.781Z" fill="#FFFFE0"/>
<path opacity="0.28" d="M211.659 162.819L211.555 162.922L181.942 192.528L181.839 192.631L181.736 192.735L152.127 222.34L152.023 222.444L151.92 222.547L132.383 242.082L132.754 242.306L152.217 222.832L152.325 222.728L152.428 222.625L182.037 193.019L182.14 192.916L182.244 192.812L211.853 163.207L211.956 163.103L212.059 163L216.798 158.262L216.57 157.891L211.762 162.711L211.659 162.819Z" fill="#FFFFE0"/>
<path opacity="0.28" d="M220.603 171.762L220.499 171.865L190.89 201.471L190.787 201.574L190.684 201.677L161.096 231.283L160.993 231.386L160.89 231.49L144.554 247.815L144.985 247.962L161.148 231.804L161.251 231.701L161.355 231.593L190.964 201.987L191.067 201.884L191.17 201.781L220.779 172.175L220.883 172.072L220.986 171.968L222.42 170.538C222.369 170.387 222.321 170.237 222.27 170.107L220.689 171.688L220.603 171.762Z" fill="#FFFFE0"/>
<path opacity="0.28" d="M214.64 165.8L214.537 165.903L184.928 195.509L184.825 195.612L184.721 195.716L155.108 225.322L155.005 225.425L154.902 225.528L136.196 244.232L136.588 244.438L155.203 225.847L155.306 225.744L155.41 225.64L185.019 196.035L185.122 195.931L185.225 195.828L214.834 166.222L214.938 166.119L215.041 166.015L218.918 162.139L218.716 161.747L214.739 165.722L214.64 165.8Z" fill="#FFFFE0"/>
<path opacity="0.28" d="M208.678 159.834L208.574 159.937L178.961 189.547L178.858 189.651L178.754 189.754L149.146 219.36L149.042 219.463L148.939 219.567L128.786 239.709L129.135 239.954L149.228 219.864L149.331 219.76L149.439 219.657L179.047 190.051L179.151 189.948L179.254 189.845L208.871 160.239L208.975 160.135L209.078 160.032L214.437 154.669L214.192 154.32L208.781 159.731L208.678 159.834Z" fill="#FFFFE0"/>
<path opacity="0.28" d="M223.48 174.846L193.871 204.451L193.768 204.555L193.664 204.658L164.056 234.264L163.952 234.367L163.849 234.471L149.15 249.168L149.628 249.284L164.146 234.772L164.249 234.669L164.353 234.565L193.962 204.96L194.065 204.852L194.168 204.749L223.773 175.151L223.708 174.88C223.708 174.815 223.678 174.755 223.661 174.695L223.592 174.764L223.48 174.846Z" fill="#FFFFE0"/>
<path opacity="0.28" d="M205.692 216.482L205.589 216.586L175.98 246.192L175.877 246.295L175.773 246.398L171.53 250.641L172.206 250.564L176.083 246.687L176.187 246.584L176.29 246.48L205.899 216.883L206.002 216.78L206.106 216.676L225.061 197.723L225.138 197.047L205.795 216.37L205.692 216.482Z" fill="#FFFFE0"/>
<path opacity="0.28" d="M199.73 210.516L199.627 210.62L170.018 240.23L169.915 240.333L169.811 240.436L159.373 250.865L159.929 250.908L170.104 240.734L170.208 240.63L170.311 240.527L199.92 210.921L200.023 210.818L200.127 210.714L225.389 185.455C225.389 185.27 225.363 185.085 225.345 184.899L199.829 210.413L199.73 210.516Z" fill="#FFFFE0"/>
<path opacity="0.28" d="M202.711 213.502L202.608 213.605L172.999 243.211L172.896 243.314L172.792 243.417L165.154 251.055H165.757L173.081 243.732L173.184 243.629L173.288 243.525L202.901 213.919L203.004 213.816L203.108 213.713L225.509 191.314C225.509 191.111 225.509 190.909 225.509 190.71L202.784 213.428L202.711 213.502Z" fill="#FFFFE0"/>
<path opacity="0.28" d="M196.749 207.535L196.646 207.639L167.037 237.244L166.934 237.348L166.83 237.451L154.074 250.206L154.587 250.292L167.127 237.753L167.231 237.649L167.334 237.546L196.943 207.94L197.046 207.837L197.15 207.729L224.777 180.109C224.751 179.937 224.721 179.769 224.691 179.597L196.852 207.432L196.749 207.535Z" fill="#FFFFE0"/>
<path opacity="0.28" d="M211.659 222.444L211.556 222.547L187.629 246.471L188.663 246.041L211.853 222.832L211.957 222.728L212.06 222.625L220.517 214.169C220.666 213.824 220.809 213.48 220.947 213.135L211.754 222.328L211.659 222.444Z" fill="#FFFFE0"/>
<path opacity="0.28" d="M208.678 219.463L208.575 219.567L178.961 249.172L178.858 249.276L178.793 249.34L178.901 249.315L179.065 249.276C179.237 249.233 179.414 249.194 179.586 249.147L208.88 219.855L208.984 219.752L209.087 219.649L223.64 205.093C223.708 204.835 223.769 204.568 223.833 204.305L208.79 219.351L208.678 219.463Z" fill="#FFFFE0"/>
<path opacity="0.28" d="M134.434 145.227L134.537 145.124L149.141 130.525L148.327 130.741L134.24 144.826L134.137 144.93L134.033 145.033L105.213 173.846C105.14 174.118 105.066 174.389 104.998 174.66L134.331 145.33L134.434 145.227Z" fill="#FFFFE0"/>
<path opacity="0.28" d="M118.611 149.121L123.617 144.137C121.855 145.702 120.183 147.366 118.611 149.121Z" fill="#FFFFE0"/>
<path opacity="0.28" d="M131.453 142.246L131.556 142.143L140.086 133.614L139.018 134.096L131.263 141.85L131.156 141.953L131.052 142.057L108.539 164.542C108.38 164.895 108.224 165.253 108.069 165.61L131.332 142.349L131.453 142.246Z" fill="#FFFFE0"/>
<path opacity="0.28" d="M205.589 235.07L209.552 231.107C210.661 229.895 211.718 228.64 212.723 227.342L201.824 238.24C203.122 237.232 204.377 236.175 205.589 235.07Z" fill="#FFFFE0"/>
<path opacity="0.28" d="M116.543 186.967L116.647 186.864L146.255 157.258L146.359 157.155L146.462 157.047L174.111 129.406L173.59 129.324L146.165 156.75L146.062 156.853L145.958 156.957L116.349 186.562L116.246 186.666L116.143 186.769L103.8 199.114C103.826 199.287 103.856 199.459 103.882 199.627L116.44 187.079L116.543 186.967Z" fill="#FFFFE0"/>
<path opacity="0.28" d="M110.581 181.001L110.684 180.898L140.293 151.292L140.396 151.189L140.5 151.085L162.949 128.643H162.333L140.202 150.788L140.099 150.891L139.996 150.995L110.387 180.618L110.284 180.721L110.18 180.825L103.132 187.854C103.132 188.057 103.132 188.264 103.132 188.47L110.495 181.109L110.581 181.001Z" fill="#FFFFE0"/>
<path opacity="0.28" d="M113.562 183.987L113.665 183.883L143.274 154.277L143.377 154.17L143.481 154.066L168.764 128.785L168.204 128.751L143.183 153.769L143.08 153.873L142.977 153.976L113.368 183.582L113.265 183.685L113.161 183.788L103.223 193.726C103.223 193.911 103.223 194.101 103.257 194.286L113.458 184.09L113.562 183.987Z" fill="#FFFFE0"/>
<path opacity="0.28" d="M107.6 178.033L107.703 177.93L137.312 148.311L137.415 148.208L137.519 148.104L156.508 129.121C156.276 129.147 156.043 129.186 155.815 129.216L137.222 147.807L137.118 147.911L137.015 148.014L107.406 177.602L107.303 177.706L107.195 177.809L103.688 181.316C103.658 181.548 103.624 181.781 103.594 182.009L107.497 178.106L107.6 178.033Z" fill="#FFFFE0"/>
<path opacity="0.28" d="M140.418 210.818L140.521 210.715L170.13 181.109L170.233 181.001L170.337 180.898L199.945 151.292L200.049 151.189L200.152 151.085L206.114 145.106L205.804 144.818L199.833 150.788L199.73 150.891L199.627 150.995L170.018 180.618L169.914 180.721L169.811 180.825L140.202 210.413L140.099 210.516L139.996 210.62L119.309 231.322L119.597 231.628L140.31 210.921L140.418 210.818Z" fill="#FFFFE0"/>
<path opacity="0.28" d="M134.434 204.852L134.537 204.748L164.146 175.143L164.249 175.039L164.353 174.936L193.962 145.33L194.065 145.227L194.168 145.124L199.536 139.761C199.42 139.675 199.299 139.597 199.183 139.515L193.871 144.826L193.768 144.93L193.664 145.033L164.056 174.639L163.952 174.742L163.849 174.846L134.24 204.451L134.137 204.555L134.033 204.658L113.988 224.701L114.234 225.054L134.331 204.96L134.434 204.852Z" fill="#FFFFE0"/>
<path opacity="0.28" d="M128.472 198.89L128.575 198.787L158.184 169.181L158.287 169.078L158.391 168.974L188 139.369L188.103 139.265L188.206 139.162L192.084 135.285L191.683 135.087L187.896 138.878L187.793 138.981L187.689 139.084L158.081 168.677L157.977 168.78L157.87 168.884L128.261 198.49L128.157 198.593L128.054 198.696L109.53 217.219C109.594 217.352 109.659 217.486 109.728 217.619L128.356 198.994L128.472 198.89Z" fill="#FFFFE0"/>
<path opacity="0.28" d="M122.506 192.929L122.609 192.825L152.218 163.219L152.326 163.116L152.429 163.013L182.038 133.407L182.141 133.304L182.244 133.2L183.688 131.753L183.257 131.606L181.964 132.899L181.861 133.002L181.758 133.105L152.127 162.711L152.024 162.819L151.921 162.922L122.325 192.528L122.221 192.631L122.118 192.735L106.092 208.759C106.14 208.905 106.191 209.056 106.239 209.19L122.415 193.015L122.506 192.929Z" fill="#FFFFE0"/>
<path opacity="0.28" d="M137.403 207.837L137.506 207.729L167.128 178.124L167.231 178.02L167.334 177.917L196.943 148.311L197.047 148.208L197.15 148.105L202.927 142.328L202.6 142.061L196.853 147.807L196.749 147.911L196.646 148.014L167.037 177.603L166.934 177.706L166.83 177.809L137.222 207.415L137.118 207.518L137.015 207.622L116.539 228.095L116.802 228.427L137.312 207.923L137.403 207.837Z" fill="#FFFFE0"/>
<path opacity="0.28" d="M131.453 201.871L131.556 201.768L161.165 172.162L161.268 172.059L161.372 171.955L190.981 142.35L191.084 142.246L191.187 142.143L195.926 137.405L195.547 137.181L190.89 141.85L190.787 141.953L190.683 142.057L161.096 171.658L160.993 171.762L160.889 171.865L131.281 201.471L131.173 201.574L131.07 201.677L111.684 221.061C111.757 221.186 111.83 221.315 111.908 221.436L131.38 201.966L131.453 201.871Z" fill="#FFFFE0"/>
<path opacity="0.28" d="M125.491 195.91L125.594 195.806L155.203 166.2L155.306 166.097L155.41 165.994L185.018 136.388L185.122 136.285L185.225 136.181L188.025 133.381L187.595 133.209L184.924 135.88L184.82 135.983L184.717 136.091L155.108 165.696L155.005 165.8L154.901 165.903L125.293 195.509L125.189 195.612L125.086 195.716L107.677 213.118C107.733 213.26 107.789 213.402 107.85 213.549L125.379 196.021L125.491 195.91Z" fill="#FFFFE0"/>
<path opacity="0.28" d="M119.524 189.948L119.628 189.845L149.236 160.239L149.34 160.136L149.448 160.032L179.056 130.426H179.03L178.574 130.314L149.146 159.731L149.043 159.834L148.939 159.937L119.331 189.547L119.227 189.651L119.124 189.754L104.77 204.103C104.808 204.266 104.847 204.426 104.89 204.585L119.421 190.051L119.524 189.948Z" fill="#FFFFE0"/>
</g>
<path d="M173.538 174.617V387.117H386.059V174.617H173.538ZM183.653 387.009H173.645V377.002H183.653V387.009ZM183.653 376.895H173.645V366.888H183.653V376.895ZM183.653 366.781H173.645V356.796H183.653V366.781ZM183.653 356.667H173.645V346.66H183.653V356.667ZM183.653 346.553H173.645V336.55H183.653V346.553ZM183.653 336.438H173.645V326.432H183.653V336.438ZM183.653 326.324H173.645V316.305H183.653V326.324ZM183.653 316.21H173.645V306.204H183.653V316.21ZM183.653 306.096H173.645V296.094H183.653V306.096ZM183.653 295.986H173.645V285.98H183.653V295.986ZM183.653 285.872H173.645V275.866H183.653V285.872ZM183.653 275.758H173.645V265.752H183.653V275.758ZM183.653 265.644H173.645V255.638H183.653V265.644ZM183.653 255.53H173.645V245.524H183.653V255.53ZM183.653 245.416H173.645V235.409H183.653V245.416ZM183.653 235.302H173.645V225.295H183.653V235.302ZM183.653 225.188H173.645V215.181H183.653V225.188ZM183.653 215.074H173.645V205.067H183.653V215.074ZM183.653 204.959H173.645V194.953H183.653V204.959ZM183.653 194.845H173.645V184.839H183.653V194.845ZM183.653 184.731H173.645V174.725H183.653V184.731ZM193.768 387.009H183.76V377.002H193.768V387.009ZM193.768 376.895H183.76V366.888H193.768V376.895ZM193.768 366.781H183.76V356.796H193.768V366.781ZM193.768 356.667H183.76V346.66H193.768V356.667ZM193.768 346.553H183.76V336.55H193.768V346.553ZM193.768 336.438H183.76V326.432H193.768V336.438ZM193.768 326.324H183.76V316.305H193.768V326.324ZM193.768 316.21H183.76V306.204H193.768V316.21ZM193.768 306.096H183.76V296.094H193.768V306.096ZM193.768 295.986H183.76V285.98H193.768V295.986ZM193.768 285.872H183.76V275.866H193.768V285.872ZM193.768 275.758H183.76V265.752H193.768V275.758ZM193.768 265.644H183.76V255.638H193.768V265.644ZM193.768 255.53H183.76V245.524H193.768V255.53ZM193.768 245.416H183.76V235.409H193.768V245.416ZM193.768 235.302H183.76V225.295H193.768V235.302ZM193.768 225.188H183.76V215.181H193.768V225.188ZM193.768 215.074H183.76V205.067H193.768V215.074ZM193.768 204.959H183.76V194.953H193.768V204.959ZM193.768 194.845H183.76V184.839H193.768V194.845ZM193.768 184.731H183.76V174.725H193.768V184.731ZM203.883 387.009H193.876V377.002H203.883V387.009ZM203.883 376.895H193.876V366.888H203.883V376.895ZM203.883 366.781H193.876V356.796H203.883V366.781ZM203.883 356.667H193.876V346.66H203.883V356.667ZM203.883 346.553H193.876V336.55H203.883V346.553ZM203.883 336.438H193.876V326.432H203.883V336.438ZM203.883 326.324H193.876V316.305H203.883V326.324ZM203.883 316.21H193.876V306.204H203.883V316.21ZM203.883 306.096H193.876V296.094H203.883V306.096ZM203.883 295.986H193.876V285.98H203.883V295.986ZM203.883 285.872H193.876V275.866H203.883V285.872ZM203.883 275.758H193.876V265.752H203.883V275.758ZM203.883 265.644H193.876V255.638H203.883V265.644ZM203.883 255.53H193.876V245.524H203.883V255.53ZM203.883 245.416H193.876V235.409H203.883V245.416ZM203.883 235.302H193.876V225.295H203.883V235.302ZM203.883 225.188H193.876V215.181H203.883V225.188ZM203.883 215.074H193.876V205.067H203.883V215.074ZM203.883 204.959H193.876V194.953H203.883V204.959ZM203.883 194.845H193.876V184.839H203.883V194.845ZM203.883 184.731H193.876V174.725H203.883V184.731ZM213.998 387.009H203.991V377.002H213.998V387.009ZM213.998 376.895H203.991V366.888H213.998V376.895ZM213.998 366.781H203.991V356.796H213.998V366.781ZM213.998 356.667H203.991V346.66H213.998V356.667ZM213.998 346.553H203.991V336.55H213.998V346.553ZM213.998 336.438H203.991V326.432H213.998V336.438ZM213.998 326.324H203.991V316.305H213.998V326.324ZM213.998 316.21H203.991V306.204H213.998V316.21ZM213.998 306.096H203.991V296.094H213.998V306.096ZM213.998 295.986H203.991V285.98H213.998V295.986ZM213.998 285.872H203.991V275.866H213.998V285.872ZM213.998 275.758H203.991V265.752H213.998V275.758ZM213.998 265.644H203.991V255.638H213.998V265.644ZM213.998 255.53H203.991V245.524H213.998V255.53ZM213.998 245.416H203.991V235.409H213.998V245.416ZM213.998 235.302H203.991V225.295H213.998V235.302ZM213.998 225.188H203.991V215.181H213.998V225.188ZM213.998 215.074H203.991V205.067H213.998V215.074ZM213.998 204.959H203.991V194.953H213.998V204.959ZM213.998 194.845H203.991V184.839H213.998V194.845ZM213.998 184.731H203.991V174.725H213.998V184.731ZM224.113 387.009H214.106V377.002H224.113V387.009ZM224.113 376.895H214.106V366.888H224.113V376.895ZM224.113 366.781H214.106V356.796H224.113V366.781ZM224.113 356.667H214.106V346.66H224.113V356.667ZM224.113 346.553H214.106V336.55H224.113V346.553ZM224.113 336.438H214.106V326.432H224.113V336.438ZM224.113 326.324H214.106V316.305H224.113V326.324ZM224.113 316.21H214.106V306.204H224.113V316.21ZM224.113 306.096H214.106V296.094H224.113V306.096ZM224.113 295.986H214.106V285.98H224.113V295.986ZM224.113 285.872H214.106V275.866H224.113V285.872ZM224.113 275.758H214.106V265.752H224.113V275.758ZM224.113 265.644H214.106V255.638H224.113V265.644ZM224.113 255.53H214.106V245.524H224.113V255.53ZM224.113 245.416H214.106V235.409H224.113V245.416ZM224.113 235.302H214.106V225.295H224.113V235.302ZM224.113 225.188H214.106V215.181H224.113V225.188ZM224.113 215.074H214.106V205.067H224.113V215.074ZM224.113 204.959H214.106V194.953H224.113V204.959ZM224.113 194.845H214.106V184.839H224.113V194.845ZM224.113 184.731H214.106V174.725H224.113V184.731ZM234.228 387.009H224.221V377.002H234.228V387.009ZM234.228 376.895H224.221V366.888H234.228V376.895ZM234.228 366.781H224.221V356.796H234.228V366.781ZM234.228 356.667H224.221V346.66H234.228V356.667ZM234.228 346.553H224.221V336.55H234.228V346.553ZM234.228 336.438H224.221V326.432H234.228V336.438ZM234.228 326.324H224.221V316.305H234.228V326.324ZM234.228 316.21H224.221V306.204H234.228V316.21ZM234.228 306.096H224.221V296.094H234.228V306.096ZM234.228 295.986H224.221V285.98H234.228V295.986ZM234.228 285.872H224.221V275.866H234.228V285.872ZM234.228 275.758H224.221V265.752H234.228V275.758ZM234.228 265.644H224.221V255.638H234.228V265.644ZM234.228 255.53H224.221V245.524H234.228V255.53ZM234.228 245.416H224.221V235.409H234.228V245.416ZM234.228 235.302H224.221V225.295H234.228V235.302ZM234.228 225.188H224.221V215.181H234.228V225.188ZM234.228 215.074H224.221V205.067H234.228V215.074ZM234.228 204.959H224.221V194.953H234.228V204.959ZM234.228 194.845H224.221V184.839H234.228V194.845ZM234.228 184.731H224.221V174.725H234.228V184.731ZM244.344 387.009H234.332V377.002H244.339L244.344 387.009ZM244.344 376.895H234.332V366.888H244.339L244.344 376.895ZM244.344 366.781H234.332V356.796H244.339L244.344 366.781ZM244.344 356.667H234.332V346.66H244.339L244.344 356.667ZM244.344 346.553H234.332V336.55H244.339L244.344 346.553ZM244.344 336.438H234.332V326.432H244.339L244.344 336.438ZM244.344 326.324H234.332V316.305H244.339L244.344 326.324ZM244.344 316.21H234.332V306.204H244.339L244.344 316.21ZM244.344 306.096H234.332V296.094H244.339L244.344 306.096ZM244.344 295.986H234.332V285.98H244.339L244.344 295.986ZM244.344 285.872H234.332V275.866H244.339L244.344 285.872ZM244.344 275.758H234.332V265.752H244.339L244.344 275.758ZM244.344 265.644H234.332V255.638H244.339L244.344 265.644ZM244.344 255.53H234.332V245.524H244.339L244.344 255.53ZM244.344 245.416H234.332V235.409H244.339L244.344 245.416ZM244.344 235.302H234.332V225.295H244.339L244.344 235.302ZM244.344 225.188H234.332V215.181H244.339L244.344 225.188ZM244.344 215.074H234.332V205.067H244.339L244.344 215.074ZM244.344 204.959H234.332V194.953H244.339L244.344 204.959ZM244.344 194.845H234.332V184.839H244.339L244.344 194.845ZM244.344 184.731H234.332V174.725H244.339L244.344 184.731ZM254.459 387.009H244.451V377.002H254.459V387.009ZM254.459 376.895H244.451V366.888H254.459V376.895ZM254.459 366.781H244.451V356.796H254.459V366.781ZM254.459 356.667H244.451V346.66H254.459V356.667ZM254.459 346.553H244.451V336.55H254.459V346.553ZM254.459 336.438H244.451V326.432H254.459V336.438ZM254.459 326.324H244.451V316.305H254.459V326.324ZM254.459 316.21H244.451V306.204H254.459V316.21ZM254.459 306.096H244.451V296.094H254.459V306.096ZM254.459 295.986H244.451V285.98H254.459V295.986ZM254.459 285.872H244.451V275.866H254.459V285.872ZM254.459 275.758H244.451V265.752H254.459V275.758ZM254.459 265.644H244.451V255.638H254.459V265.644ZM254.459 255.53H244.451V245.524H254.459V255.53ZM254.459 245.416H244.451V235.409H254.459V245.416ZM254.459 235.302H244.451V225.295H254.459V235.302ZM254.459 225.188H244.451V215.181H254.459V225.188ZM254.459 215.074H244.451V205.067H254.459V215.074ZM254.459 204.959H244.451V194.953H254.459V204.959ZM254.459 194.845H244.451V184.839H254.459V194.845ZM254.459 184.731H244.451V174.725H254.459V184.731ZM264.57 387.009H254.579V377.002H264.582L264.57 387.009ZM264.57 376.895H254.579V366.888H264.582L264.57 376.895ZM264.57 366.781H254.579V356.796H264.582L264.57 366.781ZM264.57 356.667H254.579V346.66H264.582L264.57 356.667ZM264.57 346.553H254.579V336.55H264.582L264.57 346.553ZM264.57 336.438H254.579V326.432H264.582L264.57 336.438ZM264.57 326.324H254.579V316.305H264.582L264.57 326.324ZM264.57 316.21H254.579V306.204H264.582L264.57 316.21ZM264.57 306.096H254.579V296.094H264.582L264.57 306.096ZM264.57 295.986H254.579V285.98H264.582L264.57 295.986ZM264.57 285.872H254.579V275.866H264.582L264.57 285.872ZM264.57 275.758H254.579V265.752H264.582L264.57 275.758ZM264.57 265.644H254.579V255.638H264.582L264.57 265.644ZM264.57 255.53H254.579V245.524H264.582L264.57 255.53ZM264.57 245.416H254.579V235.409H264.582L264.57 245.416ZM264.57 235.302H254.579V225.295H264.582L264.57 235.302ZM264.57 225.188H254.579V215.181H264.582L264.57 225.188ZM264.57 215.074H254.579V205.067H264.582L264.57 215.074ZM264.57 204.959H254.579V194.953H264.582L264.57 204.959ZM264.57 194.845H254.579V184.839H264.582L264.57 194.845ZM264.57 184.731H254.579V174.725H264.582L264.57 184.731ZM274.685 387.009H264.677V377.002H274.685V387.009ZM274.685 376.895H264.677V366.888H274.685V376.895ZM274.685 366.781H264.677V356.796H274.685V366.781ZM274.685 356.667H264.677V346.66H274.685V356.667ZM274.685 346.553H264.677V336.55H274.685V346.553ZM274.685 336.438H264.677V326.432H274.685V336.438ZM274.685 326.324H264.677V316.305H274.685V326.324ZM274.685 316.21H264.677V306.204H274.685V316.21ZM274.685 306.096H264.677V296.094H274.685V306.096ZM274.685 295.986H264.677V285.98H274.685V295.986ZM274.685 285.872H264.677V275.866H274.685V285.872ZM274.685 275.758H264.677V265.752H274.685V275.758ZM274.685 265.644H264.677V255.638H274.685V265.644ZM274.685 255.53H264.677V245.524H274.685V255.53ZM274.685 245.416H264.677V235.409H274.685V245.416ZM274.685 235.302H264.677V225.295H274.685V235.302ZM274.685 225.188H264.677V215.181H274.685V225.188ZM274.685 215.074H264.677V205.067H274.685V215.074ZM274.685 204.959H264.677V194.953H274.685V204.959ZM274.685 194.845H264.677V184.839H274.685V194.845ZM274.685 184.731H264.677V174.725H274.685V184.731ZM284.8 387.009H274.792V377.002H284.8V387.009ZM284.8 376.895H274.792V366.888H284.8V376.895ZM284.8 366.781H274.792V356.796H284.8V366.781ZM284.8 356.667H274.792V346.66H284.8V356.667ZM284.8 346.553H274.792V336.55H284.8V346.553ZM284.8 336.438H274.792V326.432H284.8V336.438ZM284.8 326.324H274.792V316.305H284.8V326.324ZM284.8 316.21H274.792V306.204H284.8V316.21ZM284.8 306.096H274.792V296.094H284.8V306.096ZM284.8 295.986H274.792V285.98H284.8V295.986ZM284.8 285.872H274.792V275.866H284.8V285.872ZM284.8 275.758H274.792V265.752H284.8V275.758ZM284.8 265.644H274.792V255.638H284.8V265.644ZM284.8 255.53H274.792V245.524H284.8V255.53ZM284.8 245.416H274.792V235.409H284.8V245.416ZM284.8 235.302H274.792V225.295H284.8V235.302ZM284.8 225.188H274.792V215.181H284.8V225.188ZM284.8 215.074H274.792V205.067H284.8V215.074ZM284.8 204.959H274.792V194.953H284.8V204.959ZM284.8 194.845H274.792V184.839H284.8V194.845ZM284.8 184.731H274.792V174.725H284.8V184.731ZM294.915 387.009H284.908V377.002H294.915V387.009ZM294.915 376.895H284.908V366.888H294.915V376.895ZM294.915 366.781H284.908V356.796H294.915V366.781ZM294.915 356.667H284.908V346.66H294.915V356.667ZM294.915 346.553H284.908V336.55H294.915V346.553ZM294.915 336.438H284.908V326.432H294.915V336.438ZM294.915 326.324H284.908V316.305H294.915V326.324ZM294.915 316.21H284.908V306.204H294.915V316.21ZM294.915 306.096H284.908V296.094H294.915V306.096ZM294.915 295.986H284.908V285.98H294.915V295.986ZM294.915 285.872H284.908V275.866H294.915V285.872ZM294.915 275.758H284.908V265.752H294.915V275.758ZM294.915 265.644H284.908V255.638H294.915V265.644ZM294.915 255.53H284.908V245.524H294.915V255.53ZM294.915 245.416H284.908V235.409H294.915V245.416ZM294.915 235.302H284.908V225.295H294.915V235.302ZM294.915 225.188H284.908V215.181H294.915V225.188ZM294.915 215.074H284.908V205.067H294.915V215.074ZM294.915 204.959H284.908V194.953H294.915V204.959ZM294.915 194.845H284.908V184.839H294.915V194.845ZM294.915 184.731H284.908V174.725H294.915V184.731ZM305.03 387.009H295.023V377.002H305.03V387.009ZM305.03 376.895H295.023V366.888H305.03V376.895ZM305.03 366.781H295.023V356.796H305.03V366.781ZM305.03 356.667H295.023V346.66H305.03V356.667ZM305.03 346.553H295.023V336.55H305.03V346.553ZM305.03 336.438H295.023V326.432H305.03V336.438ZM305.03 326.324H295.023V316.305H305.03V326.324ZM305.03 316.21H295.023V306.204H305.03V316.21ZM305.03 306.096H295.023V296.094H305.03V306.096ZM305.03 295.986H295.023V285.98H305.03V295.986ZM305.03 285.872H295.023V275.866H305.03V285.872ZM305.03 275.758H295.023V265.752H305.03V275.758ZM305.03 265.644H295.023V255.638H305.03V265.644ZM305.03 255.53H295.023V245.524H305.03V255.53ZM305.03 245.416H295.023V235.409H305.03V245.416ZM305.03 235.302H295.023V225.295H305.03V235.302ZM305.03 225.188H295.023V215.181H305.03V225.188ZM305.03 215.074H295.023V205.067H305.03V215.074ZM305.03 204.959H295.023V194.953H305.03V204.959ZM305.03 194.845H295.023V184.839H305.03V194.845ZM305.03 184.731H295.023V174.725H305.03V184.731ZM315.145 387.009H305.138V377.002H315.145V387.009ZM315.145 376.895H305.138V366.888H315.145V376.895ZM315.145 366.781H305.138V356.796H315.145V366.781ZM315.145 356.667H305.138V346.66H315.145V356.667ZM315.145 346.553H305.138V336.55H315.145V346.553ZM315.145 336.438H305.138V326.432H315.145V336.438ZM315.145 326.324H305.138V316.305H315.145V326.324ZM315.145 316.21H305.138V306.204H315.145V316.21ZM315.145 306.096H305.138V296.094H315.145V306.096ZM315.145 295.986H305.138V285.98H315.145V295.986ZM315.145 285.872H305.138V275.866H315.145V285.872ZM315.145 275.758H305.138V265.752H315.145V275.758ZM315.145 265.644H305.138V255.638H315.145V265.644ZM315.145 255.53H305.138V245.524H315.145V255.53ZM315.145 245.416H305.138V235.409H315.145V245.416ZM315.145 235.302H305.138V225.295H315.145V235.302ZM315.145 225.188H305.138V215.181H315.145V225.188ZM315.145 215.074H305.138V205.067H315.145V215.074ZM315.145 204.959H305.138V194.953H315.145V204.959ZM315.145 194.845H305.138V184.839H315.145V194.845ZM315.145 184.731H305.138V174.725H315.145V184.731ZM325.26 387.009H315.253V377.002H325.26V387.009ZM325.26 376.895H315.253V366.888H325.26V376.895ZM325.26 366.781H315.253V356.796H325.26V366.781ZM325.26 356.667H315.253V346.66H325.26V356.667ZM325.26 346.553H315.253V336.55H325.26V346.553ZM325.26 336.438H315.253V326.432H325.26V336.438ZM325.26 326.324H315.253V316.305H325.26V326.324ZM325.26 316.21H315.253V306.204H325.26V316.21ZM325.26 306.096H315.253V296.094H325.26V306.096ZM325.26 295.986H315.253V285.98H325.26V295.986ZM325.26 285.872H315.253V275.866H325.26V285.872ZM325.26 275.758H315.253V265.752H325.26V275.758ZM325.26 265.644H315.253V255.638H325.26V265.644ZM325.26 255.53H315.253V245.524H325.26V255.53ZM325.26 245.416H315.253V235.409H325.26V245.416ZM325.26 235.302H315.253V225.295H325.26V235.302ZM325.26 225.188H315.253V215.181H325.26V225.188ZM325.26 215.074H315.253V205.067H325.26V215.074ZM325.26 204.959H315.253V194.953H325.26V204.959ZM325.26 194.845H315.253V184.839H325.26V194.845ZM325.26 184.731H315.253V174.725H325.26V184.731ZM335.375 387.009H325.368V377.002H335.375V387.009ZM335.375 376.895H325.368V366.888H335.375V376.895ZM335.375 366.781H325.368V356.796H335.375V366.781ZM335.375 356.667H325.368V346.66H335.375V356.667ZM335.375 346.553H325.368V336.55H335.375V346.553ZM335.375 336.438H325.368V326.432H335.375V336.438ZM335.375 326.324H325.368V316.305H335.375V326.324ZM335.375 316.21H325.368V306.204H335.375V316.21ZM335.375 306.096H325.368V296.094H335.375V306.096ZM335.375 295.986H325.368V285.98H335.375V295.986ZM335.375 285.872H325.368V275.866H335.375V285.872ZM335.375 275.758H325.368V265.752H335.375V275.758ZM335.375 265.644H325.368V255.638H335.375V265.644ZM335.375 255.53H325.368V245.524H335.375V255.53ZM335.375 245.416H325.368V235.409H335.375V245.416ZM335.375 235.302H325.368V225.295H335.375V235.302ZM335.375 225.188H325.368V215.181H335.375V225.188ZM335.375 215.074H325.368V205.067H335.375V215.074ZM335.375 204.959H325.368V194.953H335.375V204.959ZM335.375 194.845H325.368V184.839H335.375V194.845ZM335.375 184.731H325.368V174.725H335.375V184.731ZM345.478 387.009H335.483V377.002H345.478V387.009ZM345.478 376.895H335.483V366.888H345.478V376.895ZM345.478 366.781H335.483V356.796H345.478V366.781ZM345.478 356.667H335.483V346.66H345.478V356.667ZM345.478 346.553H335.483V336.55H345.478V346.553ZM345.478 336.438H335.483V326.432H345.478V336.438ZM345.478 326.324H335.483V316.305H345.478V326.324ZM345.478 316.21H335.483V306.204H345.478V316.21ZM345.478 306.096H335.483V296.094H345.478V306.096ZM345.478 295.986H335.483V285.98H345.478V295.986ZM345.478 285.872H335.483V275.866H345.478V285.872ZM345.478 275.758H335.483V265.752H345.478V275.758ZM345.478 265.644H335.483V255.638H345.478V265.644ZM345.478 255.53H335.483V245.524H345.478V255.53ZM345.478 245.416H335.483V235.409H345.478V245.416ZM345.478 235.323H335.483V225.295H345.478V235.323ZM345.478 225.209H335.483V215.181H345.478V225.209ZM345.478 215.078H335.483V205.067H345.478V215.078ZM345.478 204.964H335.483V194.953H345.478V204.964ZM345.478 194.832H335.483V184.839H345.478V194.832ZM345.478 184.718H335.483V174.725H345.478V184.718ZM355.593 386.996H345.598V377.002H355.606L355.593 386.996ZM355.593 376.882H345.598V366.888H355.606L355.593 376.882ZM355.593 366.768H345.598V356.796H355.606L355.593 366.768ZM355.593 356.654H345.598V346.66H355.606L355.593 356.654ZM355.593 346.54H345.598V336.55H355.606L355.593 346.54ZM355.593 336.425H345.598V326.432H355.606L355.593 336.425ZM355.593 326.311H345.598V316.305H355.606L355.593 326.311ZM355.593 316.197H345.598V306.204H355.606L355.593 316.197ZM355.593 306.083H345.598V296.094H355.606L355.593 306.083ZM355.593 295.973H345.598V285.98H355.606L355.593 295.973ZM355.593 285.859H345.598V275.866H355.606L355.593 285.859ZM355.593 275.745H345.598V265.752H355.606L355.593 275.745ZM355.593 265.631H345.598V255.638H355.606L355.593 265.631ZM355.593 255.517H345.598V245.524H355.606L355.593 255.517ZM355.593 245.403H345.598V235.409H355.606L355.593 245.403ZM355.593 235.289H345.598V225.295H355.606L355.593 235.289ZM355.593 225.175H345.598V215.181H355.606L355.593 225.175ZM355.593 215.061H345.598V205.067H355.606L355.593 215.061ZM355.593 204.947H345.598V194.953H355.606L355.593 204.947ZM355.593 194.832H345.598V184.839H355.606L355.593 194.832ZM355.593 184.718H345.598V174.725H355.606L355.593 184.718ZM365.725 387.009H355.713V377.002H365.725V387.009ZM365.725 376.895H355.713V366.888H365.725V376.895ZM365.725 366.781H355.713V356.796H365.725V366.781ZM365.725 356.667H355.713V346.66H365.725V356.667ZM365.725 346.553H355.713V336.55H365.725V346.553ZM365.725 336.438H355.713V326.432H365.725V336.438ZM365.725 326.324H355.713V316.305H365.725V326.324ZM365.725 316.21H355.713V306.204H365.725V316.21ZM365.725 306.096H355.713V296.094H365.725V306.096ZM365.725 295.986H355.713V285.98H365.725V295.986ZM365.725 285.872H355.713V275.866H365.725V285.872ZM365.725 275.758H355.713V265.752H365.725V275.758ZM365.725 265.644H355.713V255.638H365.725V265.644ZM365.725 255.53H355.713V245.524H365.725V255.53ZM365.725 245.416H355.713V235.409H365.725V245.416ZM365.725 235.323H355.713V225.295H365.725V235.323ZM365.725 225.209H355.713V215.181H365.725V225.209ZM365.725 215.078H355.713V205.067H365.725V215.078ZM365.725 204.964H355.713V194.953H365.725V204.964ZM365.725 194.832H355.713V184.839H365.725V194.832ZM365.725 184.718H355.713V174.725H365.725V184.718ZM375.84 386.996H365.829V377.002H375.836L375.84 386.996ZM375.84 376.882H365.829V366.888H375.836L375.84 376.882ZM375.84 366.768H365.829V356.796H375.836L375.84 366.768ZM375.84 356.654H365.829V346.66H375.836L375.84 356.654ZM375.84 346.54H365.829V336.55H375.836L375.84 346.54ZM375.84 336.425H365.829V326.432H375.836L375.84 336.425ZM375.84 326.311H365.829V316.305H375.836L375.84 326.311ZM375.84 316.197H365.829V306.204H375.836L375.84 316.197ZM375.84 306.083H365.829V296.094H375.836L375.84 306.083ZM375.84 295.973H365.829V285.98H375.836L375.84 295.973ZM375.84 285.859H365.829V275.866H375.836L375.84 285.859ZM375.84 275.745H365.829V265.752H375.836L375.84 275.745ZM375.84 265.631H365.829V255.638H375.836L375.84 265.631ZM375.84 255.517H365.829V245.524H375.836L375.84 255.517ZM375.84 245.403H365.829V235.409H375.836L375.84 245.403ZM375.84 235.289H365.829V225.295H375.836L375.84 235.289ZM375.84 225.175H365.829V215.181H375.836L375.84 225.175ZM375.84 215.061H365.829V205.067H375.836L375.84 215.061ZM375.84 204.947H365.829V194.953H375.836L375.84 204.947ZM375.84 194.832H365.829V184.839H375.836L375.84 194.832ZM375.84 184.718H365.829V174.725H375.836L375.84 184.718ZM385.973 387.009H375.944V377.002H385.973V387.009ZM385.973 376.895H375.944V366.888H385.973V376.895ZM385.973 366.781H375.944V356.796H385.973V366.781ZM385.973 356.667H375.944V346.66H385.973V356.667ZM385.973 346.553H375.944V336.55H385.973V346.553ZM385.973 336.438H375.944V326.432H385.973V336.438ZM385.973 326.324H375.944V316.305H385.973V326.324ZM385.973 316.21H375.944V306.204H385.973V316.21ZM385.973 306.096H375.944V296.094H385.973V306.096ZM385.973 295.986H375.944V285.98H385.973V295.986ZM385.973 285.872H375.944V275.866H385.973V285.872ZM385.973 275.758H375.944V265.752H385.973V275.758ZM385.973 265.644H375.944V255.638H385.973V265.644ZM385.973 255.53H375.944V245.524H385.973V255.53ZM385.973 245.416H375.944V235.409H385.973V245.416ZM385.973 235.323H375.944V225.295H385.973V235.323ZM385.973 225.209H375.944V215.181H385.973V225.209ZM385.973 215.078H375.944V205.067H385.973V215.078ZM385.973 204.964H375.944V194.953H385.973V204.964ZM385.973 194.832H375.944V184.839H385.973V194.832ZM385.973 184.718H375.944V174.725H385.973V184.718Z" fill="url(#paint0_radial_10_2)"/>
<path d="M179.497 228.483C202.784 205.198 202.784 167.446 179.497 144.161C156.209 120.876 118.453 120.876 95.1655 144.161C71.8782 167.446 71.8781 205.198 95.1655 228.483C118.453 251.768 156.209 251.768 179.497 228.483Z" stroke="#FFFFE0" stroke-width="0.25" stroke-miterlimit="10"/>
<path opacity="0.28" d="M201.02 321.832L200.921 321.931L200.818 322.035L171.705 351.145L171.606 351.244L171.502 351.347L142.389 380.458L142.285 380.561L142.186 380.66L121.81 401.035L122.115 401.315L142.479 380.953L142.578 380.854L142.682 380.751L171.795 351.662L171.898 351.563L171.998 351.459L201.111 322.349L201.214 322.246L201.313 322.147L207.194 316.267L206.909 315.965L201.02 321.832Z" fill="#FFFFE0"/>
<path opacity="0.28" d="M203.851 324.865L203.752 324.964L174.638 354.074L174.535 354.177L174.432 354.281L145.318 383.387L145.219 383.49L145.116 383.594L124.924 403.783L125.247 404.046L145.409 383.886L145.512 383.783L145.616 383.684L174.725 354.574L174.828 354.47L174.931 354.367L204.045 325.261L204.144 325.157L204.247 325.054L209.925 319.377L209.662 319.054L203.954 324.761L203.851 324.865Z" fill="#FFFFE0"/>
<path opacity="0.28" d="M215.577 336.585L215.478 336.689L186.365 365.795L186.261 365.898L186.158 366.001L157.049 395.112L156.945 395.211L156.842 395.314L139.498 412.656L139.929 412.829L157.161 395.599L157.264 395.495L157.368 395.396L186.455 366.307L186.554 366.204L186.658 366.105L215.784 336.986L215.883 336.883L215.986 336.779L218.726 334.04C218.67 333.902 218.61 333.768 218.55 333.63L215.693 336.486L215.577 336.585Z" fill="#FFFFE0"/>
<path opacity="0.28" d="M209.714 330.727L209.615 330.826L180.502 359.937L180.398 360.04L180.295 360.143L151.164 389.254L151.065 389.353L150.962 389.456L131.778 408.663L132.145 408.887L151.281 389.749L151.384 389.646L151.487 389.547L180.601 360.436L180.7 360.333L180.803 360.23L209.916 331.123L210.016 331.02L210.119 330.917L214.772 326.265L214.552 325.898L209.813 330.637L209.714 330.727Z" fill="#FFFFE0"/>
<path opacity="0.28" d="M218.511 339.519L218.408 339.622L189.294 368.733L189.195 368.836L189.092 368.935L159.978 398.046L159.875 398.149L159.776 398.248L143.737 414.289L144.168 414.436L160.06 398.545L160.164 398.442L160.263 398.338L189.376 369.228L189.479 369.129L189.579 369.026L218.692 339.915L218.795 339.816L218.899 339.713L220.303 338.304C220.256 338.158 220.208 338.011 220.157 337.874L218.601 339.429L218.511 339.519Z" fill="#FFFFE0"/>
<path opacity="0.28" d="M212.648 333.656L212.544 333.76L183.431 362.861L183.332 362.965L183.228 363.064L154.115 392.174L154.012 392.277L153.913 392.376L135.518 410.77L135.905 410.968L154.206 392.669L154.309 392.57L154.408 392.467L183.521 363.357L183.625 363.258L183.724 363.154L212.837 334.044L212.941 333.94L213.04 333.841L216.857 330.025L216.658 329.637L212.768 333.57L212.648 333.656Z" fill="#FFFFE0"/>
<path opacity="0.28" d="M206.785 327.793L206.682 327.897L177.568 357.007L177.469 357.111L177.366 357.21L148.253 386.32L148.149 386.423L148.05 386.522L128.233 406.337L128.578 406.578L148.334 386.824L148.438 386.725L148.537 386.622L177.65 357.511L177.754 357.412L177.853 357.309L206.966 328.198L207.069 328.099L207.169 327.97L212.437 322.698C212.355 322.586 212.278 322.469 212.196 322.353L206.871 327.677L206.785 327.793Z" fill="#FFFFE0"/>
<path opacity="0.28" d="M221.342 342.555L192.228 371.666L192.125 371.765L192.026 371.868L162.913 400.979L162.809 401.078L162.706 401.181L148.257 415.633L148.726 415.745L162.999 401.474L163.102 401.371L163.206 401.272L192.319 372.161L192.418 372.058L192.521 371.959L221.626 342.853L221.561 342.581C221.561 342.521 221.531 342.461 221.514 342.4L221.445 342.469L221.342 342.555Z" fill="#FFFFE0"/>
<path opacity="0.28" d="M203.851 383.49L203.752 383.594L174.639 412.704L174.535 412.803L174.432 412.906L170.262 417.08L170.925 417.003L174.725 413.199L174.828 413.096L174.932 412.997L204.045 383.886L204.144 383.783L204.247 383.684L222.879 365.05C222.91 364.83 222.931 364.619 222.957 364.386L203.954 383.387L203.851 383.49Z" fill="#FFFFE0"/>
<path opacity="0.28" d="M197.988 377.628L197.888 377.731L168.775 406.841L168.672 406.94L168.568 407.044L158.311 417.3L158.858 417.339L168.861 407.337L168.965 407.233L169.068 407.134L198.181 378.024L198.28 377.92L198.384 377.821L223.219 352.984L223.181 352.441L198.091 377.528L197.988 377.628Z" fill="#FFFFE0"/>
<path opacity="0.28" d="M200.922 380.561L200.818 380.66L171.705 409.77L171.606 409.874L171.502 409.973L163.989 417.485H164.584L171.795 410.279L171.899 410.175L171.998 410.072L201.111 380.953L201.215 380.854L201.314 380.75L223.358 358.713C223.358 358.515 223.358 358.317 223.358 358.119L201.012 380.458L200.922 380.561Z" fill="#FFFFE0"/>
<path opacity="0.28" d="M195.058 374.699L194.955 374.798L165.842 403.908L165.738 404.011L165.639 404.11L153.099 416.65L153.603 416.736L165.932 404.408L166.035 404.304L166.135 404.201L195.248 375.091L195.351 374.991L195.45 374.888L222.616 347.751C222.586 347.583 222.56 347.415 222.53 347.247L195.157 374.617L195.058 374.699Z" fill="#FFFFE0"/>
<path opacity="0.28" d="M209.714 389.352L209.615 389.456L186.089 412.979L187.106 412.549L209.908 389.749L210.007 389.645L210.111 389.546L218.429 381.228C218.572 380.892 218.718 380.552 218.86 380.212L209.813 389.258L209.714 389.352Z" fill="#FFFFE0"/>
<path opacity="0.28" d="M206.785 386.424L206.681 386.523L177.568 415.633L177.469 415.737L177.404 415.801L177.508 415.775L177.671 415.737L178.18 415.612L206.974 386.816L207.078 386.717L207.181 386.613L221.492 372.304C221.557 372.045 221.617 371.787 221.682 371.528L206.884 386.32L206.785 386.424Z" fill="#FFFFE0"/>
<path opacity="0.28" d="M133.786 313.433L133.889 313.329L148.243 298.972L147.447 299.188L133.592 313.036L133.493 313.14L133.39 313.239L105.069 341.574C104.996 341.841 104.922 342.104 104.854 342.375L133.695 313.536L133.786 313.433Z" fill="#FFFFE0"/>
<path opacity="0.28" d="M118.229 317.262L123.132 312.36C121.404 313.898 119.768 315.534 118.229 317.262Z" fill="#FFFFE0"/>
<path opacity="0.28" d="M130.852 310.499L130.956 310.4L139.343 302.013C138.994 302.164 138.641 302.315 138.297 302.474L130.663 310.107L130.559 310.206L130.46 310.31L108.343 332.424C108.184 332.773 108.033 333.122 107.878 333.471L130.753 310.602L130.852 310.499Z" fill="#FFFFE0"/>
<path opacity="0.28" d="M116.196 354.47L116.295 354.367L145.409 325.261L145.512 325.157L145.616 325.054L172.795 297.878L172.291 297.792L145.318 324.761L145.219 324.864L145.133 324.955L116.003 354.074L115.903 354.177L115.8 354.281L103.66 366.415C103.686 366.587 103.716 366.751 103.742 366.923L116.093 354.573L116.196 354.47Z" fill="#FFFFE0"/>
<path opacity="0.28" d="M110.333 348.608L110.432 348.504L139.533 319.398L139.636 319.295L139.74 319.192L161.809 297.124H161.202L139.442 318.881L139.343 318.985L139.24 319.084L110.139 348.216L110.04 348.319L109.937 348.422L103.01 355.345C103.01 355.543 103.01 355.745 103.01 355.948L110.247 348.711L110.333 348.608Z" fill="#FFFFE0"/>
<path opacity="0.28" d="M113.254 351.541L113.357 351.438L142.471 322.328L142.57 322.224L142.673 322.125L167.535 297.266L166.983 297.232L142.38 321.832L142.277 321.931L142.178 322.035L113.073 351.145L112.97 351.244L112.871 351.348L103.1 361.139C103.1 361.324 103.1 361.509 103.135 361.69L113.164 351.662L113.254 351.541Z" fill="#FFFFE0"/>
<path opacity="0.28" d="M107.4 345.679L107.503 345.575L136.616 316.465L136.715 316.362L136.819 316.263L155.472 297.594L154.787 297.689L136.517 315.97L136.414 316.069L136.315 316.172L107.223 345.282L107.12 345.382L107.016 345.485L103.57 348.931C103.535 349.155 103.501 349.383 103.475 349.612L107.314 345.774L107.4 345.679Z" fill="#FFFFE0"/>
<path opacity="0.28" d="M139.649 377.938L139.752 377.839L168.861 348.729L168.965 348.625L169.068 348.522L198.182 319.416L198.281 319.312L198.384 319.209L204.264 313.325L203.959 313.045L198.091 318.912L197.988 319.015L197.889 319.114L168.775 348.216L168.672 348.319L168.568 348.423L139.455 377.533L139.356 377.632L139.253 377.735L118.897 398.084L119.182 398.386L139.533 378.024L139.649 377.938Z" fill="#FFFFE0"/>
<path opacity="0.28" d="M133.786 372.058L133.889 371.959L162.999 342.849L163.102 342.745L163.205 342.642L192.319 313.536L192.418 313.432L192.521 313.325L197.798 308.052L197.449 307.811L192.228 313.032L192.125 313.135L192.026 313.234L162.912 342.345L162.809 342.448L162.706 342.551L133.592 371.662L133.493 371.761L133.39 371.864L113.685 391.571L113.922 391.92L133.683 372.161L133.786 372.058Z" fill="#FFFFE0"/>
<path opacity="0.28" d="M127.923 366.195L128.022 366.096L157.135 336.986L157.238 336.882L157.342 336.779L186.455 307.669L186.554 307.57L186.658 307.466L190.483 303.641L190.091 303.447L186.365 307.173L186.261 307.277L186.158 307.376L157.049 336.486L156.945 336.589L156.842 336.693L127.729 365.799L127.63 365.902L127.526 366.006L109.316 384.214L109.51 384.606L127.819 366.299L127.923 366.195Z" fill="#FFFFE0"/>
<path opacity="0.28" d="M122.06 360.333L122.159 360.229L151.272 331.123L151.376 331.02L151.479 330.916L180.592 301.806L180.691 301.707L180.795 301.604L182.216 300.182L181.786 300.04L180.515 301.311L180.411 301.414L180.308 301.513L151.165 330.624L151.065 330.727L150.962 330.826L121.87 359.936L121.771 360.04L121.668 360.143L105.909 375.896C105.961 376.047 106.004 376.193 106.056 376.327L121.961 360.423L122.06 360.333Z" fill="#FFFFE0"/>
<path opacity="0.28" d="M136.715 374.991L136.819 374.888L165.932 345.778L166.035 345.678L166.135 345.575L195.248 316.465L195.351 316.361L195.45 316.262L201.137 310.581L200.809 310.318L195.162 315.969L195.063 316.068L194.959 316.172L165.846 345.282L165.743 345.381L165.643 345.485L136.517 374.595L136.414 374.698L136.315 374.797L116.179 394.931L116.442 395.254L136.608 375.09L136.715 374.991Z" fill="#FFFFE0"/>
<path opacity="0.28" d="M130.852 369.129L130.956 369.026L160.069 339.915L160.172 339.816L160.271 339.713L189.385 310.602L189.488 310.499L189.587 310.4L194.244 305.739L193.878 305.52L189.29 310.107L189.191 310.206L189.075 310.31L159.961 339.42L159.858 339.519L159.759 339.622L130.645 368.733L130.542 368.836L130.443 368.935L111.372 388.005C111.445 388.129 111.514 388.25 111.591 388.375L130.736 369.228L130.852 369.129Z" fill="#FFFFE0"/>
<path opacity="0.28" d="M124.989 363.266L125.092 363.163L154.206 334.052L154.309 333.949L154.408 333.85L183.522 304.74L183.625 304.636L183.724 304.537L186.477 301.785L186.046 301.612L183.418 304.244L183.319 304.343L183.216 304.447L154.115 333.57L154.012 333.669L153.913 333.772L124.8 362.861L124.696 362.965L124.597 363.064L107.481 380.186C107.537 380.324 107.593 380.462 107.654 380.617L124.886 363.387L124.989 363.266Z" fill="#FFFFE0"/>
<path opacity="0.28" d="M119.126 357.404L119.229 357.3L148.343 328.19L148.446 328.091L148.545 327.988L177.658 298.877H177.633L177.202 298.77L148.256 327.712L148.153 327.811L148.054 327.914L118.941 357.025L118.837 357.128L118.738 357.227L104.638 371.321C104.673 371.481 104.711 371.636 104.75 371.795L119.044 357.503L119.126 357.404Z" fill="#FFFFE0"/>
<g style="mix-blend-mode:multiply" filter="url(#filter0_f_10_2)">
<path d="M181.611 104.355L258.426 237.401L104.797 237.401L181.611 104.355Z" fill="url(#paint1_radial_10_2)"/>
</g>
<path d="M162.141 392.108C187.015 392.108 207.18 371.945 207.18 347.073C207.18 322.201 187.015 302.038 162.141 302.038C137.266 302.038 117.101 322.201 117.101 347.073C117.101 371.945 137.266 392.108 162.141 392.108Z" fill="url(#paint2_radial_10_2)"/>
<path d="M261.984 253.738C290.83 253.738 314.215 230.357 314.215 201.516C314.215 172.675 290.83 149.295 261.984 149.295C233.138 149.295 209.753 172.675 209.753 201.516C209.753 230.357 233.138 253.738 261.984 253.738Z" fill="url(#paint3_radial_10_2)"/>
<path d="M151.116 194.235C166.791 194.235 179.499 181.527 179.499 165.851C179.499 150.176 166.791 137.468 151.116 137.468C135.44 137.468 122.732 150.176 122.732 165.851C122.732 181.527 135.44 194.235 151.116 194.235Z" fill="url(#paint4_radial_10_2)"/>
<defs>
<filter id="filter0_f_10_2" x="0.796875" y="0.35498" width="361.629" height="341.046" filterUnits="userSpaceOnUse" color-interpolation-filters="sRGB">
<feFlood flood-opacity="0" result="BackgroundImageFix"/>
<feBlend mode="normal" in="SourceGraphic" in2="BackgroundImageFix" result="shape"/>
<feGaussianBlur stdDeviation="52" result="effect1_foregroundBlur_10_2"/>
</filter>
<radialGradient id="paint0_radial_10_2" cx="0" cy="0" r="1" gradientUnits="userSpaceOnUse" gradientTransform="translate(279.798 280.867) scale(106.261 106.25)">
<stop stop-color="#FFFFE0"/>
<stop offset="1" stop-color="#FFFFE0" stop-opacity="0"/>
</radialGradient>
<radialGradient id="paint1_radial_10_2" cx="0" cy="0" r="1" gradientUnits="userSpaceOnUse" gradientTransform="translate(181.611 193.053) rotate(90) scale(88.6976)">
<stop stop-color="#34D399"/>
<stop offset="1" stop-color="#3D7BA0"/>
</radialGradient>
<radialGradient id="paint2_radial_10_2" cx="0" cy="0" r="1" gradientUnits="userSpaceOnUse" gradientTransform="translate(186.946 321.56) rotate(122.236) scale(68.2822)">
<stop stop-color="#AAFF00"/>
<stop offset="1" stop-color="#00FFE0" stop-opacity="0"/>
</radialGradient>
<radialGradient id="paint3_radial_10_2" cx="0" cy="0" r="1" gradientUnits="userSpaceOnUse" gradientTransform="translate(290.75 171.933) rotate(44.9947) scale(81.5788)">
<stop stop-color="#AAFF00"/>
<stop offset="1" stop-color="#00FFE0" stop-opacity="0"/>
</radialGradient>
<radialGradient id="paint4_radial_10_2" cx="0" cy="0" r="1" gradientUnits="userSpaceOnUse" gradientTransform="translate(166.748 149.772) rotate(94.1349) scale(44.5785 41.0446)">
<stop stop-color="#8CE717"/>
<stop offset="1" stop-color="#00FFE0" stop-opacity="0"/>
</radialGradient>
</defs>
</svg>
