<svg width="727" height="567" viewBox="0 0 727 567" fill="none" xmlns="http://www.w3.org/2000/svg">
<g opacity="0.28">
<path opacity="0.28" d="M659.913 386.2L659.782 386.331L659.651 386.455L622.823 423.352L622.692 423.483L622.561 423.607L585.726 460.438L585.602 460.569L585.471 460.7L559.695 486.437L560.081 486.794L585.842 461.035L585.973 460.904L586.097 460.773L622.932 423.942L623.063 423.818L623.195 423.687L660.022 386.856L660.153 386.732L660.284 386.601L667.723 379.163L667.366 378.777L659.913 386.2Z" fill="#FFFFE0"/>
<path opacity="0.28" d="M663.49 390.068L663.359 390.192L626.532 426.994L626.4 427.125L626.269 427.256L589.434 464.146L589.311 464.277L589.179 464.408L563.63 489.955L564.045 490.283L589.544 464.787L589.675 464.656L589.799 464.525L626.634 427.701L626.765 427.57L626.896 427.439L663.731 390.571L663.862 390.447L663.993 390.316L671.177 383.133C671.06 382.995 670.958 382.857 670.841 382.725L663.622 389.944L663.49 390.068Z" fill="#FFFFE0"/>
<path opacity="0.28" d="M678.331 404.9L678.2 405.031L641.343 441.862L641.212 441.986L641.088 442.117L604.253 478.948L604.122 479.079L603.998 479.203L582.054 501.145L582.572 501.37L604.37 479.575L604.493 479.451L604.625 479.32L641.459 442.489L641.583 442.358L641.714 442.234L678.549 405.402L678.681 405.271L678.804 405.148L682.272 401.68L682.054 401.156L678.411 404.798L678.331 404.9Z" fill="#FFFFE0"/>
<path opacity="0.28" d="M670.907 397.484L670.783 397.615L633.948 434.439L633.817 434.57L633.693 434.701L596.858 471.533L596.727 471.656L596.596 471.787L572.292 496.089L572.758 496.373L596.967 472.159L597.098 472.028L597.23 471.904L634.057 435.073L634.181 434.942L634.312 434.811L671.147 397.987L671.271 397.856L671.402 397.724L677.289 391.838L677.012 391.38L671.031 397.353L670.907 397.484Z" fill="#FFFFE0"/>
<path opacity="0.28" d="M682.039 408.608L681.908 408.739L645.073 445.57L644.949 445.701L644.818 445.825L607.983 482.656L607.852 482.787L607.728 482.911L587.431 503.206L587.992 503.388L608.099 483.283L608.223 483.159L608.354 483.028L645.189 446.196L645.321 446.065L645.444 445.942L682.279 409.11L682.411 408.979L682.534 408.855L684.319 407.071C684.254 406.889 684.195 406.699 684.13 406.517L682.163 408.484L682.039 408.608Z" fill="#FFFFE0"/>
<path opacity="0.28" d="M674.622 401.192L674.491 401.323L637.656 438.154L637.525 438.278L637.401 438.409L600.544 475.24L600.413 475.364L600.289 475.495L577.012 498.762L577.5 499.017L600.654 475.867L600.785 475.736L600.916 475.612L637.751 438.781L637.875 438.65L638.006 438.526L674.855 401.695L674.979 401.563L675.11 401.432L679.94 396.61L679.685 396.122L674.739 401.061L674.622 401.192Z" fill="#FFFFE0"/>
<path opacity="0.28" d="M667.199 393.776L667.075 393.907L630.24 430.731L630.109 430.862L629.978 430.993L593.15 467.825L593.019 467.948L592.888 468.08L567.833 493.139L568.263 493.445L593.259 468.451L593.39 468.32L593.522 468.196L630.349 431.365L630.48 431.234L630.612 431.103L667.447 394.279L667.57 394.148L667.701 394.017L674.368 387.351L674.062 386.914L667.33 393.645L667.199 393.776Z" fill="#FFFFE0"/>
<path opacity="0.28" d="M685.616 412.425L648.781 449.256L648.657 449.387L648.526 449.511L611.691 486.364L611.568 486.495L611.436 486.626L593.15 504.94L593.747 505.086L611.808 487.027L611.939 486.903L612.063 486.772L648.898 449.941L649.029 449.817L649.153 449.686L685.981 412.862C685.981 412.745 685.93 412.636 685.9 412.52C685.871 412.403 685.9 412.367 685.842 412.294L685.755 412.374L685.616 412.425Z" fill="#FFFFE0"/>
<path opacity="0.28" d="M663.491 464.241L663.359 464.372L626.532 501.203L626.401 501.327L626.269 501.458L620.995 506.739L621.833 506.637L626.641 501.829L626.772 501.698L626.903 501.567L663.731 464.743L663.862 464.612L663.993 464.481L687.569 440.908C687.569 440.631 687.634 440.347 687.663 440.07L663.622 464.109L663.491 464.241Z" fill="#FFFFE0"/>
<path opacity="0.28" d="M656.073 456.861L655.942 456.992L619.107 493.816L618.984 493.947L618.852 494.078L605.877 507.052L606.569 507.103L619.224 494.45L619.355 494.319L619.479 494.188L656.314 457.357L656.445 457.233L656.576 457.102L687.969 425.647C687.969 425.413 687.969 425.188 687.918 424.954L656.205 456.694L656.073 456.861Z" fill="#FFFFE0"/>
<path opacity="0.28" d="M659.782 460.504L659.651 460.635L622.823 497.459L622.692 497.59L622.561 497.721L613.09 507.191H613.819L622.94 498.07L623.071 497.939L623.202 497.808L660.03 460.984L660.161 460.853L660.292 460.722L688.181 432.836C688.181 432.589 688.181 432.341 688.181 432.108L659.913 460.372L659.782 460.504Z" fill="#FFFFE0"/>
<path opacity="0.28" d="M652.366 453.117L652.271 453.219L615.436 490.05L615.312 490.181L615.115 490.371L599.248 506.229L599.889 506.339L615.487 490.742L615.618 490.611L615.742 490.48L652.577 453.649L652.708 453.525L652.832 453.394L687.241 418.981L687.131 418.34L652.489 452.986L652.366 453.117Z" fill="#FFFFE0"/>
<path opacity="0.28" d="M670.907 471.656L670.783 471.787L641.015 501.545C641.452 501.37 641.875 501.188 642.304 501.006L671.154 472.159L671.278 472.028L671.41 471.904L681.93 461.378C682.119 460.955 682.301 460.525 682.476 460.096L671.038 471.532L670.907 471.656Z" fill="#FFFFE0"/>
<path opacity="0.28" d="M667.199 467.948L667.075 468.08L630.24 504.94L630.109 505.064L630.029 505.151H630.16L630.364 505.1L631.012 504.947L667.439 468.524L667.563 468.393L667.694 468.269L685.784 450.086C685.871 449.759 685.944 449.431 686.024 449.103L667.308 467.825L667.199 467.948Z" fill="#FFFFE0"/>
<path opacity="0.28" d="M574.842 375.601L574.973 375.477L593.135 357.309L592.123 357.579L574.601 375.106L574.47 375.229L574.346 375.361L538.495 411.208C538.4 411.543 538.313 411.879 538.225 412.221L574.718 375.732L574.842 375.601Z" fill="#FFFFE0"/>
<path opacity="0.28" d="M555.164 380.445L561.364 374.246C559.18 376.192 557.11 378.262 555.164 380.445Z" fill="#FFFFE0"/>
<path opacity="0.28" d="M571.134 371.893L571.265 371.762L581.879 361.156L580.546 361.738L570.893 371.398L570.762 371.522L570.675 371.631L542.691 399.611C542.487 400.048 542.298 400.493 542.101 400.937L571.046 372.002L571.134 371.893Z" fill="#FFFFE0"/>
<path opacity="0.28" d="M663.366 487.362L668.291 482.438C669.668 480.93 670.98 479.364 672.233 477.754L658.675 491.303C660.285 490.057 661.858 488.739 663.366 487.362Z" fill="#FFFFE0"/>
<path opacity="0.28" d="M552.592 427.526L552.716 427.395L589.551 390.571L589.682 390.447L589.806 390.316L624.2 355.925L623.559 355.823L589.434 389.944L589.31 390.076L589.179 390.199L552.344 426.994L552.22 427.125L552.089 427.256L536.732 442.612C536.732 442.824 536.797 443.035 536.834 443.246L552.461 427.657L552.592 427.526Z" fill="#FFFFE0"/>
<path opacity="0.28" d="M545.176 420.11L545.307 419.979L582.142 383.148L582.273 383.017L582.397 382.893L610.322 354.971H609.593L582.018 382.558L581.894 382.689L581.763 382.813L544.928 419.644L544.797 419.775L544.673 419.899L535.93 428.641C535.93 428.895 535.93 429.15 535.93 429.405L545.088 420.249L545.176 420.11Z" fill="#FFFFE0"/>
<path opacity="0.28" d="M548.884 423.818L549.008 423.687L585.842 386.856L585.974 386.732L586.097 386.601L617.556 355.153L616.827 355.102L585.726 386.2L585.602 386.331L585.471 386.455L548.636 423.352L548.512 423.483L548.381 423.607L535.996 435.991L536.04 436.719L548.731 424.029L548.884 423.818Z" fill="#FFFFE0"/>
<path opacity="0.28" d="M541.46 416.402L541.591 416.271L578.426 379.44L578.55 379.309L578.681 379.185L602.3 355.561L601.441 355.685L578.31 378.814L578.178 378.937L578.055 379.068L541.22 415.9L541.088 416.031L540.965 416.155L536.593 420.525C536.55 420.817 536.506 421.101 536.469 421.392L541.329 416.533L541.46 416.402Z" fill="#FFFFE0"/>
<path opacity="0.28" d="M582.265 457.196L582.389 457.065L619.224 420.234L619.355 420.11L619.479 419.979L656.314 383.148L656.445 383.017L656.576 382.893L664.015 375.455L663.629 375.098L656.205 382.558L656.074 382.689L655.943 382.813L619.108 419.644L618.984 419.775L618.853 419.899L582.018 456.73L581.894 456.861L581.763 456.992L556.009 482.736L556.366 483.122L582.134 457.357L582.265 457.196Z" fill="#FFFFE0"/>
<path opacity="0.28" d="M574.841 449.781L574.973 449.649L611.808 412.818L611.939 412.687L612.062 412.563L648.897 375.732L649.029 375.601L649.152 375.477L655.833 368.797L655.389 368.498L648.781 375.106L648.657 375.229L648.526 375.361L611.691 412.192L611.567 412.316L611.472 412.425L574.637 449.256L574.506 449.387L574.382 449.511L549.445 474.446L549.751 474.883L574.754 449.883L574.841 449.781Z" fill="#FFFFE0"/>
<path opacity="0.28" d="M567.425 442.358L567.556 442.234L604.391 405.402L604.515 405.271L604.646 405.148L641.481 368.316L641.605 368.185L641.736 368.054L646.574 363.217L646.078 362.969L641.343 367.683L641.212 367.814L641.088 367.945L604.275 404.776L604.143 404.9L604.02 405.031L567.185 441.862L567.054 441.986L566.922 442.117L543.886 465.158L544.134 465.654L567.294 442.489L567.425 442.358Z" fill="#FFFFE0"/>
<path opacity="0.28" d="M560.009 434.942L560.14 434.811L596.968 397.987L597.099 397.856L597.23 397.724L634.058 360.893L634.181 360.769L634.313 360.638L636.112 358.839L635.551 358.657L633.941 360.267L633.81 360.398L633.686 360.522L596.851 397.353L596.72 397.484L596.589 397.615L559.747 434.439L559.615 434.57L559.484 434.701L539.551 454.632C539.61 454.822 539.668 455.011 539.734 455.193L559.856 435.073L560.009 434.942Z" fill="#FFFFE0"/>
<path opacity="0.28" d="M578.55 453.488L578.681 453.357L615.516 416.526L615.647 416.402L615.771 416.271L652.606 379.44L652.737 379.309L652.861 379.185L660.052 371.995L659.637 371.667L652.49 378.814L652.366 378.937L652.235 379.069L615.4 415.9L615.276 416.031L615.145 416.155L578.31 452.986L578.179 453.117L578.055 453.241L552.556 478.737L552.891 479.145L578.39 453.649L578.55 453.488Z" fill="#FFFFE0"/>
<path opacity="0.28" d="M571.134 446.065L571.265 445.942L608.1 409.11L608.224 408.979L608.355 408.855L645.19 372.024L645.321 371.893L645.445 371.762L651.346 365.869L650.88 365.592L645.051 371.42L644.927 371.543L644.796 371.675L607.961 408.506L607.83 408.63L607.706 408.761L570.893 445.57L570.762 445.701L570.638 445.825L546.509 469.974L546.786 470.44L571.01 446.218L571.134 446.065Z" fill="#FFFFE0"/>
<path opacity="0.28" d="M563.716 438.65L563.848 438.526L600.675 401.695L600.806 401.563L600.938 401.432L637.773 364.608L637.896 364.477L638.028 364.346L641.51 360.864L640.985 360.653L637.656 363.975L637.525 364.106L637.401 364.237L600.544 401.061L600.413 401.192L600.289 401.323L563.454 438.154L563.323 438.278L563.192 438.409L541.532 460.059L541.751 460.584L563.556 438.781L563.716 438.65Z" fill="#FFFFE0"/>
<path opacity="0.28" d="M556.3 431.234L556.424 431.103L593.259 394.279L593.39 394.148L593.521 394.017L630.349 357.185L629.781 357.047L593.164 393.66L593.033 393.791L592.902 393.922L556.067 430.746L555.943 430.877L555.812 431.008L537.941 448.848C537.992 449.045 538.043 449.242 538.087 449.438L556.169 431.365L556.3 431.234Z" fill="#FFFFE0"/>
</g>
<g opacity="0.28">
<path opacity="0.28" d="M253.679 88.5667L253.504 88.7415L253.33 88.9164L203.257 138.984L203.082 139.159L202.907 139.333L152.835 189.401L152.66 189.583L152.485 189.758L117.442 224.797L117.967 225.278L152.988 190.26L153.163 190.086L153.337 189.911L203.41 139.843L203.585 139.668L203.76 139.494L253.84 89.4263L254.014 89.2442L254.189 89.0694L264.294 78.9656L263.813 78.4411L253.679 88.5667Z" fill="#FFFFE0"/>
<path opacity="0.28" d="M258.546 93.7825L258.371 93.9574L208.299 144.025L208.124 144.2L207.949 144.374L157.877 194.434L157.702 194.609L157.527 194.784L122.797 229.51L123.351 229.962L158.03 195.287L158.204 195.112L158.379 194.937L208.452 144.899L208.627 144.724L208.801 144.549L258.896 94.4673L259.071 94.2925L259.245 94.1103L269.008 84.3489C268.855 84.1668 268.709 83.9774 268.556 83.788L258.721 93.6077L258.546 93.7825Z" fill="#FFFFE0"/>
<path opacity="0.28" d="M278.719 113.954L278.544 114.129L228.472 164.196L228.297 164.371L228.122 164.546L178.028 214.613L177.853 214.788L177.671 214.963L147.866 244.793L148.595 245.092L178.224 215.465L178.399 215.29L178.574 215.116L228.647 165.048L228.822 164.873L228.996 164.699L279.069 114.631L279.244 114.456L279.419 114.282L284.132 109.568C284.03 109.335 283.936 109.095 283.834 108.84L278.916 113.757L278.719 113.954Z" fill="#FFFFE0"/>
<path opacity="0.28" d="M268.636 103.872L268.461 104.047L218.382 154.114L218.207 154.289L218.032 154.464L167.959 204.531L167.784 204.706L167.61 204.881L134.57 237.917L135.197 238.295L168.112 205.361L168.294 205.187L168.469 205.012L218.542 154.944L218.717 154.77L218.891 154.595L268.964 104.527L269.139 104.353L269.314 104.178L277.328 96.1646L276.941 95.5381L268.811 103.69L268.636 103.872Z" fill="#FFFFE0"/>
<path opacity="0.28" d="M283.761 118.995L283.586 119.17L233.514 169.237L233.339 169.412L233.164 169.587L183.128 219.654L182.953 219.829L182.778 220.004L155.152 247.612L155.88 247.86L183.215 220.535L183.39 220.361L183.565 220.178L233.637 170.111L233.812 169.936L233.987 169.761L284.06 119.694L284.234 119.519L284.409 119.344L286.835 116.926C286.748 116.671 286.668 116.416 286.58 116.197L283.907 118.871L283.761 118.995Z" fill="#FFFFE0"/>
<path opacity="0.28" d="M273.678 108.913L273.503 109.088L223.43 159.155L223.256 159.33L223.081 159.505L173.001 209.572L172.826 209.747L172.651 209.922L141.018 241.552L141.681 241.901L173.161 210.461L173.336 210.286L173.511 210.111L223.583 160.044L223.758 159.869L223.933 159.694L274.006 109.627L274.181 109.452L274.355 109.277L280.912 102.721L280.57 102.058L273.845 108.782L273.678 108.913Z" fill="#FFFFE0"/>
<path opacity="0.28" d="M263.594 98.8235L263.42 98.9983L213.34 149.073L213.165 149.248L212.99 149.423L162.918 199.49L162.743 199.665L162.568 199.84L128.487 233.903L129.077 234.318L163.056 200.342L163.231 200.167L163.413 199.993L213.486 149.925L213.66 149.75L213.835 149.576L263.922 99.5083L264.097 99.3334L264.272 99.1586L273.335 90.0892L272.92 89.4991L263.769 98.6487L263.594 98.8235Z" fill="#FFFFE0"/>
<path opacity="0.28" d="M288.627 124.21L238.554 174.278L238.38 174.453L238.205 174.628L188.132 224.695L187.957 224.87L187.783 225.045L162.925 249.9L163.733 250.096L188.285 225.554L188.46 225.38L188.635 225.205L238.707 175.137L238.882 174.955L239.057 174.78L289.122 124.728L289.013 124.269C289.013 124.159 288.962 124.058 288.933 123.956L288.816 124.072L288.627 124.21Z" fill="#FFFFE0"/>
<path opacity="0.28" d="M258.546 194.624L258.371 194.799L208.298 244.866L208.123 245.041L207.949 245.216L200.772 252.391L201.916 252.26L208.473 245.704L208.648 245.529L208.823 245.354L258.895 195.301L259.07 195.126L259.245 194.952L291.301 162.899L291.432 161.756L258.72 194.434L258.546 194.624Z" fill="#FFFFE0"/>
<path opacity="0.28" d="M248.463 184.535L248.288 184.709L198.216 234.784L198.041 234.959L197.866 235.134L180.213 252.77L181.153 252.843L198.361 235.636L198.536 235.462L198.711 235.287L248.784 185.219L248.958 185.045L249.133 184.87L291.855 142.153C291.855 141.839 291.811 141.526 291.782 141.213L248.631 184.36L248.463 184.535Z" fill="#FFFFE0"/>
<path opacity="0.28" d="M253.505 189.583L253.33 189.758L203.257 239.825L203.083 240L202.908 240.175L189.991 253.09H191.011L203.396 240.707L203.571 240.532L203.746 240.357L253.825 190.29L254 190.115L254.175 189.94L292.059 152.06C292.059 151.717 292.059 151.375 292.059 151.04L253.629 189.459L253.505 189.583Z" fill="#FFFFE0"/>
<path opacity="0.28" d="M243.422 179.494L243.247 179.668L193.174 229.736L192.999 229.911L192.824 230.086L171.252 251.655L172.119 251.801L193.327 230.595L193.502 230.421L193.677 230.246L243.749 180.178L243.924 180.004L244.099 179.821L290.82 133.112C290.777 132.821 290.726 132.537 290.675 132.245L243.596 179.319L243.422 179.494Z" fill="#FFFFE0"/>
<path opacity="0.28" d="M268.636 204.706L268.462 204.881L227.999 245.34L229.747 244.611L268.964 205.361L269.139 205.187L269.314 205.012L283.615 190.712C283.868 190.129 284.111 189.546 284.344 188.964L268.797 204.509L268.636 204.706Z" fill="#FFFFE0"/>
<path opacity="0.28" d="M263.595 199.665L263.42 199.84L213.34 249.907L213.165 250.082L213.056 250.191L213.238 250.147L213.515 250.082C213.807 250.009 214.105 249.943 214.397 249.863L263.937 200.328L264.112 200.153L264.287 199.978L288.897 175.363C289.014 174.926 289.116 174.475 289.225 174.03L263.784 199.475L263.595 199.665Z" fill="#FFFFE0"/>
<path opacity="0.28" d="M138.038 74.1213L138.213 73.9464L162.911 49.2588L161.534 49.623L137.711 73.4438L137.536 73.6186L137.361 73.7934L88.6216 122.52C88.4977 122.979 88.3739 123.438 88.2573 123.897L137.864 74.2961L138.038 74.1213Z" fill="#FFFFE0"/>
<path opacity="0.28" d="M111.279 80.7066L119.744 72.2783C116.764 74.9242 113.938 77.7383 111.279 80.7066Z" fill="#FFFFE0"/>
<path opacity="0.28" d="M132.997 69.0803L133.172 68.9055L147.597 54.4819L145.79 55.2978L132.676 68.4101L132.494 68.5849L132.319 68.7598L94.2458 106.786C93.9762 107.383 93.7139 107.988 93.4517 108.592L132.793 69.2551L132.997 69.0803Z" fill="#FFFFE0"/>
<path opacity="0.28" d="M258.371 226.057L265.073 219.355C266.948 217.306 268.736 215.184 270.435 212.988L252.003 231.419C254.199 229.714 256.321 227.927 258.371 226.057Z" fill="#FFFFE0"/>
<path opacity="0.28" d="M107.782 144.709L107.957 144.535L158.03 94.4673L158.204 94.2924L158.379 94.1103L205.137 47.3648L204.255 47.2263L157.877 93.6077L157.702 93.7825L157.527 93.9574L107.454 144.025L107.279 144.2L107.105 144.374L86.232 165.252C86.2757 165.544 86.3267 165.835 86.3704 166.119L107.607 144.899L107.782 144.709Z" fill="#FFFFE0"/>
<path opacity="0.28" d="M97.699 134.62L97.8738 134.445L147.946 84.378L148.121 84.2032L148.296 84.0284L186.26 46.0754H185.218L147.793 83.5257L147.619 83.7006L147.444 83.8754L97.3711 133.972L97.1963 134.147L97.0214 134.322L85.1025 146.21C85.1025 146.552 85.1025 146.902 85.1025 147.252L97.5533 134.802L97.699 134.62Z" fill="#FFFFE0"/>
<path opacity="0.28" d="M102.74 139.669L102.915 139.494L152.988 89.4263L153.163 89.2442L153.337 89.0694L196.095 46.3158L195.148 46.2575L152.835 88.5667L152.66 88.7416L152.485 88.9164L102.412 138.984L102.238 139.159L102.063 139.333L85.2554 156.139C85.2554 156.452 85.2554 156.773 85.3137 157.086L102.565 139.843L102.74 139.669Z" fill="#FFFFE0"/>
<path opacity="0.28" d="M92.6577 129.601L92.8325 129.426L142.905 79.3371L143.08 79.1622L143.255 78.9874L175.369 46.884C174.975 46.9277 174.582 46.9932 174.196 47.0442L142.752 78.4848L142.577 78.6596L142.402 78.8344L92.3298 128.873L92.155 129.047L91.9729 129.222L86.0425 135.152C85.9915 135.545 85.9333 135.939 85.8823 136.325L92.4828 129.725L92.6577 129.601Z" fill="#FFFFE0"/>
<path opacity="0.28" d="M148.157 185.045L148.332 184.87L198.405 134.802L198.58 134.62L198.754 134.445L248.827 84.378L249.002 84.2032L249.177 84.0284L259.26 73.9173L258.735 73.4292L248.638 83.5257L248.463 83.7006L248.288 83.8754L198.215 133.972L198.041 134.147L197.866 134.322L147.793 184.36L147.618 184.535L147.443 184.709L112.459 219.719L112.947 220.237L147.975 185.219L148.157 185.045Z" fill="#FFFFE0"/>
<path opacity="0.28" d="M138.038 174.955L138.213 174.78L188.286 124.713L188.461 124.538L188.635 124.363L238.708 74.2961L238.883 74.1213L239.058 73.9464L248.135 64.877C247.939 64.7314 247.735 64.6002 247.538 64.4618L238.555 73.4438L238.38 73.6186L238.205 73.7935L188.133 123.861L187.958 124.036L187.783 124.21L137.71 174.278L137.536 174.453L137.361 174.628L103.462 208.523L103.877 209.12L137.863 175.137L138.038 174.955Z" fill="#FFFFE0"/>
<path opacity="0.28" d="M127.955 164.873L128.13 164.699L178.203 114.631L178.377 114.456L178.552 114.282L228.625 64.2141L228.8 64.0393L228.975 63.8645L235.531 57.3083L234.854 56.9732L228.45 63.3837L228.275 63.5585L228.1 63.7334L178.028 113.779L177.853 113.954L177.671 114.129L127.598 164.196L127.423 164.371L127.249 164.546L95.9214 195.87C96.0307 196.095 96.1399 196.321 96.2565 196.547L127.759 165.048L127.955 164.873Z" fill="#FFFFE0"/>
<path opacity="0.28" d="M117.865 154.791L118.04 154.617L168.113 104.549L168.295 104.374L168.47 104.2L218.542 54.1322L218.717 53.9574L218.892 53.7825L221.332 51.3349L220.604 51.0872L218.418 53.2726L218.243 53.4474L218.069 53.6223L167.96 103.69L167.785 103.872L167.61 104.047L117.559 154.114L117.384 154.289L117.21 154.464L90.1079 181.562C90.188 181.81 90.2755 182.065 90.3556 182.291L117.712 154.937L117.865 154.791Z" fill="#FFFFE0"/>
<path opacity="0.28" d="M143.058 180.004L143.233 179.821L193.327 129.754L193.502 129.579L193.677 129.404L243.749 79.3371L243.924 79.1622L244.099 78.9874L253.869 69.2187L253.315 68.767L243.596 78.4848L243.422 78.6596L243.247 78.8344L193.174 128.873L192.999 129.047L192.825 129.222L142.752 179.29L142.577 179.465L142.402 179.639L107.775 214.263L108.219 214.824L142.905 180.149L143.058 180.004Z" fill="#FFFFE0"/>
<path opacity="0.28" d="M132.997 169.914L133.172 169.74L183.244 119.672L183.419 119.497L183.594 119.322L233.666 69.2551L233.841 69.0803L234.016 68.9055L242.03 60.8924L241.389 60.5135L233.513 68.4101L233.338 68.5849L233.164 68.7598L183.128 118.82L182.953 118.995L182.778 119.17L132.705 169.237L132.523 169.412L132.348 169.587L99.564 202.367C99.6879 202.579 99.8117 202.797 99.9429 203.001L132.873 170.075L132.997 169.914Z" fill="#FFFFE0"/>
<path opacity="0.28" d="M122.914 159.832L123.089 159.658L173.161 109.59L173.336 109.415L173.511 109.241L223.583 59.1732L223.758 58.9984L223.933 58.8235L228.669 54.0885L227.94 53.7971L223.423 58.3136L223.248 58.4884L223.073 58.6705L173.001 108.738L172.826 108.913L172.651 109.088L122.579 159.155L122.404 159.33L122.229 159.505L92.7886 188.935C92.8833 189.175 92.9781 189.415 93.0801 189.663L122.724 160.022L122.914 159.832Z" fill="#FFFFE0"/>
<path opacity="0.28" d="M112.823 149.75L112.998 149.576L163.071 99.5083L163.246 99.3334L163.428 99.1586L213.5 49.0912H213.457L212.684 48.9018L162.918 98.6487L162.743 98.8235L162.568 98.9983L112.496 149.073L112.321 149.248L112.146 149.423L87.871 173.688C87.9365 173.965 88.0021 174.234 88.075 174.504L112.649 149.925L112.823 149.75Z" fill="#FFFFE0"/>
</g>
<path d="M204.167 125.824V485.191H563.57V125.824H204.167ZM221.273 485.008H204.349V468.086H221.273V485.008ZM221.273 467.904H204.349V450.982H221.273V467.904ZM221.273 450.8H204.349V433.914H221.273V450.8ZM221.273 433.695H204.349V416.773H221.273V433.695ZM221.273 416.591H204.349V399.676H221.273V416.591ZM221.273 399.487H204.349V382.564H221.273V399.487ZM221.273 382.382H204.349V365.438H221.273V382.382ZM221.273 365.278H204.349V348.356H221.273V365.278ZM221.273 348.174H204.349V331.259H221.273V348.174ZM221.273 331.077H204.349V314.154H221.273V331.077ZM221.273 313.972H204.349V297.05H221.273V313.972ZM221.273 296.868H204.349V279.946H221.273V296.868ZM221.273 279.764H204.349V262.841H221.273V279.764ZM221.273 262.659H204.349V245.737H221.273V262.659ZM221.273 245.555H204.349V228.633H221.273V245.555ZM221.273 228.45H204.349V211.528H221.273V228.45ZM221.273 211.346H204.349V194.424H221.273V211.346ZM221.273 194.242H204.349V177.32H221.273V194.242ZM221.273 177.137H204.349V160.215H221.273V177.137ZM221.273 160.033H204.349V143.111H221.273V160.033ZM221.273 142.929H204.349V126.007H221.273V142.929ZM238.38 485.008H221.456V468.086H238.38V485.008ZM238.38 467.904H221.456V450.982H238.38V467.904ZM238.38 450.8H221.456V433.914H238.38V450.8ZM238.38 433.695H221.456V416.773H238.38V433.695ZM238.38 416.591H221.456V399.676H238.38V416.591ZM238.38 399.487H221.456V382.564H238.38V399.487ZM238.38 382.382H221.456V365.438H238.38V382.382ZM238.38 365.278H221.456V348.356H238.38V365.278ZM238.38 348.174H221.456V331.259H238.38V348.174ZM238.38 331.077H221.456V314.154H238.38V331.077ZM238.38 313.972H221.456V297.05H238.38V313.972ZM238.38 296.868H221.456V279.946H238.38V296.868ZM238.38 279.764H221.456V262.841H238.38V279.764ZM238.38 262.659H221.456V245.737H238.38V262.659ZM238.38 245.555H221.456V228.633H238.38V245.555ZM238.38 228.45H221.456V211.528H238.38V228.45ZM238.38 211.346H221.456V194.424H238.38V211.346ZM238.38 194.242H221.456V177.32H238.38V194.242ZM238.38 177.137H221.456V160.215H238.38V177.137ZM238.38 160.033H221.456V143.111H238.38V160.033ZM238.38 142.929H221.456V126.007H238.38V142.929ZM255.486 485.008H238.562V468.086H255.486V485.008ZM255.486 467.904H238.562V450.982H255.486V467.904ZM255.486 450.8H238.562V433.914H255.486V450.8ZM255.486 433.695H238.562V416.773H255.486V433.695ZM255.486 416.591H238.562V399.676H255.486V416.591ZM255.486 399.487H238.562V382.564H255.486V399.487ZM255.486 382.382H238.562V365.438H255.486V382.382ZM255.486 365.278H238.562V348.356H255.486V365.278ZM255.486 348.174H238.562V331.259H255.486V348.174ZM255.486 331.077H238.562V314.154H255.486V331.077ZM255.486 313.972H238.562V297.05H255.486V313.972ZM255.486 296.868H238.562V279.946H255.486V296.868ZM255.486 279.764H238.562V262.841H255.486V279.764ZM255.486 262.659H238.562V245.737H255.486V262.659ZM255.486 245.555H238.562V228.633H255.486V245.555ZM255.486 228.45H238.562V211.528H255.486V228.45ZM255.486 211.346H238.562V194.424H255.486V211.346ZM255.486 194.242H238.562V177.32H255.486V194.242ZM255.486 177.137H238.562V160.215H255.486V177.137ZM255.486 160.033H238.562V143.111H255.486V160.033ZM255.486 142.929H238.562V126.007H255.486V142.929ZM272.592 485.008H255.668V468.086H272.592V485.008ZM272.592 467.904H255.668V450.982H272.592V467.904ZM272.592 450.8H255.668V433.914H272.592V450.8ZM272.592 433.695H255.668V416.773H272.592V433.695ZM272.592 416.591H255.668V399.676H272.592V416.591ZM272.592 399.487H255.668V382.564H272.592V399.487ZM272.592 382.382H255.668V365.438H272.592V382.382ZM272.592 365.278H255.668V348.356H272.592V365.278ZM272.592 348.174H255.668V331.259H272.592V348.174ZM272.592 331.077H255.668V314.154H272.592V331.077ZM272.592 313.972H255.668V297.05H272.592V313.972ZM272.592 296.868H255.668V279.946H272.592V296.868ZM272.592 279.764H255.668V262.841H272.592V279.764ZM272.592 262.659H255.668V245.737H272.592V262.659ZM272.592 245.555H255.668V228.633H272.592V245.555ZM272.592 228.45H255.668V211.528H272.592V228.45ZM272.592 211.346H255.668V194.424H272.592V211.346ZM272.592 194.242H255.668V177.32H272.592V194.242ZM272.592 177.137H255.668V160.215H272.592V177.137ZM272.592 160.033H255.668V143.111H272.592V160.033ZM272.592 142.929H255.668V126.007H272.592V142.929ZM289.698 485.008H272.774V468.086H289.698V485.008ZM289.698 467.904H272.774V450.982H289.698V467.904ZM289.698 450.8H272.774V433.914H289.698V450.8ZM289.698 433.695H272.774V416.773H289.698V433.695ZM289.698 416.591H272.774V399.676H289.698V416.591ZM289.698 399.487H272.774V382.564H289.698V399.487ZM289.698 382.382H272.774V365.438H289.698V382.382ZM289.698 365.278H272.774V348.356H289.698V365.278ZM289.698 348.174H272.774V331.259H289.698V348.174ZM289.698 331.077H272.774V314.154H289.698V331.077ZM289.698 313.972H272.774V297.05H289.698V313.972ZM289.698 296.868H272.774V279.946H289.698V296.868ZM289.698 279.764H272.774V262.841H289.698V279.764ZM289.698 262.659H272.774V245.737H289.698V262.659ZM289.698 245.555H272.774V228.633H289.698V245.555ZM289.698 228.45H272.774V211.528H289.698V228.45ZM289.698 211.346H272.774V194.424H289.698V211.346ZM289.698 194.242H272.774V177.32H289.698V194.242ZM289.698 177.137H272.774V160.215H289.698V177.137ZM289.698 160.033H272.774V143.111H289.698V160.033ZM289.698 142.929H272.774V126.007H289.698V142.929ZM306.804 485.008H289.88V468.086H306.804V485.008ZM306.804 467.904H289.88V450.982H306.804V467.904ZM306.804 450.8H289.88V433.914H306.804V450.8ZM306.804 433.695H289.88V416.773H306.804V433.695ZM306.804 416.591H289.88V399.676H306.804V416.591ZM306.804 399.487H289.88V382.564H306.804V399.487ZM306.804 382.382H289.88V365.438H306.804V382.382ZM306.804 365.278H289.88V348.356H306.804V365.278ZM306.804 348.174H289.88V331.259H306.804V348.174ZM306.804 331.077H289.88V314.154H306.804V331.077ZM306.804 313.972H289.88V297.05H306.804V313.972ZM306.804 296.868H289.88V279.946H306.804V296.868ZM306.804 279.764H289.88V262.841H306.804V279.764ZM306.804 262.659H289.88V245.737H306.804V262.659ZM306.804 245.555H289.88V228.633H306.804V245.555ZM306.804 228.45H289.88V211.528H306.804V228.45ZM306.804 211.346H289.88V194.424H306.804V211.346ZM306.804 194.242H289.88V177.32H306.804V194.242ZM306.804 177.137H289.88V160.215H306.804V177.137ZM306.804 160.033H289.88V143.111H306.804V160.033ZM306.804 142.929H289.88V126.007H306.804V142.929ZM323.91 485.008H306.979V468.086H323.903L323.91 485.008ZM323.91 467.904H306.979V450.982H323.903L323.91 467.904ZM323.91 450.8H306.979V433.914H323.903L323.91 450.8ZM323.91 433.695H306.979V416.773H323.903L323.91 433.695ZM323.91 416.591H306.979V399.676H323.903L323.91 416.591ZM323.91 399.487H306.979V382.564H323.903L323.91 399.487ZM323.91 382.382H306.979V365.438H323.903L323.91 382.382ZM323.91 365.278H306.979V348.356H323.903L323.91 365.278ZM323.91 348.174H306.979V331.259H323.903L323.91 348.174ZM323.91 331.077H306.979V314.154H323.903L323.91 331.077ZM323.91 313.972H306.979V297.05H323.903L323.91 313.972ZM323.91 296.868H306.979V279.946H323.903L323.91 296.868ZM323.91 279.764H306.979V262.841H323.903L323.91 279.764ZM323.91 262.659H306.979V245.737H323.903L323.91 262.659ZM323.91 245.555H306.979V228.633H323.903L323.91 245.555ZM323.91 228.45H306.979V211.528H323.903L323.91 228.45ZM323.91 211.346H306.979V194.424H323.903L323.91 211.346ZM323.91 194.242H306.979V177.32H323.903L323.91 194.242ZM323.91 177.137H306.979V160.215H323.903L323.91 177.137ZM323.91 160.033H306.979V143.111H323.903L323.91 160.033ZM323.91 142.929H306.979V126.007H323.903L323.91 142.929ZM341.016 485.008H324.092V468.086H341.016V485.008ZM341.016 467.904H324.092V450.982H341.016V467.904ZM341.016 450.8H324.092V433.914H341.016V450.8ZM341.016 433.695H324.092V416.773H341.016V433.695ZM341.016 416.591H324.092V399.676H341.016V416.591ZM341.016 399.487H324.092V382.564H341.016V399.487ZM341.016 382.382H324.092V365.438H341.016V382.382ZM341.016 365.278H324.092V348.356H341.016V365.278ZM341.016 348.174H324.092V331.259H341.016V348.174ZM341.016 331.077H324.092V314.154H341.016V331.077ZM341.016 313.972H324.092V297.05H341.016V313.972ZM341.016 296.868H324.092V279.946H341.016V296.868ZM341.016 279.764H324.092V262.841H341.016V279.764ZM341.016 262.659H324.092V245.737H341.016V262.659ZM341.016 245.555H324.092V228.633H341.016V245.555ZM341.016 228.45H324.092V211.528H341.016V228.45ZM341.016 211.346H324.092V194.424H341.016V211.346ZM341.016 194.242H324.092V177.32H341.016V194.242ZM341.016 177.137H324.092V160.215H341.016V177.137ZM341.016 160.033H324.092V143.111H341.016V160.033ZM341.016 142.929H324.092V126.007H341.016V142.929ZM358.115 485.008H341.22V468.086H358.137L358.115 485.008ZM358.115 467.904H341.22V450.982H358.137L358.115 467.904ZM358.115 450.8H341.22V433.914H358.137L358.115 450.8ZM358.115 433.695H341.22V416.773H358.137L358.115 433.695ZM358.115 416.591H341.22V399.676H358.137L358.115 416.591ZM358.115 399.487H341.22V382.564H358.137L358.115 399.487ZM358.115 382.382H341.22V365.438H358.137L358.115 382.382ZM358.115 365.278H341.22V348.356H358.137L358.115 365.278ZM358.115 348.174H341.22V331.259H358.137L358.115 348.174ZM358.115 331.077H341.22V314.154H358.137L358.115 331.077ZM358.115 313.972H341.22V297.05H358.137L358.115 313.972ZM358.115 296.868H341.22V279.946H358.137L358.115 296.868ZM358.115 279.764H341.22V262.841H358.137L358.115 279.764ZM358.115 262.659H341.22V245.737H358.137L358.115 262.659ZM358.115 245.555H341.22V228.633H358.137L358.115 245.555ZM358.115 228.45H341.22V211.528H358.137L358.115 228.45ZM358.115 211.346H341.22V194.424H358.137L358.115 211.346ZM358.115 194.242H341.22V177.32H358.137L358.115 194.242ZM358.115 177.137H341.22V160.215H358.137L358.115 177.137ZM358.115 160.033H341.22V143.111H358.137L358.115 160.033ZM358.115 142.929H341.22V126.007H358.137L358.115 142.929ZM375.221 485.008H358.297V468.086H375.221V485.008ZM375.221 467.904H358.297V450.982H375.221V467.904ZM375.221 450.8H358.297V433.914H375.221V450.8ZM375.221 433.695H358.297V416.773H375.221V433.695ZM375.221 416.591H358.297V399.676H375.221V416.591ZM375.221 399.487H358.297V382.564H375.221V399.487ZM375.221 382.382H358.297V365.438H375.221V382.382ZM375.221 365.278H358.297V348.356H375.221V365.278ZM375.221 348.174H358.297V331.259H375.221V348.174ZM375.221 331.077H358.297V314.154H375.221V331.077ZM375.221 313.972H358.297V297.05H375.221V313.972ZM375.221 296.868H358.297V279.946H375.221V296.868ZM375.221 279.764H358.297V262.841H375.221V279.764ZM375.221 262.659H358.297V245.737H375.221V262.659ZM375.221 245.555H358.297V228.633H375.221V245.555ZM375.221 228.45H358.297V211.528H375.221V228.45ZM375.221 211.346H358.297V194.424H375.221V211.346ZM375.221 194.242H358.297V177.32H375.221V194.242ZM375.221 177.137H358.297V160.215H375.221V177.137ZM375.221 160.033H358.297V143.111H375.221V160.033ZM375.221 142.929H358.297V126.007H375.221V142.929ZM392.327 485.008H375.403V468.086H392.327V485.008ZM392.327 467.904H375.403V450.982H392.327V467.904ZM392.327 450.8H375.403V433.914H392.327V450.8ZM392.327 433.695H375.403V416.773H392.327V433.695ZM392.327 416.591H375.403V399.676H392.327V416.591ZM392.327 399.487H375.403V382.564H392.327V399.487ZM392.327 382.382H375.403V365.438H392.327V382.382ZM392.327 365.278H375.403V348.356H392.327V365.278ZM392.327 348.174H375.403V331.259H392.327V348.174ZM392.327 331.077H375.403V314.154H392.327V331.077ZM392.327 313.972H375.403V297.05H392.327V313.972ZM392.327 296.868H375.403V279.946H392.327V296.868ZM392.327 279.764H375.403V262.841H392.327V279.764ZM392.327 262.659H375.403V245.737H392.327V262.659ZM392.327 245.555H375.403V228.633H392.327V245.555ZM392.327 228.45H375.403V211.528H392.327V228.45ZM392.327 211.346H375.403V194.424H392.327V211.346ZM392.327 194.242H375.403V177.32H392.327V194.242ZM392.327 177.137H375.403V160.215H392.327V177.137ZM392.327 160.033H375.403V143.111H392.327V160.033ZM392.327 142.929H375.403V126.007H392.327V142.929ZM409.433 485.008H392.509V468.086H409.433V485.008ZM409.433 467.904H392.509V450.982H409.433V467.904ZM409.433 450.8H392.509V433.914H409.433V450.8ZM409.433 433.695H392.509V416.773H409.433V433.695ZM409.433 416.591H392.509V399.676H409.433V416.591ZM409.433 399.487H392.509V382.564H409.433V399.487ZM409.433 382.382H392.509V365.438H409.433V382.382ZM409.433 365.278H392.509V348.356H409.433V365.278ZM409.433 348.174H392.509V331.259H409.433V348.174ZM409.433 331.077H392.509V314.154H409.433V331.077ZM409.433 313.972H392.509V297.05H409.433V313.972ZM409.433 296.868H392.509V279.946H409.433V296.868ZM409.433 279.764H392.509V262.841H409.433V279.764ZM409.433 262.659H392.509V245.737H409.433V262.659ZM409.433 245.555H392.509V228.633H409.433V245.555ZM409.433 228.45H392.509V211.528H409.433V228.45ZM409.433 211.346H392.509V194.424H409.433V211.346ZM409.433 194.242H392.509V177.32H409.433V194.242ZM409.433 177.137H392.509V160.215H409.433V177.137ZM409.433 160.033H392.509V143.111H409.433V160.033ZM409.433 142.929H392.509V126.007H409.433V142.929ZM426.539 485.008H409.615V468.086H426.539V485.008ZM426.539 467.904H409.615V450.982H426.539V467.904ZM426.539 450.8H409.615V433.914H426.539V450.8ZM426.539 433.695H409.615V416.773H426.539V433.695ZM426.539 416.591H409.615V399.676H426.539V416.591ZM426.539 399.487H409.615V382.564H426.539V399.487ZM426.539 382.382H409.615V365.438H426.539V382.382ZM426.539 365.278H409.615V348.356H426.539V365.278ZM426.539 348.174H409.615V331.259H426.539V348.174ZM426.539 331.077H409.615V314.154H426.539V331.077ZM426.539 313.972H409.615V297.05H426.539V313.972ZM426.539 296.868H409.615V279.946H426.539V296.868ZM426.539 279.764H409.615V262.841H426.539V279.764ZM426.539 262.659H409.615V245.737H426.539V262.659ZM426.539 245.555H409.615V228.633H426.539V245.555ZM426.539 228.45H409.615V211.528H426.539V228.45ZM426.539 211.346H409.615V194.424H426.539V211.346ZM426.539 194.242H409.615V177.32H426.539V194.242ZM426.539 177.137H409.615V160.215H426.539V177.137ZM426.539 160.033H409.615V143.111H426.539V160.033ZM426.539 142.929H409.615V126.007H426.539V142.929ZM443.646 485.008H426.721V468.086H443.646V485.008ZM443.646 467.904H426.721V450.982H443.646V467.904ZM443.646 450.8H426.721V433.914H443.646V450.8ZM443.646 433.695H426.721V416.773H443.646V433.695ZM443.646 416.591H426.721V399.676H443.646V416.591ZM443.646 399.487H426.721V382.564H443.646V399.487ZM443.646 382.382H426.721V365.438H443.646V382.382ZM443.646 365.278H426.721V348.356H443.646V365.278ZM443.646 348.174H426.721V331.259H443.646V348.174ZM443.646 331.077H426.721V314.154H443.646V331.077ZM443.646 313.972H426.721V297.05H443.646V313.972ZM443.646 296.868H426.721V279.946H443.646V296.868ZM443.646 279.764H426.721V262.841H443.646V279.764ZM443.646 262.659H426.721V245.737H443.646V262.659ZM443.646 245.555H426.721V228.633H443.646V245.555ZM443.646 228.45H426.721V211.528H443.646V228.45ZM443.646 211.346H426.721V194.424H443.646V211.346ZM443.646 194.242H426.721V177.32H443.646V194.242ZM443.646 177.137H426.721V160.215H443.646V177.137ZM443.646 160.033H426.721V143.111H443.646V160.033ZM443.646 142.929H426.721V126.007H443.646V142.929ZM460.752 485.008H443.828V468.086H460.752V485.008ZM460.752 467.904H443.828V450.982H460.752V467.904ZM460.752 450.8H443.828V433.914H460.752V450.8ZM460.752 433.695H443.828V416.773H460.752V433.695ZM460.752 416.591H443.828V399.676H460.752V416.591ZM460.752 399.487H443.828V382.564H460.752V399.487ZM460.752 382.382H443.828V365.438H460.752V382.382ZM460.752 365.278H443.828V348.356H460.752V365.278ZM460.752 348.174H443.828V331.259H460.752V348.174ZM460.752 331.077H443.828V314.154H460.752V331.077ZM460.752 313.972H443.828V297.05H460.752V313.972ZM460.752 296.868H443.828V279.946H460.752V296.868ZM460.752 279.764H443.828V262.841H460.752V279.764ZM460.752 262.659H443.828V245.737H460.752V262.659ZM460.752 245.555H443.828V228.633H460.752V245.555ZM460.752 228.45H443.828V211.528H460.752V228.45ZM460.752 211.346H443.828V194.424H460.752V211.346ZM460.752 194.242H443.828V177.32H460.752V194.242ZM460.752 177.137H443.828V160.215H460.752V177.137ZM460.752 160.033H443.828V143.111H460.752V160.033ZM460.752 142.929H443.828V126.007H460.752V142.929ZM477.858 485.008H460.934V468.086H477.858V485.008ZM477.858 467.904H460.934V450.982H477.858V467.904ZM477.858 450.8H460.934V433.914H477.858V450.8ZM477.858 433.695H460.934V416.773H477.858V433.695ZM477.858 416.591H460.934V399.676H477.858V416.591ZM477.858 399.487H460.934V382.564H477.858V399.487ZM477.858 382.382H460.934V365.438H477.858V382.382ZM477.858 365.278H460.934V348.356H477.858V365.278ZM477.858 348.174H460.934V331.259H477.858V348.174ZM477.858 331.077H460.934V314.154H477.858V331.077ZM477.858 313.972H460.934V297.05H477.858V313.972ZM477.858 296.868H460.934V279.946H477.858V296.868ZM477.858 279.764H460.934V262.841H477.858V279.764ZM477.858 262.659H460.934V245.737H477.858V262.659ZM477.858 245.555H460.934V228.633H477.858V245.555ZM477.858 228.45H460.934V211.528H477.858V228.45ZM477.858 211.346H460.934V194.424H477.858V211.346ZM477.858 194.242H460.934V177.32H477.858V194.242ZM477.858 177.137H460.934V160.215H477.858V177.137ZM477.858 160.033H460.934V143.111H477.858V160.033ZM477.858 142.929H460.934V126.007H477.858V142.929ZM494.942 485.008H478.04V468.086H494.942V485.008ZM494.942 467.904H478.04V450.982H494.942V467.904ZM494.942 450.8H478.04V433.914H494.942V450.8ZM494.942 433.695H478.04V416.773H494.942V433.695ZM494.942 416.591H478.04V399.676H494.942V416.591ZM494.942 399.487H478.04V382.564H494.942V399.487ZM494.942 382.382H478.04V365.438H494.942V382.382ZM494.942 365.278H478.04V348.356H494.942V365.278ZM494.942 348.174H478.04V331.259H494.942V348.174ZM494.942 331.077H478.04V314.154H494.942V331.077ZM494.942 313.972H478.04V297.05H494.942V313.972ZM494.942 296.868H478.04V279.946H494.942V296.868ZM494.942 279.764H478.04V262.841H494.942V279.764ZM494.942 262.659H478.04V245.737H494.942V262.659ZM494.942 245.555H478.04V228.633H494.942V245.555ZM494.942 228.487H478.04V211.528H494.942V228.487ZM494.942 211.383H478.04V194.424H494.942V211.383ZM494.942 194.249H478.04V177.32H494.942V194.249ZM494.942 177.145H478.04V160.215H494.942V177.145ZM494.942 160.011H478.04V143.111H494.942V160.011ZM494.942 142.907H478.04V126.007H494.942V142.907ZM512.048 484.986H495.146V468.086H512.07L512.048 484.986ZM512.048 467.882H495.146V450.982H512.07L512.048 467.882ZM512.048 450.778H495.146V433.914H512.07L512.048 450.778ZM512.048 433.673H495.146V416.773H512.07L512.048 433.673ZM512.048 416.569H495.146V399.676H512.07L512.048 416.569ZM512.048 399.465H495.146V382.564H512.07L512.048 399.465ZM512.048 382.36H495.146V365.438H512.07L512.048 382.36ZM512.048 365.256H495.146V348.356H512.07L512.048 365.256ZM512.048 348.152H495.146V331.259H512.07L512.048 348.152ZM512.048 331.055H495.146V314.154H512.07L512.048 331.055ZM512.048 313.95H495.146V297.05H512.07L512.048 313.95ZM512.048 296.846H495.146V279.946H512.07L512.048 296.846ZM512.048 279.742H495.146V262.841H512.07L512.048 279.742ZM512.048 262.637H495.146V245.737H512.07L512.048 262.637ZM512.048 245.533H495.146V228.633H512.07L512.048 245.533ZM512.048 228.429H495.146V211.528H512.07L512.048 228.429ZM512.048 211.324H495.146V194.424H512.07L512.048 211.324ZM512.048 194.22H495.146V177.32H512.07L512.048 194.22ZM512.048 177.116H495.146V160.215H512.07L512.048 177.116ZM512.048 160.011H495.146V143.111H512.07L512.048 160.011ZM512.048 142.907H495.146V126.007H512.07L512.048 142.907ZM529.183 485.008H512.252V468.086H529.183V485.008ZM529.183 467.904H512.252V450.982H529.183V467.904ZM529.183 450.8H512.252V433.914H529.183V450.8ZM529.183 433.695H512.252V416.773H529.183V433.695ZM529.183 416.591H512.252V399.676H529.183V416.591ZM529.183 399.487H512.252V382.564H529.183V399.487ZM529.183 382.382H512.252V365.438H529.183V382.382ZM529.183 365.278H512.252V348.356H529.183V365.278ZM529.183 348.174H512.252V331.259H529.183V348.174ZM529.183 331.077H512.252V314.154H529.183V331.077ZM529.183 313.972H512.252V297.05H529.183V313.972ZM529.183 296.868H512.252V279.946H529.183V296.868ZM529.183 279.764H512.252V262.841H529.183V279.764ZM529.183 262.659H512.252V245.737H529.183V262.659ZM529.183 245.555H512.252V228.633H529.183V245.555ZM529.183 228.487H512.252V211.528H529.183V228.487ZM529.183 211.383H512.252V194.424H529.183V211.383ZM529.183 194.249H512.252V177.32H529.183V194.249ZM529.183 177.145H512.252V160.215H529.183V177.145ZM529.183 160.011H512.252V143.111H529.183V160.011ZM529.183 142.907H512.252V126.007H529.183V142.907ZM546.289 484.986H529.358V468.086H546.282L546.289 484.986ZM546.289 467.882H529.358V450.982H546.282L546.289 467.882ZM546.289 450.778H529.358V433.914H546.282L546.289 450.778ZM546.289 433.673H529.358V416.773H546.282L546.289 433.673ZM546.289 416.569H529.358V399.676H546.282L546.289 416.569ZM546.289 399.465H529.358V382.564H546.282L546.289 399.465ZM546.289 382.36H529.358V365.438H546.282L546.289 382.36ZM546.289 365.256H529.358V348.356H546.282L546.289 365.256ZM546.289 348.152H529.358V331.259H546.282L546.289 348.152ZM546.289 331.055H529.358V314.154H546.282L546.289 331.055ZM546.289 313.95H529.358V297.05H546.282L546.289 313.95ZM546.289 296.846H529.358V279.946H546.282L546.289 296.846ZM546.289 279.742H529.358V262.841H546.282L546.289 279.742ZM546.289 262.637H529.358V245.737H546.282L546.289 262.637ZM546.289 245.533H529.358V228.633H546.282L546.289 245.533ZM546.289 228.429H529.358V211.528H546.282L546.289 228.429ZM546.289 211.324H529.358V194.424H546.282L546.289 211.324ZM546.289 194.22H529.358V177.32H546.282L546.289 194.22ZM546.289 177.116H529.358V160.215H546.282L546.289 177.116ZM546.289 160.011H529.358V143.111H546.282L546.289 160.011ZM546.289 142.907H529.358V126.007H546.282L546.289 142.907ZM563.425 485.008H546.464V468.086H563.425V485.008ZM563.425 467.904H546.464V450.982H563.425V467.904ZM563.425 450.8H546.464V433.914H563.425V450.8ZM563.425 433.695H546.464V416.773H563.425V433.695ZM563.425 416.591H546.464V399.676H563.425V416.591ZM563.425 399.487H546.464V382.564H563.425V399.487ZM563.425 382.382H546.464V365.438H563.425V382.382ZM563.425 365.278H546.464V348.356H563.425V365.278ZM563.425 348.174H546.464V331.259H563.425V348.174ZM563.425 331.077H546.464V314.154H563.425V331.077ZM563.425 313.972H546.464V297.05H563.425V313.972ZM563.425 296.868H546.464V279.946H563.425V296.868ZM563.425 279.764H546.464V262.841H563.425V279.764ZM563.425 262.659H546.464V245.737H563.425V262.659ZM563.425 245.555H546.464V228.633H563.425V245.555ZM563.425 228.487H546.464V211.528H563.425V228.487ZM563.425 211.383H546.464V194.424H563.425V211.383ZM563.425 194.249H546.464V177.32H563.425V194.249ZM563.425 177.145H546.464V160.215H563.425V177.145ZM563.425 160.011H546.464V143.111H563.425V160.011ZM563.425 142.907H546.464V126.007H563.425V142.907Z" fill="url(#paint0_radial_59_846)"/>
<path d="M395.454 428.716C434.836 389.338 434.836 325.493 395.454 286.115C356.072 246.737 292.221 246.737 252.838 286.115C213.456 325.493 213.456 389.337 252.838 428.716C292.221 468.094 356.072 468.094 395.454 428.716Z" stroke="#FFFFE0" stroke-width="0.25" stroke-miterlimit="10"/>
<path d="M622.496 516.62C649.807 489.311 649.807 445.036 622.496 417.728C595.185 390.42 550.905 390.42 523.594 417.728C496.283 445.036 496.283 489.311 523.594 516.62C550.905 543.928 595.185 543.928 622.496 516.62Z" stroke="#FFFFE0" stroke-width="0.25" stroke-miterlimit="10"/>
<path d="M557.87 133.82C612.561 188.455 612.605 277.066 557.972 331.751C503.339 386.437 414.719 386.481 360.028 331.853C305.336 277.226 216.717 277.27 162.083 331.955C107.45 386.641 107.494 475.273 162.178 529.908" stroke="#FFFFE0" stroke-width="0.25" stroke-miterlimit="10"/>
<path d="M655.277 214.227C694.659 174.849 694.659 111.004 655.277 71.6261C615.895 32.248 552.044 32.248 512.662 71.6261C473.279 111.004 473.279 174.849 512.662 214.227C552.044 253.605 615.895 253.605 655.277 214.227Z" stroke="#FFFFE0" stroke-width="0.25" stroke-miterlimit="10"/>
<path d="M214.245 216.919C253.627 177.541 253.627 113.697 214.245 74.3185C174.863 34.9404 111.012 34.9404 71.6296 74.3186C32.2474 113.697 32.2474 177.541 71.6296 216.919C111.012 256.298 174.863 256.298 214.245 216.919Z" stroke="#FFFFE0" stroke-width="0.25" stroke-miterlimit="10"/>
<g opacity="0.28">
<path opacity="0.28" d="M250.645 374.785L250.477 374.952L250.303 375.127L201.068 424.357L200.9 424.524L200.725 424.699L151.491 473.929L151.316 474.104L151.148 474.271L116.688 508.728L117.206 509.201L151.644 474.766L151.811 474.599L151.986 474.424L201.221 425.231L201.396 425.063L201.563 424.889L250.798 375.659L250.973 375.484L251.14 375.316L261.085 365.373L260.604 364.863L250.645 374.785Z" fill="#FFFFE0"/>
<path opacity="0.28" d="M255.431 379.913L255.264 380.081L206.029 429.31L205.854 429.485L205.679 429.66L156.445 478.882L156.277 479.057L156.102 479.232L121.956 513.375L122.502 513.819L156.598 479.727L156.772 479.552L156.947 479.385L206.175 430.155L206.35 429.98L206.524 429.806L255.759 380.583L255.927 380.408L256.102 380.234L265.704 370.632L265.259 370.086L255.606 379.738L255.431 379.913Z" fill="#FFFFE0"/>
<path opacity="0.28" d="M275.262 399.735L275.095 399.909L225.86 449.132L225.685 449.307L225.51 449.481L176.283 498.711L176.108 498.879L175.933 499.053L146.602 528.381L147.331 528.673L176.472 499.534L176.647 499.359L176.822 499.192L226.013 449.999L226.18 449.824L226.355 449.656L275.612 400.412L275.779 400.237L275.954 400.062L280.588 395.429C280.493 395.196 280.391 394.97 280.289 394.737L275.459 399.567L275.262 399.735Z" fill="#FFFFE0"/>
<path opacity="0.28" d="M265.347 389.828L265.179 389.995L215.945 439.225L215.77 439.4L215.595 439.574L166.331 488.804L166.164 488.972L165.989 489.146L133.547 521.629L134.166 522.007L166.528 489.642L166.703 489.467L166.877 489.299L216.112 440.07L216.28 439.895L216.455 439.72L265.689 390.498L265.857 390.323L266.032 390.148L273.9 382.281L273.528 381.661L265.514 389.675L265.347 389.828Z" fill="#FFFFE0"/>
<path opacity="0.28" d="M280.224 404.695L280.049 404.87L230.814 454.1L230.646 454.275L230.472 454.442L181.237 503.672L181.062 503.847L180.895 504.014L153.771 531.142L154.5 531.39L181.375 504.517L181.55 504.342L181.718 504.167L230.952 454.938L231.127 454.77L231.295 454.595L280.53 405.366L280.704 405.198L280.879 405.023L283.254 402.641C283.174 402.394 283.094 402.146 283.007 401.913L280.377 404.543L280.224 404.695Z" fill="#FFFFE0"/>
<path opacity="0.28" d="M270.308 394.781L270.133 394.956L220.899 444.171L220.731 444.346L220.556 444.513L171.322 493.743L171.147 493.918L170.979 494.085L139.871 525.191L140.526 525.526L171.475 494.581L171.649 494.413L171.817 494.238L221.052 445.009L221.227 444.841L221.394 444.666L270.629 395.437L270.804 395.262L270.971 395.094L277.426 388.64L277.091 387.985L270.512 394.635L270.308 394.781Z" fill="#FFFFE0"/>
<path opacity="0.28" d="M260.393 384.867L260.218 385.041L210.984 434.271L210.816 434.446L210.641 434.614L161.406 483.843L161.232 484.018L161.064 484.186L127.551 517.695L128.134 518.103L161.545 484.695L161.72 484.528L161.887 484.353L211.122 435.123L211.297 434.956L211.464 434.781L260.699 385.551L260.874 385.384L261.042 385.165L269.952 376.249C269.813 376.06 269.682 375.863 269.544 375.666L260.539 384.67L260.393 384.867Z" fill="#FFFFE0"/>
<path opacity="0.28" d="M285.01 409.831L235.776 459.061L235.601 459.228L235.433 459.403L186.198 508.633L186.024 508.8L185.849 508.975L161.414 533.415L162.208 533.605L186.344 509.471L186.519 509.296L186.694 509.128L235.929 459.899L236.096 459.724L236.271 459.556L285.491 410.334L285.382 409.875C285.382 409.773 285.331 409.671 285.302 409.569L285.185 409.685L285.01 409.831Z" fill="#FFFFE0"/>
<path opacity="0.28" d="M255.432 479.057L255.264 479.232L206.029 528.462L205.855 528.629L205.68 528.804L198.627 535.863L199.749 535.732L206.175 529.299L206.35 529.124L206.525 528.957L255.759 479.727L255.927 479.552L256.102 479.385L287.611 447.872C287.662 447.5 287.699 447.143 287.742 446.75L255.607 478.882L255.432 479.057Z" fill="#FFFFE0"/>
<path opacity="0.28" d="M245.516 469.143L245.348 469.318L196.114 518.547L195.939 518.715L195.764 518.89L178.417 536.234L179.343 536.3L196.259 519.385L196.434 519.21L196.609 519.043L245.844 469.813L246.011 469.638L246.186 469.471L288.187 427.467L288.121 426.549L245.691 468.975L245.516 469.143Z" fill="#FFFFE0"/>
<path opacity="0.28" d="M250.477 474.104L250.302 474.271L201.068 523.501L200.9 523.676L200.725 523.843L188.02 536.548H189.025L201.221 524.36L201.396 524.186L201.563 524.011L250.798 474.766L250.973 474.599L251.14 474.424L288.42 437.156C288.42 436.821 288.42 436.486 288.42 436.151L250.63 473.929L250.477 474.104Z" fill="#FFFFE0"/>
<path opacity="0.28" d="M240.562 464.189L240.387 464.357L191.153 513.586L190.978 513.761L190.81 513.929L169.603 535.134L170.455 535.28L191.306 514.431L191.481 514.257L191.648 514.082L240.883 464.852L241.058 464.684L241.225 464.51L287.167 418.616C287.116 418.332 287.072 418.048 287.021 417.764L240.73 464.051L240.562 464.189Z" fill="#FFFFE0"/>
<path opacity="0.28" d="M265.347 488.972L265.18 489.146L225.394 528.928L227.113 528.199L265.675 489.642L265.843 489.467L266.017 489.299L280.086 475.233C280.326 474.665 280.574 474.089 280.814 473.514L265.515 488.811L265.347 488.972Z" fill="#FFFFE0"/>
<path opacity="0.28" d="M260.393 484.018L260.218 484.186L210.983 533.415L210.816 533.59L210.707 533.699L210.881 533.656L211.158 533.59L212.018 533.379L260.713 484.681L260.888 484.513L261.063 484.339L285.265 460.139C285.375 459.702 285.477 459.265 285.586 458.828L260.561 483.843L260.393 484.018Z" fill="#FFFFE0"/>
<path opacity="0.28" d="M136.942 360.58L137.117 360.405L161.392 336.125L160.044 336.489L136.614 359.909L136.446 360.084L136.272 360.252L88.3775 408.17C88.2536 408.622 88.1297 409.066 88.0132 409.525L136.789 360.754L136.942 360.58Z" fill="#FFFFE0"/>
<path opacity="0.28" d="M110.634 367.056L118.925 358.766C116.003 361.367 113.235 364.134 110.634 367.056Z" fill="#FFFFE0"/>
<path opacity="0.28" d="M131.981 355.619L132.155 355.451L146.34 341.268C145.75 341.523 145.153 341.778 144.57 342.048L131.66 354.956L131.485 355.123L131.318 355.298L93.9143 392.698C93.6448 393.288 93.3898 393.878 93.1275 394.468L131.813 355.794L131.981 355.619Z" fill="#FFFFE0"/>
<path opacity="0.28" d="M255.264 509.966L261.821 503.41C263.657 501.394 265.413 499.306 267.088 497.145L248.97 515.262C251.146 513.577 253.244 511.811 255.264 509.966Z" fill="#FFFFE0"/>
<path opacity="0.28" d="M107.196 429.98L107.363 429.806L156.598 380.583L156.773 380.408L156.948 380.234L202.911 334.275L202.059 334.129L156.445 379.738L156.277 379.913L156.132 380.066L106.868 429.31L106.7 429.485L106.525 429.66L85.9951 450.181C86.0388 450.472 86.0898 450.749 86.1335 451.04L107.021 430.155L107.196 429.98Z" fill="#FFFFE0"/>
<path opacity="0.28" d="M97.2802 420.066L97.4478 419.891L146.661 370.669L146.835 370.494L147.01 370.319L184.333 333H183.306L146.508 369.795L146.34 369.97L146.165 370.137L96.9523 419.403L96.7848 419.578L96.6099 419.753L84.895 431.459C84.895 431.794 84.895 432.137 84.895 432.479L97.1345 420.241L97.2802 420.066Z" fill="#FFFFE0"/>
<path opacity="0.28" d="M102.22 425.027L102.394 424.852L151.629 375.622L151.797 375.448L151.971 375.28L194.016 333.24L193.083 333.182L151.476 374.785L151.301 374.952L151.134 375.127L101.914 424.357L101.739 424.524L101.571 424.699L85.0479 441.257C85.0479 441.57 85.0479 441.884 85.1061 442.19L102.067 425.231L102.22 425.027Z" fill="#FFFFE0"/>
<path opacity="0.28" d="M92.3191 415.112L92.494 414.938L141.729 365.708L141.896 365.533L142.071 365.366L173.617 333.794L172.458 333.954L141.561 364.87L141.386 365.038L141.219 365.213L92.0204 414.442L91.8456 414.61L91.6707 414.785L85.8424 420.612C85.7841 420.991 85.7258 421.377 85.6821 421.763L92.1734 415.273L92.3191 415.112Z" fill="#FFFFE0"/>
<path opacity="0.28" d="M146.857 469.667L147.032 469.5L196.26 420.27L196.435 420.095L196.609 419.92L245.844 370.698L246.012 370.523L246.186 370.348L256.131 360.398L255.614 359.924L245.691 369.846L245.516 370.021L245.349 370.188L196.114 419.403L195.939 419.578L195.764 419.753L146.53 468.982L146.362 469.15L146.187 469.325L111.764 503.738L112.244 504.247L146.661 469.813L146.857 469.667Z" fill="#FFFFE0"/>
<path opacity="0.28" d="M136.942 459.724L137.117 459.556L186.344 410.327L186.519 410.152L186.694 409.977L235.929 360.755L236.096 360.58L236.271 360.398L245.196 351.481L244.605 351.073L235.776 359.902L235.601 360.077L235.433 360.245L186.198 409.474L186.024 409.649L185.849 409.824L136.614 459.054L136.446 459.221L136.272 459.396L102.948 492.723L103.349 493.313L136.767 459.899L136.942 459.724Z" fill="#FFFFE0"/>
<path opacity="0.28" d="M127.026 449.809L127.194 449.642L176.429 400.412L176.603 400.237L176.778 400.062L226.013 350.833L226.181 350.665L226.355 350.49L232.825 344.022L232.162 343.694L225.86 349.995L225.685 350.17L225.51 350.337L176.283 399.567L176.108 399.742L175.933 399.917L126.698 449.139L126.531 449.314L126.356 449.489L95.5607 480.281L95.8885 480.944L126.851 449.984L127.026 449.809Z" fill="#FFFFE0"/>
<path opacity="0.28" d="M117.111 439.895L117.279 439.72L166.514 390.498L166.688 390.323L166.863 390.148L216.098 340.918L216.266 340.751L216.44 340.576L218.845 338.172L218.116 337.932L215.967 340.081L215.792 340.256L215.617 340.423L166.331 389.653L166.164 389.828L165.989 389.995L116.791 439.225L116.623 439.4L116.448 439.574L89.7983 466.214C89.8858 466.469 89.9586 466.717 90.046 466.943L116.944 440.048L117.111 439.895Z" fill="#FFFFE0"/>
<path opacity="0.28" d="M141.896 464.685L142.071 464.51L191.306 415.28L191.48 415.113L191.648 414.938L240.883 365.708L241.057 365.533L241.225 365.366L250.842 355.757L250.288 355.313L240.737 364.87L240.569 365.038L240.395 365.213L191.16 414.442L190.985 414.61L190.817 414.785L141.561 464.014L141.386 464.189L141.218 464.357L107.167 498.405L107.611 498.952L141.714 464.852L141.896 464.685Z" fill="#FFFFE0"/>
<path opacity="0.28" d="M131.981 454.77L132.155 454.595L181.39 405.366L181.565 405.198L181.733 405.023L230.967 355.794L231.142 355.619L231.31 355.451L239.185 347.569L238.566 347.198L230.807 354.956L230.639 355.123L230.443 355.298L181.208 404.528L181.033 404.695L180.866 404.87L131.631 454.1L131.456 454.275L131.289 454.442L99.0361 486.691C99.1599 486.903 99.2765 487.107 99.4076 487.318L131.784 454.938L131.981 454.77Z" fill="#FFFFE0"/>
<path opacity="0.28" d="M122.065 444.856L122.24 444.681L171.475 395.451L171.65 395.276L171.817 395.109L221.052 345.879L221.227 345.704L221.394 345.537L226.05 340.882L225.321 340.591L220.877 345.042L220.71 345.209L220.535 345.384L171.322 394.635L171.147 394.803L170.98 394.978L121.745 444.171L121.57 444.346L121.402 444.513L92.4575 473.47C92.5522 473.703 92.6469 473.936 92.7489 474.198L121.891 445.06L122.065 444.856Z" fill="#FFFFE0"/>
<path opacity="0.28" d="M112.15 434.941L112.325 434.767L161.559 385.537L161.734 385.369L161.902 385.194L211.136 335.965H211.093L210.364 335.783L161.414 384.728L161.239 384.896L161.071 385.071L111.836 434.3L111.662 434.475L111.494 434.643L87.6489 458.478C87.7072 458.748 87.7728 459.01 87.8383 459.279L112.011 435.109L112.15 434.941Z" fill="#FFFFE0"/>
</g>
<path d="M247.466 493.631C289.533 493.631 323.635 459.533 323.635 417.47C323.635 375.408 289.533 341.309 247.466 341.309C205.399 341.309 171.297 375.408 171.297 417.47C171.297 459.533 205.399 493.631 247.466 493.631Z" fill="url(#paint1_radial_59_846)"/>
<path d="M543.151 259.627C591.934 259.627 631.481 220.088 631.481 171.314C631.481 122.539 591.934 83 543.151 83C494.367 83 454.821 122.539 454.821 171.314C454.821 220.088 494.367 259.627 543.151 259.627Z" fill="url(#paint2_radial_59_846)"/>
<path d="M228.821 159C255.33 159 276.821 137.51 276.821 111C276.821 84.4903 255.33 63 228.821 63C202.311 63 180.821 84.4903 180.821 111C180.821 137.51 202.311 159 228.821 159Z" fill="url(#paint3_radial_59_846)"/>
<defs>
<radialGradient id="paint0_radial_59_846" cx="0" cy="0" r="1" gradientUnits="userSpaceOnUse" gradientTransform="translate(383.869 305.507) scale(179.702 179.683)">
<stop stop-color="#FFFFE0"/>
<stop offset="1" stop-color="#FFFFE0" stop-opacity="0"/>
</radialGradient>
<radialGradient id="paint1_radial_59_846" cx="0" cy="0" r="1" gradientUnits="userSpaceOnUse" gradientTransform="translate(289.416 374.325) rotate(122.236) scale(115.475)">
<stop stop-color="#AAFF00"/>
<stop offset="1" stop-color="#00FFE0" stop-opacity="0"/>
</radialGradient>
<radialGradient id="paint2_radial_59_846" cx="0" cy="0" r="1" gradientUnits="userSpaceOnUse" gradientTransform="translate(591.798 121.283) rotate(44.9947) scale(137.961)">
<stop stop-color="#AAFF00"/>
<stop offset="1" stop-color="#00FFE0" stop-opacity="0"/>
</radialGradient>
<radialGradient id="paint3_radial_59_846" cx="0" cy="0" r="1" gradientUnits="userSpaceOnUse" gradientTransform="translate(255.257 83.8077) rotate(94.1349) scale(75.3885 69.4121)">
<stop stop-color="#8CE717"/>
<stop offset="1" stop-color="#00FFE0" stop-opacity="0"/>
</radialGradient>
</defs>
</svg>
