<svg width="728" height="567" viewBox="0 0 728 567" fill="none" xmlns="http://www.w3.org/2000/svg">
<g opacity="0.28">
<path opacity="0.28" d="M660.342 388.2L660.211 388.331L660.08 388.455L623.252 425.352L623.121 425.483L622.99 425.607L586.155 462.438L586.031 462.569L585.9 462.7L560.124 488.437L560.51 488.794L586.271 463.035L586.402 462.904L586.526 462.773L623.361 425.942L623.492 425.818L623.624 425.687L660.451 388.856L660.582 388.732L660.714 388.601L668.152 381.163L667.795 380.777L660.342 388.2Z" fill="#FFFFE0"/>
<path opacity="0.28" d="M663.92 392.068L663.788 392.192L626.961 428.994L626.83 429.125L626.698 429.256L589.863 466.146L589.74 466.277L589.608 466.408L564.059 491.955L564.474 492.283L589.973 466.787L590.104 466.655L590.228 466.524L627.063 429.7L627.194 429.569L627.325 429.438L664.16 392.571L664.291 392.447L664.422 392.316L671.606 385.133C671.489 384.995 671.387 384.856 671.27 384.725L664.051 391.944L663.92 392.068Z" fill="#FFFFE0"/>
<path opacity="0.28" d="M678.76 406.9L678.629 407.031L641.772 443.862L641.641 443.986L641.517 444.117L604.682 480.948L604.551 481.079L604.427 481.203L582.483 503.144L583.001 503.37L604.799 481.574L604.922 481.451L605.054 481.32L641.888 444.488L642.012 444.357L642.144 444.233L678.978 407.402L679.11 407.271L679.233 407.147L682.701 403.68L682.483 403.155L678.84 406.798L678.76 406.9Z" fill="#FFFFE0"/>
<path opacity="0.28" d="M671.336 399.484L671.212 399.615L634.377 436.439L634.246 436.57L634.122 436.701L597.287 473.532L597.156 473.656L597.025 473.787L572.721 498.089L573.187 498.373L597.396 474.159L597.528 474.028L597.659 473.904L634.486 437.073L634.61 436.942L634.741 436.81L671.576 399.987L671.7 399.855L671.831 399.724L677.718 393.838L677.441 393.379L671.46 399.353L671.336 399.484Z" fill="#FFFFE0"/>
<path opacity="0.28" d="M682.468 410.607L682.336 410.738L645.501 447.57L645.378 447.701L645.246 447.825L608.411 484.656L608.28 484.787L608.156 484.911L587.859 505.206L588.42 505.388L608.528 485.282L608.652 485.158L608.783 485.027L645.618 448.196L645.749 448.065L645.873 447.941L682.708 411.11L682.839 410.979L682.963 410.855L684.748 409.07C684.682 408.888 684.624 408.699 684.558 408.517L682.591 410.483L682.468 410.607Z" fill="#FFFFE0"/>
<path opacity="0.28" d="M675.051 403.192L674.92 403.323L638.085 440.154L637.954 440.278L637.83 440.409L600.973 477.24L600.842 477.364L600.718 477.495L577.441 500.762L577.93 501.017L601.083 477.867L601.214 477.735L601.345 477.612L638.18 440.78L638.304 440.649L638.435 440.525L675.284 403.694L675.408 403.563L675.539 403.432L680.369 398.61L680.114 398.122L675.168 403.061L675.051 403.192Z" fill="#FFFFE0"/>
<path opacity="0.28" d="M667.628 395.776L667.504 395.907L630.669 432.731L630.538 432.862L630.407 432.993L593.579 469.825L593.448 469.948L593.317 470.08L568.263 495.139L568.693 495.445L593.689 470.451L593.82 470.32L593.951 470.196L630.779 433.365L630.91 433.234L631.041 433.103L667.876 396.279L668 396.148L668.131 396.017L674.797 389.351L674.491 388.914L667.759 395.645L667.628 395.776Z" fill="#FFFFE0"/>
<path opacity="0.28" d="M686.045 414.425L649.21 451.256L649.087 451.387L648.955 451.511L612.12 488.364L611.997 488.495L611.865 488.626L593.579 506.94L594.177 507.085L612.237 489.027L612.368 488.903L612.492 488.772L649.327 451.941L649.458 451.817L649.582 451.686L686.41 414.862C686.41 414.745 686.359 414.636 686.329 414.519C686.3 414.403 686.329 414.366 686.271 414.293L686.184 414.374L686.045 414.425Z" fill="#FFFFE0"/>
<path opacity="0.28" d="M663.92 466.24L663.788 466.371L626.961 503.203L626.83 503.326L626.698 503.457L621.424 508.739L622.262 508.637L627.07 503.829L627.201 503.698L627.332 503.567L664.16 466.743L664.291 466.612L664.422 466.481L687.998 442.908C687.998 442.631 688.063 442.347 688.092 442.07L664.051 466.109L663.92 466.24Z" fill="#FFFFE0"/>
<path opacity="0.28" d="M656.503 458.861L656.372 458.992L619.537 495.816L619.413 495.947L619.282 496.078L606.307 509.052L606.999 509.103L619.653 496.45L619.785 496.318L619.908 496.187L656.743 459.356L656.874 459.232L657.006 459.101L688.398 427.646C688.398 427.413 688.398 427.187 688.347 426.954L656.634 458.693L656.503 458.861Z" fill="#FFFFE0"/>
<path opacity="0.28" d="M660.212 462.503L660.081 462.635L623.253 499.458L623.122 499.59L622.991 499.721L613.52 509.191H614.248L623.369 500.07L623.501 499.939L623.632 499.808L660.459 462.984L660.591 462.853L660.722 462.722L688.61 434.836C688.61 434.589 688.61 434.341 688.61 434.108L660.343 462.372L660.212 462.503Z" fill="#FFFFE0"/>
<path opacity="0.28" d="M652.795 455.117L652.7 455.219L615.865 492.05L615.741 492.181L615.544 492.37L599.677 508.229L600.318 508.338L615.916 492.742L616.047 492.611L616.171 492.48L653.006 455.649L653.137 455.525L653.261 455.394L687.67 420.981L687.56 420.34L652.918 454.986L652.795 455.117Z" fill="#FFFFE0"/>
<path opacity="0.28" d="M671.335 473.656L671.211 473.787L641.443 503.545C641.88 503.37 642.303 503.188 642.733 503.006L671.583 474.159L671.707 474.027L671.838 473.904L682.358 463.377C682.548 462.955 682.73 462.525 682.905 462.095L671.466 473.532L671.335 473.656Z" fill="#FFFFE0"/>
<path opacity="0.28" d="M667.627 469.948L667.503 470.08L630.668 506.94L630.537 507.064L630.457 507.151H630.588L630.792 507.1L631.441 506.947L667.868 470.524L667.991 470.393L668.123 470.269L686.212 452.086C686.3 451.759 686.372 451.431 686.453 451.103L667.736 469.825L667.627 469.948Z" fill="#FFFFE0"/>
<path opacity="0.28" d="M575.271 377.601L575.402 377.477L593.564 359.309L592.552 359.579L575.03 377.105L574.899 377.229L574.775 377.36L538.924 413.208C538.829 413.543 538.742 413.878 538.654 414.221L575.147 377.732L575.271 377.601Z" fill="#FFFFE0"/>
<path opacity="0.28" d="M555.593 382.445L561.793 376.246C559.609 378.192 557.539 380.262 555.593 382.445V382.445Z" fill="#FFFFE0"/>
<path opacity="0.28" d="M571.563 373.893L571.694 373.762L582.308 363.155L580.975 363.738L571.322 373.397L571.191 373.521L571.104 373.631L543.12 401.611C542.916 402.048 542.727 402.492 542.53 402.937L571.475 374.002L571.563 373.893Z" fill="#FFFFE0"/>
<path opacity="0.28" d="M663.795 489.362L668.72 484.437C670.097 482.929 671.409 481.363 672.662 479.753L659.104 493.303C660.714 492.057 662.287 490.739 663.795 489.362Z" fill="#FFFFE0"/>
<path opacity="0.28" d="M553.021 429.526L553.145 429.394L589.98 392.571L590.111 392.447L590.235 392.316L624.63 357.925L623.989 357.823L589.864 391.944L589.74 392.075L589.609 392.199L552.774 428.994L552.65 429.125L552.519 429.256L537.161 444.612C537.161 444.823 537.227 445.035 537.263 445.246L552.89 429.657L553.021 429.526Z" fill="#FFFFE0"/>
<path opacity="0.28" d="M545.605 422.11L545.736 421.979L582.571 385.148L582.702 385.017L582.826 384.893L610.751 356.971H610.022L582.447 384.558L582.323 384.689L582.192 384.813L545.357 421.644L545.226 421.775L545.102 421.899L536.359 430.64C536.359 430.895 536.359 431.15 536.359 431.405L545.517 422.248L545.605 422.11Z" fill="#FFFFE0"/>
<path opacity="0.28" d="M549.313 425.818L549.437 425.687L586.271 388.855L586.403 388.732L586.526 388.6L617.985 357.153L617.256 357.102L586.155 388.2L586.031 388.331L585.9 388.455L549.065 425.351L548.941 425.483L548.81 425.606L536.425 437.99L536.469 438.719L549.16 426.029L549.313 425.818Z" fill="#FFFFE0"/>
<path opacity="0.28" d="M541.889 418.402L542.02 418.271L578.855 381.44L578.979 381.309L579.11 381.185L602.729 357.561L601.87 357.684L578.739 380.813L578.607 380.937L578.484 381.068L541.649 417.899L541.517 418.03L541.394 418.154L537.022 422.525C536.979 422.816 536.935 423.101 536.898 423.392L541.758 418.533L541.889 418.402Z" fill="#FFFFE0"/>
<path opacity="0.28" d="M582.694 459.196L582.818 459.065L619.653 422.234L619.784 422.11L619.908 421.979L656.743 385.148L656.874 385.017L657.005 384.893L664.443 377.455L664.057 377.098L656.634 384.558L656.502 384.689L656.371 384.813L619.536 421.644L619.412 421.775L619.281 421.899L582.446 458.73L582.323 458.861L582.191 458.992L556.438 484.736L556.794 485.122L582.563 459.356L582.694 459.196Z" fill="#FFFFE0"/>
<path opacity="0.28" d="M575.27 451.78L575.401 451.649L612.236 414.818L612.367 414.687L612.491 414.563L649.326 377.732L649.457 377.601L649.581 377.477L656.262 370.797L655.817 370.498L649.209 377.105L649.086 377.229L648.954 377.36L612.119 414.191L611.996 414.315L611.901 414.424L575.066 451.256L574.935 451.387L574.811 451.511L549.873 476.446L550.179 476.883L575.182 451.882L575.27 451.78Z" fill="#FFFFE0"/>
<path opacity="0.28" d="M567.854 444.357L567.985 444.233L604.82 407.402L604.944 407.271L605.075 407.147L641.91 370.316L642.033 370.185L642.165 370.054L647.002 365.217L646.507 364.969L641.771 369.682L641.64 369.814L641.516 369.945L604.703 406.776L604.572 406.9L604.448 407.031L567.613 443.862L567.482 443.986L567.351 444.117L544.314 467.158L544.562 467.654L567.722 444.488L567.854 444.357Z" fill="#FFFFE0"/>
<path opacity="0.28" d="M560.438 436.942L560.569 436.81L597.397 399.987L597.528 399.855L597.659 399.724L634.487 362.893L634.61 362.769L634.742 362.638L636.541 360.839L635.98 360.657L634.37 362.267L634.239 362.398L634.115 362.522L597.28 399.353L597.149 399.484L597.018 399.615L560.176 436.439L560.044 436.57L559.913 436.701L539.98 456.632C540.039 456.821 540.097 457.011 540.163 457.193L560.285 437.073L560.438 436.942Z" fill="#FFFFE0"/>
<path opacity="0.28" d="M578.979 455.488L579.11 455.357L615.945 418.526L616.076 418.402L616.2 418.271L653.035 381.44L653.166 381.309L653.29 381.185L660.48 373.995L660.065 373.667L652.918 380.813L652.794 380.937L652.663 381.068L615.828 417.899L615.704 418.03L615.573 418.154L578.738 454.985L578.607 455.117L578.483 455.24L552.984 480.737L553.32 481.145L578.818 455.648L578.979 455.488Z" fill="#FFFFE0"/>
<path opacity="0.28" d="M571.562 448.065L571.693 447.941L608.528 411.11L608.652 410.979L608.783 410.855L645.618 374.024L645.749 373.893L645.873 373.762L651.774 367.869L651.308 367.592L645.48 373.42L645.356 373.543L645.225 373.674L608.39 410.506L608.259 410.629L608.135 410.761L571.322 447.57L571.191 447.701L571.067 447.825L546.938 471.973L547.214 472.44L571.438 448.218L571.562 448.065Z" fill="#FFFFE0"/>
<path opacity="0.28" d="M564.145 440.65L564.276 440.526L601.104 403.695L601.235 403.563L601.366 403.432L638.201 366.608L638.325 366.477L638.456 366.346L641.938 362.864L641.414 362.653L638.085 365.975L637.953 366.106L637.83 366.237L600.973 403.061L600.842 403.192L600.718 403.323L563.883 440.154L563.752 440.278L563.62 440.409L541.961 462.059L542.179 462.584L563.985 440.781L564.145 440.65Z" fill="#FFFFE0"/>
<path opacity="0.28" d="M556.729 433.234L556.853 433.103L593.688 396.279L593.819 396.148L593.95 396.016L630.778 359.185L630.21 359.047L593.593 395.66L593.462 395.791L593.331 395.922L556.496 432.746L556.372 432.877L556.241 433.008L538.37 450.848C538.421 451.045 538.472 451.241 538.516 451.438L556.598 433.365L556.729 433.234Z" fill="#FFFFE0"/>
</g>
<g opacity="0.28">
<path opacity="0.28" d="M254.108 90.5666L253.933 90.7414L253.758 90.9162L203.686 140.984L203.511 141.158L203.336 141.333L153.264 191.401L153.089 191.583L152.914 191.758L117.871 226.797L118.396 227.277L153.417 192.26L153.591 192.085L153.766 191.911L203.839 141.843L204.014 141.668L204.188 141.494L254.268 91.4262L254.443 91.244L254.618 91.0692L264.723 80.9654L264.242 80.4409L254.108 90.5666Z" fill="#FFFFE0"/>
<path opacity="0.28" d="M258.975 95.7821L258.8 95.957L208.728 146.024L208.553 146.199L208.378 146.374L158.306 196.434L158.131 196.609L157.956 196.784L123.227 231.51L123.78 231.961L158.459 197.286L158.634 197.112L158.808 196.937L208.881 146.898L209.056 146.724L209.231 146.549L259.325 96.4669L259.5 96.2921L259.675 96.1099L269.437 86.3485C269.284 86.1664 269.138 85.977 268.985 85.7876L259.15 95.6073L258.975 95.7821Z" fill="#FFFFE0"/>
<path opacity="0.28" d="M279.148 115.954L278.973 116.128L228.901 166.196L228.726 166.371L228.551 166.546L178.456 216.613L178.282 216.788L178.099 216.963L148.295 246.793L149.023 247.092L178.653 217.465L178.828 217.29L179.003 217.116L229.075 167.048L229.25 166.873L229.425 166.698L279.498 116.631L279.672 116.456L279.847 116.281L284.561 111.568C284.459 111.335 284.364 111.095 284.262 110.84L279.345 115.757L279.148 115.954Z" fill="#FFFFE0"/>
<path opacity="0.28" d="M269.065 105.872L268.89 106.047L218.81 156.114L218.635 156.289L218.461 156.464L168.388 206.531L168.213 206.706L168.038 206.881L134.999 239.916L135.626 240.295L168.541 207.361L168.723 207.187L168.898 207.012L218.97 156.944L219.145 156.77L219.32 156.595L269.393 106.527L269.568 106.353L269.742 106.178L277.756 98.1646L277.37 97.5381L269.24 105.69L269.065 105.872Z" fill="#FFFFE0"/>
<path opacity="0.28" d="M284.189 120.995L284.014 121.169L233.942 171.237L233.767 171.412L233.592 171.586L183.556 221.654L183.381 221.829L183.206 222.003L155.58 249.612L156.309 249.86L183.643 222.535L183.818 222.36L183.993 222.178L234.066 172.111L234.24 171.936L234.415 171.761L284.488 121.694L284.663 121.519L284.838 121.344L287.264 118.926C287.176 118.671 287.096 118.416 287.009 118.197L284.335 120.871L284.189 120.995Z" fill="#FFFFE0"/>
<path opacity="0.28" d="M274.107 110.912L273.932 111.087L223.86 161.155L223.685 161.329L223.51 161.504L173.43 211.572L173.255 211.747L173.08 211.921L141.447 243.551L142.11 243.901L173.59 212.46L173.765 212.286L173.94 212.111L224.013 162.043L224.187 161.869L224.362 161.694L274.435 111.626L274.61 111.452L274.785 111.277L281.341 104.721L280.999 104.058L274.275 110.781L274.107 110.912Z" fill="#FFFFE0"/>
<path opacity="0.28" d="M264.024 100.823L263.849 100.998L213.769 151.073L213.594 151.248L213.419 151.423L163.347 201.49L163.172 201.665L162.997 201.84L128.916 235.903L129.506 236.318L163.485 202.342L163.66 202.167L163.842 201.993L213.915 151.925L214.09 151.75L214.264 151.575L264.351 101.508L264.526 101.333L264.701 101.158L273.764 92.0891L273.349 91.499L264.199 100.649L264.024 100.823Z" fill="#FFFFE0"/>
<path opacity="0.28" d="M289.056 126.211L238.983 176.278L238.808 176.453L238.634 176.628L188.561 226.695L188.386 226.87L188.211 227.045L163.354 251.9L164.162 252.096L188.714 227.555L188.889 227.38L189.064 227.205L239.136 177.137L239.311 176.955L239.486 176.781L289.551 126.728L289.442 126.269C289.442 126.16 289.391 126.058 289.362 125.956L289.245 126.072L289.056 126.211Z" fill="#FFFFE0"/>
<path opacity="0.28" d="M258.974 196.624L258.799 196.799L208.727 246.866L208.552 247.041L208.377 247.216L201.201 254.391L202.345 254.26L208.902 247.704L209.077 247.529L209.252 247.354L259.324 197.301L259.499 197.126L259.674 196.952L291.729 164.899L291.861 163.755L259.149 196.434L258.974 196.624Z" fill="#FFFFE0"/>
<path opacity="0.28" d="M248.892 186.535L248.717 186.71L198.645 236.784L198.47 236.959L198.295 237.134L180.643 254.77L181.582 254.843L198.79 237.636L198.965 237.462L199.14 237.287L249.213 187.219L249.388 187.045L249.562 186.87L292.284 144.153C292.284 143.839 292.24 143.526 292.211 143.213L249.06 186.36L248.892 186.535Z" fill="#FFFFE0"/>
<path opacity="0.28" d="M253.934 191.583L253.759 191.757L203.687 241.825L203.512 242L203.337 242.174L190.42 255.09H191.44L203.825 242.706L204 242.531L204.175 242.357L254.255 192.289L254.429 192.114L254.604 191.94L292.488 154.059C292.488 153.717 292.488 153.375 292.488 153.04L254.058 191.459L253.934 191.583Z" fill="#FFFFE0"/>
<path opacity="0.28" d="M243.851 181.493L243.676 181.668L193.603 231.736L193.429 231.91L193.254 232.085L171.682 253.655L172.549 253.801L193.756 232.595L193.931 232.42L194.106 232.245L244.179 182.178L244.353 182.003L244.528 181.821L291.249 135.112C291.206 134.821 291.155 134.537 291.104 134.245L244.026 181.318L243.851 181.493Z" fill="#FFFFE0"/>
<path opacity="0.28" d="M269.066 206.705L268.891 206.88L228.428 247.339L230.176 246.611L269.394 207.361L269.568 207.186L269.743 207.011L284.044 192.712C284.297 192.129 284.54 191.546 284.773 190.963L269.226 206.509L269.066 206.705Z" fill="#FFFFE0"/>
<path opacity="0.28" d="M264.023 201.664L263.848 201.839L213.769 251.907L213.594 252.081L213.484 252.191L213.667 252.147L213.943 252.081C214.235 252.009 214.533 251.943 214.825 251.863L264.366 202.327L264.54 202.153L264.715 201.978L289.325 177.363C289.442 176.926 289.544 176.474 289.653 176.03L264.213 201.475L264.023 201.664Z" fill="#FFFFE0"/>
<path opacity="0.28" d="M138.467 76.1213L138.642 75.9465L163.339 51.2588L161.962 51.623L138.139 75.4438L137.964 75.6186L137.789 75.7935L89.0498 124.52C88.926 124.979 88.8021 125.438 88.6855 125.897L138.292 76.2961L138.467 76.1213Z" fill="#FFFFE0"/>
<path opacity="0.28" d="M111.707 82.7067L120.173 74.2783C117.193 76.9243 114.366 79.7383 111.707 82.7067V82.7067Z" fill="#FFFFE0"/>
<path opacity="0.28" d="M133.426 71.0799L133.601 70.905L148.026 56.4814L146.219 57.2973L133.105 70.4097L132.923 70.5845L132.748 70.7594L94.675 108.785C94.4054 109.383 94.1431 109.987 93.8809 110.592L133.222 71.2547L133.426 71.0799Z" fill="#FFFFE0"/>
<path opacity="0.28" d="M258.799 228.057L265.502 221.355C267.376 219.306 269.164 217.183 270.864 214.988L252.432 233.418C254.627 231.714 256.749 229.927 258.799 228.057Z" fill="#FFFFE0"/>
<path opacity="0.28" d="M108.211 146.709L108.386 146.534L158.459 96.467L158.634 96.2922L158.808 96.1101L205.566 49.3645L204.685 49.2261L158.306 95.6074L158.131 95.7822L157.956 95.9571L107.883 146.024L107.709 146.199L107.534 146.374L86.6611 167.252C86.7048 167.543 86.7558 167.835 86.7996 168.119L108.036 146.899L108.211 146.709Z" fill="#FFFFE0"/>
<path opacity="0.28" d="M98.1277 136.62L98.3026 136.445L148.375 86.3779L148.55 86.203L148.725 86.0282L186.689 48.0752H185.647L148.222 85.5256L148.047 85.7004L147.872 85.8752L97.7999 135.972L97.625 136.147L97.4502 136.321L85.5312 148.21C85.5312 148.552 85.5312 148.902 85.5312 149.252L97.982 136.802L98.1277 136.62Z" fill="#FFFFE0"/>
<path opacity="0.28" d="M103.169 141.668L103.343 141.494L153.416 91.4261L153.591 91.244L153.766 91.0692L196.524 48.3156L195.576 48.2573L153.263 90.5665L153.088 90.7414L152.913 90.9162L102.841 140.984L102.666 141.158L102.491 141.333L85.6836 158.139C85.6836 158.452 85.6836 158.773 85.7419 159.086L102.994 141.843L103.169 141.668Z" fill="#FFFFE0"/>
<path opacity="0.28" d="M93.086 131.601L93.2608 131.426L143.333 81.3369L143.508 81.1621L143.683 80.9872L175.797 48.8838C175.404 48.9275 175.01 48.9931 174.624 49.0441L143.18 80.4846L143.005 80.6594L142.831 80.8342L92.7581 130.872L92.5833 131.047L92.4011 131.222L86.4708 137.152C86.4198 137.545 86.3615 137.939 86.3105 138.325L92.9111 131.725L93.086 131.601Z" fill="#FFFFE0"/>
<path opacity="0.28" d="M148.586 187.045L148.761 186.87L198.833 136.802L199.008 136.62L199.183 136.445L249.256 86.378L249.431 86.2032L249.605 86.0284L259.688 75.9173L259.164 75.4292L249.066 85.5257L248.891 85.7005L248.717 85.8754L198.644 135.972L198.469 136.147L198.294 136.322L148.222 186.36L148.047 186.535L147.872 186.709L112.888 221.719L113.376 222.237L148.404 187.219L148.586 187.045Z" fill="#FFFFE0"/>
<path opacity="0.28" d="M138.467 176.955L138.642 176.78L188.714 126.713L188.889 126.538L189.064 126.363L239.137 76.2957L239.312 76.1209L239.486 75.946L248.564 66.8767C248.367 66.731 248.163 66.5998 247.967 66.4614L238.984 75.4434L238.809 75.6182L238.634 75.7931L188.561 125.86L188.387 126.035L188.212 126.21L138.139 176.277L137.964 176.452L137.79 176.627L103.891 210.523L104.306 211.12L138.292 177.137L138.467 176.955Z" fill="#FFFFE0"/>
<path opacity="0.28" d="M128.383 166.873L128.558 166.698L178.631 116.631L178.806 116.456L178.981 116.281L229.053 66.2141L229.228 66.0393L229.403 65.8644L235.96 59.3082L235.282 58.9731L228.878 65.3836L228.703 65.5585L228.529 65.7333L178.456 115.779L178.281 115.954L178.099 116.128L128.027 166.196L127.852 166.371L127.677 166.545L96.3496 197.869C96.4589 198.095 96.5682 198.321 96.6847 198.547L128.187 167.048L128.383 166.873Z" fill="#FFFFE0"/>
<path opacity="0.28" d="M118.294 156.791L118.469 156.616L168.542 106.549L168.724 106.374L168.899 106.199L218.971 56.1319L219.146 55.9571L219.321 55.7822L221.762 53.3346L221.033 53.0869L218.847 55.2723L218.673 55.4471L218.498 55.622L168.389 105.689L168.214 105.871L168.039 106.046L117.988 156.114L117.814 156.288L117.639 156.463L90.5371 183.562C90.6172 183.81 90.7047 184.065 90.7848 184.291L118.141 156.937L118.294 156.791Z" fill="#FFFFE0"/>
<path opacity="0.28" d="M143.486 182.004L143.661 181.821L193.756 131.754L193.93 131.579L194.105 131.404L244.178 81.3371L244.353 81.1623L244.527 80.9874L254.297 71.2187L253.743 70.7671L244.025 80.4848L243.85 80.6596L243.675 80.8345L193.603 130.873L193.428 131.048L193.253 131.222L143.18 181.29L143.005 181.465L142.831 181.639L108.203 216.263L108.648 216.824L143.333 182.149L143.486 182.004Z" fill="#FFFFE0"/>
<path opacity="0.28" d="M133.426 171.914L133.601 171.739L183.673 121.672L183.848 121.497L184.023 121.322L234.095 71.2548L234.27 71.0799L234.445 70.9051L242.459 62.892L241.818 62.5132L233.942 70.4097L233.768 70.5846L233.593 70.7594L183.557 120.819L183.382 120.994L183.207 121.169L133.134 171.237L132.952 171.411L132.777 171.586L99.9932 204.367C100.117 204.578 100.241 204.797 100.372 205.001L133.302 172.074L133.426 171.914Z" fill="#FFFFE0"/>
<path opacity="0.28" d="M123.343 161.832L123.518 161.657L173.59 111.59L173.765 111.415L173.94 111.24L224.012 61.1729L224.187 60.9981L224.362 60.8233L229.098 56.0883L228.369 55.7969L223.852 60.3134L223.677 60.4882L223.502 60.6703L173.43 110.738L173.255 110.913L173.08 111.087L123.008 161.155L122.833 161.33L122.658 161.504L93.2178 190.934C93.3125 191.175 93.4072 191.415 93.5092 191.663L123.153 162.022L123.343 161.832Z" fill="#FFFFE0"/>
<path opacity="0.28" d="M113.252 151.75L113.427 151.576L163.5 101.508L163.674 101.333L163.857 101.159L213.929 51.0913H213.885L213.113 50.9019L163.347 100.649L163.172 100.824L162.997 100.998L112.924 151.073L112.75 151.248L112.575 151.423L88.2998 175.688C88.3654 175.965 88.4309 176.234 88.5038 176.504L113.077 151.925L113.252 151.75Z" fill="#FFFFE0"/>
</g>
<path d="M204.597 125.824V485.19H564V125.824H204.597ZM221.703 485.008H204.779V468.086H221.703V485.008ZM221.703 467.904H204.779V450.982H221.703V467.904ZM221.703 450.799H204.779V433.914H221.703V450.799ZM221.703 433.695H204.779V416.773H221.703V433.695ZM221.703 416.591H204.779V399.676H221.703V416.591ZM221.703 399.486H204.779V382.564H221.703V399.486ZM221.703 382.382H204.779V365.438H221.703V382.382ZM221.703 365.278H204.779V348.356H221.703V365.278ZM221.703 348.173H204.779V331.258H221.703V348.173ZM221.703 331.076H204.779V314.154H221.703V331.076ZM221.703 313.972H204.779V297.05H221.703V313.972ZM221.703 296.868H204.779V279.945H221.703V296.868ZM221.703 279.763H204.779V262.841H221.703V279.763ZM221.703 262.659H204.779V245.737H221.703V262.659ZM221.703 245.555H204.779V228.632H221.703V245.555ZM221.703 228.45H204.779V211.528H221.703V228.45ZM221.703 211.346H204.779V194.424H221.703V211.346ZM221.703 194.242H204.779V177.319H221.703V194.242ZM221.703 177.137H204.779V160.215H221.703V177.137ZM221.703 160.033H204.779V143.111H221.703V160.033ZM221.703 142.929H204.779V126.006H221.703V142.929ZM238.809 485.008H221.885V468.086H238.809V485.008ZM238.809 467.904H221.885V450.982H238.809V467.904ZM238.809 450.799H221.885V433.914H238.809V450.799ZM238.809 433.695H221.885V416.773H238.809V433.695ZM238.809 416.591H221.885V399.676H238.809V416.591ZM238.809 399.486H221.885V382.564H238.809V399.486ZM238.809 382.382H221.885V365.438H238.809V382.382ZM238.809 365.278H221.885V348.356H238.809V365.278ZM238.809 348.173H221.885V331.258H238.809V348.173ZM238.809 331.076H221.885V314.154H238.809V331.076ZM238.809 313.972H221.885V297.05H238.809V313.972ZM238.809 296.868H221.885V279.945H238.809V296.868ZM238.809 279.763H221.885V262.841H238.809V279.763ZM238.809 262.659H221.885V245.737H238.809V262.659ZM238.809 245.555H221.885V228.632H238.809V245.555ZM238.809 228.45H221.885V211.528H238.809V228.45ZM238.809 211.346H221.885V194.424H238.809V211.346ZM238.809 194.242H221.885V177.319H238.809V194.242ZM238.809 177.137H221.885V160.215H238.809V177.137ZM238.809 160.033H221.885V143.111H238.809V160.033ZM238.809 142.929H221.885V126.006H238.809V142.929ZM255.915 485.008H238.991V468.086H255.915V485.008ZM255.915 467.904H238.991V450.982H255.915V467.904ZM255.915 450.799H238.991V433.914H255.915V450.799ZM255.915 433.695H238.991V416.773H255.915V433.695ZM255.915 416.591H238.991V399.676H255.915V416.591ZM255.915 399.486H238.991V382.564H255.915V399.486ZM255.915 382.382H238.991V365.438H255.915V382.382ZM255.915 365.278H238.991V348.356H255.915V365.278ZM255.915 348.173H238.991V331.258H255.915V348.173ZM255.915 331.076H238.991V314.154H255.915V331.076ZM255.915 313.972H238.991V297.05H255.915V313.972ZM255.915 296.868H238.991V279.945H255.915V296.868ZM255.915 279.763H238.991V262.841H255.915V279.763ZM255.915 262.659H238.991V245.737H255.915V262.659ZM255.915 245.555H238.991V228.632H255.915V245.555ZM255.915 228.45H238.991V211.528H255.915V228.45ZM255.915 211.346H238.991V194.424H255.915V211.346ZM255.915 194.242H238.991V177.319H255.915V194.242ZM255.915 177.137H238.991V160.215H255.915V177.137ZM255.915 160.033H238.991V143.111H255.915V160.033ZM255.915 142.929H238.991V126.006H255.915V142.929ZM273.021 485.008H256.097V468.086H273.021V485.008ZM273.021 467.904H256.097V450.982H273.021V467.904ZM273.021 450.799H256.097V433.914H273.021V450.799ZM273.021 433.695H256.097V416.773H273.021V433.695ZM273.021 416.591H256.097V399.676H273.021V416.591ZM273.021 399.486H256.097V382.564H273.021V399.486ZM273.021 382.382H256.097V365.438H273.021V382.382ZM273.021 365.278H256.097V348.356H273.021V365.278ZM273.021 348.173H256.097V331.258H273.021V348.173ZM273.021 331.076H256.097V314.154H273.021V331.076ZM273.021 313.972H256.097V297.05H273.021V313.972ZM273.021 296.868H256.097V279.945H273.021V296.868ZM273.021 279.763H256.097V262.841H273.021V279.763ZM273.021 262.659H256.097V245.737H273.021V262.659ZM273.021 245.555H256.097V228.632H273.021V245.555ZM273.021 228.45H256.097V211.528H273.021V228.45ZM273.021 211.346H256.097V194.424H273.021V211.346ZM273.021 194.242H256.097V177.319H273.021V194.242ZM273.021 177.137H256.097V160.215H273.021V177.137ZM273.021 160.033H256.097V143.111H273.021V160.033ZM273.021 142.929H256.097V126.006H273.021V142.929ZM290.127 485.008H273.203V468.086H290.127V485.008ZM290.127 467.904H273.203V450.982H290.127V467.904ZM290.127 450.799H273.203V433.914H290.127V450.799ZM290.127 433.695H273.203V416.773H290.127V433.695ZM290.127 416.591H273.203V399.676H290.127V416.591ZM290.127 399.486H273.203V382.564H290.127V399.486ZM290.127 382.382H273.203V365.438H290.127V382.382ZM290.127 365.278H273.203V348.356H290.127V365.278ZM290.127 348.173H273.203V331.258H290.127V348.173ZM290.127 331.076H273.203V314.154H290.127V331.076ZM290.127 313.972H273.203V297.05H290.127V313.972ZM290.127 296.868H273.203V279.945H290.127V296.868ZM290.127 279.763H273.203V262.841H290.127V279.763ZM290.127 262.659H273.203V245.737H290.127V262.659ZM290.127 245.555H273.203V228.632H290.127V245.555ZM290.127 228.45H273.203V211.528H290.127V228.45ZM290.127 211.346H273.203V194.424H290.127V211.346ZM290.127 194.242H273.203V177.319H290.127V194.242ZM290.127 177.137H273.203V160.215H290.127V177.137ZM290.127 160.033H273.203V143.111H290.127V160.033ZM290.127 142.929H273.203V126.006H290.127V142.929ZM307.233 485.008H290.309V468.086H307.233V485.008ZM307.233 467.904H290.309V450.982H307.233V467.904ZM307.233 450.799H290.309V433.914H307.233V450.799ZM307.233 433.695H290.309V416.773H307.233V433.695ZM307.233 416.591H290.309V399.676H307.233V416.591ZM307.233 399.486H290.309V382.564H307.233V399.486ZM307.233 382.382H290.309V365.438H307.233V382.382ZM307.233 365.278H290.309V348.356H307.233V365.278ZM307.233 348.173H290.309V331.258H307.233V348.173ZM307.233 331.076H290.309V314.154H307.233V331.076ZM307.233 313.972H290.309V297.05H307.233V313.972ZM307.233 296.868H290.309V279.945H307.233V296.868ZM307.233 279.763H290.309V262.841H307.233V279.763ZM307.233 262.659H290.309V245.737H307.233V262.659ZM307.233 245.555H290.309V228.632H307.233V245.555ZM307.233 228.45H290.309V211.528H307.233V228.45ZM307.233 211.346H290.309V194.424H307.233V211.346ZM307.233 194.242H290.309V177.319H307.233V194.242ZM307.233 177.137H290.309V160.215H307.233V177.137ZM307.233 160.033H290.309V143.111H307.233V160.033ZM307.233 142.929H290.309V126.006H307.233V142.929ZM324.339 485.008H307.408V468.086H324.332L324.339 485.008ZM324.339 467.904H307.408V450.982H324.332L324.339 467.904ZM324.339 450.799H307.408V433.914H324.332L324.339 450.799ZM324.339 433.695H307.408V416.773H324.332L324.339 433.695ZM324.339 416.591H307.408V399.676H324.332L324.339 416.591ZM324.339 399.486H307.408V382.564H324.332L324.339 399.486ZM324.339 382.382H307.408V365.438H324.332L324.339 382.382ZM324.339 365.278H307.408V348.356H324.332L324.339 365.278ZM324.339 348.173H307.408V331.258H324.332L324.339 348.173ZM324.339 331.076H307.408V314.154H324.332L324.339 331.076ZM324.339 313.972H307.408V297.05H324.332L324.339 313.972ZM324.339 296.868H307.408V279.945H324.332L324.339 296.868ZM324.339 279.763H307.408V262.841H324.332L324.339 279.763ZM324.339 262.659H307.408V245.737H324.332L324.339 262.659ZM324.339 245.555H307.408V228.632H324.332L324.339 245.555ZM324.339 228.45H307.408V211.528H324.332L324.339 228.45ZM324.339 211.346H307.408V194.424H324.332L324.339 211.346ZM324.339 194.242H307.408V177.319H324.332L324.339 194.242ZM324.339 177.137H307.408V160.215H324.332L324.339 177.137ZM324.339 160.033H307.408V143.111H324.332L324.339 160.033ZM324.339 142.929H307.408V126.006H324.332L324.339 142.929ZM341.446 485.008H324.522V468.086H341.446V485.008ZM341.446 467.904H324.522V450.982H341.446V467.904ZM341.446 450.799H324.522V433.914H341.446V450.799ZM341.446 433.695H324.522V416.773H341.446V433.695ZM341.446 416.591H324.522V399.676H341.446V416.591ZM341.446 399.486H324.522V382.564H341.446V399.486ZM341.446 382.382H324.522V365.438H341.446V382.382ZM341.446 365.278H324.522V348.356H341.446V365.278ZM341.446 348.173H324.522V331.258H341.446V348.173ZM341.446 331.076H324.522V314.154H341.446V331.076ZM341.446 313.972H324.522V297.05H341.446V313.972ZM341.446 296.868H324.522V279.945H341.446V296.868ZM341.446 279.763H324.522V262.841H341.446V279.763ZM341.446 262.659H324.522V245.737H341.446V262.659ZM341.446 245.555H324.522V228.632H341.446V245.555ZM341.446 228.45H324.522V211.528H341.446V228.45ZM341.446 211.346H324.522V194.424H341.446V211.346ZM341.446 194.242H324.522V177.319H341.446V194.242ZM341.446 177.137H324.522V160.215H341.446V177.137ZM341.446 160.033H324.522V143.111H341.446V160.033ZM341.446 142.929H324.522V126.006H341.446V142.929ZM358.544 485.008H341.65V468.086H358.566L358.544 485.008ZM358.544 467.904H341.65V450.982H358.566L358.544 467.904ZM358.544 450.799H341.65V433.914H358.566L358.544 450.799ZM358.544 433.695H341.65V416.773H358.566L358.544 433.695ZM358.544 416.591H341.65V399.676H358.566L358.544 416.591ZM358.544 399.486H341.65V382.564H358.566L358.544 399.486ZM358.544 382.382H341.65V365.438H358.566L358.544 382.382ZM358.544 365.278H341.65V348.356H358.566L358.544 365.278ZM358.544 348.173H341.65V331.258H358.566L358.544 348.173ZM358.544 331.076H341.65V314.154H358.566L358.544 331.076ZM358.544 313.972H341.65V297.05H358.566L358.544 313.972ZM358.544 296.868H341.65V279.945H358.566L358.544 296.868ZM358.544 279.763H341.65V262.841H358.566L358.544 279.763ZM358.544 262.659H341.65V245.737H358.566L358.544 262.659ZM358.544 245.555H341.65V228.632H358.566L358.544 245.555ZM358.544 228.45H341.65V211.528H358.566L358.544 228.45ZM358.544 211.346H341.65V194.424H358.566L358.544 211.346ZM358.544 194.242H341.65V177.319H358.566L358.544 194.242ZM358.544 177.137H341.65V160.215H358.566L358.544 177.137ZM358.544 160.033H341.65V143.111H358.566L358.544 160.033ZM358.544 142.929H341.65V126.006H358.566L358.544 142.929ZM375.65 485.008H358.726V468.086H375.65V485.008ZM375.65 467.904H358.726V450.982H375.65V467.904ZM375.65 450.799H358.726V433.914H375.65V450.799ZM375.65 433.695H358.726V416.773H375.65V433.695ZM375.65 416.591H358.726V399.676H375.65V416.591ZM375.65 399.486H358.726V382.564H375.65V399.486ZM375.65 382.382H358.726V365.438H375.65V382.382ZM375.65 365.278H358.726V348.356H375.65V365.278ZM375.65 348.173H358.726V331.258H375.65V348.173ZM375.65 331.076H358.726V314.154H375.65V331.076ZM375.65 313.972H358.726V297.05H375.65V313.972ZM375.65 296.868H358.726V279.945H375.65V296.868ZM375.65 279.763H358.726V262.841H375.65V279.763ZM375.65 262.659H358.726V245.737H375.65V262.659ZM375.65 245.555H358.726V228.632H375.65V245.555ZM375.65 228.45H358.726V211.528H375.65V228.45ZM375.65 211.346H358.726V194.424H375.65V211.346ZM375.65 194.242H358.726V177.319H375.65V194.242ZM375.65 177.137H358.726V160.215H375.65V177.137ZM375.65 160.033H358.726V143.111H375.65V160.033ZM375.65 142.929H358.726V126.006H375.65V142.929ZM392.757 485.008H375.833V468.086H392.757V485.008ZM392.757 467.904H375.833V450.982H392.757V467.904ZM392.757 450.799H375.833V433.914H392.757V450.799ZM392.757 433.695H375.833V416.773H392.757V433.695ZM392.757 416.591H375.833V399.676H392.757V416.591ZM392.757 399.486H375.833V382.564H392.757V399.486ZM392.757 382.382H375.833V365.438H392.757V382.382ZM392.757 365.278H375.833V348.356H392.757V365.278ZM392.757 348.173H375.833V331.258H392.757V348.173ZM392.757 331.076H375.833V314.154H392.757V331.076ZM392.757 313.972H375.833V297.05H392.757V313.972ZM392.757 296.868H375.833V279.945H392.757V296.868ZM392.757 279.763H375.833V262.841H392.757V279.763ZM392.757 262.659H375.833V245.737H392.757V262.659ZM392.757 245.555H375.833V228.632H392.757V245.555ZM392.757 228.45H375.833V211.528H392.757V228.45ZM392.757 211.346H375.833V194.424H392.757V211.346ZM392.757 194.242H375.833V177.319H392.757V194.242ZM392.757 177.137H375.833V160.215H392.757V177.137ZM392.757 160.033H375.833V143.111H392.757V160.033ZM392.757 142.929H375.833V126.006H392.757V142.929ZM409.863 485.008H392.939V468.086H409.863V485.008ZM409.863 467.904H392.939V450.982H409.863V467.904ZM409.863 450.799H392.939V433.914H409.863V450.799ZM409.863 433.695H392.939V416.773H409.863V433.695ZM409.863 416.591H392.939V399.676H409.863V416.591ZM409.863 399.486H392.939V382.564H409.863V399.486ZM409.863 382.382H392.939V365.438H409.863V382.382ZM409.863 365.278H392.939V348.356H409.863V365.278ZM409.863 348.173H392.939V331.258H409.863V348.173ZM409.863 331.076H392.939V314.154H409.863V331.076ZM409.863 313.972H392.939V297.05H409.863V313.972ZM409.863 296.868H392.939V279.945H409.863V296.868ZM409.863 279.763H392.939V262.841H409.863V279.763ZM409.863 262.659H392.939V245.737H409.863V262.659ZM409.863 245.555H392.939V228.632H409.863V245.555ZM409.863 228.45H392.939V211.528H409.863V228.45ZM409.863 211.346H392.939V194.424H409.863V211.346ZM409.863 194.242H392.939V177.319H409.863V194.242ZM409.863 177.137H392.939V160.215H409.863V177.137ZM409.863 160.033H392.939V143.111H409.863V160.033ZM409.863 142.929H392.939V126.006H409.863V142.929ZM426.969 485.008H410.045V468.086H426.969V485.008ZM426.969 467.904H410.045V450.982H426.969V467.904ZM426.969 450.799H410.045V433.914H426.969V450.799ZM426.969 433.695H410.045V416.773H426.969V433.695ZM426.969 416.591H410.045V399.676H426.969V416.591ZM426.969 399.486H410.045V382.564H426.969V399.486ZM426.969 382.382H410.045V365.438H426.969V382.382ZM426.969 365.278H410.045V348.356H426.969V365.278ZM426.969 348.173H410.045V331.258H426.969V348.173ZM426.969 331.076H410.045V314.154H426.969V331.076ZM426.969 313.972H410.045V297.05H426.969V313.972ZM426.969 296.868H410.045V279.945H426.969V296.868ZM426.969 279.763H410.045V262.841H426.969V279.763ZM426.969 262.659H410.045V245.737H426.969V262.659ZM426.969 245.555H410.045V228.632H426.969V245.555ZM426.969 228.45H410.045V211.528H426.969V228.45ZM426.969 211.346H410.045V194.424H426.969V211.346ZM426.969 194.242H410.045V177.319H426.969V194.242ZM426.969 177.137H410.045V160.215H426.969V177.137ZM426.969 160.033H410.045V143.111H426.969V160.033ZM426.969 142.929H410.045V126.006H426.969V142.929ZM444.075 485.008H427.151V468.086H444.075V485.008ZM444.075 467.904H427.151V450.982H444.075V467.904ZM444.075 450.799H427.151V433.914H444.075V450.799ZM444.075 433.695H427.151V416.773H444.075V433.695ZM444.075 416.591H427.151V399.676H444.075V416.591ZM444.075 399.486H427.151V382.564H444.075V399.486ZM444.075 382.382H427.151V365.438H444.075V382.382ZM444.075 365.278H427.151V348.356H444.075V365.278ZM444.075 348.173H427.151V331.258H444.075V348.173ZM444.075 331.076H427.151V314.154H444.075V331.076ZM444.075 313.972H427.151V297.05H444.075V313.972ZM444.075 296.868H427.151V279.945H444.075V296.868ZM444.075 279.763H427.151V262.841H444.075V279.763ZM444.075 262.659H427.151V245.737H444.075V262.659ZM444.075 245.555H427.151V228.632H444.075V245.555ZM444.075 228.45H427.151V211.528H444.075V228.45ZM444.075 211.346H427.151V194.424H444.075V211.346ZM444.075 194.242H427.151V177.319H444.075V194.242ZM444.075 177.137H427.151V160.215H444.075V177.137ZM444.075 160.033H427.151V143.111H444.075V160.033ZM444.075 142.929H427.151V126.006H444.075V142.929ZM461.181 485.008H444.257V468.086H461.181V485.008ZM461.181 467.904H444.257V450.982H461.181V467.904ZM461.181 450.799H444.257V433.914H461.181V450.799ZM461.181 433.695H444.257V416.773H461.181V433.695ZM461.181 416.591H444.257V399.676H461.181V416.591ZM461.181 399.486H444.257V382.564H461.181V399.486ZM461.181 382.382H444.257V365.438H461.181V382.382ZM461.181 365.278H444.257V348.356H461.181V365.278ZM461.181 348.173H444.257V331.258H461.181V348.173ZM461.181 331.076H444.257V314.154H461.181V331.076ZM461.181 313.972H444.257V297.05H461.181V313.972ZM461.181 296.868H444.257V279.945H461.181V296.868ZM461.181 279.763H444.257V262.841H461.181V279.763ZM461.181 262.659H444.257V245.737H461.181V262.659ZM461.181 245.555H444.257V228.632H461.181V245.555ZM461.181 228.45H444.257V211.528H461.181V228.45ZM461.181 211.346H444.257V194.424H461.181V211.346ZM461.181 194.242H444.257V177.319H461.181V194.242ZM461.181 177.137H444.257V160.215H461.181V177.137ZM461.181 160.033H444.257V143.111H461.181V160.033ZM461.181 142.929H444.257V126.006H461.181V142.929ZM478.287 485.008H461.363V468.086H478.287V485.008ZM478.287 467.904H461.363V450.982H478.287V467.904ZM478.287 450.799H461.363V433.914H478.287V450.799ZM478.287 433.695H461.363V416.773H478.287V433.695ZM478.287 416.591H461.363V399.676H478.287V416.591ZM478.287 399.486H461.363V382.564H478.287V399.486ZM478.287 382.382H461.363V365.438H478.287V382.382ZM478.287 365.278H461.363V348.356H478.287V365.278ZM478.287 348.173H461.363V331.258H478.287V348.173ZM478.287 331.076H461.363V314.154H478.287V331.076ZM478.287 313.972H461.363V297.05H478.287V313.972ZM478.287 296.868H461.363V279.945H478.287V296.868ZM478.287 279.763H461.363V262.841H478.287V279.763ZM478.287 262.659H461.363V245.737H478.287V262.659ZM478.287 245.555H461.363V228.632H478.287V245.555ZM478.287 228.45H461.363V211.528H478.287V228.45ZM478.287 211.346H461.363V194.424H478.287V211.346ZM478.287 194.242H461.363V177.319H478.287V194.242ZM478.287 177.137H461.363V160.215H478.287V177.137ZM478.287 160.033H461.363V143.111H478.287V160.033ZM478.287 142.929H461.363V126.006H478.287V142.929ZM495.371 485.008H478.469V468.086H495.371V485.008ZM495.371 467.904H478.469V450.982H495.371V467.904ZM495.371 450.799H478.469V433.914H495.371V450.799ZM495.371 433.695H478.469V416.773H495.371V433.695ZM495.371 416.591H478.469V399.676H495.371V416.591ZM495.371 399.486H478.469V382.564H495.371V399.486ZM495.371 382.382H478.469V365.438H495.371V382.382ZM495.371 365.278H478.469V348.356H495.371V365.278ZM495.371 348.173H478.469V331.258H495.371V348.173ZM495.371 331.076H478.469V314.154H495.371V331.076ZM495.371 313.972H478.469V297.05H495.371V313.972ZM495.371 296.868H478.469V279.945H495.371V296.868ZM495.371 279.763H478.469V262.841H495.371V279.763ZM495.371 262.659H478.469V245.737H495.371V262.659ZM495.371 245.555H478.469V228.632H495.371V245.555ZM495.371 228.487H478.469V211.528H495.371V228.487ZM495.371 211.382H478.469V194.424H495.371V211.382ZM495.371 194.249H478.469V177.319H495.371V194.249ZM495.371 177.145H478.469V160.215H495.371V177.145ZM495.371 160.011H478.469V143.111H495.371V160.011ZM495.371 142.907H478.469V126.006H495.371V142.907ZM512.477 484.986H495.575V468.086H512.499L512.477 484.986ZM512.477 467.882H495.575V450.982H512.499L512.477 467.882ZM512.477 450.778H495.575V433.914H512.499L512.477 450.778ZM512.477 433.673H495.575V416.773H512.499L512.477 433.673ZM512.477 416.569H495.575V399.676H512.499L512.477 416.569ZM512.477 399.465H495.575V382.564H512.499L512.477 399.465ZM512.477 382.36H495.575V365.438H512.499L512.477 382.36ZM512.477 365.256H495.575V348.356H512.499L512.477 365.256ZM512.477 348.152H495.575V331.258H512.499L512.477 348.152ZM512.477 331.055H495.575V314.154H512.499L512.477 331.055ZM512.477 313.95H495.575V297.05H512.499L512.477 313.95ZM512.477 296.846H495.575V279.945H512.499L512.477 296.846ZM512.477 279.741H495.575V262.841H512.499L512.477 279.741ZM512.477 262.637H495.575V245.737H512.499L512.477 262.637ZM512.477 245.533H495.575V228.632H512.499L512.477 245.533ZM512.477 228.428H495.575V211.528H512.499L512.477 228.428ZM512.477 211.324H495.575V194.424H512.499L512.477 211.324ZM512.477 194.22H495.575V177.319H512.499L512.477 194.22ZM512.477 177.115H495.575V160.215H512.499L512.477 177.115ZM512.477 160.011H495.575V143.111H512.499L512.477 160.011ZM512.477 142.907H495.575V126.006H512.499L512.477 142.907ZM529.613 485.008H512.681V468.086H529.613V485.008ZM529.613 467.904H512.681V450.982H529.613V467.904ZM529.613 450.799H512.681V433.914H529.613V450.799ZM529.613 433.695H512.681V416.773H529.613V433.695ZM529.613 416.591H512.681V399.676H529.613V416.591ZM529.613 399.486H512.681V382.564H529.613V399.486ZM529.613 382.382H512.681V365.438H529.613V382.382ZM529.613 365.278H512.681V348.356H529.613V365.278ZM529.613 348.173H512.681V331.258H529.613V348.173ZM529.613 331.076H512.681V314.154H529.613V331.076ZM529.613 313.972H512.681V297.05H529.613V313.972ZM529.613 296.868H512.681V279.945H529.613V296.868ZM529.613 279.763H512.681V262.841H529.613V279.763ZM529.613 262.659H512.681V245.737H529.613V262.659ZM529.613 245.555H512.681V228.632H529.613V245.555ZM529.613 228.487H512.681V211.528H529.613V228.487ZM529.613 211.382H512.681V194.424H529.613V211.382ZM529.613 194.249H512.681V177.319H529.613V194.249ZM529.613 177.145H512.681V160.215H529.613V177.145ZM529.613 160.011H512.681V143.111H529.613V160.011ZM529.613 142.907H512.681V126.006H529.613V142.907ZM546.719 484.986H529.788V468.086H546.711L546.719 484.986ZM546.719 467.882H529.788V450.982H546.711L546.719 467.882ZM546.719 450.778H529.788V433.914H546.711L546.719 450.778ZM546.719 433.673H529.788V416.773H546.711L546.719 433.673ZM546.719 416.569H529.788V399.676H546.711L546.719 416.569ZM546.719 399.465H529.788V382.564H546.711L546.719 399.465ZM546.719 382.36H529.788V365.438H546.711L546.719 382.36ZM546.719 365.256H529.788V348.356H546.711L546.719 365.256ZM546.719 348.152H529.788V331.258H546.711L546.719 348.152ZM546.719 331.055H529.788V314.154H546.711L546.719 331.055ZM546.719 313.95H529.788V297.05H546.711L546.719 313.95ZM546.719 296.846H529.788V279.945H546.711L546.719 296.846ZM546.719 279.741H529.788V262.841H546.711L546.719 279.741ZM546.719 262.637H529.788V245.737H546.711L546.719 262.637ZM546.719 245.533H529.788V228.632H546.711L546.719 245.533ZM546.719 228.428H529.788V211.528H546.711L546.719 228.428ZM546.719 211.324H529.788V194.424H546.711L546.719 211.324ZM546.719 194.22H529.788V177.319H546.711L546.719 194.22ZM546.719 177.115H529.788V160.215H546.711L546.719 177.115ZM546.719 160.011H529.788V143.111H546.711L546.719 160.011ZM546.719 142.907H529.788V126.006H546.711L546.719 142.907ZM563.854 485.008H546.894V468.086H563.854V485.008ZM563.854 467.904H546.894V450.982H563.854V467.904ZM563.854 450.799H546.894V433.914H563.854V450.799ZM563.854 433.695H546.894V416.773H563.854V433.695ZM563.854 416.591H546.894V399.676H563.854V416.591ZM563.854 399.486H546.894V382.564H563.854V399.486ZM563.854 382.382H546.894V365.438H563.854V382.382ZM563.854 365.278H546.894V348.356H563.854V365.278ZM563.854 348.173H546.894V331.258H563.854V348.173ZM563.854 331.076H546.894V314.154H563.854V331.076ZM563.854 313.972H546.894V297.05H563.854V313.972ZM563.854 296.868H546.894V279.945H563.854V296.868ZM563.854 279.763H546.894V262.841H563.854V279.763ZM563.854 262.659H546.894V245.737H563.854V262.659ZM563.854 245.555H546.894V228.632H563.854V245.555ZM563.854 228.487H546.894V211.528H563.854V228.487ZM563.854 211.382H546.894V194.424H563.854V211.382ZM563.854 194.249H546.894V177.319H563.854V194.249ZM563.854 177.145H546.894V160.215H563.854V177.145ZM563.854 160.011H546.894V143.111H563.854V160.011ZM563.854 142.907H546.894V126.006H563.854V142.907Z" fill="url(#paint0_radial_1502_1560)"/>
<path d="M395.883 428.716C435.266 389.337 435.266 325.493 395.883 286.115C356.501 246.736 292.65 246.736 253.268 286.115C213.886 325.493 213.886 389.337 253.268 428.715C292.65 468.094 356.501 468.094 395.883 428.716Z" stroke="#FFFFE0" stroke-width="0.25" stroke-miterlimit="10"/>
<path d="M622.925 516.62C650.236 489.311 650.236 445.036 622.925 417.728C595.614 390.42 551.334 390.42 524.023 417.728C496.712 445.036 496.712 489.312 524.023 516.62C551.334 543.928 595.614 543.928 622.925 516.62Z" stroke="#FFFFE0" stroke-width="0.25" stroke-miterlimit="10"/>
<path d="M558.299 133.82C612.991 188.455 613.035 277.066 558.401 331.751C503.768 386.437 415.149 386.481 360.457 331.853C305.766 277.226 217.146 277.27 162.513 331.955C107.88 386.641 107.924 475.273 162.608 529.908" stroke="#FFFFE0" stroke-width="0.25" stroke-miterlimit="10"/>
<path d="M655.707 214.227C695.089 174.849 695.089 111.004 655.707 71.6263C616.324 32.2481 552.473 32.2481 513.091 71.6263C473.709 111.004 473.709 174.849 513.091 214.227C552.473 253.605 616.324 253.605 655.707 214.227Z" stroke="#FFFFE0" stroke-width="0.25" stroke-miterlimit="10"/>
<path d="M214.674 216.92C254.057 177.541 254.057 113.697 214.674 74.3187C175.292 34.9405 111.441 34.9406 72.0588 74.3187C32.6766 113.697 32.6766 177.541 72.0588 216.92C111.441 256.298 175.292 256.298 214.674 216.92Z" stroke="#FFFFE0" stroke-width="0.25" stroke-miterlimit="10"/>
<g opacity="0.28">
<path opacity="0.28" d="M251.074 374.784L250.906 374.952L250.731 375.127L201.497 424.356L201.329 424.524L201.154 424.699L151.92 473.929L151.745 474.103L151.577 474.271L117.117 508.727L117.634 509.201L152.073 474.766L152.24 474.599L152.415 474.424L201.65 425.231L201.824 425.063L201.992 424.888L251.227 375.659L251.402 375.484L251.569 375.316L261.514 365.373L261.033 364.863L251.074 374.784Z" fill="#FFFFE0"/>
<path opacity="0.28" d="M255.86 379.913L255.693 380.08L206.458 429.31L206.283 429.485L206.109 429.66L156.874 478.882L156.706 479.057L156.531 479.232L122.385 513.375L122.931 513.819L157.027 479.727L157.202 479.552L157.377 479.385L206.604 430.155L206.779 429.98L206.954 429.805L256.188 380.583L256.356 380.408L256.531 380.233L266.133 370.632L265.688 370.086L256.035 379.738L255.86 379.913Z" fill="#FFFFE0"/>
<path opacity="0.28" d="M275.691 399.735L275.524 399.909L226.289 449.132L226.114 449.307L225.939 449.481L176.712 498.711L176.537 498.879L176.362 499.053L147.031 528.381L147.76 528.673L176.901 499.534L177.076 499.359L177.251 499.192L226.442 449.999L226.61 449.824L226.784 449.656L276.041 400.412L276.209 400.237L276.383 400.062L281.017 395.429C280.922 395.196 280.82 394.97 280.718 394.737L275.888 399.567L275.691 399.735Z" fill="#FFFFE0"/>
<path opacity="0.28" d="M265.776 389.828L265.608 389.995L216.373 439.225L216.199 439.4L216.024 439.575L166.76 488.804L166.592 488.972L166.417 489.147L133.976 521.629L134.595 522.008L166.957 489.642L167.131 489.467L167.306 489.3L216.541 440.07L216.709 439.895L216.883 439.72L266.118 390.498L266.286 390.323L266.46 390.148L274.329 382.281L273.957 381.662L265.943 389.675L265.776 389.828Z" fill="#FFFFE0"/>
<path opacity="0.28" d="M280.653 404.695L280.478 404.87L231.243 454.1L231.076 454.275L230.901 454.442L181.666 503.672L181.491 503.847L181.324 504.014L154.2 531.142L154.929 531.39L181.805 504.517L181.979 504.342L182.147 504.167L231.382 454.938L231.557 454.77L231.724 454.595L280.959 405.366L281.134 405.198L281.308 405.023L283.684 402.641C283.603 402.393 283.523 402.146 283.436 401.913L280.806 404.542L280.653 404.695Z" fill="#FFFFE0"/>
<path opacity="0.28" d="M270.737 394.781L270.563 394.956L221.328 444.171L221.16 444.346L220.986 444.513L171.751 493.743L171.576 493.918L171.408 494.085L140.3 525.191L140.955 525.526L171.904 494.581L172.079 494.413L172.246 494.238L221.481 445.009L221.656 444.841L221.823 444.666L271.058 395.437L271.233 395.262L271.4 395.094L277.855 388.64L277.52 387.984L270.941 394.635L270.737 394.781Z" fill="#FFFFE0"/>
<path opacity="0.28" d="M260.822 384.867L260.647 385.041L211.413 434.271L211.245 434.446L211.07 434.613L161.836 483.843L161.661 484.018L161.493 484.185L127.98 517.695L128.563 518.103L161.974 484.695L162.149 484.528L162.317 484.353L211.551 435.123L211.726 434.956L211.894 434.781L261.128 385.551L261.303 385.384L261.471 385.165L270.381 376.249C270.242 376.059 270.111 375.863 269.973 375.666L260.968 384.67L260.822 384.867Z" fill="#FFFFE0"/>
<path opacity="0.28" d="M285.44 409.831L236.205 459.061L236.03 459.228L235.862 459.403L186.628 508.633L186.453 508.8L186.278 508.975L161.843 533.415L162.637 533.605L186.773 509.471L186.948 509.296L187.123 509.128L236.358 459.898L236.525 459.724L236.7 459.556L285.92 410.334L285.811 409.875C285.811 409.773 285.76 409.671 285.731 409.569L285.614 409.685L285.44 409.831Z" fill="#FFFFE0"/>
<path opacity="0.28" d="M255.861 479.057L255.693 479.232L206.459 528.461L206.284 528.629L206.109 528.804L199.057 535.863L200.179 535.731L206.604 529.299L206.779 529.124L206.954 528.957L256.189 479.727L256.356 479.552L256.531 479.385L288.04 447.871C288.091 447.5 288.128 447.143 288.172 446.75L256.036 478.882L255.861 479.057Z" fill="#FFFFE0"/>
<path opacity="0.28" d="M245.945 469.143L245.778 469.317L196.543 518.547L196.368 518.715L196.193 518.889L178.847 536.234L179.772 536.3L196.689 519.385L196.863 519.21L197.038 519.042L246.273 469.813L246.441 469.638L246.615 469.47L288.616 427.467L288.55 426.549L246.12 468.975L245.945 469.143Z" fill="#FFFFE0"/>
<path opacity="0.28" d="M250.907 474.103L250.732 474.271L201.497 523.501L201.33 523.675L201.155 523.843L188.449 536.547H189.455L201.65 524.36L201.825 524.185L201.993 524.011L251.227 474.766L251.402 474.599L251.57 474.424L288.849 437.156C288.849 436.821 288.849 436.485 288.849 436.15L251.06 473.929L250.907 474.103Z" fill="#FFFFE0"/>
<path opacity="0.28" d="M240.991 464.189L240.816 464.357L191.581 513.586L191.407 513.761L191.239 513.929L170.031 535.134L170.884 535.28L191.734 514.431L191.909 514.257L192.077 514.082L241.312 464.852L241.486 464.685L241.654 464.51L287.596 418.616C287.545 418.332 287.501 418.048 287.45 417.764L241.159 464.051L240.991 464.189Z" fill="#FFFFE0"/>
<path opacity="0.28" d="M265.776 488.972L265.609 489.146L225.823 528.928L227.543 528.199L266.104 489.642L266.272 489.467L266.447 489.299L280.515 475.233C280.755 474.665 281.003 474.089 281.243 473.514L265.944 488.811L265.776 488.972Z" fill="#FFFFE0"/>
<path opacity="0.28" d="M260.822 484.018L260.647 484.185L211.413 533.415L211.245 533.59L211.136 533.699L211.311 533.656L211.587 533.59L212.447 533.379L261.143 484.681L261.318 484.513L261.492 484.338L285.694 460.139C285.804 459.702 285.906 459.265 286.015 458.828L260.99 483.843L260.822 484.018Z" fill="#FFFFE0"/>
<path opacity="0.28" d="M137.371 360.58L137.546 360.405L161.821 336.125L160.473 336.489L137.043 359.909L136.876 360.084L136.701 360.252L88.8067 408.17C88.6828 408.622 88.5589 409.066 88.4424 409.525L137.218 360.754L137.371 360.58Z" fill="#FFFFE0"/>
<path opacity="0.28" d="M111.063 367.056L119.354 358.766C116.433 361.366 113.664 364.134 111.063 367.056V367.056Z" fill="#FFFFE0"/>
<path opacity="0.28" d="M132.41 355.619L132.584 355.451L146.769 341.268C146.179 341.523 145.582 341.778 144.999 342.048L132.089 354.956L131.914 355.123L131.747 355.298L94.3435 392.698C94.0739 393.288 93.8189 393.878 93.5566 394.468L132.242 355.794L132.41 355.619Z" fill="#FFFFE0"/>
<path opacity="0.28" d="M255.693 509.966L262.25 503.41C264.086 501.394 265.842 499.306 267.517 497.145L249.398 515.262C251.574 513.577 253.673 511.812 255.693 509.966Z" fill="#FFFFE0"/>
<path opacity="0.28" d="M107.625 429.98L107.793 429.805L157.028 380.583L157.202 380.408L157.377 380.233L203.341 334.275L202.488 334.129L156.875 379.738L156.707 379.913L156.561 380.066L107.297 429.31L107.13 429.485L106.955 429.66L86.4248 450.181C86.4685 450.472 86.5195 450.749 86.5632 451.04L107.45 430.155L107.625 429.98Z" fill="#FFFFE0"/>
<path opacity="0.28" d="M97.7094 420.066L97.877 419.891L147.09 370.669L147.265 370.494L147.439 370.319L184.763 333H183.735L146.937 369.795L146.769 369.97L146.594 370.137L97.3815 419.403L97.214 419.578L97.0391 419.753L85.3242 431.459C85.3242 431.794 85.3242 432.137 85.3242 432.479L97.5637 420.241L97.7094 420.066Z" fill="#FFFFE0"/>
<path opacity="0.28" d="M102.648 425.027L102.823 424.852L152.058 375.622L152.225 375.448L152.4 375.28L194.444 333.24L193.512 333.182L151.905 374.785L151.73 374.952L151.562 375.127L102.342 424.357L102.167 424.524L102 424.699L85.4766 441.257C85.4766 441.57 85.4766 441.884 85.5348 442.19L102.495 425.231L102.648 425.027Z" fill="#FFFFE0"/>
<path opacity="0.28" d="M92.7483 415.112L92.9232 414.938L142.158 365.708L142.325 365.533L142.5 365.366L174.046 333.794L172.888 333.954L141.99 364.87L141.815 365.038L141.648 365.213L92.4496 414.442L92.2748 414.61L92.0999 414.785L86.2716 420.612C86.2133 420.991 86.155 421.377 86.1113 421.763L92.6026 415.273L92.7483 415.112Z" fill="#FFFFE0"/>
<path opacity="0.28" d="M147.287 469.667L147.462 469.499L196.689 420.27L196.864 420.095L197.039 419.92L246.274 370.698L246.441 370.523L246.616 370.348L256.561 360.397L256.043 359.924L246.121 369.846L245.946 370.02L245.778 370.188L196.544 419.403L196.369 419.578L196.194 419.753L146.959 468.982L146.792 469.15L146.617 469.325L112.193 503.737L112.674 504.247L147.09 469.813L147.287 469.667Z" fill="#FFFFE0"/>
<path opacity="0.28" d="M137.371 459.724L137.545 459.556L186.773 410.327L186.948 410.152L187.123 409.977L236.357 360.755L236.525 360.58L236.7 360.398L245.624 351.481L245.034 351.073L236.204 359.902L236.029 360.077L235.862 360.245L186.627 409.474L186.452 409.649L186.277 409.824L137.043 459.054L136.875 459.221L136.7 459.396L103.377 492.723L103.778 493.313L137.196 459.899L137.371 459.724Z" fill="#FFFFE0"/>
<path opacity="0.28" d="M127.456 449.809L127.623 449.642L176.858 400.412L177.033 400.237L177.208 400.062L226.443 350.833L226.61 350.665L226.785 350.49L233.254 344.022L232.591 343.694L226.29 349.995L226.115 350.17L225.94 350.337L176.712 399.567L176.538 399.742L176.363 399.917L127.128 449.139L126.96 449.314L126.786 449.489L95.9902 480.281L96.3181 480.944L127.281 449.984L127.456 449.809Z" fill="#FFFFE0"/>
<path opacity="0.28" d="M117.54 439.895L117.708 439.72L166.943 390.498L167.118 390.323L167.292 390.148L216.527 340.918L216.695 340.751L216.87 340.576L219.274 338.172L218.545 337.932L216.396 340.081L216.221 340.255L216.046 340.423L166.761 389.653L166.593 389.827L166.418 389.995L117.22 439.225L117.052 439.399L116.878 439.574L90.2275 466.214C90.315 466.469 90.3878 466.717 90.4752 466.943L117.373 440.048L117.54 439.895Z" fill="#FFFFE0"/>
<path opacity="0.28" d="M142.325 464.685L142.5 464.51L191.735 415.28L191.91 415.113L192.077 414.938L241.312 365.708L241.487 365.533L241.654 365.366L251.271 355.757L250.717 355.313L241.166 364.87L240.999 365.038L240.824 365.213L191.589 414.442L191.414 414.61L191.247 414.785L141.99 464.014L141.815 464.189L141.648 464.357L107.596 498.405L108.04 498.952L142.143 464.852L142.325 464.685Z" fill="#FFFFE0"/>
<path opacity="0.28" d="M132.409 454.77L132.584 454.595L181.819 405.366L181.994 405.198L182.161 405.023L231.396 355.794L231.571 355.619L231.738 355.451L239.614 347.569L238.995 347.198L231.236 354.956L231.068 355.123L230.872 355.298L181.637 404.528L181.462 404.695L181.294 404.87L132.06 454.1L131.885 454.275L131.717 454.442L99.4648 486.691C99.5887 486.903 99.7053 487.107 99.8364 487.318L132.213 454.938L132.409 454.77Z" fill="#FFFFE0"/>
<path opacity="0.28" d="M122.495 444.856L122.669 444.681L171.904 395.451L172.079 395.277L172.247 395.109L221.481 345.879L221.656 345.705L221.824 345.537L226.479 340.882L225.75 340.591L221.306 345.042L221.139 345.209L220.964 345.384L171.751 394.636L171.576 394.803L171.409 394.978L122.174 444.171L121.999 444.346L121.832 444.514L92.8867 473.47C92.9814 473.703 93.0761 473.936 93.1781 474.198L122.32 445.06L122.495 444.856Z" fill="#FFFFE0"/>
<path opacity="0.28" d="M112.579 434.941L112.754 434.766L161.988 385.537L162.163 385.369L162.331 385.194L211.566 335.965H211.522L210.793 335.783L161.843 384.728L161.668 384.896L161.5 385.071L112.266 434.3L112.091 434.475L111.923 434.643L88.0781 458.478C88.1364 458.748 88.202 459.01 88.2675 459.279L112.44 435.109L112.579 434.941Z" fill="#FFFFE0"/>
</g>
<path d="M238.25 159C264.76 159 286.25 137.51 286.25 111C286.25 84.4903 264.76 63 238.25 63C211.74 63 190.25 84.4903 190.25 111C190.25 137.51 211.74 159 238.25 159Z" fill="url(#paint1_radial_1502_1560)"/>
<defs>
<radialGradient id="paint0_radial_1502_1560" cx="0" cy="0" r="1" gradientUnits="userSpaceOnUse" gradientTransform="translate(384.298 305.507) scale(179.702 179.683)">
<stop stop-color="#FFFFE0"/>
<stop offset="1" stop-color="#FFFFE0" stop-opacity="0"/>
</radialGradient>
<radialGradient id="paint1_radial_1502_1560" cx="0" cy="0" r="1" gradientUnits="userSpaceOnUse" gradientTransform="translate(264.686 83.8077) rotate(94.1349) scale(75.3885 69.4121)">
<stop stop-color="#8CE717"/>
<stop offset="1" stop-color="#00FFE0" stop-opacity="0"/>
</radialGradient>
</defs>
</svg>
