<svg width="225" height="285" viewBox="0 0 225 285" fill="none" xmlns="http://www.w3.org/2000/svg">
<path opacity="0.5" d="M224.69 0V184.4H40.2903V0H224.69ZM215.913 184.306H224.596V175.623H215.913V184.306ZM215.913 175.53H224.596V166.846H215.913V175.53ZM215.913 166.753H224.596V158.088H215.913V166.753ZM215.913 157.976H224.596V149.293H215.913V157.976ZM215.913 149.2H224.596V140.52H215.913V149.2ZM215.913 140.423H224.596V131.74H215.913V140.423ZM215.913 131.646H224.596V122.952H215.913V131.646ZM215.913 122.87H224.596V114.186H215.913V122.87ZM215.913 114.093H224.596V105.413H215.913V114.093ZM215.913 105.32H224.596V96.6368H215.913V105.32ZM215.913 96.5433H224.596V87.8601H215.913V96.5433ZM215.913 87.7667H224.596V79.0834H215.913V87.7667ZM215.913 78.99H224.596V70.3068H215.913V78.99ZM215.913 70.2133H224.596V61.5301H215.913V70.2133ZM215.913 61.4367H224.596V52.7534H215.913V61.4367ZM215.913 52.66H224.596V43.9768H215.913V52.66ZM215.913 43.8833H224.596V35.2001H215.913V43.8833ZM215.913 35.1067H224.596V26.4234H215.913V35.1067ZM215.913 26.33H224.596V17.6468H215.913V26.33ZM215.913 17.5533H224.596V8.87011H215.913V17.5533ZM215.913 8.77667H224.596V0.0934483H215.913V8.77667ZM207.137 184.306H215.82V175.623H207.137V184.306ZM207.137 175.53H215.82V166.846H207.137V175.53ZM207.137 166.753H215.82V158.088H207.137V166.753ZM207.137 157.976H215.82V149.293H207.137V157.976ZM207.137 149.2H215.82V140.52H207.137V149.2ZM207.137 140.423H215.82V131.74H207.137V140.423ZM207.137 131.646H215.82V122.952H207.137V131.646ZM207.137 122.87H215.82V114.186H207.137V122.87ZM207.137 114.093H215.82V105.413H207.137V114.093ZM207.137 105.32H215.82V96.6368H207.137V105.32ZM207.137 96.5433H215.82V87.8601H207.137V96.5433ZM207.137 87.7667H215.82V79.0834H207.137V87.7667ZM207.137 78.99H215.82V70.3068H207.137V78.99ZM207.137 70.2133H215.82V61.5301H207.137V70.2133ZM207.137 61.4367H215.82V52.7534H207.137V61.4367ZM207.137 52.66H215.82V43.9768H207.137V52.66ZM207.137 43.8833H215.82V35.2001H207.137V43.8833ZM207.137 35.1067H215.82V26.4234H207.137V35.1067ZM207.137 26.33H215.82V17.6468H207.137V26.33ZM207.137 17.5533H215.82V8.87011H207.137V17.5533ZM207.137 8.77667H215.82V0.0934483H207.137V8.77667ZM198.36 184.306H207.043V175.623H198.36V184.306ZM198.36 175.53H207.043V166.846H198.36V175.53ZM198.36 166.753H207.043V158.088H198.36V166.753ZM198.36 157.976H207.043V149.293H198.36V157.976ZM198.36 149.2H207.043V140.52H198.36V149.2ZM198.36 140.423H207.043V131.74H198.36V140.423ZM198.36 131.646H207.043V122.952H198.36V131.646ZM198.36 122.87H207.043V114.186H198.36V122.87ZM198.36 114.093H207.043V105.413H198.36V114.093ZM198.36 105.32H207.043V96.6368H198.36V105.32ZM198.36 96.5433H207.043V87.8601H198.36V96.5433ZM198.36 87.7667H207.043V79.0834H198.36V87.7667ZM198.36 78.99H207.043V70.3068H198.36V78.99ZM198.36 70.2133H207.043V61.5301H198.36V70.2133ZM198.36 61.4367H207.043V52.7534H198.36V61.4367ZM198.36 52.66H207.043V43.9768H198.36V52.66ZM198.36 43.8833H207.043V35.2001H198.36V43.8833ZM198.36 35.1067H207.043V26.4234H198.36V35.1067ZM198.36 26.33H207.043V17.6468H198.36V26.33ZM198.36 17.5533H207.043V8.87011H198.36V17.5533ZM198.36 8.77667H207.043V0.0934483H198.36V8.77667ZM189.583 184.306H198.266V175.623H189.583V184.306ZM189.583 175.53H198.266V166.846H189.583V175.53ZM189.583 166.753H198.266V158.088H189.583V166.753ZM189.583 157.976H198.266V149.293H189.583V157.976ZM189.583 149.2H198.266V140.52H189.583V149.2ZM189.583 140.423H198.266V131.74H189.583V140.423ZM189.583 131.646H198.266V122.952H189.583V131.646ZM189.583 122.87H198.266V114.186H189.583V122.87ZM189.583 114.093H198.266V105.413H189.583V114.093ZM189.583 105.32H198.266V96.6368H189.583V105.32ZM189.583 96.5433H198.266V87.8601H189.583V96.5433ZM189.583 87.7667H198.266V79.0834H189.583V87.7667ZM189.583 78.99H198.266V70.3068H189.583V78.99ZM189.583 70.2133H198.266V61.5301H189.583V70.2133ZM189.583 61.4367H198.266V52.7534H189.583V61.4367ZM189.583 52.66H198.266V43.9768H189.583V52.66ZM189.583 43.8833H198.266V35.2001H189.583V43.8833ZM189.583 35.1067H198.266V26.4234H189.583V35.1067ZM189.583 26.33H198.266V17.6468H189.583V26.33ZM189.583 17.5533H198.266V8.87011H189.583V17.5533ZM189.583 8.77667H198.266V0.0934483H189.583V8.77667ZM180.807 184.306H189.49V175.623H180.807V184.306ZM180.807 175.53H189.49V166.846H180.807V175.53ZM180.807 166.753H189.49V158.088H180.807V166.753ZM180.807 157.976H189.49V149.293H180.807V157.976ZM180.807 149.2H189.49V140.52H180.807V149.2ZM180.807 140.423H189.49V131.74H180.807V140.423ZM180.807 131.646H189.49V122.952H180.807V131.646ZM180.807 122.87H189.49V114.186H180.807V122.87ZM180.807 114.093H189.49V105.413H180.807V114.093ZM180.807 105.32H189.49V96.6368H180.807V105.32ZM180.807 96.5433H189.49V87.8601H180.807V96.5433ZM180.807 87.7667H189.49V79.0834H180.807V87.7667ZM180.807 78.99H189.49V70.3068H180.807V78.99ZM180.807 70.2133H189.49V61.5301H180.807V70.2133ZM180.807 61.4367H189.49V52.7534H180.807V61.4367ZM180.807 52.66H189.49V43.9768H180.807V52.66ZM180.807 43.8833H189.49V35.2001H180.807V43.8833ZM180.807 35.1067H189.49V26.4234H180.807V35.1067ZM180.807 26.33H189.49V17.6468H180.807V26.33ZM180.807 17.5533H189.49V8.87011H180.807V17.5533ZM180.807 8.77667H189.49V0.0934483H180.807V8.77667ZM172.03 184.306H180.713V175.623H172.03V184.306ZM172.03 175.53H180.713V166.846H172.03V175.53ZM172.03 166.753H180.713V158.088H172.03V166.753ZM172.03 157.976H180.713V149.293H172.03V157.976ZM172.03 149.2H180.713V140.52H172.03V149.2ZM172.03 140.423H180.713V131.74H172.03V140.423ZM172.03 131.646H180.713V122.952H172.03V131.646ZM172.03 122.87H180.713V114.186H172.03V122.87ZM172.03 114.093H180.713V105.413H172.03V114.093ZM172.03 105.32H180.713V96.6368H172.03V105.32ZM172.03 96.5433H180.713V87.8601H172.03V96.5433ZM172.03 87.7667H180.713V79.0834H172.03V87.7667ZM172.03 78.99H180.713V70.3068H172.03V78.99ZM172.03 70.2133H180.713V61.5301H172.03V70.2133ZM172.03 61.4367H180.713V52.7534H172.03V61.4367ZM172.03 52.66H180.713V43.9768H172.03V52.66ZM172.03 43.8833H180.713V35.2001H172.03V43.8833ZM172.03 35.1067H180.713V26.4234H172.03V35.1067ZM172.03 26.33H180.713V17.6468H172.03V26.33ZM172.03 17.5533H180.713V8.87011H172.03V17.5533ZM172.03 8.77667H180.713V0.0934483H172.03V8.77667ZM163.253 184.306H171.94V175.623H163.257L163.253 184.306ZM163.253 175.53H171.94V166.846H163.257L163.253 175.53ZM163.253 166.753H171.94V158.088H163.257L163.253 166.753ZM163.253 157.976H171.94V149.293H163.257L163.253 157.976ZM163.253 149.2H171.94V140.52H163.257L163.253 149.2ZM163.253 140.423H171.94V131.74H163.257L163.253 140.423ZM163.253 131.646H171.94V122.952H163.257L163.253 131.646ZM163.253 122.87H171.94V114.186H163.257L163.253 122.87ZM163.253 114.093H171.94V105.413H163.257L163.253 114.093ZM163.253 105.32H171.94V96.6368H163.257L163.253 105.32ZM163.253 96.5433H171.94V87.8601H163.257L163.253 96.5433ZM163.253 87.7667H171.94V79.0834H163.257L163.253 87.7667ZM163.253 78.99H171.94V70.3068H163.257L163.253 78.99ZM163.253 70.2133H171.94V61.5301H163.257L163.253 70.2133ZM163.253 61.4367H171.94V52.7534H163.257L163.253 61.4367ZM163.253 52.66H171.94V43.9768H163.257L163.253 52.66ZM163.253 43.8833H171.94V35.2001H163.257L163.253 43.8833ZM163.253 35.1067H171.94V26.4234H163.257L163.253 35.1067ZM163.253 26.33H171.94V17.6468H163.257L163.253 26.33ZM163.253 17.5533H171.94V8.87011H163.257L163.253 17.5533ZM163.253 8.77667H171.94V0.0934483H163.257L163.253 8.77667ZM154.477 184.306H163.16V175.623H154.477V184.306ZM154.477 175.53H163.16V166.846H154.477V175.53ZM154.477 166.753H163.16V158.088H154.477V166.753ZM154.477 157.976H163.16V149.293H154.477V157.976ZM154.477 149.2H163.16V140.52H154.477V149.2ZM154.477 140.423H163.16V131.74H154.477V140.423ZM154.477 131.646H163.16V122.952H154.477V131.646ZM154.477 122.87H163.16V114.186H154.477V122.87ZM154.477 114.093H163.16V105.413H154.477V114.093ZM154.477 105.32H163.16V96.6368H154.477V105.32ZM154.477 96.5433H163.16V87.8601H154.477V96.5433ZM154.477 87.7667H163.16V79.0834H154.477V87.7667ZM154.477 78.99H163.16V70.3068H154.477V78.99ZM154.477 70.2133H163.16V61.5301H154.477V70.2133ZM154.477 61.4367H163.16V52.7534H154.477V61.4367ZM154.477 52.66H163.16V43.9768H154.477V52.66ZM154.477 43.8833H163.16V35.2001H154.477V43.8833ZM154.477 35.1067H163.16V26.4234H154.477V35.1067ZM154.477 26.33H163.16V17.6468H154.477V26.33ZM154.477 17.5533H163.16V8.87011H154.477V17.5533ZM154.477 8.77667H163.16V0.0934483H154.477V8.77667ZM145.704 184.306H154.372V175.623H145.692L145.704 184.306ZM145.704 175.53H154.372V166.846H145.692L145.704 175.53ZM145.704 166.753H154.372V158.088H145.692L145.704 166.753ZM145.704 157.976H154.372V149.293H145.692L145.704 157.976ZM145.704 149.2H154.372V140.52H145.692L145.704 149.2ZM145.704 140.423H154.372V131.74H145.692L145.704 140.423ZM145.704 131.646H154.372V122.952H145.692L145.704 131.646ZM145.704 122.87H154.372V114.186H145.692L145.704 122.87ZM145.704 114.093H154.372V105.413H145.692L145.704 114.093ZM145.704 105.32H154.372V96.6368H145.692L145.704 105.32ZM145.704 96.5433H154.372V87.8601H145.692L145.704 96.5433ZM145.704 87.7667H154.372V79.0834H145.692L145.704 87.7667ZM145.704 78.99H154.372V70.3068H145.692L145.704 78.99ZM145.704 70.2133H154.372V61.5301H145.692L145.704 70.2133ZM145.704 61.4367H154.372V52.7534H145.692L145.704 61.4367ZM145.704 52.66H154.372V43.9768H145.692L145.704 52.66ZM145.704 43.8833H154.372V35.2001H145.692L145.704 43.8833ZM145.704 35.1067H154.372V26.4234H145.692L145.704 35.1067ZM145.704 26.33H154.372V17.6468H145.692L145.704 26.33ZM145.704 17.5533H154.372V8.87011H145.692L145.704 17.5533ZM145.704 8.77667H154.372V0.0934483H145.692L145.704 8.77667ZM136.927 184.306H145.61V175.623H136.927V184.306ZM136.927 175.53H145.61V166.846H136.927V175.53ZM136.927 166.753H145.61V158.088H136.927V166.753ZM136.927 157.976H145.61V149.293H136.927V157.976ZM136.927 149.2H145.61V140.52H136.927V149.2ZM136.927 140.423H145.61V131.74H136.927V140.423ZM136.927 131.646H145.61V122.952H136.927V131.646ZM136.927 122.87H145.61V114.186H136.927V122.87ZM136.927 114.093H145.61V105.413H136.927V114.093ZM136.927 105.32H145.61V96.6368H136.927V105.32ZM136.927 96.5433H145.61V87.8601H136.927V96.5433ZM136.927 87.7667H145.61V79.0834H136.927V87.7667ZM136.927 78.99H145.61V70.3068H136.927V78.99ZM136.927 70.2133H145.61V61.5301H136.927V70.2133ZM136.927 61.4367H145.61V52.7534H136.927V61.4367ZM136.927 52.66H145.61V43.9768H136.927V52.66ZM136.927 43.8833H145.61V35.2001H136.927V43.8833ZM136.927 35.1067H145.61V26.4234H136.927V35.1067ZM136.927 26.33H145.61V17.6468H136.927V26.33ZM136.927 17.5533H145.61V8.87011H136.927V17.5533ZM136.927 8.77667H145.61V0.0934483H136.927V8.77667ZM128.15 184.306H136.834V175.623H128.15V184.306ZM128.15 175.53H136.834V166.846H128.15V175.53ZM128.15 166.753H136.834V158.088H128.15V166.753ZM128.15 157.976H136.834V149.293H128.15V157.976ZM128.15 149.2H136.834V140.52H128.15V149.2ZM128.15 140.423H136.834V131.74H128.15V140.423ZM128.15 131.646H136.834V122.952H128.15V131.646ZM128.15 122.87H136.834V114.186H128.15V122.87ZM128.15 114.093H136.834V105.413H128.15V114.093ZM128.15 105.32H136.834V96.6368H128.15V105.32ZM128.15 96.5433H136.834V87.8601H128.15V96.5433ZM128.15 87.7667H136.834V79.0834H128.15V87.7667ZM128.15 78.99H136.834V70.3068H128.15V78.99ZM128.15 70.2133H136.834V61.5301H128.15V70.2133ZM128.15 61.4367H136.834V52.7534H128.15V61.4367ZM128.15 52.66H136.834V43.9768H128.15V52.66ZM128.15 43.8833H136.834V35.2001H128.15V43.8833ZM128.15 35.1067H136.834V26.4234H128.15V35.1067ZM128.15 26.33H136.834V17.6468H128.15V26.33ZM128.15 17.5533H136.834V8.87011H128.15V17.5533ZM128.15 8.77667H136.834V0.0934483H128.15V8.77667ZM119.374 184.306H128.057V175.623H119.374V184.306ZM119.374 175.53H128.057V166.846H119.374V175.53ZM119.374 166.753H128.057V158.088H119.374V166.753ZM119.374 157.976H128.057V149.293H119.374V157.976ZM119.374 149.2H128.057V140.52H119.374V149.2ZM119.374 140.423H128.057V131.74H119.374V140.423ZM119.374 131.646H128.057V122.952H119.374V131.646ZM119.374 122.87H128.057V114.186H119.374V122.87ZM119.374 114.093H128.057V105.413H119.374V114.093ZM119.374 105.32H128.057V96.6368H119.374V105.32ZM119.374 96.5433H128.057V87.8601H119.374V96.5433ZM119.374 87.7667H128.057V79.0834H119.374V87.7667ZM119.374 78.99H128.057V70.3068H119.374V78.99ZM119.374 70.2133H128.057V61.5301H119.374V70.2133ZM119.374 61.4367H128.057V52.7534H119.374V61.4367ZM119.374 52.66H128.057V43.9768H119.374V52.66ZM119.374 43.8833H128.057V35.2001H119.374V43.8833ZM119.374 35.1067H128.057V26.4234H119.374V35.1067ZM119.374 26.33H128.057V17.6468H119.374V26.33ZM119.374 17.5533H128.057V8.87011H119.374V17.5533ZM119.374 8.77667H128.057V0.0934483H119.374V8.77667ZM110.597 184.306H119.28V175.623H110.597V184.306ZM110.597 175.53H119.28V166.846H110.597V175.53ZM110.597 166.753H119.28V158.088H110.597V166.753ZM110.597 157.976H119.28V149.293H110.597V157.976ZM110.597 149.2H119.28V140.52H110.597V149.2ZM110.597 140.423H119.28V131.74H110.597V140.423ZM110.597 131.646H119.28V122.952H110.597V131.646ZM110.597 122.87H119.28V114.186H110.597V122.87ZM110.597 114.093H119.28V105.413H110.597V114.093ZM110.597 105.32H119.28V96.6368H110.597V105.32ZM110.597 96.5433H119.28V87.8601H110.597V96.5433ZM110.597 87.7667H119.28V79.0834H110.597V87.7667ZM110.597 78.99H119.28V70.3068H110.597V78.99ZM110.597 70.2133H119.28V61.5301H110.597V70.2133ZM110.597 61.4367H119.28V52.7534H110.597V61.4367ZM110.597 52.66H119.28V43.9768H110.597V52.66ZM110.597 43.8833H119.28V35.2001H110.597V43.8833ZM110.597 35.1067H119.28V26.4234H110.597V35.1067ZM110.597 26.33H119.28V17.6468H110.597V26.33ZM110.597 17.5533H119.28V8.87011H110.597V17.5533ZM110.597 8.77667H119.28V0.0934483H110.597V8.77667ZM101.82 184.306H110.504V175.623H101.82V184.306ZM101.82 175.53H110.504V166.846H101.82V175.53ZM101.82 166.753H110.504V158.088H101.82V166.753ZM101.82 157.976H110.504V149.293H101.82V157.976ZM101.82 149.2H110.504V140.52H101.82V149.2ZM101.82 140.423H110.504V131.74H101.82V140.423ZM101.82 131.646H110.504V122.952H101.82V131.646ZM101.82 122.87H110.504V114.186H101.82V122.87ZM101.82 114.093H110.504V105.413H101.82V114.093ZM101.82 105.32H110.504V96.6368H101.82V105.32ZM101.82 96.5433H110.504V87.8601H101.82V96.5433ZM101.82 87.7667H110.504V79.0834H101.82V87.7667ZM101.82 78.99H110.504V70.3068H101.82V78.99ZM101.82 70.2133H110.504V61.5301H101.82V70.2133ZM101.82 61.4367H110.504V52.7534H101.82V61.4367ZM101.82 52.66H110.504V43.9768H101.82V52.66ZM101.82 43.8833H110.504V35.2001H101.82V43.8833ZM101.82 35.1067H110.504V26.4234H101.82V35.1067ZM101.82 26.33H110.504V17.6468H101.82V26.33ZM101.82 17.5533H110.504V8.87011H101.82V17.5533ZM101.82 8.77667H110.504V0.0934483H101.82V8.77667ZM93.0437 184.306H101.727V175.623H93.0437V184.306ZM93.0437 175.53H101.727V166.846H93.0437V175.53ZM93.0437 166.753H101.727V158.088H93.0437V166.753ZM93.0437 157.976H101.727V149.293H93.0437V157.976ZM93.0437 149.2H101.727V140.52H93.0437V149.2ZM93.0437 140.423H101.727V131.74H93.0437V140.423ZM93.0437 131.646H101.727V122.952H93.0437V131.646ZM93.0437 122.87H101.727V114.186H93.0437V122.87ZM93.0437 114.093H101.727V105.413H93.0437V114.093ZM93.0437 105.32H101.727V96.6368H93.0437V105.32ZM93.0437 96.5433H101.727V87.8601H93.0437V96.5433ZM93.0437 87.7667H101.727V79.0834H93.0437V87.7667ZM93.0437 78.99H101.727V70.3068H93.0437V78.99ZM93.0437 70.2133H101.727V61.5301H93.0437V70.2133ZM93.0437 61.4367H101.727V52.7534H93.0437V61.4367ZM93.0437 52.66H101.727V43.9768H93.0437V52.66ZM93.0437 43.8833H101.727V35.2001H93.0437V43.8833ZM93.0437 35.1067H101.727V26.4234H93.0437V35.1067ZM93.0437 26.33H101.727V17.6468H93.0437V26.33ZM93.0437 17.5533H101.727V8.87011H93.0437V17.5533ZM93.0437 8.77667H101.727V0.0934483H93.0437V8.77667ZM84.267 184.306H92.9502V175.623H84.267V184.306ZM84.267 175.53H92.9502V166.846H84.267V175.53ZM84.267 166.753H92.9502V158.088H84.267V166.753ZM84.267 157.976H92.9502V149.293H84.267V157.976ZM84.267 149.2H92.9502V140.52H84.267V149.2ZM84.267 140.423H92.9502V131.74H84.267V140.423ZM84.267 131.646H92.9502V122.952H84.267V131.646ZM84.267 122.87H92.9502V114.186H84.267V122.87ZM84.267 114.093H92.9502V105.413H84.267V114.093ZM84.267 105.32H92.9502V96.6368H84.267V105.32ZM84.267 96.5433H92.9502V87.8601H84.267V96.5433ZM84.267 87.7667H92.9502V79.0834H84.267V87.7667ZM84.267 78.99H92.9502V70.3068H84.267V78.99ZM84.267 70.2133H92.9502V61.5301H84.267V70.2133ZM84.267 61.4367H92.9502V52.7534H84.267V61.4367ZM84.267 52.66H92.9502V43.9768H84.267V52.66ZM84.267 43.8833H92.9502V35.2001H84.267V43.8833ZM84.267 35.1067H92.9502V26.4234H84.267V35.1067ZM84.267 26.33H92.9502V17.6468H84.267V26.33ZM84.267 17.5533H92.9502V8.87011H84.267V17.5533ZM84.267 8.77667H92.9502V0.0934483H84.267V8.77667ZM75.5016 184.306H84.1736V175.623H75.5016V184.306ZM75.5016 175.53H84.1736V166.846H75.5016V175.53ZM75.5016 166.753H84.1736V158.088H75.5016V166.753ZM75.5016 157.976H84.1736V149.293H75.5016V157.976ZM75.5016 149.2H84.1736V140.52H75.5016V149.2ZM75.5016 140.423H84.1736V131.74H75.5016V140.423ZM75.5016 131.646H84.1736V122.952H75.5016V131.646ZM75.5016 122.87H84.1736V114.186H75.5016V122.87ZM75.5016 114.093H84.1736V105.413H75.5016V114.093ZM75.5016 105.32H84.1736V96.6368H75.5016V105.32ZM75.5016 96.5433H84.1736V87.8601H75.5016V96.5433ZM75.5016 87.7667H84.1736V79.0834H75.5016V87.7667ZM75.5016 78.99H84.1736V70.3068H75.5016V78.99ZM75.5016 70.2133H84.1736V61.5301H75.5016V70.2133ZM75.5016 61.4367H84.1736V52.7534H75.5016V61.4367ZM75.5016 52.6787H84.1736V43.9768H75.5016V52.6787ZM75.5016 43.902H84.1736V35.2001H75.5016V43.902ZM75.5016 35.1104H84.1736V26.4234H75.5016V35.1104ZM75.5016 26.3337H84.1736V17.6468H75.5016V26.3337ZM75.5016 17.5421H84.1736V8.87011H75.5016V17.5421ZM75.5016 8.76545H84.1736V0.0934483H75.5016V8.76545ZM66.7249 184.295H75.3969V175.623H66.7137L66.7249 184.295ZM66.7249 175.518H75.3969V166.846H66.7137L66.7249 175.518ZM66.7249 166.742H75.3969V158.088H66.7137L66.7249 166.742ZM66.7249 157.965H75.3969V149.293H66.7137L66.7249 157.965ZM66.7249 149.188H75.3969V140.52H66.7137L66.7249 149.188ZM66.7249 140.412H75.3969V131.74H66.7137L66.7249 140.412ZM66.7249 131.635H75.3969V122.952H66.7137L66.7249 131.635ZM66.7249 122.858H75.3969V114.186H66.7137L66.7249 122.858ZM66.7249 114.082H75.3969V105.413H66.7137L66.7249 114.082ZM66.7249 105.309H75.3969V96.6368H66.7137L66.7249 105.309ZM66.7249 96.5321H75.3969V87.8601H66.7137L66.7249 96.5321ZM66.7249 87.7554H75.3969V79.0834H66.7137L66.7249 87.7554ZM66.7249 78.9788H75.3969V70.3068H66.7137L66.7249 78.9788ZM66.7249 70.2021H75.3969V61.5301H66.7137L66.7249 70.2021ZM66.7249 61.4254H75.3969V52.7534H66.7137L66.7249 61.4254ZM66.7249 52.6488H75.3969V43.9768H66.7137L66.7249 52.6488ZM66.7249 43.8721H75.3969V35.2001H66.7137L66.7249 43.8721ZM66.7249 35.0954H75.3969V26.4234H66.7137L66.7249 35.0954ZM66.7249 26.3188H75.3969V17.6468H66.7137L66.7249 26.3188ZM66.7249 17.5421H75.3969V8.87011H66.7137L66.7249 17.5421ZM66.7249 8.76545H75.3969V0.0934483H66.7137L66.7249 8.76545ZM57.9333 184.306H66.6203V175.623H57.9333V184.306ZM57.9333 175.53H66.6203V166.846H57.9333V175.53ZM57.9333 166.753H66.6203V158.088H57.9333V166.753ZM57.9333 157.976H66.6203V149.293H57.9333V157.976ZM57.9333 149.2H66.6203V140.52H57.9333V149.2ZM57.9333 140.423H66.6203V131.74H57.9333V140.423ZM57.9333 131.646H66.6203V122.952H57.9333V131.646ZM57.9333 122.87H66.6203V114.186H57.9333V122.87ZM57.9333 114.093H66.6203V105.413H57.9333V114.093ZM57.9333 105.32H66.6203V96.6368H57.9333V105.32ZM57.9333 96.5433H66.6203V87.8601H57.9333V96.5433ZM57.9333 87.7667H66.6203V79.0834H57.9333V87.7667ZM57.9333 78.99H66.6203V70.3068H57.9333V78.99ZM57.9333 70.2133H66.6203V61.5301H57.9333V70.2133ZM57.9333 61.4367H66.6203V52.7534H57.9333V61.4367ZM57.9333 52.6787H66.6203V43.9768H57.9333V52.6787ZM57.9333 43.902H66.6203V35.2001H57.9333V43.902ZM57.9333 35.1104H66.6203V26.4234H57.9333V35.1104ZM57.9333 26.3337H66.6203V17.6468H57.9333V26.3337ZM57.9333 17.5421H66.6203V8.87011H57.9333V17.5421ZM57.9333 8.76545H66.6203V0.0934483H57.9333V8.76545ZM49.1566 184.295H57.8436V175.623H49.1604L49.1566 184.295ZM49.1566 175.518H57.8436V166.846H49.1604L49.1566 175.518ZM49.1566 166.742H57.8436V158.088H49.1604L49.1566 166.742ZM49.1566 157.965H57.8436V149.293H49.1604L49.1566 157.965ZM49.1566 149.188H57.8436V140.52H49.1604L49.1566 149.188ZM49.1566 140.412H57.8436V131.74H49.1604L49.1566 140.412ZM49.1566 131.635H57.8436V122.952H49.1604L49.1566 131.635ZM49.1566 122.858H57.8436V114.186H49.1604L49.1566 122.858ZM49.1566 114.082H57.8436V105.413H49.1604L49.1566 114.082ZM49.1566 105.309H57.8436V96.6368H49.1604L49.1566 105.309ZM49.1566 96.5321H57.8436V87.8601H49.1604L49.1566 96.5321ZM49.1566 87.7554H57.8436V79.0834H49.1604L49.1566 87.7554ZM49.1566 78.9788H57.8436V70.3068H49.1604L49.1566 78.9788ZM49.1566 70.2021H57.8436V61.5301H49.1604L49.1566 70.2021ZM49.1566 61.4254H57.8436V52.7534H49.1604L49.1566 61.4254ZM49.1566 52.6488H57.8436V43.9768H49.1604L49.1566 52.6488ZM49.1566 43.8721H57.8436V35.2001H49.1604L49.1566 43.8721ZM49.1566 35.0954H57.8436V26.4234H49.1604L49.1566 35.0954ZM49.1566 26.3188H57.8436V17.6468H49.1604L49.1566 26.3188ZM49.1566 17.5421H57.8436V8.87011H49.1604L49.1566 17.5421ZM49.1566 8.76545H57.8436V0.0934483H49.1604L49.1566 8.76545ZM40.365 184.306H49.0669V175.623H40.365V184.306ZM40.365 175.53H49.0669V166.846H40.365V175.53ZM40.365 166.753H49.0669V158.088H40.365V166.753ZM40.365 157.976H49.0669V149.293H40.365V157.976ZM40.365 149.2H49.0669V140.52H40.365V149.2ZM40.365 140.423H49.0669V131.74H40.365V140.423ZM40.365 131.646H49.0669V122.952H40.365V131.646ZM40.365 122.87H49.0669V114.186H40.365V122.87ZM40.365 114.093H49.0669V105.413H40.365V114.093ZM40.365 105.32H49.0669V96.6368H40.365V105.32ZM40.365 96.5433H49.0669V87.8601H40.365V96.5433ZM40.365 87.7667H49.0669V79.0834H40.365V87.7667ZM40.365 78.99H49.0669V70.3068H40.365V78.99ZM40.365 70.2133H49.0669V61.5301H40.365V70.2133ZM40.365 61.4367H49.0669V52.7534H40.365V61.4367ZM40.365 52.6787H49.0669V43.9768H40.365V52.6787ZM40.365 43.902H49.0669V35.2001H40.365V43.902ZM40.365 35.1104H49.0669V26.4234H40.365V35.1104ZM40.365 26.3337H49.0669V17.6468H40.365V26.3337ZM40.365 17.5421H49.0669V8.87011H40.365V17.5421ZM40.365 8.76545H49.0669V0.0934483H40.365V8.76545Z" fill="url(#paint0_radial_1505_1557)"/>
<path d="M-29.4685 69.8086C-50.1628 90.4852 -50.1793 124.02 -29.5071 144.716C-8.83493 165.412 24.6971 165.428 45.3913 144.755C66.0855 124.081 99.6176 124.097 120.29 144.793C140.962 165.489 140.945 199.032 120.254 219.709" stroke="#FFFFE0" stroke-width="0.25" stroke-miterlimit="10"/>
<path opacity="0.28" d="M90.3363 163.123L90.3698 163.156L90.4032 163.189L99.9747 172.76L100.008 172.793L100.042 172.827L109.613 182.397L109.646 182.432L109.68 182.466L116.378 189.163L116.278 189.255L109.584 182.562L109.55 182.528L109.517 182.495L99.9454 172.924L99.912 172.891L99.8786 172.857L90.3057 163.287L90.2723 163.252L90.2388 163.219L88.3073 161.287L88.3992 161.187L90.3363 163.123Z" fill="#CDCDCD"/>
<path opacity="0.28" d="M89.406 164.119L89.4394 164.152L99.0109 173.723L99.0443 173.756L99.0777 173.79L108.649 183.359L108.683 183.392L108.716 183.426L115.355 190.064L115.249 190.15L108.62 183.522L108.587 183.488L108.553 183.455L98.9816 173.89L98.9482 173.857L98.9148 173.823L89.3391 164.25L89.3057 164.216L89.2723 164.182L87.4062 162.316C87.4354 162.281 87.4632 162.245 87.4925 162.208L89.3725 164.086L89.406 164.119Z" fill="#CDCDCD"/>
<path opacity="0.28" d="M85.5498 167.975L85.5832 168.009L95.1547 177.579L95.1882 177.612L95.2216 177.646L104.797 187.216L104.831 187.25L104.866 187.283L110.563 192.985L110.423 193.043L104.76 187.379L104.726 187.346L104.693 187.312L95.1213 177.742L95.0879 177.709L95.0545 177.675L85.483 168.105L85.4495 168.071L85.4161 168.038L84.5151 167.137C84.5346 167.092 84.5527 167.046 84.5722 166.998L85.5122 167.937L85.5498 167.975Z" fill="#CDCDCD"/>
<path opacity="0.28" d="M87.4772 166.048L87.5106 166.081L97.0835 175.652L97.1169 175.685L97.1503 175.719L106.722 185.289L106.755 185.323L106.789 185.356L113.104 191.671L112.984 191.744L106.693 185.448L106.658 185.415L106.624 185.381L97.0529 175.811L97.0194 175.777L96.986 175.744L87.4145 166.173L87.3811 166.14L87.3477 166.107L85.8158 164.575L85.8896 164.455L87.4437 166.013L87.4772 166.048Z" fill="#CDCDCD"/>
<path opacity="0.28" d="M84.5862 168.939L84.6196 168.972L94.1911 178.543L94.2245 178.576L94.2579 178.61L103.822 188.18L103.856 188.214L103.889 188.247L109.17 193.525L109.031 193.572L103.806 188.349L103.772 188.315L103.739 188.281L94.1674 178.71L94.134 178.677L94.1006 178.643L84.5291 169.073L84.4956 169.039L84.4622 169.006L83.9985 168.544C84.0152 168.495 84.0305 168.446 84.0472 168.404L84.5583 168.915L84.5862 168.939Z" fill="#CDCDCD"/>
<path opacity="0.28" d="M86.5135 167.011L86.5469 167.044L96.1185 176.615L96.1519 176.648L96.1853 176.682L105.758 186.252L105.792 186.286L105.825 186.319L111.872 192.365L111.745 192.432L105.728 186.422L105.694 186.389L105.661 186.355L96.0892 176.785L96.0558 176.751L96.0224 176.718L86.4509 167.147L86.4174 167.114L86.384 167.081L85.1306 165.827L85.1961 165.701L86.4815 166.986L86.5135 167.011Z" fill="#CDCDCD"/>
<path opacity="0.28" d="M88.4409 165.083L88.4743 165.116L98.0472 174.688L98.0806 174.721L98.114 174.755L107.686 184.325L107.719 184.359L107.752 184.392L114.267 190.903L114.154 190.983L107.659 184.488L107.626 184.455L107.591 184.421L98.0193 174.851L97.9859 174.818L97.9525 174.784L88.3782 165.214L88.3448 165.18L88.3113 165.147L86.5789 163.413L86.6583 163.3L88.4074 165.049L88.4409 165.083Z" fill="#CDCDCD"/>
<path opacity="0.28" d="M83.656 169.935L93.2275 179.506L93.2609 179.539L93.2943 179.573L102.866 189.143L102.899 189.177L102.933 189.21L107.684 193.961L107.53 193.999L102.837 189.308L102.803 189.274L102.77 189.241L93.1982 179.67L93.1648 179.635L93.1314 179.602L83.5613 170.034L83.5822 169.947C83.5822 169.926 83.5919 169.906 83.5975 169.887L83.6198 169.909L83.656 169.935Z" fill="#CDCDCD"/>
<path opacity="0.28" d="M89.4062 183.396L89.4396 183.429L99.0111 193L99.0445 193.033L99.078 193.066L100.45 194.438L100.231 194.413L98.9777 193.16L98.9443 193.126L98.9109 193.093L89.3393 183.525L89.3059 183.492L89.2725 183.458L83.145 177.331L83.1199 177.113L89.3728 183.359L89.4062 183.396Z" fill="#CDCDCD"/>
<path opacity="0.28" d="M91.3335 181.467L91.367 181.5L100.938 191.072L100.972 191.105L101.005 191.139L104.38 194.51L104.2 194.524L100.911 191.235L100.877 191.201L100.844 191.168L91.2723 181.598L91.2388 181.564L91.2054 181.531L83.0391 173.365C83.0391 173.305 83.0474 173.245 83.053 173.186L91.3015 181.433L91.3335 181.467Z" fill="#CDCDCD"/>
<path opacity="0.28" d="M90.3696 182.432L90.403 182.465L99.9745 192.036L100.008 192.069L100.041 192.103L102.51 194.572H102.316L99.9481 192.205L99.9146 192.171L99.8812 192.138L90.3083 182.567L90.2749 182.534L90.2415 182.5L82.9998 175.259C82.9998 175.194 82.9998 175.129 82.9998 175.064L90.3459 182.408L90.3696 182.432Z" fill="#CDCDCD"/>
<path opacity="0.28" d="M92.2972 180.503L92.3306 180.537L101.902 190.107L101.936 190.141L101.969 190.174L106.093 194.297L105.927 194.325L101.873 190.272L101.839 190.238L101.806 190.205L92.2345 180.634L92.2011 180.601L92.1677 180.566L83.2368 171.637C83.2451 171.582 83.2549 171.527 83.2646 171.472L92.2638 180.47L92.2972 180.503Z" fill="#CDCDCD"/>
<path opacity="0.28" d="M87.4773 185.323L87.5107 185.356L95.2454 193.09L94.9111 192.951L87.4146 185.448L87.3812 185.415L87.3478 185.381L84.6141 182.648C84.5658 182.536 84.5194 182.425 84.4748 182.313L87.4467 185.285L87.4773 185.323Z" fill="#CDCDCD"/>
<path opacity="0.28" d="M88.4409 184.359L88.4743 184.393L98.0472 193.963L98.0807 193.996L98.1016 194.017L98.0667 194.009L98.0138 193.996C97.9581 193.983 97.901 193.97 97.8453 193.955L88.3755 184.486L88.342 184.452L88.3086 184.419L83.6043 179.714C83.5821 179.63 83.5626 179.544 83.5417 179.459L88.4047 184.323L88.4409 184.359Z" fill="#CDCDCD"/>
<path opacity="0.28" d="M112.441 160.361L112.408 160.328L107.687 155.608L107.95 155.678L112.504 160.231L112.538 160.265L112.571 160.298L121.888 169.613C121.911 169.7 121.935 169.788 121.957 169.876L112.475 160.394L112.441 160.361Z" fill="#CDCDCD"/>
<path opacity="0.28" d="M117.557 161.62L115.938 160.009C116.508 160.515 117.048 161.052 117.557 161.62V161.62Z" fill="#CDCDCD"/>
<path opacity="0.28" d="M113.405 159.397L113.372 159.364L110.614 156.606L110.96 156.762L113.466 159.269L113.501 159.302L113.535 159.336L120.813 166.604C120.864 166.719 120.914 166.834 120.964 166.95L113.444 159.43L113.405 159.397Z" fill="#CDCDCD"/>
<path opacity="0.28" d="M89.4396 189.404L88.1584 188.123C87.8 187.731 87.4583 187.325 87.1334 186.906L90.6567 190.429C90.2371 190.103 89.8314 189.761 89.4396 189.404Z" fill="#CDCDCD"/>
<path opacity="0.28" d="M118.225 173.854L118.192 173.82L108.62 164.25L108.587 164.217L108.553 164.182L99.6155 155.246L99.784 155.22L108.649 164.086L108.683 164.119L108.716 164.152L118.288 173.723L118.321 173.756L118.355 173.79L122.344 177.781C122.336 177.836 122.326 177.892 122.318 177.946L118.259 173.89L118.225 173.854Z" fill="#CDCDCD"/>
<path opacity="0.28" d="M120.152 171.926L120.119 171.892L110.548 162.322L110.514 162.288L110.481 162.255L103.224 155H103.423L110.577 162.159L110.61 162.192L110.644 162.226L120.215 171.802L120.249 171.835L120.282 171.869L122.56 174.141C122.56 174.206 122.56 174.273 122.56 174.34L120.18 171.96L120.152 171.926Z" fill="#CDCDCD"/>
<path opacity="0.28" d="M119.189 172.891L119.155 172.858L109.584 163.287L109.55 163.252L109.517 163.219L101.344 155.046L101.525 155.035L109.613 163.123L109.646 163.156L109.68 163.19L119.251 172.76L119.285 172.793L119.318 172.827L122.531 176.039C122.531 176.099 122.531 176.16 122.52 176.22L119.222 172.924L119.189 172.891Z" fill="#CDCDCD"/>
<path opacity="0.28" d="M121.116 170.966L121.083 170.933L111.511 161.358L111.478 161.325L111.444 161.291L105.306 155.155C105.381 155.163 105.456 155.176 105.53 155.185L111.54 161.195L111.574 161.229L111.607 161.262L121.179 170.827L121.212 170.861L121.247 170.894L122.38 172.027C122.39 172.103 122.401 172.178 122.411 172.252L121.149 170.99L121.116 170.966Z" fill="#CDCDCD"/>
<path opacity="0.28" d="M110.507 181.564L110.474 181.531L100.902 171.96L100.869 171.925L100.835 171.892L91.2639 162.321L91.2305 162.288L91.1971 162.255L89.2697 160.322L89.3699 160.229L91.3001 162.158L91.3335 162.192L91.367 162.225L100.938 171.801L100.972 171.835L101.005 171.868L110.577 181.433L110.61 181.467L110.644 181.5L117.331 188.192L117.238 188.291L110.542 181.598L110.507 181.564Z" fill="#CDCDCD"/>
<path opacity="0.28" d="M112.441 179.636L112.408 179.602L102.836 170.032L102.803 169.998L102.77 169.965L93.1981 160.394L93.1647 160.361L93.1312 160.328L91.396 158.594C91.4336 158.566 91.4726 158.541 91.5102 158.515L93.2273 160.232L93.2608 160.265L93.2942 160.298L102.866 169.869L102.899 169.902L102.933 169.936L112.504 179.506L112.537 179.54L112.571 179.573L119.051 186.052L118.971 186.167L112.475 179.671L112.441 179.636Z" fill="#CDCDCD"/>
<path opacity="0.28" d="M114.369 177.708L114.335 177.675L104.764 168.104L104.73 168.071L104.697 168.038L95.1255 158.467L95.0921 158.434L95.0587 158.4L93.8053 157.147L93.9348 157.083L95.1589 158.308L95.1924 158.342L95.2258 158.375L104.797 167.942L104.831 167.975L104.866 168.008L114.437 177.579L114.47 177.612L114.504 177.646L120.492 183.633C120.471 183.677 120.45 183.72 120.428 183.763L114.406 177.742L114.369 177.708Z" fill="#CDCDCD"/>
<path opacity="0.28" d="M116.298 175.781L116.264 175.748L106.693 166.177L106.658 166.144L106.624 166.111L97.0529 156.54L97.0195 156.507L96.9861 156.473L96.5196 156.005L96.6588 155.958L97.0766 156.376L97.11 156.409L97.1435 156.443L106.722 166.013L106.755 166.048L106.789 166.081L116.356 175.652L116.39 175.685L116.423 175.719L121.604 180.899C121.588 180.946 121.571 180.995 121.556 181.038L116.327 175.809L116.298 175.781Z" fill="#CDCDCD"/>
<path opacity="0.28" d="M111.482 180.601L111.448 180.566L101.873 170.995L101.839 170.962L101.806 170.928L92.2344 161.358L92.2009 161.324L92.1675 161.291L90.3 159.424L90.4059 159.337L92.2636 161.195L92.297 161.228L92.3305 161.262L101.902 170.827L101.935 170.86L101.969 170.894L111.54 180.464L111.574 180.498L111.607 180.531L118.226 187.149L118.141 187.257L111.511 180.628L111.482 180.601Z" fill="#CDCDCD"/>
<path opacity="0.28" d="M113.405 178.672L113.372 178.639L103.8 169.068L103.767 169.035L103.733 169.001L94.1618 159.431L94.1284 159.397L94.095 159.364L92.5631 157.832L92.6857 157.76L94.1911 159.269L94.2245 159.303L94.2579 159.336L103.822 168.905L103.856 168.939L103.889 168.972L113.461 178.543L113.496 178.576L113.529 178.609L119.796 184.876C119.772 184.916 119.749 184.958 119.723 184.997L113.429 178.703L113.405 178.672Z" fill="#CDCDCD"/>
<path opacity="0.28" d="M115.333 176.745L115.299 176.711L105.728 167.141L105.694 167.107L105.661 167.074L96.0893 157.503L96.0558 157.47L96.0224 157.436L95.1172 156.531L95.2565 156.476L96.1199 157.339L96.1533 157.372L96.1868 157.407L105.758 166.978L105.792 167.011L105.825 167.045L115.397 176.615L115.43 176.648L115.463 176.682L121.091 182.308C121.073 182.353 121.055 182.399 121.035 182.447L115.369 176.781L115.333 176.745Z" fill="#CDCDCD"/>
<path opacity="0.28" d="M117.261 174.818L117.228 174.784L107.656 165.214L107.623 165.18L107.588 165.147L98.0166 155.576H98.0249L98.1726 155.54L107.686 165.049L107.719 165.083L107.752 165.116L117.324 174.688L117.357 174.721L117.391 174.755L122.031 179.393C122.018 179.446 122.006 179.498 121.992 179.549L117.295 174.851L117.261 174.818Z" fill="#CDCDCD"/>
<path d="M85.9653 215V284.958H15.9997V215H85.9653ZM82.6353 284.923H85.9299V281.629H82.6353V284.923ZM82.6353 281.593H85.9299V278.299H82.6353V281.593ZM82.6353 278.263H85.9299V274.976H82.6353V278.263ZM82.6353 274.934H85.9299V271.639H82.6353V274.934ZM82.6353 271.604H85.9299V268.311H82.6353V271.604ZM82.6353 268.274H85.9299V264.98H82.6353V268.274ZM82.6353 264.945H85.9299V261.646H82.6353V264.945ZM82.6353 261.615H85.9299V258.321H82.6353V261.615ZM82.6353 258.285H85.9299V254.992H82.6353V258.285ZM82.6353 254.957H85.9299V251.663H82.6353V254.957ZM82.6353 251.627H85.9299V248.333H82.6353V251.627ZM82.6353 248.297H85.9299V245.003H82.6353V248.297ZM82.6353 244.968H85.9299V241.673H82.6353V244.968ZM82.6353 241.638H85.9299V238.344H82.6353V241.638ZM82.6353 238.308H85.9299V235.014H82.6353V238.308ZM82.6353 234.978H85.9299V231.684H82.6353V234.978ZM82.6353 231.649H85.9299V228.354H82.6353V231.649ZM82.6353 228.319H85.9299V225.025H82.6353V228.319ZM82.6353 224.989H85.9299V221.695H82.6353V224.989ZM82.6353 221.659H85.9299V218.365H82.6353V221.659ZM82.6353 218.33H85.9299V215.035H82.6353V218.33ZM79.3052 284.923H82.5998V281.629H79.3052V284.923ZM79.3052 281.593H82.5998V278.299H79.3052V281.593ZM79.3052 278.263H82.5998V274.976H79.3052V278.263ZM79.3052 274.934H82.5998V271.639H79.3052V274.934ZM79.3052 271.604H82.5998V268.311H79.3052V271.604ZM79.3052 268.274H82.5998V264.98H79.3052V268.274ZM79.3052 264.945H82.5998V261.646H79.3052V264.945ZM79.3052 261.615H82.5998V258.321H79.3052V261.615ZM79.3052 258.285H82.5998V254.992H79.3052V258.285ZM79.3052 254.957H82.5998V251.663H79.3052V254.957ZM79.3052 251.627H82.5998V248.333H79.3052V251.627ZM79.3052 248.297H82.5998V245.003H79.3052V248.297ZM79.3052 244.968H82.5998V241.673H79.3052V244.968ZM79.3052 241.638H82.5998V238.344H79.3052V241.638ZM79.3052 238.308H82.5998V235.014H79.3052V238.308ZM79.3052 234.978H82.5998V231.684H79.3052V234.978ZM79.3052 231.649H82.5998V228.354H79.3052V231.649ZM79.3052 228.319H82.5998V225.025H79.3052V228.319ZM79.3052 224.989H82.5998V221.695H79.3052V224.989ZM79.3052 221.659H82.5998V218.365H79.3052V221.659ZM79.3052 218.33H82.5998V215.035H79.3052V218.33ZM75.9751 284.923H79.2697V281.629H75.9751V284.923ZM75.9751 281.593H79.2697V278.299H75.9751V281.593ZM75.9751 278.263H79.2697V274.976H75.9751V278.263ZM75.9751 274.934H79.2697V271.639H75.9751V274.934ZM75.9751 271.604H79.2697V268.311H75.9751V271.604ZM75.9751 268.274H79.2697V264.98H75.9751V268.274ZM75.9751 264.945H79.2697V261.646H75.9751V264.945ZM75.9751 261.615H79.2697V258.321H75.9751V261.615ZM75.9751 258.285H79.2697V254.992H75.9751V258.285ZM75.9751 254.957H79.2697V251.663H75.9751V254.957ZM75.9751 251.627H79.2697V248.333H75.9751V251.627ZM75.9751 248.297H79.2697V245.003H75.9751V248.297ZM75.9751 244.968H79.2697V241.673H75.9751V244.968ZM75.9751 241.638H79.2697V238.344H75.9751V241.638ZM75.9751 238.308H79.2697V235.014H75.9751V238.308ZM75.9751 234.978H79.2697V231.684H75.9751V234.978ZM75.9751 231.649H79.2697V228.354H75.9751V231.649ZM75.9751 228.319H79.2697V225.025H75.9751V228.319ZM75.9751 224.989H79.2697V221.695H75.9751V224.989ZM75.9751 221.659H79.2697V218.365H75.9751V221.659ZM75.9751 218.33H79.2697V215.035H75.9751V218.33ZM72.645 284.923H75.9397V281.629H72.645V284.923ZM72.645 281.593H75.9397V278.299H72.645V281.593ZM72.645 278.263H75.9397V274.976H72.645V278.263ZM72.645 274.934H75.9397V271.639H72.645V274.934ZM72.645 271.604H75.9397V268.311H72.645V271.604ZM72.645 268.274H75.9397V264.98H72.645V268.274ZM72.645 264.945H75.9397V261.646H72.645V264.945ZM72.645 261.615H75.9397V258.321H72.645V261.615ZM72.645 258.285H75.9397V254.992H72.645V258.285ZM72.645 254.957H75.9397V251.663H72.645V254.957ZM72.645 251.627H75.9397V248.333H72.645V251.627ZM72.645 248.297H75.9397V245.003H72.645V248.297ZM72.645 244.968H75.9397V241.673H72.645V244.968ZM72.645 241.638H75.9397V238.344H72.645V241.638ZM72.645 238.308H75.9397V235.014H72.645V238.308ZM72.645 234.978H75.9397V231.684H72.645V234.978ZM72.645 231.649H75.9397V228.354H72.645V231.649ZM72.645 228.319H75.9397V225.025H72.645V228.319ZM72.645 224.989H75.9397V221.695H72.645V224.989ZM72.645 221.659H75.9397V218.365H72.645V221.659ZM72.645 218.33H75.9397V215.035H72.645V218.33ZM69.315 284.923H72.6096V281.629H69.315V284.923ZM69.315 281.593H72.6096V278.299H69.315V281.593ZM69.315 278.263H72.6096V274.976H69.315V278.263ZM69.315 274.934H72.6096V271.639H69.315V274.934ZM69.315 271.604H72.6096V268.311H69.315V271.604ZM69.315 268.274H72.6096V264.98H69.315V268.274ZM69.315 264.945H72.6096V261.646H69.315V264.945ZM69.315 261.615H72.6096V258.321H69.315V261.615ZM69.315 258.285H72.6096V254.992H69.315V258.285ZM69.315 254.957H72.6096V251.663H69.315V254.957ZM69.315 251.627H72.6096V248.333H69.315V251.627ZM69.315 248.297H72.6096V245.003H69.315V248.297ZM69.315 244.968H72.6096V241.673H69.315V244.968ZM69.315 241.638H72.6096V238.344H69.315V241.638ZM69.315 238.308H72.6096V235.014H69.315V238.308ZM69.315 234.978H72.6096V231.684H69.315V234.978ZM69.315 231.649H72.6096V228.354H69.315V231.649ZM69.315 228.319H72.6096V225.025H69.315V228.319ZM69.315 224.989H72.6096V221.695H69.315V224.989ZM69.315 221.659H72.6096V218.365H69.315V221.659ZM69.315 218.33H72.6096V215.035H69.315V218.33ZM65.9849 284.923H69.2795V281.629H65.9849V284.923ZM65.9849 281.593H69.2795V278.299H65.9849V281.593ZM65.9849 278.263H69.2795V274.976H65.9849V278.263ZM65.9849 274.934H69.2795V271.639H65.9849V274.934ZM65.9849 271.604H69.2795V268.311H65.9849V271.604ZM65.9849 268.274H69.2795V264.98H65.9849V268.274ZM65.9849 264.945H69.2795V261.646H65.9849V264.945ZM65.9849 261.615H69.2795V258.321H65.9849V261.615ZM65.9849 258.285H69.2795V254.992H65.9849V258.285ZM65.9849 254.957H69.2795V251.663H65.9849V254.957ZM65.9849 251.627H69.2795V248.333H65.9849V251.627ZM65.9849 248.297H69.2795V245.003H65.9849V248.297ZM65.9849 244.968H69.2795V241.673H65.9849V244.968ZM65.9849 241.638H69.2795V238.344H65.9849V241.638ZM65.9849 238.308H69.2795V235.014H65.9849V238.308ZM65.9849 234.978H69.2795V231.684H65.9849V234.978ZM65.9849 231.649H69.2795V228.354H65.9849V231.649ZM65.9849 228.319H69.2795V225.025H65.9849V228.319ZM65.9849 224.989H69.2795V221.695H65.9849V224.989ZM65.9849 221.659H69.2795V218.365H65.9849V221.659ZM65.9849 218.33H69.2795V215.035H65.9849V218.33ZM62.6548 284.923H65.9508V281.629H62.6562L62.6548 284.923ZM62.6548 281.593H65.9508V278.299H62.6562L62.6548 281.593ZM62.6548 278.263H65.9508V274.976H62.6562L62.6548 278.263ZM62.6548 274.934H65.9508V271.639H62.6562L62.6548 274.934ZM62.6548 271.604H65.9508V268.311H62.6562L62.6548 271.604ZM62.6548 268.274H65.9508V264.98H62.6562L62.6548 268.274ZM62.6548 264.945H65.9508V261.646H62.6562L62.6548 264.945ZM62.6548 261.615H65.9508V258.321H62.6562L62.6548 261.615ZM62.6548 258.285H65.9508V254.992H62.6562L62.6548 258.285ZM62.6548 254.957H65.9508V251.663H62.6562L62.6548 254.957ZM62.6548 251.627H65.9508V248.333H62.6562L62.6548 251.627ZM62.6548 248.297H65.9508V245.003H62.6562L62.6548 248.297ZM62.6548 244.968H65.9508V241.673H62.6562L62.6548 244.968ZM62.6548 241.638H65.9508V238.344H62.6562L62.6548 241.638ZM62.6548 238.308H65.9508V235.014H62.6562L62.6548 238.308ZM62.6548 234.978H65.9508V231.684H62.6562L62.6548 234.978ZM62.6548 231.649H65.9508V228.354H62.6562L62.6548 231.649ZM62.6548 228.319H65.9508V225.025H62.6562L62.6548 228.319ZM62.6548 224.989H65.9508V221.695H62.6562L62.6548 224.989ZM62.6548 221.659H65.9508V218.365H62.6562L62.6548 221.659ZM62.6548 218.33H65.9508V215.035H62.6562L62.6548 218.33ZM59.3247 284.923H62.6194V281.629H59.3247V284.923ZM59.3247 281.593H62.6194V278.299H59.3247V281.593ZM59.3247 278.263H62.6194V274.976H59.3247V278.263ZM59.3247 274.934H62.6194V271.639H59.3247V274.934ZM59.3247 271.604H62.6194V268.311H59.3247V271.604ZM59.3247 268.274H62.6194V264.98H59.3247V268.274ZM59.3247 264.945H62.6194V261.646H59.3247V264.945ZM59.3247 261.615H62.6194V258.321H59.3247V261.615ZM59.3247 258.285H62.6194V254.992H59.3247V258.285ZM59.3247 254.957H62.6194V251.663H59.3247V254.957ZM59.3247 251.627H62.6194V248.333H59.3247V251.627ZM59.3247 248.297H62.6194V245.003H59.3247V248.297ZM59.3247 244.968H62.6194V241.673H59.3247V244.968ZM59.3247 241.638H62.6194V238.344H59.3247V241.638ZM59.3247 238.308H62.6194V235.014H59.3247V238.308ZM59.3247 234.978H62.6194V231.684H59.3247V234.978ZM59.3247 231.649H62.6194V228.354H59.3247V231.649ZM59.3247 228.319H62.6194V225.025H59.3247V228.319ZM59.3247 224.989H62.6194V221.695H59.3247V224.989ZM59.3247 221.659H62.6194V218.365H59.3247V221.659ZM59.3247 218.33H62.6194V215.035H59.3247V218.33ZM55.9961 284.923H59.285V281.629H55.9918L55.9961 284.923ZM55.9961 281.593H59.285V278.299H55.9918L55.9961 281.593ZM55.9961 278.263H59.285V274.976H55.9918L55.9961 278.263ZM55.9961 274.934H59.285V271.639H55.9918L55.9961 274.934ZM55.9961 271.604H59.285V268.311H55.9918L55.9961 271.604ZM55.9961 268.274H59.285V264.98H55.9918L55.9961 268.274ZM55.9961 264.945H59.285V261.646H55.9918L55.9961 264.945ZM55.9961 261.615H59.285V258.321H55.9918L55.9961 261.615ZM55.9961 258.285H59.285V254.992H55.9918L55.9961 258.285ZM55.9961 254.957H59.285V251.663H55.9918L55.9961 254.957ZM55.9961 251.627H59.285V248.333H55.9918L55.9961 251.627ZM55.9961 248.297H59.285V245.003H55.9918L55.9961 248.297ZM55.9961 244.968H59.285V241.673H55.9918L55.9961 244.968ZM55.9961 241.638H59.285V238.344H55.9918L55.9961 241.638ZM55.9961 238.308H59.285V235.014H55.9918L55.9961 238.308ZM55.9961 234.978H59.285V231.684H55.9918L55.9961 234.978ZM55.9961 231.649H59.285V228.354H55.9918L55.9961 231.649ZM55.9961 228.319H59.285V225.025H55.9918L55.9961 228.319ZM55.9961 224.989H59.285V221.695H55.9918L55.9961 224.989ZM55.9961 221.659H59.285V218.365H55.9918L55.9961 221.659ZM55.9961 218.33H59.285V215.035H55.9918L55.9961 218.33ZM52.666 284.923H55.9606V281.629H52.666V284.923ZM52.666 281.593H55.9606V278.299H52.666V281.593ZM52.666 278.263H55.9606V274.976H52.666V278.263ZM52.666 274.934H55.9606V271.639H52.666V274.934ZM52.666 271.604H55.9606V268.311H52.666V271.604ZM52.666 268.274H55.9606V264.98H52.666V268.274ZM52.666 264.945H55.9606V261.646H52.666V264.945ZM52.666 261.615H55.9606V258.321H52.666V261.615ZM52.666 258.285H55.9606V254.992H52.666V258.285ZM52.666 254.957H55.9606V251.663H52.666V254.957ZM52.666 251.627H55.9606V248.333H52.666V251.627ZM52.666 248.297H55.9606V245.003H52.666V248.297ZM52.666 244.968H55.9606V241.673H52.666V244.968ZM52.666 241.638H55.9606V238.344H52.666V241.638ZM52.666 238.308H55.9606V235.014H52.666V238.308ZM52.666 234.978H55.9606V231.684H52.666V234.978ZM52.666 231.649H55.9606V228.354H52.666V231.649ZM52.666 228.319H55.9606V225.025H52.666V228.319ZM52.666 224.989H55.9606V221.695H52.666V224.989ZM52.666 221.659H55.9606V218.365H52.666V221.659ZM52.666 218.33H55.9606V215.035H52.666V218.33ZM49.3359 284.923H52.6305V281.629H49.3359V284.923ZM49.3359 281.593H52.6305V278.299H49.3359V281.593ZM49.3359 278.263H52.6305V274.976H49.3359V278.263ZM49.3359 274.934H52.6305V271.639H49.3359V274.934ZM49.3359 271.604H52.6305V268.311H49.3359V271.604ZM49.3359 268.274H52.6305V264.98H49.3359V268.274ZM49.3359 264.945H52.6305V261.646H49.3359V264.945ZM49.3359 261.615H52.6305V258.321H49.3359V261.615ZM49.3359 258.285H52.6305V254.992H49.3359V258.285ZM49.3359 254.957H52.6305V251.663H49.3359V254.957ZM49.3359 251.627H52.6305V248.333H49.3359V251.627ZM49.3359 248.297H52.6305V245.003H49.3359V248.297ZM49.3359 244.968H52.6305V241.673H49.3359V244.968ZM49.3359 241.638H52.6305V238.344H49.3359V241.638ZM49.3359 238.308H52.6305V235.014H49.3359V238.308ZM49.3359 234.978H52.6305V231.684H49.3359V234.978ZM49.3359 231.649H52.6305V228.354H49.3359V231.649ZM49.3359 228.319H52.6305V225.025H49.3359V228.319ZM49.3359 224.989H52.6305V221.695H49.3359V224.989ZM49.3359 221.659H52.6305V218.365H49.3359V221.659ZM49.3359 218.33H52.6305V215.035H49.3359V218.33ZM46.0059 284.923H49.3005V281.629H46.0059V284.923ZM46.0059 281.593H49.3005V278.299H46.0059V281.593ZM46.0059 278.263H49.3005V274.976H46.0059V278.263ZM46.0059 274.934H49.3005V271.639H46.0059V274.934ZM46.0059 271.604H49.3005V268.311H46.0059V271.604ZM46.0059 268.274H49.3005V264.98H46.0059V268.274ZM46.0059 264.945H49.3005V261.646H46.0059V264.945ZM46.0059 261.615H49.3005V258.321H46.0059V261.615ZM46.0059 258.285H49.3005V254.992H46.0059V258.285ZM46.0059 254.957H49.3005V251.663H46.0059V254.957ZM46.0059 251.627H49.3005V248.333H46.0059V251.627ZM46.0059 248.297H49.3005V245.003H46.0059V248.297ZM46.0059 244.968H49.3005V241.673H46.0059V244.968ZM46.0059 241.638H49.3005V238.344H46.0059V241.638ZM46.0059 238.308H49.3005V235.014H46.0059V238.308ZM46.0059 234.978H49.3005V231.684H46.0059V234.978ZM46.0059 231.649H49.3005V228.354H46.0059V231.649ZM46.0059 228.319H49.3005V225.025H46.0059V228.319ZM46.0059 224.989H49.3005V221.695H46.0059V224.989ZM46.0059 221.659H49.3005V218.365H46.0059V221.659ZM46.0059 218.33H49.3005V215.035H46.0059V218.33ZM42.6758 284.923H45.9704V281.629H42.6758V284.923ZM42.6758 281.593H45.9704V278.299H42.6758V281.593ZM42.6758 278.263H45.9704V274.976H42.6758V278.263ZM42.6758 274.934H45.9704V271.639H42.6758V274.934ZM42.6758 271.604H45.9704V268.311H42.6758V271.604ZM42.6758 268.274H45.9704V264.98H42.6758V268.274ZM42.6758 264.945H45.9704V261.646H42.6758V264.945ZM42.6758 261.615H45.9704V258.321H42.6758V261.615ZM42.6758 258.285H45.9704V254.992H42.6758V258.285ZM42.6758 254.957H45.9704V251.663H42.6758V254.957ZM42.6758 251.627H45.9704V248.333H42.6758V251.627ZM42.6758 248.297H45.9704V245.003H42.6758V248.297ZM42.6758 244.968H45.9704V241.673H42.6758V244.968ZM42.6758 241.638H45.9704V238.344H42.6758V241.638ZM42.6758 238.308H45.9704V235.014H42.6758V238.308ZM42.6758 234.978H45.9704V231.684H42.6758V234.978ZM42.6758 231.649H45.9704V228.354H42.6758V231.649ZM42.6758 228.319H45.9704V225.025H42.6758V228.319ZM42.6758 224.989H45.9704V221.695H42.6758V224.989ZM42.6758 221.659H45.9704V218.365H42.6758V221.659ZM42.6758 218.33H45.9704V215.035H42.6758V218.33ZM39.3457 284.923H42.6403V281.629H39.3457V284.923ZM39.3457 281.593H42.6403V278.299H39.3457V281.593ZM39.3457 278.263H42.6403V274.976H39.3457V278.263ZM39.3457 274.934H42.6403V271.639H39.3457V274.934ZM39.3457 271.604H42.6403V268.311H39.3457V271.604ZM39.3457 268.274H42.6403V264.98H39.3457V268.274ZM39.3457 264.945H42.6403V261.646H39.3457V264.945ZM39.3457 261.615H42.6403V258.321H39.3457V261.615ZM39.3457 258.285H42.6403V254.992H39.3457V258.285ZM39.3457 254.957H42.6403V251.663H39.3457V254.957ZM39.3457 251.627H42.6403V248.333H39.3457V251.627ZM39.3457 248.297H42.6403V245.003H39.3457V248.297ZM39.3457 244.968H42.6403V241.673H39.3457V244.968ZM39.3457 241.638H42.6403V238.344H39.3457V241.638ZM39.3457 238.308H42.6403V235.014H39.3457V238.308ZM39.3457 234.978H42.6403V231.684H39.3457V234.978ZM39.3457 231.649H42.6403V228.354H39.3457V231.649ZM39.3457 228.319H42.6403V225.025H39.3457V228.319ZM39.3457 224.989H42.6403V221.695H39.3457V224.989ZM39.3457 221.659H42.6403V218.365H39.3457V221.659ZM39.3457 218.33H42.6403V215.035H39.3457V218.33ZM36.0156 284.923H39.3102V281.629H36.0156V284.923ZM36.0156 281.593H39.3102V278.299H36.0156V281.593ZM36.0156 278.263H39.3102V274.976H36.0156V278.263ZM36.0156 274.934H39.3102V271.639H36.0156V274.934ZM36.0156 271.604H39.3102V268.311H36.0156V271.604ZM36.0156 268.274H39.3102V264.98H36.0156V268.274ZM36.0156 264.945H39.3102V261.646H36.0156V264.945ZM36.0156 261.615H39.3102V258.321H36.0156V261.615ZM36.0156 258.285H39.3102V254.992H36.0156V258.285ZM36.0156 254.957H39.3102V251.663H36.0156V254.957ZM36.0156 251.627H39.3102V248.333H36.0156V251.627ZM36.0156 248.297H39.3102V245.003H36.0156V248.297ZM36.0156 244.968H39.3102V241.673H36.0156V244.968ZM36.0156 241.638H39.3102V238.344H36.0156V241.638ZM36.0156 238.308H39.3102V235.014H36.0156V238.308ZM36.0156 234.978H39.3102V231.684H36.0156V234.978ZM36.0156 231.649H39.3102V228.354H36.0156V231.649ZM36.0156 228.319H39.3102V225.025H36.0156V228.319ZM36.0156 224.989H39.3102V221.695H36.0156V224.989ZM36.0156 221.659H39.3102V218.365H36.0156V221.659ZM36.0156 218.33H39.3102V215.035H36.0156V218.33ZM32.6856 284.923H35.9802V281.629H32.6856V284.923ZM32.6856 281.593H35.9802V278.299H32.6856V281.593ZM32.6856 278.263H35.9802V274.976H32.6856V278.263ZM32.6856 274.934H35.9802V271.639H32.6856V274.934ZM32.6856 271.604H35.9802V268.311H32.6856V271.604ZM32.6856 268.274H35.9802V264.98H32.6856V268.274ZM32.6856 264.945H35.9802V261.646H32.6856V264.945ZM32.6856 261.615H35.9802V258.321H32.6856V261.615ZM32.6856 258.285H35.9802V254.992H32.6856V258.285ZM32.6856 254.957H35.9802V251.663H32.6856V254.957ZM32.6856 251.627H35.9802V248.333H32.6856V251.627ZM32.6856 248.297H35.9802V245.003H32.6856V248.297ZM32.6856 244.968H35.9802V241.673H32.6856V244.968ZM32.6856 241.638H35.9802V238.344H32.6856V241.638ZM32.6856 238.308H35.9802V235.014H32.6856V238.308ZM32.6856 234.978H35.9802V231.684H32.6856V234.978ZM32.6856 231.649H35.9802V228.354H32.6856V231.649ZM32.6856 228.319H35.9802V225.025H32.6856V228.319ZM32.6856 224.989H35.9802V221.695H32.6856V224.989ZM32.6856 221.659H35.9802V218.365H32.6856V221.659ZM32.6856 218.33H35.9802V215.035H32.6856V218.33ZM29.3597 284.923H32.6501V281.629H29.3597V284.923ZM29.3597 281.593H32.6501V278.299H29.3597V281.593ZM29.3597 278.263H32.6501V274.976H29.3597V278.263ZM29.3597 274.934H32.6501V271.639H29.3597V274.934ZM29.3597 271.604H32.6501V268.311H29.3597V271.604ZM29.3597 268.274H32.6501V264.98H29.3597V268.274ZM29.3597 264.945H32.6501V261.646H29.3597V264.945ZM29.3597 261.615H32.6501V258.321H29.3597V261.615ZM29.3597 258.285H32.6501V254.992H29.3597V258.285ZM29.3597 254.957H32.6501V251.663H29.3597V254.957ZM29.3597 251.627H32.6501V248.333H29.3597V251.627ZM29.3597 248.297H32.6501V245.003H29.3597V248.297ZM29.3597 244.968H32.6501V241.673H29.3597V244.968ZM29.3597 241.638H32.6501V238.344H29.3597V241.638ZM29.3597 238.308H32.6501V235.014H29.3597V238.308ZM29.3597 234.985H32.6501V231.684H29.3597V234.985ZM29.3597 231.656H32.6501V228.354H29.3597V231.656ZM29.3597 228.32H32.6501V225.025H29.3597V228.32ZM29.3597 224.991H32.6501V221.695H29.3597V224.991ZM29.3597 221.655H32.6501V218.365H29.3597V221.655ZM29.3597 218.325H32.6501V215.035H29.3597V218.325ZM26.0297 284.919H29.32V281.629H26.0254L26.0297 284.919ZM26.0297 281.589H29.32V278.299H26.0254L26.0297 281.589ZM26.0297 278.259H29.32V274.976H26.0254L26.0297 278.259ZM26.0297 274.93H29.32V271.639H26.0254L26.0297 274.93ZM26.0297 271.6H29.32V268.311H26.0254L26.0297 271.6ZM26.0297 268.27H29.32V264.98H26.0254L26.0297 268.27ZM26.0297 264.94H29.32V261.646H26.0254L26.0297 264.94ZM26.0297 261.611H29.32V258.321H26.0254L26.0297 261.611ZM26.0297 258.281H29.32V254.992H26.0254L26.0297 258.281ZM26.0297 254.953H29.32V251.663H26.0254L26.0297 254.953ZM26.0297 251.623H29.32V248.333H26.0254L26.0297 251.623ZM26.0297 248.293H29.32V245.003H26.0254L26.0297 248.293ZM26.0297 244.963H29.32V241.673H26.0254L26.0297 244.963ZM26.0297 241.634H29.32V238.344H26.0254L26.0297 241.634ZM26.0297 238.304H29.32V235.014H26.0254L26.0297 238.304ZM26.0297 234.974H29.32V231.684H26.0254L26.0297 234.974ZM26.0297 231.644H29.32V228.354H26.0254L26.0297 231.644ZM26.0297 228.315H29.32V225.025H26.0254L26.0297 228.315ZM26.0297 224.985H29.32V221.695H26.0254L26.0297 224.985ZM26.0297 221.655H29.32V218.365H26.0254L26.0297 221.655ZM26.0297 218.325H29.32V215.035H26.0254L26.0297 218.325ZM22.6939 284.923H25.9899V281.629H22.6939V284.923ZM22.6939 281.593H25.9899V278.299H22.6939V281.593ZM22.6939 278.263H25.9899V274.976H22.6939V278.263ZM22.6939 274.934H25.9899V271.639H22.6939V274.934ZM22.6939 271.604H25.9899V268.311H22.6939V271.604ZM22.6939 268.274H25.9899V264.98H22.6939V268.274ZM22.6939 264.945H25.9899V261.646H22.6939V264.945ZM22.6939 261.615H25.9899V258.321H22.6939V261.615ZM22.6939 258.285H25.9899V254.992H22.6939V258.285ZM22.6939 254.957H25.9899V251.663H22.6939V254.957ZM22.6939 251.627H25.9899V248.333H22.6939V251.627ZM22.6939 248.297H25.9899V245.003H22.6939V248.297ZM22.6939 244.968H25.9899V241.673H22.6939V244.968ZM22.6939 241.638H25.9899V238.344H22.6939V241.638ZM22.6939 238.308H25.9899V235.014H22.6939V238.308ZM22.6939 234.985H25.9899V231.684H22.6939V234.985ZM22.6939 231.656H25.9899V228.354H22.6939V231.656ZM22.6939 228.32H25.9899V225.025H22.6939V228.32ZM22.6939 224.991H25.9899V221.695H22.6939V224.991ZM22.6939 221.655H25.9899V218.365H22.6939V221.655ZM22.6939 218.325H25.9899V215.035H22.6939V218.325ZM19.3638 284.919H22.6599V281.629H19.3653L19.3638 284.919ZM19.3638 281.589H22.6599V278.299H19.3653L19.3638 281.589ZM19.3638 278.259H22.6599V274.976H19.3653L19.3638 278.259ZM19.3638 274.93H22.6599V271.639H19.3653L19.3638 274.93ZM19.3638 271.6H22.6599V268.311H19.3653L19.3638 271.6ZM19.3638 268.27H22.6599V264.98H19.3653L19.3638 268.27ZM19.3638 264.94H22.6599V261.646H19.3653L19.3638 264.94ZM19.3638 261.611H22.6599V258.321H19.3653L19.3638 261.611ZM19.3638 258.281H22.6599V254.992H19.3653L19.3638 258.281ZM19.3638 254.953H22.6599V251.663H19.3653L19.3638 254.953ZM19.3638 251.623H22.6599V248.333H19.3653L19.3638 251.623ZM19.3638 248.293H22.6599V245.003H19.3653L19.3638 248.293ZM19.3638 244.963H22.6599V241.673H19.3653L19.3638 244.963ZM19.3638 241.634H22.6599V238.344H19.3653L19.3638 241.634ZM19.3638 238.304H22.6599V235.014H19.3653L19.3638 238.304ZM19.3638 234.974H22.6599V231.684H19.3653L19.3638 234.974ZM19.3638 231.644H22.6599V228.354H19.3653L19.3638 231.644ZM19.3638 228.315H22.6599V225.025H19.3653L19.3638 228.315ZM19.3638 224.985H22.6599V221.695H19.3653L19.3638 224.985ZM19.3638 221.655H22.6599V218.365H19.3653L19.3638 221.655ZM19.3638 218.325H22.6599V215.035H19.3653L19.3638 218.325ZM16.0281 284.923H19.3298V281.629H16.0281V284.923ZM16.0281 281.593H19.3298V278.299H16.0281V281.593ZM16.0281 278.263H19.3298V274.976H16.0281V278.263ZM16.0281 274.934H19.3298V271.639H16.0281V274.934ZM16.0281 271.604H19.3298V268.311H16.0281V271.604ZM16.0281 268.274H19.3298V264.98H16.0281V268.274ZM16.0281 264.945H19.3298V261.646H16.0281V264.945ZM16.0281 261.615H19.3298V258.321H16.0281V261.615ZM16.0281 258.285H19.3298V254.992H16.0281V258.285ZM16.0281 254.957H19.3298V251.663H16.0281V254.957ZM16.0281 251.627H19.3298V248.333H16.0281V251.627ZM16.0281 248.297H19.3298V245.003H16.0281V248.297ZM16.0281 244.968H19.3298V241.673H16.0281V244.968ZM16.0281 241.638H19.3298V238.344H16.0281V241.638ZM16.0281 238.308H19.3298V235.014H16.0281V238.308ZM16.0281 234.985H19.3298V231.684H16.0281V234.985ZM16.0281 231.656H19.3298V228.354H16.0281V231.656ZM16.0281 228.32H19.3298V225.025H16.0281V228.32ZM16.0281 224.991H19.3298V221.695H16.0281V224.991ZM16.0281 221.655H19.3298V218.365H16.0281V221.655ZM16.0281 218.325H19.3298V215.035H16.0281V218.325Z" fill="url(#paint1_radial_1505_1557)"/>
<path opacity="0.5" d="M35.147 90.2866V259.963H-62.8153V90.2866H35.147ZM30.4844 259.877H35.0973V251.888H30.4844V259.877ZM30.4844 251.802H35.0973V243.812H30.4844V251.802ZM30.4844 243.726H35.0973V235.753H30.4844V243.726ZM30.4844 235.65H35.0973V227.66H30.4844V235.65ZM30.4844 227.574H35.0973V219.587H30.4844V227.574ZM30.4844 219.498H35.0973V211.508H30.4844V219.498ZM30.4844 211.422H35.0973V203.422H30.4844V211.422ZM30.4844 203.346H35.0973V195.356H30.4844V203.346ZM30.4844 195.27H35.0973V187.284H30.4844V195.27ZM30.4844 187.198H35.0973V179.208H30.4844V187.198ZM30.4844 179.122H35.0973V171.132H30.4844V179.122ZM30.4844 171.046H35.0973V163.056H30.4844V171.046ZM30.4844 162.97H35.0973V154.98H30.4844V162.97ZM30.4844 154.894H35.0973V146.904H30.4844V154.894ZM30.4844 146.818H35.0973V138.828H30.4844V146.818ZM30.4844 138.742H35.0973V130.752H30.4844V138.742ZM30.4844 130.666H35.0973V122.676H30.4844V130.666ZM30.4844 122.59H35.0973V114.6H30.4844V122.59ZM30.4844 114.514H35.0973V106.524H30.4844V114.514ZM30.4844 106.438H35.0973V98.4485H30.4844V106.438ZM30.4844 98.3625H35.0973V90.3726H30.4844V98.3625ZM25.8218 259.877H30.4347V251.888H25.8218V259.877ZM25.8218 251.802H30.4347V243.812H25.8218V251.802ZM25.8218 243.726H30.4347V235.753H25.8218V243.726ZM25.8218 235.65H30.4347V227.66H25.8218V235.65ZM25.8218 227.574H30.4347V219.587H25.8218V227.574ZM25.8218 219.498H30.4347V211.508H25.8218V219.498ZM25.8218 211.422H30.4347V203.422H25.8218V211.422ZM25.8218 203.346H30.4347V195.356H25.8218V203.346ZM25.8218 195.27H30.4347V187.284H25.8218V195.27ZM25.8218 187.198H30.4347V179.208H25.8218V187.198ZM25.8218 179.122H30.4347V171.132H25.8218V179.122ZM25.8218 171.046H30.4347V163.056H25.8218V171.046ZM25.8218 162.97H30.4347V154.98H25.8218V162.97ZM25.8218 154.894H30.4347V146.904H25.8218V154.894ZM25.8218 146.818H30.4347V138.828H25.8218V146.818ZM25.8218 138.742H30.4347V130.752H25.8218V138.742ZM25.8218 130.666H30.4347V122.676H25.8218V130.666ZM25.8218 122.59H30.4347V114.6H25.8218V122.59ZM25.8218 114.514H30.4347V106.524H25.8218V114.514ZM25.8218 106.438H30.4347V98.4485H25.8218V106.438ZM25.8218 98.3625H30.4347V90.3726H25.8218V98.3625ZM21.1592 259.877H25.7721V251.888H21.1592V259.877ZM21.1592 251.802H25.7721V243.812H21.1592V251.802ZM21.1592 243.726H25.7721V235.753H21.1592V243.726ZM21.1592 235.65H25.7721V227.66H21.1592V235.65ZM21.1592 227.574H25.7721V219.587H21.1592V227.574ZM21.1592 219.498H25.7721V211.508H21.1592V219.498ZM21.1592 211.422H25.7721V203.422H21.1592V211.422ZM21.1592 203.346H25.7721V195.356H21.1592V203.346ZM21.1592 195.27H25.7721V187.284H21.1592V195.27ZM21.1592 187.198H25.7721V179.208H21.1592V187.198ZM21.1592 179.122H25.7721V171.132H21.1592V179.122ZM21.1592 171.046H25.7721V163.056H21.1592V171.046ZM21.1592 162.97H25.7721V154.98H21.1592V162.97ZM21.1592 154.894H25.7721V146.904H21.1592V154.894ZM21.1592 146.818H25.7721V138.828H21.1592V146.818ZM21.1592 138.742H25.7721V130.752H21.1592V138.742ZM21.1592 130.666H25.7721V122.676H21.1592V130.666ZM21.1592 122.59H25.7721V114.6H21.1592V122.59ZM21.1592 114.514H25.7721V106.524H21.1592V114.514ZM21.1592 106.438H25.7721V98.4485H21.1592V106.438ZM21.1592 98.3625H25.7721V90.3726H21.1592V98.3625ZM16.4966 259.877H21.1095V251.888H16.4966V259.877ZM16.4966 251.802H21.1095V243.812H16.4966V251.802ZM16.4966 243.726H21.1095V235.753H16.4966V243.726ZM16.4966 235.65H21.1095V227.66H16.4966V235.65ZM16.4966 227.574H21.1095V219.587H16.4966V227.574ZM16.4966 219.498H21.1095V211.508H16.4966V219.498ZM16.4966 211.422H21.1095V203.422H16.4966V211.422ZM16.4966 203.346H21.1095V195.356H16.4966V203.346ZM16.4966 195.27H21.1095V187.284H16.4966V195.27ZM16.4966 187.198H21.1095V179.208H16.4966V187.198ZM16.4966 179.122H21.1095V171.132H16.4966V179.122ZM16.4966 171.046H21.1095V163.056H16.4966V171.046ZM16.4966 162.97H21.1095V154.98H16.4966V162.97ZM16.4966 154.894H21.1095V146.904H16.4966V154.894ZM16.4966 146.818H21.1095V138.828H16.4966V146.818ZM16.4966 138.742H21.1095V130.752H16.4966V138.742ZM16.4966 130.666H21.1095V122.676H16.4966V130.666ZM16.4966 122.59H21.1095V114.6H16.4966V122.59ZM16.4966 114.514H21.1095V106.524H16.4966V114.514ZM16.4966 106.438H21.1095V98.4485H16.4966V106.438ZM16.4966 98.3625H21.1095V90.3726H16.4966V98.3625ZM11.834 259.877H16.4469V251.888H11.834V259.877ZM11.834 251.802H16.4469V243.812H11.834V251.802ZM11.834 243.726H16.4469V235.753H11.834V243.726ZM11.834 235.65H16.4469V227.66H11.834V235.65ZM11.834 227.574H16.4469V219.587H11.834V227.574ZM11.834 219.498H16.4469V211.508H11.834V219.498ZM11.834 211.422H16.4469V203.422H11.834V211.422ZM11.834 203.346H16.4469V195.356H11.834V203.346ZM11.834 195.27H16.4469V187.284H11.834V195.27ZM11.834 187.198H16.4469V179.208H11.834V187.198ZM11.834 179.122H16.4469V171.132H11.834V179.122ZM11.834 171.046H16.4469V163.056H11.834V171.046ZM11.834 162.97H16.4469V154.98H11.834V162.97ZM11.834 154.894H16.4469V146.904H11.834V154.894ZM11.834 146.818H16.4469V138.828H11.834V146.818ZM11.834 138.742H16.4469V130.752H11.834V138.742ZM11.834 130.666H16.4469V122.676H11.834V130.666ZM11.834 122.59H16.4469V114.6H11.834V122.59ZM11.834 114.514H16.4469V106.524H11.834V114.514ZM11.834 106.438H16.4469V98.4485H11.834V106.438ZM11.834 98.3625H16.4469V90.3726H11.834V98.3625ZM7.17135 259.877H11.7843V251.888H7.17135V259.877ZM7.17135 251.802H11.7843V243.812H7.17135V251.802ZM7.17135 243.726H11.7843V235.753H7.17135V243.726ZM7.17135 235.65H11.7843V227.66H7.17135V235.65ZM7.17135 227.574H11.7843V219.587H7.17135V227.574ZM7.17135 219.498H11.7843V211.508H7.17135V219.498ZM7.17135 211.422H11.7843V203.422H7.17135V211.422ZM7.17135 203.346H11.7843V195.356H7.17135V203.346ZM7.17135 195.27H11.7843V187.284H7.17135V195.27ZM7.17135 187.198H11.7843V179.208H7.17135V187.198ZM7.17135 179.122H11.7843V171.132H7.17135V179.122ZM7.17135 171.046H11.7843V163.056H7.17135V171.046ZM7.17135 162.97H11.7843V154.98H7.17135V162.97ZM7.17135 154.894H11.7843V146.904H7.17135V154.894ZM7.17135 146.818H11.7843V138.828H7.17135V146.818ZM7.17135 138.742H11.7843V130.752H7.17135V138.742ZM7.17135 130.666H11.7843V122.676H7.17135V130.666ZM7.17135 122.59H11.7843V114.6H7.17135V122.59ZM7.17135 114.514H11.7843V106.524H7.17135V114.514ZM7.17135 106.438H11.7843V98.4485H7.17135V106.438ZM7.17135 98.3625H11.7843V90.3726H7.17135V98.3625ZM2.50875 259.877H7.1237V251.888H2.51074L2.50875 259.877ZM2.50875 251.802H7.1237V243.812H2.51074L2.50875 251.802ZM2.50875 243.726H7.1237V235.753H2.51074L2.50875 243.726ZM2.50875 235.65H7.1237V227.66H2.51074L2.50875 235.65ZM2.50875 227.574H7.1237V219.587H2.51074L2.50875 227.574ZM2.50875 219.498H7.1237V211.508H2.51074L2.50875 219.498ZM2.50875 211.422H7.1237V203.422H2.51074L2.50875 211.422ZM2.50875 203.346H7.1237V195.356H2.51074L2.50875 203.346ZM2.50875 195.27H7.1237V187.284H2.51074L2.50875 195.27ZM2.50875 187.198H7.1237V179.208H2.51074L2.50875 187.198ZM2.50875 179.122H7.1237V171.132H2.51074L2.50875 179.122ZM2.50875 171.046H7.1237V163.056H2.51074L2.50875 171.046ZM2.50875 162.97H7.1237V154.98H2.51074L2.50875 162.97ZM2.50875 154.894H7.1237V146.904H2.51074L2.50875 154.894ZM2.50875 146.818H7.1237V138.828H2.51074L2.50875 146.818ZM2.50875 138.742H7.1237V130.752H2.51074L2.50875 138.742ZM2.50875 130.666H7.1237V122.676H2.51074L2.50875 130.666ZM2.50875 122.59H7.1237V114.6H2.51074L2.50875 122.59ZM2.50875 114.514H7.1237V106.524H2.51074L2.50875 114.514ZM2.50875 106.438H7.1237V98.4485H2.51074L2.50875 106.438ZM2.50875 98.3625H7.1237V90.3726H2.51074L2.50875 98.3625ZM-2.15385 259.877H2.45911V251.888H-2.15385V259.877ZM-2.15385 251.802H2.45911V243.812H-2.15385V251.802ZM-2.15385 243.726H2.45911V235.753H-2.15385V243.726ZM-2.15385 235.65H2.45911V227.66H-2.15385V235.65ZM-2.15385 227.574H2.45911V219.587H-2.15385V227.574ZM-2.15385 219.498H2.45911V211.508H-2.15385V219.498ZM-2.15385 211.422H2.45911V203.422H-2.15385V211.422ZM-2.15385 203.346H2.45911V195.356H-2.15385V203.346ZM-2.15385 195.27H2.45911V187.284H-2.15385V195.27ZM-2.15385 187.198H2.45911V179.208H-2.15385V187.198ZM-2.15385 179.122H2.45911V171.132H-2.15385V179.122ZM-2.15385 171.046H2.45911V163.056H-2.15385V171.046ZM-2.15385 162.97H2.45911V154.98H-2.15385V162.97ZM-2.15385 154.894H2.45911V146.904H-2.15385V154.894ZM-2.15385 146.818H2.45911V138.828H-2.15385V146.818ZM-2.15385 138.742H2.45911V130.752H-2.15385V138.742ZM-2.15385 130.666H2.45911V122.676H-2.15385V130.666ZM-2.15385 122.59H2.45911V114.6H-2.15385V122.59ZM-2.15385 114.514H2.45911V106.524H-2.15385V114.514ZM-2.15385 106.438H2.45911V98.4485H-2.15385V106.438ZM-2.15385 98.3625H2.45911V90.3726H-2.15385V98.3625ZM-6.81447 259.877H-2.20945V251.888H-6.82043L-6.81447 259.877ZM-6.81447 251.802H-2.20945V243.812H-6.82043L-6.81447 251.802ZM-6.81447 243.726H-2.20945V235.753H-6.82043L-6.81447 243.726ZM-6.81447 235.65H-2.20945V227.66H-6.82043L-6.81447 235.65ZM-6.81447 227.574H-2.20945V219.587H-6.82043L-6.81447 227.574ZM-6.81447 219.498H-2.20945V211.508H-6.82043L-6.81447 219.498ZM-6.81447 211.422H-2.20945V203.422H-6.82043L-6.81447 211.422ZM-6.81447 203.346H-2.20945V195.356H-6.82043L-6.81447 203.346ZM-6.81447 195.27H-2.20945V187.284H-6.82043L-6.81447 195.27ZM-6.81447 187.198H-2.20945V179.208H-6.82043L-6.81447 187.198ZM-6.81447 179.122H-2.20945V171.132H-6.82043L-6.81447 179.122ZM-6.81447 171.046H-2.20945V163.056H-6.82043L-6.81447 171.046ZM-6.81447 162.97H-2.20945V154.98H-6.82043L-6.81447 162.97ZM-6.81447 154.894H-2.20945V146.904H-6.82043L-6.81447 154.894ZM-6.81447 146.818H-2.20945V138.828H-6.82043L-6.81447 146.818ZM-6.81447 138.742H-2.20945V130.752H-6.82043L-6.81447 138.742ZM-6.81447 130.666H-2.20945V122.676H-6.82043L-6.81447 130.666ZM-6.81447 122.59H-2.20945V114.6H-6.82043L-6.81447 122.59ZM-6.81447 114.514H-2.20945V106.524H-6.82043L-6.81447 114.514ZM-6.81447 106.438H-2.20945V98.4485H-6.82043L-6.81447 106.438ZM-6.81447 98.3625H-2.20945V90.3726H-6.82043L-6.81447 98.3625ZM-11.4771 259.877H-6.86411V251.888H-11.4771V259.877ZM-11.4771 251.802H-6.86411V243.812H-11.4771V251.802ZM-11.4771 243.726H-6.86411V235.753H-11.4771V243.726ZM-11.4771 235.65H-6.86411V227.66H-11.4771V235.65ZM-11.4771 227.574H-6.86411V219.587H-11.4771V227.574ZM-11.4771 219.498H-6.86411V211.508H-11.4771V219.498ZM-11.4771 211.422H-6.86411V203.422H-11.4771V211.422ZM-11.4771 203.346H-6.86411V195.356H-11.4771V203.346ZM-11.4771 195.27H-6.86411V187.284H-11.4771V195.27ZM-11.4771 187.198H-6.86411V179.208H-11.4771V187.198ZM-11.4771 179.122H-6.86411V171.132H-11.4771V179.122ZM-11.4771 171.046H-6.86411V163.056H-11.4771V171.046ZM-11.4771 162.97H-6.86411V154.98H-11.4771V162.97ZM-11.4771 154.894H-6.86411V146.904H-11.4771V154.894ZM-11.4771 146.818H-6.86411V138.828H-11.4771V146.818ZM-11.4771 138.742H-6.86411V130.752H-11.4771V138.742ZM-11.4771 130.666H-6.86411V122.676H-11.4771V130.666ZM-11.4771 122.59H-6.86411V114.6H-11.4771V122.59ZM-11.4771 114.514H-6.86411V106.524H-11.4771V114.514ZM-11.4771 106.438H-6.86411V98.4485H-11.4771V106.438ZM-11.4771 98.3625H-6.86411V90.3726H-11.4771V98.3625ZM-16.1397 259.877H-11.5267V251.888H-16.1397V259.877ZM-16.1397 251.802H-11.5267V243.812H-16.1397V251.802ZM-16.1397 243.726H-11.5267V235.753H-16.1397V243.726ZM-16.1397 235.65H-11.5267V227.66H-16.1397V235.65ZM-16.1397 227.574H-11.5267V219.587H-16.1397V227.574ZM-16.1397 219.498H-11.5267V211.508H-16.1397V219.498ZM-16.1397 211.422H-11.5267V203.422H-16.1397V211.422ZM-16.1397 203.346H-11.5267V195.356H-16.1397V203.346ZM-16.1397 195.27H-11.5267V187.284H-16.1397V195.27ZM-16.1397 187.198H-11.5267V179.208H-16.1397V187.198ZM-16.1397 179.122H-11.5267V171.132H-16.1397V179.122ZM-16.1397 171.046H-11.5267V163.056H-16.1397V171.046ZM-16.1397 162.97H-11.5267V154.98H-16.1397V162.97ZM-16.1397 154.894H-11.5267V146.904H-16.1397V154.894ZM-16.1397 146.818H-11.5267V138.828H-16.1397V146.818ZM-16.1397 138.742H-11.5267V130.752H-16.1397V138.742ZM-16.1397 130.666H-11.5267V122.676H-16.1397V130.666ZM-16.1397 122.59H-11.5267V114.6H-16.1397V122.59ZM-16.1397 114.514H-11.5267V106.524H-16.1397V114.514ZM-16.1397 106.438H-11.5267V98.4485H-16.1397V106.438ZM-16.1397 98.3625H-11.5267V90.3726H-16.1397V98.3625ZM-20.8023 259.877H-16.1893V251.888H-20.8023V259.877ZM-20.8023 251.802H-16.1893V243.812H-20.8023V251.802ZM-20.8023 243.726H-16.1893V235.753H-20.8023V243.726ZM-20.8023 235.65H-16.1893V227.66H-20.8023V235.65ZM-20.8023 227.574H-16.1893V219.587H-20.8023V227.574ZM-20.8023 219.498H-16.1893V211.508H-20.8023V219.498ZM-20.8023 211.422H-16.1893V203.422H-20.8023V211.422ZM-20.8023 203.346H-16.1893V195.356H-20.8023V203.346ZM-20.8023 195.27H-16.1893V187.284H-20.8023V195.27ZM-20.8023 187.198H-16.1893V179.208H-20.8023V187.198ZM-20.8023 179.122H-16.1893V171.132H-20.8023V179.122ZM-20.8023 171.046H-16.1893V163.056H-20.8023V171.046ZM-20.8023 162.97H-16.1893V154.98H-20.8023V162.97ZM-20.8023 154.894H-16.1893V146.904H-20.8023V154.894ZM-20.8023 146.818H-16.1893V138.828H-20.8023V146.818ZM-20.8023 138.742H-16.1893V130.752H-20.8023V138.742ZM-20.8023 130.666H-16.1893V122.676H-20.8023V130.666ZM-20.8023 122.59H-16.1893V114.6H-20.8023V122.59ZM-20.8023 114.514H-16.1893V106.524H-20.8023V114.514ZM-20.8023 106.438H-16.1893V98.4485H-20.8023V106.438ZM-20.8023 98.3625H-16.1893V90.3726H-20.8023V98.3625ZM-25.4649 259.877H-20.8519V251.888H-25.4649V259.877ZM-25.4649 251.802H-20.8519V243.812H-25.4649V251.802ZM-25.4649 243.726H-20.8519V235.753H-25.4649V243.726ZM-25.4649 235.65H-20.8519V227.66H-25.4649V235.65ZM-25.4649 227.574H-20.8519V219.587H-25.4649V227.574ZM-25.4649 219.498H-20.8519V211.508H-25.4649V219.498ZM-25.4649 211.422H-20.8519V203.422H-25.4649V211.422ZM-25.4649 203.346H-20.8519V195.356H-25.4649V203.346ZM-25.4649 195.27H-20.8519V187.284H-25.4649V195.27ZM-25.4649 187.198H-20.8519V179.208H-25.4649V187.198ZM-25.4649 179.122H-20.8519V171.132H-25.4649V179.122ZM-25.4649 171.046H-20.8519V163.056H-25.4649V171.046ZM-25.4649 162.97H-20.8519V154.98H-25.4649V162.97ZM-25.4649 154.894H-20.8519V146.904H-25.4649V154.894ZM-25.4649 146.818H-20.8519V138.828H-25.4649V146.818ZM-25.4649 138.742H-20.8519V130.752H-25.4649V138.742ZM-25.4649 130.666H-20.8519V122.676H-25.4649V130.666ZM-25.4649 122.59H-20.8519V114.6H-25.4649V122.59ZM-25.4649 114.514H-20.8519V106.524H-25.4649V114.514ZM-25.4649 106.438H-20.8519V98.4485H-25.4649V106.438ZM-25.4649 98.3625H-20.8519V90.3726H-25.4649V98.3625ZM-30.1275 259.877H-25.5145V251.888H-30.1275V259.877ZM-30.1275 251.802H-25.5145V243.812H-30.1275V251.802ZM-30.1275 243.726H-25.5145V235.753H-30.1275V243.726ZM-30.1275 235.65H-25.5145V227.66H-30.1275V235.65ZM-30.1275 227.574H-25.5145V219.587H-30.1275V227.574ZM-30.1275 219.498H-25.5145V211.508H-30.1275V219.498ZM-30.1275 211.422H-25.5145V203.422H-30.1275V211.422ZM-30.1275 203.346H-25.5145V195.356H-30.1275V203.346ZM-30.1275 195.27H-25.5145V187.284H-30.1275V195.27ZM-30.1275 187.198H-25.5145V179.208H-30.1275V187.198ZM-30.1275 179.122H-25.5145V171.132H-30.1275V179.122ZM-30.1275 171.046H-25.5145V163.056H-30.1275V171.046ZM-30.1275 162.97H-25.5145V154.98H-30.1275V162.97ZM-30.1275 154.894H-25.5145V146.904H-30.1275V154.894ZM-30.1275 146.818H-25.5145V138.828H-30.1275V146.818ZM-30.1275 138.742H-25.5145V130.752H-30.1275V138.742ZM-30.1275 130.666H-25.5145V122.676H-30.1275V130.666ZM-30.1275 122.59H-25.5145V114.6H-30.1275V122.59ZM-30.1275 114.514H-25.5145V106.524H-30.1275V114.514ZM-30.1275 106.438H-25.5145V98.4485H-30.1275V106.438ZM-30.1275 98.3625H-25.5145V90.3726H-30.1275V98.3625ZM-34.7901 259.877H-30.1771V251.888H-34.7901V259.877ZM-34.7901 251.802H-30.1771V243.812H-34.7901V251.802ZM-34.7901 243.726H-30.1771V235.753H-34.7901V243.726ZM-34.7901 235.65H-30.1771V227.66H-34.7901V235.65ZM-34.7901 227.574H-30.1771V219.587H-34.7901V227.574ZM-34.7901 219.498H-30.1771V211.508H-34.7901V219.498ZM-34.7901 211.422H-30.1771V203.422H-34.7901V211.422ZM-34.7901 203.346H-30.1771V195.356H-34.7901V203.346ZM-34.7901 195.27H-30.1771V187.284H-34.7901V195.27ZM-34.7901 187.198H-30.1771V179.208H-34.7901V187.198ZM-34.7901 179.122H-30.1771V171.132H-34.7901V179.122ZM-34.7901 171.046H-30.1771V163.056H-34.7901V171.046ZM-34.7901 162.97H-30.1771V154.98H-34.7901V162.97ZM-34.7901 154.894H-30.1771V146.904H-34.7901V154.894ZM-34.7901 146.818H-30.1771V138.828H-34.7901V146.818ZM-34.7901 138.742H-30.1771V130.752H-34.7901V138.742ZM-34.7901 130.666H-30.1771V122.676H-34.7901V130.666ZM-34.7901 122.59H-30.1771V114.6H-34.7901V122.59ZM-34.7901 114.514H-30.1771V106.524H-34.7901V114.514ZM-34.7901 106.438H-30.1771V98.4485H-34.7901V106.438ZM-34.7901 98.3625H-30.1771V90.3726H-34.7901V98.3625ZM-39.4527 259.877H-34.8397V251.888H-39.4527V259.877ZM-39.4527 251.802H-34.8397V243.812H-39.4527V251.802ZM-39.4527 243.726H-34.8397V235.753H-39.4527V243.726ZM-39.4527 235.65H-34.8397V227.66H-39.4527V235.65ZM-39.4527 227.574H-34.8397V219.587H-39.4527V227.574ZM-39.4527 219.498H-34.8397V211.508H-39.4527V219.498ZM-39.4527 211.422H-34.8397V203.422H-39.4527V211.422ZM-39.4527 203.346H-34.8397V195.356H-39.4527V203.346ZM-39.4527 195.27H-34.8397V187.284H-39.4527V195.27ZM-39.4527 187.198H-34.8397V179.208H-39.4527V187.198ZM-39.4527 179.122H-34.8397V171.132H-39.4527V179.122ZM-39.4527 171.046H-34.8397V163.056H-39.4527V171.046ZM-39.4527 162.97H-34.8397V154.98H-39.4527V162.97ZM-39.4527 154.894H-34.8397V146.904H-39.4527V154.894ZM-39.4527 146.818H-34.8397V138.828H-39.4527V146.818ZM-39.4527 138.742H-34.8397V130.752H-39.4527V138.742ZM-39.4527 130.666H-34.8397V122.676H-39.4527V130.666ZM-39.4527 122.59H-34.8397V114.6H-39.4527V122.59ZM-39.4527 114.514H-34.8397V106.524H-39.4527V114.514ZM-39.4527 106.438H-34.8397V98.4485H-39.4527V106.438ZM-39.4527 98.3625H-34.8397V90.3726H-39.4527V98.3625ZM-44.1093 259.877H-39.5023V251.888H-44.1093V259.877ZM-44.1093 251.802H-39.5023V243.812H-44.1093V251.802ZM-44.1093 243.726H-39.5023V235.753H-44.1093V243.726ZM-44.1093 235.65H-39.5023V227.66H-44.1093V235.65ZM-44.1093 227.574H-39.5023V219.587H-44.1093V227.574ZM-44.1093 219.498H-39.5023V211.508H-44.1093V219.498ZM-44.1093 211.422H-39.5023V203.422H-44.1093V211.422ZM-44.1093 203.346H-39.5023V195.356H-44.1093V203.346ZM-44.1093 195.27H-39.5023V187.284H-44.1093V195.27ZM-44.1093 187.198H-39.5023V179.208H-44.1093V187.198ZM-44.1093 179.122H-39.5023V171.132H-44.1093V179.122ZM-44.1093 171.046H-39.5023V163.056H-44.1093V171.046ZM-44.1093 162.97H-39.5023V154.98H-44.1093V162.97ZM-44.1093 154.894H-39.5023V146.904H-44.1093V154.894ZM-44.1093 146.818H-39.5023V138.828H-44.1093V146.818ZM-44.1093 138.759H-39.5023V130.752H-44.1093V138.759ZM-44.1093 130.683H-39.5023V122.676H-44.1093V130.683ZM-44.1093 122.594H-39.5023V114.6H-44.1093V122.594ZM-44.1093 114.518H-39.5023V106.524H-44.1093V114.518ZM-44.1093 106.428H-39.5023V98.4485H-44.1093V106.428ZM-44.1093 98.3522H-39.5023V90.3726H-44.1093V98.3522ZM-48.7719 259.867H-44.1649V251.888H-48.7779L-48.7719 259.867ZM-48.7719 251.791H-44.1649V243.812H-48.7779L-48.7719 251.791ZM-48.7719 243.715H-44.1649V235.753H-48.7779L-48.7719 243.715ZM-48.7719 235.639H-44.1649V227.66H-48.7779L-48.7719 235.639ZM-48.7719 227.563H-44.1649V219.587H-48.7779L-48.7719 227.563ZM-48.7719 219.488H-44.1649V211.508H-48.7779L-48.7719 219.488ZM-48.7719 211.412H-44.1649V203.422H-48.7779L-48.7719 211.412ZM-48.7719 203.336H-44.1649V195.356H-48.7779L-48.7719 203.336ZM-48.7719 195.26H-44.1649V187.284H-48.7779L-48.7719 195.26ZM-48.7719 187.187H-44.1649V179.208H-48.7779L-48.7719 187.187ZM-48.7719 179.111H-44.1649V171.132H-48.7779L-48.7719 179.111ZM-48.7719 171.035H-44.1649V163.056H-48.7779L-48.7719 171.035ZM-48.7719 162.96H-44.1649V154.98H-48.7779L-48.7719 162.96ZM-48.7719 154.884H-44.1649V146.904H-48.7779L-48.7719 154.884ZM-48.7719 146.808H-44.1649V138.828H-48.7779L-48.7719 146.808ZM-48.7719 138.732H-44.1649V130.752H-48.7779L-48.7719 138.732ZM-48.7719 130.656H-44.1649V122.676H-48.7779L-48.7719 130.656ZM-48.7719 122.58H-44.1649V114.6H-48.7779L-48.7719 122.58ZM-48.7719 114.504H-44.1649V106.524H-48.7779L-48.7719 114.504ZM-48.7719 106.428H-44.1649V98.4485H-48.7779L-48.7719 106.428ZM-48.7719 98.3522H-44.1649V90.3726H-48.7779L-48.7719 98.3522ZM-53.4425 259.877H-48.8275V251.888H-53.4425V259.877ZM-53.4425 251.802H-48.8275V243.812H-53.4425V251.802ZM-53.4425 243.726H-48.8275V235.753H-53.4425V243.726ZM-53.4425 235.65H-48.8275V227.66H-53.4425V235.65ZM-53.4425 227.574H-48.8275V219.587H-53.4425V227.574ZM-53.4425 219.498H-48.8275V211.508H-53.4425V219.498ZM-53.4425 211.422H-48.8275V203.422H-53.4425V211.422ZM-53.4425 203.346H-48.8275V195.356H-53.4425V203.346ZM-53.4425 195.27H-48.8275V187.284H-53.4425V195.27ZM-53.4425 187.198H-48.8275V179.208H-53.4425V187.198ZM-53.4425 179.122H-48.8275V171.132H-53.4425V179.122ZM-53.4425 171.046H-48.8275V163.056H-53.4425V171.046ZM-53.4425 162.97H-48.8275V154.98H-53.4425V162.97ZM-53.4425 154.894H-48.8275V146.904H-53.4425V154.894ZM-53.4425 146.818H-48.8275V138.828H-53.4425V146.818ZM-53.4425 138.759H-48.8275V130.752H-53.4425V138.759ZM-53.4425 130.683H-48.8275V122.676H-53.4425V130.683ZM-53.4425 122.594H-48.8275V114.6H-53.4425V122.594ZM-53.4425 114.518H-48.8275V106.524H-53.4425V114.518ZM-53.4425 106.428H-48.8275V98.4485H-53.4425V106.428ZM-53.4425 98.3522H-48.8275V90.3726H-53.4425V98.3522ZM-58.1051 259.867H-53.4901V251.888H-58.1031L-58.1051 259.867ZM-58.1051 251.791H-53.4901V243.812H-58.1031L-58.1051 251.791ZM-58.1051 243.715H-53.4901V235.753H-58.1031L-58.1051 243.715ZM-58.1051 235.639H-53.4901V227.66H-58.1031L-58.1051 235.639ZM-58.1051 227.563H-53.4901V219.587H-58.1031L-58.1051 227.563ZM-58.1051 219.488H-53.4901V211.508H-58.1031L-58.1051 219.488ZM-58.1051 211.412H-53.4901V203.422H-58.1031L-58.1051 211.412ZM-58.1051 203.336H-53.4901V195.356H-58.1031L-58.1051 203.336ZM-58.1051 195.26H-53.4901V187.284H-58.1031L-58.1051 195.26ZM-58.1051 187.187H-53.4901V179.208H-58.1031L-58.1051 187.187ZM-58.1051 179.111H-53.4901V171.132H-58.1031L-58.1051 179.111ZM-58.1051 171.035H-53.4901V163.056H-58.1031L-58.1051 171.035ZM-58.1051 162.96H-53.4901V154.98H-58.1031L-58.1051 162.96ZM-58.1051 154.884H-53.4901V146.904H-58.1031L-58.1051 154.884ZM-58.1051 146.808H-53.4901V138.828H-58.1031L-58.1051 146.808ZM-58.1051 138.732H-53.4901V130.752H-58.1031L-58.1051 138.732ZM-58.1051 130.656H-53.4901V122.676H-58.1031L-58.1051 130.656ZM-58.1051 122.58H-53.4901V114.6H-58.1031L-58.1051 122.58ZM-58.1051 114.504H-53.4901V106.524H-58.1031L-58.1051 114.504ZM-58.1051 106.428H-53.4901V98.4485H-58.1031L-58.1051 106.428ZM-58.1051 98.3522H-53.4901V90.3726H-58.1031L-58.1051 98.3522ZM-62.7756 259.877H-58.1527V251.888H-62.7756V259.877ZM-62.7756 251.802H-58.1527V243.812H-62.7756V251.802ZM-62.7756 243.726H-58.1527V235.753H-62.7756V243.726ZM-62.7756 235.65H-58.1527V227.66H-62.7756V235.65ZM-62.7756 227.574H-58.1527V219.587H-62.7756V227.574ZM-62.7756 219.498H-58.1527V211.508H-62.7756V219.498ZM-62.7756 211.422H-58.1527V203.422H-62.7756V211.422ZM-62.7756 203.346H-58.1527V195.356H-62.7756V203.346ZM-62.7756 195.27H-58.1527V187.284H-62.7756V195.27ZM-62.7756 187.198H-58.1527V179.208H-62.7756V187.198ZM-62.7756 179.122H-58.1527V171.132H-62.7756V179.122ZM-62.7756 171.046H-58.1527V163.056H-62.7756V171.046ZM-62.7756 162.97H-58.1527V154.98H-62.7756V162.97ZM-62.7756 154.894H-58.1527V146.904H-62.7756V154.894ZM-62.7756 146.818H-58.1527V138.828H-62.7756V146.818ZM-62.7756 138.759H-58.1527V130.752H-62.7756V138.759ZM-62.7756 130.683H-58.1527V122.676H-62.7756V130.683ZM-62.7756 122.594H-58.1527V114.6H-62.7756V122.594ZM-62.7756 114.518H-58.1527V106.524H-62.7756V114.518ZM-62.7756 106.428H-58.1527V98.4485H-62.7756V106.428ZM-62.7756 98.3522H-58.1527V90.3726H-62.7756V98.3522Z" fill="url(#paint2_radial_1505_1557)"/>
<defs>
<radialGradient id="paint0_radial_1505_1557" cx="0" cy="0" r="1" gradientUnits="userSpaceOnUse" gradientTransform="translate(132.49 92.1998) rotate(180) scale(92.1998)">
<stop stop-color="#FFFFE0"/>
<stop offset="1" stop-color="#FFFFE0" stop-opacity="0"/>
</radialGradient>
<radialGradient id="paint1_radial_1505_1557" cx="0" cy="0" r="1" gradientUnits="userSpaceOnUse" gradientTransform="translate(50.9825 249.979) rotate(180) scale(34.9828 34.9792)">
<stop stop-color="#FFFFE0"/>
<stop offset="1" stop-color="#FFFFE0" stop-opacity="0"/>
</radialGradient>
<radialGradient id="paint2_radial_1505_1557" cx="0" cy="0" r="1" gradientUnits="userSpaceOnUse" gradientTransform="translate(-13.8342 175.125) rotate(180) scale(48.9812 84.8384)">
<stop stop-color="#FFFFE0"/>
<stop offset="1" stop-color="#FFFFE0" stop-opacity="0"/>
</radialGradient>
</defs>
</svg>
