<svg width="288" height="285" viewBox="0 0 288 285" fill="none" xmlns="http://www.w3.org/2000/svg">
<path d="M130.798 200.968C107.611 200.968 88.8145 182.171 88.8145 158.984C88.8145 135.797 107.611 117 130.798 117C153.985 117 172.782 135.797 172.782 158.984C172.782 182.171 153.985 200.968 130.798 200.968Z" fill="url(#paint0_radial_993_2148)"/>
<path opacity="0.5" d="M287.505 0V184.4H103.105V0H287.505ZM278.728 184.306H287.411V175.623H278.728V184.306ZM278.728 175.53H287.411V166.846H278.728V175.53ZM278.728 166.753H287.411V158.088H278.728V166.753ZM278.728 157.976H287.411V149.293H278.728V157.976ZM278.728 149.2H287.411V140.52H278.728V149.2ZM278.728 140.423H287.411V131.74H278.728V140.423ZM278.728 131.646H287.411V122.952H278.728V131.646ZM278.728 122.87H287.411V114.186H278.728V122.87ZM278.728 114.093H287.411V105.413H278.728V114.093ZM278.728 105.32H287.411V96.6368H278.728V105.32ZM278.728 96.5433H287.411V87.8601H278.728V96.5433ZM278.728 87.7666H287.411V79.0834H278.728V87.7666ZM278.728 78.99H287.411V70.3068H278.728V78.99ZM278.728 70.2133H287.411V61.5301H278.728V70.2133ZM278.728 61.4367H287.411V52.7534H278.728V61.4367ZM278.728 52.66H287.411V43.9768H278.728V52.66ZM278.728 43.8833H287.411V35.2001H278.728V43.8833ZM278.728 35.1067H287.411V26.4234H278.728V35.1067ZM278.728 26.33H287.411V17.6468H278.728V26.33ZM278.728 17.5533H287.411V8.87012H278.728V17.5533ZM278.728 8.77667H287.411V0.0934483H278.728V8.77667ZM269.952 184.306H278.635V175.623H269.952V184.306ZM269.952 175.53H278.635V166.846H269.952V175.53ZM269.952 166.753H278.635V158.088H269.952V166.753ZM269.952 157.976H278.635V149.293H269.952V157.976ZM269.952 149.2H278.635V140.52H269.952V149.2ZM269.952 140.423H278.635V131.74H269.952V140.423ZM269.952 131.646H278.635V122.952H269.952V131.646ZM269.952 122.87H278.635V114.186H269.952V122.87ZM269.952 114.093H278.635V105.413H269.952V114.093ZM269.952 105.32H278.635V96.6368H269.952V105.32ZM269.952 96.5433H278.635V87.8601H269.952V96.5433ZM269.952 87.7666H278.635V79.0834H269.952V87.7666ZM269.952 78.99H278.635V70.3068H269.952V78.99ZM269.952 70.2133H278.635V61.5301H269.952V70.2133ZM269.952 61.4367H278.635V52.7534H269.952V61.4367ZM269.952 52.66H278.635V43.9768H269.952V52.66ZM269.952 43.8833H278.635V35.2001H269.952V43.8833ZM269.952 35.1067H278.635V26.4234H269.952V35.1067ZM269.952 26.33H278.635V17.6468H269.952V26.33ZM269.952 17.5533H278.635V8.87012H269.952V17.5533ZM269.952 8.77667H278.635V0.0934483H269.952V8.77667ZM261.175 184.306H269.858V175.623H261.175V184.306ZM261.175 175.53H269.858V166.846H261.175V175.53ZM261.175 166.753H269.858V158.088H261.175V166.753ZM261.175 157.976H269.858V149.293H261.175V157.976ZM261.175 149.2H269.858V140.52H261.175V149.2ZM261.175 140.423H269.858V131.74H261.175V140.423ZM261.175 131.646H269.858V122.952H261.175V131.646ZM261.175 122.87H269.858V114.186H261.175V122.87ZM261.175 114.093H269.858V105.413H261.175V114.093ZM261.175 105.32H269.858V96.6368H261.175V105.32ZM261.175 96.5433H269.858V87.8601H261.175V96.5433ZM261.175 87.7666H269.858V79.0834H261.175V87.7666ZM261.175 78.99H269.858V70.3068H261.175V78.99ZM261.175 70.2133H269.858V61.5301H261.175V70.2133ZM261.175 61.4367H269.858V52.7534H261.175V61.4367ZM261.175 52.66H269.858V43.9768H261.175V52.66ZM261.175 43.8833H269.858V35.2001H261.175V43.8833ZM261.175 35.1067H269.858V26.4234H261.175V35.1067ZM261.175 26.33H269.858V17.6468H261.175V26.33ZM261.175 17.5533H269.858V8.87012H261.175V17.5533ZM261.175 8.77667H269.858V0.0934483H261.175V8.77667ZM252.398 184.306H261.081V175.623H252.398V184.306ZM252.398 175.53H261.081V166.846H252.398V175.53ZM252.398 166.753H261.081V158.088H252.398V166.753ZM252.398 157.976H261.081V149.293H252.398V157.976ZM252.398 149.2H261.081V140.52H252.398V149.2ZM252.398 140.423H261.081V131.74H252.398V140.423ZM252.398 131.646H261.081V122.952H252.398V131.646ZM252.398 122.87H261.081V114.186H252.398V122.87ZM252.398 114.093H261.081V105.413H252.398V114.093ZM252.398 105.32H261.081V96.6368H252.398V105.32ZM252.398 96.5433H261.081V87.8601H252.398V96.5433ZM252.398 87.7666H261.081V79.0834H252.398V87.7666ZM252.398 78.99H261.081V70.3068H252.398V78.99ZM252.398 70.2133H261.081V61.5301H252.398V70.2133ZM252.398 61.4367H261.081V52.7534H252.398V61.4367ZM252.398 52.66H261.081V43.9768H252.398V52.66ZM252.398 43.8833H261.081V35.2001H252.398V43.8833ZM252.398 35.1067H261.081V26.4234H252.398V35.1067ZM252.398 26.33H261.081V17.6468H252.398V26.33ZM252.398 17.5533H261.081V8.87012H252.398V17.5533ZM252.398 8.77667H261.081V0.0934483H252.398V8.77667ZM243.622 184.306H252.305V175.623H243.622V184.306ZM243.622 175.53H252.305V166.846H243.622V175.53ZM243.622 166.753H252.305V158.088H243.622V166.753ZM243.622 157.976H252.305V149.293H243.622V157.976ZM243.622 149.2H252.305V140.52H243.622V149.2ZM243.622 140.423H252.305V131.74H243.622V140.423ZM243.622 131.646H252.305V122.952H243.622V131.646ZM243.622 122.87H252.305V114.186H243.622V122.87ZM243.622 114.093H252.305V105.413H243.622V114.093ZM243.622 105.32H252.305V96.6368H243.622V105.32ZM243.622 96.5433H252.305V87.8601H243.622V96.5433ZM243.622 87.7666H252.305V79.0834H243.622V87.7666ZM243.622 78.99H252.305V70.3068H243.622V78.99ZM243.622 70.2133H252.305V61.5301H243.622V70.2133ZM243.622 61.4367H252.305V52.7534H243.622V61.4367ZM243.622 52.66H252.305V43.9768H243.622V52.66ZM243.622 43.8833H252.305V35.2001H243.622V43.8833ZM243.622 35.1067H252.305V26.4234H243.622V35.1067ZM243.622 26.33H252.305V17.6468H243.622V26.33ZM243.622 17.5533H252.305V8.87012H243.622V17.5533ZM243.622 8.77667H252.305V0.0934483H243.622V8.77667ZM234.845 184.306H243.528V175.623H234.845V184.306ZM234.845 175.53H243.528V166.846H234.845V175.53ZM234.845 166.753H243.528V158.088H234.845V166.753ZM234.845 157.976H243.528V149.293H234.845V157.976ZM234.845 149.2H243.528V140.52H234.845V149.2ZM234.845 140.423H243.528V131.74H234.845V140.423ZM234.845 131.646H243.528V122.952H234.845V131.646ZM234.845 122.87H243.528V114.186H234.845V122.87ZM234.845 114.093H243.528V105.413H234.845V114.093ZM234.845 105.32H243.528V96.6368H234.845V105.32ZM234.845 96.5433H243.528V87.8601H234.845V96.5433ZM234.845 87.7666H243.528V79.0834H234.845V87.7666ZM234.845 78.99H243.528V70.3068H234.845V78.99ZM234.845 70.2133H243.528V61.5301H234.845V70.2133ZM234.845 61.4367H243.528V52.7534H234.845V61.4367ZM234.845 52.66H243.528V43.9768H234.845V52.66ZM234.845 43.8833H243.528V35.2001H234.845V43.8833ZM234.845 35.1067H243.528V26.4234H234.845V35.1067ZM234.845 26.33H243.528V17.6468H234.845V26.33ZM234.845 17.5533H243.528V8.87012H234.845V17.5533ZM234.845 8.77667H243.528V0.0934483H234.845V8.77667ZM226.068 184.306H234.755V175.623H226.072L226.068 184.306ZM226.068 175.53H234.755V166.846H226.072L226.068 175.53ZM226.068 166.753H234.755V158.088H226.072L226.068 166.753ZM226.068 157.976H234.755V149.293H226.072L226.068 157.976ZM226.068 149.2H234.755V140.52H226.072L226.068 149.2ZM226.068 140.423H234.755V131.74H226.072L226.068 140.423ZM226.068 131.646H234.755V122.952H226.072L226.068 131.646ZM226.068 122.87H234.755V114.186H226.072L226.068 122.87ZM226.068 114.093H234.755V105.413H226.072L226.068 114.093ZM226.068 105.32H234.755V96.6368H226.072L226.068 105.32ZM226.068 96.5433H234.755V87.8601H226.072L226.068 96.5433ZM226.068 87.7666H234.755V79.0834H226.072L226.068 87.7666ZM226.068 78.99H234.755V70.3068H226.072L226.068 78.99ZM226.068 70.2133H234.755V61.5301H226.072L226.068 70.2133ZM226.068 61.4367H234.755V52.7534H226.072L226.068 61.4367ZM226.068 52.66H234.755V43.9768H226.072L226.068 52.66ZM226.068 43.8833H234.755V35.2001H226.072L226.068 43.8833ZM226.068 35.1067H234.755V26.4234H226.072L226.068 35.1067ZM226.068 26.33H234.755V17.6468H226.072L226.068 26.33ZM226.068 17.5533H234.755V8.87012H226.072L226.068 17.5533ZM226.068 8.77667H234.755V0.0934483H226.072L226.068 8.77667ZM217.292 184.306H225.975V175.623H217.292V184.306ZM217.292 175.53H225.975V166.846H217.292V175.53ZM217.292 166.753H225.975V158.088H217.292V166.753ZM217.292 157.976H225.975V149.293H217.292V157.976ZM217.292 149.2H225.975V140.52H217.292V149.2ZM217.292 140.423H225.975V131.74H217.292V140.423ZM217.292 131.646H225.975V122.952H217.292V131.646ZM217.292 122.87H225.975V114.186H217.292V122.87ZM217.292 114.093H225.975V105.413H217.292V114.093ZM217.292 105.32H225.975V96.6368H217.292V105.32ZM217.292 96.5433H225.975V87.8601H217.292V96.5433ZM217.292 87.7666H225.975V79.0834H217.292V87.7666ZM217.292 78.99H225.975V70.3068H217.292V78.99ZM217.292 70.2133H225.975V61.5301H217.292V70.2133ZM217.292 61.4367H225.975V52.7534H217.292V61.4367ZM217.292 52.66H225.975V43.9768H217.292V52.66ZM217.292 43.8833H225.975V35.2001H217.292V43.8833ZM217.292 35.1067H225.975V26.4234H217.292V35.1067ZM217.292 26.33H225.975V17.6468H217.292V26.33ZM217.292 17.5533H225.975V8.87012H217.292V17.5533ZM217.292 8.77667H225.975V0.0934483H217.292V8.77667ZM208.519 184.306H217.187V175.623H208.507L208.519 184.306ZM208.519 175.53H217.187V166.846H208.507L208.519 175.53ZM208.519 166.753H217.187V158.088H208.507L208.519 166.753ZM208.519 157.976H217.187V149.293H208.507L208.519 157.976ZM208.519 149.2H217.187V140.52H208.507L208.519 149.2ZM208.519 140.423H217.187V131.74H208.507L208.519 140.423ZM208.519 131.646H217.187V122.952H208.507L208.519 131.646ZM208.519 122.87H217.187V114.186H208.507L208.519 122.87ZM208.519 114.093H217.187V105.413H208.507L208.519 114.093ZM208.519 105.32H217.187V96.6368H208.507L208.519 105.32ZM208.519 96.5433H217.187V87.8601H208.507L208.519 96.5433ZM208.519 87.7666H217.187V79.0834H208.507L208.519 87.7666ZM208.519 78.99H217.187V70.3068H208.507L208.519 78.99ZM208.519 70.2133H217.187V61.5301H208.507L208.519 70.2133ZM208.519 61.4367H217.187V52.7534H208.507L208.519 61.4367ZM208.519 52.66H217.187V43.9768H208.507L208.519 52.66ZM208.519 43.8833H217.187V35.2001H208.507L208.519 43.8833ZM208.519 35.1067H217.187V26.4234H208.507L208.519 35.1067ZM208.519 26.33H217.187V17.6468H208.507L208.519 26.33ZM208.519 17.5533H217.187V8.87012H208.507L208.519 17.5533ZM208.519 8.77667H217.187V0.0934483H208.507L208.519 8.77667ZM199.742 184.306H208.425V175.623H199.742V184.306ZM199.742 175.53H208.425V166.846H199.742V175.53ZM199.742 166.753H208.425V158.088H199.742V166.753ZM199.742 157.976H208.425V149.293H199.742V157.976ZM199.742 149.2H208.425V140.52H199.742V149.2ZM199.742 140.423H208.425V131.74H199.742V140.423ZM199.742 131.646H208.425V122.952H199.742V131.646ZM199.742 122.87H208.425V114.186H199.742V122.87ZM199.742 114.093H208.425V105.413H199.742V114.093ZM199.742 105.32H208.425V96.6368H199.742V105.32ZM199.742 96.5433H208.425V87.8601H199.742V96.5433ZM199.742 87.7666H208.425V79.0834H199.742V87.7666ZM199.742 78.99H208.425V70.3068H199.742V78.99ZM199.742 70.2133H208.425V61.5301H199.742V70.2133ZM199.742 61.4367H208.425V52.7534H199.742V61.4367ZM199.742 52.66H208.425V43.9768H199.742V52.66ZM199.742 43.8833H208.425V35.2001H199.742V43.8833ZM199.742 35.1067H208.425V26.4234H199.742V35.1067ZM199.742 26.33H208.425V17.6468H199.742V26.33ZM199.742 17.5533H208.425V8.87012H199.742V17.5533ZM199.742 8.77667H208.425V0.0934483H199.742V8.77667ZM190.965 184.306H199.649V175.623H190.965V184.306ZM190.965 175.53H199.649V166.846H190.965V175.53ZM190.965 166.753H199.649V158.088H190.965V166.753ZM190.965 157.976H199.649V149.293H190.965V157.976ZM190.965 149.2H199.649V140.52H190.965V149.2ZM190.965 140.423H199.649V131.74H190.965V140.423ZM190.965 131.646H199.649V122.952H190.965V131.646ZM190.965 122.87H199.649V114.186H190.965V122.87ZM190.965 114.093H199.649V105.413H190.965V114.093ZM190.965 105.32H199.649V96.6368H190.965V105.32ZM190.965 96.5433H199.649V87.8601H190.965V96.5433ZM190.965 87.7666H199.649V79.0834H190.965V87.7666ZM190.965 78.99H199.649V70.3068H190.965V78.99ZM190.965 70.2133H199.649V61.5301H190.965V70.2133ZM190.965 61.4367H199.649V52.7534H190.965V61.4367ZM190.965 52.66H199.649V43.9768H190.965V52.66ZM190.965 43.8833H199.649V35.2001H190.965V43.8833ZM190.965 35.1067H199.649V26.4234H190.965V35.1067ZM190.965 26.33H199.649V17.6468H190.965V26.33ZM190.965 17.5533H199.649V8.87012H190.965V17.5533ZM190.965 8.77667H199.649V0.0934483H190.965V8.77667ZM182.189 184.306H190.872V175.623H182.189V184.306ZM182.189 175.53H190.872V166.846H182.189V175.53ZM182.189 166.753H190.872V158.088H182.189V166.753ZM182.189 157.976H190.872V149.293H182.189V157.976ZM182.189 149.2H190.872V140.52H182.189V149.2ZM182.189 140.423H190.872V131.74H182.189V140.423ZM182.189 131.646H190.872V122.952H182.189V131.646ZM182.189 122.87H190.872V114.186H182.189V122.87ZM182.189 114.093H190.872V105.413H182.189V114.093ZM182.189 105.32H190.872V96.6368H182.189V105.32ZM182.189 96.5433H190.872V87.8601H182.189V96.5433ZM182.189 87.7666H190.872V79.0834H182.189V87.7666ZM182.189 78.99H190.872V70.3068H182.189V78.99ZM182.189 70.2133H190.872V61.5301H182.189V70.2133ZM182.189 61.4367H190.872V52.7534H182.189V61.4367ZM182.189 52.66H190.872V43.9768H182.189V52.66ZM182.189 43.8833H190.872V35.2001H182.189V43.8833ZM182.189 35.1067H190.872V26.4234H182.189V35.1067ZM182.189 26.33H190.872V17.6468H182.189V26.33ZM182.189 17.5533H190.872V8.87012H182.189V17.5533ZM182.189 8.77667H190.872V0.0934483H182.189V8.77667ZM173.412 184.306H182.095V175.623H173.412V184.306ZM173.412 175.53H182.095V166.846H173.412V175.53ZM173.412 166.753H182.095V158.088H173.412V166.753ZM173.412 157.976H182.095V149.293H173.412V157.976ZM173.412 149.2H182.095V140.52H173.412V149.2ZM173.412 140.423H182.095V131.74H173.412V140.423ZM173.412 131.646H182.095V122.952H173.412V131.646ZM173.412 122.87H182.095V114.186H173.412V122.87ZM173.412 114.093H182.095V105.413H173.412V114.093ZM173.412 105.32H182.095V96.6368H173.412V105.32ZM173.412 96.5433H182.095V87.8601H173.412V96.5433ZM173.412 87.7666H182.095V79.0834H173.412V87.7666ZM173.412 78.99H182.095V70.3068H173.412V78.99ZM173.412 70.2133H182.095V61.5301H173.412V70.2133ZM173.412 61.4367H182.095V52.7534H173.412V61.4367ZM173.412 52.66H182.095V43.9768H173.412V52.66ZM173.412 43.8833H182.095V35.2001H173.412V43.8833ZM173.412 35.1067H182.095V26.4234H173.412V35.1067ZM173.412 26.33H182.095V17.6468H173.412V26.33ZM173.412 17.5533H182.095V8.87012H173.412V17.5533ZM173.412 8.77667H182.095V0.0934483H173.412V8.77667ZM164.635 184.306H173.319V175.623H164.635V184.306ZM164.635 175.53H173.319V166.846H164.635V175.53ZM164.635 166.753H173.319V158.088H164.635V166.753ZM164.635 157.976H173.319V149.293H164.635V157.976ZM164.635 149.2H173.319V140.52H164.635V149.2ZM164.635 140.423H173.319V131.74H164.635V140.423ZM164.635 131.646H173.319V122.952H164.635V131.646ZM164.635 122.87H173.319V114.186H164.635V122.87ZM164.635 114.093H173.319V105.413H164.635V114.093ZM164.635 105.32H173.319V96.6368H164.635V105.32ZM164.635 96.5433H173.319V87.8601H164.635V96.5433ZM164.635 87.7666H173.319V79.0834H164.635V87.7666ZM164.635 78.99H173.319V70.3068H164.635V78.99ZM164.635 70.2133H173.319V61.5301H164.635V70.2133ZM164.635 61.4367H173.319V52.7534H164.635V61.4367ZM164.635 52.66H173.319V43.9768H164.635V52.66ZM164.635 43.8833H173.319V35.2001H164.635V43.8833ZM164.635 35.1067H173.319V26.4234H164.635V35.1067ZM164.635 26.33H173.319V17.6468H164.635V26.33ZM164.635 17.5533H173.319V8.87012H164.635V17.5533ZM164.635 8.77667H173.319V0.0934483H164.635V8.77667ZM155.859 184.306H164.542V175.623H155.859V184.306ZM155.859 175.53H164.542V166.846H155.859V175.53ZM155.859 166.753H164.542V158.088H155.859V166.753ZM155.859 157.976H164.542V149.293H155.859V157.976ZM155.859 149.2H164.542V140.52H155.859V149.2ZM155.859 140.423H164.542V131.74H155.859V140.423ZM155.859 131.646H164.542V122.952H155.859V131.646ZM155.859 122.87H164.542V114.186H155.859V122.87ZM155.859 114.093H164.542V105.413H155.859V114.093ZM155.859 105.32H164.542V96.6368H155.859V105.32ZM155.859 96.5433H164.542V87.8601H155.859V96.5433ZM155.859 87.7666H164.542V79.0834H155.859V87.7666ZM155.859 78.99H164.542V70.3068H155.859V78.99ZM155.859 70.2133H164.542V61.5301H155.859V70.2133ZM155.859 61.4367H164.542V52.7534H155.859V61.4367ZM155.859 52.66H164.542V43.9768H155.859V52.66ZM155.859 43.8833H164.542V35.2001H155.859V43.8833ZM155.859 35.1067H164.542V26.4234H155.859V35.1067ZM155.859 26.33H164.542V17.6468H155.859V26.33ZM155.859 17.5533H164.542V8.87012H155.859V17.5533ZM155.859 8.77667H164.542V0.0934483H155.859V8.77667ZM147.082 184.306H155.765V175.623H147.082V184.306ZM147.082 175.53H155.765V166.846H147.082V175.53ZM147.082 166.753H155.765V158.088H147.082V166.753ZM147.082 157.976H155.765V149.293H147.082V157.976ZM147.082 149.2H155.765V140.52H147.082V149.2ZM147.082 140.423H155.765V131.74H147.082V140.423ZM147.082 131.646H155.765V122.952H147.082V131.646ZM147.082 122.87H155.765V114.186H147.082V122.87ZM147.082 114.093H155.765V105.413H147.082V114.093ZM147.082 105.32H155.765V96.6368H147.082V105.32ZM147.082 96.5433H155.765V87.8601H147.082V96.5433ZM147.082 87.7666H155.765V79.0834H147.082V87.7666ZM147.082 78.99H155.765V70.3068H147.082V78.99ZM147.082 70.2133H155.765V61.5301H147.082V70.2133ZM147.082 61.4367H155.765V52.7534H147.082V61.4367ZM147.082 52.66H155.765V43.9768H147.082V52.66ZM147.082 43.8833H155.765V35.2001H147.082V43.8833ZM147.082 35.1067H155.765V26.4234H147.082V35.1067ZM147.082 26.33H155.765V17.6468H147.082V26.33ZM147.082 17.5533H155.765V8.87012H147.082V17.5533ZM147.082 8.77667H155.765V0.0934483H147.082V8.77667ZM138.317 184.306H146.989V175.623H138.317V184.306ZM138.317 175.53H146.989V166.846H138.317V175.53ZM138.317 166.753H146.989V158.088H138.317V166.753ZM138.317 157.976H146.989V149.293H138.317V157.976ZM138.317 149.2H146.989V140.52H138.317V149.2ZM138.317 140.423H146.989V131.74H138.317V140.423ZM138.317 131.646H146.989V122.952H138.317V131.646ZM138.317 122.87H146.989V114.186H138.317V122.87ZM138.317 114.093H146.989V105.413H138.317V114.093ZM138.317 105.32H146.989V96.6368H138.317V105.32ZM138.317 96.5433H146.989V87.8601H138.317V96.5433ZM138.317 87.7666H146.989V79.0834H138.317V87.7666ZM138.317 78.99H146.989V70.3068H138.317V78.99ZM138.317 70.2133H146.989V61.5301H138.317V70.2133ZM138.317 61.4367H146.989V52.7534H138.317V61.4367ZM138.317 52.6787H146.989V43.9768H138.317V52.6787ZM138.317 43.902H146.989V35.2001H138.317V43.902ZM138.317 35.1104H146.989V26.4234H138.317V35.1104ZM138.317 26.3337H146.989V17.6468H138.317V26.3337ZM138.317 17.5421H146.989V8.87012H138.317V17.5421ZM138.317 8.76545H146.989V0.0934483H138.317V8.76545ZM129.54 184.295H138.212V175.623H129.529L129.54 184.295ZM129.54 175.518H138.212V166.846H129.529L129.54 175.518ZM129.54 166.742H138.212V158.088H129.529L129.54 166.742ZM129.54 157.965H138.212V149.293H129.529L129.54 157.965ZM129.54 149.188H138.212V140.52H129.529L129.54 149.188ZM129.54 140.412H138.212V131.74H129.529L129.54 140.412ZM129.54 131.635H138.212V122.952H129.529L129.54 131.635ZM129.54 122.858H138.212V114.186H129.529L129.54 122.858ZM129.54 114.082H138.212V105.413H129.529L129.54 114.082ZM129.54 105.309H138.212V96.6368H129.529L129.54 105.309ZM129.54 96.5321H138.212V87.8601H129.529L129.54 96.5321ZM129.54 87.7554H138.212V79.0834H129.529L129.54 87.7554ZM129.54 78.9788H138.212V70.3068H129.529L129.54 78.9788ZM129.54 70.2021H138.212V61.5301H129.529L129.54 70.2021ZM129.54 61.4254H138.212V52.7534H129.529L129.54 61.4254ZM129.54 52.6488H138.212V43.9768H129.529L129.54 52.6488ZM129.54 43.8721H138.212V35.2001H129.529L129.54 43.8721ZM129.54 35.0955H138.212V26.4234H129.529L129.54 35.0955ZM129.54 26.3188H138.212V17.6468H129.529L129.54 26.3188ZM129.54 17.5421H138.212V8.87012H129.529L129.54 17.5421ZM129.54 8.76545H138.212V0.0934483H129.529L129.54 8.76545ZM120.748 184.306H129.435V175.623H120.748V184.306ZM120.748 175.53H129.435V166.846H120.748V175.53ZM120.748 166.753H129.435V158.088H120.748V166.753ZM120.748 157.976H129.435V149.293H120.748V157.976ZM120.748 149.2H129.435V140.52H120.748V149.2ZM120.748 140.423H129.435V131.74H120.748V140.423ZM120.748 131.646H129.435V122.952H120.748V131.646ZM120.748 122.87H129.435V114.186H120.748V122.87ZM120.748 114.093H129.435V105.413H120.748V114.093ZM120.748 105.32H129.435V96.6368H120.748V105.32ZM120.748 96.5433H129.435V87.8601H120.748V96.5433ZM120.748 87.7666H129.435V79.0834H120.748V87.7666ZM120.748 78.99H129.435V70.3068H120.748V78.99ZM120.748 70.2133H129.435V61.5301H120.748V70.2133ZM120.748 61.4367H129.435V52.7534H120.748V61.4367ZM120.748 52.6787H129.435V43.9768H120.748V52.6787ZM120.748 43.902H129.435V35.2001H120.748V43.902ZM120.748 35.1104H129.435V26.4234H120.748V35.1104ZM120.748 26.3337H129.435V17.6468H120.748V26.3337ZM120.748 17.5421H129.435V8.87012H120.748V17.5421ZM120.748 8.76545H129.435V0.0934483H120.748V8.76545ZM111.972 184.295H120.659V175.623H111.975L111.972 184.295ZM111.972 175.518H120.659V166.846H111.975L111.972 175.518ZM111.972 166.742H120.659V158.088H111.975L111.972 166.742ZM111.972 157.965H120.659V149.293H111.975L111.972 157.965ZM111.972 149.188H120.659V140.52H111.975L111.972 149.188ZM111.972 140.412H120.659V131.74H111.975L111.972 140.412ZM111.972 131.635H120.659V122.952H111.975L111.972 131.635ZM111.972 122.858H120.659V114.186H111.975L111.972 122.858ZM111.972 114.082H120.659V105.413H111.975L111.972 114.082ZM111.972 105.309H120.659V96.6368H111.975L111.972 105.309ZM111.972 96.5321H120.659V87.8601H111.975L111.972 96.5321ZM111.972 87.7554H120.659V79.0834H111.975L111.972 87.7554ZM111.972 78.9788H120.659V70.3068H111.975L111.972 78.9788ZM111.972 70.2021H120.659V61.5301H111.975L111.972 70.2021ZM111.972 61.4254H120.659V52.7534H111.975L111.972 61.4254ZM111.972 52.6488H120.659V43.9768H111.975L111.972 52.6488ZM111.972 43.8721H120.659V35.2001H111.975L111.972 43.8721ZM111.972 35.0955H120.659V26.4234H111.975L111.972 35.0955ZM111.972 26.3188H120.659V17.6468H111.975L111.972 26.3188ZM111.972 17.5421H120.659V8.87012H111.975L111.972 17.5421ZM111.972 8.76545H120.659V0.0934483H111.975L111.972 8.76545ZM103.18 184.306H111.882V175.623H103.18V184.306ZM103.18 175.53H111.882V166.846H103.18V175.53ZM103.18 166.753H111.882V158.088H103.18V166.753ZM103.18 157.976H111.882V149.293H103.18V157.976ZM103.18 149.2H111.882V140.52H103.18V149.2ZM103.18 140.423H111.882V131.74H103.18V140.423ZM103.18 131.646H111.882V122.952H103.18V131.646ZM103.18 122.87H111.882V114.186H103.18V122.87ZM103.18 114.093H111.882V105.413H103.18V114.093ZM103.18 105.32H111.882V96.6368H103.18V105.32ZM103.18 96.5433H111.882V87.8601H103.18V96.5433ZM103.18 87.7666H111.882V79.0834H103.18V87.7666ZM103.18 78.99H111.882V70.3068H103.18V78.99ZM103.18 70.2133H111.882V61.5301H103.18V70.2133ZM103.18 61.4367H111.882V52.7534H103.18V61.4367ZM103.18 52.6787H111.882V43.9768H103.18V52.6787ZM103.18 43.902H111.882V35.2001H103.18V43.902ZM103.18 35.1104H111.882V26.4234H103.18V35.1104ZM103.18 26.3337H111.882V17.6468H103.18V26.3337ZM103.18 17.5421H111.882V8.87012H103.18V17.5421ZM103.18 8.76545H111.882V0.0934483H103.18V8.76545Z" fill="url(#paint1_radial_993_2148)"/>
<g filter="url(#filter0_d_993_2148)">
<path d="M33.3464 69.8086C12.6522 90.4852 12.6356 124.02 33.3078 144.716C53.98 165.412 87.512 165.428 108.206 144.755C128.9 124.081 162.432 124.097 183.105 144.793C203.777 165.489 203.76 199.032 183.069 219.709" stroke="#FFFFE0" stroke-width="0.25" stroke-miterlimit="10" shape-rendering="crispEdges"/>
</g>
<path opacity="0.28" d="M153.151 163.123L153.185 163.156L153.218 163.189L162.79 172.76L162.823 172.793L162.856 172.827L172.428 182.397L172.461 182.432L172.495 182.466L179.193 189.163L179.093 189.255L172.399 182.562L172.365 182.528L172.332 182.495L162.76 172.924L162.727 172.891L162.694 172.857L153.121 163.287L153.087 163.252L153.054 163.219L151.122 161.287L151.214 161.187L153.151 163.123Z" fill="#CDCDCD"/>
<path opacity="0.28" d="M152.221 164.119L152.254 164.152L161.826 173.723L161.859 173.756L161.892 173.79L171.464 183.359L171.497 183.392L171.531 183.426L178.169 190.064L178.064 190.15L171.435 183.522L171.401 183.488L171.368 183.455L161.796 173.89L161.763 173.857L161.73 173.823L152.154 164.25L152.12 164.216L152.087 164.182L150.221 162.316C150.25 162.281 150.278 162.245 150.307 162.208L152.187 164.086L152.221 164.119Z" fill="#CDCDCD"/>
<path opacity="0.28" d="M148.365 167.975L148.398 168.009L157.969 177.579L158.003 177.612L158.036 177.646L167.612 187.216L167.645 187.25L167.68 187.283L173.377 192.985L173.238 193.043L167.574 187.379L167.541 187.346L167.508 187.312L157.936 177.742L157.903 177.709L157.869 177.675L148.298 168.105L148.264 168.071L148.231 168.038L147.33 167.137C147.349 167.092 147.367 167.046 147.387 166.998L148.327 167.937L148.365 167.975Z" fill="#CDCDCD"/>
<path opacity="0.28" d="M150.292 166.048L150.325 166.081L159.898 175.652L159.932 175.685L159.965 175.719L169.537 185.289L169.57 185.323L169.603 185.356L175.919 191.671L175.799 191.744L169.507 185.448L169.472 185.415L169.439 185.381L159.868 175.811L159.834 175.777L159.801 175.744L150.229 166.173L150.196 166.14L150.162 166.107L148.63 164.575L148.704 164.455L150.258 166.013L150.292 166.048Z" fill="#CDCDCD"/>
<path opacity="0.28" d="M147.401 168.939L147.434 168.972L157.006 178.543L157.039 178.576L157.073 178.61L166.637 188.18L166.671 188.214L166.704 188.247L171.985 193.525L171.846 193.572L166.62 188.349L166.587 188.315L166.554 188.281L156.982 178.71L156.949 178.677L156.915 178.643L147.344 169.073L147.31 169.039L147.277 169.006L146.813 168.544C146.83 168.495 146.845 168.446 146.862 168.404L147.373 168.915L147.401 168.939Z" fill="#CDCDCD"/>
<path opacity="0.28" d="M149.328 167.011L149.362 167.044L158.933 176.615L158.967 176.648L159 176.682L168.573 186.252L168.606 186.286L168.64 186.319L174.687 192.365L174.56 192.432L168.542 186.422L168.509 186.389L168.475 186.355L158.904 176.785L158.87 176.751L158.837 176.718L149.266 167.147L149.232 167.114L149.199 167.081L147.945 165.827L148.011 165.701L149.296 166.986L149.328 167.011Z" fill="#CDCDCD"/>
<path opacity="0.28" d="M151.256 165.083L151.289 165.116L160.862 174.688L160.896 174.721L160.929 174.755L170.5 184.325L170.534 184.359L170.567 184.392L177.082 190.903L176.969 190.983L170.474 184.488L170.441 184.455L170.406 184.421L160.834 174.851L160.801 174.818L160.767 174.784L151.193 165.214L151.16 165.18L151.126 165.147L149.394 163.413L149.473 163.3L151.222 165.049L151.256 165.083Z" fill="#CDCDCD"/>
<path opacity="0.28" d="M146.471 169.935L156.042 179.506L156.076 179.539L156.109 179.573L165.681 189.143L165.714 189.177L165.747 189.21L170.499 193.961L170.344 193.999L165.651 189.308L165.618 189.274L165.584 189.241L156.013 179.67L155.98 179.635L155.946 179.602L146.376 170.034L146.397 169.947C146.397 169.926 146.407 169.906 146.412 169.887L146.434 169.909L146.471 169.935Z" fill="#CDCDCD"/>
<path opacity="0.28" d="M152.221 183.396L152.254 183.429L161.826 193L161.859 193.033L161.892 193.066L163.264 194.438L163.046 194.413L161.792 193.16L161.759 193.126L161.725 193.093L152.154 183.525L152.12 183.492L152.087 183.458L145.959 177.331L145.934 177.113L152.187 183.359L152.221 183.396Z" fill="#CDCDCD"/>
<path opacity="0.28" d="M154.148 181.467L154.182 181.5L163.753 191.072L163.787 191.105L163.82 191.139L167.194 194.51L167.015 194.524L163.725 191.235L163.692 191.201L163.658 191.168L154.087 181.598L154.054 181.564L154.02 181.531L145.854 173.365C145.854 173.305 145.862 173.245 145.868 173.186L154.116 181.433L154.148 181.467Z" fill="#CDCDCD"/>
<path opacity="0.28" d="M153.184 182.432L153.218 182.465L162.789 192.036L162.823 192.069L162.856 192.103L165.325 194.572H165.13L162.763 192.205L162.729 192.171L162.696 192.138L153.123 182.567L153.09 182.534L153.056 182.5L145.815 175.259C145.815 175.194 145.815 175.129 145.815 175.064L153.161 182.408L153.184 182.432Z" fill="#CDCDCD"/>
<path opacity="0.28" d="M155.112 180.503L155.145 180.537L164.717 190.107L164.75 190.141L164.784 190.174L168.907 194.297L168.742 194.325L164.688 190.272L164.654 190.238L164.621 190.205L155.049 180.634L155.016 180.601L154.982 180.566L146.051 171.637C146.06 171.582 146.07 171.527 146.079 171.472L155.078 180.47L155.112 180.503Z" fill="#CDCDCD"/>
<path opacity="0.28" d="M150.292 185.323L150.325 185.356L158.06 193.09L157.726 192.951L150.229 185.448L150.196 185.415L150.162 185.381L147.429 182.648C147.38 182.536 147.334 182.425 147.289 182.313L150.261 185.285L150.292 185.323Z" fill="#CDCDCD"/>
<path opacity="0.28" d="M151.255 184.359L151.289 184.393L160.862 193.963L160.895 193.996L160.916 194.017L160.881 194.009L160.828 193.996C160.773 193.983 160.715 193.97 160.66 193.955L151.19 184.486L151.156 184.452L151.123 184.419L146.419 179.714C146.397 179.63 146.377 179.544 146.356 179.459L151.219 184.323L151.255 184.359Z" fill="#CDCDCD"/>
<path opacity="0.28" d="M175.256 160.361L175.223 160.328L170.502 155.608L170.765 155.678L175.319 160.231L175.352 160.265L175.386 160.298L184.702 169.613C184.726 169.7 184.75 169.788 184.772 169.876L175.29 160.394L175.256 160.361Z" fill="#CDCDCD"/>
<path opacity="0.28" d="M180.371 161.62L178.753 160.009C179.323 160.515 179.863 161.052 180.371 161.62Z" fill="#CDCDCD"/>
<path opacity="0.28" d="M176.22 159.397L176.187 159.364L173.429 156.606L173.775 156.762L176.281 159.269L176.316 159.302L176.35 159.336L183.628 166.604C183.679 166.719 183.729 166.834 183.779 166.95L176.259 159.43L176.22 159.397Z" fill="#CDCDCD"/>
<path opacity="0.28" d="M152.254 189.404L150.973 188.123C150.614 187.731 150.273 187.325 149.948 186.906L153.471 190.429C153.052 190.103 152.646 189.761 152.254 189.404Z" fill="#CDCDCD"/>
<path opacity="0.28" d="M181.04 173.854L181.006 173.82L171.435 164.25L171.401 164.217L171.368 164.182L162.43 155.246L162.599 155.22L171.464 164.086L171.498 164.119L171.531 164.152L181.102 173.723L181.136 173.756L181.169 173.79L185.159 177.781C185.151 177.836 185.141 177.892 185.133 177.946L181.073 173.89L181.04 173.854Z" fill="#CDCDCD"/>
<path opacity="0.28" d="M182.967 171.926L182.934 171.892L173.362 162.322L173.329 162.288L173.295 162.255L166.038 155H166.238L173.391 162.159L173.425 162.192L173.458 162.226L183.03 171.802L183.063 171.835L183.097 171.869L185.375 174.141C185.375 174.206 185.375 174.273 185.375 174.34L182.995 171.96L182.967 171.926Z" fill="#CDCDCD"/>
<path opacity="0.28" d="M182.003 172.891L181.97 172.858L172.398 163.287L172.365 163.252L172.332 163.219L164.158 155.046L164.339 155.035L172.428 163.123L172.461 163.156L172.495 163.19L182.066 172.76L182.099 172.793L182.133 172.827L185.346 176.039C185.346 176.099 185.346 176.16 185.335 176.22L182.037 172.924L182.003 172.891Z" fill="#CDCDCD"/>
<path opacity="0.28" d="M183.931 170.966L183.898 170.933L174.326 161.358L174.293 161.325L174.259 161.291L168.12 155.155C168.196 155.163 168.271 155.176 168.345 155.185L174.355 161.195L174.389 161.229L174.422 161.262L183.994 170.827L184.027 170.861L184.062 170.894L185.195 172.027C185.205 172.103 185.216 172.178 185.226 172.252L183.964 170.99L183.931 170.966Z" fill="#CDCDCD"/>
<path opacity="0.28" d="M173.322 181.564L173.288 181.531L163.717 171.96L163.683 171.925L163.65 171.892L154.078 162.321L154.045 162.288L154.012 162.255L152.084 160.322L152.184 160.229L154.115 162.158L154.148 162.192L154.181 162.225L163.753 171.801L163.786 171.835L163.82 171.868L173.391 181.433L173.425 181.467L173.458 181.5L180.146 188.192L180.052 188.291L173.356 181.598L173.322 181.564Z" fill="#CDCDCD"/>
<path opacity="0.28" d="M175.256 179.636L175.223 179.602L165.651 170.032L165.618 169.998L165.585 169.965L156.013 160.394L155.98 160.361L155.946 160.328L154.211 158.594C154.249 158.566 154.288 158.541 154.325 158.515L156.042 160.232L156.076 160.265L156.109 160.298L165.681 169.869L165.714 169.902L165.747 169.936L175.319 179.506L175.352 179.54L175.386 179.573L181.866 186.052L181.786 186.167L175.29 179.671L175.256 179.636Z" fill="#CDCDCD"/>
<path opacity="0.28" d="M177.183 177.708L177.15 177.675L167.578 168.104L167.545 168.071L167.511 168.038L157.94 158.467L157.907 158.434L157.873 158.4L156.62 157.147L156.749 157.083L157.973 158.308L158.007 158.342L158.04 158.375L167.612 167.942L167.645 167.975L167.68 168.008L177.252 177.579L177.285 177.612L177.318 177.646L183.307 183.633C183.286 183.677 183.265 183.72 183.243 183.763L177.221 177.742L177.183 177.708Z" fill="#CDCDCD"/>
<path opacity="0.28" d="M179.113 175.781L179.079 175.748L169.508 166.177L169.473 166.144L169.439 166.111L159.868 156.54L159.834 156.507L159.801 156.473L159.334 156.005L159.474 155.958L159.892 156.376L159.925 156.409L159.958 156.443L169.537 166.013L169.57 166.048L169.604 166.081L179.171 175.652L179.204 175.685L179.238 175.719L184.418 180.899C184.403 180.946 184.386 180.995 184.371 181.038L179.142 175.809L179.113 175.781Z" fill="#CDCDCD"/>
<path opacity="0.28" d="M174.297 180.601L174.263 180.566L164.687 170.995L164.654 170.962L164.621 170.928L155.049 161.358L155.016 161.324L154.982 161.291L153.115 159.424L153.221 159.337L155.078 161.195L155.112 161.228L155.145 161.262L164.717 170.827L164.75 170.86L164.784 170.894L174.355 180.464L174.388 180.498L174.422 180.531L181.041 187.149L180.956 187.257L174.326 180.628L174.297 180.601Z" fill="#CDCDCD"/>
<path opacity="0.28" d="M176.22 178.672L176.187 178.639L166.615 169.068L166.582 169.035L166.548 169.001L156.977 159.431L156.943 159.397L156.91 159.364L155.378 157.832L155.501 157.76L157.006 159.269L157.039 159.303L157.073 159.336L166.637 168.905L166.671 168.939L166.704 168.972L176.276 178.543L176.311 178.576L176.344 178.609L182.611 184.876C182.587 184.916 182.563 184.958 182.538 184.997L176.244 178.703L176.22 178.672Z" fill="#CDCDCD"/>
<path opacity="0.28" d="M178.147 176.745L178.114 176.711L168.542 167.141L168.509 167.107L168.475 167.074L158.904 157.503L158.871 157.47L158.837 157.436L157.932 156.531L158.071 156.476L158.935 157.339L158.968 157.372L159.001 157.407L168.573 166.978L168.606 167.011L168.64 167.045L178.211 176.615L178.245 176.648L178.278 176.682L183.906 182.308C183.888 182.353 183.87 182.399 183.85 182.447L178.183 176.781L178.147 176.745Z" fill="#CDCDCD"/>
<path opacity="0.28" d="M180.076 174.818L180.043 174.784L170.471 165.214L170.438 165.18L170.403 165.147L160.831 155.576H160.84L160.987 155.54L170.5 165.049L170.534 165.083L170.567 165.116L180.139 174.688L180.172 174.721L180.205 174.755L184.846 179.393C184.833 179.446 184.821 179.498 184.807 179.549L180.109 174.851L180.076 174.818Z" fill="#CDCDCD"/>
<path d="M148.78 215V284.958H78.8147V215H148.78ZM145.45 284.923H148.745V281.629H145.45V284.923ZM145.45 281.593H148.745V278.299H145.45V281.593ZM145.45 278.263H148.745V274.976H145.45V278.263ZM145.45 274.934H148.745V271.639H145.45V274.934ZM145.45 271.604H148.745V268.311H145.45V271.604ZM145.45 268.274H148.745V264.98H145.45V268.274ZM145.45 264.945H148.745V261.646H145.45V264.945ZM145.45 261.615H148.745V258.321H145.45V261.615ZM145.45 258.285H148.745V254.992H145.45V258.285ZM145.45 254.957H148.745V251.663H145.45V254.957ZM145.45 251.627H148.745V248.333H145.45V251.627ZM145.45 248.297H148.745V245.003H145.45V248.297ZM145.45 244.968H148.745V241.673H145.45V244.968ZM145.45 241.638H148.745V238.344H145.45V241.638ZM145.45 238.308H148.745V235.014H145.45V238.308ZM145.45 234.978H148.745V231.684H145.45V234.978ZM145.45 231.649H148.745V228.354H145.45V231.649ZM145.45 228.319H148.745V225.025H145.45V228.319ZM145.45 224.989H148.745V221.695H145.45V224.989ZM145.45 221.659H148.745V218.365H145.45V221.659ZM145.45 218.33H148.745V215.035H145.45V218.33ZM142.12 284.923H145.415V281.629H142.12V284.923ZM142.12 281.593H145.415V278.299H142.12V281.593ZM142.12 278.263H145.415V274.976H142.12V278.263ZM142.12 274.934H145.415V271.639H142.12V274.934ZM142.12 271.604H145.415V268.311H142.12V271.604ZM142.12 268.274H145.415V264.98H142.12V268.274ZM142.12 264.945H145.415V261.646H142.12V264.945ZM142.12 261.615H145.415V258.321H142.12V261.615ZM142.12 258.285H145.415V254.992H142.12V258.285ZM142.12 254.957H145.415V251.663H142.12V254.957ZM142.12 251.627H145.415V248.333H142.12V251.627ZM142.12 248.297H145.415V245.003H142.12V248.297ZM142.12 244.968H145.415V241.673H142.12V244.968ZM142.12 241.638H145.415V238.344H142.12V241.638ZM142.12 238.308H145.415V235.014H142.12V238.308ZM142.12 234.978H145.415V231.684H142.12V234.978ZM142.12 231.649H145.415V228.354H142.12V231.649ZM142.12 228.319H145.415V225.025H142.12V228.319ZM142.12 224.989H145.415V221.695H142.12V224.989ZM142.12 221.659H145.415V218.365H142.12V221.659ZM142.12 218.33H145.415V215.035H142.12V218.33ZM138.79 284.923H142.085V281.629H138.79V284.923ZM138.79 281.593H142.085V278.299H138.79V281.593ZM138.79 278.263H142.085V274.976H138.79V278.263ZM138.79 274.934H142.085V271.639H138.79V274.934ZM138.79 271.604H142.085V268.311H138.79V271.604ZM138.79 268.274H142.085V264.98H138.79V268.274ZM138.79 264.945H142.085V261.646H138.79V264.945ZM138.79 261.615H142.085V258.321H138.79V261.615ZM138.79 258.285H142.085V254.992H138.79V258.285ZM138.79 254.957H142.085V251.663H138.79V254.957ZM138.79 251.627H142.085V248.333H138.79V251.627ZM138.79 248.297H142.085V245.003H138.79V248.297ZM138.79 244.968H142.085V241.673H138.79V244.968ZM138.79 241.638H142.085V238.344H138.79V241.638ZM138.79 238.308H142.085V235.014H138.79V238.308ZM138.79 234.978H142.085V231.684H138.79V234.978ZM138.79 231.649H142.085V228.354H138.79V231.649ZM138.79 228.319H142.085V225.025H138.79V228.319ZM138.79 224.989H142.085V221.695H138.79V224.989ZM138.79 221.659H142.085V218.365H138.79V221.659ZM138.79 218.33H142.085V215.035H138.79V218.33ZM135.46 284.923H138.755V281.629H135.46V284.923ZM135.46 281.593H138.755V278.299H135.46V281.593ZM135.46 278.263H138.755V274.976H135.46V278.263ZM135.46 274.934H138.755V271.639H135.46V274.934ZM135.46 271.604H138.755V268.311H135.46V271.604ZM135.46 268.274H138.755V264.98H135.46V268.274ZM135.46 264.945H138.755V261.646H135.46V264.945ZM135.46 261.615H138.755V258.321H135.46V261.615ZM135.46 258.285H138.755V254.992H135.46V258.285ZM135.46 254.957H138.755V251.663H135.46V254.957ZM135.46 251.627H138.755V248.333H135.46V251.627ZM135.46 248.297H138.755V245.003H135.46V248.297ZM135.46 244.968H138.755V241.673H135.46V244.968ZM135.46 241.638H138.755V238.344H135.46V241.638ZM135.46 238.308H138.755V235.014H135.46V238.308ZM135.46 234.978H138.755V231.684H135.46V234.978ZM135.46 231.649H138.755V228.354H135.46V231.649ZM135.46 228.319H138.755V225.025H135.46V228.319ZM135.46 224.989H138.755V221.695H135.46V224.989ZM135.46 221.659H138.755V218.365H135.46V221.659ZM135.46 218.33H138.755V215.035H135.46V218.33ZM132.13 284.923H135.425V281.629H132.13V284.923ZM132.13 281.593H135.425V278.299H132.13V281.593ZM132.13 278.263H135.425V274.976H132.13V278.263ZM132.13 274.934H135.425V271.639H132.13V274.934ZM132.13 271.604H135.425V268.311H132.13V271.604ZM132.13 268.274H135.425V264.98H132.13V268.274ZM132.13 264.945H135.425V261.646H132.13V264.945ZM132.13 261.615H135.425V258.321H132.13V261.615ZM132.13 258.285H135.425V254.992H132.13V258.285ZM132.13 254.957H135.425V251.663H132.13V254.957ZM132.13 251.627H135.425V248.333H132.13V251.627ZM132.13 248.297H135.425V245.003H132.13V248.297ZM132.13 244.968H135.425V241.673H132.13V244.968ZM132.13 241.638H135.425V238.344H132.13V241.638ZM132.13 238.308H135.425V235.014H132.13V238.308ZM132.13 234.978H135.425V231.684H132.13V234.978ZM132.13 231.649H135.425V228.354H132.13V231.649ZM132.13 228.319H135.425V225.025H132.13V228.319ZM132.13 224.989H135.425V221.695H132.13V224.989ZM132.13 221.659H135.425V218.365H132.13V221.659ZM132.13 218.33H135.425V215.035H132.13V218.33ZM128.8 284.923H132.094V281.629H128.8V284.923ZM128.8 281.593H132.094V278.299H128.8V281.593ZM128.8 278.263H132.094V274.976H128.8V278.263ZM128.8 274.934H132.094V271.639H128.8V274.934ZM128.8 271.604H132.094V268.311H128.8V271.604ZM128.8 268.274H132.094V264.98H128.8V268.274ZM128.8 264.945H132.094V261.646H128.8V264.945ZM128.8 261.615H132.094V258.321H128.8V261.615ZM128.8 258.285H132.094V254.992H128.8V258.285ZM128.8 254.957H132.094V251.663H128.8V254.957ZM128.8 251.627H132.094V248.333H128.8V251.627ZM128.8 248.297H132.094V245.003H128.8V248.297ZM128.8 244.968H132.094V241.673H128.8V244.968ZM128.8 241.638H132.094V238.344H128.8V241.638ZM128.8 238.308H132.094V235.014H128.8V238.308ZM128.8 234.978H132.094V231.684H128.8V234.978ZM128.8 231.649H132.094V228.354H128.8V231.649ZM128.8 228.319H132.094V225.025H128.8V228.319ZM128.8 224.989H132.094V221.695H128.8V224.989ZM128.8 221.659H132.094V218.365H128.8V221.659ZM128.8 218.33H132.094V215.035H128.8V218.33ZM125.47 284.923H128.766V281.629H125.471L125.47 284.923ZM125.47 281.593H128.766V278.299H125.471L125.47 281.593ZM125.47 278.263H128.766V274.976H125.471L125.47 278.263ZM125.47 274.934H128.766V271.639H125.471L125.47 274.934ZM125.47 271.604H128.766V268.311H125.471L125.47 271.604ZM125.47 268.274H128.766V264.98H125.471L125.47 268.274ZM125.47 264.945H128.766V261.646H125.471L125.47 264.945ZM125.47 261.615H128.766V258.321H125.471L125.47 261.615ZM125.47 258.285H128.766V254.992H125.471L125.47 258.285ZM125.47 254.957H128.766V251.663H125.471L125.47 254.957ZM125.47 251.627H128.766V248.333H125.471L125.47 251.627ZM125.47 248.297H128.766V245.003H125.471L125.47 248.297ZM125.47 244.968H128.766V241.673H125.471L125.47 244.968ZM125.47 241.638H128.766V238.344H125.471L125.47 241.638ZM125.47 238.308H128.766V235.014H125.471L125.47 238.308ZM125.47 234.978H128.766V231.684H125.471L125.47 234.978ZM125.47 231.649H128.766V228.354H125.471L125.47 231.649ZM125.47 228.319H128.766V225.025H125.471L125.47 228.319ZM125.47 224.989H128.766V221.695H125.471L125.47 224.989ZM125.47 221.659H128.766V218.365H125.471L125.47 221.659ZM125.47 218.33H128.766V215.035H125.471L125.47 218.33ZM122.14 284.923H125.434V281.629H122.14V284.923ZM122.14 281.593H125.434V278.299H122.14V281.593ZM122.14 278.263H125.434V274.976H122.14V278.263ZM122.14 274.934H125.434V271.639H122.14V274.934ZM122.14 271.604H125.434V268.311H122.14V271.604ZM122.14 268.274H125.434V264.98H122.14V268.274ZM122.14 264.945H125.434V261.646H122.14V264.945ZM122.14 261.615H125.434V258.321H122.14V261.615ZM122.14 258.285H125.434V254.992H122.14V258.285ZM122.14 254.957H125.434V251.663H122.14V254.957ZM122.14 251.627H125.434V248.333H122.14V251.627ZM122.14 248.297H125.434V245.003H122.14V248.297ZM122.14 244.968H125.434V241.673H122.14V244.968ZM122.14 241.638H125.434V238.344H122.14V241.638ZM122.14 238.308H125.434V235.014H122.14V238.308ZM122.14 234.978H125.434V231.684H122.14V234.978ZM122.14 231.649H125.434V228.354H122.14V231.649ZM122.14 228.319H125.434V225.025H122.14V228.319ZM122.14 224.989H125.434V221.695H122.14V224.989ZM122.14 221.659H125.434V218.365H122.14V221.659ZM122.14 218.33H125.434V215.035H122.14V218.33ZM118.811 284.923H122.1V281.629H118.807L118.811 284.923ZM118.811 281.593H122.1V278.299H118.807L118.811 281.593ZM118.811 278.263H122.1V274.976H118.807L118.811 278.263ZM118.811 274.934H122.1V271.639H118.807L118.811 274.934ZM118.811 271.604H122.1V268.311H118.807L118.811 271.604ZM118.811 268.274H122.1V264.98H118.807L118.811 268.274ZM118.811 264.945H122.1V261.646H118.807L118.811 264.945ZM118.811 261.615H122.1V258.321H118.807L118.811 261.615ZM118.811 258.285H122.1V254.992H118.807L118.811 258.285ZM118.811 254.957H122.1V251.663H118.807L118.811 254.957ZM118.811 251.627H122.1V248.333H118.807L118.811 251.627ZM118.811 248.297H122.1V245.003H118.807L118.811 248.297ZM118.811 244.968H122.1V241.673H118.807L118.811 244.968ZM118.811 241.638H122.1V238.344H118.807L118.811 241.638ZM118.811 238.308H122.1V235.014H118.807L118.811 238.308ZM118.811 234.978H122.1V231.684H118.807L118.811 234.978ZM118.811 231.649H122.1V228.354H118.807L118.811 231.649ZM118.811 228.319H122.1V225.025H118.807L118.811 228.319ZM118.811 224.989H122.1V221.695H118.807L118.811 224.989ZM118.811 221.659H122.1V218.365H118.807L118.811 221.659ZM118.811 218.33H122.1V215.035H118.807L118.811 218.33ZM115.481 284.923H118.776V281.629H115.481V284.923ZM115.481 281.593H118.776V278.299H115.481V281.593ZM115.481 278.263H118.776V274.976H115.481V278.263ZM115.481 274.934H118.776V271.639H115.481V274.934ZM115.481 271.604H118.776V268.311H115.481V271.604ZM115.481 268.274H118.776V264.98H115.481V268.274ZM115.481 264.945H118.776V261.646H115.481V264.945ZM115.481 261.615H118.776V258.321H115.481V261.615ZM115.481 258.285H118.776V254.992H115.481V258.285ZM115.481 254.957H118.776V251.663H115.481V254.957ZM115.481 251.627H118.776V248.333H115.481V251.627ZM115.481 248.297H118.776V245.003H115.481V248.297ZM115.481 244.968H118.776V241.673H115.481V244.968ZM115.481 241.638H118.776V238.344H115.481V241.638ZM115.481 238.308H118.776V235.014H115.481V238.308ZM115.481 234.978H118.776V231.684H115.481V234.978ZM115.481 231.649H118.776V228.354H115.481V231.649ZM115.481 228.319H118.776V225.025H115.481V228.319ZM115.481 224.989H118.776V221.695H115.481V224.989ZM115.481 221.659H118.776V218.365H115.481V221.659ZM115.481 218.33H118.776V215.035H115.481V218.33ZM112.151 284.923H115.445V281.629H112.151V284.923ZM112.151 281.593H115.445V278.299H112.151V281.593ZM112.151 278.263H115.445V274.976H112.151V278.263ZM112.151 274.934H115.445V271.639H112.151V274.934ZM112.151 271.604H115.445V268.311H112.151V271.604ZM112.151 268.274H115.445V264.98H112.151V268.274ZM112.151 264.945H115.445V261.646H112.151V264.945ZM112.151 261.615H115.445V258.321H112.151V261.615ZM112.151 258.285H115.445V254.992H112.151V258.285ZM112.151 254.957H115.445V251.663H112.151V254.957ZM112.151 251.627H115.445V248.333H112.151V251.627ZM112.151 248.297H115.445V245.003H112.151V248.297ZM112.151 244.968H115.445V241.673H112.151V244.968ZM112.151 241.638H115.445V238.344H112.151V241.638ZM112.151 238.308H115.445V235.014H112.151V238.308ZM112.151 234.978H115.445V231.684H112.151V234.978ZM112.151 231.649H115.445V228.354H112.151V231.649ZM112.151 228.319H115.445V225.025H112.151V228.319ZM112.151 224.989H115.445V221.695H112.151V224.989ZM112.151 221.659H115.445V218.365H112.151V221.659ZM112.151 218.33H115.445V215.035H112.151V218.33ZM108.821 284.923H112.115V281.629H108.821V284.923ZM108.821 281.593H112.115V278.299H108.821V281.593ZM108.821 278.263H112.115V274.976H108.821V278.263ZM108.821 274.934H112.115V271.639H108.821V274.934ZM108.821 271.604H112.115V268.311H108.821V271.604ZM108.821 268.274H112.115V264.98H108.821V268.274ZM108.821 264.945H112.115V261.646H108.821V264.945ZM108.821 261.615H112.115V258.321H108.821V261.615ZM108.821 258.285H112.115V254.992H108.821V258.285ZM108.821 254.957H112.115V251.663H108.821V254.957ZM108.821 251.627H112.115V248.333H108.821V251.627ZM108.821 248.297H112.115V245.003H108.821V248.297ZM108.821 244.968H112.115V241.673H108.821V244.968ZM108.821 241.638H112.115V238.344H108.821V241.638ZM108.821 238.308H112.115V235.014H108.821V238.308ZM108.821 234.978H112.115V231.684H108.821V234.978ZM108.821 231.649H112.115V228.354H108.821V231.649ZM108.821 228.319H112.115V225.025H108.821V228.319ZM108.821 224.989H112.115V221.695H108.821V224.989ZM108.821 221.659H112.115V218.365H108.821V221.659ZM108.821 218.33H112.115V215.035H108.821V218.33ZM105.491 284.923H108.785V281.629H105.491V284.923ZM105.491 281.593H108.785V278.299H105.491V281.593ZM105.491 278.263H108.785V274.976H105.491V278.263ZM105.491 274.934H108.785V271.639H105.491V274.934ZM105.491 271.604H108.785V268.311H105.491V271.604ZM105.491 268.274H108.785V264.98H105.491V268.274ZM105.491 264.945H108.785V261.646H105.491V264.945ZM105.491 261.615H108.785V258.321H105.491V261.615ZM105.491 258.285H108.785V254.992H105.491V258.285ZM105.491 254.957H108.785V251.663H105.491V254.957ZM105.491 251.627H108.785V248.333H105.491V251.627ZM105.491 248.297H108.785V245.003H105.491V248.297ZM105.491 244.968H108.785V241.673H105.491V244.968ZM105.491 241.638H108.785V238.344H105.491V241.638ZM105.491 238.308H108.785V235.014H105.491V238.308ZM105.491 234.978H108.785V231.684H105.491V234.978ZM105.491 231.649H108.785V228.354H105.491V231.649ZM105.491 228.319H108.785V225.025H105.491V228.319ZM105.491 224.989H108.785V221.695H105.491V224.989ZM105.491 221.659H108.785V218.365H105.491V221.659ZM105.491 218.33H108.785V215.035H105.491V218.33ZM102.161 284.923H105.455V281.629H102.161V284.923ZM102.161 281.593H105.455V278.299H102.161V281.593ZM102.161 278.263H105.455V274.976H102.161V278.263ZM102.161 274.934H105.455V271.639H102.161V274.934ZM102.161 271.604H105.455V268.311H102.161V271.604ZM102.161 268.274H105.455V264.98H102.161V268.274ZM102.161 264.945H105.455V261.646H102.161V264.945ZM102.161 261.615H105.455V258.321H102.161V261.615ZM102.161 258.285H105.455V254.992H102.161V258.285ZM102.161 254.957H105.455V251.663H102.161V254.957ZM102.161 251.627H105.455V248.333H102.161V251.627ZM102.161 248.297H105.455V245.003H102.161V248.297ZM102.161 244.968H105.455V241.673H102.161V244.968ZM102.161 241.638H105.455V238.344H102.161V241.638ZM102.161 238.308H105.455V235.014H102.161V238.308ZM102.161 234.978H105.455V231.684H102.161V234.978ZM102.161 231.649H105.455V228.354H102.161V231.649ZM102.161 228.319H105.455V225.025H102.161V228.319ZM102.161 224.989H105.455V221.695H102.161V224.989ZM102.161 221.659H105.455V218.365H102.161V221.659ZM102.161 218.33H105.455V215.035H102.161V218.33ZM98.8306 284.923H102.125V281.629H98.8306V284.923ZM98.8306 281.593H102.125V278.299H98.8306V281.593ZM98.8306 278.263H102.125V274.976H98.8306V278.263ZM98.8306 274.934H102.125V271.639H98.8306V274.934ZM98.8306 271.604H102.125V268.311H98.8306V271.604ZM98.8306 268.274H102.125V264.98H98.8306V268.274ZM98.8306 264.945H102.125V261.646H98.8306V264.945ZM98.8306 261.615H102.125V258.321H98.8306V261.615ZM98.8306 258.285H102.125V254.992H98.8306V258.285ZM98.8306 254.957H102.125V251.663H98.8306V254.957ZM98.8306 251.627H102.125V248.333H98.8306V251.627ZM98.8306 248.297H102.125V245.003H98.8306V248.297ZM98.8306 244.968H102.125V241.673H98.8306V244.968ZM98.8306 241.638H102.125V238.344H98.8306V241.638ZM98.8306 238.308H102.125V235.014H98.8306V238.308ZM98.8306 234.978H102.125V231.684H98.8306V234.978ZM98.8306 231.649H102.125V228.354H98.8306V231.649ZM98.8306 228.319H102.125V225.025H98.8306V228.319ZM98.8306 224.989H102.125V221.695H98.8306V224.989ZM98.8306 221.659H102.125V218.365H98.8306V221.659ZM98.8306 218.33H102.125V215.035H98.8306V218.33ZM95.5005 284.923H98.7951V281.629H95.5005V284.923ZM95.5005 281.593H98.7951V278.299H95.5005V281.593ZM95.5005 278.263H98.7951V274.976H95.5005V278.263ZM95.5005 274.934H98.7951V271.639H95.5005V274.934ZM95.5005 271.604H98.7951V268.311H95.5005V271.604ZM95.5005 268.274H98.7951V264.98H95.5005V268.274ZM95.5005 264.945H98.7951V261.646H95.5005V264.945ZM95.5005 261.615H98.7951V258.321H95.5005V261.615ZM95.5005 258.285H98.7951V254.992H95.5005V258.285ZM95.5005 254.957H98.7951V251.663H95.5005V254.957ZM95.5005 251.627H98.7951V248.333H95.5005V251.627ZM95.5005 248.297H98.7951V245.003H95.5005V248.297ZM95.5005 244.968H98.7951V241.673H95.5005V244.968ZM95.5005 241.638H98.7951V238.344H95.5005V241.638ZM95.5005 238.308H98.7951V235.014H95.5005V238.308ZM95.5005 234.978H98.7951V231.684H95.5005V234.978ZM95.5005 231.649H98.7951V228.354H95.5005V231.649ZM95.5005 228.319H98.7951V225.025H95.5005V228.319ZM95.5005 224.989H98.7951V221.695H95.5005V224.989ZM95.5005 221.659H98.7951V218.365H95.5005V221.659ZM95.5005 218.33H98.7951V215.035H95.5005V218.33ZM92.1747 284.923H95.465V281.629H92.1747V284.923ZM92.1747 281.593H95.465V278.299H92.1747V281.593ZM92.1747 278.263H95.465V274.976H92.1747V278.263ZM92.1747 274.934H95.465V271.639H92.1747V274.934ZM92.1747 271.604H95.465V268.311H92.1747V271.604ZM92.1747 268.274H95.465V264.98H92.1747V268.274ZM92.1747 264.945H95.465V261.646H92.1747V264.945ZM92.1747 261.615H95.465V258.321H92.1747V261.615ZM92.1747 258.285H95.465V254.992H92.1747V258.285ZM92.1747 254.957H95.465V251.663H92.1747V254.957ZM92.1747 251.627H95.465V248.333H92.1747V251.627ZM92.1747 248.297H95.465V245.003H92.1747V248.297ZM92.1747 244.968H95.465V241.673H92.1747V244.968ZM92.1747 241.638H95.465V238.344H92.1747V241.638ZM92.1747 238.308H95.465V235.014H92.1747V238.308ZM92.1747 234.985H95.465V231.684H92.1747V234.985ZM92.1747 231.656H95.465V228.354H92.1747V231.656ZM92.1747 228.32H95.465V225.025H92.1747V228.32ZM92.1747 224.991H95.465V221.695H92.1747V224.991ZM92.1747 221.655H95.465V218.365H92.1747V221.655ZM92.1747 218.325H95.465V215.035H92.1747V218.325ZM88.8446 284.919H92.135V281.629H88.8403L88.8446 284.919ZM88.8446 281.589H92.135V278.299H88.8403L88.8446 281.589ZM88.8446 278.259H92.135V274.976H88.8403L88.8446 278.259ZM88.8446 274.93H92.135V271.639H88.8403L88.8446 274.93ZM88.8446 271.6H92.135V268.311H88.8403L88.8446 271.6ZM88.8446 268.27H92.135V264.98H88.8403L88.8446 268.27ZM88.8446 264.94H92.135V261.646H88.8403L88.8446 264.94ZM88.8446 261.611H92.135V258.321H88.8403L88.8446 261.611ZM88.8446 258.281H92.135V254.992H88.8403L88.8446 258.281ZM88.8446 254.953H92.135V251.663H88.8403L88.8446 254.953ZM88.8446 251.623H92.135V248.333H88.8403L88.8446 251.623ZM88.8446 248.293H92.135V245.003H88.8403L88.8446 248.293ZM88.8446 244.963H92.135V241.673H88.8403L88.8446 244.963ZM88.8446 241.634H92.135V238.344H88.8403L88.8446 241.634ZM88.8446 238.304H92.135V235.014H88.8403L88.8446 238.304ZM88.8446 234.974H92.135V231.684H88.8403L88.8446 234.974ZM88.8446 231.644H92.135V228.354H88.8403L88.8446 231.644ZM88.8446 228.315H92.135V225.025H88.8403L88.8446 228.315ZM88.8446 224.985H92.135V221.695H88.8403L88.8446 224.985ZM88.8446 221.655H92.135V218.365H88.8403L88.8446 221.655ZM88.8446 218.325H92.135V215.035H88.8403L88.8446 218.325ZM85.5089 284.923H88.8049V281.629H85.5089V284.923ZM85.5089 281.593H88.8049V278.299H85.5089V281.593ZM85.5089 278.263H88.8049V274.976H85.5089V278.263ZM85.5089 274.934H88.8049V271.639H85.5089V274.934ZM85.5089 271.604H88.8049V268.311H85.5089V271.604ZM85.5089 268.274H88.8049V264.98H85.5089V268.274ZM85.5089 264.945H88.8049V261.646H85.5089V264.945ZM85.5089 261.615H88.8049V258.321H85.5089V261.615ZM85.5089 258.285H88.8049V254.992H85.5089V258.285ZM85.5089 254.957H88.8049V251.663H85.5089V254.957ZM85.5089 251.627H88.8049V248.333H85.5089V251.627ZM85.5089 248.297H88.8049V245.003H85.5089V248.297ZM85.5089 244.968H88.8049V241.673H85.5089V244.968ZM85.5089 241.638H88.8049V238.344H85.5089V241.638ZM85.5089 238.308H88.8049V235.014H85.5089V238.308ZM85.5089 234.985H88.8049V231.684H85.5089V234.985ZM85.5089 231.656H88.8049V228.354H85.5089V231.656ZM85.5089 228.32H88.8049V225.025H85.5089V228.32ZM85.5089 224.991H88.8049V221.695H85.5089V224.991ZM85.5089 221.655H88.8049V218.365H85.5089V221.655ZM85.5089 218.325H88.8049V215.035H85.5089V218.325ZM82.1788 284.919H85.4748V281.629H82.1802L82.1788 284.919ZM82.1788 281.589H85.4748V278.299H82.1802L82.1788 281.589ZM82.1788 278.259H85.4748V274.976H82.1802L82.1788 278.259ZM82.1788 274.93H85.4748V271.639H82.1802L82.1788 274.93ZM82.1788 271.6H85.4748V268.311H82.1802L82.1788 271.6ZM82.1788 268.27H85.4748V264.98H82.1802L82.1788 268.27ZM82.1788 264.94H85.4748V261.646H82.1802L82.1788 264.94ZM82.1788 261.611H85.4748V258.321H82.1802L82.1788 261.611ZM82.1788 258.281H85.4748V254.992H82.1802L82.1788 258.281ZM82.1788 254.953H85.4748V251.663H82.1802L82.1788 254.953ZM82.1788 251.623H85.4748V248.333H82.1802L82.1788 251.623ZM82.1788 248.293H85.4748V245.003H82.1802L82.1788 248.293ZM82.1788 244.963H85.4748V241.673H82.1802L82.1788 244.963ZM82.1788 241.634H85.4748V238.344H82.1802L82.1788 241.634ZM82.1788 238.304H85.4748V235.014H82.1802L82.1788 238.304ZM82.1788 234.974H85.4748V231.684H82.1802L82.1788 234.974ZM82.1788 231.644H85.4748V228.354H82.1802L82.1788 231.644ZM82.1788 228.315H85.4748V225.025H82.1802L82.1788 228.315ZM82.1788 224.985H85.4748V221.695H82.1802L82.1788 224.985ZM82.1788 221.655H85.4748V218.365H82.1802L82.1788 221.655ZM82.1788 218.325H85.4748V215.035H82.1802L82.1788 218.325ZM78.843 284.923H82.1447V281.629H78.843V284.923ZM78.843 281.593H82.1447V278.299H78.843V281.593ZM78.843 278.263H82.1447V274.976H78.843V278.263ZM78.843 274.934H82.1447V271.639H78.843V274.934ZM78.843 271.604H82.1447V268.311H78.843V271.604ZM78.843 268.274H82.1447V264.98H78.843V268.274ZM78.843 264.945H82.1447V261.646H78.843V264.945ZM78.843 261.615H82.1447V258.321H78.843V261.615ZM78.843 258.285H82.1447V254.992H78.843V258.285ZM78.843 254.957H82.1447V251.663H78.843V254.957ZM78.843 251.627H82.1447V248.333H78.843V251.627ZM78.843 248.297H82.1447V245.003H78.843V248.297ZM78.843 244.968H82.1447V241.673H78.843V244.968ZM78.843 241.638H82.1447V238.344H78.843V241.638ZM78.843 238.308H82.1447V235.014H78.843V238.308ZM78.843 234.985H82.1447V231.684H78.843V234.985ZM78.843 231.656H82.1447V228.354H78.843V231.656ZM78.843 228.32H82.1447V225.025H78.843V228.32ZM78.843 224.991H82.1447V221.695H78.843V224.991ZM78.843 221.655H82.1447V218.365H78.843V221.655ZM78.843 218.325H82.1447V215.035H78.843V218.325Z" fill="url(#paint2_radial_993_2148)"/>
<path opacity="0.5" d="M97.9619 90.2866V259.963H-0.000411987V90.2866H97.9619ZM93.2993 259.877H97.9123V251.888H93.2993V259.877ZM93.2993 251.802H97.9123V243.812H93.2993V251.802ZM93.2993 243.726H97.9123V235.753H93.2993V243.726ZM93.2993 235.65H97.9123V227.66H93.2993V235.65ZM93.2993 227.574H97.9123V219.587H93.2993V227.574ZM93.2993 219.498H97.9123V211.508H93.2993V219.498ZM93.2993 211.422H97.9123V203.422H93.2993V211.422ZM93.2993 203.346H97.9123V195.356H93.2993V203.346ZM93.2993 195.27H97.9123V187.284H93.2993V195.27ZM93.2993 187.198H97.9123V179.208H93.2993V187.198ZM93.2993 179.122H97.9123V171.132H93.2993V179.122ZM93.2993 171.046H97.9123V163.056H93.2993V171.046ZM93.2993 162.97H97.9123V154.98H93.2993V162.97ZM93.2993 154.894H97.9123V146.904H93.2993V154.894ZM93.2993 146.818H97.9123V138.828H93.2993V146.818ZM93.2993 138.742H97.9123V130.752H93.2993V138.742ZM93.2993 130.666H97.9123V122.676H93.2993V130.666ZM93.2993 122.59H97.9123V114.6H93.2993V122.59ZM93.2993 114.514H97.9123V106.524H93.2993V114.514ZM93.2993 106.438H97.9123V98.4485H93.2993V106.438ZM93.2993 98.3625H97.9123V90.3726H93.2993V98.3625ZM88.6367 259.877H93.2497V251.888H88.6367V259.877ZM88.6367 251.802H93.2497V243.812H88.6367V251.802ZM88.6367 243.726H93.2497V235.753H88.6367V243.726ZM88.6367 235.65H93.2497V227.66H88.6367V235.65ZM88.6367 227.574H93.2497V219.587H88.6367V227.574ZM88.6367 219.498H93.2497V211.508H88.6367V219.498ZM88.6367 211.422H93.2497V203.422H88.6367V211.422ZM88.6367 203.346H93.2497V195.356H88.6367V203.346ZM88.6367 195.27H93.2497V187.284H88.6367V195.27ZM88.6367 187.198H93.2497V179.208H88.6367V187.198ZM88.6367 179.122H93.2497V171.132H88.6367V179.122ZM88.6367 171.046H93.2497V163.056H88.6367V171.046ZM88.6367 162.97H93.2497V154.98H88.6367V162.97ZM88.6367 154.894H93.2497V146.904H88.6367V154.894ZM88.6367 146.818H93.2497V138.828H88.6367V146.818ZM88.6367 138.742H93.2497V130.752H88.6367V138.742ZM88.6367 130.666H93.2497V122.676H88.6367V130.666ZM88.6367 122.59H93.2497V114.6H88.6367V122.59ZM88.6367 114.514H93.2497V106.524H88.6367V114.514ZM88.6367 106.438H93.2497V98.4485H88.6367V106.438ZM88.6367 98.3625H93.2497V90.3726H88.6367V98.3625ZM83.9741 259.877H88.5871V251.888H83.9741V259.877ZM83.9741 251.802H88.5871V243.812H83.9741V251.802ZM83.9741 243.726H88.5871V235.753H83.9741V243.726ZM83.9741 235.65H88.5871V227.66H83.9741V235.65ZM83.9741 227.574H88.5871V219.587H83.9741V227.574ZM83.9741 219.498H88.5871V211.508H83.9741V219.498ZM83.9741 211.422H88.5871V203.422H83.9741V211.422ZM83.9741 203.346H88.5871V195.356H83.9741V203.346ZM83.9741 195.27H88.5871V187.284H83.9741V195.27ZM83.9741 187.198H88.5871V179.208H83.9741V187.198ZM83.9741 179.122H88.5871V171.132H83.9741V179.122ZM83.9741 171.046H88.5871V163.056H83.9741V171.046ZM83.9741 162.97H88.5871V154.98H83.9741V162.97ZM83.9741 154.894H88.5871V146.904H83.9741V154.894ZM83.9741 146.818H88.5871V138.828H83.9741V146.818ZM83.9741 138.742H88.5871V130.752H83.9741V138.742ZM83.9741 130.666H88.5871V122.676H83.9741V130.666ZM83.9741 122.59H88.5871V114.6H83.9741V122.59ZM83.9741 114.514H88.5871V106.524H83.9741V114.514ZM83.9741 106.438H88.5871V98.4485H83.9741V106.438ZM83.9741 98.3625H88.5871V90.3726H83.9741V98.3625ZM79.3115 259.877H83.9245V251.888H79.3115V259.877ZM79.3115 251.802H83.9245V243.812H79.3115V251.802ZM79.3115 243.726H83.9245V235.753H79.3115V243.726ZM79.3115 235.65H83.9245V227.66H79.3115V235.65ZM79.3115 227.574H83.9245V219.587H79.3115V227.574ZM79.3115 219.498H83.9245V211.508H79.3115V219.498ZM79.3115 211.422H83.9245V203.422H79.3115V211.422ZM79.3115 203.346H83.9245V195.356H79.3115V203.346ZM79.3115 195.27H83.9245V187.284H79.3115V195.27ZM79.3115 187.198H83.9245V179.208H79.3115V187.198ZM79.3115 179.122H83.9245V171.132H79.3115V179.122ZM79.3115 171.046H83.9245V163.056H79.3115V171.046ZM79.3115 162.97H83.9245V154.98H79.3115V162.97ZM79.3115 154.894H83.9245V146.904H79.3115V154.894ZM79.3115 146.818H83.9245V138.828H79.3115V146.818ZM79.3115 138.742H83.9245V130.752H79.3115V138.742ZM79.3115 130.666H83.9245V122.676H79.3115V130.666ZM79.3115 122.59H83.9245V114.6H79.3115V122.59ZM79.3115 114.514H83.9245V106.524H79.3115V114.514ZM79.3115 106.438H83.9245V98.4485H79.3115V106.438ZM79.3115 98.3625H83.9245V90.3726H79.3115V98.3625ZM74.6489 259.877H79.2619V251.888H74.6489V259.877ZM74.6489 251.802H79.2619V243.812H74.6489V251.802ZM74.6489 243.726H79.2619V235.753H74.6489V243.726ZM74.6489 235.65H79.2619V227.66H74.6489V235.65ZM74.6489 227.574H79.2619V219.587H74.6489V227.574ZM74.6489 219.498H79.2619V211.508H74.6489V219.498ZM74.6489 211.422H79.2619V203.422H74.6489V211.422ZM74.6489 203.346H79.2619V195.356H74.6489V203.346ZM74.6489 195.27H79.2619V187.284H74.6489V195.27ZM74.6489 187.198H79.2619V179.208H74.6489V187.198ZM74.6489 179.122H79.2619V171.132H74.6489V179.122ZM74.6489 171.046H79.2619V163.056H74.6489V171.046ZM74.6489 162.97H79.2619V154.98H74.6489V162.97ZM74.6489 154.894H79.2619V146.904H74.6489V154.894ZM74.6489 146.818H79.2619V138.828H74.6489V146.818ZM74.6489 138.742H79.2619V130.752H74.6489V138.742ZM74.6489 130.666H79.2619V122.676H74.6489V130.666ZM74.6489 122.59H79.2619V114.6H74.6489V122.59ZM74.6489 114.514H79.2619V106.524H74.6489V114.514ZM74.6489 106.438H79.2619V98.4485H74.6489V106.438ZM74.6489 98.3625H79.2619V90.3726H74.6489V98.3625ZM69.9863 259.877H74.5993V251.888H69.9863V259.877ZM69.9863 251.802H74.5993V243.812H69.9863V251.802ZM69.9863 243.726H74.5993V235.753H69.9863V243.726ZM69.9863 235.65H74.5993V227.66H69.9863V235.65ZM69.9863 227.574H74.5993V219.587H69.9863V227.574ZM69.9863 219.498H74.5993V211.508H69.9863V219.498ZM69.9863 211.422H74.5993V203.422H69.9863V211.422ZM69.9863 203.346H74.5993V195.356H69.9863V203.346ZM69.9863 195.27H74.5993V187.284H69.9863V195.27ZM69.9863 187.198H74.5993V179.208H69.9863V187.198ZM69.9863 179.122H74.5993V171.132H69.9863V179.122ZM69.9863 171.046H74.5993V163.056H69.9863V171.046ZM69.9863 162.97H74.5993V154.98H69.9863V162.97ZM69.9863 154.894H74.5993V146.904H69.9863V154.894ZM69.9863 146.818H74.5993V138.828H69.9863V146.818ZM69.9863 138.742H74.5993V130.752H69.9863V138.742ZM69.9863 130.666H74.5993V122.676H69.9863V130.666ZM69.9863 122.59H74.5993V114.6H69.9863V122.59ZM69.9863 114.514H74.5993V106.524H69.9863V114.514ZM69.9863 106.438H74.5993V98.4485H69.9863V106.438ZM69.9863 98.3625H74.5993V90.3726H69.9863V98.3625ZM65.3237 259.877H69.9386V251.888H65.3257L65.3237 259.877ZM65.3237 251.802H69.9386V243.812H65.3257L65.3237 251.802ZM65.3237 243.726H69.9386V235.753H65.3257L65.3237 243.726ZM65.3237 235.65H69.9386V227.66H65.3257L65.3237 235.65ZM65.3237 227.574H69.9386V219.587H65.3257L65.3237 227.574ZM65.3237 219.498H69.9386V211.508H65.3257L65.3237 219.498ZM65.3237 211.422H69.9386V203.422H65.3257L65.3237 211.422ZM65.3237 203.346H69.9386V195.356H65.3257L65.3237 203.346ZM65.3237 195.27H69.9386V187.284H65.3257L65.3237 195.27ZM65.3237 187.198H69.9386V179.208H65.3257L65.3237 187.198ZM65.3237 179.122H69.9386V171.132H65.3257L65.3237 179.122ZM65.3237 171.046H69.9386V163.056H65.3257L65.3237 171.046ZM65.3237 162.97H69.9386V154.98H65.3257L65.3237 162.97ZM65.3237 154.894H69.9386V146.904H65.3257L65.3237 154.894ZM65.3237 146.818H69.9386V138.828H65.3257L65.3237 146.818ZM65.3237 138.742H69.9386V130.752H65.3257L65.3237 138.742ZM65.3237 130.666H69.9386V122.676H65.3257L65.3237 130.666ZM65.3237 122.59H69.9386V114.6H65.3257L65.3237 122.59ZM65.3237 114.514H69.9386V106.524H65.3257L65.3237 114.514ZM65.3237 106.438H69.9386V98.4485H65.3257L65.3237 106.438ZM65.3237 98.3625H69.9386V90.3726H65.3257L65.3237 98.3625ZM60.6611 259.877H65.2741V251.888H60.6611V259.877ZM60.6611 251.802H65.2741V243.812H60.6611V251.802ZM60.6611 243.726H65.2741V235.753H60.6611V243.726ZM60.6611 235.65H65.2741V227.66H60.6611V235.65ZM60.6611 227.574H65.2741V219.587H60.6611V227.574ZM60.6611 219.498H65.2741V211.508H60.6611V219.498ZM60.6611 211.422H65.2741V203.422H60.6611V211.422ZM60.6611 203.346H65.2741V195.356H60.6611V203.346ZM60.6611 195.27H65.2741V187.284H60.6611V195.27ZM60.6611 187.198H65.2741V179.208H60.6611V187.198ZM60.6611 179.122H65.2741V171.132H60.6611V179.122ZM60.6611 171.046H65.2741V163.056H60.6611V171.046ZM60.6611 162.97H65.2741V154.98H60.6611V162.97ZM60.6611 154.894H65.2741V146.904H60.6611V154.894ZM60.6611 146.818H65.2741V138.828H60.6611V146.818ZM60.6611 138.742H65.2741V130.752H60.6611V138.742ZM60.6611 130.666H65.2741V122.676H60.6611V130.666ZM60.6611 122.59H65.2741V114.6H60.6611V122.59ZM60.6611 114.514H65.2741V106.524H60.6611V114.514ZM60.6611 106.438H65.2741V98.4485H60.6611V106.438ZM60.6611 98.3625H65.2741V90.3726H60.6611V98.3625ZM56.0005 259.877H60.6055V251.888H55.9945L56.0005 259.877ZM56.0005 251.802H60.6055V243.812H55.9945L56.0005 251.802ZM56.0005 243.726H60.6055V235.753H55.9945L56.0005 243.726ZM56.0005 235.65H60.6055V227.66H55.9945L56.0005 235.65ZM56.0005 227.574H60.6055V219.587H55.9945L56.0005 227.574ZM56.0005 219.498H60.6055V211.508H55.9945L56.0005 219.498ZM56.0005 211.422H60.6055V203.422H55.9945L56.0005 211.422ZM56.0005 203.346H60.6055V195.356H55.9945L56.0005 203.346ZM56.0005 195.27H60.6055V187.284H55.9945L56.0005 195.27ZM56.0005 187.198H60.6055V179.208H55.9945L56.0005 187.198ZM56.0005 179.122H60.6055V171.132H55.9945L56.0005 179.122ZM56.0005 171.046H60.6055V163.056H55.9945L56.0005 171.046ZM56.0005 162.97H60.6055V154.98H55.9945L56.0005 162.97ZM56.0005 154.894H60.6055V146.904H55.9945L56.0005 154.894ZM56.0005 146.818H60.6055V138.828H55.9945L56.0005 146.818ZM56.0005 138.742H60.6055V130.752H55.9945L56.0005 138.742ZM56.0005 130.666H60.6055V122.676H55.9945L56.0005 130.666ZM56.0005 122.59H60.6055V114.6H55.9945L56.0005 122.59ZM56.0005 114.514H60.6055V106.524H55.9945L56.0005 114.514ZM56.0005 106.438H60.6055V98.4485H55.9945L56.0005 106.438ZM56.0005 98.3625H60.6055V90.3726H55.9945L56.0005 98.3625ZM51.3379 259.877H55.9508V251.888H51.3379V259.877ZM51.3379 251.802H55.9508V243.812H51.3379V251.802ZM51.3379 243.726H55.9508V235.753H51.3379V243.726ZM51.3379 235.65H55.9508V227.66H51.3379V235.65ZM51.3379 227.574H55.9508V219.587H51.3379V227.574ZM51.3379 219.498H55.9508V211.508H51.3379V219.498ZM51.3379 211.422H55.9508V203.422H51.3379V211.422ZM51.3379 203.346H55.9508V195.356H51.3379V203.346ZM51.3379 195.27H55.9508V187.284H51.3379V195.27ZM51.3379 187.198H55.9508V179.208H51.3379V187.198ZM51.3379 179.122H55.9508V171.132H51.3379V179.122ZM51.3379 171.046H55.9508V163.056H51.3379V171.046ZM51.3379 162.97H55.9508V154.98H51.3379V162.97ZM51.3379 154.894H55.9508V146.904H51.3379V154.894ZM51.3379 146.818H55.9508V138.828H51.3379V146.818ZM51.3379 138.742H55.9508V130.752H51.3379V138.742ZM51.3379 130.666H55.9508V122.676H51.3379V130.666ZM51.3379 122.59H55.9508V114.6H51.3379V122.59ZM51.3379 114.514H55.9508V106.524H51.3379V114.514ZM51.3379 106.438H55.9508V98.4485H51.3379V106.438ZM51.3379 98.3625H55.9508V90.3726H51.3379V98.3625ZM46.6753 259.877H51.2882V251.888H46.6753V259.877ZM46.6753 251.802H51.2882V243.812H46.6753V251.802ZM46.6753 243.726H51.2882V235.753H46.6753V243.726ZM46.6753 235.65H51.2882V227.66H46.6753V235.65ZM46.6753 227.574H51.2882V219.587H46.6753V227.574ZM46.6753 219.498H51.2882V211.508H46.6753V219.498ZM46.6753 211.422H51.2882V203.422H46.6753V211.422ZM46.6753 203.346H51.2882V195.356H46.6753V203.346ZM46.6753 195.27H51.2882V187.284H46.6753V195.27ZM46.6753 187.198H51.2882V179.208H46.6753V187.198ZM46.6753 179.122H51.2882V171.132H46.6753V179.122ZM46.6753 171.046H51.2882V163.056H46.6753V171.046ZM46.6753 162.97H51.2882V154.98H46.6753V162.97ZM46.6753 154.894H51.2882V146.904H46.6753V154.894ZM46.6753 146.818H51.2882V138.828H46.6753V146.818ZM46.6753 138.742H51.2882V130.752H46.6753V138.742ZM46.6753 130.666H51.2882V122.676H46.6753V130.666ZM46.6753 122.59H51.2882V114.6H46.6753V122.59ZM46.6753 114.514H51.2882V106.524H46.6753V114.514ZM46.6753 106.438H51.2882V98.4485H46.6753V106.438ZM46.6753 98.3625H51.2882V90.3726H46.6753V98.3625ZM42.0127 259.877H46.6256V251.888H42.0127V259.877ZM42.0127 251.802H46.6256V243.812H42.0127V251.802ZM42.0127 243.726H46.6256V235.753H42.0127V243.726ZM42.0127 235.65H46.6256V227.66H42.0127V235.65ZM42.0127 227.574H46.6256V219.587H42.0127V227.574ZM42.0127 219.498H46.6256V211.508H42.0127V219.498ZM42.0127 211.422H46.6256V203.422H42.0127V211.422ZM42.0127 203.346H46.6256V195.356H42.0127V203.346ZM42.0127 195.27H46.6256V187.284H42.0127V195.27ZM42.0127 187.198H46.6256V179.208H42.0127V187.198ZM42.0127 179.122H46.6256V171.132H42.0127V179.122ZM42.0127 171.046H46.6256V163.056H42.0127V171.046ZM42.0127 162.97H46.6256V154.98H42.0127V162.97ZM42.0127 154.894H46.6256V146.904H42.0127V154.894ZM42.0127 146.818H46.6256V138.828H42.0127V146.818ZM42.0127 138.742H46.6256V130.752H42.0127V138.742ZM42.0127 130.666H46.6256V122.676H42.0127V130.666ZM42.0127 122.59H46.6256V114.6H42.0127V122.59ZM42.0127 114.514H46.6256V106.524H42.0127V114.514ZM42.0127 106.438H46.6256V98.4485H42.0127V106.438ZM42.0127 98.3625H46.6256V90.3726H42.0127V98.3625ZM37.3501 259.877H41.963V251.888H37.3501V259.877ZM37.3501 251.802H41.963V243.812H37.3501V251.802ZM37.3501 243.726H41.963V235.753H37.3501V243.726ZM37.3501 235.65H41.963V227.66H37.3501V235.65ZM37.3501 227.574H41.963V219.587H37.3501V227.574ZM37.3501 219.498H41.963V211.508H37.3501V219.498ZM37.3501 211.422H41.963V203.422H37.3501V211.422ZM37.3501 203.346H41.963V195.356H37.3501V203.346ZM37.3501 195.27H41.963V187.284H37.3501V195.27ZM37.3501 187.198H41.963V179.208H37.3501V187.198ZM37.3501 179.122H41.963V171.132H37.3501V179.122ZM37.3501 171.046H41.963V163.056H37.3501V171.046ZM37.3501 162.97H41.963V154.98H37.3501V162.97ZM37.3501 154.894H41.963V146.904H37.3501V154.894ZM37.3501 146.818H41.963V138.828H37.3501V146.818ZM37.3501 138.742H41.963V130.752H37.3501V138.742ZM37.3501 130.666H41.963V122.676H37.3501V130.666ZM37.3501 122.59H41.963V114.6H37.3501V122.59ZM37.3501 114.514H41.963V106.524H37.3501V114.514ZM37.3501 106.438H41.963V98.4485H37.3501V106.438ZM37.3501 98.3625H41.963V90.3726H37.3501V98.3625ZM32.6875 259.877H37.3004V251.888H32.6875V259.877ZM32.6875 251.802H37.3004V243.812H32.6875V251.802ZM32.6875 243.726H37.3004V235.753H32.6875V243.726ZM32.6875 235.65H37.3004V227.66H32.6875V235.65ZM32.6875 227.574H37.3004V219.587H32.6875V227.574ZM32.6875 219.498H37.3004V211.508H32.6875V219.498ZM32.6875 211.422H37.3004V203.422H32.6875V211.422ZM32.6875 203.346H37.3004V195.356H32.6875V203.346ZM32.6875 195.27H37.3004V187.284H32.6875V195.27ZM32.6875 187.198H37.3004V179.208H32.6875V187.198ZM32.6875 179.122H37.3004V171.132H32.6875V179.122ZM32.6875 171.046H37.3004V163.056H32.6875V171.046ZM32.6875 162.97H37.3004V154.98H32.6875V162.97ZM32.6875 154.894H37.3004V146.904H32.6875V154.894ZM32.6875 146.818H37.3004V138.828H32.6875V146.818ZM32.6875 138.742H37.3004V130.752H32.6875V138.742ZM32.6875 130.666H37.3004V122.676H32.6875V130.666ZM32.6875 122.59H37.3004V114.6H32.6875V122.59ZM32.6875 114.514H37.3004V106.524H32.6875V114.514ZM32.6875 106.438H37.3004V98.4485H32.6875V106.438ZM32.6875 98.3625H37.3004V90.3726H32.6875V98.3625ZM28.0249 259.877H32.6378V251.888H28.0249V259.877ZM28.0249 251.802H32.6378V243.812H28.0249V251.802ZM28.0249 243.726H32.6378V235.753H28.0249V243.726ZM28.0249 235.65H32.6378V227.66H28.0249V235.65ZM28.0249 227.574H32.6378V219.587H28.0249V227.574ZM28.0249 219.498H32.6378V211.508H28.0249V219.498ZM28.0249 211.422H32.6378V203.422H28.0249V211.422ZM28.0249 203.346H32.6378V195.356H28.0249V203.346ZM28.0249 195.27H32.6378V187.284H28.0249V195.27ZM28.0249 187.198H32.6378V179.208H28.0249V187.198ZM28.0249 179.122H32.6378V171.132H28.0249V179.122ZM28.0249 171.046H32.6378V163.056H28.0249V171.046ZM28.0249 162.97H32.6378V154.98H28.0249V162.97ZM28.0249 154.894H32.6378V146.904H28.0249V154.894ZM28.0249 146.818H32.6378V138.828H28.0249V146.818ZM28.0249 138.742H32.6378V130.752H28.0249V138.742ZM28.0249 130.666H32.6378V122.676H28.0249V130.666ZM28.0249 122.59H32.6378V114.6H28.0249V122.59ZM28.0249 114.514H32.6378V106.524H28.0249V114.514ZM28.0249 106.438H32.6378V98.4485H28.0249V106.438ZM28.0249 98.3625H32.6378V90.3726H28.0249V98.3625ZM23.3623 259.877H27.9752V251.888H23.3623V259.877ZM23.3623 251.802H27.9752V243.812H23.3623V251.802ZM23.3623 243.726H27.9752V235.753H23.3623V243.726ZM23.3623 235.65H27.9752V227.66H23.3623V235.65ZM23.3623 227.574H27.9752V219.587H23.3623V227.574ZM23.3623 219.498H27.9752V211.508H23.3623V219.498ZM23.3623 211.422H27.9752V203.422H23.3623V211.422ZM23.3623 203.346H27.9752V195.356H23.3623V203.346ZM23.3623 195.27H27.9752V187.284H23.3623V195.27ZM23.3623 187.198H27.9752V179.208H23.3623V187.198ZM23.3623 179.122H27.9752V171.132H23.3623V179.122ZM23.3623 171.046H27.9752V163.056H23.3623V171.046ZM23.3623 162.97H27.9752V154.98H23.3623V162.97ZM23.3623 154.894H27.9752V146.904H23.3623V154.894ZM23.3623 146.818H27.9752V138.828H23.3623V146.818ZM23.3623 138.742H27.9752V130.752H23.3623V138.742ZM23.3623 130.666H27.9752V122.676H23.3623V130.666ZM23.3623 122.59H27.9752V114.6H23.3623V122.59ZM23.3623 114.514H27.9752V106.524H23.3623V114.514ZM23.3623 106.438H27.9752V98.4485H23.3623V106.438ZM23.3623 98.3625H27.9752V90.3726H23.3623V98.3625ZM18.7056 259.877H23.3126V251.888H18.7056V259.877ZM18.7056 251.802H23.3126V243.812H18.7056V251.802ZM18.7056 243.726H23.3126V235.753H18.7056V243.726ZM18.7056 235.65H23.3126V227.66H18.7056V235.65ZM18.7056 227.574H23.3126V219.587H18.7056V227.574ZM18.7056 219.498H23.3126V211.508H18.7056V219.498ZM18.7056 211.422H23.3126V203.422H18.7056V211.422ZM18.7056 203.346H23.3126V195.356H18.7056V203.346ZM18.7056 195.27H23.3126V187.284H18.7056V195.27ZM18.7056 187.198H23.3126V179.208H18.7056V187.198ZM18.7056 179.122H23.3126V171.132H18.7056V179.122ZM18.7056 171.046H23.3126V163.056H18.7056V171.046ZM18.7056 162.97H23.3126V154.98H18.7056V162.97ZM18.7056 154.894H23.3126V146.904H18.7056V154.894ZM18.7056 146.818H23.3126V138.828H18.7056V146.818ZM18.7056 138.759H23.3126V130.752H18.7056V138.759ZM18.7056 130.683H23.3126V122.676H18.7056V130.683ZM18.7056 122.594H23.3126V114.6H18.7056V122.594ZM18.7056 114.518H23.3126V106.524H18.7056V114.518ZM18.7056 106.428H23.3126V98.4485H18.7056V106.428ZM18.7056 98.3522H23.3126V90.3726H18.7056V98.3522ZM14.043 259.867H18.65V251.888H14.037L14.043 259.867ZM14.043 251.791H18.65V243.812H14.037L14.043 251.791ZM14.043 243.715H18.65V235.753H14.037L14.043 243.715ZM14.043 235.639H18.65V227.66H14.037L14.043 235.639ZM14.043 227.563H18.65V219.587H14.037L14.043 227.563ZM14.043 219.488H18.65V211.508H14.037L14.043 219.488ZM14.043 211.412H18.65V203.422H14.037L14.043 211.412ZM14.043 203.336H18.65V195.356H14.037L14.043 203.336ZM14.043 195.26H18.65V187.284H14.037L14.043 195.26ZM14.043 187.187H18.65V179.208H14.037L14.043 187.187ZM14.043 179.111H18.65V171.132H14.037L14.043 179.111ZM14.043 171.035H18.65V163.056H14.037L14.043 171.035ZM14.043 162.96H18.65V154.98H14.037L14.043 162.96ZM14.043 154.884H18.65V146.904H14.037L14.043 154.884ZM14.043 146.808H18.65V138.828H14.037L14.043 146.808ZM14.043 138.732H18.65V130.752H14.037L14.043 138.732ZM14.043 130.656H18.65V122.676H14.037L14.043 130.656ZM14.043 122.58H18.65V114.6H14.037L14.043 122.58ZM14.043 114.504H18.65V106.524H14.037L14.043 114.504ZM14.043 106.428H18.65V98.4485H14.037L14.043 106.428ZM14.043 98.3522H18.65V90.3726H14.037L14.043 98.3522ZM9.37246 259.877H13.9874V251.888H9.37246V259.877ZM9.37246 251.802H13.9874V243.812H9.37246V251.802ZM9.37246 243.726H13.9874V235.753H9.37246V243.726ZM9.37246 235.65H13.9874V227.66H9.37246V235.65ZM9.37246 227.574H13.9874V219.587H9.37246V227.574ZM9.37246 219.498H13.9874V211.508H9.37246V219.498ZM9.37246 211.422H13.9874V203.422H9.37246V211.422ZM9.37246 203.346H13.9874V195.356H9.37246V203.346ZM9.37246 195.27H13.9874V187.284H9.37246V195.27ZM9.37246 187.198H13.9874V179.208H9.37246V187.198ZM9.37246 179.122H13.9874V171.132H9.37246V179.122ZM9.37246 171.046H13.9874V163.056H9.37246V171.046ZM9.37246 162.97H13.9874V154.98H9.37246V162.97ZM9.37246 154.894H13.9874V146.904H9.37246V154.894ZM9.37246 146.818H13.9874V138.828H9.37246V146.818ZM9.37246 138.759H13.9874V130.752H9.37246V138.759ZM9.37246 130.683H13.9874V122.676H9.37246V130.683ZM9.37246 122.594H13.9874V114.6H9.37246V122.594ZM9.37246 114.518H13.9874V106.524H9.37246V114.518ZM9.37246 106.428H13.9874V98.4485H9.37246V106.428ZM9.37246 98.3522H13.9874V90.3726H9.37246V98.3522ZM4.70985 259.867H9.3248V251.888H4.71185L4.70985 259.867ZM4.70985 251.791H9.3248V243.812H4.71185L4.70985 251.791ZM4.70985 243.715H9.3248V235.753H4.71185L4.70985 243.715ZM4.70985 235.639H9.3248V227.66H4.71185L4.70985 235.639ZM4.70985 227.563H9.3248V219.587H4.71185L4.70985 227.563ZM4.70985 219.488H9.3248V211.508H4.71185L4.70985 219.488ZM4.70985 211.412H9.3248V203.422H4.71185L4.70985 211.412ZM4.70985 203.336H9.3248V195.356H4.71185L4.70985 203.336ZM4.70985 195.26H9.3248V187.284H4.71185L4.70985 195.26ZM4.70985 187.187H9.3248V179.208H4.71185L4.70985 187.187ZM4.70985 179.111H9.3248V171.132H4.71185L4.70985 179.111ZM4.70985 171.035H9.3248V163.056H4.71185L4.70985 171.035ZM4.70985 162.96H9.3248V154.98H4.71185L4.70985 162.96ZM4.70985 154.884H9.3248V146.904H4.71185L4.70985 154.884ZM4.70985 146.808H9.3248V138.828H4.71185L4.70985 146.808ZM4.70985 138.732H9.3248V130.752H4.71185L4.70985 138.732ZM4.70985 130.656H9.3248V122.676H4.71185L4.70985 130.656ZM4.70985 122.58H9.3248V114.6H4.71185L4.70985 122.58ZM4.70985 114.504H9.3248V106.524H4.71185L4.70985 114.504ZM4.70985 106.428H9.3248V98.4485H4.71185L4.70985 106.428ZM4.70985 98.3522H9.3248V90.3726H4.71185L4.70985 98.3522ZM0.0393066 259.877H4.6622V251.888H0.0393066V259.877ZM0.0393066 251.802H4.6622V243.812H0.0393066V251.802ZM0.0393066 243.726H4.6622V235.753H0.0393066V243.726ZM0.0393066 235.65H4.6622V227.66H0.0393066V235.65ZM0.0393066 227.574H4.6622V219.587H0.0393066V227.574ZM0.0393066 219.498H4.6622V211.508H0.0393066V219.498ZM0.0393066 211.422H4.6622V203.422H0.0393066V211.422ZM0.0393066 203.346H4.6622V195.356H0.0393066V203.346ZM0.0393066 195.27H4.6622V187.284H0.0393066V195.27ZM0.0393066 187.198H4.6622V179.208H0.0393066V187.198ZM0.0393066 179.122H4.6622V171.132H0.0393066V179.122ZM0.0393066 171.046H4.6622V163.056H0.0393066V171.046ZM0.0393066 162.97H4.6622V154.98H0.0393066V162.97ZM0.0393066 154.894H4.6622V146.904H0.0393066V154.894ZM0.0393066 146.818H4.6622V138.828H0.0393066V146.818ZM0.0393066 138.759H4.6622V130.752H0.0393066V138.759ZM0.0393066 130.683H4.6622V122.676H0.0393066V130.683ZM0.0393066 122.594H4.6622V114.6H0.0393066V122.594ZM0.0393066 114.518H4.6622V106.524H0.0393066V114.518ZM0.0393066 106.428H4.6622V98.4485H0.0393066V106.428ZM0.0393066 98.3522H4.6622V90.3726H0.0393066V98.3522Z" fill="url(#paint3_radial_993_2148)"/>
<defs>
<filter id="filter0_d_993_2148" x="4.6897" y="56.7202" width="207.033" height="176.077" filterUnits="userSpaceOnUse" color-interpolation-filters="sRGB">
<feFlood flood-opacity="0" result="BackgroundImageFix"/>
<feColorMatrix in="SourceAlpha" type="matrix" values="0 0 0 0 0 0 0 0 0 0 0 0 0 0 0 0 0 0 127 0" result="hardAlpha"/>
<feOffset/>
<feGaussianBlur stdDeviation="6.5"/>
<feComposite in2="hardAlpha" operator="out"/>
<feColorMatrix type="matrix" values="0 0 0 0 1 0 0 0 0 1 0 0 0 0 1 0 0 0 1 0"/>
<feBlend mode="normal" in2="BackgroundImageFix" result="effect1_dropShadow_993_2148"/>
<feBlend mode="normal" in="SourceGraphic" in2="effect1_dropShadow_993_2148" result="shape"/>
</filter>
<radialGradient id="paint0_radial_993_2148" cx="0" cy="0" r="1" gradientUnits="userSpaceOnUse" gradientTransform="translate(82.8874 112.39) rotate(49.357) scale(98.0761)">
<stop stop-color="#5DD334"/>
<stop offset="0.71875" stop-color="#00FFE0" stop-opacity="0"/>
</radialGradient>
<radialGradient id="paint1_radial_993_2148" cx="0" cy="0" r="1" gradientUnits="userSpaceOnUse" gradientTransform="translate(195.305 92.1998) rotate(180) scale(92.1998)">
<stop stop-color="#FFFFE0"/>
<stop offset="1" stop-color="#FFFFE0" stop-opacity="0"/>
</radialGradient>
<radialGradient id="paint2_radial_993_2148" cx="0" cy="0" r="1" gradientUnits="userSpaceOnUse" gradientTransform="translate(113.797 249.979) rotate(180) scale(34.9828 34.9792)">
<stop stop-color="#FFFFE0"/>
<stop offset="1" stop-color="#FFFFE0" stop-opacity="0"/>
</radialGradient>
<radialGradient id="paint3_radial_993_2148" cx="0" cy="0" r="1" gradientUnits="userSpaceOnUse" gradientTransform="translate(48.9808 175.125) rotate(180) scale(48.9812 84.8384)">
<stop stop-color="#FFFFE0"/>
<stop offset="1" stop-color="#FFFFE0" stop-opacity="0"/>
</radialGradient>
</defs>
</svg>
