<svg width="101" height="110" viewBox="0 0 101 110" fill="none" xmlns="http://www.w3.org/2000/svg">
<path d="M41.5724 83.9677C18.6128 83.9677 0.000312805 65.1709 0.000312805 41.9839C0.000312805 18.7968 18.6128 0 41.5724 0C64.5321 0 83.1445 18.7968 83.1445 41.9839C83.1445 65.1709 64.5321 83.9677 41.5724 83.9677Z" fill="url(#paint0_radial_1515_1552)"/>
<path d="M100.966 40V109.958H31.6864V40H100.966ZM97.6684 109.923H100.931V106.629H97.6684V109.923ZM97.6684 106.593H100.931V103.299H97.6684V106.593ZM97.6684 103.263H100.931V99.9763H97.6684V103.263ZM97.6684 99.9338H100.931V96.6395H97.6684V99.9338ZM97.6684 96.604H100.931V93.3112H97.6684V96.604ZM97.6684 93.2743H100.931V89.98H97.6684V93.2743ZM97.6684 89.9446H100.931V86.646H97.6684V89.9446ZM97.6684 86.6148H100.931V83.3205H97.6684V86.6148ZM97.6684 83.2851H100.931V79.9922H97.6684V83.2851ZM97.6684 79.9568H100.931V76.6625H97.6684V79.9568ZM97.6684 76.6271H100.931V73.3328H97.6684V76.6271ZM97.6684 73.2973H100.931V70.003H97.6684V73.2973ZM97.6684 69.9676H100.931V66.6733H97.6684V69.9676ZM97.6684 66.6379H100.931V63.3436H97.6684V66.6379ZM97.6684 63.3081H100.931V60.0138H97.6684V63.3081ZM97.6684 59.9784H100.931V56.6841H97.6684V59.9784ZM97.6684 56.6487H100.931V53.3544H97.6684V56.6487ZM97.6684 53.3189H100.931V50.0246H97.6684V53.3189ZM97.6684 49.9892H100.931V46.6949H97.6684V49.9892ZM97.6684 46.6595H100.931V43.3652H97.6684V46.6595ZM97.6684 43.3297H100.931V40.0355H97.6684V43.3297ZM94.371 109.923H97.6333V106.629H94.371V109.923ZM94.371 106.593H97.6333V103.299H94.371V106.593ZM94.371 103.263H97.6333V99.9763H94.371V103.263ZM94.371 99.9338H97.6333V96.6395H94.371V99.9338ZM94.371 96.604H97.6333V93.3112H94.371V96.604ZM94.371 93.2743H97.6333V89.98H94.371V93.2743ZM94.371 89.9446H97.6333V86.646H94.371V89.9446ZM94.371 86.6148H97.6333V83.3205H94.371V86.6148ZM94.371 83.2851H97.6333V79.9922H94.371V83.2851ZM94.371 79.9568H97.6333V76.6625H94.371V79.9568ZM94.371 76.6271H97.6333V73.3328H94.371V76.6271ZM94.371 73.2973H97.6333V70.003H94.371V73.2973ZM94.371 69.9676H97.6333V66.6733H94.371V69.9676ZM94.371 66.6379H97.6333V63.3436H94.371V66.6379ZM94.371 63.3081H97.6333V60.0138H94.371V63.3081ZM94.371 59.9784H97.6333V56.6841H94.371V59.9784ZM94.371 56.6487H97.6333V53.3544H94.371V56.6487ZM94.371 53.3189H97.6333V50.0246H94.371V53.3189ZM94.371 49.9892H97.6333V46.6949H94.371V49.9892ZM94.371 46.6595H97.6333V43.3652H94.371V46.6595ZM94.371 43.3297H97.6333V40.0355H94.371V43.3297ZM91.0736 109.923H94.3359V106.629H91.0736V109.923ZM91.0736 106.593H94.3359V103.299H91.0736V106.593ZM91.0736 103.263H94.3359V99.9763H91.0736V103.263ZM91.0736 99.9338H94.3359V96.6395H91.0736V99.9338ZM91.0736 96.604H94.3359V93.3112H91.0736V96.604ZM91.0736 93.2743H94.3359V89.98H91.0736V93.2743ZM91.0736 89.9446H94.3359V86.646H91.0736V89.9446ZM91.0736 86.6148H94.3359V83.3205H91.0736V86.6148ZM91.0736 83.2851H94.3359V79.9922H91.0736V83.2851ZM91.0736 79.9568H94.3359V76.6625H91.0736V79.9568ZM91.0736 76.6271H94.3359V73.3328H91.0736V76.6271ZM91.0736 73.2973H94.3359V70.003H91.0736V73.2973ZM91.0736 69.9676H94.3359V66.6733H91.0736V69.9676ZM91.0736 66.6379H94.3359V63.3436H91.0736V66.6379ZM91.0736 63.3081H94.3359V60.0138H91.0736V63.3081ZM91.0736 59.9784H94.3359V56.6841H91.0736V59.9784ZM91.0736 56.6487H94.3359V53.3544H91.0736V56.6487ZM91.0736 53.3189H94.3359V50.0246H91.0736V53.3189ZM91.0736 49.9892H94.3359V46.6949H91.0736V49.9892ZM91.0736 46.6595H94.3359V43.3652H91.0736V46.6595ZM91.0736 43.3297H94.3359V40.0355H91.0736V43.3297ZM87.7762 109.923H91.0385V106.629H87.7762V109.923ZM87.7762 106.593H91.0385V103.299H87.7762V106.593ZM87.7762 103.263H91.0385V99.9763H87.7762V103.263ZM87.7762 99.9338H91.0385V96.6395H87.7762V99.9338ZM87.7762 96.604H91.0385V93.3112H87.7762V96.604ZM87.7762 93.2743H91.0385V89.98H87.7762V93.2743ZM87.7762 89.9446H91.0385V86.646H87.7762V89.9446ZM87.7762 86.6148H91.0385V83.3205H87.7762V86.6148ZM87.7762 83.2851H91.0385V79.9922H87.7762V83.2851ZM87.7762 79.9568H91.0385V76.6625H87.7762V79.9568ZM87.7762 76.6271H91.0385V73.3328H87.7762V76.6271ZM87.7762 73.2973H91.0385V70.003H87.7762V73.2973ZM87.7762 69.9676H91.0385V66.6733H87.7762V69.9676ZM87.7762 66.6379H91.0385V63.3436H87.7762V66.6379ZM87.7762 63.3081H91.0385V60.0138H87.7762V63.3081ZM87.7762 59.9784H91.0385V56.6841H87.7762V59.9784ZM87.7762 56.6487H91.0385V53.3544H87.7762V56.6487ZM87.7762 53.3189H91.0385V50.0246H87.7762V53.3189ZM87.7762 49.9892H91.0385V46.6949H87.7762V49.9892ZM87.7762 46.6595H91.0385V43.3652H87.7762V46.6595ZM87.7762 43.3297H91.0385V40.0355H87.7762V43.3297ZM84.4787 109.923H87.7411V106.629H84.4787V109.923ZM84.4787 106.593H87.7411V103.299H84.4787V106.593ZM84.4787 103.263H87.7411V99.9763H84.4787V103.263ZM84.4787 99.9338H87.7411V96.6395H84.4787V99.9338ZM84.4787 96.604H87.7411V93.3112H84.4787V96.604ZM84.4787 93.2743H87.7411V89.98H84.4787V93.2743ZM84.4787 89.9446H87.7411V86.646H84.4787V89.9446ZM84.4787 86.6148H87.7411V83.3205H84.4787V86.6148ZM84.4787 83.2851H87.7411V79.9922H84.4787V83.2851ZM84.4787 79.9568H87.7411V76.6625H84.4787V79.9568ZM84.4787 76.6271H87.7411V73.3328H84.4787V76.6271ZM84.4787 73.2973H87.7411V70.003H84.4787V73.2973ZM84.4787 69.9676H87.7411V66.6733H84.4787V69.9676ZM84.4787 66.6379H87.7411V63.3436H84.4787V66.6379ZM84.4787 63.3081H87.7411V60.0138H84.4787V63.3081ZM84.4787 59.9784H87.7411V56.6841H84.4787V59.9784ZM84.4787 56.6487H87.7411V53.3544H84.4787V56.6487ZM84.4787 53.3189H87.7411V50.0246H84.4787V53.3189ZM84.4787 49.9892H87.7411V46.6949H84.4787V49.9892ZM84.4787 46.6595H87.7411V43.3652H84.4787V46.6595ZM84.4787 43.3297H87.7411V40.0355H84.4787V43.3297ZM81.1813 109.923H84.4436V106.629H81.1813V109.923ZM81.1813 106.593H84.4436V103.299H81.1813V106.593ZM81.1813 103.263H84.4436V99.9763H81.1813V103.263ZM81.1813 99.9338H84.4436V96.6395H81.1813V99.9338ZM81.1813 96.604H84.4436V93.3112H81.1813V96.604ZM81.1813 93.2743H84.4436V89.98H81.1813V93.2743ZM81.1813 89.9446H84.4436V86.646H81.1813V89.9446ZM81.1813 86.6148H84.4436V83.3205H81.1813V86.6148ZM81.1813 83.2851H84.4436V79.9922H81.1813V83.2851ZM81.1813 79.9568H84.4436V76.6625H81.1813V79.9568ZM81.1813 76.6271H84.4436V73.3328H81.1813V76.6271ZM81.1813 73.2973H84.4436V70.003H81.1813V73.2973ZM81.1813 69.9676H84.4436V66.6733H81.1813V69.9676ZM81.1813 66.6379H84.4436V63.3436H81.1813V66.6379ZM81.1813 63.3081H84.4436V60.0138H81.1813V63.3081ZM81.1813 59.9784H84.4436V56.6841H81.1813V59.9784ZM81.1813 56.6487H84.4436V53.3544H81.1813V56.6487ZM81.1813 53.3189H84.4436V50.0246H81.1813V53.3189ZM81.1813 49.9892H84.4436V46.6949H81.1813V49.9892ZM81.1813 46.6595H84.4436V43.3652H81.1813V46.6595ZM81.1813 43.3297H84.4436V40.0355H81.1813V43.3297ZM77.8839 109.923H81.1476V106.629H77.8853L77.8839 109.923ZM77.8839 106.593H81.1476V103.299H77.8853L77.8839 106.593ZM77.8839 103.263H81.1476V99.9763H77.8853L77.8839 103.263ZM77.8839 99.9338H81.1476V96.6395H77.8853L77.8839 99.9338ZM77.8839 96.604H81.1476V93.3112H77.8853L77.8839 96.604ZM77.8839 93.2743H81.1476V89.98H77.8853L77.8839 93.2743ZM77.8839 89.9446H81.1476V86.646H77.8853L77.8839 89.9446ZM77.8839 86.6148H81.1476V83.3205H77.8853L77.8839 86.6148ZM77.8839 83.2851H81.1476V79.9922H77.8853L77.8839 83.2851ZM77.8839 79.9568H81.1476V76.6625H77.8853L77.8839 79.9568ZM77.8839 76.6271H81.1476V73.3328H77.8853L77.8839 76.6271ZM77.8839 73.2973H81.1476V70.003H77.8853L77.8839 73.2973ZM77.8839 69.9676H81.1476V66.6733H77.8853L77.8839 69.9676ZM77.8839 66.6379H81.1476V63.3436H77.8853L77.8839 66.6379ZM77.8839 63.3081H81.1476V60.0138H77.8853L77.8839 63.3081ZM77.8839 59.9784H81.1476V56.6841H77.8853L77.8839 59.9784ZM77.8839 56.6487H81.1476V53.3544H77.8853L77.8839 56.6487ZM77.8839 53.3189H81.1476V50.0246H77.8853L77.8839 53.3189ZM77.8839 49.9892H81.1476V46.6949H77.8853L77.8839 49.9892ZM77.8839 46.6595H81.1476V43.3652H77.8853L77.8839 46.6595ZM77.8839 43.3297H81.1476V40.0355H77.8853L77.8839 43.3297ZM74.5865 109.923H77.8488V106.629H74.5865V109.923ZM74.5865 106.593H77.8488V103.299H74.5865V106.593ZM74.5865 103.263H77.8488V99.9763H74.5865V103.263ZM74.5865 99.9338H77.8488V96.6395H74.5865V99.9338ZM74.5865 96.604H77.8488V93.3112H74.5865V96.604ZM74.5865 93.2743H77.8488V89.98H74.5865V93.2743ZM74.5865 89.9446H77.8488V86.646H74.5865V89.9446ZM74.5865 86.6148H77.8488V83.3205H74.5865V86.6148ZM74.5865 83.2851H77.8488V79.9922H74.5865V83.2851ZM74.5865 79.9568H77.8488V76.6625H74.5865V79.9568ZM74.5865 76.6271H77.8488V73.3328H74.5865V76.6271ZM74.5865 73.2973H77.8488V70.003H74.5865V73.2973ZM74.5865 69.9676H77.8488V66.6733H74.5865V69.9676ZM74.5865 66.6379H77.8488V63.3436H74.5865V66.6379ZM74.5865 63.3081H77.8488V60.0138H74.5865V63.3081ZM74.5865 59.9784H77.8488V56.6841H74.5865V59.9784ZM74.5865 56.6487H77.8488V53.3544H74.5865V56.6487ZM74.5865 53.3189H77.8488V50.0246H74.5865V53.3189ZM74.5865 49.9892H77.8488V46.6949H74.5865V49.9892ZM74.5865 46.6595H77.8488V43.3652H74.5865V46.6595ZM74.5865 43.3297H77.8488V40.0355H74.5865V43.3297ZM71.2905 109.923H74.5472V106.629H71.2863L71.2905 109.923ZM71.2905 106.593H74.5472V103.299H71.2863L71.2905 106.593ZM71.2905 103.263H74.5472V99.9763H71.2863L71.2905 103.263ZM71.2905 99.9338H74.5472V96.6395H71.2863L71.2905 99.9338ZM71.2905 96.604H74.5472V93.3112H71.2863L71.2905 96.604ZM71.2905 93.2743H74.5472V89.98H71.2863L71.2905 93.2743ZM71.2905 89.9446H74.5472V86.646H71.2863L71.2905 89.9446ZM71.2905 86.6148H74.5472V83.3205H71.2863L71.2905 86.6148ZM71.2905 83.2851H74.5472V79.9922H71.2863L71.2905 83.2851ZM71.2905 79.9568H74.5472V76.6625H71.2863L71.2905 79.9568ZM71.2905 76.6271H74.5472V73.3328H71.2863L71.2905 76.6271ZM71.2905 73.2973H74.5472V70.003H71.2863L71.2905 73.2973ZM71.2905 69.9676H74.5472V66.6733H71.2863L71.2905 69.9676ZM71.2905 66.6379H74.5472V63.3436H71.2863L71.2905 66.6379ZM71.2905 63.3081H74.5472V60.0138H71.2863L71.2905 63.3081ZM71.2905 59.9784H74.5472V56.6841H71.2863L71.2905 59.9784ZM71.2905 56.6487H74.5472V53.3544H71.2863L71.2905 56.6487ZM71.2905 53.3189H74.5472V50.0246H71.2863L71.2905 53.3189ZM71.2905 49.9892H74.5472V46.6949H71.2863L71.2905 49.9892ZM71.2905 46.6595H74.5472V43.3652H71.2863L71.2905 46.6595ZM71.2905 43.3297H74.5472V40.0355H71.2863L71.2905 43.3297ZM67.9931 109.923H71.2554V106.629H67.9931V109.923ZM67.9931 106.593H71.2554V103.299H67.9931V106.593ZM67.9931 103.263H71.2554V99.9763H67.9931V103.263ZM67.9931 99.9338H71.2554V96.6395H67.9931V99.9338ZM67.9931 96.604H71.2554V93.3112H67.9931V96.604ZM67.9931 93.2743H71.2554V89.98H67.9931V93.2743ZM67.9931 89.9446H71.2554V86.646H67.9931V89.9446ZM67.9931 86.6148H71.2554V83.3205H67.9931V86.6148ZM67.9931 83.2851H71.2554V79.9922H67.9931V83.2851ZM67.9931 79.9568H71.2554V76.6625H67.9931V79.9568ZM67.9931 76.6271H71.2554V73.3328H67.9931V76.6271ZM67.9931 73.2973H71.2554V70.003H67.9931V73.2973ZM67.9931 69.9676H71.2554V66.6733H67.9931V69.9676ZM67.9931 66.6379H71.2554V63.3436H67.9931V66.6379ZM67.9931 63.3081H71.2554V60.0138H67.9931V63.3081ZM67.9931 59.9784H71.2554V56.6841H67.9931V59.9784ZM67.9931 56.6487H71.2554V53.3544H67.9931V56.6487ZM67.9931 53.3189H71.2554V50.0246H67.9931V53.3189ZM67.9931 49.9892H71.2554V46.6949H67.9931V49.9892ZM67.9931 46.6595H71.2554V43.3652H67.9931V46.6595ZM67.9931 43.3297H71.2554V40.0355H67.9931V43.3297ZM64.6956 109.923H67.958V106.629H64.6956V109.923ZM64.6956 106.593H67.958V103.299H64.6956V106.593ZM64.6956 103.263H67.958V99.9763H64.6956V103.263ZM64.6956 99.9338H67.958V96.6395H64.6956V99.9338ZM64.6956 96.604H67.958V93.3112H64.6956V96.604ZM64.6956 93.2743H67.958V89.98H64.6956V93.2743ZM64.6956 89.9446H67.958V86.646H64.6956V89.9446ZM64.6956 86.6148H67.958V83.3205H64.6956V86.6148ZM64.6956 83.2851H67.958V79.9922H64.6956V83.2851ZM64.6956 79.9568H67.958V76.6625H64.6956V79.9568ZM64.6956 76.6271H67.958V73.3328H64.6956V76.6271ZM64.6956 73.2973H67.958V70.003H64.6956V73.2973ZM64.6956 69.9676H67.958V66.6733H64.6956V69.9676ZM64.6956 66.6379H67.958V63.3436H64.6956V66.6379ZM64.6956 63.3081H67.958V60.0138H64.6956V63.3081ZM64.6956 59.9784H67.958V56.6841H64.6956V59.9784ZM64.6956 56.6487H67.958V53.3544H64.6956V56.6487ZM64.6956 53.3189H67.958V50.0246H64.6956V53.3189ZM64.6956 49.9892H67.958V46.6949H64.6956V49.9892ZM64.6956 46.6595H67.958V43.3652H64.6956V46.6595ZM64.6956 43.3297H67.958V40.0355H64.6956V43.3297ZM61.3982 109.923H64.6605V106.629H61.3982V109.923ZM61.3982 106.593H64.6605V103.299H61.3982V106.593ZM61.3982 103.263H64.6605V99.9763H61.3982V103.263ZM61.3982 99.9338H64.6605V96.6395H61.3982V99.9338ZM61.3982 96.604H64.6605V93.3112H61.3982V96.604ZM61.3982 93.2743H64.6605V89.98H61.3982V93.2743ZM61.3982 89.9446H64.6605V86.646H61.3982V89.9446ZM61.3982 86.6148H64.6605V83.3205H61.3982V86.6148ZM61.3982 83.2851H64.6605V79.9922H61.3982V83.2851ZM61.3982 79.9568H64.6605V76.6625H61.3982V79.9568ZM61.3982 76.6271H64.6605V73.3328H61.3982V76.6271ZM61.3982 73.2973H64.6605V70.003H61.3982V73.2973ZM61.3982 69.9676H64.6605V66.6733H61.3982V69.9676ZM61.3982 66.6379H64.6605V63.3436H61.3982V66.6379ZM61.3982 63.3081H64.6605V60.0138H61.3982V63.3081ZM61.3982 59.9784H64.6605V56.6841H61.3982V59.9784ZM61.3982 56.6487H64.6605V53.3544H61.3982V56.6487ZM61.3982 53.3189H64.6605V50.0246H61.3982V53.3189ZM61.3982 49.9892H64.6605V46.6949H61.3982V49.9892ZM61.3982 46.6595H64.6605V43.3652H61.3982V46.6595ZM61.3982 43.3297H64.6605V40.0355H61.3982V43.3297ZM58.1008 109.923H61.3631V106.629H58.1008V109.923ZM58.1008 106.593H61.3631V103.299H58.1008V106.593ZM58.1008 103.263H61.3631V99.9763H58.1008V103.263ZM58.1008 99.9338H61.3631V96.6395H58.1008V99.9338ZM58.1008 96.604H61.3631V93.3112H58.1008V96.604ZM58.1008 93.2743H61.3631V89.98H58.1008V93.2743ZM58.1008 89.9446H61.3631V86.646H58.1008V89.9446ZM58.1008 86.6148H61.3631V83.3205H58.1008V86.6148ZM58.1008 83.2851H61.3631V79.9922H58.1008V83.2851ZM58.1008 79.9568H61.3631V76.6625H58.1008V79.9568ZM58.1008 76.6271H61.3631V73.3328H58.1008V76.6271ZM58.1008 73.2973H61.3631V70.003H58.1008V73.2973ZM58.1008 69.9676H61.3631V66.6733H58.1008V69.9676ZM58.1008 66.6379H61.3631V63.3436H58.1008V66.6379ZM58.1008 63.3081H61.3631V60.0138H58.1008V63.3081ZM58.1008 59.9784H61.3631V56.6841H58.1008V59.9784ZM58.1008 56.6487H61.3631V53.3544H58.1008V56.6487ZM58.1008 53.3189H61.3631V50.0246H58.1008V53.3189ZM58.1008 49.9892H61.3631V46.6949H58.1008V49.9892ZM58.1008 46.6595H61.3631V43.3652H58.1008V46.6595ZM58.1008 43.3297H61.3631V40.0355H58.1008V43.3297ZM54.8034 109.923H58.0657V106.629H54.8034V109.923ZM54.8034 106.593H58.0657V103.299H54.8034V106.593ZM54.8034 103.263H58.0657V99.9763H54.8034V103.263ZM54.8034 99.9338H58.0657V96.6395H54.8034V99.9338ZM54.8034 96.604H58.0657V93.3112H54.8034V96.604ZM54.8034 93.2743H58.0657V89.98H54.8034V93.2743ZM54.8034 89.9446H58.0657V86.646H54.8034V89.9446ZM54.8034 86.6148H58.0657V83.3205H54.8034V86.6148ZM54.8034 83.2851H58.0657V79.9922H54.8034V83.2851ZM54.8034 79.9568H58.0657V76.6625H54.8034V79.9568ZM54.8034 76.6271H58.0657V73.3328H54.8034V76.6271ZM54.8034 73.2973H58.0657V70.003H54.8034V73.2973ZM54.8034 69.9676H58.0657V66.6733H54.8034V69.9676ZM54.8034 66.6379H58.0657V63.3436H54.8034V66.6379ZM54.8034 63.3081H58.0657V60.0138H54.8034V63.3081ZM54.8034 59.9784H58.0657V56.6841H54.8034V59.9784ZM54.8034 56.6487H58.0657V53.3544H54.8034V56.6487ZM54.8034 53.3189H58.0657V50.0246H54.8034V53.3189ZM54.8034 49.9892H58.0657V46.6949H54.8034V49.9892ZM54.8034 46.6595H58.0657V43.3652H54.8034V46.6595ZM54.8034 43.3297H58.0657V40.0355H54.8034V43.3297ZM51.506 109.923H54.7683V106.629H51.506V109.923ZM51.506 106.593H54.7683V103.299H51.506V106.593ZM51.506 103.263H54.7683V99.9763H51.506V103.263ZM51.506 99.9338H54.7683V96.6395H51.506V99.9338ZM51.506 96.604H54.7683V93.3112H51.506V96.604ZM51.506 93.2743H54.7683V89.98H51.506V93.2743ZM51.506 89.9446H54.7683V86.646H51.506V89.9446ZM51.506 86.6148H54.7683V83.3205H51.506V86.6148ZM51.506 83.2851H54.7683V79.9922H51.506V83.2851ZM51.506 79.9568H54.7683V76.6625H51.506V79.9568ZM51.506 76.6271H54.7683V73.3328H51.506V76.6271ZM51.506 73.2973H54.7683V70.003H51.506V73.2973ZM51.506 69.9676H54.7683V66.6733H51.506V69.9676ZM51.506 66.6379H54.7683V63.3436H51.506V66.6379ZM51.506 63.3081H54.7683V60.0138H51.506V63.3081ZM51.506 59.9784H54.7683V56.6841H51.506V59.9784ZM51.506 56.6487H54.7683V53.3544H51.506V56.6487ZM51.506 53.3189H54.7683V50.0246H51.506V53.3189ZM51.506 49.9892H54.7683V46.6949H51.506V49.9892ZM51.506 46.6595H54.7683V43.3652H51.506V46.6595ZM51.506 43.3297H54.7683V40.0355H51.506V43.3297ZM48.2086 109.923H51.4709V106.629H48.2086V109.923ZM48.2086 106.593H51.4709V103.299H48.2086V106.593ZM48.2086 103.263H51.4709V99.9763H48.2086V103.263ZM48.2086 99.9338H51.4709V96.6395H48.2086V99.9338ZM48.2086 96.604H51.4709V93.3112H48.2086V96.604ZM48.2086 93.2743H51.4709V89.98H48.2086V93.2743ZM48.2086 89.9446H51.4709V86.646H48.2086V89.9446ZM48.2086 86.6148H51.4709V83.3205H48.2086V86.6148ZM48.2086 83.2851H51.4709V79.9922H48.2086V83.2851ZM48.2086 79.9568H51.4709V76.6625H48.2086V79.9568ZM48.2086 76.6271H51.4709V73.3328H48.2086V76.6271ZM48.2086 73.2973H51.4709V70.003H48.2086V73.2973ZM48.2086 69.9676H51.4709V66.6733H48.2086V69.9676ZM48.2086 66.6379H51.4709V63.3436H48.2086V66.6379ZM48.2086 63.3081H51.4709V60.0138H48.2086V63.3081ZM48.2086 59.9784H51.4709V56.6841H48.2086V59.9784ZM48.2086 56.6487H51.4709V53.3544H48.2086V56.6487ZM48.2086 53.3189H51.4709V50.0246H48.2086V53.3189ZM48.2086 49.9892H51.4709V46.6949H48.2086V49.9892ZM48.2086 46.6595H51.4709V43.3652H48.2086V46.6595ZM48.2086 43.3297H51.4709V40.0355H48.2086V43.3297ZM44.9154 109.923H48.1735V106.629H44.9154V109.923ZM44.9154 106.593H48.1735V103.299H44.9154V106.593ZM44.9154 103.263H48.1735V99.9763H44.9154V103.263ZM44.9154 99.9338H48.1735V96.6395H44.9154V99.9338ZM44.9154 96.604H48.1735V93.3112H44.9154V96.604ZM44.9154 93.2743H48.1735V89.98H44.9154V93.2743ZM44.9154 89.9446H48.1735V86.646H44.9154V89.9446ZM44.9154 86.6148H48.1735V83.3205H44.9154V86.6148ZM44.9154 83.2851H48.1735V79.9922H44.9154V83.2851ZM44.9154 79.9568H48.1735V76.6625H44.9154V79.9568ZM44.9154 76.6271H48.1735V73.3328H44.9154V76.6271ZM44.9154 73.2973H48.1735V70.003H44.9154V73.2973ZM44.9154 69.9676H48.1735V66.6733H44.9154V69.9676ZM44.9154 66.6379H48.1735V63.3436H44.9154V66.6379ZM44.9154 63.3081H48.1735V60.0138H44.9154V63.3081ZM44.9154 59.9855H48.1735V56.6841H44.9154V59.9855ZM44.9154 56.6558H48.1735V53.3544H44.9154V56.6558ZM44.9154 53.3203H48.1735V50.0246H44.9154V53.3203ZM44.9154 49.9906H48.1735V46.6949H44.9154V49.9906ZM44.9154 46.6552H48.1735V43.3652H44.9154V46.6552ZM44.9154 43.3255H48.1735V40.0355H44.9154V43.3255ZM41.618 109.919H44.876V106.629H41.6137L41.618 109.919ZM41.618 106.589H44.876V103.299H41.6137L41.618 106.589ZM41.618 103.259H44.876V99.9763H41.6137L41.618 103.259ZM41.618 99.9295H44.876V96.6395H41.6137L41.618 99.9295ZM41.618 96.5998H44.876V93.3112H41.6137L41.618 96.5998ZM41.618 93.27H44.876V89.98H41.6137L41.618 93.27ZM41.618 89.9403H44.876V86.646H41.6137L41.618 89.9403ZM41.618 86.6106H44.876V83.3205H41.6137L41.618 86.6106ZM41.618 83.2808H44.876V79.9922H41.6137L41.618 83.2808ZM41.618 79.9525H44.876V76.6625H41.6137L41.618 79.9525ZM41.618 76.6228H44.876V73.3328H41.6137L41.618 76.6228ZM41.618 73.2931H44.876V70.003H41.6137L41.618 73.2931ZM41.618 69.9633H44.876V66.6733H41.6137L41.618 69.9633ZM41.618 66.6336H44.876V63.3436H41.6137L41.618 66.6336ZM41.618 63.3039H44.876V60.0138H41.6137L41.618 63.3039ZM41.618 59.9741H44.876V56.6841H41.6137L41.618 59.9741ZM41.618 56.6444H44.876V53.3544H41.6137L41.618 56.6444ZM41.618 53.3147H44.876V50.0246H41.6137L41.618 53.3147ZM41.618 49.9849H44.876V46.6949H41.6137L41.618 49.9849ZM41.618 46.6552H44.876V43.3652H41.6137L41.618 46.6552ZM41.618 43.3255H44.876V40.0355H41.6137L41.618 43.3255ZM38.3149 109.923H41.5786V106.629H38.3149V109.923ZM38.3149 106.593H41.5786V103.299H38.3149V106.593ZM38.3149 103.263H41.5786V99.9763H38.3149V103.263ZM38.3149 99.9338H41.5786V96.6395H38.3149V99.9338ZM38.3149 96.604H41.5786V93.3112H38.3149V96.604ZM38.3149 93.2743H41.5786V89.98H38.3149V93.2743ZM38.3149 89.9446H41.5786V86.646H38.3149V89.9446ZM38.3149 86.6148H41.5786V83.3205H38.3149V86.6148ZM38.3149 83.2851H41.5786V79.9922H38.3149V83.2851ZM38.3149 79.9568H41.5786V76.6625H38.3149V79.9568ZM38.3149 76.6271H41.5786V73.3328H38.3149V76.6271ZM38.3149 73.2973H41.5786V70.003H38.3149V73.2973ZM38.3149 69.9676H41.5786V66.6733H38.3149V69.9676ZM38.3149 66.6379H41.5786V63.3436H38.3149V66.6379ZM38.3149 63.3081H41.5786V60.0138H38.3149V63.3081ZM38.3149 59.9855H41.5786V56.6841H38.3149V59.9855ZM38.3149 56.6558H41.5786V53.3544H38.3149V56.6558ZM38.3149 53.3203H41.5786V50.0246H38.3149V53.3203ZM38.3149 49.9906H41.5786V46.6949H38.3149V49.9906ZM38.3149 46.6552H41.5786V43.3652H38.3149V46.6552ZM38.3149 43.3255H41.5786V40.0355H38.3149V43.3255ZM35.0175 109.919H38.2812V106.629H35.0189L35.0175 109.919ZM35.0175 106.589H38.2812V103.299H35.0189L35.0175 106.589ZM35.0175 103.259H38.2812V99.9763H35.0189L35.0175 103.259ZM35.0175 99.9295H38.2812V96.6395H35.0189L35.0175 99.9295ZM35.0175 96.5998H38.2812V93.3112H35.0189L35.0175 96.5998ZM35.0175 93.27H38.2812V89.98H35.0189L35.0175 93.27ZM35.0175 89.9403H38.2812V86.646H35.0189L35.0175 89.9403ZM35.0175 86.6106H38.2812V83.3205H35.0189L35.0175 86.6106ZM35.0175 83.2808H38.2812V79.9922H35.0189L35.0175 83.2808ZM35.0175 79.9525H38.2812V76.6625H35.0189L35.0175 79.9525ZM35.0175 76.6228H38.2812V73.3328H35.0189L35.0175 76.6228ZM35.0175 73.2931H38.2812V70.003H35.0189L35.0175 73.2931ZM35.0175 69.9633H38.2812V66.6733H35.0189L35.0175 69.9633ZM35.0175 66.6336H38.2812V63.3436H35.0189L35.0175 66.6336ZM35.0175 63.3039H38.2812V60.0138H35.0189L35.0175 63.3039ZM35.0175 59.9741H38.2812V56.6841H35.0189L35.0175 59.9741ZM35.0175 56.6444H38.2812V53.3544H35.0189L35.0175 56.6444ZM35.0175 53.3147H38.2812V50.0246H35.0189L35.0175 53.3147ZM35.0175 49.9849H38.2812V46.6949H35.0189L35.0175 49.9849ZM35.0175 46.6552H38.2812V43.3652H35.0189L35.0175 46.6552ZM35.0175 43.3255H38.2812V40.0355H35.0189L35.0175 43.3255ZM31.7145 109.923H34.9838V106.629H31.7145V109.923ZM31.7145 106.593H34.9838V103.299H31.7145V106.593ZM31.7145 103.263H34.9838V99.9763H31.7145V103.263ZM31.7145 99.9338H34.9838V96.6395H31.7145V99.9338ZM31.7145 96.604H34.9838V93.3112H31.7145V96.604ZM31.7145 93.2743H34.9838V89.98H31.7145V93.2743ZM31.7145 89.9446H34.9838V86.646H31.7145V89.9446ZM31.7145 86.6148H34.9838V83.3205H31.7145V86.6148ZM31.7145 83.2851H34.9838V79.9922H31.7145V83.2851ZM31.7145 79.9568H34.9838V76.6625H31.7145V79.9568ZM31.7145 76.6271H34.9838V73.3328H31.7145V76.6271ZM31.7145 73.2973H34.9838V70.003H31.7145V73.2973ZM31.7145 69.9676H34.9838V66.6733H31.7145V69.9676ZM31.7145 66.6379H34.9838V63.3436H31.7145V66.6379ZM31.7145 63.3081H34.9838V60.0138H31.7145V63.3081ZM31.7145 59.9855H34.9838V56.6841H31.7145V59.9855ZM31.7145 56.6558H34.9838V53.3544H31.7145V56.6558ZM31.7145 53.3203H34.9838V50.0246H31.7145V53.3203ZM31.7145 49.9906H34.9838V46.6949H31.7145V49.9906ZM31.7145 46.6552H34.9838V43.3652H31.7145V46.6552ZM31.7145 43.3255H34.9838V40.0355H31.7145V43.3255Z" fill="url(#paint1_radial_1515_1552)"/>
<defs>
<radialGradient id="paint0_radial_1515_1552" cx="0" cy="0" r="1" gradientUnits="userSpaceOnUse" gradientTransform="translate(-5.86868 -4.60999) rotate(49.6358) scale(97.6692 97.5189)">
<stop stop-color="#5DD334"/>
<stop offset="0.71875" stop-color="#00FFE0" stop-opacity="0"/>
</radialGradient>
<radialGradient id="paint1_radial_1515_1552" cx="0" cy="0" r="1" gradientUnits="userSpaceOnUse" gradientTransform="translate(66.3261 74.9792) rotate(180) scale(34.6397 34.9792)">
<stop stop-color="#FFFFE0"/>
<stop offset="1" stop-color="#FFFFE0" stop-opacity="0"/>
</radialGradient>
</defs>
</svg>
