<svg width="761" height="681" viewBox="0 0 761 681" fill="none" xmlns="http://www.w3.org/2000/svg">
<path d="M382.25 482C452.667 482 509.75 424.916 509.75 354.5C509.75 284.084 452.667 227 382.25 227C311.834 227 254.75 284.084 254.75 354.5C254.75 424.916 311.834 482 382.25 482Z" fill="url(#paint0_radial_10_2)"/>
<path opacity="0.5" d="M-71.25 0V560H488.75V0H-71.25ZM-44.5963 559.716H-70.9662V533.346H-44.5963V559.716ZM-44.5963 533.062H-70.9662V506.693H-44.5963V533.062ZM-44.5963 506.409H-70.9662V480.096H-44.5963V506.409ZM-44.5963 479.755H-70.9662V453.385H-44.5963V479.755ZM-44.5963 453.101H-70.9662V426.743H-44.5963V453.101ZM-44.5963 426.448H-70.9662V400.078H-44.5963V426.448ZM-44.5963 399.794H-70.9662V373.39H-44.5963V399.794ZM-44.5963 373.14H-70.9662V346.77H-44.5963V373.14ZM-44.5963 346.487H-70.9662V320.128H-44.5963V346.487ZM-44.5963 319.844H-70.9662V293.474H-44.5963V319.844ZM-44.5963 293.191H-70.9662V266.821H-44.5963V293.191ZM-44.5963 266.537H-70.9662V240.167H-44.5963V266.537ZM-44.5963 239.883H-70.9662V213.513H-44.5963V239.883ZM-44.5963 213.23H-70.9662V186.86H-44.5963V213.23ZM-44.5963 186.576H-70.9662V160.206H-44.5963V186.576ZM-44.5963 159.922H-70.9662V133.552H-44.5963V159.922ZM-44.5963 133.268H-70.9662V106.899H-44.5963V133.268ZM-44.5963 106.615H-70.9662V80.2449H-44.5963V106.615ZM-44.5963 79.9611H-70.9662V53.5912H-44.5963V79.9611ZM-44.5963 53.3074H-70.9662V26.9375H-44.5963V53.3074ZM-44.5963 26.6537H-70.9662V0.283791H-44.5963V26.6537ZM-17.9426 559.716H-44.3125V533.346H-17.9426V559.716ZM-17.9426 533.062H-44.3125V506.693H-17.9426V533.062ZM-17.9426 506.409H-44.3125V480.096H-17.9426V506.409ZM-17.9426 479.755H-44.3125V453.385H-17.9426V479.755ZM-17.9426 453.101H-44.3125V426.743H-17.9426V453.101ZM-17.9426 426.448H-44.3125V400.078H-17.9426V426.448ZM-17.9426 399.794H-44.3125V373.39H-17.9426V399.794ZM-17.9426 373.14H-44.3125V346.77H-17.9426V373.14ZM-17.9426 346.487H-44.3125V320.128H-17.9426V346.487ZM-17.9426 319.844H-44.3125V293.474H-17.9426V319.844ZM-17.9426 293.191H-44.3125V266.821H-17.9426V293.191ZM-17.9426 266.537H-44.3125V240.167H-17.9426V266.537ZM-17.9426 239.883H-44.3125V213.513H-17.9426V239.883ZM-17.9426 213.23H-44.3125V186.86H-17.9426V213.23ZM-17.9426 186.576H-44.3125V160.206H-17.9426V186.576ZM-17.9426 159.922H-44.3125V133.552H-17.9426V159.922ZM-17.9426 133.268H-44.3125V106.899H-17.9426V133.268ZM-17.9426 106.615H-44.3125V80.2449H-17.9426V106.615ZM-17.9426 79.9611H-44.3125V53.5912H-17.9426V79.9611ZM-17.9426 53.3074H-44.3125V26.9375H-17.9426V53.3074ZM-17.9426 26.6537H-44.3125V0.283791H-17.9426V26.6537ZM8.71108 559.716H-17.6588V533.346H8.71108V559.716ZM8.71108 533.062H-17.6588V506.693H8.71108V533.062ZM8.71108 506.409H-17.6588V480.096H8.71108V506.409ZM8.71108 479.755H-17.6588V453.385H8.71108V479.755ZM8.71108 453.101H-17.6588V426.743H8.71108V453.101ZM8.71108 426.448H-17.6588V400.078H8.71108V426.448ZM8.71108 399.794H-17.6588V373.39H8.71108V399.794ZM8.71108 373.14H-17.6588V346.77H8.71108V373.14ZM8.71108 346.487H-17.6588V320.128H8.71108V346.487ZM8.71108 319.844H-17.6588V293.474H8.71108V319.844ZM8.71108 293.191H-17.6588V266.821H8.71108V293.191ZM8.71108 266.537H-17.6588V240.167H8.71108V266.537ZM8.71108 239.883H-17.6588V213.513H8.71108V239.883ZM8.71108 213.23H-17.6588V186.86H8.71108V213.23ZM8.71108 186.576H-17.6588V160.206H8.71108V186.576ZM8.71108 159.922H-17.6588V133.552H8.71108V159.922ZM8.71108 133.268H-17.6588V106.899H8.71108V133.268ZM8.71108 106.615H-17.6588V80.2449H8.71108V106.615ZM8.71108 79.9611H-17.6588V53.5912H8.71108V79.9611ZM8.71108 53.3074H-17.6588V26.9375H8.71108V53.3074ZM8.71108 26.6537H-17.6588V0.283791H8.71108V26.6537ZM35.3648 559.716H8.99487V533.346H35.3648V559.716ZM35.3648 533.062H8.99487V506.693H35.3648V533.062ZM35.3648 506.409H8.99487V480.096H35.3648V506.409ZM35.3648 479.755H8.99487V453.385H35.3648V479.755ZM35.3648 453.101H8.99487V426.743H35.3648V453.101ZM35.3648 426.448H8.99487V400.078H35.3648V426.448ZM35.3648 399.794H8.99487V373.39H35.3648V399.794ZM35.3648 373.14H8.99487V346.77H35.3648V373.14ZM35.3648 346.487H8.99487V320.128H35.3648V346.487ZM35.3648 319.844H8.99487V293.474H35.3648V319.844ZM35.3648 293.191H8.99487V266.821H35.3648V293.191ZM35.3648 266.537H8.99487V240.167H35.3648V266.537ZM35.3648 239.883H8.99487V213.513H35.3648V239.883ZM35.3648 213.23H8.99487V186.86H35.3648V213.23ZM35.3648 186.576H8.99487V160.206H35.3648V186.576ZM35.3648 159.922H8.99487V133.552H35.3648V159.922ZM35.3648 133.268H8.99487V106.899H35.3648V133.268ZM35.3648 106.615H8.99487V80.2449H35.3648V106.615ZM35.3648 79.9611H8.99487V53.5912H35.3648V79.9611ZM35.3648 53.3074H8.99487V26.9375H35.3648V53.3074ZM35.3648 26.6537H8.99487V0.283791H35.3648V26.6537ZM62.0185 559.716H35.6485V533.346H62.0185V559.716ZM62.0185 533.062H35.6485V506.693H62.0185V533.062ZM62.0185 506.409H35.6485V480.096H62.0185V506.409ZM62.0185 479.755H35.6485V453.385H62.0185V479.755ZM62.0185 453.101H35.6485V426.743H62.0185V453.101ZM62.0185 426.448H35.6485V400.078H62.0185V426.448ZM62.0185 399.794H35.6485V373.39H62.0185V399.794ZM62.0185 373.14H35.6485V346.77H62.0185V373.14ZM62.0185 346.487H35.6485V320.128H62.0185V346.487ZM62.0185 319.844H35.6485V293.474H62.0185V319.844ZM62.0185 293.191H35.6485V266.821H62.0185V293.191ZM62.0185 266.537H35.6485V240.167H62.0185V266.537ZM62.0185 239.883H35.6485V213.513H62.0185V239.883ZM62.0185 213.23H35.6485V186.86H62.0185V213.23ZM62.0185 186.576H35.6485V160.206H62.0185V186.576ZM62.0185 159.922H35.6485V133.552H62.0185V159.922ZM62.0185 133.268H35.6485V106.899H62.0185V133.268ZM62.0185 106.615H35.6485V80.2449H62.0185V106.615ZM62.0185 79.9611H35.6485V53.5912H62.0185V79.9611ZM62.0185 53.3074H35.6485V26.9375H62.0185V53.3074ZM62.0185 26.6537H35.6485V0.283791H62.0185V26.6537ZM88.6722 559.716H62.3022V533.346H88.6722V559.716ZM88.6722 533.062H62.3022V506.693H88.6722V533.062ZM88.6722 506.409H62.3022V480.096H88.6722V506.409ZM88.6722 479.755H62.3022V453.385H88.6722V479.755ZM88.6722 453.101H62.3022V426.743H88.6722V453.101ZM88.6722 426.448H62.3022V400.078H88.6722V426.448ZM88.6722 399.794H62.3022V373.39H88.6722V399.794ZM88.6722 373.14H62.3022V346.77H88.6722V373.14ZM88.6722 346.487H62.3022V320.128H88.6722V346.487ZM88.6722 319.844H62.3022V293.474H88.6722V319.844ZM88.6722 293.191H62.3022V266.821H88.6722V293.191ZM88.6722 266.537H62.3022V240.167H88.6722V266.537ZM88.6722 239.883H62.3022V213.513H88.6722V239.883ZM88.6722 213.23H62.3022V186.86H88.6722V213.23ZM88.6722 186.576H62.3022V160.206H88.6722V186.576ZM88.6722 159.922H62.3022V133.552H88.6722V159.922ZM88.6722 133.268H62.3022V106.899H88.6722V133.268ZM88.6722 106.615H62.3022V80.2449H88.6722V106.615ZM88.6722 79.9611H62.3022V53.5912H88.6722V79.9611ZM88.6722 53.3074H62.3022V26.9375H88.6722V53.3074ZM88.6722 26.6537H62.3022V0.283791H88.6722V26.6537ZM115.326 559.716H88.9446V533.346H115.315L115.326 559.716ZM115.326 533.062H88.9446V506.693H115.315L115.326 533.062ZM115.326 506.409H88.9446V480.096H115.315L115.326 506.409ZM115.326 479.755H88.9446V453.385H115.315L115.326 479.755ZM115.326 453.101H88.9446V426.743H115.315L115.326 453.101ZM115.326 426.448H88.9446V400.078H115.315L115.326 426.448ZM115.326 399.794H88.9446V373.39H115.315L115.326 399.794ZM115.326 373.14H88.9446V346.77H115.315L115.326 373.14ZM115.326 346.487H88.9446V320.128H115.315L115.326 346.487ZM115.326 319.844H88.9446V293.474H115.315L115.326 319.844ZM115.326 293.191H88.9446V266.821H115.315L115.326 293.191ZM115.326 266.537H88.9446V240.167H115.315L115.326 266.537ZM115.326 239.883H88.9446V213.513H115.315L115.326 239.883ZM115.326 213.23H88.9446V186.86H115.315L115.326 213.23ZM115.326 186.576H88.9446V160.206H115.315L115.326 186.576ZM115.326 159.922H88.9446V133.552H115.315L115.326 159.922ZM115.326 133.268H88.9446V106.899H115.315L115.326 133.268ZM115.326 106.615H88.9446V80.2449H115.315L115.326 106.615ZM115.326 79.9611H88.9446V53.5912H115.315L115.326 79.9611ZM115.326 53.3074H88.9446V26.9375H115.315L115.326 53.3074ZM115.326 26.6537H88.9446V0.283791H115.315L115.326 26.6537ZM141.98 559.716H115.61V533.346H141.98V559.716ZM141.98 533.062H115.61V506.693H141.98V533.062ZM141.98 506.409H115.61V480.096H141.98V506.409ZM141.98 479.755H115.61V453.385H141.98V479.755ZM141.98 453.101H115.61V426.743H141.98V453.101ZM141.98 426.448H115.61V400.078H141.98V426.448ZM141.98 399.794H115.61V373.39H141.98V399.794ZM141.98 373.14H115.61V346.77H141.98V373.14ZM141.98 346.487H115.61V320.128H141.98V346.487ZM141.98 319.844H115.61V293.474H141.98V319.844ZM141.98 293.191H115.61V266.821H141.98V293.191ZM141.98 266.537H115.61V240.167H141.98V266.537ZM141.98 239.883H115.61V213.513H141.98V239.883ZM141.98 213.23H115.61V186.86H141.98V213.23ZM141.98 186.576H115.61V160.206H141.98V186.576ZM141.98 159.922H115.61V133.552H141.98V159.922ZM141.98 133.268H115.61V106.899H141.98V133.268ZM141.98 106.615H115.61V80.2449H141.98V106.615ZM141.98 79.9611H115.61V53.5912H141.98V79.9611ZM141.98 53.3074H115.61V26.9375H141.98V53.3074ZM141.98 26.6537H115.61V0.283791H141.98V26.6537ZM168.622 559.716H142.297V533.346H168.656L168.622 559.716ZM168.622 533.062H142.297V506.693H168.656L168.622 533.062ZM168.622 506.409H142.297V480.096H168.656L168.622 506.409ZM168.622 479.755H142.297V453.385H168.656L168.622 479.755ZM168.622 453.101H142.297V426.743H168.656L168.622 453.101ZM168.622 426.448H142.297V400.078H168.656L168.622 426.448ZM168.622 399.794H142.297V373.39H168.656L168.622 399.794ZM168.622 373.14H142.297V346.77H168.656L168.622 373.14ZM168.622 346.487H142.297V320.128H168.656L168.622 346.487ZM168.622 319.844H142.297V293.474H168.656L168.622 319.844ZM168.622 293.191H142.297V266.821H168.656L168.622 293.191ZM168.622 266.537H142.297V240.167H168.656L168.622 266.537ZM168.622 239.883H142.297V213.513H168.656L168.622 239.883ZM168.622 213.23H142.297V186.86H168.656L168.622 213.23ZM168.622 186.576H142.297V160.206H168.656L168.622 186.576ZM168.622 159.922H142.297V133.552H168.656L168.622 159.922ZM168.622 133.268H142.297V106.899H168.656L168.622 133.268ZM168.622 106.615H142.297V80.2449H168.656L168.622 106.615ZM168.622 79.9611H142.297V53.5912H168.656L168.622 79.9611ZM168.622 53.3074H142.297V26.9375H168.656L168.622 53.3074ZM168.622 26.6537H142.297V0.283791H168.656L168.622 26.6537ZM195.276 559.716H168.906V533.346H195.276V559.716ZM195.276 533.062H168.906V506.693H195.276V533.062ZM195.276 506.409H168.906V480.096H195.276V506.409ZM195.276 479.755H168.906V453.385H195.276V479.755ZM195.276 453.101H168.906V426.743H195.276V453.101ZM195.276 426.448H168.906V400.078H195.276V426.448ZM195.276 399.794H168.906V373.39H195.276V399.794ZM195.276 373.14H168.906V346.77H195.276V373.14ZM195.276 346.487H168.906V320.128H195.276V346.487ZM195.276 319.844H168.906V293.474H195.276V319.844ZM195.276 293.191H168.906V266.821H195.276V293.191ZM195.276 266.537H168.906V240.167H195.276V266.537ZM195.276 239.883H168.906V213.513H195.276V239.883ZM195.276 213.23H168.906V186.86H195.276V213.23ZM195.276 186.576H168.906V160.206H195.276V186.576ZM195.276 159.922H168.906V133.552H195.276V159.922ZM195.276 133.268H168.906V106.899H195.276V133.268ZM195.276 106.615H168.906V80.2449H195.276V106.615ZM195.276 79.9611H168.906V53.5912H195.276V79.9611ZM195.276 53.3074H168.906V26.9375H195.276V53.3074ZM195.276 26.6537H168.906V0.283791H195.276V26.6537ZM221.929 559.716H195.559V533.346H221.929V559.716ZM221.929 533.062H195.559V506.693H221.929V533.062ZM221.929 506.409H195.559V480.096H221.929V506.409ZM221.929 479.755H195.559V453.385H221.929V479.755ZM221.929 453.101H195.559V426.743H221.929V453.101ZM221.929 426.448H195.559V400.078H221.929V426.448ZM221.929 399.794H195.559V373.39H221.929V399.794ZM221.929 373.14H195.559V346.77H221.929V373.14ZM221.929 346.487H195.559V320.128H221.929V346.487ZM221.929 319.844H195.559V293.474H221.929V319.844ZM221.929 293.191H195.559V266.821H221.929V293.191ZM221.929 266.537H195.559V240.167H221.929V266.537ZM221.929 239.883H195.559V213.513H221.929V239.883ZM221.929 213.23H195.559V186.86H221.929V213.23ZM221.929 186.576H195.559V160.206H221.929V186.576ZM221.929 159.922H195.559V133.552H221.929V159.922ZM221.929 133.268H195.559V106.899H221.929V133.268ZM221.929 106.615H195.559V80.2449H221.929V106.615ZM221.929 79.9611H195.559V53.5912H221.929V79.9611ZM221.929 53.3074H195.559V26.9375H221.929V53.3074ZM221.929 26.6537H195.559V0.283791H221.929V26.6537ZM248.583 559.716H222.213V533.346H248.583V559.716ZM248.583 533.062H222.213V506.693H248.583V533.062ZM248.583 506.409H222.213V480.096H248.583V506.409ZM248.583 479.755H222.213V453.385H248.583V479.755ZM248.583 453.101H222.213V426.743H248.583V453.101ZM248.583 426.448H222.213V400.078H248.583V426.448ZM248.583 399.794H222.213V373.39H248.583V399.794ZM248.583 373.14H222.213V346.77H248.583V373.14ZM248.583 346.487H222.213V320.128H248.583V346.487ZM248.583 319.844H222.213V293.474H248.583V319.844ZM248.583 293.191H222.213V266.821H248.583V293.191ZM248.583 266.537H222.213V240.167H248.583V266.537ZM248.583 239.883H222.213V213.513H248.583V239.883ZM248.583 213.23H222.213V186.86H248.583V213.23ZM248.583 186.576H222.213V160.206H248.583V186.576ZM248.583 159.922H222.213V133.552H248.583V159.922ZM248.583 133.268H222.213V106.899H248.583V133.268ZM248.583 106.615H222.213V80.2449H248.583V106.615ZM248.583 79.9611H222.213V53.5912H248.583V79.9611ZM248.583 53.3074H222.213V26.9375H248.583V53.3074ZM248.583 26.6537H222.213V0.283791H248.583V26.6537ZM275.237 559.716H248.867V533.346H275.237V559.716ZM275.237 533.062H248.867V506.693H275.237V533.062ZM275.237 506.409H248.867V480.096H275.237V506.409ZM275.237 479.755H248.867V453.385H275.237V479.755ZM275.237 453.101H248.867V426.743H275.237V453.101ZM275.237 426.448H248.867V400.078H275.237V426.448ZM275.237 399.794H248.867V373.39H275.237V399.794ZM275.237 373.14H248.867V346.77H275.237V373.14ZM275.237 346.487H248.867V320.128H275.237V346.487ZM275.237 319.844H248.867V293.474H275.237V319.844ZM275.237 293.191H248.867V266.821H275.237V293.191ZM275.237 266.537H248.867V240.167H275.237V266.537ZM275.237 239.883H248.867V213.513H275.237V239.883ZM275.237 213.23H248.867V186.86H275.237V213.23ZM275.237 186.576H248.867V160.206H275.237V186.576ZM275.237 159.922H248.867V133.552H275.237V159.922ZM275.237 133.268H248.867V106.899H275.237V133.268ZM275.237 106.615H248.867V80.2449H275.237V106.615ZM275.237 79.9611H248.867V53.5912H275.237V79.9611ZM275.237 53.3074H248.867V26.9375H275.237V53.3074ZM275.237 26.6537H248.867V0.283791H275.237V26.6537ZM301.89 559.716H275.52V533.346H301.89V559.716ZM301.89 533.062H275.52V506.693H301.89V533.062ZM301.89 506.409H275.52V480.096H301.89V506.409ZM301.89 479.755H275.52V453.385H301.89V479.755ZM301.89 453.101H275.52V426.743H301.89V453.101ZM301.89 426.448H275.52V400.078H301.89V426.448ZM301.89 399.794H275.52V373.39H301.89V399.794ZM301.89 373.14H275.52V346.77H301.89V373.14ZM301.89 346.487H275.52V320.128H301.89V346.487ZM301.89 319.844H275.52V293.474H301.89V319.844ZM301.89 293.191H275.52V266.821H301.89V293.191ZM301.89 266.537H275.52V240.167H301.89V266.537ZM301.89 239.883H275.52V213.513H301.89V239.883ZM301.89 213.23H275.52V186.86H301.89V213.23ZM301.89 186.576H275.52V160.206H301.89V186.576ZM301.89 159.922H275.52V133.552H301.89V159.922ZM301.89 133.268H275.52V106.899H301.89V133.268ZM301.89 106.615H275.52V80.2449H301.89V106.615ZM301.89 79.9611H275.52V53.5912H301.89V79.9611ZM301.89 53.3074H275.52V26.9375H301.89V53.3074ZM301.89 26.6537H275.52V0.283791H301.89V26.6537ZM328.544 559.716H302.174V533.346H328.544V559.716ZM328.544 533.062H302.174V506.693H328.544V533.062ZM328.544 506.409H302.174V480.096H328.544V506.409ZM328.544 479.755H302.174V453.385H328.544V479.755ZM328.544 453.101H302.174V426.743H328.544V453.101ZM328.544 426.448H302.174V400.078H328.544V426.448ZM328.544 399.794H302.174V373.39H328.544V399.794ZM328.544 373.14H302.174V346.77H328.544V373.14ZM328.544 346.487H302.174V320.128H328.544V346.487ZM328.544 319.844H302.174V293.474H328.544V319.844ZM328.544 293.191H302.174V266.821H328.544V293.191ZM328.544 266.537H302.174V240.167H328.544V266.537ZM328.544 239.883H302.174V213.513H328.544V239.883ZM328.544 213.23H302.174V186.86H328.544V213.23ZM328.544 186.576H302.174V160.206H328.544V186.576ZM328.544 159.922H302.174V133.552H328.544V159.922ZM328.544 133.268H302.174V106.899H328.544V133.268ZM328.544 106.615H302.174V80.2449H328.544V106.615ZM328.544 79.9611H302.174V53.5912H328.544V79.9611ZM328.544 53.3074H302.174V26.9375H328.544V53.3074ZM328.544 26.6537H302.174V0.283791H328.544V26.6537ZM355.198 559.716H328.828V533.346H355.198V559.716ZM355.198 533.062H328.828V506.693H355.198V533.062ZM355.198 506.409H328.828V480.096H355.198V506.409ZM355.198 479.755H328.828V453.385H355.198V479.755ZM355.198 453.101H328.828V426.743H355.198V453.101ZM355.198 426.448H328.828V400.078H355.198V426.448ZM355.198 399.794H328.828V373.39H355.198V399.794ZM355.198 373.14H328.828V346.77H355.198V373.14ZM355.198 346.487H328.828V320.128H355.198V346.487ZM355.198 319.844H328.828V293.474H355.198V319.844ZM355.198 293.191H328.828V266.821H355.198V293.191ZM355.198 266.537H328.828V240.167H355.198V266.537ZM355.198 239.883H328.828V213.513H355.198V239.883ZM355.198 213.23H328.828V186.86H355.198V213.23ZM355.198 186.576H328.828V160.206H355.198V186.576ZM355.198 159.922H328.828V133.552H355.198V159.922ZM355.198 133.268H328.828V106.899H355.198V133.268ZM355.198 106.615H328.828V80.2449H355.198V106.615ZM355.198 79.9611H328.828V53.5912H355.198V79.9611ZM355.198 53.3074H328.828V26.9375H355.198V53.3074ZM355.198 26.6537H328.828V0.283791H355.198V26.6537ZM381.817 559.716H355.482V533.346H381.817V559.716ZM381.817 533.062H355.482V506.693H381.817V533.062ZM381.817 506.409H355.482V480.096H381.817V506.409ZM381.817 479.755H355.482V453.385H381.817V479.755ZM381.817 453.101H355.482V426.743H381.817V453.101ZM381.817 426.448H355.482V400.078H381.817V426.448ZM381.817 399.794H355.482V373.39H381.817V399.794ZM381.817 373.14H355.482V346.77H381.817V373.14ZM381.817 346.487H355.482V320.128H381.817V346.487ZM381.817 319.844H355.482V293.474H381.817V319.844ZM381.817 293.191H355.482V266.821H381.817V293.191ZM381.817 266.537H355.482V240.167H381.817V266.537ZM381.817 239.883H355.482V213.513H381.817V239.883ZM381.817 213.23H355.482V186.86H381.817V213.23ZM381.817 186.576H355.482V160.206H381.817V186.576ZM381.817 159.979H355.482V133.552H381.817V159.979ZM381.817 133.325H355.482V106.899H381.817V133.325ZM381.817 106.626H355.482V80.2449H381.817V106.626ZM381.817 79.9724H355.482V53.5912H381.817V79.9724ZM381.817 53.2733H355.482V26.9375H381.817V53.2733ZM381.817 26.6196H355.482V0.283791H381.817V26.6196ZM408.471 559.682H382.135V533.346H408.505L408.471 559.682ZM408.471 533.028H382.135V506.693H408.505L408.471 533.028ZM408.471 506.375H382.135V480.096H408.505L408.471 506.375ZM408.471 479.721H382.135V453.385H408.505L408.471 479.721ZM408.471 453.067H382.135V426.743H408.505L408.471 453.067ZM408.471 426.414H382.135V400.078H408.505L408.471 426.414ZM408.471 399.76H382.135V373.39H408.505L408.471 399.76ZM408.471 373.106H382.135V346.77H408.505L408.471 373.106ZM408.471 346.453H382.135V320.128H408.505L408.471 346.453ZM408.471 319.81H382.135V293.474H408.505L408.471 319.81ZM408.471 293.157H382.135V266.821H408.505L408.471 293.157ZM408.471 266.503H382.135V240.167H408.505L408.471 266.503ZM408.471 239.849H382.135V213.513H408.505L408.471 239.849ZM408.471 213.195H382.135V186.86H408.505L408.471 213.195ZM408.471 186.542H382.135V160.206H408.505L408.471 186.542ZM408.471 159.888H382.135V133.552H408.505L408.471 159.888ZM408.471 133.234H382.135V106.899H408.505L408.471 133.234ZM408.471 106.581H382.135V80.2449H408.505L408.471 106.581ZM408.471 79.927H382.135V53.5912H408.505L408.471 79.927ZM408.471 53.2733H382.135V26.9375H408.505L408.471 53.2733ZM408.471 26.6196H382.135V0.283791H408.505L408.471 26.6196ZM435.17 559.716H408.789V533.346H435.17V559.716ZM435.17 533.062H408.789V506.693H435.17V533.062ZM435.17 506.409H408.789V480.096H435.17V506.409ZM435.17 479.755H408.789V453.385H435.17V479.755ZM435.17 453.101H408.789V426.743H435.17V453.101ZM435.17 426.448H408.789V400.078H435.17V426.448ZM435.17 399.794H408.789V373.39H435.17V399.794ZM435.17 373.14H408.789V346.77H435.17V373.14ZM435.17 346.487H408.789V320.128H435.17V346.487ZM435.17 319.844H408.789V293.474H435.17V319.844ZM435.17 293.191H408.789V266.821H435.17V293.191ZM435.17 266.537H408.789V240.167H435.17V266.537ZM435.17 239.883H408.789V213.513H435.17V239.883ZM435.17 213.23H408.789V186.86H435.17V213.23ZM435.17 186.576H408.789V160.206H435.17V186.576ZM435.17 159.979H408.789V133.552H435.17V159.979ZM435.17 133.325H408.789V106.899H435.17V133.325ZM435.17 106.626H408.789V80.2449H435.17V106.626ZM435.17 79.9724H408.789V53.5912H435.17V79.9724ZM435.17 53.2733H408.789V26.9375H435.17V53.2733ZM435.17 26.6196H408.789V0.283791H435.17V26.6196ZM461.824 559.682H435.443V533.346H461.812L461.824 559.682ZM461.824 533.028H435.443V506.693H461.812L461.824 533.028ZM461.824 506.375H435.443V480.096H461.812L461.824 506.375ZM461.824 479.721H435.443V453.385H461.812L461.824 479.721ZM461.824 453.067H435.443V426.743H461.812L461.824 453.067ZM461.824 426.414H435.443V400.078H461.812L461.824 426.414ZM461.824 399.76H435.443V373.39H461.812L461.824 399.76ZM461.824 373.106H435.443V346.77H461.812L461.824 373.106ZM461.824 346.453H435.443V320.128H461.812L461.824 346.453ZM461.824 319.81H435.443V293.474H461.812L461.824 319.81ZM461.824 293.157H435.443V266.821H461.812L461.824 293.157ZM461.824 266.503H435.443V240.167H461.812L461.824 266.503ZM461.824 239.849H435.443V213.513H461.812L461.824 239.849ZM461.824 213.195H435.443V186.86H461.812L461.824 213.195ZM461.824 186.542H435.443V160.206H461.812L461.824 186.542ZM461.824 159.888H435.443V133.552H461.812L461.824 159.888ZM461.824 133.234H435.443V106.899H461.812L461.824 133.234ZM461.824 106.581H435.443V80.2449H461.812L461.824 106.581ZM461.824 79.927H435.443V53.5912H461.812L461.824 79.927ZM461.824 53.2733H435.443V26.9375H461.812L461.824 53.2733ZM461.824 26.6196H435.443V0.283791H461.812L461.824 26.6196ZM488.523 559.716H462.096V533.346H488.523V559.716ZM488.523 533.062H462.096V506.693H488.523V533.062ZM488.523 506.409H462.096V480.096H488.523V506.409ZM488.523 479.755H462.096V453.385H488.523V479.755ZM488.523 453.101H462.096V426.743H488.523V453.101ZM488.523 426.448H462.096V400.078H488.523V426.448ZM488.523 399.794H462.096V373.39H488.523V399.794ZM488.523 373.14H462.096V346.77H488.523V373.14ZM488.523 346.487H462.096V320.128H488.523V346.487ZM488.523 319.844H462.096V293.474H488.523V319.844ZM488.523 293.191H462.096V266.821H488.523V293.191ZM488.523 266.537H462.096V240.167H488.523V266.537ZM488.523 239.883H462.096V213.513H488.523V239.883ZM488.523 213.23H462.096V186.86H488.523V213.23ZM488.523 186.576H462.096V160.206H488.523V186.576ZM488.523 159.979H462.096V133.552H488.523V159.979ZM488.523 133.325H462.096V106.899H488.523V133.325ZM488.523 106.626H462.096V80.2449H488.523V106.626ZM488.523 79.9724H462.096V53.5912H488.523V79.9724ZM488.523 53.2733H462.096V26.9375H488.523V53.2733ZM488.523 26.6196H462.096V0.283791H488.523V26.6196Z" fill="url(#paint1_radial_10_2)"/>
<g filter="url(#filter0_d_10_2)">
<path d="M700.6 212C763.446 274.792 763.497 376.634 700.718 439.485C637.939 502.336 536.106 502.386 473.26 439.602C410.414 376.818 308.581 376.868 245.802 439.719C183.023 502.57 183.074 604.436 245.911 667.229" stroke="#FFFFE0" stroke-width="0.25" stroke-miterlimit="10" shape-rendering="crispEdges"/>
</g>
<defs>
<filter id="filter0_d_10_2" x="185.625" y="198.912" width="575.268" height="481.406" filterUnits="userSpaceOnUse" color-interpolation-filters="sRGB">
<feFlood flood-opacity="0" result="BackgroundImageFix"/>
<feColorMatrix in="SourceAlpha" type="matrix" values="0 0 0 0 0 0 0 0 0 0 0 0 0 0 0 0 0 0 127 0" result="hardAlpha"/>
<feOffset/>
<feGaussianBlur stdDeviation="6.5"/>
<feComposite in2="hardAlpha" operator="out"/>
<feColorMatrix type="matrix" values="0 0 0 0 1 0 0 0 0 1 0 0 0 0 1 0 0 0 1 0"/>
<feBlend mode="normal" in2="BackgroundImageFix" result="effect1_dropShadow_10_2"/>
<feBlend mode="normal" in="SourceGraphic" in2="effect1_dropShadow_10_2" result="shape"/>
</filter>
<radialGradient id="paint0_radial_10_2" cx="0" cy="0" r="1" gradientUnits="userSpaceOnUse" gradientTransform="translate(527.75 213) rotate(130.643) scale(297.846)">
<stop stop-color="#5DD334"/>
<stop offset="0.71875" stop-color="#00FFE0" stop-opacity="0"/>
</radialGradient>
<radialGradient id="paint1_radial_10_2" cx="0" cy="0" r="1" gradientUnits="userSpaceOnUse" gradientTransform="translate(208.75 280) scale(280)">
<stop stop-color="#FFFFE0"/>
<stop offset="1" stop-color="#FFFFE0" stop-opacity="0"/>
</radialGradient>
</defs>
</svg>
