<svg width="225" height="285" viewBox="0 0 225 285" fill="none" xmlns="http://www.w3.org/2000/svg">
<path d="M67.9842 200.968C44.7971 200.968 26.0003 182.171 26.0003 158.984C26.0003 135.797 44.7971 117 67.9842 117C91.1712 117 109.968 135.797 109.968 158.984C109.968 182.171 91.1712 200.968 67.9842 200.968Z" fill="url(#paint0_radial_993_2148)"/>
<path opacity="0.5" d="M224.69 0V184.4H40.2907V0H224.69ZM215.914 184.306H224.597V175.623H215.914V184.306ZM215.914 175.53H224.597V166.846H215.914V175.53ZM215.914 166.753H224.597V158.088H215.914V166.753ZM215.914 157.976H224.597V149.293H215.914V157.976ZM215.914 149.2H224.597V140.52H215.914V149.2ZM215.914 140.423H224.597V131.74H215.914V140.423ZM215.914 131.646H224.597V122.952H215.914V131.646ZM215.914 122.87H224.597V114.186H215.914V122.87ZM215.914 114.093H224.597V105.413H215.914V114.093ZM215.914 105.32H224.597V96.6368H215.914V105.32ZM215.914 96.5433H224.597V87.8601H215.914V96.5433ZM215.914 87.7666H224.597V79.0834H215.914V87.7666ZM215.914 78.99H224.597V70.3068H215.914V78.99ZM215.914 70.2133H224.597V61.5301H215.914V70.2133ZM215.914 61.4367H224.597V52.7534H215.914V61.4367ZM215.914 52.66H224.597V43.9768H215.914V52.66ZM215.914 43.8833H224.597V35.2001H215.914V43.8833ZM215.914 35.1067H224.597V26.4234H215.914V35.1067ZM215.914 26.33H224.597V17.6468H215.914V26.33ZM215.914 17.5533H224.597V8.87012H215.914V17.5533ZM215.914 8.77667H224.597V0.0934483H215.914V8.77667ZM207.137 184.306H215.82V175.623H207.137V184.306ZM207.137 175.53H215.82V166.846H207.137V175.53ZM207.137 166.753H215.82V158.088H207.137V166.753ZM207.137 157.976H215.82V149.293H207.137V157.976ZM207.137 149.2H215.82V140.52H207.137V149.2ZM207.137 140.423H215.82V131.74H207.137V140.423ZM207.137 131.646H215.82V122.952H207.137V131.646ZM207.137 122.87H215.82V114.186H207.137V122.87ZM207.137 114.093H215.82V105.413H207.137V114.093ZM207.137 105.32H215.82V96.6368H207.137V105.32ZM207.137 96.5433H215.82V87.8601H207.137V96.5433ZM207.137 87.7666H215.82V79.0834H207.137V87.7666ZM207.137 78.99H215.82V70.3068H207.137V78.99ZM207.137 70.2133H215.82V61.5301H207.137V70.2133ZM207.137 61.4367H215.82V52.7534H207.137V61.4367ZM207.137 52.66H215.82V43.9768H207.137V52.66ZM207.137 43.8833H215.82V35.2001H207.137V43.8833ZM207.137 35.1067H215.82V26.4234H207.137V35.1067ZM207.137 26.33H215.82V17.6468H207.137V26.33ZM207.137 17.5533H215.82V8.87012H207.137V17.5533ZM207.137 8.77667H215.82V0.0934483H207.137V8.77667ZM198.36 184.306H207.044V175.623H198.36V184.306ZM198.36 175.53H207.044V166.846H198.36V175.53ZM198.36 166.753H207.044V158.088H198.36V166.753ZM198.36 157.976H207.044V149.293H198.36V157.976ZM198.36 149.2H207.044V140.52H198.36V149.2ZM198.36 140.423H207.044V131.74H198.36V140.423ZM198.36 131.646H207.044V122.952H198.36V131.646ZM198.36 122.87H207.044V114.186H198.36V122.87ZM198.36 114.093H207.044V105.413H198.36V114.093ZM198.36 105.32H207.044V96.6368H198.36V105.32ZM198.36 96.5433H207.044V87.8601H198.36V96.5433ZM198.36 87.7666H207.044V79.0834H198.36V87.7666ZM198.36 78.99H207.044V70.3068H198.36V78.99ZM198.36 70.2133H207.044V61.5301H198.36V70.2133ZM198.36 61.4367H207.044V52.7534H198.36V61.4367ZM198.36 52.66H207.044V43.9768H198.36V52.66ZM198.36 43.8833H207.044V35.2001H198.36V43.8833ZM198.36 35.1067H207.044V26.4234H198.36V35.1067ZM198.36 26.33H207.044V17.6468H198.36V26.33ZM198.36 17.5533H207.044V8.87012H198.36V17.5533ZM198.36 8.77667H207.044V0.0934483H198.36V8.77667ZM189.584 184.306H198.267V175.623H189.584V184.306ZM189.584 175.53H198.267V166.846H189.584V175.53ZM189.584 166.753H198.267V158.088H189.584V166.753ZM189.584 157.976H198.267V149.293H189.584V157.976ZM189.584 149.2H198.267V140.52H189.584V149.2ZM189.584 140.423H198.267V131.74H189.584V140.423ZM189.584 131.646H198.267V122.952H189.584V131.646ZM189.584 122.87H198.267V114.186H189.584V122.87ZM189.584 114.093H198.267V105.413H189.584V114.093ZM189.584 105.32H198.267V96.6368H189.584V105.32ZM189.584 96.5433H198.267V87.8601H189.584V96.5433ZM189.584 87.7666H198.267V79.0834H189.584V87.7666ZM189.584 78.99H198.267V70.3068H189.584V78.99ZM189.584 70.2133H198.267V61.5301H189.584V70.2133ZM189.584 61.4367H198.267V52.7534H189.584V61.4367ZM189.584 52.66H198.267V43.9768H189.584V52.66ZM189.584 43.8833H198.267V35.2001H189.584V43.8833ZM189.584 35.1067H198.267V26.4234H189.584V35.1067ZM189.584 26.33H198.267V17.6468H189.584V26.33ZM189.584 17.5533H198.267V8.87012H189.584V17.5533ZM189.584 8.77667H198.267V0.0934483H189.584V8.77667ZM180.807 184.306H189.49V175.623H180.807V184.306ZM180.807 175.53H189.49V166.846H180.807V175.53ZM180.807 166.753H189.49V158.088H180.807V166.753ZM180.807 157.976H189.49V149.293H180.807V157.976ZM180.807 149.2H189.49V140.52H180.807V149.2ZM180.807 140.423H189.49V131.74H180.807V140.423ZM180.807 131.646H189.49V122.952H180.807V131.646ZM180.807 122.87H189.49V114.186H180.807V122.87ZM180.807 114.093H189.49V105.413H180.807V114.093ZM180.807 105.32H189.49V96.6368H180.807V105.32ZM180.807 96.5433H189.49V87.8601H180.807V96.5433ZM180.807 87.7666H189.49V79.0834H180.807V87.7666ZM180.807 78.99H189.49V70.3068H180.807V78.99ZM180.807 70.2133H189.49V61.5301H180.807V70.2133ZM180.807 61.4367H189.49V52.7534H180.807V61.4367ZM180.807 52.66H189.49V43.9768H180.807V52.66ZM180.807 43.8833H189.49V35.2001H180.807V43.8833ZM180.807 35.1067H189.49V26.4234H180.807V35.1067ZM180.807 26.33H189.49V17.6468H180.807V26.33ZM180.807 17.5533H189.49V8.87012H180.807V17.5533ZM180.807 8.77667H189.49V0.0934483H180.807V8.77667ZM172.03 184.306H180.714V175.623H172.03V184.306ZM172.03 175.53H180.714V166.846H172.03V175.53ZM172.03 166.753H180.714V158.088H172.03V166.753ZM172.03 157.976H180.714V149.293H172.03V157.976ZM172.03 149.2H180.714V140.52H172.03V149.2ZM172.03 140.423H180.714V131.74H172.03V140.423ZM172.03 131.646H180.714V122.952H172.03V131.646ZM172.03 122.87H180.714V114.186H172.03V122.87ZM172.03 114.093H180.714V105.413H172.03V114.093ZM172.03 105.32H180.714V96.6368H172.03V105.32ZM172.03 96.5433H180.714V87.8601H172.03V96.5433ZM172.03 87.7666H180.714V79.0834H172.03V87.7666ZM172.03 78.99H180.714V70.3068H172.03V78.99ZM172.03 70.2133H180.714V61.5301H172.03V70.2133ZM172.03 61.4367H180.714V52.7534H172.03V61.4367ZM172.03 52.66H180.714V43.9768H172.03V52.66ZM172.03 43.8833H180.714V35.2001H172.03V43.8833ZM172.03 35.1067H180.714V26.4234H172.03V35.1067ZM172.03 26.33H180.714V17.6468H172.03V26.33ZM172.03 17.5533H180.714V8.87012H172.03V17.5533ZM172.03 8.77667H180.714V0.0934483H172.03V8.77667ZM163.254 184.306H171.941V175.623H163.258L163.254 184.306ZM163.254 175.53H171.941V166.846H163.258L163.254 175.53ZM163.254 166.753H171.941V158.088H163.258L163.254 166.753ZM163.254 157.976H171.941V149.293H163.258L163.254 157.976ZM163.254 149.2H171.941V140.52H163.258L163.254 149.2ZM163.254 140.423H171.941V131.74H163.258L163.254 140.423ZM163.254 131.646H171.941V122.952H163.258L163.254 131.646ZM163.254 122.87H171.941V114.186H163.258L163.254 122.87ZM163.254 114.093H171.941V105.413H163.258L163.254 114.093ZM163.254 105.32H171.941V96.6368H163.258L163.254 105.32ZM163.254 96.5433H171.941V87.8601H163.258L163.254 96.5433ZM163.254 87.7666H171.941V79.0834H163.258L163.254 87.7666ZM163.254 78.99H171.941V70.3068H163.258L163.254 78.99ZM163.254 70.2133H171.941V61.5301H163.258L163.254 70.2133ZM163.254 61.4367H171.941V52.7534H163.258L163.254 61.4367ZM163.254 52.66H171.941V43.9768H163.258L163.254 52.66ZM163.254 43.8833H171.941V35.2001H163.258L163.254 43.8833ZM163.254 35.1067H171.941V26.4234H163.258L163.254 35.1067ZM163.254 26.33H171.941V17.6468H163.258L163.254 26.33ZM163.254 17.5533H171.941V8.87012H163.258L163.254 17.5533ZM163.254 8.77667H171.941V0.0934483H163.258L163.254 8.77667ZM154.477 184.306H163.16V175.623H154.477V184.306ZM154.477 175.53H163.16V166.846H154.477V175.53ZM154.477 166.753H163.16V158.088H154.477V166.753ZM154.477 157.976H163.16V149.293H154.477V157.976ZM154.477 149.2H163.16V140.52H154.477V149.2ZM154.477 140.423H163.16V131.74H154.477V140.423ZM154.477 131.646H163.16V122.952H154.477V131.646ZM154.477 122.87H163.16V114.186H154.477V122.87ZM154.477 114.093H163.16V105.413H154.477V114.093ZM154.477 105.32H163.16V96.6368H154.477V105.32ZM154.477 96.5433H163.16V87.8601H154.477V96.5433ZM154.477 87.7666H163.16V79.0834H154.477V87.7666ZM154.477 78.99H163.16V70.3068H154.477V78.99ZM154.477 70.2133H163.16V61.5301H154.477V70.2133ZM154.477 61.4367H163.16V52.7534H154.477V61.4367ZM154.477 52.66H163.16V43.9768H154.477V52.66ZM154.477 43.8833H163.16V35.2001H154.477V43.8833ZM154.477 35.1067H163.16V26.4234H154.477V35.1067ZM154.477 26.33H163.16V17.6468H154.477V26.33ZM154.477 17.5533H163.16V8.87012H154.477V17.5533ZM154.477 8.77667H163.16V0.0934483H154.477V8.77667ZM145.704 184.306H154.372V175.623H145.693L145.704 184.306ZM145.704 175.53H154.372V166.846H145.693L145.704 175.53ZM145.704 166.753H154.372V158.088H145.693L145.704 166.753ZM145.704 157.976H154.372V149.293H145.693L145.704 157.976ZM145.704 149.2H154.372V140.52H145.693L145.704 149.2ZM145.704 140.423H154.372V131.74H145.693L145.704 140.423ZM145.704 131.646H154.372V122.952H145.693L145.704 131.646ZM145.704 122.87H154.372V114.186H145.693L145.704 122.87ZM145.704 114.093H154.372V105.413H145.693L145.704 114.093ZM145.704 105.32H154.372V96.6368H145.693L145.704 105.32ZM145.704 96.5433H154.372V87.8601H145.693L145.704 96.5433ZM145.704 87.7666H154.372V79.0834H145.693L145.704 87.7666ZM145.704 78.99H154.372V70.3068H145.693L145.704 78.99ZM145.704 70.2133H154.372V61.5301H145.693L145.704 70.2133ZM145.704 61.4367H154.372V52.7534H145.693L145.704 61.4367ZM145.704 52.66H154.372V43.9768H145.693L145.704 52.66ZM145.704 43.8833H154.372V35.2001H145.693L145.704 43.8833ZM145.704 35.1067H154.372V26.4234H145.693L145.704 35.1067ZM145.704 26.33H154.372V17.6468H145.693L145.704 26.33ZM145.704 17.5533H154.372V8.87012H145.693L145.704 17.5533ZM145.704 8.77667H154.372V0.0934483H145.693L145.704 8.77667ZM136.928 184.306H145.611V175.623H136.928V184.306ZM136.928 175.53H145.611V166.846H136.928V175.53ZM136.928 166.753H145.611V158.088H136.928V166.753ZM136.928 157.976H145.611V149.293H136.928V157.976ZM136.928 149.2H145.611V140.52H136.928V149.2ZM136.928 140.423H145.611V131.74H136.928V140.423ZM136.928 131.646H145.611V122.952H136.928V131.646ZM136.928 122.87H145.611V114.186H136.928V122.87ZM136.928 114.093H145.611V105.413H136.928V114.093ZM136.928 105.32H145.611V96.6368H136.928V105.32ZM136.928 96.5433H145.611V87.8601H136.928V96.5433ZM136.928 87.7666H145.611V79.0834H136.928V87.7666ZM136.928 78.99H145.611V70.3068H136.928V78.99ZM136.928 70.2133H145.611V61.5301H136.928V70.2133ZM136.928 61.4367H145.611V52.7534H136.928V61.4367ZM136.928 52.66H145.611V43.9768H136.928V52.66ZM136.928 43.8833H145.611V35.2001H136.928V43.8833ZM136.928 35.1067H145.611V26.4234H136.928V35.1067ZM136.928 26.33H145.611V17.6468H136.928V26.33ZM136.928 17.5533H145.611V8.87012H136.928V17.5533ZM136.928 8.77667H145.611V0.0934483H136.928V8.77667ZM128.151 184.306H136.834V175.623H128.151V184.306ZM128.151 175.53H136.834V166.846H128.151V175.53ZM128.151 166.753H136.834V158.088H128.151V166.753ZM128.151 157.976H136.834V149.293H128.151V157.976ZM128.151 149.2H136.834V140.52H128.151V149.2ZM128.151 140.423H136.834V131.74H128.151V140.423ZM128.151 131.646H136.834V122.952H128.151V131.646ZM128.151 122.87H136.834V114.186H128.151V122.87ZM128.151 114.093H136.834V105.413H128.151V114.093ZM128.151 105.32H136.834V96.6368H128.151V105.32ZM128.151 96.5433H136.834V87.8601H128.151V96.5433ZM128.151 87.7666H136.834V79.0834H128.151V87.7666ZM128.151 78.99H136.834V70.3068H128.151V78.99ZM128.151 70.2133H136.834V61.5301H128.151V70.2133ZM128.151 61.4367H136.834V52.7534H128.151V61.4367ZM128.151 52.66H136.834V43.9768H128.151V52.66ZM128.151 43.8833H136.834V35.2001H128.151V43.8833ZM128.151 35.1067H136.834V26.4234H128.151V35.1067ZM128.151 26.33H136.834V17.6468H128.151V26.33ZM128.151 17.5533H136.834V8.87012H128.151V17.5533ZM128.151 8.77667H136.834V0.0934483H128.151V8.77667ZM119.374 184.306H128.057V175.623H119.374V184.306ZM119.374 175.53H128.057V166.846H119.374V175.53ZM119.374 166.753H128.057V158.088H119.374V166.753ZM119.374 157.976H128.057V149.293H119.374V157.976ZM119.374 149.2H128.057V140.52H119.374V149.2ZM119.374 140.423H128.057V131.74H119.374V140.423ZM119.374 131.646H128.057V122.952H119.374V131.646ZM119.374 122.87H128.057V114.186H119.374V122.87ZM119.374 114.093H128.057V105.413H119.374V114.093ZM119.374 105.32H128.057V96.6368H119.374V105.32ZM119.374 96.5433H128.057V87.8601H119.374V96.5433ZM119.374 87.7666H128.057V79.0834H119.374V87.7666ZM119.374 78.99H128.057V70.3068H119.374V78.99ZM119.374 70.2133H128.057V61.5301H119.374V70.2133ZM119.374 61.4367H128.057V52.7534H119.374V61.4367ZM119.374 52.66H128.057V43.9768H119.374V52.66ZM119.374 43.8833H128.057V35.2001H119.374V43.8833ZM119.374 35.1067H128.057V26.4234H119.374V35.1067ZM119.374 26.33H128.057V17.6468H119.374V26.33ZM119.374 17.5533H128.057V8.87012H119.374V17.5533ZM119.374 8.77667H128.057V0.0934483H119.374V8.77667ZM110.598 184.306H119.281V175.623H110.598V184.306ZM110.598 175.53H119.281V166.846H110.598V175.53ZM110.598 166.753H119.281V158.088H110.598V166.753ZM110.598 157.976H119.281V149.293H110.598V157.976ZM110.598 149.2H119.281V140.52H110.598V149.2ZM110.598 140.423H119.281V131.74H110.598V140.423ZM110.598 131.646H119.281V122.952H110.598V131.646ZM110.598 122.87H119.281V114.186H110.598V122.87ZM110.598 114.093H119.281V105.413H110.598V114.093ZM110.598 105.32H119.281V96.6368H110.598V105.32ZM110.598 96.5433H119.281V87.8601H110.598V96.5433ZM110.598 87.7666H119.281V79.0834H110.598V87.7666ZM110.598 78.99H119.281V70.3068H110.598V78.99ZM110.598 70.2133H119.281V61.5301H110.598V70.2133ZM110.598 61.4367H119.281V52.7534H110.598V61.4367ZM110.598 52.66H119.281V43.9768H110.598V52.66ZM110.598 43.8833H119.281V35.2001H110.598V43.8833ZM110.598 35.1067H119.281V26.4234H110.598V35.1067ZM110.598 26.33H119.281V17.6468H110.598V26.33ZM110.598 17.5533H119.281V8.87012H110.598V17.5533ZM110.598 8.77667H119.281V0.0934483H110.598V8.77667ZM101.821 184.306H110.504V175.623H101.821V184.306ZM101.821 175.53H110.504V166.846H101.821V175.53ZM101.821 166.753H110.504V158.088H101.821V166.753ZM101.821 157.976H110.504V149.293H101.821V157.976ZM101.821 149.2H110.504V140.52H101.821V149.2ZM101.821 140.423H110.504V131.74H101.821V140.423ZM101.821 131.646H110.504V122.952H101.821V131.646ZM101.821 122.87H110.504V114.186H101.821V122.87ZM101.821 114.093H110.504V105.413H101.821V114.093ZM101.821 105.32H110.504V96.6368H101.821V105.32ZM101.821 96.5433H110.504V87.8601H101.821V96.5433ZM101.821 87.7666H110.504V79.0834H101.821V87.7666ZM101.821 78.99H110.504V70.3068H101.821V78.99ZM101.821 70.2133H110.504V61.5301H101.821V70.2133ZM101.821 61.4367H110.504V52.7534H101.821V61.4367ZM101.821 52.66H110.504V43.9768H101.821V52.66ZM101.821 43.8833H110.504V35.2001H101.821V43.8833ZM101.821 35.1067H110.504V26.4234H101.821V35.1067ZM101.821 26.33H110.504V17.6468H101.821V26.33ZM101.821 17.5533H110.504V8.87012H101.821V17.5533ZM101.821 8.77667H110.504V0.0934483H101.821V8.77667ZM93.0442 184.306H101.727V175.623H93.0442V184.306ZM93.0442 175.53H101.727V166.846H93.0442V175.53ZM93.0442 166.753H101.727V158.088H93.0442V166.753ZM93.0442 157.976H101.727V149.293H93.0442V157.976ZM93.0442 149.2H101.727V140.52H93.0442V149.2ZM93.0442 140.423H101.727V131.74H93.0442V140.423ZM93.0442 131.646H101.727V122.952H93.0442V131.646ZM93.0442 122.87H101.727V114.186H93.0442V122.87ZM93.0442 114.093H101.727V105.413H93.0442V114.093ZM93.0442 105.32H101.727V96.6368H93.0442V105.32ZM93.0442 96.5433H101.727V87.8601H93.0442V96.5433ZM93.0442 87.7666H101.727V79.0834H93.0442V87.7666ZM93.0442 78.99H101.727V70.3068H93.0442V78.99ZM93.0442 70.2133H101.727V61.5301H93.0442V70.2133ZM93.0442 61.4367H101.727V52.7534H93.0442V61.4367ZM93.0442 52.66H101.727V43.9768H93.0442V52.66ZM93.0442 43.8833H101.727V35.2001H93.0442V43.8833ZM93.0442 35.1067H101.727V26.4234H93.0442V35.1067ZM93.0442 26.33H101.727V17.6468H93.0442V26.33ZM93.0442 17.5533H101.727V8.87012H93.0442V17.5533ZM93.0442 8.77667H101.727V0.0934483H93.0442V8.77667ZM84.2675 184.306H92.9507V175.623H84.2675V184.306ZM84.2675 175.53H92.9507V166.846H84.2675V175.53ZM84.2675 166.753H92.9507V158.088H84.2675V166.753ZM84.2675 157.976H92.9507V149.293H84.2675V157.976ZM84.2675 149.2H92.9507V140.52H84.2675V149.2ZM84.2675 140.423H92.9507V131.74H84.2675V140.423ZM84.2675 131.646H92.9507V122.952H84.2675V131.646ZM84.2675 122.87H92.9507V114.186H84.2675V122.87ZM84.2675 114.093H92.9507V105.413H84.2675V114.093ZM84.2675 105.32H92.9507V96.6368H84.2675V105.32ZM84.2675 96.5433H92.9507V87.8601H84.2675V96.5433ZM84.2675 87.7666H92.9507V79.0834H84.2675V87.7666ZM84.2675 78.99H92.9507V70.3068H84.2675V78.99ZM84.2675 70.2133H92.9507V61.5301H84.2675V70.2133ZM84.2675 61.4367H92.9507V52.7534H84.2675V61.4367ZM84.2675 52.66H92.9507V43.9768H84.2675V52.66ZM84.2675 43.8833H92.9507V35.2001H84.2675V43.8833ZM84.2675 35.1067H92.9507V26.4234H84.2675V35.1067ZM84.2675 26.33H92.9507V17.6468H84.2675V26.33ZM84.2675 17.5533H92.9507V8.87012H84.2675V17.5533ZM84.2675 8.77667H92.9507V0.0934483H84.2675V8.77667ZM75.5021 184.306H84.1741V175.623H75.5021V184.306ZM75.5021 175.53H84.1741V166.846H75.5021V175.53ZM75.5021 166.753H84.1741V158.088H75.5021V166.753ZM75.5021 157.976H84.1741V149.293H75.5021V157.976ZM75.5021 149.2H84.1741V140.52H75.5021V149.2ZM75.5021 140.423H84.1741V131.74H75.5021V140.423ZM75.5021 131.646H84.1741V122.952H75.5021V131.646ZM75.5021 122.87H84.1741V114.186H75.5021V122.87ZM75.5021 114.093H84.1741V105.413H75.5021V114.093ZM75.5021 105.32H84.1741V96.6368H75.5021V105.32ZM75.5021 96.5433H84.1741V87.8601H75.5021V96.5433ZM75.5021 87.7666H84.1741V79.0834H75.5021V87.7666ZM75.5021 78.99H84.1741V70.3068H75.5021V78.99ZM75.5021 70.2133H84.1741V61.5301H75.5021V70.2133ZM75.5021 61.4367H84.1741V52.7534H75.5021V61.4367ZM75.5021 52.6787H84.1741V43.9768H75.5021V52.6787ZM75.5021 43.902H84.1741V35.2001H75.5021V43.902ZM75.5021 35.1104H84.1741V26.4234H75.5021V35.1104ZM75.5021 26.3337H84.1741V17.6468H75.5021V26.3337ZM75.5021 17.5421H84.1741V8.87012H75.5021V17.5421ZM75.5021 8.76545H84.1741V0.0934483H75.5021V8.76545ZM66.7254 184.295H75.3974V175.623H66.7142L66.7254 184.295ZM66.7254 175.518H75.3974V166.846H66.7142L66.7254 175.518ZM66.7254 166.742H75.3974V158.088H66.7142L66.7254 166.742ZM66.7254 157.965H75.3974V149.293H66.7142L66.7254 157.965ZM66.7254 149.188H75.3974V140.52H66.7142L66.7254 149.188ZM66.7254 140.412H75.3974V131.74H66.7142L66.7254 140.412ZM66.7254 131.635H75.3974V122.952H66.7142L66.7254 131.635ZM66.7254 122.858H75.3974V114.186H66.7142L66.7254 122.858ZM66.7254 114.082H75.3974V105.413H66.7142L66.7254 114.082ZM66.7254 105.309H75.3974V96.6368H66.7142L66.7254 105.309ZM66.7254 96.5321H75.3974V87.8601H66.7142L66.7254 96.5321ZM66.7254 87.7554H75.3974V79.0834H66.7142L66.7254 87.7554ZM66.7254 78.9788H75.3974V70.3068H66.7142L66.7254 78.9788ZM66.7254 70.2021H75.3974V61.5301H66.7142L66.7254 70.2021ZM66.7254 61.4254H75.3974V52.7534H66.7142L66.7254 61.4254ZM66.7254 52.6488H75.3974V43.9768H66.7142L66.7254 52.6488ZM66.7254 43.8721H75.3974V35.2001H66.7142L66.7254 43.8721ZM66.7254 35.0955H75.3974V26.4234H66.7142L66.7254 35.0955ZM66.7254 26.3188H75.3974V17.6468H66.7142L66.7254 26.3188ZM66.7254 17.5421H75.3974V8.87012H66.7142L66.7254 17.5421ZM66.7254 8.76545H75.3974V0.0934483H66.7142L66.7254 8.76545ZM57.9338 184.306H66.6207V175.623H57.9338V184.306ZM57.9338 175.53H66.6207V166.846H57.9338V175.53ZM57.9338 166.753H66.6207V158.088H57.9338V166.753ZM57.9338 157.976H66.6207V149.293H57.9338V157.976ZM57.9338 149.2H66.6207V140.52H57.9338V149.2ZM57.9338 140.423H66.6207V131.74H57.9338V140.423ZM57.9338 131.646H66.6207V122.952H57.9338V131.646ZM57.9338 122.87H66.6207V114.186H57.9338V122.87ZM57.9338 114.093H66.6207V105.413H57.9338V114.093ZM57.9338 105.32H66.6207V96.6368H57.9338V105.32ZM57.9338 96.5433H66.6207V87.8601H57.9338V96.5433ZM57.9338 87.7666H66.6207V79.0834H57.9338V87.7666ZM57.9338 78.99H66.6207V70.3068H57.9338V78.99ZM57.9338 70.2133H66.6207V61.5301H57.9338V70.2133ZM57.9338 61.4367H66.6207V52.7534H57.9338V61.4367ZM57.9338 52.6787H66.6207V43.9768H57.9338V52.6787ZM57.9338 43.902H66.6207V35.2001H57.9338V43.902ZM57.9338 35.1104H66.6207V26.4234H57.9338V35.1104ZM57.9338 26.3337H66.6207V17.6468H57.9338V26.3337ZM57.9338 17.5421H66.6207V8.87012H57.9338V17.5421ZM57.9338 8.76545H66.6207V0.0934483H57.9338V8.76545ZM49.1571 184.295H57.8441V175.623H49.1609L49.1571 184.295ZM49.1571 175.518H57.8441V166.846H49.1609L49.1571 175.518ZM49.1571 166.742H57.8441V158.088H49.1609L49.1571 166.742ZM49.1571 157.965H57.8441V149.293H49.1609L49.1571 157.965ZM49.1571 149.188H57.8441V140.52H49.1609L49.1571 149.188ZM49.1571 140.412H57.8441V131.74H49.1609L49.1571 140.412ZM49.1571 131.635H57.8441V122.952H49.1609L49.1571 131.635ZM49.1571 122.858H57.8441V114.186H49.1609L49.1571 122.858ZM49.1571 114.082H57.8441V105.413H49.1609L49.1571 114.082ZM49.1571 105.309H57.8441V96.6368H49.1609L49.1571 105.309ZM49.1571 96.5321H57.8441V87.8601H49.1609L49.1571 96.5321ZM49.1571 87.7554H57.8441V79.0834H49.1609L49.1571 87.7554ZM49.1571 78.9788H57.8441V70.3068H49.1609L49.1571 78.9788ZM49.1571 70.2021H57.8441V61.5301H49.1609L49.1571 70.2021ZM49.1571 61.4254H57.8441V52.7534H49.1609L49.1571 61.4254ZM49.1571 52.6488H57.8441V43.9768H49.1609L49.1571 52.6488ZM49.1571 43.8721H57.8441V35.2001H49.1609L49.1571 43.8721ZM49.1571 35.0955H57.8441V26.4234H49.1609L49.1571 35.0955ZM49.1571 26.3188H57.8441V17.6468H49.1609L49.1571 26.3188ZM49.1571 17.5421H57.8441V8.87012H49.1609L49.1571 17.5421ZM49.1571 8.76545H57.8441V0.0934483H49.1609L49.1571 8.76545ZM40.3655 184.306H49.0674V175.623H40.3655V184.306ZM40.3655 175.53H49.0674V166.846H40.3655V175.53ZM40.3655 166.753H49.0674V158.088H40.3655V166.753ZM40.3655 157.976H49.0674V149.293H40.3655V157.976ZM40.3655 149.2H49.0674V140.52H40.3655V149.2ZM40.3655 140.423H49.0674V131.74H40.3655V140.423ZM40.3655 131.646H49.0674V122.952H40.3655V131.646ZM40.3655 122.87H49.0674V114.186H40.3655V122.87ZM40.3655 114.093H49.0674V105.413H40.3655V114.093ZM40.3655 105.32H49.0674V96.6368H40.3655V105.32ZM40.3655 96.5433H49.0674V87.8601H40.3655V96.5433ZM40.3655 87.7666H49.0674V79.0834H40.3655V87.7666ZM40.3655 78.99H49.0674V70.3068H40.3655V78.99ZM40.3655 70.2133H49.0674V61.5301H40.3655V70.2133ZM40.3655 61.4367H49.0674V52.7534H40.3655V61.4367ZM40.3655 52.6787H49.0674V43.9768H40.3655V52.6787ZM40.3655 43.902H49.0674V35.2001H40.3655V43.902ZM40.3655 35.1104H49.0674V26.4234H40.3655V35.1104ZM40.3655 26.3337H49.0674V17.6468H40.3655V26.3337ZM40.3655 17.5421H49.0674V8.87012H40.3655V17.5421ZM40.3655 8.76545H49.0674V0.0934483H40.3655V8.76545Z" fill="url(#paint1_radial_993_2148)"/>
<g filter="url(#filter0_d_993_2148)">
<path d="M-29.468 69.8086C-50.1623 90.4852 -50.1788 124.02 -29.5066 144.716C-8.83444 165.412 24.6976 165.428 45.3918 144.755C66.086 124.081 99.618 124.097 120.29 144.793C140.962 165.489 140.946 199.032 120.254 219.709" stroke="#FFFFE0" stroke-width="0.25" stroke-miterlimit="10" shape-rendering="crispEdges"/>
</g>
<path opacity="0.28" d="M90.3368 163.123L90.3702 163.156L90.4037 163.189L99.9752 172.76L100.009 172.793L100.042 172.827L109.614 182.397L109.647 182.432L109.68 182.466L116.379 189.163L116.279 189.255L109.584 182.562L109.551 182.528L109.517 182.495L99.9459 172.924L99.9125 172.891L99.8791 172.857L90.3062 163.287L90.2728 163.252L90.2393 163.219L88.3078 161.287L88.3997 161.187L90.3368 163.123Z" fill="#CDCDCD"/>
<path opacity="0.28" d="M89.4065 164.119L89.4399 164.152L99.0114 173.723L99.0448 173.756L99.0782 173.79L108.65 183.359L108.683 183.392L108.717 183.426L115.355 190.064L115.249 190.15L108.62 183.522L108.587 183.488L108.554 183.455L98.9821 173.89L98.9487 173.857L98.9153 173.823L89.3396 164.25L89.3062 164.216L89.2728 164.182L87.4066 162.316C87.4359 162.281 87.4637 162.245 87.493 162.208L89.373 164.086L89.4065 164.119Z" fill="#CDCDCD"/>
<path opacity="0.28" d="M85.5503 167.975L85.5837 168.009L95.1552 177.579L95.1887 177.612L95.2221 177.646L104.798 187.216L104.831 187.25L104.866 187.283L110.563 192.985L110.424 193.043L104.76 187.379L104.727 187.346L104.693 187.312L95.1218 177.742L95.0884 177.709L95.055 177.675L85.4835 168.105L85.45 168.071L85.4166 168.038L84.5156 167.137C84.5351 167.092 84.5532 167.046 84.5727 166.998L85.5127 167.937L85.5503 167.975Z" fill="#CDCDCD"/>
<path opacity="0.28" d="M87.4777 166.048L87.5111 166.081L97.084 175.652L97.1174 175.685L97.1508 175.719L106.722 185.289L106.756 185.323L106.789 185.356L113.105 191.671L112.985 191.744L106.693 185.448L106.658 185.415L106.625 185.381L97.0533 175.811L97.0199 175.777L96.9865 175.744L87.415 166.173L87.3816 166.14L87.3481 166.107L85.8163 164.575L85.8901 164.455L87.4442 166.013L87.4777 166.048Z" fill="#CDCDCD"/>
<path opacity="0.28" d="M84.5867 168.939L84.6201 168.972L94.1916 178.543L94.225 178.576L94.2584 178.61L103.823 188.18L103.856 188.214L103.89 188.247L109.171 193.525L109.031 193.572L103.806 188.349L103.773 188.315L103.739 188.281L94.1679 178.71L94.1345 178.677L94.1011 178.643L84.5296 169.073L84.4961 169.039L84.4627 169.006L83.999 168.544C84.0157 168.495 84.031 168.446 84.0477 168.404L84.5588 168.915L84.5867 168.939Z" fill="#CDCDCD"/>
<path opacity="0.28" d="M86.514 167.011L86.5474 167.044L96.1189 176.615L96.1524 176.648L96.1858 176.682L105.759 186.252L105.792 186.286L105.826 186.319L111.872 192.365L111.746 192.432L105.728 186.422L105.695 186.389L105.661 186.355L96.0897 176.785L96.0563 176.751L96.0229 176.718L86.4513 167.147L86.4179 167.114L86.3845 167.081L85.1311 165.827L85.1966 165.701L86.482 166.986L86.514 167.011Z" fill="#CDCDCD"/>
<path opacity="0.28" d="M88.4413 165.083L88.4748 165.116L98.0477 174.688L98.0811 174.721L98.1145 174.755L107.686 184.325L107.719 184.359L107.753 184.392L114.268 190.903L114.155 190.983L107.66 184.488L107.626 184.455L107.591 184.421L98.0198 174.851L97.9864 174.818L97.953 174.784L88.3787 165.214L88.3453 165.18L88.3118 165.147L86.5794 163.413L86.6588 163.3L88.4079 165.049L88.4413 165.083Z" fill="#CDCDCD"/>
<path opacity="0.28" d="M83.6565 169.935L93.228 179.506L93.2614 179.539L93.2948 179.573L102.866 189.143L102.9 189.177L102.933 189.21L107.685 193.961L107.53 193.999L102.837 189.308L102.804 189.274L102.77 189.241L93.1987 179.67L93.1653 179.635L93.1319 179.602L83.5618 170.034L83.5827 169.947C83.5827 169.926 83.5924 169.906 83.598 169.887L83.6203 169.909L83.6565 169.935Z" fill="#CDCDCD"/>
<path opacity="0.28" d="M89.4067 183.396L89.4401 183.429L99.0116 193L99.045 193.033L99.0785 193.066L100.45 194.438L100.232 194.413L98.9782 193.16L98.9448 193.126L98.9113 193.093L89.3398 183.525L89.3064 183.492L89.273 183.458L83.1454 177.331L83.1204 177.113L89.3733 183.359L89.4067 183.396Z" fill="#CDCDCD"/>
<path opacity="0.28" d="M91.334 181.467L91.3674 181.5L100.939 191.072L100.972 191.105L101.006 191.139L104.38 194.51L104.2 194.524L100.911 191.235L100.878 191.201L100.844 191.168L91.2727 181.598L91.2393 181.564L91.2059 181.531L83.0395 173.365C83.0395 173.305 83.0479 173.245 83.0535 173.186L91.302 181.433L91.334 181.467Z" fill="#CDCDCD"/>
<path opacity="0.28" d="M90.3701 182.432L90.4035 182.465L99.975 192.036L100.008 192.069L100.042 192.103L102.511 194.572H102.316L99.9486 192.205L99.9151 192.171L99.8817 192.138L90.3088 182.567L90.2754 182.534L90.242 182.5L83.0003 175.259C83.0003 175.194 83.0003 175.129 83.0003 175.064L90.3464 182.408L90.3701 182.432Z" fill="#CDCDCD"/>
<path opacity="0.28" d="M92.2977 180.503L92.3311 180.537L101.903 190.107L101.936 190.141L101.969 190.174L106.093 194.297L105.927 194.325L101.873 190.272L101.84 190.238L101.807 190.205L92.235 180.634L92.2016 180.601L92.1682 180.566L83.2373 171.637C83.2456 171.582 83.2554 171.527 83.2651 171.472L92.2643 180.47L92.2977 180.503Z" fill="#CDCDCD"/>
<path opacity="0.28" d="M87.4778 185.323L87.5112 185.356L95.2458 193.09L94.9116 192.951L87.4151 185.448L87.3817 185.415L87.3483 185.381L84.6145 182.648C84.5663 182.536 84.5198 182.425 84.4753 182.313L87.4471 185.285L87.4778 185.323Z" fill="#CDCDCD"/>
<path opacity="0.28" d="M88.4414 184.359L88.4748 184.393L98.0477 193.963L98.0812 193.996L98.1021 194.017L98.0672 194.009L98.0143 193.996C97.9586 193.983 97.9015 193.97 97.8458 193.955L88.376 184.486L88.3425 184.452L88.3091 184.419L83.6048 179.714C83.5825 179.63 83.563 179.544 83.5422 179.459L88.4052 184.323L88.4414 184.359Z" fill="#CDCDCD"/>
<path opacity="0.28" d="M112.442 160.361L112.409 160.328L107.688 155.608L107.951 155.678L112.505 160.231L112.538 160.265L112.571 160.298L121.888 169.613C121.912 169.7 121.935 169.788 121.958 169.876L112.475 160.394L112.442 160.361Z" fill="#CDCDCD"/>
<path opacity="0.28" d="M117.557 161.62L115.939 160.009C116.509 160.515 117.049 161.052 117.557 161.62Z" fill="#CDCDCD"/>
<path opacity="0.28" d="M113.406 159.397L113.372 159.364L110.615 156.606L110.96 156.762L113.467 159.269L113.502 159.302L113.535 159.336L120.813 166.604C120.865 166.719 120.915 166.834 120.965 166.95L113.445 159.43L113.406 159.397Z" fill="#CDCDCD"/>
<path opacity="0.28" d="M89.4401 189.404L88.1589 188.123C87.8005 187.731 87.4588 187.325 87.1339 186.906L90.6572 190.429C90.2376 190.103 89.8319 189.761 89.4401 189.404Z" fill="#CDCDCD"/>
<path opacity="0.28" d="M118.226 173.854L118.192 173.82L108.621 164.25L108.587 164.217L108.554 164.182L99.6159 155.246L99.7845 155.22L108.65 164.086L108.683 164.119L108.717 164.152L118.288 173.723L118.322 173.756L118.355 173.79L122.345 177.781C122.337 177.836 122.327 177.892 122.319 177.946L118.259 173.89L118.226 173.854Z" fill="#CDCDCD"/>
<path opacity="0.28" d="M120.153 171.926L120.12 171.892L110.548 162.322L110.515 162.288L110.481 162.255L103.224 155H103.423L110.577 162.159L110.611 162.192L110.644 162.226L120.216 171.802L120.249 171.835L120.282 171.869L122.561 174.141C122.561 174.206 122.561 174.273 122.561 174.34L120.181 171.96L120.153 171.926Z" fill="#CDCDCD"/>
<path opacity="0.28" d="M119.189 172.891L119.156 172.858L109.584 163.287L109.551 163.252L109.517 163.219L101.344 155.046L101.525 155.035L109.614 163.123L109.647 163.156L109.68 163.19L119.252 172.76L119.285 172.793L119.319 172.827L122.531 176.039C122.531 176.099 122.531 176.16 122.52 176.22L119.223 172.924L119.189 172.891Z" fill="#CDCDCD"/>
<path opacity="0.28" d="M121.116 170.966L121.083 170.933L111.512 161.358L111.478 161.325L111.445 161.291L105.306 155.155C105.381 155.163 105.456 155.176 105.53 155.185L111.541 161.195L111.574 161.229L111.608 161.262L121.179 170.827L121.213 170.861L121.247 170.894L122.381 172.027C122.391 172.103 122.402 172.178 122.412 172.252L121.15 170.99L121.116 170.966Z" fill="#CDCDCD"/>
<path opacity="0.28" d="M110.508 181.564L110.474 181.531L100.903 171.96L100.869 171.925L100.836 171.892L91.2644 162.321L91.231 162.288L91.1975 162.255L89.2701 160.322L89.3704 160.229L91.3006 162.158L91.334 162.192L91.3674 162.225L100.939 171.801L100.972 171.835L101.006 171.868L110.577 181.433L110.611 181.467L110.644 181.5L117.332 188.192L117.238 188.291L110.542 181.598L110.508 181.564Z" fill="#CDCDCD"/>
<path opacity="0.28" d="M112.442 179.636L112.408 179.602L102.837 170.032L102.804 169.998L102.77 169.965L93.1986 160.394L93.1652 160.361L93.1317 160.328L91.3965 158.594C91.4341 158.566 91.4731 158.541 91.5107 158.515L93.2278 160.232L93.2612 160.265L93.2947 160.298L102.866 169.869L102.9 169.902L102.933 169.936L112.505 179.506L112.538 179.54L112.571 179.573L119.051 186.052L118.972 186.167L112.475 179.671L112.442 179.636Z" fill="#CDCDCD"/>
<path opacity="0.28" d="M114.369 177.708L114.336 177.675L104.764 168.104L104.731 168.071L104.698 168.038L95.126 158.467L95.0926 158.434L95.0592 158.4L93.8058 157.147L93.9353 157.083L95.1594 158.308L95.1929 158.342L95.2263 158.375L104.798 167.942L104.831 167.975L104.866 168.008L114.438 177.579L114.471 177.612L114.504 177.646L120.493 183.633C120.472 183.677 120.451 183.72 120.429 183.763L114.407 177.742L114.369 177.708Z" fill="#CDCDCD"/>
<path opacity="0.28" d="M116.298 175.781L116.265 175.748L106.693 166.177L106.658 166.144L106.625 166.111L97.0534 156.54L97.02 156.507L96.9866 156.473L96.52 156.005L96.6593 155.958L97.0771 156.376L97.1105 156.409L97.1439 156.443L106.722 166.013L106.756 166.048L106.789 166.081L116.357 175.652L116.39 175.685L116.423 175.719L121.604 180.899C121.589 180.946 121.572 180.995 121.557 181.038L116.327 175.809L116.298 175.781Z" fill="#CDCDCD"/>
<path opacity="0.28" d="M111.482 180.601L111.449 180.566L101.873 170.995L101.84 170.962L101.806 170.928L92.2349 161.358L92.2014 161.324L92.168 161.291L90.3005 159.424L90.4063 159.337L92.2641 161.195L92.2975 161.228L92.331 161.262L101.902 170.827L101.936 170.86L101.969 170.894L111.541 180.464L111.574 180.498L111.608 180.531L118.227 187.149L118.142 187.257L111.512 180.628L111.482 180.601Z" fill="#CDCDCD"/>
<path opacity="0.28" d="M113.406 178.672L113.372 178.639L103.801 169.068L103.767 169.035L103.734 169.001L94.1623 159.431L94.1289 159.397L94.0955 159.364L92.5636 157.832L92.6862 157.76L94.1916 159.269L94.225 159.303L94.2584 159.336L103.823 168.905L103.856 168.939L103.89 168.972L113.461 178.543L113.496 178.576L113.53 178.609L119.796 184.876C119.773 184.916 119.749 184.958 119.724 184.997L113.429 178.703L113.406 178.672Z" fill="#CDCDCD"/>
<path opacity="0.28" d="M115.333 176.745L115.3 176.711L105.728 167.141L105.695 167.107L105.661 167.074L96.0898 157.503L96.0563 157.47L96.0229 157.436L95.1177 156.531L95.257 156.476L96.1204 157.339L96.1538 157.372L96.1872 157.407L105.759 166.978L105.792 167.011L105.826 167.045L115.397 176.615L115.431 176.648L115.464 176.682L121.092 182.308C121.073 182.353 121.055 182.399 121.036 182.447L115.369 176.781L115.333 176.745Z" fill="#CDCDCD"/>
<path opacity="0.28" d="M117.262 174.818L117.228 174.784L107.657 165.214L107.623 165.18L107.589 165.147L98.0171 155.576H98.0254L98.173 155.54L107.686 165.049L107.719 165.083L107.753 165.116L117.324 174.688L117.358 174.721L117.391 174.755L122.031 179.393C122.019 179.446 122.006 179.498 121.993 179.549L117.295 174.851L117.262 174.818Z" fill="#CDCDCD"/>
<path d="M85.9658 215V284.958H16.0002V215H85.9658ZM82.6357 284.923H85.9304V281.629H82.6357V284.923ZM82.6357 281.593H85.9304V278.299H82.6357V281.593ZM82.6357 278.263H85.9304V274.976H82.6357V278.263ZM82.6357 274.934H85.9304V271.639H82.6357V274.934ZM82.6357 271.604H85.9304V268.311H82.6357V271.604ZM82.6357 268.274H85.9304V264.98H82.6357V268.274ZM82.6357 264.945H85.9304V261.646H82.6357V264.945ZM82.6357 261.615H85.9304V258.321H82.6357V261.615ZM82.6357 258.285H85.9304V254.992H82.6357V258.285ZM82.6357 254.957H85.9304V251.663H82.6357V254.957ZM82.6357 251.627H85.9304V248.333H82.6357V251.627ZM82.6357 248.297H85.9304V245.003H82.6357V248.297ZM82.6357 244.968H85.9304V241.673H82.6357V244.968ZM82.6357 241.638H85.9304V238.344H82.6357V241.638ZM82.6357 238.308H85.9304V235.014H82.6357V238.308ZM82.6357 234.978H85.9304V231.684H82.6357V234.978ZM82.6357 231.649H85.9304V228.354H82.6357V231.649ZM82.6357 228.319H85.9304V225.025H82.6357V228.319ZM82.6357 224.989H85.9304V221.695H82.6357V224.989ZM82.6357 221.659H85.9304V218.365H82.6357V221.659ZM82.6357 218.33H85.9304V215.035H82.6357V218.33ZM79.3057 284.923H82.6003V281.629H79.3057V284.923ZM79.3057 281.593H82.6003V278.299H79.3057V281.593ZM79.3057 278.263H82.6003V274.976H79.3057V278.263ZM79.3057 274.934H82.6003V271.639H79.3057V274.934ZM79.3057 271.604H82.6003V268.311H79.3057V271.604ZM79.3057 268.274H82.6003V264.98H79.3057V268.274ZM79.3057 264.945H82.6003V261.646H79.3057V264.945ZM79.3057 261.615H82.6003V258.321H79.3057V261.615ZM79.3057 258.285H82.6003V254.992H79.3057V258.285ZM79.3057 254.957H82.6003V251.663H79.3057V254.957ZM79.3057 251.627H82.6003V248.333H79.3057V251.627ZM79.3057 248.297H82.6003V245.003H79.3057V248.297ZM79.3057 244.968H82.6003V241.673H79.3057V244.968ZM79.3057 241.638H82.6003V238.344H79.3057V241.638ZM79.3057 238.308H82.6003V235.014H79.3057V238.308ZM79.3057 234.978H82.6003V231.684H79.3057V234.978ZM79.3057 231.649H82.6003V228.354H79.3057V231.649ZM79.3057 228.319H82.6003V225.025H79.3057V228.319ZM79.3057 224.989H82.6003V221.695H79.3057V224.989ZM79.3057 221.659H82.6003V218.365H79.3057V221.659ZM79.3057 218.33H82.6003V215.035H79.3057V218.33ZM75.9756 284.923H79.2702V281.629H75.9756V284.923ZM75.9756 281.593H79.2702V278.299H75.9756V281.593ZM75.9756 278.263H79.2702V274.976H75.9756V278.263ZM75.9756 274.934H79.2702V271.639H75.9756V274.934ZM75.9756 271.604H79.2702V268.311H75.9756V271.604ZM75.9756 268.274H79.2702V264.98H75.9756V268.274ZM75.9756 264.945H79.2702V261.646H75.9756V264.945ZM75.9756 261.615H79.2702V258.321H75.9756V261.615ZM75.9756 258.285H79.2702V254.992H75.9756V258.285ZM75.9756 254.957H79.2702V251.663H75.9756V254.957ZM75.9756 251.627H79.2702V248.333H75.9756V251.627ZM75.9756 248.297H79.2702V245.003H75.9756V248.297ZM75.9756 244.968H79.2702V241.673H75.9756V244.968ZM75.9756 241.638H79.2702V238.344H75.9756V241.638ZM75.9756 238.308H79.2702V235.014H75.9756V238.308ZM75.9756 234.978H79.2702V231.684H75.9756V234.978ZM75.9756 231.649H79.2702V228.354H75.9756V231.649ZM75.9756 228.319H79.2702V225.025H75.9756V228.319ZM75.9756 224.989H79.2702V221.695H75.9756V224.989ZM75.9756 221.659H79.2702V218.365H75.9756V221.659ZM75.9756 218.33H79.2702V215.035H75.9756V218.33ZM72.6455 284.923H75.9401V281.629H72.6455V284.923ZM72.6455 281.593H75.9401V278.299H72.6455V281.593ZM72.6455 278.263H75.9401V274.976H72.6455V278.263ZM72.6455 274.934H75.9401V271.639H72.6455V274.934ZM72.6455 271.604H75.9401V268.311H72.6455V271.604ZM72.6455 268.274H75.9401V264.98H72.6455V268.274ZM72.6455 264.945H75.9401V261.646H72.6455V264.945ZM72.6455 261.615H75.9401V258.321H72.6455V261.615ZM72.6455 258.285H75.9401V254.992H72.6455V258.285ZM72.6455 254.957H75.9401V251.663H72.6455V254.957ZM72.6455 251.627H75.9401V248.333H72.6455V251.627ZM72.6455 248.297H75.9401V245.003H72.6455V248.297ZM72.6455 244.968H75.9401V241.673H72.6455V244.968ZM72.6455 241.638H75.9401V238.344H72.6455V241.638ZM72.6455 238.308H75.9401V235.014H72.6455V238.308ZM72.6455 234.978H75.9401V231.684H72.6455V234.978ZM72.6455 231.649H75.9401V228.354H72.6455V231.649ZM72.6455 228.319H75.9401V225.025H72.6455V228.319ZM72.6455 224.989H75.9401V221.695H72.6455V224.989ZM72.6455 221.659H75.9401V218.365H72.6455V221.659ZM72.6455 218.33H75.9401V215.035H72.6455V218.33ZM69.3154 284.923H72.6101V281.629H69.3154V284.923ZM69.3154 281.593H72.6101V278.299H69.3154V281.593ZM69.3154 278.263H72.6101V274.976H69.3154V278.263ZM69.3154 274.934H72.6101V271.639H69.3154V274.934ZM69.3154 271.604H72.6101V268.311H69.3154V271.604ZM69.3154 268.274H72.6101V264.98H69.3154V268.274ZM69.3154 264.945H72.6101V261.646H69.3154V264.945ZM69.3154 261.615H72.6101V258.321H69.3154V261.615ZM69.3154 258.285H72.6101V254.992H69.3154V258.285ZM69.3154 254.957H72.6101V251.663H69.3154V254.957ZM69.3154 251.627H72.6101V248.333H69.3154V251.627ZM69.3154 248.297H72.6101V245.003H69.3154V248.297ZM69.3154 244.968H72.6101V241.673H69.3154V244.968ZM69.3154 241.638H72.6101V238.344H69.3154V241.638ZM69.3154 238.308H72.6101V235.014H69.3154V238.308ZM69.3154 234.978H72.6101V231.684H69.3154V234.978ZM69.3154 231.649H72.6101V228.354H69.3154V231.649ZM69.3154 228.319H72.6101V225.025H69.3154V228.319ZM69.3154 224.989H72.6101V221.695H69.3154V224.989ZM69.3154 221.659H72.6101V218.365H69.3154V221.659ZM69.3154 218.33H72.6101V215.035H69.3154V218.33ZM65.9854 284.923H69.28V281.629H65.9854V284.923ZM65.9854 281.593H69.28V278.299H65.9854V281.593ZM65.9854 278.263H69.28V274.976H65.9854V278.263ZM65.9854 274.934H69.28V271.639H65.9854V274.934ZM65.9854 271.604H69.28V268.311H65.9854V271.604ZM65.9854 268.274H69.28V264.98H65.9854V268.274ZM65.9854 264.945H69.28V261.646H65.9854V264.945ZM65.9854 261.615H69.28V258.321H65.9854V261.615ZM65.9854 258.285H69.28V254.992H65.9854V258.285ZM65.9854 254.957H69.28V251.663H65.9854V254.957ZM65.9854 251.627H69.28V248.333H65.9854V251.627ZM65.9854 248.297H69.28V245.003H65.9854V248.297ZM65.9854 244.968H69.28V241.673H65.9854V244.968ZM65.9854 241.638H69.28V238.344H65.9854V241.638ZM65.9854 238.308H69.28V235.014H65.9854V238.308ZM65.9854 234.978H69.28V231.684H65.9854V234.978ZM65.9854 231.649H69.28V228.354H65.9854V231.649ZM65.9854 228.319H69.28V225.025H65.9854V228.319ZM65.9854 224.989H69.28V221.695H65.9854V224.989ZM65.9854 221.659H69.28V218.365H65.9854V221.659ZM65.9854 218.33H69.28V215.035H65.9854V218.33ZM62.6553 284.923H65.9513V281.629H62.6567L62.6553 284.923ZM62.6553 281.593H65.9513V278.299H62.6567L62.6553 281.593ZM62.6553 278.263H65.9513V274.976H62.6567L62.6553 278.263ZM62.6553 274.934H65.9513V271.639H62.6567L62.6553 274.934ZM62.6553 271.604H65.9513V268.311H62.6567L62.6553 271.604ZM62.6553 268.274H65.9513V264.98H62.6567L62.6553 268.274ZM62.6553 264.945H65.9513V261.646H62.6567L62.6553 264.945ZM62.6553 261.615H65.9513V258.321H62.6567L62.6553 261.615ZM62.6553 258.285H65.9513V254.992H62.6567L62.6553 258.285ZM62.6553 254.957H65.9513V251.663H62.6567L62.6553 254.957ZM62.6553 251.627H65.9513V248.333H62.6567L62.6553 251.627ZM62.6553 248.297H65.9513V245.003H62.6567L62.6553 248.297ZM62.6553 244.968H65.9513V241.673H62.6567L62.6553 244.968ZM62.6553 241.638H65.9513V238.344H62.6567L62.6553 241.638ZM62.6553 238.308H65.9513V235.014H62.6567L62.6553 238.308ZM62.6553 234.978H65.9513V231.684H62.6567L62.6553 234.978ZM62.6553 231.649H65.9513V228.354H62.6567L62.6553 231.649ZM62.6553 228.319H65.9513V225.025H62.6567L62.6553 228.319ZM62.6553 224.989H65.9513V221.695H62.6567L62.6553 224.989ZM62.6553 221.659H65.9513V218.365H62.6567L62.6553 221.659ZM62.6553 218.33H65.9513V215.035H62.6567L62.6553 218.33ZM59.3252 284.923H62.6198V281.629H59.3252V284.923ZM59.3252 281.593H62.6198V278.299H59.3252V281.593ZM59.3252 278.263H62.6198V274.976H59.3252V278.263ZM59.3252 274.934H62.6198V271.639H59.3252V274.934ZM59.3252 271.604H62.6198V268.311H59.3252V271.604ZM59.3252 268.274H62.6198V264.98H59.3252V268.274ZM59.3252 264.945H62.6198V261.646H59.3252V264.945ZM59.3252 261.615H62.6198V258.321H59.3252V261.615ZM59.3252 258.285H62.6198V254.992H59.3252V258.285ZM59.3252 254.957H62.6198V251.663H59.3252V254.957ZM59.3252 251.627H62.6198V248.333H59.3252V251.627ZM59.3252 248.297H62.6198V245.003H59.3252V248.297ZM59.3252 244.968H62.6198V241.673H59.3252V244.968ZM59.3252 241.638H62.6198V238.344H59.3252V241.638ZM59.3252 238.308H62.6198V235.014H59.3252V238.308ZM59.3252 234.978H62.6198V231.684H59.3252V234.978ZM59.3252 231.649H62.6198V228.354H59.3252V231.649ZM59.3252 228.319H62.6198V225.025H59.3252V228.319ZM59.3252 224.989H62.6198V221.695H59.3252V224.989ZM59.3252 221.659H62.6198V218.365H59.3252V221.659ZM59.3252 218.33H62.6198V215.035H59.3252V218.33ZM55.9966 284.923H59.2855V281.629H55.9923L55.9966 284.923ZM55.9966 281.593H59.2855V278.299H55.9923L55.9966 281.593ZM55.9966 278.263H59.2855V274.976H55.9923L55.9966 278.263ZM55.9966 274.934H59.2855V271.639H55.9923L55.9966 274.934ZM55.9966 271.604H59.2855V268.311H55.9923L55.9966 271.604ZM55.9966 268.274H59.2855V264.98H55.9923L55.9966 268.274ZM55.9966 264.945H59.2855V261.646H55.9923L55.9966 264.945ZM55.9966 261.615H59.2855V258.321H55.9923L55.9966 261.615ZM55.9966 258.285H59.2855V254.992H55.9923L55.9966 258.285ZM55.9966 254.957H59.2855V251.663H55.9923L55.9966 254.957ZM55.9966 251.627H59.2855V248.333H55.9923L55.9966 251.627ZM55.9966 248.297H59.2855V245.003H55.9923L55.9966 248.297ZM55.9966 244.968H59.2855V241.673H55.9923L55.9966 244.968ZM55.9966 241.638H59.2855V238.344H55.9923L55.9966 241.638ZM55.9966 238.308H59.2855V235.014H55.9923L55.9966 238.308ZM55.9966 234.978H59.2855V231.684H55.9923L55.9966 234.978ZM55.9966 231.649H59.2855V228.354H55.9923L55.9966 231.649ZM55.9966 228.319H59.2855V225.025H55.9923L55.9966 228.319ZM55.9966 224.989H59.2855V221.695H55.9923L55.9966 224.989ZM55.9966 221.659H59.2855V218.365H55.9923L55.9966 221.659ZM55.9966 218.33H59.2855V215.035H55.9923L55.9966 218.33ZM52.6665 284.923H55.9611V281.629H52.6665V284.923ZM52.6665 281.593H55.9611V278.299H52.6665V281.593ZM52.6665 278.263H55.9611V274.976H52.6665V278.263ZM52.6665 274.934H55.9611V271.639H52.6665V274.934ZM52.6665 271.604H55.9611V268.311H52.6665V271.604ZM52.6665 268.274H55.9611V264.98H52.6665V268.274ZM52.6665 264.945H55.9611V261.646H52.6665V264.945ZM52.6665 261.615H55.9611V258.321H52.6665V261.615ZM52.6665 258.285H55.9611V254.992H52.6665V258.285ZM52.6665 254.957H55.9611V251.663H52.6665V254.957ZM52.6665 251.627H55.9611V248.333H52.6665V251.627ZM52.6665 248.297H55.9611V245.003H52.6665V248.297ZM52.6665 244.968H55.9611V241.673H52.6665V244.968ZM52.6665 241.638H55.9611V238.344H52.6665V241.638ZM52.6665 238.308H55.9611V235.014H52.6665V238.308ZM52.6665 234.978H55.9611V231.684H52.6665V234.978ZM52.6665 231.649H55.9611V228.354H52.6665V231.649ZM52.6665 228.319H55.9611V225.025H52.6665V228.319ZM52.6665 224.989H55.9611V221.695H52.6665V224.989ZM52.6665 221.659H55.9611V218.365H52.6665V221.659ZM52.6665 218.33H55.9611V215.035H52.6665V218.33ZM49.3364 284.923H52.631V281.629H49.3364V284.923ZM49.3364 281.593H52.631V278.299H49.3364V281.593ZM49.3364 278.263H52.631V274.976H49.3364V278.263ZM49.3364 274.934H52.631V271.639H49.3364V274.934ZM49.3364 271.604H52.631V268.311H49.3364V271.604ZM49.3364 268.274H52.631V264.98H49.3364V268.274ZM49.3364 264.945H52.631V261.646H49.3364V264.945ZM49.3364 261.615H52.631V258.321H49.3364V261.615ZM49.3364 258.285H52.631V254.992H49.3364V258.285ZM49.3364 254.957H52.631V251.663H49.3364V254.957ZM49.3364 251.627H52.631V248.333H49.3364V251.627ZM49.3364 248.297H52.631V245.003H49.3364V248.297ZM49.3364 244.968H52.631V241.673H49.3364V244.968ZM49.3364 241.638H52.631V238.344H49.3364V241.638ZM49.3364 238.308H52.631V235.014H49.3364V238.308ZM49.3364 234.978H52.631V231.684H49.3364V234.978ZM49.3364 231.649H52.631V228.354H49.3364V231.649ZM49.3364 228.319H52.631V225.025H49.3364V228.319ZM49.3364 224.989H52.631V221.695H49.3364V224.989ZM49.3364 221.659H52.631V218.365H49.3364V221.659ZM49.3364 218.33H52.631V215.035H49.3364V218.33ZM46.0063 284.923H49.301V281.629H46.0063V284.923ZM46.0063 281.593H49.301V278.299H46.0063V281.593ZM46.0063 278.263H49.301V274.976H46.0063V278.263ZM46.0063 274.934H49.301V271.639H46.0063V274.934ZM46.0063 271.604H49.301V268.311H46.0063V271.604ZM46.0063 268.274H49.301V264.98H46.0063V268.274ZM46.0063 264.945H49.301V261.646H46.0063V264.945ZM46.0063 261.615H49.301V258.321H46.0063V261.615ZM46.0063 258.285H49.301V254.992H46.0063V258.285ZM46.0063 254.957H49.301V251.663H46.0063V254.957ZM46.0063 251.627H49.301V248.333H46.0063V251.627ZM46.0063 248.297H49.301V245.003H46.0063V248.297ZM46.0063 244.968H49.301V241.673H46.0063V244.968ZM46.0063 241.638H49.301V238.344H46.0063V241.638ZM46.0063 238.308H49.301V235.014H46.0063V238.308ZM46.0063 234.978H49.301V231.684H46.0063V234.978ZM46.0063 231.649H49.301V228.354H46.0063V231.649ZM46.0063 228.319H49.301V225.025H46.0063V228.319ZM46.0063 224.989H49.301V221.695H46.0063V224.989ZM46.0063 221.659H49.301V218.365H46.0063V221.659ZM46.0063 218.33H49.301V215.035H46.0063V218.33ZM42.6763 284.923H45.9709V281.629H42.6763V284.923ZM42.6763 281.593H45.9709V278.299H42.6763V281.593ZM42.6763 278.263H45.9709V274.976H42.6763V278.263ZM42.6763 274.934H45.9709V271.639H42.6763V274.934ZM42.6763 271.604H45.9709V268.311H42.6763V271.604ZM42.6763 268.274H45.9709V264.98H42.6763V268.274ZM42.6763 264.945H45.9709V261.646H42.6763V264.945ZM42.6763 261.615H45.9709V258.321H42.6763V261.615ZM42.6763 258.285H45.9709V254.992H42.6763V258.285ZM42.6763 254.957H45.9709V251.663H42.6763V254.957ZM42.6763 251.627H45.9709V248.333H42.6763V251.627ZM42.6763 248.297H45.9709V245.003H42.6763V248.297ZM42.6763 244.968H45.9709V241.673H42.6763V244.968ZM42.6763 241.638H45.9709V238.344H42.6763V241.638ZM42.6763 238.308H45.9709V235.014H42.6763V238.308ZM42.6763 234.978H45.9709V231.684H42.6763V234.978ZM42.6763 231.649H45.9709V228.354H42.6763V231.649ZM42.6763 228.319H45.9709V225.025H42.6763V228.319ZM42.6763 224.989H45.9709V221.695H42.6763V224.989ZM42.6763 221.659H45.9709V218.365H42.6763V221.659ZM42.6763 218.33H45.9709V215.035H42.6763V218.33ZM39.3462 284.923H42.6408V281.629H39.3462V284.923ZM39.3462 281.593H42.6408V278.299H39.3462V281.593ZM39.3462 278.263H42.6408V274.976H39.3462V278.263ZM39.3462 274.934H42.6408V271.639H39.3462V274.934ZM39.3462 271.604H42.6408V268.311H39.3462V271.604ZM39.3462 268.274H42.6408V264.98H39.3462V268.274ZM39.3462 264.945H42.6408V261.646H39.3462V264.945ZM39.3462 261.615H42.6408V258.321H39.3462V261.615ZM39.3462 258.285H42.6408V254.992H39.3462V258.285ZM39.3462 254.957H42.6408V251.663H39.3462V254.957ZM39.3462 251.627H42.6408V248.333H39.3462V251.627ZM39.3462 248.297H42.6408V245.003H39.3462V248.297ZM39.3462 244.968H42.6408V241.673H39.3462V244.968ZM39.3462 241.638H42.6408V238.344H39.3462V241.638ZM39.3462 238.308H42.6408V235.014H39.3462V238.308ZM39.3462 234.978H42.6408V231.684H39.3462V234.978ZM39.3462 231.649H42.6408V228.354H39.3462V231.649ZM39.3462 228.319H42.6408V225.025H39.3462V228.319ZM39.3462 224.989H42.6408V221.695H39.3462V224.989ZM39.3462 221.659H42.6408V218.365H39.3462V221.659ZM39.3462 218.33H42.6408V215.035H39.3462V218.33ZM36.0161 284.923H39.3107V281.629H36.0161V284.923ZM36.0161 281.593H39.3107V278.299H36.0161V281.593ZM36.0161 278.263H39.3107V274.976H36.0161V278.263ZM36.0161 274.934H39.3107V271.639H36.0161V274.934ZM36.0161 271.604H39.3107V268.311H36.0161V271.604ZM36.0161 268.274H39.3107V264.98H36.0161V268.274ZM36.0161 264.945H39.3107V261.646H36.0161V264.945ZM36.0161 261.615H39.3107V258.321H36.0161V261.615ZM36.0161 258.285H39.3107V254.992H36.0161V258.285ZM36.0161 254.957H39.3107V251.663H36.0161V254.957ZM36.0161 251.627H39.3107V248.333H36.0161V251.627ZM36.0161 248.297H39.3107V245.003H36.0161V248.297ZM36.0161 244.968H39.3107V241.673H36.0161V244.968ZM36.0161 241.638H39.3107V238.344H36.0161V241.638ZM36.0161 238.308H39.3107V235.014H36.0161V238.308ZM36.0161 234.978H39.3107V231.684H36.0161V234.978ZM36.0161 231.649H39.3107V228.354H36.0161V231.649ZM36.0161 228.319H39.3107V225.025H36.0161V228.319ZM36.0161 224.989H39.3107V221.695H36.0161V224.989ZM36.0161 221.659H39.3107V218.365H36.0161V221.659ZM36.0161 218.33H39.3107V215.035H36.0161V218.33ZM32.686 284.923H35.9807V281.629H32.686V284.923ZM32.686 281.593H35.9807V278.299H32.686V281.593ZM32.686 278.263H35.9807V274.976H32.686V278.263ZM32.686 274.934H35.9807V271.639H32.686V274.934ZM32.686 271.604H35.9807V268.311H32.686V271.604ZM32.686 268.274H35.9807V264.98H32.686V268.274ZM32.686 264.945H35.9807V261.646H32.686V264.945ZM32.686 261.615H35.9807V258.321H32.686V261.615ZM32.686 258.285H35.9807V254.992H32.686V258.285ZM32.686 254.957H35.9807V251.663H32.686V254.957ZM32.686 251.627H35.9807V248.333H32.686V251.627ZM32.686 248.297H35.9807V245.003H32.686V248.297ZM32.686 244.968H35.9807V241.673H32.686V244.968ZM32.686 241.638H35.9807V238.344H32.686V241.638ZM32.686 238.308H35.9807V235.014H32.686V238.308ZM32.686 234.978H35.9807V231.684H32.686V234.978ZM32.686 231.649H35.9807V228.354H32.686V231.649ZM32.686 228.319H35.9807V225.025H32.686V228.319ZM32.686 224.989H35.9807V221.695H32.686V224.989ZM32.686 221.659H35.9807V218.365H32.686V221.659ZM32.686 218.33H35.9807V215.035H32.686V218.33ZM29.3602 284.923H32.6506V281.629H29.3602V284.923ZM29.3602 281.593H32.6506V278.299H29.3602V281.593ZM29.3602 278.263H32.6506V274.976H29.3602V278.263ZM29.3602 274.934H32.6506V271.639H29.3602V274.934ZM29.3602 271.604H32.6506V268.311H29.3602V271.604ZM29.3602 268.274H32.6506V264.98H29.3602V268.274ZM29.3602 264.945H32.6506V261.646H29.3602V264.945ZM29.3602 261.615H32.6506V258.321H29.3602V261.615ZM29.3602 258.285H32.6506V254.992H29.3602V258.285ZM29.3602 254.957H32.6506V251.663H29.3602V254.957ZM29.3602 251.627H32.6506V248.333H29.3602V251.627ZM29.3602 248.297H32.6506V245.003H29.3602V248.297ZM29.3602 244.968H32.6506V241.673H29.3602V244.968ZM29.3602 241.638H32.6506V238.344H29.3602V241.638ZM29.3602 238.308H32.6506V235.014H29.3602V238.308ZM29.3602 234.985H32.6506V231.684H29.3602V234.985ZM29.3602 231.656H32.6506V228.354H29.3602V231.656ZM29.3602 228.32H32.6506V225.025H29.3602V228.32ZM29.3602 224.991H32.6506V221.695H29.3602V224.991ZM29.3602 221.655H32.6506V218.365H29.3602V221.655ZM29.3602 218.325H32.6506V215.035H29.3602V218.325ZM26.0302 284.919H29.3205V281.629H26.0259L26.0302 284.919ZM26.0302 281.589H29.3205V278.299H26.0259L26.0302 281.589ZM26.0302 278.259H29.3205V274.976H26.0259L26.0302 278.259ZM26.0302 274.93H29.3205V271.639H26.0259L26.0302 274.93ZM26.0302 271.6H29.3205V268.311H26.0259L26.0302 271.6ZM26.0302 268.27H29.3205V264.98H26.0259L26.0302 268.27ZM26.0302 264.94H29.3205V261.646H26.0259L26.0302 264.94ZM26.0302 261.611H29.3205V258.321H26.0259L26.0302 261.611ZM26.0302 258.281H29.3205V254.992H26.0259L26.0302 258.281ZM26.0302 254.953H29.3205V251.663H26.0259L26.0302 254.953ZM26.0302 251.623H29.3205V248.333H26.0259L26.0302 251.623ZM26.0302 248.293H29.3205V245.003H26.0259L26.0302 248.293ZM26.0302 244.963H29.3205V241.673H26.0259L26.0302 244.963ZM26.0302 241.634H29.3205V238.344H26.0259L26.0302 241.634ZM26.0302 238.304H29.3205V235.014H26.0259L26.0302 238.304ZM26.0302 234.974H29.3205V231.684H26.0259L26.0302 234.974ZM26.0302 231.644H29.3205V228.354H26.0259L26.0302 231.644ZM26.0302 228.315H29.3205V225.025H26.0259L26.0302 228.315ZM26.0302 224.985H29.3205V221.695H26.0259L26.0302 224.985ZM26.0302 221.655H29.3205V218.365H26.0259L26.0302 221.655ZM26.0302 218.325H29.3205V215.035H26.0259L26.0302 218.325ZM22.6944 284.923H25.9904V281.629H22.6944V284.923ZM22.6944 281.593H25.9904V278.299H22.6944V281.593ZM22.6944 278.263H25.9904V274.976H22.6944V278.263ZM22.6944 274.934H25.9904V271.639H22.6944V274.934ZM22.6944 271.604H25.9904V268.311H22.6944V271.604ZM22.6944 268.274H25.9904V264.98H22.6944V268.274ZM22.6944 264.945H25.9904V261.646H22.6944V264.945ZM22.6944 261.615H25.9904V258.321H22.6944V261.615ZM22.6944 258.285H25.9904V254.992H22.6944V258.285ZM22.6944 254.957H25.9904V251.663H22.6944V254.957ZM22.6944 251.627H25.9904V248.333H22.6944V251.627ZM22.6944 248.297H25.9904V245.003H22.6944V248.297ZM22.6944 244.968H25.9904V241.673H22.6944V244.968ZM22.6944 241.638H25.9904V238.344H22.6944V241.638ZM22.6944 238.308H25.9904V235.014H22.6944V238.308ZM22.6944 234.985H25.9904V231.684H22.6944V234.985ZM22.6944 231.656H25.9904V228.354H22.6944V231.656ZM22.6944 228.32H25.9904V225.025H22.6944V228.32ZM22.6944 224.991H25.9904V221.695H22.6944V224.991ZM22.6944 221.655H25.9904V218.365H22.6944V221.655ZM22.6944 218.325H25.9904V215.035H22.6944V218.325ZM19.3643 284.919H22.6604V281.629H19.3658L19.3643 284.919ZM19.3643 281.589H22.6604V278.299H19.3658L19.3643 281.589ZM19.3643 278.259H22.6604V274.976H19.3658L19.3643 278.259ZM19.3643 274.93H22.6604V271.639H19.3658L19.3643 274.93ZM19.3643 271.6H22.6604V268.311H19.3658L19.3643 271.6ZM19.3643 268.27H22.6604V264.98H19.3658L19.3643 268.27ZM19.3643 264.94H22.6604V261.646H19.3658L19.3643 264.94ZM19.3643 261.611H22.6604V258.321H19.3658L19.3643 261.611ZM19.3643 258.281H22.6604V254.992H19.3658L19.3643 258.281ZM19.3643 254.953H22.6604V251.663H19.3658L19.3643 254.953ZM19.3643 251.623H22.6604V248.333H19.3658L19.3643 251.623ZM19.3643 248.293H22.6604V245.003H19.3658L19.3643 248.293ZM19.3643 244.963H22.6604V241.673H19.3658L19.3643 244.963ZM19.3643 241.634H22.6604V238.344H19.3658L19.3643 241.634ZM19.3643 238.304H22.6604V235.014H19.3658L19.3643 238.304ZM19.3643 234.974H22.6604V231.684H19.3658L19.3643 234.974ZM19.3643 231.644H22.6604V228.354H19.3658L19.3643 231.644ZM19.3643 228.315H22.6604V225.025H19.3658L19.3643 228.315ZM19.3643 224.985H22.6604V221.695H19.3658L19.3643 224.985ZM19.3643 221.655H22.6604V218.365H19.3658L19.3643 221.655ZM19.3643 218.325H22.6604V215.035H19.3658L19.3643 218.325ZM16.0286 284.923H19.3303V281.629H16.0286V284.923ZM16.0286 281.593H19.3303V278.299H16.0286V281.593ZM16.0286 278.263H19.3303V274.976H16.0286V278.263ZM16.0286 274.934H19.3303V271.639H16.0286V274.934ZM16.0286 271.604H19.3303V268.311H16.0286V271.604ZM16.0286 268.274H19.3303V264.98H16.0286V268.274ZM16.0286 264.945H19.3303V261.646H16.0286V264.945ZM16.0286 261.615H19.3303V258.321H16.0286V261.615ZM16.0286 258.285H19.3303V254.992H16.0286V258.285ZM16.0286 254.957H19.3303V251.663H16.0286V254.957ZM16.0286 251.627H19.3303V248.333H16.0286V251.627ZM16.0286 248.297H19.3303V245.003H16.0286V248.297ZM16.0286 244.968H19.3303V241.673H16.0286V244.968ZM16.0286 241.638H19.3303V238.344H16.0286V241.638ZM16.0286 238.308H19.3303V235.014H16.0286V238.308ZM16.0286 234.985H19.3303V231.684H16.0286V234.985ZM16.0286 231.656H19.3303V228.354H16.0286V231.656ZM16.0286 228.32H19.3303V225.025H16.0286V228.32ZM16.0286 224.991H19.3303V221.695H16.0286V224.991ZM16.0286 221.655H19.3303V218.365H16.0286V221.655ZM16.0286 218.325H19.3303V215.035H16.0286V218.325Z" fill="url(#paint2_radial_993_2148)"/>
<path opacity="0.5" d="M35.1475 90.2866V259.963H-62.8149V90.2866H35.1475ZM30.4849 259.877H35.0978V251.888H30.4849V259.877ZM30.4849 251.802H35.0978V243.812H30.4849V251.802ZM30.4849 243.726H35.0978V235.753H30.4849V243.726ZM30.4849 235.65H35.0978V227.66H30.4849V235.65ZM30.4849 227.574H35.0978V219.587H30.4849V227.574ZM30.4849 219.498H35.0978V211.508H30.4849V219.498ZM30.4849 211.422H35.0978V203.422H30.4849V211.422ZM30.4849 203.346H35.0978V195.356H30.4849V203.346ZM30.4849 195.27H35.0978V187.284H30.4849V195.27ZM30.4849 187.198H35.0978V179.208H30.4849V187.198ZM30.4849 179.122H35.0978V171.132H30.4849V179.122ZM30.4849 171.046H35.0978V163.056H30.4849V171.046ZM30.4849 162.97H35.0978V154.98H30.4849V162.97ZM30.4849 154.894H35.0978V146.904H30.4849V154.894ZM30.4849 146.818H35.0978V138.828H30.4849V146.818ZM30.4849 138.742H35.0978V130.752H30.4849V138.742ZM30.4849 130.666H35.0978V122.676H30.4849V130.666ZM30.4849 122.59H35.0978V114.6H30.4849V122.59ZM30.4849 114.514H35.0978V106.524H30.4849V114.514ZM30.4849 106.438H35.0978V98.4485H30.4849V106.438ZM30.4849 98.3625H35.0978V90.3726H30.4849V98.3625ZM25.8223 259.877H30.4352V251.888H25.8223V259.877ZM25.8223 251.802H30.4352V243.812H25.8223V251.802ZM25.8223 243.726H30.4352V235.753H25.8223V243.726ZM25.8223 235.65H30.4352V227.66H25.8223V235.65ZM25.8223 227.574H30.4352V219.587H25.8223V227.574ZM25.8223 219.498H30.4352V211.508H25.8223V219.498ZM25.8223 211.422H30.4352V203.422H25.8223V211.422ZM25.8223 203.346H30.4352V195.356H25.8223V203.346ZM25.8223 195.27H30.4352V187.284H25.8223V195.27ZM25.8223 187.198H30.4352V179.208H25.8223V187.198ZM25.8223 179.122H30.4352V171.132H25.8223V179.122ZM25.8223 171.046H30.4352V163.056H25.8223V171.046ZM25.8223 162.97H30.4352V154.98H25.8223V162.97ZM25.8223 154.894H30.4352V146.904H25.8223V154.894ZM25.8223 146.818H30.4352V138.828H25.8223V146.818ZM25.8223 138.742H30.4352V130.752H25.8223V138.742ZM25.8223 130.666H30.4352V122.676H25.8223V130.666ZM25.8223 122.59H30.4352V114.6H25.8223V122.59ZM25.8223 114.514H30.4352V106.524H25.8223V114.514ZM25.8223 106.438H30.4352V98.4485H25.8223V106.438ZM25.8223 98.3625H30.4352V90.3726H25.8223V98.3625ZM21.1597 259.877H25.7726V251.888H21.1597V259.877ZM21.1597 251.802H25.7726V243.812H21.1597V251.802ZM21.1597 243.726H25.7726V235.753H21.1597V243.726ZM21.1597 235.65H25.7726V227.66H21.1597V235.65ZM21.1597 227.574H25.7726V219.587H21.1597V227.574ZM21.1597 219.498H25.7726V211.508H21.1597V219.498ZM21.1597 211.422H25.7726V203.422H21.1597V211.422ZM21.1597 203.346H25.7726V195.356H21.1597V203.346ZM21.1597 195.27H25.7726V187.284H21.1597V195.27ZM21.1597 187.198H25.7726V179.208H21.1597V187.198ZM21.1597 179.122H25.7726V171.132H21.1597V179.122ZM21.1597 171.046H25.7726V163.056H21.1597V171.046ZM21.1597 162.97H25.7726V154.98H21.1597V162.97ZM21.1597 154.894H25.7726V146.904H21.1597V154.894ZM21.1597 146.818H25.7726V138.828H21.1597V146.818ZM21.1597 138.742H25.7726V130.752H21.1597V138.742ZM21.1597 130.666H25.7726V122.676H21.1597V130.666ZM21.1597 122.59H25.7726V114.6H21.1597V122.59ZM21.1597 114.514H25.7726V106.524H21.1597V114.514ZM21.1597 106.438H25.7726V98.4485H21.1597V106.438ZM21.1597 98.3625H25.7726V90.3726H21.1597V98.3625ZM16.4971 259.877H21.11V251.888H16.4971V259.877ZM16.4971 251.802H21.11V243.812H16.4971V251.802ZM16.4971 243.726H21.11V235.753H16.4971V243.726ZM16.4971 235.65H21.11V227.66H16.4971V235.65ZM16.4971 227.574H21.11V219.587H16.4971V227.574ZM16.4971 219.498H21.11V211.508H16.4971V219.498ZM16.4971 211.422H21.11V203.422H16.4971V211.422ZM16.4971 203.346H21.11V195.356H16.4971V203.346ZM16.4971 195.27H21.11V187.284H16.4971V195.27ZM16.4971 187.198H21.11V179.208H16.4971V187.198ZM16.4971 179.122H21.11V171.132H16.4971V179.122ZM16.4971 171.046H21.11V163.056H16.4971V171.046ZM16.4971 162.97H21.11V154.98H16.4971V162.97ZM16.4971 154.894H21.11V146.904H16.4971V154.894ZM16.4971 146.818H21.11V138.828H16.4971V146.818ZM16.4971 138.742H21.11V130.752H16.4971V138.742ZM16.4971 130.666H21.11V122.676H16.4971V130.666ZM16.4971 122.59H21.11V114.6H16.4971V122.59ZM16.4971 114.514H21.11V106.524H16.4971V114.514ZM16.4971 106.438H21.11V98.4485H16.4971V106.438ZM16.4971 98.3625H21.11V90.3726H16.4971V98.3625ZM11.8344 259.877H16.4474V251.888H11.8344V259.877ZM11.8344 251.802H16.4474V243.812H11.8344V251.802ZM11.8344 243.726H16.4474V235.753H11.8344V243.726ZM11.8344 235.65H16.4474V227.66H11.8344V235.65ZM11.8344 227.574H16.4474V219.587H11.8344V227.574ZM11.8344 219.498H16.4474V211.508H11.8344V219.498ZM11.8344 211.422H16.4474V203.422H11.8344V211.422ZM11.8344 203.346H16.4474V195.356H11.8344V203.346ZM11.8344 195.27H16.4474V187.284H11.8344V195.27ZM11.8344 187.198H16.4474V179.208H11.8344V187.198ZM11.8344 179.122H16.4474V171.132H11.8344V179.122ZM11.8344 171.046H16.4474V163.056H11.8344V171.046ZM11.8344 162.97H16.4474V154.98H11.8344V162.97ZM11.8344 154.894H16.4474V146.904H11.8344V154.894ZM11.8344 146.818H16.4474V138.828H11.8344V146.818ZM11.8344 138.742H16.4474V130.752H11.8344V138.742ZM11.8344 130.666H16.4474V122.676H11.8344V130.666ZM11.8344 122.59H16.4474V114.6H11.8344V122.59ZM11.8344 114.514H16.4474V106.524H11.8344V114.514ZM11.8344 106.438H16.4474V98.4485H11.8344V106.438ZM11.8344 98.3625H16.4474V90.3726H11.8344V98.3625ZM7.17184 259.877H11.7848V251.888H7.17184V259.877ZM7.17184 251.802H11.7848V243.812H7.17184V251.802ZM7.17184 243.726H11.7848V235.753H7.17184V243.726ZM7.17184 235.65H11.7848V227.66H7.17184V235.65ZM7.17184 227.574H11.7848V219.587H7.17184V227.574ZM7.17184 219.498H11.7848V211.508H7.17184V219.498ZM7.17184 211.422H11.7848V203.422H7.17184V211.422ZM7.17184 203.346H11.7848V195.356H7.17184V203.346ZM7.17184 195.27H11.7848V187.284H7.17184V195.27ZM7.17184 187.198H11.7848V179.208H7.17184V187.198ZM7.17184 179.122H11.7848V171.132H7.17184V179.122ZM7.17184 171.046H11.7848V163.056H7.17184V171.046ZM7.17184 162.97H11.7848V154.98H7.17184V162.97ZM7.17184 154.894H11.7848V146.904H7.17184V154.894ZM7.17184 146.818H11.7848V138.828H7.17184V146.818ZM7.17184 138.742H11.7848V130.752H7.17184V138.742ZM7.17184 130.666H11.7848V122.676H7.17184V130.666ZM7.17184 122.59H11.7848V114.6H7.17184V122.59ZM7.17184 114.514H11.7848V106.524H7.17184V114.514ZM7.17184 106.438H11.7848V98.4485H7.17184V106.438ZM7.17184 98.3625H11.7848V90.3726H7.17184V98.3625ZM2.50924 259.877H7.12419V251.888H2.51122L2.50924 259.877ZM2.50924 251.802H7.12419V243.812H2.51122L2.50924 251.802ZM2.50924 243.726H7.12419V235.753H2.51122L2.50924 243.726ZM2.50924 235.65H7.12419V227.66H2.51122L2.50924 235.65ZM2.50924 227.574H7.12419V219.587H2.51122L2.50924 227.574ZM2.50924 219.498H7.12419V211.508H2.51122L2.50924 219.498ZM2.50924 211.422H7.12419V203.422H2.51122L2.50924 211.422ZM2.50924 203.346H7.12419V195.356H2.51122L2.50924 203.346ZM2.50924 195.27H7.12419V187.284H2.51122L2.50924 195.27ZM2.50924 187.198H7.12419V179.208H2.51122L2.50924 187.198ZM2.50924 179.122H7.12419V171.132H2.51122L2.50924 179.122ZM2.50924 171.046H7.12419V163.056H2.51122L2.50924 171.046ZM2.50924 162.97H7.12419V154.98H2.51122L2.50924 162.97ZM2.50924 154.894H7.12419V146.904H2.51122L2.50924 154.894ZM2.50924 146.818H7.12419V138.828H2.51122L2.50924 146.818ZM2.50924 138.742H7.12419V130.752H2.51122L2.50924 138.742ZM2.50924 130.666H7.12419V122.676H2.51122L2.50924 130.666ZM2.50924 122.59H7.12419V114.6H2.51122L2.50924 122.59ZM2.50924 114.514H7.12419V106.524H2.51122L2.50924 114.514ZM2.50924 106.438H7.12419V98.4485H2.51122L2.50924 106.438ZM2.50924 98.3625H7.12419V90.3726H2.51122L2.50924 98.3625ZM-2.15336 259.877H2.4596V251.888H-2.15336V259.877ZM-2.15336 251.802H2.4596V243.812H-2.15336V251.802ZM-2.15336 243.726H2.4596V235.753H-2.15336V243.726ZM-2.15336 235.65H2.4596V227.66H-2.15336V235.65ZM-2.15336 227.574H2.4596V219.587H-2.15336V227.574ZM-2.15336 219.498H2.4596V211.508H-2.15336V219.498ZM-2.15336 211.422H2.4596V203.422H-2.15336V211.422ZM-2.15336 203.346H2.4596V195.356H-2.15336V203.346ZM-2.15336 195.27H2.4596V187.284H-2.15336V195.27ZM-2.15336 187.198H2.4596V179.208H-2.15336V187.198ZM-2.15336 179.122H2.4596V171.132H-2.15336V179.122ZM-2.15336 171.046H2.4596V163.056H-2.15336V171.046ZM-2.15336 162.97H2.4596V154.98H-2.15336V162.97ZM-2.15336 154.894H2.4596V146.904H-2.15336V154.894ZM-2.15336 146.818H2.4596V138.828H-2.15336V146.818ZM-2.15336 138.742H2.4596V130.752H-2.15336V138.742ZM-2.15336 130.666H2.4596V122.676H-2.15336V130.666ZM-2.15336 122.59H2.4596V114.6H-2.15336V122.59ZM-2.15336 114.514H2.4596V106.524H-2.15336V114.514ZM-2.15336 106.438H2.4596V98.4485H-2.15336V106.438ZM-2.15336 98.3625H2.4596V90.3726H-2.15336V98.3625ZM-6.81398 259.877H-2.20897V251.888H-6.81994L-6.81398 259.877ZM-6.81398 251.802H-2.20897V243.812H-6.81994L-6.81398 251.802ZM-6.81398 243.726H-2.20897V235.753H-6.81994L-6.81398 243.726ZM-6.81398 235.65H-2.20897V227.66H-6.81994L-6.81398 235.65ZM-6.81398 227.574H-2.20897V219.587H-6.81994L-6.81398 227.574ZM-6.81398 219.498H-2.20897V211.508H-6.81994L-6.81398 219.498ZM-6.81398 211.422H-2.20897V203.422H-6.81994L-6.81398 211.422ZM-6.81398 203.346H-2.20897V195.356H-6.81994L-6.81398 203.346ZM-6.81398 195.27H-2.20897V187.284H-6.81994L-6.81398 195.27ZM-6.81398 187.198H-2.20897V179.208H-6.81994L-6.81398 187.198ZM-6.81398 179.122H-2.20897V171.132H-6.81994L-6.81398 179.122ZM-6.81398 171.046H-2.20897V163.056H-6.81994L-6.81398 171.046ZM-6.81398 162.97H-2.20897V154.98H-6.81994L-6.81398 162.97ZM-6.81398 154.894H-2.20897V146.904H-6.81994L-6.81398 154.894ZM-6.81398 146.818H-2.20897V138.828H-6.81994L-6.81398 146.818ZM-6.81398 138.742H-2.20897V130.752H-6.81994L-6.81398 138.742ZM-6.81398 130.666H-2.20897V122.676H-6.81994L-6.81398 130.666ZM-6.81398 122.59H-2.20897V114.6H-6.81994L-6.81398 122.59ZM-6.81398 114.514H-2.20897V106.524H-6.81994L-6.81398 114.514ZM-6.81398 106.438H-2.20897V98.4485H-6.81994L-6.81398 106.438ZM-6.81398 98.3625H-2.20897V90.3726H-6.81994L-6.81398 98.3625ZM-11.4766 259.877H-6.86362V251.888H-11.4766V259.877ZM-11.4766 251.802H-6.86362V243.812H-11.4766V251.802ZM-11.4766 243.726H-6.86362V235.753H-11.4766V243.726ZM-11.4766 235.65H-6.86362V227.66H-11.4766V235.65ZM-11.4766 227.574H-6.86362V219.587H-11.4766V227.574ZM-11.4766 219.498H-6.86362V211.508H-11.4766V219.498ZM-11.4766 211.422H-6.86362V203.422H-11.4766V211.422ZM-11.4766 203.346H-6.86362V195.356H-11.4766V203.346ZM-11.4766 195.27H-6.86362V187.284H-11.4766V195.27ZM-11.4766 187.198H-6.86362V179.208H-11.4766V187.198ZM-11.4766 179.122H-6.86362V171.132H-11.4766V179.122ZM-11.4766 171.046H-6.86362V163.056H-11.4766V171.046ZM-11.4766 162.97H-6.86362V154.98H-11.4766V162.97ZM-11.4766 154.894H-6.86362V146.904H-11.4766V154.894ZM-11.4766 146.818H-6.86362V138.828H-11.4766V146.818ZM-11.4766 138.742H-6.86362V130.752H-11.4766V138.742ZM-11.4766 130.666H-6.86362V122.676H-11.4766V130.666ZM-11.4766 122.59H-6.86362V114.6H-11.4766V122.59ZM-11.4766 114.514H-6.86362V106.524H-11.4766V114.514ZM-11.4766 106.438H-6.86362V98.4485H-11.4766V106.438ZM-11.4766 98.3625H-6.86362V90.3726H-11.4766V98.3625ZM-16.1392 259.877H-11.5262V251.888H-16.1392V259.877ZM-16.1392 251.802H-11.5262V243.812H-16.1392V251.802ZM-16.1392 243.726H-11.5262V235.753H-16.1392V243.726ZM-16.1392 235.65H-11.5262V227.66H-16.1392V235.65ZM-16.1392 227.574H-11.5262V219.587H-16.1392V227.574ZM-16.1392 219.498H-11.5262V211.508H-16.1392V219.498ZM-16.1392 211.422H-11.5262V203.422H-16.1392V211.422ZM-16.1392 203.346H-11.5262V195.356H-16.1392V203.346ZM-16.1392 195.27H-11.5262V187.284H-16.1392V195.27ZM-16.1392 187.198H-11.5262V179.208H-16.1392V187.198ZM-16.1392 179.122H-11.5262V171.132H-16.1392V179.122ZM-16.1392 171.046H-11.5262V163.056H-16.1392V171.046ZM-16.1392 162.97H-11.5262V154.98H-16.1392V162.97ZM-16.1392 154.894H-11.5262V146.904H-16.1392V154.894ZM-16.1392 146.818H-11.5262V138.828H-16.1392V146.818ZM-16.1392 138.742H-11.5262V130.752H-16.1392V138.742ZM-16.1392 130.666H-11.5262V122.676H-16.1392V130.666ZM-16.1392 122.59H-11.5262V114.6H-16.1392V122.59ZM-16.1392 114.514H-11.5262V106.524H-16.1392V114.514ZM-16.1392 106.438H-11.5262V98.4485H-16.1392V106.438ZM-16.1392 98.3625H-11.5262V90.3726H-16.1392V98.3625ZM-20.8018 259.877H-16.1888V251.888H-20.8018V259.877ZM-20.8018 251.802H-16.1888V243.812H-20.8018V251.802ZM-20.8018 243.726H-16.1888V235.753H-20.8018V243.726ZM-20.8018 235.65H-16.1888V227.66H-20.8018V235.65ZM-20.8018 227.574H-16.1888V219.587H-20.8018V227.574ZM-20.8018 219.498H-16.1888V211.508H-20.8018V219.498ZM-20.8018 211.422H-16.1888V203.422H-20.8018V211.422ZM-20.8018 203.346H-16.1888V195.356H-20.8018V203.346ZM-20.8018 195.27H-16.1888V187.284H-20.8018V195.27ZM-20.8018 187.198H-16.1888V179.208H-20.8018V187.198ZM-20.8018 179.122H-16.1888V171.132H-20.8018V179.122ZM-20.8018 171.046H-16.1888V163.056H-20.8018V171.046ZM-20.8018 162.97H-16.1888V154.98H-20.8018V162.97ZM-20.8018 154.894H-16.1888V146.904H-20.8018V154.894ZM-20.8018 146.818H-16.1888V138.828H-20.8018V146.818ZM-20.8018 138.742H-16.1888V130.752H-20.8018V138.742ZM-20.8018 130.666H-16.1888V122.676H-20.8018V130.666ZM-20.8018 122.59H-16.1888V114.6H-20.8018V122.59ZM-20.8018 114.514H-16.1888V106.524H-20.8018V114.514ZM-20.8018 106.438H-16.1888V98.4485H-20.8018V106.438ZM-20.8018 98.3625H-16.1888V90.3726H-20.8018V98.3625ZM-25.4644 259.877H-20.8514V251.888H-25.4644V259.877ZM-25.4644 251.802H-20.8514V243.812H-25.4644V251.802ZM-25.4644 243.726H-20.8514V235.753H-25.4644V243.726ZM-25.4644 235.65H-20.8514V227.66H-25.4644V235.65ZM-25.4644 227.574H-20.8514V219.587H-25.4644V227.574ZM-25.4644 219.498H-20.8514V211.508H-25.4644V219.498ZM-25.4644 211.422H-20.8514V203.422H-25.4644V211.422ZM-25.4644 203.346H-20.8514V195.356H-25.4644V203.346ZM-25.4644 195.27H-20.8514V187.284H-25.4644V195.27ZM-25.4644 187.198H-20.8514V179.208H-25.4644V187.198ZM-25.4644 179.122H-20.8514V171.132H-25.4644V179.122ZM-25.4644 171.046H-20.8514V163.056H-25.4644V171.046ZM-25.4644 162.97H-20.8514V154.98H-25.4644V162.97ZM-25.4644 154.894H-20.8514V146.904H-25.4644V154.894ZM-25.4644 146.818H-20.8514V138.828H-25.4644V146.818ZM-25.4644 138.742H-20.8514V130.752H-25.4644V138.742ZM-25.4644 130.666H-20.8514V122.676H-25.4644V130.666ZM-25.4644 122.59H-20.8514V114.6H-25.4644V122.59ZM-25.4644 114.514H-20.8514V106.524H-25.4644V114.514ZM-25.4644 106.438H-20.8514V98.4485H-25.4644V106.438ZM-25.4644 98.3625H-20.8514V90.3726H-25.4644V98.3625ZM-30.127 259.877H-25.514V251.888H-30.127V259.877ZM-30.127 251.802H-25.514V243.812H-30.127V251.802ZM-30.127 243.726H-25.514V235.753H-30.127V243.726ZM-30.127 235.65H-25.514V227.66H-30.127V235.65ZM-30.127 227.574H-25.514V219.587H-30.127V227.574ZM-30.127 219.498H-25.514V211.508H-30.127V219.498ZM-30.127 211.422H-25.514V203.422H-30.127V211.422ZM-30.127 203.346H-25.514V195.356H-30.127V203.346ZM-30.127 195.27H-25.514V187.284H-30.127V195.27ZM-30.127 187.198H-25.514V179.208H-30.127V187.198ZM-30.127 179.122H-25.514V171.132H-30.127V179.122ZM-30.127 171.046H-25.514V163.056H-30.127V171.046ZM-30.127 162.97H-25.514V154.98H-30.127V162.97ZM-30.127 154.894H-25.514V146.904H-30.127V154.894ZM-30.127 146.818H-25.514V138.828H-30.127V146.818ZM-30.127 138.742H-25.514V130.752H-30.127V138.742ZM-30.127 130.666H-25.514V122.676H-30.127V130.666ZM-30.127 122.59H-25.514V114.6H-30.127V122.59ZM-30.127 114.514H-25.514V106.524H-30.127V114.514ZM-30.127 106.438H-25.514V98.4485H-30.127V106.438ZM-30.127 98.3625H-25.514V90.3726H-30.127V98.3625ZM-34.7896 259.877H-30.1766V251.888H-34.7896V259.877ZM-34.7896 251.802H-30.1766V243.812H-34.7896V251.802ZM-34.7896 243.726H-30.1766V235.753H-34.7896V243.726ZM-34.7896 235.65H-30.1766V227.66H-34.7896V235.65ZM-34.7896 227.574H-30.1766V219.587H-34.7896V227.574ZM-34.7896 219.498H-30.1766V211.508H-34.7896V219.498ZM-34.7896 211.422H-30.1766V203.422H-34.7896V211.422ZM-34.7896 203.346H-30.1766V195.356H-34.7896V203.346ZM-34.7896 195.27H-30.1766V187.284H-34.7896V195.27ZM-34.7896 187.198H-30.1766V179.208H-34.7896V187.198ZM-34.7896 179.122H-30.1766V171.132H-34.7896V179.122ZM-34.7896 171.046H-30.1766V163.056H-34.7896V171.046ZM-34.7896 162.97H-30.1766V154.98H-34.7896V162.97ZM-34.7896 154.894H-30.1766V146.904H-34.7896V154.894ZM-34.7896 146.818H-30.1766V138.828H-34.7896V146.818ZM-34.7896 138.742H-30.1766V130.752H-34.7896V138.742ZM-34.7896 130.666H-30.1766V122.676H-34.7896V130.666ZM-34.7896 122.59H-30.1766V114.6H-34.7896V122.59ZM-34.7896 114.514H-30.1766V106.524H-34.7896V114.514ZM-34.7896 106.438H-30.1766V98.4485H-34.7896V106.438ZM-34.7896 98.3625H-30.1766V90.3726H-34.7896V98.3625ZM-39.4522 259.877H-34.8392V251.888H-39.4522V259.877ZM-39.4522 251.802H-34.8392V243.812H-39.4522V251.802ZM-39.4522 243.726H-34.8392V235.753H-39.4522V243.726ZM-39.4522 235.65H-34.8392V227.66H-39.4522V235.65ZM-39.4522 227.574H-34.8392V219.587H-39.4522V227.574ZM-39.4522 219.498H-34.8392V211.508H-39.4522V219.498ZM-39.4522 211.422H-34.8392V203.422H-39.4522V211.422ZM-39.4522 203.346H-34.8392V195.356H-39.4522V203.346ZM-39.4522 195.27H-34.8392V187.284H-39.4522V195.27ZM-39.4522 187.198H-34.8392V179.208H-39.4522V187.198ZM-39.4522 179.122H-34.8392V171.132H-39.4522V179.122ZM-39.4522 171.046H-34.8392V163.056H-39.4522V171.046ZM-39.4522 162.97H-34.8392V154.98H-39.4522V162.97ZM-39.4522 154.894H-34.8392V146.904H-39.4522V154.894ZM-39.4522 146.818H-34.8392V138.828H-39.4522V146.818ZM-39.4522 138.742H-34.8392V130.752H-39.4522V138.742ZM-39.4522 130.666H-34.8392V122.676H-39.4522V130.666ZM-39.4522 122.59H-34.8392V114.6H-39.4522V122.59ZM-39.4522 114.514H-34.8392V106.524H-39.4522V114.514ZM-39.4522 106.438H-34.8392V98.4485H-39.4522V106.438ZM-39.4522 98.3625H-34.8392V90.3726H-39.4522V98.3625ZM-44.1088 259.877H-39.5018V251.888H-44.1088V259.877ZM-44.1088 251.802H-39.5018V243.812H-44.1088V251.802ZM-44.1088 243.726H-39.5018V235.753H-44.1088V243.726ZM-44.1088 235.65H-39.5018V227.66H-44.1088V235.65ZM-44.1088 227.574H-39.5018V219.587H-44.1088V227.574ZM-44.1088 219.498H-39.5018V211.508H-44.1088V219.498ZM-44.1088 211.422H-39.5018V203.422H-44.1088V211.422ZM-44.1088 203.346H-39.5018V195.356H-44.1088V203.346ZM-44.1088 195.27H-39.5018V187.284H-44.1088V195.27ZM-44.1088 187.198H-39.5018V179.208H-44.1088V187.198ZM-44.1088 179.122H-39.5018V171.132H-44.1088V179.122ZM-44.1088 171.046H-39.5018V163.056H-44.1088V171.046ZM-44.1088 162.97H-39.5018V154.98H-44.1088V162.97ZM-44.1088 154.894H-39.5018V146.904H-44.1088V154.894ZM-44.1088 146.818H-39.5018V138.828H-44.1088V146.818ZM-44.1088 138.759H-39.5018V130.752H-44.1088V138.759ZM-44.1088 130.683H-39.5018V122.676H-44.1088V130.683ZM-44.1088 122.594H-39.5018V114.6H-44.1088V122.594ZM-44.1088 114.518H-39.5018V106.524H-44.1088V114.518ZM-44.1088 106.428H-39.5018V98.4485H-44.1088V106.428ZM-44.1088 98.3522H-39.5018V90.3726H-44.1088V98.3522ZM-48.7714 259.867H-44.1645V251.888H-48.7774L-48.7714 259.867ZM-48.7714 251.791H-44.1645V243.812H-48.7774L-48.7714 251.791ZM-48.7714 243.715H-44.1645V235.753H-48.7774L-48.7714 243.715ZM-48.7714 235.639H-44.1645V227.66H-48.7774L-48.7714 235.639ZM-48.7714 227.563H-44.1645V219.587H-48.7774L-48.7714 227.563ZM-48.7714 219.488H-44.1645V211.508H-48.7774L-48.7714 219.488ZM-48.7714 211.412H-44.1645V203.422H-48.7774L-48.7714 211.412ZM-48.7714 203.336H-44.1645V195.356H-48.7774L-48.7714 203.336ZM-48.7714 195.26H-44.1645V187.284H-48.7774L-48.7714 195.26ZM-48.7714 187.187H-44.1645V179.208H-48.7774L-48.7714 187.187ZM-48.7714 179.111H-44.1645V171.132H-48.7774L-48.7714 179.111ZM-48.7714 171.035H-44.1645V163.056H-48.7774L-48.7714 171.035ZM-48.7714 162.96H-44.1645V154.98H-48.7774L-48.7714 162.96ZM-48.7714 154.884H-44.1645V146.904H-48.7774L-48.7714 154.884ZM-48.7714 146.808H-44.1645V138.828H-48.7774L-48.7714 146.808ZM-48.7714 138.732H-44.1645V130.752H-48.7774L-48.7714 138.732ZM-48.7714 130.656H-44.1645V122.676H-48.7774L-48.7714 130.656ZM-48.7714 122.58H-44.1645V114.6H-48.7774L-48.7714 122.58ZM-48.7714 114.504H-44.1645V106.524H-48.7774L-48.7714 114.504ZM-48.7714 106.428H-44.1645V98.4485H-48.7774L-48.7714 106.428ZM-48.7714 98.3522H-44.1645V90.3726H-48.7774L-48.7714 98.3522ZM-53.442 259.877H-48.827V251.888H-53.442V259.877ZM-53.442 251.802H-48.827V243.812H-53.442V251.802ZM-53.442 243.726H-48.827V235.753H-53.442V243.726ZM-53.442 235.65H-48.827V227.66H-53.442V235.65ZM-53.442 227.574H-48.827V219.587H-53.442V227.574ZM-53.442 219.498H-48.827V211.508H-53.442V219.498ZM-53.442 211.422H-48.827V203.422H-53.442V211.422ZM-53.442 203.346H-48.827V195.356H-53.442V203.346ZM-53.442 195.27H-48.827V187.284H-53.442V195.27ZM-53.442 187.198H-48.827V179.208H-53.442V187.198ZM-53.442 179.122H-48.827V171.132H-53.442V179.122ZM-53.442 171.046H-48.827V163.056H-53.442V171.046ZM-53.442 162.97H-48.827V154.98H-53.442V162.97ZM-53.442 154.894H-48.827V146.904H-53.442V154.894ZM-53.442 146.818H-48.827V138.828H-53.442V146.818ZM-53.442 138.759H-48.827V130.752H-53.442V138.759ZM-53.442 130.683H-48.827V122.676H-53.442V130.683ZM-53.442 122.594H-48.827V114.6H-53.442V122.594ZM-53.442 114.518H-48.827V106.524H-53.442V114.518ZM-53.442 106.428H-48.827V98.4485H-53.442V106.428ZM-53.442 98.3522H-48.827V90.3726H-53.442V98.3522ZM-58.1046 259.867H-53.4897V251.888H-58.1026L-58.1046 259.867ZM-58.1046 251.791H-53.4897V243.812H-58.1026L-58.1046 251.791ZM-58.1046 243.715H-53.4897V235.753H-58.1026L-58.1046 243.715ZM-58.1046 235.639H-53.4897V227.66H-58.1026L-58.1046 235.639ZM-58.1046 227.563H-53.4897V219.587H-58.1026L-58.1046 227.563ZM-58.1046 219.488H-53.4897V211.508H-58.1026L-58.1046 219.488ZM-58.1046 211.412H-53.4897V203.422H-58.1026L-58.1046 211.412ZM-58.1046 203.336H-53.4897V195.356H-58.1026L-58.1046 203.336ZM-58.1046 195.26H-53.4897V187.284H-58.1026L-58.1046 195.26ZM-58.1046 187.187H-53.4897V179.208H-58.1026L-58.1046 187.187ZM-58.1046 179.111H-53.4897V171.132H-58.1026L-58.1046 179.111ZM-58.1046 171.035H-53.4897V163.056H-58.1026L-58.1046 171.035ZM-58.1046 162.96H-53.4897V154.98H-58.1026L-58.1046 162.96ZM-58.1046 154.884H-53.4897V146.904H-58.1026L-58.1046 154.884ZM-58.1046 146.808H-53.4897V138.828H-58.1026L-58.1046 146.808ZM-58.1046 138.732H-53.4897V130.752H-58.1026L-58.1046 138.732ZM-58.1046 130.656H-53.4897V122.676H-58.1026L-58.1046 130.656ZM-58.1046 122.58H-53.4897V114.6H-58.1026L-58.1046 122.58ZM-58.1046 114.504H-53.4897V106.524H-58.1026L-58.1046 114.504ZM-58.1046 106.428H-53.4897V98.4485H-58.1026L-58.1046 106.428ZM-58.1046 98.3522H-53.4897V90.3726H-58.1026L-58.1046 98.3522ZM-62.7751 259.877H-58.1523V251.888H-62.7751V259.877ZM-62.7751 251.802H-58.1523V243.812H-62.7751V251.802ZM-62.7751 243.726H-58.1523V235.753H-62.7751V243.726ZM-62.7751 235.65H-58.1523V227.66H-62.7751V235.65ZM-62.7751 227.574H-58.1523V219.587H-62.7751V227.574ZM-62.7751 219.498H-58.1523V211.508H-62.7751V219.498ZM-62.7751 211.422H-58.1523V203.422H-62.7751V211.422ZM-62.7751 203.346H-58.1523V195.356H-62.7751V203.346ZM-62.7751 195.27H-58.1523V187.284H-62.7751V195.27ZM-62.7751 187.198H-58.1523V179.208H-62.7751V187.198ZM-62.7751 179.122H-58.1523V171.132H-62.7751V179.122ZM-62.7751 171.046H-58.1523V163.056H-62.7751V171.046ZM-62.7751 162.97H-58.1523V154.98H-62.7751V162.97ZM-62.7751 154.894H-58.1523V146.904H-62.7751V154.894ZM-62.7751 146.818H-58.1523V138.828H-62.7751V146.818ZM-62.7751 138.759H-58.1523V130.752H-62.7751V138.759ZM-62.7751 130.683H-58.1523V122.676H-62.7751V130.683ZM-62.7751 122.594H-58.1523V114.6H-62.7751V122.594ZM-62.7751 114.518H-58.1523V106.524H-62.7751V114.518ZM-62.7751 106.428H-58.1523V98.4485H-62.7751V106.428ZM-62.7751 98.3522H-58.1523V90.3726H-62.7751V98.3522Z" fill="url(#paint3_radial_993_2148)"/>
<defs>
<filter id="filter0_d_993_2148" x="-58.1248" y="56.7202" width="207.033" height="176.077" filterUnits="userSpaceOnUse" color-interpolation-filters="sRGB">
<feFlood flood-opacity="0" result="BackgroundImageFix"/>
<feColorMatrix in="SourceAlpha" type="matrix" values="0 0 0 0 0 0 0 0 0 0 0 0 0 0 0 0 0 0 127 0" result="hardAlpha"/>
<feOffset/>
<feGaussianBlur stdDeviation="6.5"/>
<feComposite in2="hardAlpha" operator="out"/>
<feColorMatrix type="matrix" values="0 0 0 0 1 0 0 0 0 1 0 0 0 0 1 0 0 0 1 0"/>
<feBlend mode="normal" in2="BackgroundImageFix" result="effect1_dropShadow_993_2148"/>
<feBlend mode="normal" in="SourceGraphic" in2="effect1_dropShadow_993_2148" result="shape"/>
</filter>
<radialGradient id="paint0_radial_993_2148" cx="0" cy="0" r="1" gradientUnits="userSpaceOnUse" gradientTransform="translate(20.0732 112.39) rotate(49.357) scale(98.0761)">
<stop stop-color="#5DD334"/>
<stop offset="0.71875" stop-color="#00FFE0" stop-opacity="0"/>
</radialGradient>
<radialGradient id="paint1_radial_993_2148" cx="0" cy="0" r="1" gradientUnits="userSpaceOnUse" gradientTransform="translate(132.491 92.1998) rotate(180) scale(92.1998)">
<stop stop-color="#FFFFE0"/>
<stop offset="1" stop-color="#FFFFE0" stop-opacity="0"/>
</radialGradient>
<radialGradient id="paint2_radial_993_2148" cx="0" cy="0" r="1" gradientUnits="userSpaceOnUse" gradientTransform="translate(50.983 249.979) rotate(180) scale(34.9828 34.9792)">
<stop stop-color="#FFFFE0"/>
<stop offset="1" stop-color="#FFFFE0" stop-opacity="0"/>
</radialGradient>
<radialGradient id="paint3_radial_993_2148" cx="0" cy="0" r="1" gradientUnits="userSpaceOnUse" gradientTransform="translate(-13.8337 175.125) rotate(180) scale(48.9812 84.8384)">
<stop stop-color="#FFFFE0"/>
<stop offset="1" stop-color="#FFFFE0" stop-opacity="0"/>
</radialGradient>
</defs>
</svg>
