<svg width="1109" height="962" viewBox="0 0 1109 962" fill="none" xmlns="http://www.w3.org/2000/svg">
<path d="M1058.06 306.94C1086.23 411.897 1024 519.813 919.052 547.998C814.106 576.183 706.199 513.953 678.023 409.005C649.847 304.057 541.939 241.828 436.993 270.012C332.047 298.197 269.798 406.14 297.96 511.092" stroke="white" stroke-width="0.25" stroke-miterlimit="10"/>
<path opacity="0.5" d="M0 295V855H560V295H0ZM26.6537 854.716H0.283791V828.346H26.6537V854.716ZM26.6537 828.062H0.283791V801.693H26.6537V828.062ZM26.6537 801.409H0.283791V775.096H26.6537V801.409ZM26.6537 774.755H0.283791V748.385H26.6537V774.755ZM26.6537 748.101H0.283791V721.743H26.6537V748.101ZM26.6537 721.448H0.283791V695.078H26.6537V721.448ZM26.6537 694.794H0.283791V668.39H26.6537V694.794ZM26.6537 668.14H0.283791V641.77H26.6537V668.14ZM26.6537 641.487H0.283791V615.128H26.6537V641.487ZM26.6537 614.844H0.283791V588.474H26.6537V614.844ZM26.6537 588.191H0.283791V561.821H26.6537V588.191ZM26.6537 561.537H0.283791V535.167H26.6537V561.537ZM26.6537 534.883H0.283791V508.513H26.6537V534.883ZM26.6537 508.23H0.283791V481.86H26.6537V508.23ZM26.6537 481.576H0.283791V455.206H26.6537V481.576ZM26.6537 454.922H0.283791V428.552H26.6537V454.922ZM26.6537 428.268H0.283791V401.899H26.6537V428.268ZM26.6537 401.615H0.283791V375.245H26.6537V401.615ZM26.6537 374.961H0.283791V348.591H26.6537V374.961ZM26.6537 348.307H0.283791V321.937H26.6537V348.307ZM26.6537 321.654H0.283791V295.284H26.6537V321.654ZM53.3074 854.716H26.9375V828.346H53.3074V854.716ZM53.3074 828.062H26.9375V801.693H53.3074V828.062ZM53.3074 801.409H26.9375V775.096H53.3074V801.409ZM53.3074 774.755H26.9375V748.385H53.3074V774.755ZM53.3074 748.101H26.9375V721.743H53.3074V748.101ZM53.3074 721.448H26.9375V695.078H53.3074V721.448ZM53.3074 694.794H26.9375V668.39H53.3074V694.794ZM53.3074 668.14H26.9375V641.77H53.3074V668.14ZM53.3074 641.487H26.9375V615.128H53.3074V641.487ZM53.3074 614.844H26.9375V588.474H53.3074V614.844ZM53.3074 588.191H26.9375V561.821H53.3074V588.191ZM53.3074 561.537H26.9375V535.167H53.3074V561.537ZM53.3074 534.883H26.9375V508.513H53.3074V534.883ZM53.3074 508.23H26.9375V481.86H53.3074V508.23ZM53.3074 481.576H26.9375V455.206H53.3074V481.576ZM53.3074 454.922H26.9375V428.552H53.3074V454.922ZM53.3074 428.268H26.9375V401.899H53.3074V428.268ZM53.3074 401.615H26.9375V375.245H53.3074V401.615ZM53.3074 374.961H26.9375V348.591H53.3074V374.961ZM53.3074 348.307H26.9375V321.937H53.3074V348.307ZM53.3074 321.654H26.9375V295.284H53.3074V321.654ZM79.9611 854.716H53.5912V828.346H79.9611V854.716ZM79.9611 828.062H53.5912V801.693H79.9611V828.062ZM79.9611 801.409H53.5912V775.096H79.9611V801.409ZM79.9611 774.755H53.5912V748.385H79.9611V774.755ZM79.9611 748.101H53.5912V721.743H79.9611V748.101ZM79.9611 721.448H53.5912V695.078H79.9611V721.448ZM79.9611 694.794H53.5912V668.39H79.9611V694.794ZM79.9611 668.14H53.5912V641.77H79.9611V668.14ZM79.9611 641.487H53.5912V615.128H79.9611V641.487ZM79.9611 614.844H53.5912V588.474H79.9611V614.844ZM79.9611 588.191H53.5912V561.821H79.9611V588.191ZM79.9611 561.537H53.5912V535.167H79.9611V561.537ZM79.9611 534.883H53.5912V508.513H79.9611V534.883ZM79.9611 508.23H53.5912V481.86H79.9611V508.23ZM79.9611 481.576H53.5912V455.206H79.9611V481.576ZM79.9611 454.922H53.5912V428.552H79.9611V454.922ZM79.9611 428.268H53.5912V401.899H79.9611V428.268ZM79.9611 401.615H53.5912V375.245H79.9611V401.615ZM79.9611 374.961H53.5912V348.591H79.9611V374.961ZM79.9611 348.307H53.5912V321.937H79.9611V348.307ZM79.9611 321.654H53.5912V295.284H79.9611V321.654ZM106.615 854.716H80.2449V828.346H106.615V854.716ZM106.615 828.062H80.2449V801.693H106.615V828.062ZM106.615 801.409H80.2449V775.096H106.615V801.409ZM106.615 774.755H80.2449V748.385H106.615V774.755ZM106.615 748.101H80.2449V721.743H106.615V748.101ZM106.615 721.448H80.2449V695.078H106.615V721.448ZM106.615 694.794H80.2449V668.39H106.615V694.794ZM106.615 668.14H80.2449V641.77H106.615V668.14ZM106.615 641.487H80.2449V615.128H106.615V641.487ZM106.615 614.844H80.2449V588.474H106.615V614.844ZM106.615 588.191H80.2449V561.821H106.615V588.191ZM106.615 561.537H80.2449V535.167H106.615V561.537ZM106.615 534.883H80.2449V508.513H106.615V534.883ZM106.615 508.23H80.2449V481.86H106.615V508.23ZM106.615 481.576H80.2449V455.206H106.615V481.576ZM106.615 454.922H80.2449V428.552H106.615V454.922ZM106.615 428.268H80.2449V401.899H106.615V428.268ZM106.615 401.615H80.2449V375.245H106.615V401.615ZM106.615 374.961H80.2449V348.591H106.615V374.961ZM106.615 348.307H80.2449V321.937H106.615V348.307ZM106.615 321.654H80.2449V295.284H106.615V321.654ZM133.268 854.716H106.899V828.346H133.268V854.716ZM133.268 828.062H106.899V801.693H133.268V828.062ZM133.268 801.409H106.899V775.096H133.268V801.409ZM133.268 774.755H106.899V748.385H133.268V774.755ZM133.268 748.101H106.899V721.743H133.268V748.101ZM133.268 721.448H106.899V695.078H133.268V721.448ZM133.268 694.794H106.899V668.39H133.268V694.794ZM133.268 668.14H106.899V641.77H133.268V668.14ZM133.268 641.487H106.899V615.128H133.268V641.487ZM133.268 614.844H106.899V588.474H133.268V614.844ZM133.268 588.191H106.899V561.821H133.268V588.191ZM133.268 561.537H106.899V535.167H133.268V561.537ZM133.268 534.883H106.899V508.513H133.268V534.883ZM133.268 508.23H106.899V481.86H133.268V508.23ZM133.268 481.576H106.899V455.206H133.268V481.576ZM133.268 454.922H106.899V428.552H133.268V454.922ZM133.268 428.268H106.899V401.899H133.268V428.268ZM133.268 401.615H106.899V375.245H133.268V401.615ZM133.268 374.961H106.899V348.591H133.268V374.961ZM133.268 348.307H106.899V321.937H133.268V348.307ZM133.268 321.654H106.899V295.284H133.268V321.654ZM159.922 854.716H133.552V828.346H159.922V854.716ZM159.922 828.062H133.552V801.693H159.922V828.062ZM159.922 801.409H133.552V775.096H159.922V801.409ZM159.922 774.755H133.552V748.385H159.922V774.755ZM159.922 748.101H133.552V721.743H159.922V748.101ZM159.922 721.448H133.552V695.078H159.922V721.448ZM159.922 694.794H133.552V668.39H159.922V694.794ZM159.922 668.14H133.552V641.77H159.922V668.14ZM159.922 641.487H133.552V615.128H159.922V641.487ZM159.922 614.844H133.552V588.474H159.922V614.844ZM159.922 588.191H133.552V561.821H159.922V588.191ZM159.922 561.537H133.552V535.167H159.922V561.537ZM159.922 534.883H133.552V508.513H159.922V534.883ZM159.922 508.23H133.552V481.86H159.922V508.23ZM159.922 481.576H133.552V455.206H159.922V481.576ZM159.922 454.922H133.552V428.552H159.922V454.922ZM159.922 428.268H133.552V401.899H159.922V428.268ZM159.922 401.615H133.552V375.245H159.922V401.615ZM159.922 374.961H133.552V348.591H159.922V374.961ZM159.922 348.307H133.552V321.937H159.922V348.307ZM159.922 321.654H133.552V295.284H159.922V321.654ZM186.576 854.716H160.195V828.346H186.565L186.576 854.716ZM186.576 828.062H160.195V801.693H186.565L186.576 828.062ZM186.576 801.409H160.195V775.096H186.565L186.576 801.409ZM186.576 774.755H160.195V748.385H186.565L186.576 774.755ZM186.576 748.101H160.195V721.743H186.565L186.576 748.101ZM186.576 721.448H160.195V695.078H186.565L186.576 721.448ZM186.576 694.794H160.195V668.39H186.565L186.576 694.794ZM186.576 668.14H160.195V641.77H186.565L186.576 668.14ZM186.576 641.487H160.195V615.128H186.565L186.576 641.487ZM186.576 614.844H160.195V588.474H186.565L186.576 614.844ZM186.576 588.191H160.195V561.821H186.565L186.576 588.191ZM186.576 561.537H160.195V535.167H186.565L186.576 561.537ZM186.576 534.883H160.195V508.513H186.565L186.576 534.883ZM186.576 508.23H160.195V481.86H186.565L186.576 508.23ZM186.576 481.576H160.195V455.206H186.565L186.576 481.576ZM186.576 454.922H160.195V428.552H186.565L186.576 454.922ZM186.576 428.268H160.195V401.899H186.565L186.576 428.268ZM186.576 401.615H160.195V375.245H186.565L186.576 401.615ZM186.576 374.961H160.195V348.591H186.565L186.576 374.961ZM186.576 348.307H160.195V321.937H186.565L186.576 348.307ZM186.576 321.654H160.195V295.284H186.565L186.576 321.654ZM213.23 854.716H186.86V828.346H213.23V854.716ZM213.23 828.062H186.86V801.693H213.23V828.062ZM213.23 801.409H186.86V775.096H213.23V801.409ZM213.23 774.755H186.86V748.385H213.23V774.755ZM213.23 748.101H186.86V721.743H213.23V748.101ZM213.23 721.448H186.86V695.078H213.23V721.448ZM213.23 694.794H186.86V668.39H213.23V694.794ZM213.23 668.14H186.86V641.77H213.23V668.14ZM213.23 641.487H186.86V615.128H213.23V641.487ZM213.23 614.844H186.86V588.474H213.23V614.844ZM213.23 588.191H186.86V561.821H213.23V588.191ZM213.23 561.537H186.86V535.167H213.23V561.537ZM213.23 534.883H186.86V508.513H213.23V534.883ZM213.23 508.23H186.86V481.86H213.23V508.23ZM213.23 481.576H186.86V455.206H213.23V481.576ZM213.23 454.922H186.86V428.552H213.23V454.922ZM213.23 428.268H186.86V401.899H213.23V428.268ZM213.23 401.615H186.86V375.245H213.23V401.615ZM213.23 374.961H186.86V348.591H213.23V374.961ZM213.23 348.307H186.86V321.937H213.23V348.307ZM213.23 321.654H186.86V295.284H213.23V321.654ZM239.872 854.716H213.547V828.346H239.906L239.872 854.716ZM239.872 828.062H213.547V801.693H239.906L239.872 828.062ZM239.872 801.409H213.547V775.096H239.906L239.872 801.409ZM239.872 774.755H213.547V748.385H239.906L239.872 774.755ZM239.872 748.101H213.547V721.743H239.906L239.872 748.101ZM239.872 721.448H213.547V695.078H239.906L239.872 721.448ZM239.872 694.794H213.547V668.39H239.906L239.872 694.794ZM239.872 668.14H213.547V641.77H239.906L239.872 668.14ZM239.872 641.487H213.547V615.128H239.906L239.872 641.487ZM239.872 614.844H213.547V588.474H239.906L239.872 614.844ZM239.872 588.191H213.547V561.821H239.906L239.872 588.191ZM239.872 561.537H213.547V535.167H239.906L239.872 561.537ZM239.872 534.883H213.547V508.513H239.906L239.872 534.883ZM239.872 508.23H213.547V481.86H239.906L239.872 508.23ZM239.872 481.576H213.547V455.206H239.906L239.872 481.576ZM239.872 454.922H213.547V428.552H239.906L239.872 454.922ZM239.872 428.268H213.547V401.899H239.906L239.872 428.268ZM239.872 401.615H213.547V375.245H239.906L239.872 401.615ZM239.872 374.961H213.547V348.591H239.906L239.872 374.961ZM239.872 348.307H213.547V321.937H239.906L239.872 348.307ZM239.872 321.654H213.547V295.284H239.906L239.872 321.654ZM266.526 854.716H240.156V828.346H266.526V854.716ZM266.526 828.062H240.156V801.693H266.526V828.062ZM266.526 801.409H240.156V775.096H266.526V801.409ZM266.526 774.755H240.156V748.385H266.526V774.755ZM266.526 748.101H240.156V721.743H266.526V748.101ZM266.526 721.448H240.156V695.078H266.526V721.448ZM266.526 694.794H240.156V668.39H266.526V694.794ZM266.526 668.14H240.156V641.77H266.526V668.14ZM266.526 641.487H240.156V615.128H266.526V641.487ZM266.526 614.844H240.156V588.474H266.526V614.844ZM266.526 588.191H240.156V561.821H266.526V588.191ZM266.526 561.537H240.156V535.167H266.526V561.537ZM266.526 534.883H240.156V508.513H266.526V534.883ZM266.526 508.23H240.156V481.86H266.526V508.23ZM266.526 481.576H240.156V455.206H266.526V481.576ZM266.526 454.922H240.156V428.552H266.526V454.922ZM266.526 428.268H240.156V401.899H266.526V428.268ZM266.526 401.615H240.156V375.245H266.526V401.615ZM266.526 374.961H240.156V348.591H266.526V374.961ZM266.526 348.307H240.156V321.937H266.526V348.307ZM266.526 321.654H240.156V295.284H266.526V321.654ZM293.179 854.716H266.809V828.346H293.179V854.716ZM293.179 828.062H266.809V801.693H293.179V828.062ZM293.179 801.409H266.809V775.096H293.179V801.409ZM293.179 774.755H266.809V748.385H293.179V774.755ZM293.179 748.101H266.809V721.743H293.179V748.101ZM293.179 721.448H266.809V695.078H293.179V721.448ZM293.179 694.794H266.809V668.39H293.179V694.794ZM293.179 668.14H266.809V641.77H293.179V668.14ZM293.179 641.487H266.809V615.128H293.179V641.487ZM293.179 614.844H266.809V588.474H293.179V614.844ZM293.179 588.191H266.809V561.821H293.179V588.191ZM293.179 561.537H266.809V535.167H293.179V561.537ZM293.179 534.883H266.809V508.513H293.179V534.883ZM293.179 508.23H266.809V481.86H293.179V508.23ZM293.179 481.576H266.809V455.206H293.179V481.576ZM293.179 454.922H266.809V428.552H293.179V454.922ZM293.179 428.268H266.809V401.899H293.179V428.268ZM293.179 401.615H266.809V375.245H293.179V401.615ZM293.179 374.961H266.809V348.591H293.179V374.961ZM293.179 348.307H266.809V321.937H293.179V348.307ZM293.179 321.654H266.809V295.284H293.179V321.654ZM319.833 854.716H293.463V828.346H319.833V854.716ZM319.833 828.062H293.463V801.693H319.833V828.062ZM319.833 801.409H293.463V775.096H319.833V801.409ZM319.833 774.755H293.463V748.385H319.833V774.755ZM319.833 748.101H293.463V721.743H319.833V748.101ZM319.833 721.448H293.463V695.078H319.833V721.448ZM319.833 694.794H293.463V668.39H319.833V694.794ZM319.833 668.14H293.463V641.77H319.833V668.14ZM319.833 641.487H293.463V615.128H319.833V641.487ZM319.833 614.844H293.463V588.474H319.833V614.844ZM319.833 588.191H293.463V561.821H319.833V588.191ZM319.833 561.537H293.463V535.167H319.833V561.537ZM319.833 534.883H293.463V508.513H319.833V534.883ZM319.833 508.23H293.463V481.86H319.833V508.23ZM319.833 481.576H293.463V455.206H319.833V481.576ZM319.833 454.922H293.463V428.552H319.833V454.922ZM319.833 428.268H293.463V401.899H319.833V428.268ZM319.833 401.615H293.463V375.245H319.833V401.615ZM319.833 374.961H293.463V348.591H319.833V374.961ZM319.833 348.307H293.463V321.937H319.833V348.307ZM319.833 321.654H293.463V295.284H319.833V321.654ZM346.487 854.716H320.117V828.346H346.487V854.716ZM346.487 828.062H320.117V801.693H346.487V828.062ZM346.487 801.409H320.117V775.096H346.487V801.409ZM346.487 774.755H320.117V748.385H346.487V774.755ZM346.487 748.101H320.117V721.743H346.487V748.101ZM346.487 721.448H320.117V695.078H346.487V721.448ZM346.487 694.794H320.117V668.39H346.487V694.794ZM346.487 668.14H320.117V641.77H346.487V668.14ZM346.487 641.487H320.117V615.128H346.487V641.487ZM346.487 614.844H320.117V588.474H346.487V614.844ZM346.487 588.191H320.117V561.821H346.487V588.191ZM346.487 561.537H320.117V535.167H346.487V561.537ZM346.487 534.883H320.117V508.513H346.487V534.883ZM346.487 508.23H320.117V481.86H346.487V508.23ZM346.487 481.576H320.117V455.206H346.487V481.576ZM346.487 454.922H320.117V428.552H346.487V454.922ZM346.487 428.268H320.117V401.899H346.487V428.268ZM346.487 401.615H320.117V375.245H346.487V401.615ZM346.487 374.961H320.117V348.591H346.487V374.961ZM346.487 348.307H320.117V321.937H346.487V348.307ZM346.487 321.654H320.117V295.284H346.487V321.654ZM373.14 854.716H346.77V828.346H373.14V854.716ZM373.14 828.062H346.77V801.693H373.14V828.062ZM373.14 801.409H346.77V775.096H373.14V801.409ZM373.14 774.755H346.77V748.385H373.14V774.755ZM373.14 748.101H346.77V721.743H373.14V748.101ZM373.14 721.448H346.77V695.078H373.14V721.448ZM373.14 694.794H346.77V668.39H373.14V694.794ZM373.14 668.14H346.77V641.77H373.14V668.14ZM373.14 641.487H346.77V615.128H373.14V641.487ZM373.14 614.844H346.77V588.474H373.14V614.844ZM373.14 588.191H346.77V561.821H373.14V588.191ZM373.14 561.537H346.77V535.167H373.14V561.537ZM373.14 534.883H346.77V508.513H373.14V534.883ZM373.14 508.23H346.77V481.86H373.14V508.23ZM373.14 481.576H346.77V455.206H373.14V481.576ZM373.14 454.922H346.77V428.552H373.14V454.922ZM373.14 428.268H346.77V401.899H373.14V428.268ZM373.14 401.615H346.77V375.245H373.14V401.615ZM373.14 374.961H346.77V348.591H373.14V374.961ZM373.14 348.307H346.77V321.937H373.14V348.307ZM373.14 321.654H346.77V295.284H373.14V321.654ZM399.794 854.716H373.424V828.346H399.794V854.716ZM399.794 828.062H373.424V801.693H399.794V828.062ZM399.794 801.409H373.424V775.096H399.794V801.409ZM399.794 774.755H373.424V748.385H399.794V774.755ZM399.794 748.101H373.424V721.743H399.794V748.101ZM399.794 721.448H373.424V695.078H399.794V721.448ZM399.794 694.794H373.424V668.39H399.794V694.794ZM399.794 668.14H373.424V641.77H399.794V668.14ZM399.794 641.487H373.424V615.128H399.794V641.487ZM399.794 614.844H373.424V588.474H399.794V614.844ZM399.794 588.191H373.424V561.821H399.794V588.191ZM399.794 561.537H373.424V535.167H399.794V561.537ZM399.794 534.883H373.424V508.513H399.794V534.883ZM399.794 508.23H373.424V481.86H399.794V508.23ZM399.794 481.576H373.424V455.206H399.794V481.576ZM399.794 454.922H373.424V428.552H399.794V454.922ZM399.794 428.268H373.424V401.899H399.794V428.268ZM399.794 401.615H373.424V375.245H399.794V401.615ZM399.794 374.961H373.424V348.591H399.794V374.961ZM399.794 348.307H373.424V321.937H399.794V348.307ZM399.794 321.654H373.424V295.284H399.794V321.654ZM426.448 854.716H400.078V828.346H426.448V854.716ZM426.448 828.062H400.078V801.693H426.448V828.062ZM426.448 801.409H400.078V775.096H426.448V801.409ZM426.448 774.755H400.078V748.385H426.448V774.755ZM426.448 748.101H400.078V721.743H426.448V748.101ZM426.448 721.448H400.078V695.078H426.448V721.448ZM426.448 694.794H400.078V668.39H426.448V694.794ZM426.448 668.14H400.078V641.77H426.448V668.14ZM426.448 641.487H400.078V615.128H426.448V641.487ZM426.448 614.844H400.078V588.474H426.448V614.844ZM426.448 588.191H400.078V561.821H426.448V588.191ZM426.448 561.537H400.078V535.167H426.448V561.537ZM426.448 534.883H400.078V508.513H426.448V534.883ZM426.448 508.23H400.078V481.86H426.448V508.23ZM426.448 481.576H400.078V455.206H426.448V481.576ZM426.448 454.922H400.078V428.552H426.448V454.922ZM426.448 428.268H400.078V401.899H426.448V428.268ZM426.448 401.615H400.078V375.245H426.448V401.615ZM426.448 374.961H400.078V348.591H426.448V374.961ZM426.448 348.307H400.078V321.937H426.448V348.307ZM426.448 321.654H400.078V295.284H426.448V321.654ZM453.067 854.716H426.732V828.346H453.067V854.716ZM453.067 828.062H426.732V801.693H453.067V828.062ZM453.067 801.409H426.732V775.096H453.067V801.409ZM453.067 774.755H426.732V748.385H453.067V774.755ZM453.067 748.101H426.732V721.743H453.067V748.101ZM453.067 721.448H426.732V695.078H453.067V721.448ZM453.067 694.794H426.732V668.39H453.067V694.794ZM453.067 668.14H426.732V641.77H453.067V668.14ZM453.067 641.487H426.732V615.128H453.067V641.487ZM453.067 614.844H426.732V588.474H453.067V614.844ZM453.067 588.191H426.732V561.821H453.067V588.191ZM453.067 561.537H426.732V535.167H453.067V561.537ZM453.067 534.883H426.732V508.513H453.067V534.883ZM453.067 508.23H426.732V481.86H453.067V508.23ZM453.067 481.576H426.732V455.206H453.067V481.576ZM453.067 454.979H426.732V428.552H453.067V454.979ZM453.067 428.325H426.732V401.899H453.067V428.325ZM453.067 401.626H426.732V375.245H453.067V401.626ZM453.067 374.972H426.732V348.591H453.067V374.972ZM453.067 348.273H426.732V321.937H453.067V348.273ZM453.067 321.62H426.732V295.284H453.067V321.62ZM479.721 854.682H453.385V828.346H479.755L479.721 854.682ZM479.721 828.028H453.385V801.693H479.755L479.721 828.028ZM479.721 801.375H453.385V775.096H479.755L479.721 801.375ZM479.721 774.721H453.385V748.385H479.755L479.721 774.721ZM479.721 748.067H453.385V721.743H479.755L479.721 748.067ZM479.721 721.414H453.385V695.078H479.755L479.721 721.414ZM479.721 694.76H453.385V668.39H479.755L479.721 694.76ZM479.721 668.106H453.385V641.77H479.755L479.721 668.106ZM479.721 641.453H453.385V615.128H479.755L479.721 641.453ZM479.721 614.81H453.385V588.474H479.755L479.721 614.81ZM479.721 588.157H453.385V561.821H479.755L479.721 588.157ZM479.721 561.503H453.385V535.167H479.755L479.721 561.503ZM479.721 534.849H453.385V508.513H479.755L479.721 534.849ZM479.721 508.195H453.385V481.86H479.755L479.721 508.195ZM479.721 481.542H453.385V455.206H479.755L479.721 481.542ZM479.721 454.888H453.385V428.552H479.755L479.721 454.888ZM479.721 428.234H453.385V401.899H479.755L479.721 428.234ZM479.721 401.581H453.385V375.245H479.755L479.721 401.581ZM479.721 374.927H453.385V348.591H479.755L479.721 374.927ZM479.721 348.273H453.385V321.937H479.755L479.721 348.273ZM479.721 321.62H453.385V295.284H479.755L479.721 321.62ZM506.42 854.716H480.039V828.346H506.42V854.716ZM506.42 828.062H480.039V801.693H506.42V828.062ZM506.42 801.409H480.039V775.096H506.42V801.409ZM506.42 774.755H480.039V748.385H506.42V774.755ZM506.42 748.101H480.039V721.743H506.42V748.101ZM506.42 721.448H480.039V695.078H506.42V721.448ZM506.42 694.794H480.039V668.39H506.42V694.794ZM506.42 668.14H480.039V641.77H506.42V668.14ZM506.42 641.487H480.039V615.128H506.42V641.487ZM506.42 614.844H480.039V588.474H506.42V614.844ZM506.42 588.191H480.039V561.821H506.42V588.191ZM506.42 561.537H480.039V535.167H506.42V561.537ZM506.42 534.883H480.039V508.513H506.42V534.883ZM506.42 508.23H480.039V481.86H506.42V508.23ZM506.42 481.576H480.039V455.206H506.42V481.576ZM506.42 454.979H480.039V428.552H506.42V454.979ZM506.42 428.325H480.039V401.899H506.42V428.325ZM506.42 401.626H480.039V375.245H506.42V401.626ZM506.42 374.972H480.039V348.591H506.42V374.972ZM506.42 348.273H480.039V321.937H506.42V348.273ZM506.42 321.62H480.039V295.284H506.42V321.62ZM533.074 854.682H506.693V828.346H533.062L533.074 854.682ZM533.074 828.028H506.693V801.693H533.062L533.074 828.028ZM533.074 801.375H506.693V775.096H533.062L533.074 801.375ZM533.074 774.721H506.693V748.385H533.062L533.074 774.721ZM533.074 748.067H506.693V721.743H533.062L533.074 748.067ZM533.074 721.414H506.693V695.078H533.062L533.074 721.414ZM533.074 694.76H506.693V668.39H533.062L533.074 694.76ZM533.074 668.106H506.693V641.77H533.062L533.074 668.106ZM533.074 641.453H506.693V615.128H533.062L533.074 641.453ZM533.074 614.81H506.693V588.474H533.062L533.074 614.81ZM533.074 588.157H506.693V561.821H533.062L533.074 588.157ZM533.074 561.503H506.693V535.167H533.062L533.074 561.503ZM533.074 534.849H506.693V508.513H533.062L533.074 534.849ZM533.074 508.195H506.693V481.86H533.062L533.074 508.195ZM533.074 481.542H506.693V455.206H533.062L533.074 481.542ZM533.074 454.888H506.693V428.552H533.062L533.074 454.888ZM533.074 428.234H506.693V401.899H533.062L533.074 428.234ZM533.074 401.581H506.693V375.245H533.062L533.074 401.581ZM533.074 374.927H506.693V348.591H533.062L533.074 374.927ZM533.074 348.273H506.693V321.937H533.062L533.074 348.273ZM533.074 321.62H506.693V295.284H533.062L533.074 321.62ZM559.773 854.716H533.346V828.346H559.773V854.716ZM559.773 828.062H533.346V801.693H559.773V828.062ZM559.773 801.409H533.346V775.096H559.773V801.409ZM559.773 774.755H533.346V748.385H559.773V774.755ZM559.773 748.101H533.346V721.743H559.773V748.101ZM559.773 721.448H533.346V695.078H559.773V721.448ZM559.773 694.794H533.346V668.39H559.773V694.794ZM559.773 668.14H533.346V641.77H559.773V668.14ZM559.773 641.487H533.346V615.128H559.773V641.487ZM559.773 614.844H533.346V588.474H559.773V614.844ZM559.773 588.191H533.346V561.821H559.773V588.191ZM559.773 561.537H533.346V535.167H559.773V561.537ZM559.773 534.883H533.346V508.513H559.773V534.883ZM559.773 508.23H533.346V481.86H559.773V508.23ZM559.773 481.576H533.346V455.206H559.773V481.576ZM559.773 454.979H533.346V428.552H559.773V454.979ZM559.773 428.325H533.346V401.899H559.773V428.325ZM559.773 401.626H533.346V375.245H559.773V401.626ZM559.773 374.972H533.346V348.591H559.773V374.972ZM559.773 348.273H533.346V321.937H559.773V348.273ZM559.773 321.62H533.346V295.284H559.773V321.62Z" fill="url(#paint0_radial_1533_1553)"/>
<path d="M62.1686 506C-0.677353 568.792 -0.727596 670.634 62.0514 733.485C124.83 796.336 226.663 796.386 289.509 733.602C352.355 670.818 454.188 670.868 516.967 733.719C579.746 796.57 579.695 898.436 516.858 961.229" stroke="#FFFFE0" stroke-width="0.25" stroke-miterlimit="10"/>
<defs>
<radialGradient id="paint0_radial_1533_1553" cx="0" cy="0" r="1" gradientUnits="userSpaceOnUse" gradientTransform="translate(280 575) scale(280)">
<stop stop-color="#FFFFE0"/>
<stop offset="1" stop-color="#FFFFE0" stop-opacity="0"/>
</radialGradient>
</defs>
</svg>
