<svg width="293" height="223" viewBox="0 0 293 223" fill="none" xmlns="http://www.w3.org/2000/svg">
<path opacity="0.5" d="M0 0V204.052H204.052V0H0ZM9.71202 203.948H0.103407V194.34H9.71202V203.948ZM9.71202 194.236H0.103407V184.628H9.71202V194.236ZM9.71202 184.524H0.103407V174.936H9.71202V184.524ZM9.71202 174.812H0.103407V165.204H9.71202V174.812ZM9.71202 165.1H0.103407V155.496H9.71202V165.1ZM9.71202 155.388H0.103407V145.78H9.71202V155.388ZM9.71202 145.676H0.103407V136.055H9.71202V145.676ZM9.71202 135.964H0.103407V126.356H9.71202V135.964ZM9.71202 126.252H0.103407V116.648H9.71202V126.252ZM9.71202 116.544H0.103407V106.936H9.71202V116.544ZM9.71202 106.832H0.103407V97.2237H9.71202V106.832ZM9.71202 97.1203H0.103407V87.5117H9.71202V97.1203ZM9.71202 87.4083H0.103407V77.7996H9.71202V87.4083ZM9.71202 77.6962H0.103407V68.0876H9.71202V77.6962ZM9.71202 67.9842H0.103407V58.3756H9.71202V67.9842ZM9.71202 58.2722H0.103407V48.6636H9.71202V58.2722ZM9.71202 48.5601H0.103407V38.9515H9.71202V48.5601ZM9.71202 38.8481H0.103407V29.2395H9.71202V38.8481ZM9.71202 29.1361H0.103407V19.5275H9.71202V29.1361ZM9.71202 19.4241H0.103407V9.81544H9.71202V19.4241ZM9.71202 9.71203H0.103407V0.103407H9.71202V9.71203ZM19.4241 203.948H9.81543V194.34H19.4241V203.948ZM19.4241 194.236H9.81543V184.628H19.4241V194.236ZM19.4241 184.524H9.81543V174.936H19.4241V184.524ZM19.4241 174.812H9.81543V165.204H19.4241V174.812ZM19.4241 165.1H9.81543V155.496H19.4241V165.1ZM19.4241 155.388H9.81543V145.78H19.4241V155.388ZM19.4241 145.676H9.81543V136.055H19.4241V145.676ZM19.4241 135.964H9.81543V126.356H19.4241V135.964ZM19.4241 126.252H9.81543V116.648H19.4241V126.252ZM19.4241 116.544H9.81543V106.936H19.4241V116.544ZM19.4241 106.832H9.81543V97.2237H19.4241V106.832ZM19.4241 97.1203H9.81543V87.5117H19.4241V97.1203ZM19.4241 87.4083H9.81543V77.7996H19.4241V87.4083ZM19.4241 77.6962H9.81543V68.0876H19.4241V77.6962ZM19.4241 67.9842H9.81543V58.3756H19.4241V67.9842ZM19.4241 58.2722H9.81543V48.6636H19.4241V58.2722ZM19.4241 48.5601H9.81543V38.9515H19.4241V48.5601ZM19.4241 38.8481H9.81543V29.2395H19.4241V38.8481ZM19.4241 29.1361H9.81543V19.5275H19.4241V29.1361ZM19.4241 19.4241H9.81543V9.81544H19.4241V19.4241ZM19.4241 9.71203H9.81543V0.103407H19.4241V9.71203ZM29.1361 203.948H19.5275V194.34H29.1361V203.948ZM29.1361 194.236H19.5275V184.628H29.1361V194.236ZM29.1361 184.524H19.5275V174.936H29.1361V184.524ZM29.1361 174.812H19.5275V165.204H29.1361V174.812ZM29.1361 165.1H19.5275V155.496H29.1361V165.1ZM29.1361 155.388H19.5275V145.78H29.1361V155.388ZM29.1361 145.676H19.5275V136.055H29.1361V145.676ZM29.1361 135.964H19.5275V126.356H29.1361V135.964ZM29.1361 126.252H19.5275V116.648H29.1361V126.252ZM29.1361 116.544H19.5275V106.936H29.1361V116.544ZM29.1361 106.832H19.5275V97.2237H29.1361V106.832ZM29.1361 97.1203H19.5275V87.5117H29.1361V97.1203ZM29.1361 87.4083H19.5275V77.7996H29.1361V87.4083ZM29.1361 77.6962H19.5275V68.0876H29.1361V77.6962ZM29.1361 67.9842H19.5275V58.3756H29.1361V67.9842ZM29.1361 58.2722H19.5275V48.6636H29.1361V58.2722ZM29.1361 48.5601H19.5275V38.9515H29.1361V48.5601ZM29.1361 38.8481H19.5275V29.2395H29.1361V38.8481ZM29.1361 29.1361H19.5275V19.5275H29.1361V29.1361ZM29.1361 19.4241H19.5275V9.81544H29.1361V19.4241ZM29.1361 9.71203H19.5275V0.103407H29.1361V9.71203ZM38.8481 203.948H29.2395V194.34H38.8481V203.948ZM38.8481 194.236H29.2395V184.628H38.8481V194.236ZM38.8481 184.524H29.2395V174.936H38.8481V184.524ZM38.8481 174.812H29.2395V165.204H38.8481V174.812ZM38.8481 165.1H29.2395V155.496H38.8481V165.1ZM38.8481 155.388H29.2395V145.78H38.8481V155.388ZM38.8481 145.676H29.2395V136.055H38.8481V145.676ZM38.8481 135.964H29.2395V126.356H38.8481V135.964ZM38.8481 126.252H29.2395V116.648H38.8481V126.252ZM38.8481 116.544H29.2395V106.936H38.8481V116.544ZM38.8481 106.832H29.2395V97.2237H38.8481V106.832ZM38.8481 97.1203H29.2395V87.5117H38.8481V97.1203ZM38.8481 87.4083H29.2395V77.7996H38.8481V87.4083ZM38.8481 77.6962H29.2395V68.0876H38.8481V77.6962ZM38.8481 67.9842H29.2395V58.3756H38.8481V67.9842ZM38.8481 58.2722H29.2395V48.6636H38.8481V58.2722ZM38.8481 48.5601H29.2395V38.9515H38.8481V48.5601ZM38.8481 38.8481H29.2395V29.2395H38.8481V38.8481ZM38.8481 29.1361H29.2395V19.5275H38.8481V29.1361ZM38.8481 19.4241H29.2395V9.81544H38.8481V19.4241ZM38.8481 9.71203H29.2395V0.103407H38.8481V9.71203ZM48.5601 203.948H38.9515V194.34H48.5601V203.948ZM48.5601 194.236H38.9515V184.628H48.5601V194.236ZM48.5601 184.524H38.9515V174.936H48.5601V184.524ZM48.5601 174.812H38.9515V165.204H48.5601V174.812ZM48.5601 165.1H38.9515V155.496H48.5601V165.1ZM48.5601 155.388H38.9515V145.78H48.5601V155.388ZM48.5601 145.676H38.9515V136.055H48.5601V145.676ZM48.5601 135.964H38.9515V126.356H48.5601V135.964ZM48.5601 126.252H38.9515V116.648H48.5601V126.252ZM48.5601 116.544H38.9515V106.936H48.5601V116.544ZM48.5601 106.832H38.9515V97.2237H48.5601V106.832ZM48.5601 97.1203H38.9515V87.5117H48.5601V97.1203ZM48.5601 87.4083H38.9515V77.7996H48.5601V87.4083ZM48.5601 77.6962H38.9515V68.0876H48.5601V77.6962ZM48.5601 67.9842H38.9515V58.3756H48.5601V67.9842ZM48.5601 58.2722H38.9515V48.6636H48.5601V58.2722ZM48.5601 48.5601H38.9515V38.9515H48.5601V48.5601ZM48.5601 38.8481H38.9515V29.2395H48.5601V38.8481ZM48.5601 29.1361H38.9515V19.5275H48.5601V29.1361ZM48.5601 19.4241H38.9515V9.81544H48.5601V19.4241ZM48.5601 9.71203H38.9515V0.103407H48.5601V9.71203ZM58.2722 203.948H48.6635V194.34H58.2722V203.948ZM58.2722 194.236H48.6635V184.628H58.2722V194.236ZM58.2722 184.524H48.6635V174.936H58.2722V184.524ZM58.2722 174.812H48.6635V165.204H58.2722V174.812ZM58.2722 165.1H48.6635V155.496H58.2722V165.1ZM58.2722 155.388H48.6635V145.78H58.2722V155.388ZM58.2722 145.676H48.6635V136.055H58.2722V145.676ZM58.2722 135.964H48.6635V126.356H58.2722V135.964ZM58.2722 126.252H48.6635V116.648H58.2722V126.252ZM58.2722 116.544H48.6635V106.936H58.2722V116.544ZM58.2722 106.832H48.6635V97.2237H58.2722V106.832ZM58.2722 97.1203H48.6635V87.5117H58.2722V97.1203ZM58.2722 87.4083H48.6635V77.7996H58.2722V87.4083ZM58.2722 77.6962H48.6635V68.0876H58.2722V77.6962ZM58.2722 67.9842H48.6635V58.3756H58.2722V67.9842ZM58.2722 58.2722H48.6635V48.6636H58.2722V58.2722ZM58.2722 48.5601H48.6635V38.9515H58.2722V48.5601ZM58.2722 38.8481H48.6635V29.2395H58.2722V38.8481ZM58.2722 29.1361H48.6635V19.5275H58.2722V29.1361ZM58.2722 19.4241H48.6635V9.81544H58.2722V19.4241ZM58.2722 9.71203H48.6635V0.103407H58.2722V9.71203ZM67.9842 203.948H58.3714V194.34H67.9801L67.9842 203.948ZM67.9842 194.236H58.3714V184.628H67.9801L67.9842 194.236ZM67.9842 184.524H58.3714V174.936H67.9801L67.9842 184.524ZM67.9842 174.812H58.3714V165.204H67.9801L67.9842 174.812ZM67.9842 165.1H58.3714V155.496H67.9801L67.9842 165.1ZM67.9842 155.388H58.3714V145.78H67.9801L67.9842 155.388ZM67.9842 145.676H58.3714V136.055H67.9801L67.9842 145.676ZM67.9842 135.964H58.3714V126.356H67.9801L67.9842 135.964ZM67.9842 126.252H58.3714V116.648H67.9801L67.9842 126.252ZM67.9842 116.544H58.3714V106.936H67.9801L67.9842 116.544ZM67.9842 106.832H58.3714V97.2237H67.9801L67.9842 106.832ZM67.9842 97.1203H58.3714V87.5117H67.9801L67.9842 97.1203ZM67.9842 87.4083H58.3714V77.7996H67.9801L67.9842 87.4083ZM67.9842 77.6962H58.3714V68.0876H67.9801L67.9842 77.6962ZM67.9842 67.9842H58.3714V58.3756H67.9801L67.9842 67.9842ZM67.9842 58.2722H58.3714V48.6636H67.9801L67.9842 58.2722ZM67.9842 48.5601H58.3714V38.9515H67.9801L67.9842 48.5601ZM67.9842 38.8481H58.3714V29.2395H67.9801L67.9842 38.8481ZM67.9842 29.1361H58.3714V19.5275H67.9801L67.9842 29.1361ZM67.9842 19.4241H58.3714V9.81544H67.9801L67.9842 19.4241ZM67.9842 9.71203H58.3714V0.103407H67.9801L67.9842 9.71203ZM77.6962 203.948H68.0876V194.34H77.6962V203.948ZM77.6962 194.236H68.0876V184.628H77.6962V194.236ZM77.6962 184.524H68.0876V174.936H77.6962V184.524ZM77.6962 174.812H68.0876V165.204H77.6962V174.812ZM77.6962 165.1H68.0876V155.496H77.6962V165.1ZM77.6962 155.388H68.0876V145.78H77.6962V155.388ZM77.6962 145.676H68.0876V136.055H77.6962V145.676ZM77.6962 135.964H68.0876V126.356H77.6962V135.964ZM77.6962 126.252H68.0876V116.648H77.6962V126.252ZM77.6962 116.544H68.0876V106.936H77.6962V116.544ZM77.6962 106.832H68.0876V97.2237H77.6962V106.832ZM77.6962 97.1203H68.0876V87.5117H77.6962V97.1203ZM77.6962 87.4083H68.0876V77.7996H77.6962V87.4083ZM77.6962 77.6962H68.0876V68.0876H77.6962V77.6962ZM77.6962 67.9842H68.0876V58.3756H77.6962V67.9842ZM77.6962 58.2722H68.0876V48.6636H77.6962V58.2722ZM77.6962 48.5601H68.0876V38.9515H77.6962V48.5601ZM77.6962 38.8481H68.0876V29.2395H77.6962V38.8481ZM77.6962 29.1361H68.0876V19.5275H77.6962V29.1361ZM77.6962 19.4241H68.0876V9.81544H77.6962V19.4241ZM77.6962 9.71203H68.0876V0.103407H77.6962V9.71203ZM87.4041 203.948H77.812V194.34H87.4165L87.4041 203.948ZM87.4041 194.236H77.812V184.628H87.4165L87.4041 194.236ZM87.4041 184.524H77.812V174.936H87.4165L87.4041 184.524ZM87.4041 174.812H77.812V165.204H87.4165L87.4041 174.812ZM87.4041 165.1H77.812V155.496H87.4165L87.4041 165.1ZM87.4041 155.388H77.812V145.78H87.4165L87.4041 155.388ZM87.4041 145.676H77.812V136.055H87.4165L87.4041 145.676ZM87.4041 135.964H77.812V126.356H87.4165L87.4041 135.964ZM87.4041 126.252H77.812V116.648H87.4165L87.4041 126.252ZM87.4041 116.544H77.812V106.936H87.4165L87.4041 116.544ZM87.4041 106.832H77.812V97.2237H87.4165L87.4041 106.832ZM87.4041 97.1203H77.812V87.5117H87.4165L87.4041 97.1203ZM87.4041 87.4083H77.812V77.7996H87.4165L87.4041 87.4083ZM87.4041 77.6962H77.812V68.0876H87.4165L87.4041 77.6962ZM87.4041 67.9842H77.812V58.3756H87.4165L87.4041 67.9842ZM87.4041 58.2722H77.812V48.6636H87.4165L87.4041 58.2722ZM87.4041 48.5601H77.812V38.9515H87.4165L87.4041 48.5601ZM87.4041 38.8481H77.812V29.2395H87.4165L87.4041 38.8481ZM87.4041 29.1361H77.812V19.5275H87.4165L87.4041 29.1361ZM87.4041 19.4241H77.812V9.81544H87.4165L87.4041 19.4241ZM87.4041 9.71203H77.812V0.103407H87.4165L87.4041 9.71203ZM97.1162 203.948H87.5075V194.34H97.1162V203.948ZM97.1162 194.236H87.5075V184.628H97.1162V194.236ZM97.1162 184.524H87.5075V174.936H97.1162V184.524ZM97.1162 174.812H87.5075V165.204H97.1162V174.812ZM97.1162 165.1H87.5075V155.496H97.1162V165.1ZM97.1162 155.388H87.5075V145.78H97.1162V155.388ZM97.1162 145.676H87.5075V136.055H97.1162V145.676ZM97.1162 135.964H87.5075V126.356H97.1162V135.964ZM97.1162 126.252H87.5075V116.648H97.1162V126.252ZM97.1162 116.544H87.5075V106.936H97.1162V116.544ZM97.1162 106.832H87.5075V97.2237H97.1162V106.832ZM97.1162 97.1203H87.5075V87.5117H97.1162V97.1203ZM97.1162 87.4083H87.5075V77.7996H97.1162V87.4083ZM97.1162 77.6962H87.5075V68.0876H97.1162V77.6962ZM97.1162 67.9842H87.5075V58.3756H97.1162V67.9842ZM97.1162 58.2722H87.5075V48.6636H97.1162V58.2722ZM97.1162 48.5601H87.5075V38.9515H97.1162V48.5601ZM97.1162 38.8481H87.5075V29.2395H97.1162V38.8481ZM97.1162 29.1361H87.5075V19.5275H97.1162V29.1361ZM97.1162 19.4241H87.5075V9.81544H97.1162V19.4241ZM97.1162 9.71203H87.5075V0.103407H97.1162V9.71203ZM106.828 203.948H97.2196V194.34H106.828V203.948ZM106.828 194.236H97.2196V184.628H106.828V194.236ZM106.828 184.524H97.2196V174.936H106.828V184.524ZM106.828 174.812H97.2196V165.204H106.828V174.812ZM106.828 165.1H97.2196V155.496H106.828V165.1ZM106.828 155.388H97.2196V145.78H106.828V155.388ZM106.828 145.676H97.2196V136.055H106.828V145.676ZM106.828 135.964H97.2196V126.356H106.828V135.964ZM106.828 126.252H97.2196V116.648H106.828V126.252ZM106.828 116.544H97.2196V106.936H106.828V116.544ZM106.828 106.832H97.2196V97.2237H106.828V106.832ZM106.828 97.1203H97.2196V87.5117H106.828V97.1203ZM106.828 87.4083H97.2196V77.7996H106.828V87.4083ZM106.828 77.6962H97.2196V68.0876H106.828V77.6962ZM106.828 67.9842H97.2196V58.3756H106.828V67.9842ZM106.828 58.2722H97.2196V48.6636H106.828V58.2722ZM106.828 48.5601H97.2196V38.9515H106.828V48.5601ZM106.828 38.8481H97.2196V29.2395H106.828V38.8481ZM106.828 29.1361H97.2196V19.5275H106.828V29.1361ZM106.828 19.4241H97.2196V9.81544H106.828V19.4241ZM106.828 9.71203H97.2196V0.103407H106.828V9.71203ZM116.54 203.948H106.932V194.34H116.54V203.948ZM116.54 194.236H106.932V184.628H116.54V194.236ZM116.54 184.524H106.932V174.936H116.54V184.524ZM116.54 174.812H106.932V165.204H116.54V174.812ZM116.54 165.1H106.932V155.496H116.54V165.1ZM116.54 155.388H106.932V145.78H116.54V155.388ZM116.54 145.676H106.932V136.055H116.54V145.676ZM116.54 135.964H106.932V126.356H116.54V135.964ZM116.54 126.252H106.932V116.648H116.54V126.252ZM116.54 116.544H106.932V106.936H116.54V116.544ZM116.54 106.832H106.932V97.2237H116.54V106.832ZM116.54 97.1203H106.932V87.5117H116.54V97.1203ZM116.54 87.4083H106.932V77.7996H116.54V87.4083ZM116.54 77.6962H106.932V68.0876H116.54V77.6962ZM116.54 67.9842H106.932V58.3756H116.54V67.9842ZM116.54 58.2722H106.932V48.6636H116.54V58.2722ZM116.54 48.5601H106.932V38.9515H116.54V48.5601ZM116.54 38.8481H106.932V29.2395H116.54V38.8481ZM116.54 29.1361H106.932V19.5275H116.54V29.1361ZM116.54 19.4241H106.932V9.81544H116.54V19.4241ZM116.54 9.71203H106.932V0.103407H116.54V9.71203ZM126.252 203.948H116.644V194.34H126.252V203.948ZM126.252 194.236H116.644V184.628H126.252V194.236ZM126.252 184.524H116.644V174.936H126.252V184.524ZM126.252 174.812H116.644V165.204H126.252V174.812ZM126.252 165.1H116.644V155.496H126.252V165.1ZM126.252 155.388H116.644V145.78H126.252V155.388ZM126.252 145.676H116.644V136.055H126.252V145.676ZM126.252 135.964H116.644V126.356H126.252V135.964ZM126.252 126.252H116.644V116.648H126.252V126.252ZM126.252 116.544H116.644V106.936H126.252V116.544ZM126.252 106.832H116.644V97.2237H126.252V106.832ZM126.252 97.1203H116.644V87.5117H126.252V97.1203ZM126.252 87.4083H116.644V77.7996H126.252V87.4083ZM126.252 77.6962H116.644V68.0876H126.252V77.6962ZM126.252 67.9842H116.644V58.3756H126.252V67.9842ZM126.252 58.2722H116.644V48.6636H126.252V58.2722ZM126.252 48.5601H116.644V38.9515H126.252V48.5601ZM126.252 38.8481H116.644V29.2395H126.252V38.8481ZM126.252 29.1361H116.644V19.5275H126.252V29.1361ZM126.252 19.4241H116.644V9.81544H126.252V19.4241ZM126.252 9.71203H116.644V0.103407H126.252V9.71203ZM135.964 203.948H126.356V194.34H135.964V203.948ZM135.964 194.236H126.356V184.628H135.964V194.236ZM135.964 184.524H126.356V174.936H135.964V184.524ZM135.964 174.812H126.356V165.204H135.964V174.812ZM135.964 165.1H126.356V155.496H135.964V165.1ZM135.964 155.388H126.356V145.78H135.964V155.388ZM135.964 145.676H126.356V136.055H135.964V145.676ZM135.964 135.964H126.356V126.356H135.964V135.964ZM135.964 126.252H126.356V116.648H135.964V126.252ZM135.964 116.544H126.356V106.936H135.964V116.544ZM135.964 106.832H126.356V97.2237H135.964V106.832ZM135.964 97.1203H126.356V87.5117H135.964V97.1203ZM135.964 87.4083H126.356V77.7996H135.964V87.4083ZM135.964 77.6962H126.356V68.0876H135.964V77.6962ZM135.964 67.9842H126.356V58.3756H135.964V67.9842ZM135.964 58.2722H126.356V48.6636H135.964V58.2722ZM135.964 48.5601H126.356V38.9515H135.964V48.5601ZM135.964 38.8481H126.356V29.2395H135.964V38.8481ZM135.964 29.1361H126.356V19.5275H135.964V29.1361ZM135.964 19.4241H126.356V9.81544H135.964V19.4241ZM135.964 9.71203H126.356V0.103407H135.964V9.71203ZM145.676 203.948H136.068V194.34H145.676V203.948ZM145.676 194.236H136.068V184.628H145.676V194.236ZM145.676 184.524H136.068V174.936H145.676V184.524ZM145.676 174.812H136.068V165.204H145.676V174.812ZM145.676 165.1H136.068V155.496H145.676V165.1ZM145.676 155.388H136.068V145.78H145.676V155.388ZM145.676 145.676H136.068V136.055H145.676V145.676ZM145.676 135.964H136.068V126.356H145.676V135.964ZM145.676 126.252H136.068V116.648H145.676V126.252ZM145.676 116.544H136.068V106.936H145.676V116.544ZM145.676 106.832H136.068V97.2237H145.676V106.832ZM145.676 97.1203H136.068V87.5117H145.676V97.1203ZM145.676 87.4083H136.068V77.7996H145.676V87.4083ZM145.676 77.6962H136.068V68.0876H145.676V77.6962ZM145.676 67.9842H136.068V58.3756H145.676V67.9842ZM145.676 58.2722H136.068V48.6636H145.676V58.2722ZM145.676 48.5601H136.068V38.9515H145.676V48.5601ZM145.676 38.8481H136.068V29.2395H145.676V38.8481ZM145.676 29.1361H136.068V19.5275H145.676V29.1361ZM145.676 19.4241H136.068V9.81544H145.676V19.4241ZM145.676 9.71203H136.068V0.103407H145.676V9.71203ZM155.388 203.948H145.78V194.34H155.388V203.948ZM155.388 194.236H145.78V184.628H155.388V194.236ZM155.388 184.524H145.78V174.936H155.388V184.524ZM155.388 174.812H145.78V165.204H155.388V174.812ZM155.388 165.1H145.78V155.496H155.388V165.1ZM155.388 155.388H145.78V145.78H155.388V155.388ZM155.388 145.676H145.78V136.055H155.388V145.676ZM155.388 135.964H145.78V126.356H155.388V135.964ZM155.388 126.252H145.78V116.648H155.388V126.252ZM155.388 116.544H145.78V106.936H155.388V116.544ZM155.388 106.832H145.78V97.2237H155.388V106.832ZM155.388 97.1203H145.78V87.5117H155.388V97.1203ZM155.388 87.4083H145.78V77.7996H155.388V87.4083ZM155.388 77.6962H145.78V68.0876H155.388V77.6962ZM155.388 67.9842H145.78V58.3756H155.388V67.9842ZM155.388 58.2722H145.78V48.6636H155.388V58.2722ZM155.388 48.5601H145.78V38.9515H155.388V48.5601ZM155.388 38.8481H145.78V29.2395H155.388V38.8481ZM155.388 29.1361H145.78V19.5275H155.388V29.1361ZM155.388 19.4241H145.78V9.81544H155.388V19.4241ZM155.388 9.71203H145.78V0.103407H155.388V9.71203ZM165.088 203.948H155.492V194.34H165.088V203.948ZM165.088 194.236H155.492V184.628H165.088V194.236ZM165.088 184.524H155.492V174.936H165.088V184.524ZM165.088 174.812H155.492V165.204H165.088V174.812ZM165.088 165.1H155.492V155.496H165.088V165.1ZM165.088 155.388H155.492V145.78H165.088V155.388ZM165.088 145.676H155.492V136.055H165.088V145.676ZM165.088 135.964H155.492V126.356H165.088V135.964ZM165.088 126.252H155.492V116.648H165.088V126.252ZM165.088 116.544H155.492V106.936H165.088V116.544ZM165.088 106.832H155.492V97.2237H165.088V106.832ZM165.088 97.1203H155.492V87.5117H165.088V97.1203ZM165.088 87.4083H155.492V77.7996H165.088V87.4083ZM165.088 77.6962H155.492V68.0876H165.088V77.6962ZM165.088 67.9842H155.492V58.3756H165.088V67.9842ZM165.088 58.2928H155.492V48.6636H165.088V58.2928ZM165.088 48.5808H155.492V38.9515H165.088V48.5808ZM165.088 38.8522H155.492V29.2395H165.088V38.8522ZM165.088 29.1402H155.492V19.5275H165.088V29.1402ZM165.088 19.4116H155.492V9.81544H165.088V19.4116ZM165.088 9.69962H155.492V0.103407H165.088V9.69962ZM174.8 203.936H165.204V194.34H174.812L174.8 203.936ZM174.8 194.224H165.204V184.628H174.812L174.8 194.224ZM174.8 184.512H165.204V174.936H174.812L174.8 184.512ZM174.8 174.8H165.204V165.204H174.812L174.8 174.8ZM174.8 165.088H165.204V155.496H174.812L174.8 165.088ZM174.8 155.376H165.204V145.78H174.812L174.8 155.376ZM174.8 145.664H165.204V136.055H174.812L174.8 145.664ZM174.8 135.952H165.204V126.356H174.812L174.8 135.952ZM174.8 126.24H165.204V116.648H174.812L174.8 126.24ZM174.8 116.532H165.204V106.936H174.812L174.8 116.532ZM174.8 106.82H165.204V97.2237H174.812L174.8 106.82ZM174.8 97.1079H165.204V87.5117H174.812L174.8 97.1079ZM174.8 87.3958H165.204V77.7996H174.812L174.8 87.3958ZM174.8 77.6838H165.204V68.0876H174.812L174.8 77.6838ZM174.8 67.9718H165.204V58.3756H174.812L174.8 67.9718ZM174.8 58.2598H165.204V48.6636H174.812L174.8 58.2598ZM174.8 48.5477H165.204V38.9515H174.812L174.8 48.5477ZM174.8 38.8357H165.204V29.2395H174.812L174.8 38.8357ZM174.8 29.1237H165.204V19.5275H174.812L174.8 29.1237ZM174.8 19.4116H165.204V9.81544H174.812L174.8 19.4116ZM174.8 9.69962H165.204V0.103407H174.812L174.8 9.69962ZM184.529 203.948H174.916V194.34H184.529V203.948ZM184.529 194.236H174.916V184.628H184.529V194.236ZM184.529 184.524H174.916V174.936H184.529V184.524ZM184.529 174.812H174.916V165.204H184.529V174.812ZM184.529 165.1H174.916V155.496H184.529V165.1ZM184.529 155.388H174.916V145.78H184.529V155.388ZM184.529 145.676H174.916V136.055H184.529V145.676ZM184.529 135.964H174.916V126.356H184.529V135.964ZM184.529 126.252H174.916V116.648H184.529V126.252ZM184.529 116.544H174.916V106.936H184.529V116.544ZM184.529 106.832H174.916V97.2237H184.529V106.832ZM184.529 97.1203H174.916V87.5117H184.529V97.1203ZM184.529 87.4083H174.916V77.7996H184.529V87.4083ZM184.529 77.6962H174.916V68.0876H184.529V77.6962ZM184.529 67.9842H174.916V58.3756H184.529V67.9842ZM184.529 58.2928H174.916V48.6636H184.529V58.2928ZM184.529 48.5808H174.916V38.9515H184.529V48.5808ZM184.529 38.8522H174.916V29.2395H184.529V38.8522ZM184.529 29.1402H174.916V19.5275H184.529V29.1402ZM184.529 19.4116H174.916V9.81544H184.529V19.4116ZM184.529 9.69962H174.916V0.103407H184.529V9.69962ZM194.241 203.936H184.628V194.34H194.236L194.241 203.936ZM194.241 194.224H184.628V184.628H194.236L194.241 194.224ZM194.241 184.512H184.628V174.936H194.236L194.241 184.512ZM194.241 174.8H184.628V165.204H194.236L194.241 174.8ZM194.241 165.088H184.628V155.496H194.236L194.241 165.088ZM194.241 155.376H184.628V145.78H194.236L194.241 155.376ZM194.241 145.664H184.628V136.055H194.236L194.241 145.664ZM194.241 135.952H184.628V126.356H194.236L194.241 135.952ZM194.241 126.24H184.628V116.648H194.236L194.241 126.24ZM194.241 116.532H184.628V106.936H194.236L194.241 116.532ZM194.241 106.82H184.628V97.2237H194.236L194.241 106.82ZM194.241 97.1079H184.628V87.5117H194.236L194.241 97.1079ZM194.241 87.3958H184.628V77.7996H194.236L194.241 87.3958ZM194.241 77.6838H184.628V68.0876H194.236L194.241 77.6838ZM194.241 67.9718H184.628V58.3756H194.236L194.241 67.9718ZM194.241 58.2598H184.628V48.6636H194.236L194.241 58.2598ZM194.241 48.5477H184.628V38.9515H194.236L194.241 48.5477ZM194.241 38.8357H184.628V29.2395H194.236L194.241 38.8357ZM194.241 29.1237H184.628V19.5275H194.236L194.241 29.1237ZM194.241 19.4116H184.628V9.81544H194.236L194.241 19.4116ZM194.241 9.69962H184.628V0.103407H194.236L194.241 9.69962ZM203.969 203.948H194.34V194.34H203.969V203.948ZM203.969 194.236H194.34V184.628H203.969V194.236ZM203.969 184.524H194.34V174.936H203.969V184.524ZM203.969 174.812H194.34V165.204H203.969V174.812ZM203.969 165.1H194.34V155.496H203.969V165.1ZM203.969 155.388H194.34V145.78H203.969V155.388ZM203.969 145.676H194.34V136.055H203.969V145.676ZM203.969 135.964H194.34V126.356H203.969V135.964ZM203.969 126.252H194.34V116.648H203.969V126.252ZM203.969 116.544H194.34V106.936H203.969V116.544ZM203.969 106.832H194.34V97.2237H203.969V106.832ZM203.969 97.1203H194.34V87.5117H203.969V97.1203ZM203.969 87.4083H194.34V77.7996H203.969V87.4083ZM203.969 77.6962H194.34V68.0876H203.969V77.6962ZM203.969 67.9842H194.34V58.3756H203.969V67.9842ZM203.969 58.2928H194.34V48.6636H203.969V58.2928ZM203.969 48.5808H194.34V38.9515H203.969V48.5808ZM203.969 38.8522H194.34V29.2395H203.969V38.8522ZM203.969 29.1402H194.34V19.5275H203.969V29.1402ZM203.969 19.4116H194.34V9.81544H203.969V19.4116ZM203.969 9.69962H194.34V0.103407H203.969V9.69962Z" fill="url(#paint0_radial_1532_1688)"/>
<path d="M109.187 57C86.2874 79.8802 86.269 116.989 109.144 139.89C132.02 162.792 169.125 162.81 192.025 139.933C214.925 117.056 252.03 117.074 274.906 139.976C297.781 162.877 297.763 199.995 274.866 222.876" stroke="#FFFFE0" stroke-width="0.25" stroke-miterlimit="10"/>
<defs>
<radialGradient id="paint0_radial_1532_1688" cx="0" cy="0" r="1" gradientUnits="userSpaceOnUse" gradientTransform="translate(102.026 102.026) scale(102.026)">
<stop stop-color="#FFFFE0"/>
<stop offset="1" stop-color="#FFFFE0" stop-opacity="0"/>
</radialGradient>
</defs>
</svg>
