<svg width="146" height="34" viewBox="0 0 146 34" fill="none" xmlns="http://www.w3.org/2000/svg">
<path d="M12.8725 33.4737H0V27.7911H12.8725C13.2442 27.7898 13.6004 27.6396 13.8632 27.3734C14.1261 27.1072 14.2744 26.7465 14.2757 26.3701C14.2757 25.9673 14.1385 25.7029 13.8641 25.5768C13.5477 25.4428 13.2069 25.3784 12.8641 25.3878H7.01452C6.07087 25.3949 5.1361 25.2029 4.26971 24.8241C2.58862 24.0937 1.25363 22.7302 0.54663 21.0217C0.186061 20.1407 0.000472792 19.1965 0.000472792 18.2428C0.000472792 17.2892 0.186061 16.3449 0.54663 15.464C1.25069 13.7609 2.58799 12.4066 4.26971 11.6936C5.13762 11.3207 6.07175 11.1317 7.01452 11.1384H18.4221V16.8226H7.01452C6.64304 16.8248 6.28739 16.9753 6.0247 17.2413C5.76202 17.5073 5.61347 17.8675 5.61129 18.2437C5.60776 18.4354 5.64256 18.6259 5.71359 18.8037C5.78461 18.9815 5.8904 19.1429 6.02459 19.2782C6.15125 19.4152 6.30469 19.5238 6.47513 19.5974C6.64558 19.6709 6.82928 19.7076 7.01452 19.7052H12.8725C13.8022 19.6991 14.7251 19.8656 15.5956 20.1964C16.4208 20.5033 17.1801 20.9679 17.8321 21.5651C18.4677 22.1585 18.9779 22.8762 19.332 23.6748C19.7092 24.5232 19.8992 25.4447 19.8887 26.3751C19.8965 27.327 19.7068 28.27 19.332 29.143C18.9734 29.9797 18.4649 30.7419 17.8321 31.391C17.1945 32.0399 16.4375 32.556 15.6039 32.91C14.7414 33.286 13.8115 33.4779 12.8725 33.4737Z" fill="#E6E6E6"/>
<path d="M33.9583 33.4741C32.6411 33.482 31.3364 33.2154 30.1253 32.691C27.7531 31.6682 25.864 29.7551 24.8539 27.3528C24.3359 26.1263 24.0727 24.8049 24.0807 23.471V16.823H21.3325V11.1388H24.0757V2.19385H29.687V11.1388H38.228V16.823H29.687V23.4676C29.6828 24.0474 29.7962 24.6218 30.0203 25.1553C30.2329 25.6667 30.5413 26.1315 30.9285 26.5241C31.3199 26.9188 31.782 27.2344 32.2901 27.454C32.8167 27.6817 33.3841 27.7966 33.9567 27.7916H38.2264V33.4741H33.9583Z" fill="#E6E6E6"/>
<path d="M62.7771 33.4745H61.4155L59.229 30.4029C58.6891 30.8936 58.1203 31.3507 57.5258 31.7716C56.9301 32.1958 56.2988 32.5663 55.6392 32.8788C54.986 33.1904 54.3053 33.439 53.606 33.6214C52.9168 33.8015 52.2079 33.8928 51.4962 33.8931C49.9988 33.9037 48.5123 33.6342 47.1115 33.0982C45.7705 32.5875 44.5483 31.8014 43.5217 30.7894C42.4677 29.7359 41.6423 28.4713 41.0985 27.0764C40.5064 25.6137 40.2103 23.9496 40.2103 22.0841C40.1918 20.4422 40.4937 18.8128 41.0985 17.2893C41.6527 15.8889 42.4764 14.6141 43.5217 13.5391C44.5469 12.4942 45.7672 11.6664 47.1115 11.1038C48.5018 10.5239 49.9926 10.2313 51.4962 10.243C52.2129 10.2427 52.9269 10.334 53.621 10.5147C54.3242 10.6966 55.0081 10.9481 55.6626 11.2658C56.3228 11.5865 56.9546 11.9642 57.5508 12.3949C58.1425 12.8214 58.7043 13.2889 59.2323 13.794L61.4155 11.1392H62.7771V33.4745ZM57.1108 22.0892C57.1092 21.3106 56.9569 20.54 56.6625 19.8209C56.3765 19.106 55.9674 18.4482 55.4542 17.8783C54.9482 17.3195 54.3434 16.8615 53.671 16.5281C52.9945 16.1896 52.2491 16.0162 51.4945 16.0218C50.7509 16.0168 50.0128 16.1519 49.318 16.4201C48.6498 16.6753 48.0442 17.0744 47.5431 17.5897C47.0218 18.1369 46.6178 18.7873 46.3565 19.5002C46.0553 20.3333 45.9084 21.2156 45.9232 22.1027C45.9085 22.9892 46.0554 23.8709 46.3565 24.7034C46.6174 25.4165 47.0214 26.067 47.5431 26.6139C48.0442 27.1297 48.6497 27.5293 49.318 27.7852C50.0146 28.0475 50.753 28.1774 51.4962 28.1683C52.2507 28.1734 52.996 28 53.6727 27.662C54.3454 27.3255 54.9502 26.8647 55.4559 26.3034C55.969 25.7318 56.3775 25.0723 56.6625 24.3558C56.9546 23.6367 57.1047 22.8667 57.1041 22.0892H57.1108Z" fill="#E6E6E6"/>
<path d="M86.3777 15.5491L82.2513 19.7464C82.0552 19.1784 81.7699 18.6461 81.4064 18.1701C81.064 17.7181 80.6574 17.32 80.1998 16.9887C79.7556 16.6695 79.2646 16.4229 78.7449 16.2579C78.2248 16.0909 77.6823 16.0061 77.1367 16.0064C76.385 16.0021 75.6417 16.1664 74.9602 16.4874C74.2816 16.8064 73.6768 17.2665 73.1853 17.8376C72.6677 18.4439 72.2654 19.142 71.9987 19.8966C71.7016 20.7408 71.5549 21.6317 71.5654 22.5278C71.5602 23.2815 71.7077 24.0282 71.9987 24.7218C72.2791 25.3912 72.6816 26.001 73.1853 26.5193C73.692 27.0381 74.2952 27.4499 74.9602 27.7311C76.155 28.2328 77.4831 28.3066 78.7249 27.9403C79.2301 27.7883 79.7123 27.5668 80.1581 27.2821C80.6059 26.9958 81.0092 26.6438 81.3547 26.2374C81.7051 25.8262 81.9937 25.365 82.2113 24.8687L86.3377 29.0677C85.819 29.8146 85.2124 30.4947 84.5312 31.093C83.8573 31.6855 83.1167 32.1954 82.3247 32.612C81.5325 33.0306 80.6931 33.3503 79.8248 33.5638C78.9437 33.7807 78.0401 33.8895 77.1333 33.8879C75.6272 33.8975 74.135 33.5948 72.7486 32.9984C70.0458 31.8487 67.8898 29.6805 66.7357 26.9513C66.1398 25.5528 65.8373 24.0442 65.8474 22.5211C65.8368 20.8779 66.1396 19.2481 66.739 17.7212C67.2986 16.2804 68.1206 14.9591 69.1622 13.8259C70.1796 12.7242 71.3988 11.8335 72.752 11.2032C74.1265 10.5617 75.6233 10.2339 77.1367 10.2429C78.0518 10.2421 78.9632 10.3613 79.8482 10.5973C81.6366 11.0755 83.2763 12.0045 84.6145 13.2976C85.3025 13.9616 85.896 14.7194 86.3777 15.5491Z" fill="#E6E6E6"/>
<path d="M134.637 33.8895H129.086L139.815 18.5852L133.662 7.89686L140.662 0H146L139.04 7.89686L145.192 18.5852L134.637 33.8895Z" fill="#AAFF00"/>
<path d="M101.697 9.28218L107.53 9.31425L110.71 4.50423H123.02L131.051 18.5934L123.079 29.3357L112.438 29.3796L114.961 33.6631H126.042L136.338 18.7419L126.095 0.227539H107.623L101.697 9.28218Z" fill="#AAFF00"/>
<path d="M96.649 33.6634H90.9761V2.38818H96.649V17.0461L100.004 11.9508L105.885 11.8462L101.869 18.025L110.82 33.6634H105.045L98.7305 22.7691L96.7474 25.5488L96.649 33.6634Z" fill="#E6E6E6"/>
</svg>
