<svg width="360" height="288" viewBox="0 0 360 288" fill="none" xmlns="http://www.w3.org/2000/svg">
<path d="M0 0.993164V287.945H359.403V0.993164H0ZM17.1061 287.8H0.182135V274.287H17.1061V287.8ZM17.1061 274.142H0.182135V260.63H17.1061V274.142ZM17.1061 260.484H0.182135V247.001H17.1061V260.484ZM17.1061 246.826H0.182135V233.314H17.1061V246.826ZM17.1061 233.169H0.182135V219.662H17.1061V233.169ZM17.1061 219.511H0.182135V205.999H17.1061V219.511ZM17.1061 205.853H0.182135V192.323H17.1061V205.853ZM17.1061 192.195H0.182135V178.683H17.1061V192.195ZM17.1061 178.538H0.182135V165.031H17.1061V178.538ZM17.1061 164.886H0.182135V151.374H17.1061V164.886ZM17.1061 151.228H0.182135V137.716H17.1061V151.228ZM17.1061 137.57H0.182135V124.058H17.1061V137.57ZM17.1061 123.913H0.182135V110.4H17.1061V123.913ZM17.1061 110.255H0.182135V96.7426H17.1061V110.255ZM17.1061 96.5972H0.182135V83.0849H17.1061V96.5972ZM17.1061 82.9395H0.182135V69.4272H17.1061V82.9395ZM17.1061 69.2818H0.182135V55.7695H17.1061V69.2818ZM17.1061 55.6241H0.182135V42.1118H17.1061V55.6241ZM17.1061 41.9663H0.182135V28.454H17.1061V41.9663ZM17.1061 28.3086H0.182135V14.7963H17.1061V28.3086ZM17.1061 14.6509H0.182135V1.13858H17.1061V14.6509ZM34.2122 287.8H17.2882V274.287H34.2122V287.8ZM34.2122 274.142H17.2882V260.63H34.2122V274.142ZM34.2122 260.484H17.2882V247.001H34.2122V260.484ZM34.2122 246.826H17.2882V233.314H34.2122V246.826ZM34.2122 233.169H17.2882V219.662H34.2122V233.169ZM34.2122 219.511H17.2882V205.999H34.2122V219.511ZM34.2122 205.853H17.2882V192.323H34.2122V205.853ZM34.2122 192.195H17.2882V178.683H34.2122V192.195ZM34.2122 178.538H17.2882V165.031H34.2122V178.538ZM34.2122 164.886H17.2882V151.374H34.2122V164.886ZM34.2122 151.228H17.2882V137.716H34.2122V151.228ZM34.2122 137.57H17.2882V124.058H34.2122V137.57ZM34.2122 123.913H17.2882V110.4H34.2122V123.913ZM34.2122 110.255H17.2882V96.7426H34.2122V110.255ZM34.2122 96.5972H17.2882V83.0849H34.2122V96.5972ZM34.2122 82.9395H17.2882V69.4272H34.2122V82.9395ZM34.2122 69.2818H17.2882V55.7695H34.2122V69.2818ZM34.2122 55.6241H17.2882V42.1118H34.2122V55.6241ZM34.2122 41.9663H17.2882V28.454H34.2122V41.9663ZM34.2122 28.3086H17.2882V14.7963H34.2122V28.3086ZM34.2122 14.6509H17.2882V1.13858H34.2122V14.6509ZM51.3183 287.8H34.3943V274.287H51.3183V287.8ZM51.3183 274.142H34.3943V260.63H51.3183V274.142ZM51.3183 260.484H34.3943V247.001H51.3183V260.484ZM51.3183 246.826H34.3943V233.314H51.3183V246.826ZM51.3183 233.169H34.3943V219.662H51.3183V233.169ZM51.3183 219.511H34.3943V205.999H51.3183V219.511ZM51.3183 205.853H34.3943V192.323H51.3183V205.853ZM51.3183 192.195H34.3943V178.683H51.3183V192.195ZM51.3183 178.538H34.3943V165.031H51.3183V178.538ZM51.3183 164.886H34.3943V151.374H51.3183V164.886ZM51.3183 151.228H34.3943V137.716H51.3183V151.228ZM51.3183 137.57H34.3943V124.058H51.3183V137.57ZM51.3183 123.913H34.3943V110.4H51.3183V123.913ZM51.3183 110.255H34.3943V96.7426H51.3183V110.255ZM51.3183 96.5972H34.3943V83.0849H51.3183V96.5972ZM51.3183 82.9395H34.3943V69.4272H51.3183V82.9395ZM51.3183 69.2818H34.3943V55.7695H51.3183V69.2818ZM51.3183 55.6241H34.3943V42.1118H51.3183V55.6241ZM51.3183 41.9663H34.3943V28.454H51.3183V41.9663ZM51.3183 28.3086H34.3943V14.7963H51.3183V28.3086ZM51.3183 14.6509H34.3943V1.13858H51.3183V14.6509ZM68.4244 287.8H51.5005V274.287H68.4244V287.8ZM68.4244 274.142H51.5005V260.63H68.4244V274.142ZM68.4244 260.484H51.5005V247.001H68.4244V260.484ZM68.4244 246.826H51.5005V233.314H68.4244V246.826ZM68.4244 233.169H51.5005V219.662H68.4244V233.169ZM68.4244 219.511H51.5005V205.999H68.4244V219.511ZM68.4244 205.853H51.5005V192.323H68.4244V205.853ZM68.4244 192.195H51.5005V178.683H68.4244V192.195ZM68.4244 178.538H51.5005V165.031H68.4244V178.538ZM68.4244 164.886H51.5005V151.374H68.4244V164.886ZM68.4244 151.228H51.5005V137.716H68.4244V151.228ZM68.4244 137.57H51.5005V124.058H68.4244V137.57ZM68.4244 123.913H51.5005V110.4H68.4244V123.913ZM68.4244 110.255H51.5005V96.7426H68.4244V110.255ZM68.4244 96.5972H51.5005V83.0849H68.4244V96.5972ZM68.4244 82.9395H51.5005V69.4272H68.4244V82.9395ZM68.4244 69.2818H51.5005V55.7695H68.4244V69.2818ZM68.4244 55.6241H51.5005V42.1118H68.4244V55.6241ZM68.4244 41.9663H51.5005V28.454H68.4244V41.9663ZM68.4244 28.3086H51.5005V14.7963H68.4244V28.3086ZM68.4244 14.6509H51.5005V1.13858H68.4244V14.6509ZM85.5305 287.8H68.6065V274.287H85.5305V287.8ZM85.5305 274.142H68.6065V260.63H85.5305V274.142ZM85.5305 260.484H68.6065V247.001H85.5305V260.484ZM85.5305 246.826H68.6065V233.314H85.5305V246.826ZM85.5305 233.169H68.6065V219.662H85.5305V233.169ZM85.5305 219.511H68.6065V205.999H85.5305V219.511ZM85.5305 205.853H68.6065V192.323H85.5305V205.853ZM85.5305 192.195H68.6065V178.683H85.5305V192.195ZM85.5305 178.538H68.6065V165.031H85.5305V178.538ZM85.5305 164.886H68.6065V151.374H85.5305V164.886ZM85.5305 151.228H68.6065V137.716H85.5305V151.228ZM85.5305 137.57H68.6065V124.058H85.5305V137.57ZM85.5305 123.913H68.6065V110.4H85.5305V123.913ZM85.5305 110.255H68.6065V96.7426H85.5305V110.255ZM85.5305 96.5972H68.6065V83.0849H85.5305V96.5972ZM85.5305 82.9395H68.6065V69.4272H85.5305V82.9395ZM85.5305 69.2818H68.6065V55.7695H85.5305V69.2818ZM85.5305 55.6241H68.6065V42.1118H85.5305V55.6241ZM85.5305 41.9663H68.6065V28.454H85.5305V41.9663ZM85.5305 28.3086H68.6065V14.7963H85.5305V28.3086ZM85.5305 14.6509H68.6065V1.13858H85.5305V14.6509ZM102.637 287.8H85.7127V274.287H102.637V287.8ZM102.637 274.142H85.7127V260.63H102.637V274.142ZM102.637 260.484H85.7127V247.001H102.637V260.484ZM102.637 246.826H85.7127V233.314H102.637V246.826ZM102.637 233.169H85.7127V219.662H102.637V233.169ZM102.637 219.511H85.7127V205.999H102.637V219.511ZM102.637 205.853H85.7127V192.323H102.637V205.853ZM102.637 192.195H85.7127V178.683H102.637V192.195ZM102.637 178.538H85.7127V165.031H102.637V178.538ZM102.637 164.886H85.7127V151.374H102.637V164.886ZM102.637 151.228H85.7127V137.716H102.637V151.228ZM102.637 137.57H85.7127V124.058H102.637V137.57ZM102.637 123.913H85.7127V110.4H102.637V123.913ZM102.637 110.255H85.7127V96.7426H102.637V110.255ZM102.637 96.5972H85.7127V83.0849H102.637V96.5972ZM102.637 82.9395H85.7127V69.4272H102.637V82.9395ZM102.637 69.2818H85.7127V55.7695H102.637V69.2818ZM102.637 55.6241H85.7127V42.1118H102.637V55.6241ZM102.637 41.9663H85.7127V28.454H102.637V41.9663ZM102.637 28.3086H85.7127V14.7963H102.637V28.3086ZM102.637 14.6509H85.7127V1.13858H102.637V14.6509ZM119.743 287.8H102.811V274.287H119.735L119.743 287.8ZM119.743 274.142H102.811V260.63H119.735L119.743 274.142ZM119.743 260.484H102.811V247.001H119.735L119.743 260.484ZM119.743 246.826H102.811V233.314H119.735L119.743 246.826ZM119.743 233.169H102.811V219.662H119.735L119.743 233.169ZM119.743 219.511H102.811V205.999H119.735L119.743 219.511ZM119.743 205.853H102.811V192.323H119.735L119.743 205.853ZM119.743 192.195H102.811V178.683H119.735L119.743 192.195ZM119.743 178.538H102.811V165.031H119.735L119.743 178.538ZM119.743 164.886H102.811V151.374H119.735L119.743 164.886ZM119.743 151.228H102.811V137.716H119.735L119.743 151.228ZM119.743 137.57H102.811V124.058H119.735L119.743 137.57ZM119.743 123.913H102.811V110.4H119.735L119.743 123.913ZM119.743 110.255H102.811V96.7426H119.735L119.743 110.255ZM119.743 96.5972H102.811V83.0849H119.735L119.743 96.5972ZM119.743 82.9395H102.811V69.4272H119.735L119.743 82.9395ZM119.743 69.2818H102.811V55.7695H119.735L119.743 69.2818ZM119.743 55.6241H102.811V42.1118H119.735L119.743 55.6241ZM119.743 41.9663H102.811V28.454H119.735L119.743 41.9663ZM119.743 28.3086H102.811V14.7963H119.735L119.743 28.3086ZM119.743 14.6509H102.811V1.13858H119.735L119.743 14.6509ZM136.849 287.8H119.925V274.287H136.849V287.8ZM136.849 274.142H119.925V260.63H136.849V274.142ZM136.849 260.484H119.925V247.001H136.849V260.484ZM136.849 246.826H119.925V233.314H136.849V246.826ZM136.849 233.169H119.925V219.662H136.849V233.169ZM136.849 219.511H119.925V205.999H136.849V219.511ZM136.849 205.853H119.925V192.323H136.849V205.853ZM136.849 192.195H119.925V178.683H136.849V192.195ZM136.849 178.538H119.925V165.031H136.849V178.538ZM136.849 164.886H119.925V151.374H136.849V164.886ZM136.849 151.228H119.925V137.716H136.849V151.228ZM136.849 137.57H119.925V124.058H136.849V137.57ZM136.849 123.913H119.925V110.4H136.849V123.913ZM136.849 110.255H119.925V96.7426H136.849V110.255ZM136.849 96.5972H119.925V83.0849H136.849V96.5972ZM136.849 82.9395H119.925V69.4272H136.849V82.9395ZM136.849 69.2818H119.925V55.7695H136.849V69.2818ZM136.849 55.6241H119.925V42.1118H136.849V55.6241ZM136.849 41.9663H119.925V28.454H136.849V41.9663ZM136.849 28.3086H119.925V14.7963H136.849V28.3086ZM136.849 14.6509H119.925V1.13858H136.849V14.6509ZM153.948 287.8H137.053V274.287H153.97L153.948 287.8ZM153.948 274.142H137.053V260.63H153.97L153.948 274.142ZM153.948 260.484H137.053V247.001H153.97L153.948 260.484ZM153.948 246.826H137.053V233.314H153.97L153.948 246.826ZM153.948 233.169H137.053V219.662H153.97L153.948 233.169ZM153.948 219.511H137.053V205.999H153.97L153.948 219.511ZM153.948 205.853H137.053V192.323H153.97L153.948 205.853ZM153.948 192.195H137.053V178.683H153.97L153.948 192.195ZM153.948 178.538H137.053V165.031H153.97L153.948 178.538ZM153.948 164.886H137.053V151.374H153.97L153.948 164.886ZM153.948 151.228H137.053V137.716H153.97L153.948 151.228ZM153.948 137.57H137.053V124.058H153.97L153.948 137.57ZM153.948 123.913H137.053V110.4H153.97L153.948 123.913ZM153.948 110.255H137.053V96.7426H153.97L153.948 110.255ZM153.948 96.5972H137.053V83.0849H153.97L153.948 96.5972ZM153.948 82.9395H137.053V69.4272H153.97L153.948 82.9395ZM153.948 69.2818H137.053V55.7695H153.97L153.948 69.2818ZM153.948 55.6241H137.053V42.1118H153.97L153.948 55.6241ZM153.948 41.9663H137.053V28.454H153.97L153.948 41.9663ZM153.948 28.3086H137.053V14.7963H153.97L153.948 28.3086ZM153.948 14.6509H137.053V1.13858H153.97L153.948 14.6509ZM171.054 287.8H154.13V274.287H171.054V287.8ZM171.054 274.142H154.13V260.63H171.054V274.142ZM171.054 260.484H154.13V247.001H171.054V260.484ZM171.054 246.826H154.13V233.314H171.054V246.826ZM171.054 233.169H154.13V219.662H171.054V233.169ZM171.054 219.511H154.13V205.999H171.054V219.511ZM171.054 205.853H154.13V192.323H171.054V205.853ZM171.054 192.195H154.13V178.683H171.054V192.195ZM171.054 178.538H154.13V165.031H171.054V178.538ZM171.054 164.886H154.13V151.374H171.054V164.886ZM171.054 151.228H154.13V137.716H171.054V151.228ZM171.054 137.57H154.13V124.058H171.054V137.57ZM171.054 123.913H154.13V110.4H171.054V123.913ZM171.054 110.255H154.13V96.7426H171.054V110.255ZM171.054 96.5972H154.13V83.0849H171.054V96.5972ZM171.054 82.9395H154.13V69.4272H171.054V82.9395ZM171.054 69.2818H154.13V55.7695H171.054V69.2818ZM171.054 55.6241H154.13V42.1118H171.054V55.6241ZM171.054 41.9663H154.13V28.454H171.054V41.9663ZM171.054 28.3086H154.13V14.7963H171.054V28.3086ZM171.054 14.6509H154.13V1.13858H171.054V14.6509ZM188.16 287.8H171.236V274.287H188.16V287.8ZM188.16 274.142H171.236V260.63H188.16V274.142ZM188.16 260.484H171.236V247.001H188.16V260.484ZM188.16 246.826H171.236V233.314H188.16V246.826ZM188.16 233.169H171.236V219.662H188.16V233.169ZM188.16 219.511H171.236V205.999H188.16V219.511ZM188.16 205.853H171.236V192.323H188.16V205.853ZM188.16 192.195H171.236V178.683H188.16V192.195ZM188.16 178.538H171.236V165.031H188.16V178.538ZM188.16 164.886H171.236V151.374H188.16V164.886ZM188.16 151.228H171.236V137.716H188.16V151.228ZM188.16 137.57H171.236V124.058H188.16V137.57ZM188.16 123.913H171.236V110.4H188.16V123.913ZM188.16 110.255H171.236V96.7426H188.16V110.255ZM188.16 96.5972H171.236V83.0849H188.16V96.5972ZM188.16 82.9395H171.236V69.4272H188.16V82.9395ZM188.16 69.2818H171.236V55.7695H188.16V69.2818ZM188.16 55.6241H171.236V42.1118H188.16V55.6241ZM188.16 41.9663H171.236V28.454H188.16V41.9663ZM188.16 28.3086H171.236V14.7963H188.16V28.3086ZM188.16 14.6509H171.236V1.13858H188.16V14.6509ZM205.266 287.8H188.342V274.287H205.266V287.8ZM205.266 274.142H188.342V260.63H205.266V274.142ZM205.266 260.484H188.342V247.001H205.266V260.484ZM205.266 246.826H188.342V233.314H205.266V246.826ZM205.266 233.169H188.342V219.662H205.266V233.169ZM205.266 219.511H188.342V205.999H205.266V219.511ZM205.266 205.853H188.342V192.323H205.266V205.853ZM205.266 192.195H188.342V178.683H205.266V192.195ZM205.266 178.538H188.342V165.031H205.266V178.538ZM205.266 164.886H188.342V151.374H205.266V164.886ZM205.266 151.228H188.342V137.716H205.266V151.228ZM205.266 137.57H188.342V124.058H205.266V137.57ZM205.266 123.913H188.342V110.4H205.266V123.913ZM205.266 110.255H188.342V96.7426H205.266V110.255ZM205.266 96.5972H188.342V83.0849H205.266V96.5972ZM205.266 82.9395H188.342V69.4272H205.266V82.9395ZM205.266 69.2818H188.342V55.7695H205.266V69.2818ZM205.266 55.6241H188.342V42.1118H205.266V55.6241ZM205.266 41.9663H188.342V28.454H205.266V41.9663ZM205.266 28.3086H188.342V14.7963H205.266V28.3086ZM205.266 14.6509H188.342V1.13858H205.266V14.6509ZM222.372 287.8H205.448V274.287H222.372V287.8ZM222.372 274.142H205.448V260.63H222.372V274.142ZM222.372 260.484H205.448V247.001H222.372V260.484ZM222.372 246.826H205.448V233.314H222.372V246.826ZM222.372 233.169H205.448V219.662H222.372V233.169ZM222.372 219.511H205.448V205.999H222.372V219.511ZM222.372 205.853H205.448V192.323H222.372V205.853ZM222.372 192.195H205.448V178.683H222.372V192.195ZM222.372 178.538H205.448V165.031H222.372V178.538ZM222.372 164.886H205.448V151.374H222.372V164.886ZM222.372 151.228H205.448V137.716H222.372V151.228ZM222.372 137.57H205.448V124.058H222.372V137.57ZM222.372 123.913H205.448V110.4H222.372V123.913ZM222.372 110.255H205.448V96.7426H222.372V110.255ZM222.372 96.5972H205.448V83.0849H222.372V96.5972ZM222.372 82.9395H205.448V69.4272H222.372V82.9395ZM222.372 69.2818H205.448V55.7695H222.372V69.2818ZM222.372 55.6241H205.448V42.1118H222.372V55.6241ZM222.372 41.9663H205.448V28.454H222.372V41.9663ZM222.372 28.3086H205.448V14.7963H222.372V28.3086ZM222.372 14.6509H205.448V1.13858H222.372V14.6509ZM239.478 287.8H222.554V274.287H239.478V287.8ZM239.478 274.142H222.554V260.63H239.478V274.142ZM239.478 260.484H222.554V247.001H239.478V260.484ZM239.478 246.826H222.554V233.314H239.478V246.826ZM239.478 233.169H222.554V219.662H239.478V233.169ZM239.478 219.511H222.554V205.999H239.478V219.511ZM239.478 205.853H222.554V192.323H239.478V205.853ZM239.478 192.195H222.554V178.683H239.478V192.195ZM239.478 178.538H222.554V165.031H239.478V178.538ZM239.478 164.886H222.554V151.374H239.478V164.886ZM239.478 151.228H222.554V137.716H239.478V151.228ZM239.478 137.57H222.554V124.058H239.478V137.57ZM239.478 123.913H222.554V110.4H239.478V123.913ZM239.478 110.255H222.554V96.7426H239.478V110.255ZM239.478 96.5972H222.554V83.0849H239.478V96.5972ZM239.478 82.9395H222.554V69.4272H239.478V82.9395ZM239.478 69.2818H222.554V55.7695H239.478V69.2818ZM239.478 55.6241H222.554V42.1118H239.478V55.6241ZM239.478 41.9663H222.554V28.454H239.478V41.9663ZM239.478 28.3086H222.554V14.7963H239.478V28.3086ZM239.478 14.6509H222.554V1.13858H239.478V14.6509ZM256.584 287.8H239.66V274.287H256.584V287.8ZM256.584 274.142H239.66V260.63H256.584V274.142ZM256.584 260.484H239.66V247.001H256.584V260.484ZM256.584 246.826H239.66V233.314H256.584V246.826ZM256.584 233.169H239.66V219.662H256.584V233.169ZM256.584 219.511H239.66V205.999H256.584V219.511ZM256.584 205.853H239.66V192.323H256.584V205.853ZM256.584 192.195H239.66V178.683H256.584V192.195ZM256.584 178.538H239.66V165.031H256.584V178.538ZM256.584 164.886H239.66V151.374H256.584V164.886ZM256.584 151.228H239.66V137.716H256.584V151.228ZM256.584 137.57H239.66V124.058H256.584V137.57ZM256.584 123.913H239.66V110.4H256.584V123.913ZM256.584 110.255H239.66V96.7426H256.584V110.255ZM256.584 96.5972H239.66V83.0849H256.584V96.5972ZM256.584 82.9395H239.66V69.4272H256.584V82.9395ZM256.584 69.2818H239.66V55.7695H256.584V69.2818ZM256.584 55.6241H239.66V42.1118H256.584V55.6241ZM256.584 41.9663H239.66V28.454H256.584V41.9663ZM256.584 28.3086H239.66V14.7963H256.584V28.3086ZM256.584 14.6509H239.66V1.13858H256.584V14.6509ZM273.69 287.8H256.766V274.287H273.69V287.8ZM273.69 274.142H256.766V260.63H273.69V274.142ZM273.69 260.484H256.766V247.001H273.69V260.484ZM273.69 246.826H256.766V233.314H273.69V246.826ZM273.69 233.169H256.766V219.662H273.69V233.169ZM273.69 219.511H256.766V205.999H273.69V219.511ZM273.69 205.853H256.766V192.323H273.69V205.853ZM273.69 192.195H256.766V178.683H273.69V192.195ZM273.69 178.538H256.766V165.031H273.69V178.538ZM273.69 164.886H256.766V151.374H273.69V164.886ZM273.69 151.228H256.766V137.716H273.69V151.228ZM273.69 137.57H256.766V124.058H273.69V137.57ZM273.69 123.913H256.766V110.4H273.69V123.913ZM273.69 110.255H256.766V96.7426H273.69V110.255ZM273.69 96.5972H256.766V83.0849H273.69V96.5972ZM273.69 82.9395H256.766V69.4272H273.69V82.9395ZM273.69 69.2818H256.766V55.7695H273.69V69.2818ZM273.69 55.6241H256.766V42.1118H273.69V55.6241ZM273.69 41.9663H256.766V28.454H273.69V41.9663ZM273.69 28.3086H256.766V14.7963H273.69V28.3086ZM273.69 14.6509H256.766V1.13858H273.69V14.6509ZM290.775 287.8H273.873V274.287H290.775V287.8ZM290.775 274.142H273.873V260.63H290.775V274.142ZM290.775 260.484H273.873V247.001H290.775V260.484ZM290.775 246.826H273.873V233.314H290.775V246.826ZM290.775 233.169H273.873V219.662H290.775V233.169ZM290.775 219.511H273.873V205.999H290.775V219.511ZM290.775 205.853H273.873V192.323H290.775V205.853ZM290.775 192.195H273.873V178.683H290.775V192.195ZM290.775 178.538H273.873V165.031H290.775V178.538ZM290.775 164.886H273.873V151.374H290.775V164.886ZM290.775 151.228H273.873V137.716H290.775V151.228ZM290.775 137.57H273.873V124.058H290.775V137.57ZM290.775 123.913H273.873V110.4H290.775V123.913ZM290.775 110.255H273.873V96.7426H290.775V110.255ZM290.775 96.5972H273.873V83.0849H290.775V96.5972ZM290.775 82.9686H273.873V69.4272H290.775V82.9686ZM290.775 69.3109H273.873V55.7695H290.775V69.3109ZM290.775 55.6299H273.873V42.1118H290.775V55.6299ZM290.775 41.9722H273.873V28.454H290.775V41.9722ZM290.775 28.2912H273.873V14.7963H290.775V28.2912ZM290.775 14.6334H273.873V1.13858H290.775V14.6334ZM307.881 287.782H290.979V274.287H307.903L307.881 287.782ZM307.881 274.124H290.979V260.63H307.903L307.881 274.124ZM307.881 260.467H290.979V247.001H307.903L307.881 260.467ZM307.881 246.809H290.979V233.314H307.903L307.881 246.809ZM307.881 233.151H290.979V219.662H307.903L307.881 233.151ZM307.881 219.493H290.979V205.999H307.903L307.881 219.493ZM307.881 205.836H290.979V192.323H307.903L307.881 205.836ZM307.881 192.178H290.979V178.683H307.903L307.881 192.178ZM307.881 178.52H290.979V165.031H307.903L307.881 178.52ZM307.881 164.868H290.979V151.374H307.903L307.881 164.868ZM307.881 151.211H290.979V137.716H307.903L307.881 151.211ZM307.881 137.553H290.979V124.058H307.903L307.881 137.553ZM307.881 123.895H290.979V110.4H307.903L307.881 123.895ZM307.881 110.238H290.979V96.7426H307.903L307.881 110.238ZM307.881 96.5798H290.979V83.0849H307.903L307.881 96.5798ZM307.881 82.9221H290.979V69.4272H307.903L307.881 82.9221ZM307.881 69.2643H290.979V55.7695H307.903L307.881 69.2643ZM307.881 55.6066H290.979V42.1118H307.903L307.881 55.6066ZM307.881 41.9489H290.979V28.454H307.903L307.881 41.9489ZM307.881 28.2912H290.979V14.7963H307.903L307.881 28.2912ZM307.881 14.6334H290.979V1.13858H307.903L307.881 14.6334ZM325.016 287.8H308.085V274.287H325.016V287.8ZM325.016 274.142H308.085V260.63H325.016V274.142ZM325.016 260.484H308.085V247.001H325.016V260.484ZM325.016 246.826H308.085V233.314H325.016V246.826ZM325.016 233.169H308.085V219.662H325.016V233.169ZM325.016 219.511H308.085V205.999H325.016V219.511ZM325.016 205.853H308.085V192.323H325.016V205.853ZM325.016 192.195H308.085V178.683H325.016V192.195ZM325.016 178.538H308.085V165.031H325.016V178.538ZM325.016 164.886H308.085V151.374H325.016V164.886ZM325.016 151.228H308.085V137.716H325.016V151.228ZM325.016 137.57H308.085V124.058H325.016V137.57ZM325.016 123.913H308.085V110.4H325.016V123.913ZM325.016 110.255H308.085V96.7426H325.016V110.255ZM325.016 96.5972H308.085V83.0849H325.016V96.5972ZM325.016 82.9686H308.085V69.4272H325.016V82.9686ZM325.016 69.3109H308.085V55.7695H325.016V69.3109ZM325.016 55.6299H308.085V42.1118H325.016V55.6299ZM325.016 41.9722H308.085V28.454H325.016V41.9722ZM325.016 28.2912H308.085V14.7963H325.016V28.2912ZM325.016 14.6334H308.085V1.13858H325.016V14.6334ZM342.122 287.782H325.191V274.287H342.115L342.122 287.782ZM342.122 274.124H325.191V260.63H342.115L342.122 274.124ZM342.122 260.467H325.191V247.001H342.115L342.122 260.467ZM342.122 246.809H325.191V233.314H342.115L342.122 246.809ZM342.122 233.151H325.191V219.662H342.115L342.122 233.151ZM342.122 219.493H325.191V205.999H342.115L342.122 219.493ZM342.122 205.836H325.191V192.323H342.115L342.122 205.836ZM342.122 192.178H325.191V178.683H342.115L342.122 192.178ZM342.122 178.52H325.191V165.031H342.115L342.122 178.52ZM342.122 164.868H325.191V151.374H342.115L342.122 164.868ZM342.122 151.211H325.191V137.716H342.115L342.122 151.211ZM342.122 137.553H325.191V124.058H342.115L342.122 137.553ZM342.122 123.895H325.191V110.4H342.115L342.122 123.895ZM342.122 110.238H325.191V96.7426H342.115L342.122 110.238ZM342.122 96.5798H325.191V83.0849H342.115L342.122 96.5798ZM342.122 82.9221H325.191V69.4272H342.115L342.122 82.9221ZM342.122 69.2643H325.191V55.7695H342.115L342.122 69.2643ZM342.122 55.6066H325.191V42.1118H342.115L342.122 55.6066ZM342.122 41.9489H325.191V28.454H342.115L342.122 41.9489ZM342.122 28.2912H325.191V14.7963H342.115L342.122 28.2912ZM342.122 14.6334H325.191V1.13858H342.115L342.122 14.6334ZM359.257 287.8H342.297V274.287H359.257V287.8ZM359.257 274.142H342.297V260.63H359.257V274.142ZM359.257 260.484H342.297V247.001H359.257V260.484ZM359.257 246.826H342.297V233.314H359.257V246.826ZM359.257 233.169H342.297V219.662H359.257V233.169ZM359.257 219.511H342.297V205.999H359.257V219.511ZM359.257 205.853H342.297V192.323H359.257V205.853ZM359.257 192.195H342.297V178.683H359.257V192.195ZM359.257 178.538H342.297V165.031H359.257V178.538ZM359.257 164.886H342.297V151.374H359.257V164.886ZM359.257 151.228H342.297V137.716H359.257V151.228ZM359.257 137.57H342.297V124.058H359.257V137.57ZM359.257 123.913H342.297V110.4H359.257V123.913ZM359.257 110.255H342.297V96.7426H359.257V110.255ZM359.257 96.5972H342.297V83.0849H359.257V96.5972ZM359.257 82.9686H342.297V69.4272H359.257V82.9686ZM359.257 69.3109H342.297V55.7695H359.257V69.3109ZM359.257 55.6299H342.297V42.1118H359.257V55.6299ZM359.257 41.9722H342.297V28.454H359.257V41.9722ZM359.257 28.2912H342.297V14.7963H359.257V28.2912ZM359.257 14.6334H342.297V1.13858H359.257V14.6334Z" fill="url(#paint0_radial_1104_1730)"/>
<defs>
<radialGradient id="paint0_radial_1104_1730" cx="0" cy="0" r="1" gradientUnits="userSpaceOnUse" gradientTransform="translate(179.702 144.469) scale(179.702 143.476)">
<stop stop-color="#FFFFE0"/>
<stop offset="1" stop-color="#FFFFE0" stop-opacity="0"/>
</radialGradient>
</defs>
</svg>
