<svg width="1480" height="618" viewBox="0 0 1480 618" fill="none" xmlns="http://www.w3.org/2000/svg">
<g clip-path="url(#clip0_1545_1552)">
<g opacity="0.15">
<path style="mix-blend-mode:screen" opacity="0.7" d="M112.344 457.338L112.65 457.002C132.125 462.402 156.631 461.373 183.485 454.011C208.341 447.006 232.25 436.272 254.076 422.318C276.598 407.986 296.643 391.394 316.071 375.376C332.732 361.636 349.969 347.42 368.658 334.64C474.427 262.351 634.731 239.219 733.636 282.064C738.251 284.064 742.877 286.244 747.354 288.344C764.882 296.62 783.064 305.101 805.994 305.756C827.006 306.358 850.102 300.202 872.746 287.952C893.068 276.898 911.068 262.39 925.488 245.441C939.912 228.304 950.583 209.981 960.906 192.267C969.655 177.245 978.698 161.707 990.007 146.936C1008.02 123.391 1032.92 100.839 1062.04 81.6844C1091.86 62.1934 1124.45 46.81 1158.44 36.178C1193.03 25.4522 1228.51 19.544 1263.5 18.6843C1298.3 17.8718 1331.52 22.2767 1359.61 31.4651L1359.35 31.7521C1331.36 22.6123 1298.25 18.1706 1263.47 19.0288C1228.55 19.8844 1193.14 25.7799 1158.62 36.4849C1124.7 47.1049 1092.18 62.4595 1062.41 81.9081C1033.36 101.017 1008.5 123.545 990.56 147.06C979.296 161.781 970.224 177.333 961.494 192.335C951.162 210.075 940.474 228.418 926.023 245.585C911.558 262.591 893.498 277.147 873.107 288.234C850.334 300.558 827.115 306.744 805.968 306.133C782.903 305.469 764.699 296.926 747.105 288.67C742.667 286.58 738.002 284.39 733.387 282.39C634.633 239.675 474.575 262.747 369.019 334.923C350.339 347.693 333.084 361.929 316.478 375.625C297.001 391.627 276.87 408.227 254.357 422.549C232.461 436.547 208.477 447.317 183.543 454.348C156.557 461.734 131.936 462.767 112.344 457.338Z" fill="url(#paint0_linear_1545_1552)"/>
<path style="mix-blend-mode:screen" opacity="0.7" d="M111.232 455.432L111.596 454.927C130.102 458.838 154.149 456.756 181.13 448.909C205.936 441.46 229.92 430.964 252.311 417.758C255.066 416.142 257.902 414.436 260.754 412.678C279.412 401.144 296.269 388.673 312.583 376.606C329.752 363.896 347.5 350.758 366.875 339.17C396.363 321.536 431.292 308.017 461.577 297.127C500.009 283.301 531.238 274.275 559.858 268.697C603.25 260.268 645.616 258.405 682.363 263.338C697.746 265.294 712.645 268.6 726.854 273.208C734.25 275.643 741.434 278.557 749.06 281.648C755.939 284.425 763.004 287.277 770.269 289.769C780.106 293.331 790.65 295.63 801.621 296.603C821.83 298.133 842.997 294.064 864.524 284.511C884.653 275.53 902.929 262.962 918.019 247.724C932.168 233.251 943.036 217.635 953.531 202.534C962.789 189.232 972.356 175.485 984.224 162.369C1002.49 142.267 1027.09 122.982 1055.49 106.647C1087 88.7821 1120.75 75.0154 1155.53 65.852C1191.13 56.5517 1227.28 51.5776 1262.91 51.0767C1298.53 50.6021 1333.08 54.6107 1362.69 62.7716L1362.25 63.2578C1332.74 55.0798 1298.3 51.067 1262.71 51.5841C1227.18 52.0909 1191.13 57.0565 1155.61 66.3344C1120.93 75.4719 1087.26 89.2002 1055.84 107.016C1027.48 123.285 1002.91 142.465 984.761 162.529C972.89 175.596 963.371 189.343 954.15 202.605C943.597 217.716 932.751 233.378 918.557 247.901C903.375 263.217 884.996 275.851 864.757 284.884C843.351 294.374 821.425 298.596 801.292 297.052C790.252 296.07 779.64 293.759 769.737 290.18C762.472 287.688 755.387 284.823 748.537 282.049C740.921 278.964 733.728 276.061 726.361 273.629C712.193 269.036 697.34 265.739 682.005 263.784C645.374 258.863 603.104 260.726 559.827 269.151C531.273 274.708 500.101 283.725 461.725 297.524C431.552 308.535 396.659 322.014 367.291 339.568C347.954 351.133 330.224 364.251 313.1 376.911C296.777 389.004 279.884 401.499 261.217 413.043C258.365 414.801 255.52 416.517 252.765 418.133C230.272 431.42 206.17 441.974 181.238 449.454C154.068 457.335 129.858 459.421 111.232 455.432Z" fill="url(#paint1_linear_1545_1552)"/>
<path style="mix-blend-mode:screen" opacity="0.7" d="M110.077 453.541L110.47 452.863C149.446 458.296 208.4 435.928 250.529 413.219C253.327 411.718 256.206 410.126 259.113 408.505C276.959 398.537 292.893 388.099 308.299 378.013C327.058 365.727 344.78 354.126 365.075 343.759C386.687 332.714 412.164 323.777 439.177 314.288C446.613 311.676 454.294 308.97 461.963 306.209C468.244 303.969 474.42 301.723 480.489 299.471C507.932 289.455 533.869 279.994 558.976 273.285C600.148 262.32 640.621 257.328 676.003 258.867C691.065 259.32 705.79 261.173 719.94 264.397C730.687 266.92 741.854 271.014 752.667 274.973C756.894 276.524 761.278 278.13 765.598 279.631C777.713 283.821 787.466 286.266 797.109 287.499C816.985 289.947 838.102 287.37 858.157 280.049C877.264 273.221 895.099 263.025 910.447 250.155C924.351 238.236 935.393 225.243 946.13 212.638C955.868 201.186 965.929 189.343 978.346 177.99C997.227 160.716 1022.39 144.291 1051.07 130.492C1081.8 115.677 1116.9 103.717 1152.61 95.8563C1224.04 80.2143 1301.75 79.706 1365.79 94.4422L1365.3 95.1109C1301.43 80.4032 1223.93 80.9167 1152.67 96.5178C1117.09 104.331 1082.08 116.258 1051.46 131.029C1022.89 144.775 997.847 161.12 979.038 178.315C966.686 189.63 956.642 201.437 946.959 212.829C936.233 225.458 925.135 238.494 911.158 250.476C895.702 263.471 877.732 273.774 858.473 280.683C838.207 288.072 816.87 290.674 796.785 288.206C787.045 286.974 777.274 284.533 765.07 280.3C760.731 278.803 756.346 277.197 752.109 275.639C741.356 271.703 730.189 267.608 719.49 265.102C705.418 261.877 690.767 260.029 675.776 259.59C640.539 258.066 600.199 263.018 559.2 273.985C534.168 280.664 508.269 290.118 480.845 300.13C474.742 302.36 468.57 304.603 462.328 306.858C454.65 309.63 446.959 312.329 439.523 314.941C412.585 324.399 387.127 333.334 365.591 344.349C345.362 354.695 327.677 366.273 308.936 378.539C293.511 388.644 277.539 399.073 259.675 409.077C256.76 410.709 253.871 412.293 251.073 413.795C208.63 436.568 149.355 459.028 110.077 453.541Z" fill="url(#paint2_linear_1545_1552)"/>
<path style="mix-blend-mode:screen" opacity="0.7" d="M108.983 451.525L109.367 450.681C153.747 453.346 227.287 419.079 248.762 408.517C251.73 407.066 254.641 405.619 257.495 404.177C273.991 395.879 288.566 387.552 302.735 379.532C322.712 368.09 341.715 357.315 363.304 348.209C378.814 341.681 396.601 336.161 415.569 330.394C430.698 325.761 446.349 320.976 462.364 315.174C479.599 308.945 495.74 302.337 511.354 295.941C527.665 289.252 543.072 282.943 558.063 277.76C596.788 264.376 635.348 256.233 669.58 254.239C682.459 253.488 696.42 252.95 712.975 255.389C727.586 257.544 743.005 262.972 757.902 268.219L760.925 269.284C771.05 273.068 781.649 276.046 792.614 278.186C811.544 281.619 831.893 280.657 851.824 275.388C869.917 270.617 887.278 262.75 902.843 252.27C916.685 242.783 927.54 232.666 939.025 221.961C949.178 212.546 959.648 202.782 972.413 193.355C992.034 178.967 1017.67 165.405 1046.56 154.102C1077.87 141.81 1113.5 131.978 1149.62 125.675C1221.63 113.185 1301.42 113.211 1368.82 125.938L1368.25 126.774C1301.08 114.114 1221.39 114.012 1149.62 126.5C1113.59 132.769 1078.12 142.591 1046.94 154.825C1018.19 166.062 992.687 179.567 973.165 193.845C960.434 203.199 950 212.923 939.906 222.344C928.374 233.083 917.484 243.24 903.539 252.787C887.805 263.383 870.256 271.337 851.966 276.163C831.795 281.488 811.203 282.459 792.044 278.989C781.028 276.845 770.375 273.869 760.192 270.091L757.169 269.026C742.32 263.796 726.949 258.367 712.466 256.247C696.047 253.834 682.172 254.365 669.353 255.138C635.284 257.128 596.896 265.224 558.331 278.553C543.398 283.727 528.01 290.032 511.717 296.701C496.084 303.101 479.933 309.719 462.662 315.971C446.589 321.783 430.919 326.572 415.762 331.219C396.891 337.001 379.071 342.452 363.685 348.965C342.164 358.068 323.295 368.818 303.354 380.221C289.187 388.274 274.546 396.622 258.03 404.906C255.133 406.336 252.219 407.786 249.287 409.256C227.686 419.799 153.743 454.264 108.983 451.525Z" fill="url(#paint3_linear_1545_1552)"/>
<path style="mix-blend-mode:screen" opacity="0.7" d="M107.91 449.43L108.209 448.415C135.513 447.637 182.189 432.624 246.992 403.725L255.886 399.767C269.981 393.469 282.577 387.357 294.761 381.453C316.936 370.683 337.881 360.527 361.558 352.613C373.497 348.633 386.992 345.318 401.306 341.772C420.118 337.131 441.4 331.905 462.765 324.139C486.32 315.62 506.905 305.771 526.787 296.275C537.367 291.219 547.346 286.456 557.153 282.233C593.472 266.502 630.108 255.21 663.093 249.573C675.144 247.512 688.793 245.172 705.963 246.319C722.197 247.349 739.706 252.981 756.245 258.871C766.539 262.767 777.179 266.087 788.112 268.813C806.23 273.128 825.817 273.747 845.528 270.629C862.649 267.826 879.523 262.31 895.302 254.356C909.239 247.192 920.512 239.279 932.445 230.904C943.39 222.969 954.788 215.575 966.571 208.765C986.947 197.316 1013.11 186.581 1042.12 177.814C1076.59 167.537 1111.6 160.103 1146.66 155.618C1218.9 146.2 1300.98 146.918 1371.88 157.565L1371.28 158.559C1300.49 147.984 1218.6 147.281 1146.54 156.652C1111.6 161.129 1076.7 168.538 1042.35 178.776C1013.45 187.538 987.481 198.172 967.235 209.548C955.514 216.325 944.176 223.684 933.287 231.58C921.289 239.991 909.969 247.938 895.861 255.15C879.879 263.201 862.79 268.788 845.451 271.629C825.496 274.766 805.671 274.121 787.334 269.739C776.346 266.999 765.653 263.661 755.31 259.741C738.861 253.894 721.433 248.331 705.429 247.275C688.493 246.154 674.968 248.463 663.032 250.503C630.183 256.149 593.717 267.394 557.604 283.005C547.865 287.24 537.896 291.993 527.344 297.035C507.456 306.591 486.791 316.404 463.124 324.993C441.653 332.77 420.297 338.044 401.427 342.694C387.17 346.213 373.704 349.532 361.842 353.498C338.307 361.361 317.429 371.497 295.309 382.223C283.116 388.137 270.51 394.259 256.378 400.564L247.474 404.532C182.457 433.562 135.487 448.67 107.91 449.43Z" fill="url(#paint4_linear_1545_1552)"/>
<path style="mix-blend-mode:screen" opacity="0.7" d="M106.89 447.255L106.996 446.096C137.398 442.249 191.268 420.58 234.605 403.103L245.221 398.855C248.261 397.646 251.291 396.43 254.312 395.208C263.947 391.421 272.828 387.828 281.414 384.347C308.869 373.206 332.584 363.583 359.875 356.928C369.307 354.636 379.731 352.734 390.819 350.755C412.792 346.791 437.699 342.3 463.199 333.026C491.299 322.816 515.124 309.437 536.05 297.695C543.059 293.761 549.675 290.048 556.189 286.588C589.936 268.701 624.646 254.184 656.494 244.74L657.265 244.509C669.383 240.903 681.92 237.189 698.872 237.036C713.005 236.897 730.22 240.567 751.517 248.237L757.993 250.59C766.748 253.789 775.008 256.809 783.555 259.267C802.469 264.634 821.178 266.838 839.166 265.845C855.421 264.959 871.815 261.779 887.724 256.426C902.197 251.5 914.316 245.616 927.106 239.418C937.388 234.442 948.01 229.288 960.69 224.215C981.942 215.732 1008.52 207.941 1037.61 201.615C1072.86 194.063 1108.3 188.74 1143.63 185.689C1215.57 179.366 1299.87 180.689 1374.88 189.32L1374.25 190.499C1299.35 181.887 1215.23 180.56 1143.43 186.865C1108.2 189.907 1072.86 195.216 1037.72 202.752C1008.77 209.044 982.306 216.814 961.164 225.194C948.568 230.226 937.995 235.363 927.76 240.322C914.885 246.56 902.728 252.452 888.115 257.462C871.98 262.897 855.353 266.124 838.867 267.022C820.617 268.02 801.753 265.827 782.641 260.378C774.009 257.944 765.718 254.904 756.943 251.692L750.477 249.345C729.377 241.741 712.368 238.109 698.468 238.24C681.855 238.39 669.499 242.064 657.543 245.615L656.771 245.829C625.096 255.242 590.545 269.672 556.94 287.492C550.454 290.938 543.847 294.641 536.857 298.572C515.809 310.378 491.929 323.8 463.629 334.088C437.911 343.426 412.898 347.945 390.82 351.919C379.8 353.911 369.384 355.786 360.029 358.065C332.929 364.669 309.29 374.261 281.938 385.342C273.342 388.833 264.462 392.442 254.817 396.223C251.855 397.387 248.843 398.583 245.781 399.81L235.175 404.064C191.686 421.603 137.609 443.376 106.89 447.255Z" fill="url(#paint5_linear_1545_1552)"/>
<path style="mix-blend-mode:screen" opacity="0.7" d="M105.757 443.712C125.93 438.93 157.739 426.603 191.429 413.551C208.996 406.736 227.208 399.67 243.463 393.855C246.636 392.724 249.715 391.65 252.7 390.631L252.957 390.542C295.388 376.102 323.425 366.562 358.144 361.279C365.52 360.153 373.505 359.278 381.952 358.354C406.523 355.653 434.377 352.613 463.563 341.968C495.329 330.397 520.166 314.008 542.085 299.54C546.622 296.548 550.907 293.727 555.149 291.007C585.272 271.656 616.959 254.568 649.801 239.964L651.279 239.329C662.646 234.326 674.401 229.145 691.694 227.779C710.738 226.292 732.117 232.303 746.722 237.628C751.388 239.325 755.951 241.082 760.355 242.783C766.766 245.249 772.811 247.588 778.987 249.693C798.24 256.238 815.849 259.939 832.827 260.99C848.356 261.949 864.277 261.087 880.191 258.427C896.435 255.739 910.378 251.759 925.225 247.617C934.401 245.025 943.874 242.354 954.805 239.706C980.785 233.608 1006.92 228.864 1033.07 225.502C1068.99 220.69 1104.89 217.453 1140.62 215.801C1211.91 212.484 1296.19 214.381 1377.92 221.128L1377.26 222.473C1295.66 215.685 1211.43 213.815 1140.28 217.147C1104.65 218.775 1068.85 221.984 1033.03 226.759C1006.99 230.105 980.95 234.828 955.069 240.901C944.159 243.579 934.706 246.247 925.54 248.845C910.638 253.048 896.577 257.015 880.23 259.764C864.101 262.445 847.966 263.311 832.226 262.341C815.072 261.271 797.296 257.542 777.884 250.924C771.6 248.813 765.545 246.468 759.188 243.926C754.783 242.224 750.231 240.473 745.575 238.784C731.168 233.524 710.065 227.563 691.421 229.088C674.62 230.407 663.093 235.481 651.954 240.392L650.475 241.027C617.781 255.585 586.234 272.608 556.24 291.877C552.008 294.604 547.723 297.425 543.195 300.407C521.155 314.956 496.177 331.445 464.128 343.151C434.608 353.916 406.541 356.96 381.827 359.695C373.418 360.613 365.463 361.49 358.153 362.596C323.599 367.875 295.695 377.357 253.406 391.747L253.149 391.835C250.132 392.854 247.072 393.92 243.97 395.032C227.734 400.844 209.559 407.886 191.982 414.695C158.161 427.837 126.303 440.148 105.928 444.974L105.757 443.712Z" fill="url(#paint6_linear_1545_1552)"/>
<path style="mix-blend-mode:screen" opacity="0.7" d="M104.431 441.257C114.79 437.507 128.938 431.769 145.322 425.116C174.666 413.216 211.204 398.405 241.722 388.761C245 387.691 248.113 386.786 251.13 385.914C295.872 372.969 324.439 367.44 356.481 365.52C361.937 365.195 367.692 365.001 373.787 364.788C399.419 363.854 431.219 362.803 463.968 350.829C498.931 338.07 524.071 318.592 546.258 301.422C548.942 299.339 551.591 297.33 554.143 295.338C582.513 273.709 612.208 253.563 643.032 235.035L644.547 234.114C655.318 227.586 666.535 220.869 684.463 218.282C706.002 215.163 729.708 222.254 741.923 226.749C749.171 229.418 756.09 232.307 762.751 235.091C766.675 236.733 770.54 238.353 774.399 239.889C794.247 247.801 811.28 253.062 826.471 255.969C841.458 258.776 856.947 260.24 872.723 260.341C894.284 260.586 912.18 258.796 934.868 256.489C939.38 256.03 944.077 255.564 949.046 255.082C974.339 252.676 1001.11 250.737 1028.62 249.313C1064.51 247.383 1101.17 246.257 1137.57 245.994C1203.53 245.589 1283.15 247.861 1380.91 253.04L1380.25 254.548C1282.52 249.406 1202.98 247.103 1137.08 247.514C1100.67 247.838 1064.1 248.896 1028.26 250.826C1000.79 252.243 974.047 254.185 948.834 256.61C943.884 257.089 939.187 257.555 934.665 258.007C911.908 260.301 893.925 262.115 872.199 261.875C856.268 261.775 840.627 260.293 825.496 257.45C810.158 254.527 793.015 249.227 773.058 241.276C769.188 239.733 765.324 238.113 761.389 236.464C754.712 233.717 747.842 230.845 740.622 228.145C728.615 223.722 705.345 216.754 684.385 219.786C667.124 222.278 656.229 228.837 645.7 235.186L644.176 236.1C613.447 254.576 583.843 274.663 555.559 296.228C552.976 298.2 550.327 300.209 547.674 302.312C525.31 319.623 499.974 339.246 464.553 352.172C431.308 364.319 399.19 365.436 373.39 366.325C367.305 366.544 361.56 366.745 356.143 367.063C324.343 368.964 295.988 374.455 251.486 387.332C248.516 388.187 245.377 389.139 242.173 390.145C211.729 399.725 175.298 414.525 146.002 426.408C129.579 433.068 115.421 438.799 105.026 442.607L104.431 441.257Z" fill="url(#paint7_linear_1545_1552)"/>
<path style="mix-blend-mode:screen" opacity="0.7" d="M103.081 438.786C131.344 424.498 191.984 396.785 239.979 383.588C243.256 382.686 246.428 381.828 249.541 381.124C295.051 370.181 323.585 368.683 354.808 369.756C358.302 369.879 361.934 370.044 365.704 370.218C393.432 371.473 427.927 373.038 464.361 359.702C502.247 345.817 528.248 322.229 549.147 303.257L553.107 299.666C577.937 277.276 604.374 255.146 636.236 230.09L637.467 229.108C647.287 221.365 658.413 212.592 677.18 208.733C693.931 205.296 715.751 207.876 737.044 215.785C747.106 219.528 756.24 223.759 765.083 227.848L769.731 230.008C789.41 239.051 805.484 246.067 820.033 250.885C834.616 255.648 849.714 259.459 865.221 262.292C889.366 266.885 910.502 269.132 943.232 270.576C965.028 271.582 991.379 272.326 1021.89 273.207L1046.01 273.829C1072.73 274.513 1103.03 275.289 1134.53 276.287C1164.84 277.29 1195.96 278.491 1228.92 279.766C1280.34 281.746 1333.54 283.818 1383.94 285.044L1383.28 286.733C1332.83 285.474 1279.62 283.403 1228.22 281.445C1195.27 280.177 1164.17 278.996 1133.85 277.979C1102.41 277.004 1072.07 276.202 1045.36 275.515L1021.22 274.889C990.697 274.018 964.382 273.218 942.51 272.259C909.653 270.813 888.399 268.553 864.106 263.927C848.53 261.079 833.361 257.258 818.702 252.492C804.072 247.638 787.919 240.602 768.229 231.552L763.552 229.389C754.787 225.286 745.665 221.096 735.673 217.382C714.778 209.604 693.517 207.05 677.366 210.396C659.458 214.092 649.105 222.228 639.117 230.103L637.886 231.084C606.071 256.107 579.708 278.173 554.906 300.532L550.946 304.123C529.843 323.284 503.537 347.155 465.095 361.224C427.982 374.809 393.106 373.237 365.084 371.967C361.333 371.789 357.711 371.631 354.206 371.485C323.176 370.377 294.926 371.883 249.792 382.734C246.777 383.454 243.562 384.252 240.354 385.167C192.648 398.278 132.253 425.845 104.134 440.099L103.081 438.786Z" fill="url(#paint8_linear_1545_1552)"/>
<path style="mix-blend-mode:screen" opacity="0.7" d="M101.703 436.249C126.581 419.576 187.863 390.147 238.231 378.304C241.543 377.513 244.831 376.82 247.987 376.218C293.886 367.456 323.949 370.126 353.15 373.942L357.234 374.476C385.539 378.224 424.293 383.349 464.745 368.51C505.198 353.671 530.74 326.605 551.152 304.897L552.072 303.885C576.588 277.858 600.309 254.133 621.206 233.175L630.232 224.137C639.561 214.782 650.12 204.182 669.827 199.009C687.258 194.416 710.564 196.551 732.224 204.669C743.633 209.142 754.622 214.257 765.133 219.986C772.818 224.01 779.815 227.811 786.59 231.5C796.186 236.72 805.245 241.639 813.639 245.722C829.489 253.422 844.755 259.34 857.594 264.112C882.886 273.823 909.591 281.158 937.33 286.012C959.008 289.937 985.909 293.591 1019.55 297.175C1050.02 300.415 1086.67 303.464 1131.43 306.637C1231.44 313.794 1315.05 317.182 1386.91 317.101L1386.29 318.965C1314.34 319.037 1230.69 315.612 1130.57 308.476C1085.72 305.337 1049.09 302.258 1018.58 299.075C984.864 295.472 957.922 291.775 936.137 287.877C908.242 283 881.38 275.643 855.928 265.909C843.047 261.111 827.722 255.17 811.791 247.434C803.367 243.332 794.287 238.399 784.671 233.165C777.897 229.493 770.89 225.686 763.235 221.681C752.803 215.985 741.894 210.901 730.567 206.456C709.457 198.536 686.867 196.433 670.13 200.834C651.426 205.741 641.652 215.548 632.203 225.035L623.168 234.083C602.269 255.007 578.558 278.722 554.089 304.732L553.17 305.744C532.509 327.725 506.783 354.994 465.403 370.211C424.023 385.429 384.784 380.196 356.119 376.344L352.045 375.816C323.091 372.016 293.39 369.357 247.946 378.028C244.848 378.619 241.628 379.309 238.374 380.073C188.575 391.77 127.864 420.928 103.222 437.448L101.703 436.249Z" fill="url(#paint9_linear_1545_1552)"/>
<path style="mix-blend-mode:screen" opacity="0.7" d="M100.343 433.656C124.482 412.816 186.296 382.767 236.515 372.912C239.881 372.246 243.224 371.679 246.435 371.219C292.494 364.565 322.494 371.432 351.52 378.085C377.214 383.972 420.242 393.788 465.156 377.294C508.349 361.424 533.004 330.632 551.021 308.146C563.415 292.721 575.446 277.964 587.075 263.703C599.665 248.277 611.551 233.716 622.576 219.87L623.009 219.393C631.794 208.351 641.758 195.833 662.492 189.266C680.796 183.426 705.063 185.055 727.384 193.509C739.055 198.115 750.134 203.611 760.515 209.944C773.282 217.47 784.374 225.052 794.157 231.75C798.707 234.859 803.01 237.792 807.246 240.585C822.208 250.414 836.635 258.635 849.994 266.046C875.443 280.173 899.029 291.632 931.49 301.637C954.308 308.703 982.409 315.318 1015.08 321.324C1047.75 327.329 1085.76 332.541 1128.41 337.116C1192.55 344.065 1290 351.821 1390.02 349.282L1389.41 351.309C1289.19 353.85 1191.61 346.057 1127.37 339.085C1084.65 334.498 1046.44 329.176 1013.82 323.248C981.192 317.319 952.819 310.591 929.89 303.486C897.25 293.428 873.523 281.91 847.972 267.717C834.572 260.279 820.115 252.038 805.102 242.176C800.867 239.417 796.583 236.464 792.013 233.341C782.251 226.673 771.179 219.104 758.473 211.601C748.198 205.332 737.23 199.892 725.675 195.335C704.016 187.119 680.635 185.533 663.138 191.076C643.589 197.268 633.962 209.344 625.469 220.011L625.036 220.487C614.02 234.307 602.107 248.915 589.516 264.341C577.888 278.602 565.856 293.342 553.518 308.723C535.254 331.517 510.251 362.727 466.02 378.988C419.936 395.93 376.259 385.934 350.177 379.956C321.356 373.453 291.646 366.677 246.325 373.199C243.182 373.655 239.917 374.208 236.66 374.897C188.557 384.337 126.11 414.313 102.418 434.733L100.343 433.656Z" fill="url(#paint10_linear_1545_1552)"/>
<path style="mix-blend-mode:screen" opacity="0.7" d="M99.0236 430.981C120.311 407.77 182.898 375.651 234.801 367.402C238.242 366.859 241.65 366.424 244.907 366.102C288.385 361.82 316.134 370.996 345.508 380.73L349.872 382.164C380.888 392.385 422.065 402.069 465.573 386.035C507.59 370.566 531.174 339.864 549.994 312.308L557.779 300.928C578.695 270.366 598.452 241.493 615.737 214.604C623.951 201.82 633.274 187.313 655.049 179.318C677.632 171.006 704.672 175.316 722.444 182.12C734.402 186.835 745.579 192.713 755.797 199.661C770.797 209.533 782.929 219.981 793.742 229.246L800.671 235.186C815.71 247.901 830.1 258.784 842.204 267.757C864.705 284.428 890.365 301.959 925.429 317.133C949.251 327.458 977.834 336.952 1010.41 345.369C1047.84 354.731 1086.17 362.148 1125.22 367.588C1188.54 376.755 1286.35 386.603 1392.89 381.523L1392.34 383.706C1285.53 388.758 1187.4 378.916 1123.93 369.732C1084.77 364.282 1046.33 356.839 1008.79 347.439C976.075 338.995 947.35 329.442 923.408 319.071C888.113 303.828 862.331 286.233 839.727 269.479C827.603 260.493 813.182 249.59 798.111 236.821C795.834 234.9 793.523 232.909 791.162 230.884C780.461 221.676 768.309 211.231 753.422 201.433C743.34 194.576 732.312 188.773 720.515 184.118C703.336 177.539 677.345 173.329 655.888 181.225C635.413 188.74 626.424 202.735 618.499 215.076C601.197 242.002 581.431 270.885 560.496 301.468L552.73 312.828C533.593 340.841 509.604 372.024 466.432 387.922C421.652 404.423 379.687 394.549 348.071 384.181L343.708 382.747C314.684 373.129 287.256 364.048 244.6 368.25C241.421 368.558 238.111 368.993 234.758 369.528C183.761 377.622 122.347 409.096 101.512 431.809L99.0236 430.981Z" fill="url(#paint11_linear_1545_1552)"/>
<path style="mix-blend-mode:screen" opacity="0.7" d="M97.7065 428.209C118.75 399.531 183.278 367.874 233.12 361.815C236.605 361.375 240.059 361.077 243.402 360.902C285.507 358.633 311.897 370.248 339.836 382.548L348.246 386.227C391.905 405.104 430.421 407.899 465.994 394.78C507.89 379.32 530.623 347.992 548.973 316.438C567.826 284.026 589.7 245.953 608.833 209.226C615.87 195.659 624.624 178.764 647.558 169.243C663.021 162.825 689.511 159.812 717.499 170.602C729.776 175.435 741.075 181.709 751.136 189.279C767.094 200.93 779.307 213.972 790.149 225.505L794.155 229.739C805.803 242.072 818.247 254.34 834.437 269.455C856.072 289.466 883.098 312.635 919.456 332.647C944.128 346.26 973.187 358.657 1005.85 369.475C1043.34 381.607 1082.2 391.198 1122.13 398.175C1212.83 414.514 1307.5 419.957 1395.91 413.852L1395.41 416.203C1306.62 422.29 1211.63 416.863 1120.6 400.479C1077.69 392.77 1038.43 383.113 1003.86 371.684C971.044 360.8 941.823 348.33 917.029 334.653C880.467 314.524 853.327 291.266 831.589 271.17C815.377 256.025 802.923 243.751 791.222 231.367L787.217 227.133C776.427 215.651 764.268 202.693 748.464 191.142C738.581 183.702 727.487 177.529 715.436 172.764C698.597 166.27 670.998 161.969 648.701 171.238C627.202 180.168 618.747 196.463 611.968 209.548C592.759 246.306 570.867 284.417 552.016 316.863C533.353 348.976 510.153 380.908 466.923 396.831C430.132 410.374 390.632 407.619 346.053 388.354L337.632 384.667C310.058 372.524 283.983 361.065 242.819 363.25C239.575 363.425 236.22 363.722 232.852 364.141C184.127 370.084 121.061 400.94 100.548 428.908L97.7065 428.209Z" fill="url(#paint12_linear_1545_1552)"/>
<path style="mix-blend-mode:screen" opacity="0.7" d="M96.3828 425.324C115.108 393.574 179.453 360.534 231.329 356.03C234.889 355.713 238.409 355.55 241.798 355.512C283.115 355.065 309.774 369.857 335.569 384.085C339.197 386.109 342.844 388.129 346.488 390.081C375.387 405.666 419.698 420.553 466.341 403.308C510.119 387.126 532.114 352.281 547.853 320.342C569.896 275.679 587.573 237.498 601.922 203.595C607.893 189.399 616.09 169.98 640.039 158.909C664.606 147.591 694.441 151.787 712.509 158.812C725.066 163.777 736.454 170.444 746.321 178.61C762.524 191.615 774.295 206.942 784.676 220.466L787.447 224.064C799.278 239.397 812.04 254.75 826.482 270.955C856.225 304.169 882.995 327.955 913.287 348.079C940.426 365.887 969.826 381.114 1001.1 393.556C1038.62 408.442 1078.04 420.244 1118.91 428.832C1210.03 448.398 1306.79 454.402 1398.85 446.269L1398.41 448.785C1305.89 456.958 1208.68 450.941 1117.17 431.282C1076.12 422.689 1036.52 410.869 998.824 395.95C967.388 383.439 937.834 368.129 910.555 350.221C880.109 329.997 853.215 306.114 823.346 272.769C808.881 256.517 796.088 241.143 784.224 225.756L781.453 222.159C770.624 208.065 759.43 193.49 743.404 180.632C733.737 172.638 722.588 166.104 710.297 161.229C692.988 154.503 664.574 150.419 641.45 161.067C618.98 171.392 611.14 190.149 605.369 203.872C591.002 237.813 573.298 276.041 551.237 320.742C535.18 353.32 512.664 388.883 467.356 405.631C419.02 423.498 373.573 408.276 343.962 392.358C340.277 390.379 336.619 388.352 332.972 386.332C307.59 372.243 281.351 357.692 241.02 358.098C237.738 358.108 234.317 358.271 230.925 358.599C181.3 362.878 117.488 395.548 99.6438 425.805L96.3828 425.324Z" fill="url(#paint13_linear_1545_1552)"/>
<path style="mix-blend-mode:screen" opacity="0.7" d="M95.0577 422.345C111.353 387.978 176.743 352.911 229.662 350.134C233.288 349.952 236.865 349.934 240.32 350.032C281.301 351.404 307.104 368.804 332.142 385.638C336.279 388.434 340.56 391.308 344.814 394.066C368.029 409.042 414.739 431.276 466.781 411.994C512.247 395.148 532.764 358.245 546.838 324.372C565.981 278.36 581.74 237.031 595.028 198.026C600.026 183.327 607.512 161.189 632.524 148.604C648.485 140.565 677.713 135.333 707.553 147.023C720.417 152.134 731.914 159.213 741.592 167.981C757.798 182.256 768.483 199.052 778.827 215.284L780.876 218.448C792.571 236.769 805.271 254.977 818.668 272.58C847.258 310.163 875.423 339.126 907.217 363.731C934.417 384.626 964.31 402.776 996.469 417.921C1034 435.442 1073.96 449.401 1115.78 459.603C1207.53 482.409 1306.47 489.041 1401.86 478.782L1401.5 481.471C1305.52 491.768 1206.02 485.1 1113.78 462.184C1071.73 451.929 1031.57 437.892 993.842 420.273C961.511 405.054 931.463 386.808 904.127 365.797C872.209 341.112 843.938 312.03 815.142 274.296C801.752 256.666 789.02 238.421 777.283 220.056L775.286 216.925C765.017 200.792 754.399 184.121 738.401 170.014C728.946 161.445 717.713 154.527 705.143 149.532C676.682 138.383 649.116 143.213 634.175 150.742C612.571 161.616 605.084 179.328 598.728 198.071C585.422 237.131 569.636 278.508 550.487 324.564C544.475 339.043 535.823 357.84 522.19 374.858C507.339 393.417 489.562 406.345 467.833 414.394C413.724 434.435 365.714 411.663 341.903 396.314C337.638 393.532 333.3 390.703 329.189 387.859C304.572 371.266 279.11 354.106 239.223 352.811C235.907 352.705 232.47 352.733 228.992 352.913C177.709 355.533 114.38 389.413 98.6513 422.615L95.0577 422.345Z" fill="url(#paint14_linear_1545_1552)"/>
<path style="mix-blend-mode:screen" opacity="0.7" d="M93.7366 419.252C107.97 381.633 173.158 345.167 227.862 344.199C231.507 344.139 235.124 344.242 238.7 344.508C279.619 347.53 304.848 367.656 329.16 387.053C333.693 390.665 338.372 394.406 343.04 397.942C399.633 440.675 452.34 426.092 467.171 420.624C514.546 403.038 534.067 362.057 545.776 328.324C562.04 281.421 576.285 235.672 588.055 192.287C593.539 172.043 600.893 151.187 624.918 138.128C649.711 124.637 681.763 126.867 702.529 135.061C715.691 140.31 727.286 147.792 736.754 157.144C752.659 172.432 762.582 191.086 772.198 209.098L774.083 212.62C785.234 233.598 797.519 254.251 810.595 273.997C838.161 315.572 867.732 349.992 900.942 379.189C928.235 403.133 958.618 424.216 991.641 442.125C1029.15 462.3 1069.66 478.477 1112.48 490.376C1205.05 516.39 1306.08 523.688 1404.77 511.353L1404.49 514.181C1305.14 526.627 1203.41 519.327 1110.27 493.129C1067.22 481.153 1026.48 464.883 988.755 444.598C955.559 426.595 925.017 405.403 897.58 381.334C864.182 351.982 834.504 317.426 806.83 275.699C793.721 255.899 781.404 235.208 770.229 214.166L768.345 210.644C758.805 192.764 748.932 174.273 733.287 159.187C724.059 150.058 712.754 142.755 699.917 137.63C680.208 129.848 649.947 127.639 626.829 140.243C604.375 152.46 597.335 172.572 592.03 192.13C580.233 235.563 565.992 281.379 549.7 328.314C537.729 362.825 517.649 404.783 468.29 423.106C445.138 431.708 420.796 433.051 396.006 427.061C371.216 421.072 351.681 409.13 339.795 400.212C335.096 396.656 330.406 392.909 325.863 389.29C301.864 370.146 277.052 350.357 237.339 347.402C233.908 347.166 230.438 347.088 226.943 347.168C174.23 348.044 111.317 383.145 97.6456 419.33L93.7366 419.252Z" fill="url(#paint15_linear_1545_1552)"/>
<path style="mix-blend-mode:screen" opacity="0.7" d="M92.4209 416.04C98.7179 394.948 119.083 373.94 148.22 358.363C177.358 342.785 209.788 335.661 237.13 338.795C278.058 343.473 302.745 366.267 326.523 388.354C331.325 392.801 336.295 397.408 341.278 401.727C385.489 440.105 435.471 441.054 467.492 429.148C517.039 410.719 535.212 364.983 544.646 332.112C558.488 283.681 570.741 234.623 580.997 186.347C583.044 176.715 585.687 165.535 591.133 154.936C597.204 143.104 605.741 134.096 617.212 127.413C642.89 112.451 675.996 114.339 697.399 122.856C736.787 138.515 751.54 171.475 765.791 203.335L767.29 206.661C819.603 323.192 891.436 408.182 986.839 466.524C1102.79 537.272 1256.15 565.585 1407.68 544.163L1407.48 547.166C1254.75 568.805 1100.21 540.367 983.516 469.132C887.793 410.434 815.672 325.126 763.166 208.189L761.677 204.853C747.599 173.401 733.04 140.864 694.671 125.608C674.422 117.564 643.297 115.672 619.383 129.618C596.046 143.218 589.717 164.963 585.196 186.116C574.933 234.436 562.724 283.556 548.805 332.052C528.715 402.248 493.433 422.616 468.636 431.848C417.558 450.838 367.523 429.889 337.648 404.037C332.634 399.698 327.643 395.078 322.841 390.614C299.383 368.9 275.114 346.445 235.419 341.898C209.316 338.834 178.197 345.73 150.206 360.644C122.215 375.557 102.64 395.767 96.5991 415.96L92.4209 416.04Z" fill="url(#paint16_linear_1545_1552)"/>
</g>
<circle cx="100" cy="431" r="73" fill="url(#paint17_radial_1545_1552)"/>
<circle cx="1452" cy="530" r="116" fill="url(#paint18_radial_1545_1552)"/>
<circle cx="1443" cy="407" r="116" fill="url(#paint19_radial_1545_1552)"/>
<circle cx="1435" cy="318" r="116" fill="url(#paint20_radial_1545_1552)"/>
<circle cx="1429" cy="232" r="116" fill="url(#paint21_radial_1545_1552)"/>
<circle cx="1400" cy="143" r="116" fill="url(#paint22_radial_1545_1552)"/>
<circle cx="1384" cy="53" r="116" fill="url(#paint23_radial_1545_1552)"/>
</g>
<defs>
<linearGradient id="paint0_linear_1545_1552" x1="723.428" y1="136.908" x2="766.063" y2="319.083" gradientUnits="userSpaceOnUse">
<stop stop-color="#FFFFE0"/>
<stop offset="1" stop-color="#FEFCFF"/>
</linearGradient>
<linearGradient id="paint1_linear_1545_1552" x1="726.378" y1="166.125" x2="761.075" y2="314.416" gradientUnits="userSpaceOnUse">
<stop stop-color="#FFFFE0"/>
<stop offset="1" stop-color="#FEFCFF"/>
</linearGradient>
<linearGradient id="paint2_linear_1545_1552" x1="729.241" y1="194.712" x2="756.299" y2="310.377" gradientUnits="userSpaceOnUse">
<stop stop-color="#FFFFE0"/>
<stop offset="1" stop-color="#FEFCFF"/>
</linearGradient>
<linearGradient id="paint3_linear_1545_1552" x1="732.009" y1="222.355" x2="751.666" y2="306.394" gradientUnits="userSpaceOnUse">
<stop stop-color="#FFFFE0"/>
<stop offset="1" stop-color="#FEFCFF"/>
</linearGradient>
<linearGradient id="paint4_linear_1545_1552" x1="732.46" y1="232.8" x2="749.078" y2="303.855" gradientUnits="userSpaceOnUse">
<stop stop-color="#FFFFE0"/>
<stop offset="1" stop-color="#FEFCFF"/>
</linearGradient>
<linearGradient id="paint5_linear_1545_1552" x1="730.738" y1="226.872" x2="755.978" y2="334.804" gradientUnits="userSpaceOnUse">
<stop stop-color="#FFFFE0"/>
<stop offset="1" stop-color="#FEFCFF"/>
</linearGradient>
<linearGradient id="paint6_linear_1545_1552" x1="728.653" y1="218.086" x2="763.187" y2="365.77" gradientUnits="userSpaceOnUse">
<stop stop-color="#FFFFE0"/>
<stop offset="1" stop-color="#FEFCFF"/>
</linearGradient>
<linearGradient id="paint7_linear_1545_1552" x1="726.273" y1="208.322" x2="770.354" y2="396.832" gradientUnits="userSpaceOnUse">
<stop stop-color="#FFFFE0"/>
<stop offset="1" stop-color="#FEFCFF"/>
</linearGradient>
<linearGradient id="paint8_linear_1545_1552" x1="723.783" y1="197.978" x2="777.568" y2="427.979" gradientUnits="userSpaceOnUse">
<stop stop-color="#FFFFE0"/>
<stop offset="1" stop-color="#FEFCFF"/>
</linearGradient>
<linearGradient id="paint9_linear_1545_1552" x1="721.228" y1="187.198" x2="784.842" y2="459.214" gradientUnits="userSpaceOnUse">
<stop stop-color="#FFFFE0"/>
<stop offset="1" stop-color="#FEFCFF"/>
</linearGradient>
<linearGradient id="paint10_linear_1545_1552" x1="718.646" y1="176.12" x2="792.18" y2="490.518" gradientUnits="userSpaceOnUse">
<stop stop-color="#FFFFE0"/>
<stop offset="1" stop-color="#FEFCFF"/>
</linearGradient>
<linearGradient id="paint11_linear_1545_1552" x1="716.03" y1="164.751" x2="799.574" y2="521.893" gradientUnits="userSpaceOnUse">
<stop stop-color="#FFFFE0"/>
<stop offset="1" stop-color="#FEFCFF"/>
</linearGradient>
<linearGradient id="paint12_linear_1545_1552" x1="713.383" y1="153.174" x2="807.015" y2="553.364" gradientUnits="userSpaceOnUse">
<stop stop-color="#FFFFE0"/>
<stop offset="1" stop-color="#FEFCFF"/>
</linearGradient>
<linearGradient id="paint13_linear_1545_1552" x1="710.701" y1="141.246" x2="814.525" y2="584.893" gradientUnits="userSpaceOnUse">
<stop stop-color="#FFFFE0"/>
<stop offset="1" stop-color="#FEFCFF"/>
</linearGradient>
<linearGradient id="paint14_linear_1545_1552" x1="708.024" y1="129.236" x2="822.09" y2="616.51" gradientUnits="userSpaceOnUse">
<stop stop-color="#FFFFE0"/>
<stop offset="1" stop-color="#FEFCFF"/>
</linearGradient>
<linearGradient id="paint15_linear_1545_1552" x1="705.271" y1="116.822" x2="829.707" y2="648.223" gradientUnits="userSpaceOnUse">
<stop stop-color="#FFFFE0"/>
<stop offset="1" stop-color="#FEFCFF"/>
</linearGradient>
<linearGradient id="paint16_linear_1545_1552" x1="702.527" y1="104.24" x2="837.403" y2="680.014" gradientUnits="userSpaceOnUse">
<stop stop-color="#FEFCFF" stop-opacity="0"/>
<stop offset="0.388542" stop-color="#FFFFE0"/>
<stop offset="0.591667" stop-color="#FEFCFF" stop-opacity="0"/>
</linearGradient>
<radialGradient id="paint17_radial_1545_1552" cx="0" cy="0" r="1" gradientUnits="userSpaceOnUse" gradientTransform="translate(100 431) rotate(90) scale(73)">
<stop offset="0.40625" stop-color="#111827"/>
<stop offset="1" stop-color="#111827" stop-opacity="0"/>
</radialGradient>
<radialGradient id="paint18_radial_1545_1552" cx="0" cy="0" r="1" gradientUnits="userSpaceOnUse" gradientTransform="translate(1452 530) rotate(90) scale(116)">
<stop offset="0.40625" stop-color="#111827"/>
<stop offset="1" stop-color="#111827" stop-opacity="0"/>
</radialGradient>
<radialGradient id="paint19_radial_1545_1552" cx="0" cy="0" r="1" gradientUnits="userSpaceOnUse" gradientTransform="translate(1443 407) rotate(90) scale(116)">
<stop offset="0.40625" stop-color="#111827"/>
<stop offset="1" stop-color="#111827" stop-opacity="0"/>
</radialGradient>
<radialGradient id="paint20_radial_1545_1552" cx="0" cy="0" r="1" gradientUnits="userSpaceOnUse" gradientTransform="translate(1435 318) rotate(90) scale(116)">
<stop offset="0.40625" stop-color="#111827"/>
<stop offset="1" stop-color="#111827" stop-opacity="0"/>
</radialGradient>
<radialGradient id="paint21_radial_1545_1552" cx="0" cy="0" r="1" gradientUnits="userSpaceOnUse" gradientTransform="translate(1429 232) rotate(90) scale(116)">
<stop offset="0.40625" stop-color="#111827"/>
<stop offset="1" stop-color="#111827" stop-opacity="0"/>
</radialGradient>
<radialGradient id="paint22_radial_1545_1552" cx="0" cy="0" r="1" gradientUnits="userSpaceOnUse" gradientTransform="translate(1400 143) rotate(90) scale(116)">
<stop offset="0.40625" stop-color="#111827"/>
<stop offset="1" stop-color="#111827" stop-opacity="0"/>
</radialGradient>
<radialGradient id="paint23_radial_1545_1552" cx="0" cy="0" r="1" gradientUnits="userSpaceOnUse" gradientTransform="translate(1384 53) rotate(90) scale(116)">
<stop offset="0.40625" stop-color="#111827"/>
<stop offset="1" stop-color="#111827" stop-opacity="0"/>
</radialGradient>
<clipPath id="clip0_1545_1552">
<rect width="1480" height="618" fill="white"/>
</clipPath>
</defs>
</svg>
