<svg width="1491" height="1093" viewBox="0 0 1491 1093" fill="none" xmlns="http://www.w3.org/2000/svg">
<g opacity="0.15">
<path style="mix-blend-mode:screen" opacity="0.7" d="M41.9851 495.029L42.2744 494.705C62.6015 501.16 87.6265 501.398 114.608 495.376C139.568 489.611 163.295 480.039 184.662 467.113C206.715 453.844 226.07 438.166 244.835 423.036C260.927 410.058 277.575 396.63 295.811 384.725C399.023 317.384 561.561 302.414 665.883 350.732C670.751 352.988 675.642 355.425 680.376 357.774C698.913 367.025 718.133 376.517 741.662 378.369C763.225 380.07 786.443 375.068 808.768 363.902C828.798 353.821 846.207 340.138 859.777 323.809C873.338 307.292 882.971 289.383 892.291 272.07C900.188 257.389 908.352 242.202 918.89 227.907C935.671 205.118 959.58 183.689 988.05 165.903C1017.21 147.814 1049.5 134.008 1083.56 125.062C1118.22 116.054 1154.14 111.946 1189.92 112.9C1225.5 113.891 1259.84 120.059 1289.25 130.779L1289.01 131.054C1259.69 120.388 1225.47 114.19 1189.91 113.246C1154.21 112.291 1118.36 116.39 1083.76 125.381C1049.78 134.318 1017.55 148.098 988.442 166.147C960.045 183.891 936.171 205.298 919.464 228.06C908.969 242.308 900.778 257.507 892.897 272.169C883.571 289.508 873.921 307.436 860.335 323.982C846.723 340.366 829.256 354.094 809.157 364.205C786.706 375.439 763.364 380.465 741.663 378.748C717.995 376.88 698.747 367.324 680.144 358.09C675.451 355.753 670.519 353.303 665.651 351.048C561.493 302.869 399.202 317.79 296.201 385.028C277.973 396.924 261.308 410.371 245.269 423.309C226.454 438.42 207.011 454.1 184.967 467.361C163.532 480.327 139.73 489.931 114.691 495.719C87.5756 501.759 62.4336 501.518 41.9851 495.029Z" fill="url(#paint0_linear_1104_1733)"/>
<path style="mix-blend-mode:screen" opacity="0.7" d="M40.8766 492.603L41.2128 492.114C60.4049 497.009 84.8369 496.163 111.861 489.671C136.691 483.466 160.465 474.154 182.42 462.033C185.122 460.55 187.9 458.981 190.691 457.36C208.948 446.727 225.298 435.058 241.122 423.767C257.774 411.874 274.988 399.58 293.974 388.93C322.87 372.723 357.618 360.938 387.806 351.557C426.113 339.645 457.397 332.186 486.256 328.062C530.014 321.836 573.186 322.162 611.095 329.032C626.957 331.798 642.419 335.897 657.268 341.27C665 344.103 672.549 347.407 680.562 350.912C687.789 354.063 695.212 357.298 702.813 360.182C713.12 364.276 724.059 367.136 735.341 368.685C756.106 371.273 777.454 368.278 798.784 359.787C818.725 351.798 836.519 340.105 850.867 325.561C864.308 311.738 874.315 296.594 883.976 281.949C892.5 269.049 901.309 255.718 912.514 243.141C929.762 223.869 953.549 205.748 981.428 190.792C1012.37 174.457 1045.9 162.362 1080.8 154.951C1116.53 147.444 1153.13 144.318 1189.51 145.663C1225.89 147.036 1261.49 152.862 1292.33 162.608L1291.91 163.074C1261.17 153.316 1225.69 147.491 1189.35 146.164C1153.07 144.829 1116.56 147.952 1080.92 155.44C1046.11 162.831 1012.67 174.892 981.809 191.181C953.971 206.073 930.209 224.09 913.074 243.33C901.863 255.858 893.103 269.191 884.613 282.052C874.894 296.705 864.913 311.896 851.43 325.767C836.993 340.385 819.099 352.139 799.049 360.174C777.838 368.608 755.725 371.718 735.037 369.119C723.683 367.558 712.674 364.682 702.298 360.568C694.697 357.684 687.252 354.435 680.055 351.288C672.053 347.79 664.495 344.496 656.794 341.667C641.988 336.312 626.573 332.225 610.761 329.462C572.971 322.611 529.897 322.289 486.257 328.517C457.463 332.624 426.237 340.075 387.985 351.963C357.921 361.472 323.207 373.219 294.428 389.352C275.479 399.981 258.281 412.256 241.672 424.101C225.842 435.418 209.455 447.109 191.19 457.751C188.399 459.372 185.612 460.95 182.91 462.433C160.857 474.63 136.966 483.995 112.011 490.225C84.7947 496.741 60.1966 497.583 40.8766 492.603Z" fill="url(#paint1_linear_1104_1733)"/>
<path style="mix-blend-mode:screen" opacity="0.7" d="M39.7263 490.242L40.0796 489.581C80.2239 497.057 138.789 477.651 180.167 457.034C182.915 455.671 185.74 454.222 188.59 452.745C206.094 443.662 221.613 434.006 236.619 424.678C254.89 413.314 272.152 402.584 292.125 393.227C313.394 383.257 338.754 375.602 365.643 367.475C373.045 365.238 380.69 362.919 388.318 360.544C394.568 358.62 400.71 356.685 406.742 354.738C434.033 346.104 459.825 337.948 484.966 332.513C526.194 323.636 567.13 320.721 603.333 324.1C618.731 325.335 633.882 327.959 648.544 331.929C659.686 335.019 671.366 339.709 682.675 344.244C687.097 346.021 691.682 347.86 696.195 349.592C708.849 354.426 718.97 357.386 728.894 359.124C749.343 362.612 770.705 361.119 790.647 354.807C809.657 348.942 827.133 339.628 841.884 327.501C855.228 316.253 865.577 303.78 875.643 291.68C884.769 280.686 894.198 269.316 906.066 258.561C924.11 242.195 948.623 227.006 976.913 214.637C1007.21 201.354 1042.18 191.164 1078.05 185.122C1149.82 173.118 1229.05 176.634 1295.42 194.748L1294.98 195.395C1228.78 177.318 1149.76 173.817 1078.16 185.79C1042.41 191.791 1007.54 201.952 977.346 215.197C949.167 227.518 924.771 242.632 906.795 258.922C894.991 269.644 885.577 280.978 876.502 291.915C866.449 304.039 856.047 316.553 842.632 327.86C827.78 340.107 810.174 349.521 791.014 355.46C770.86 361.829 749.277 363.336 728.614 359.817C718.591 358.075 708.451 355.118 695.703 350.236C691.171 348.507 686.586 346.668 682.154 344.884C670.906 340.375 659.226 335.685 648.135 332.613C633.552 328.646 618.476 326.032 603.153 324.814C567.099 321.458 526.295 324.34 485.243 333.227C460.178 338.636 434.423 346.787 407.152 355.419C401.084 357.342 394.945 359.274 388.736 361.215C381.1 363.6 373.444 365.911 366.042 368.148C339.228 376.25 313.887 383.901 292.693 393.845C272.785 403.186 255.56 413.894 237.305 425.239C222.283 434.586 206.723 444.23 189.205 453.349C186.346 454.836 183.51 456.277 180.762 457.64C139.068 478.307 80.1818 497.787 39.7263 490.242Z" fill="url(#paint2_linear_1104_1733)"/>
<path style="mix-blend-mode:screen" opacity="0.7" d="M38.6385 487.82L38.9706 486.994C84.3441 491.96 156.809 461.419 177.931 451.944C180.851 450.643 183.714 449.343 186.518 448.046C202.73 440.582 216.984 432.99 230.846 425.685C250.381 415.25 268.971 405.433 290.311 397.423C305.644 391.683 323.366 387.07 342.273 382.272C357.351 378.411 372.949 374.424 388.847 369.438C405.957 364.085 421.927 358.297 437.375 352.694C453.511 346.834 468.754 341.308 483.653 336.888C522.14 325.477 560.827 319.31 595.541 319.081C608.6 318.994 622.776 319.177 639.804 322.478C654.831 325.394 670.912 331.631 686.449 337.66L689.602 338.884C700.177 343.201 711.178 346.733 722.492 349.445C742.008 353.865 762.658 353.953 782.58 349.703C800.666 345.857 817.789 338.871 832.9 329.172C846.326 320.379 856.666 310.801 867.607 300.665C877.282 291.754 887.256 282.51 899.59 273.722C918.555 260.316 943.705 248.049 972.32 238.214C1003.34 227.514 1038.92 219.502 1075.25 215.053C1147.69 206.26 1228.93 210.411 1298.45 226.654L1297.93 227.462C1228.65 211.3 1147.51 207.076 1075.31 215.88C1039.07 220.301 1003.65 228.31 972.758 238.959C944.282 248.734 919.262 260.951 900.39 274.252C888.086 282.968 878.146 292.175 868.531 301.095C857.545 311.262 847.171 320.878 833.645 329.726C818.371 339.532 801.062 346.597 782.779 350.487C762.616 354.781 741.719 354.689 721.968 350.22C710.602 347.502 699.546 343.969 688.912 339.655L685.759 338.432C670.273 332.421 654.241 326.186 639.346 323.312C622.459 320.044 608.37 319.858 595.373 319.971C560.825 320.203 522.309 326.332 483.982 337.697C469.141 342.11 453.917 347.634 437.797 353.475C422.33 359.08 406.352 364.878 389.206 370.252C373.25 375.245 357.633 379.235 342.527 383.108C323.72 387.927 305.96 392.469 290.753 398.201C269.481 406.211 251.025 416.01 231.525 426.407C217.667 433.746 203.347 441.355 187.113 448.804C184.265 450.088 181.4 451.39 178.518 452.712C157.266 462.161 84.4045 492.88 38.6385 487.82Z" fill="url(#paint3_linear_1104_1733)"/>
<path style="mix-blend-mode:screen" opacity="0.7" d="M37.5755 485.377L37.8074 484.377C65.4989 485.008 111.877 472.398 175.699 446.832L184.46 443.331C198.34 437.758 210.711 432.293 222.678 427.016C244.456 417.386 265.027 408.307 288.531 401.612C300.384 398.247 313.865 395.627 328.161 392.818C346.952 389.147 368.211 385.016 389.377 378.35C412.714 371.043 432.942 362.253 452.479 353.779C462.875 349.268 472.681 345.018 482.35 341.299C518.152 327.436 554.589 318.03 587.712 314.094C599.814 312.654 613.519 311.017 631.047 313.051C647.616 314.92 665.804 321.457 683.024 328.204C693.758 332.633 704.803 336.503 716.104 339.795C734.819 345.047 754.766 346.677 774.577 344.575C791.778 342.655 808.538 338.007 824.014 330.864C837.673 324.417 848.574 317.082 860.111 309.32C870.677 301.946 881.74 295.137 893.236 288.933C913.138 278.531 938.968 269.142 967.834 261.869C1002.14 253.367 1037.2 247.737 1072.51 245.06C1145.25 239.366 1228.72 244.322 1301.51 258.632L1300.97 259.596C1228.29 245.363 1145.03 240.433 1072.46 246.088C1037.26 248.763 1002.33 254.375 968.136 262.843C939.387 270.117 913.74 279.416 893.966 289.751C882.531 295.926 871.525 302.702 861.015 310.04C849.413 317.835 838.468 325.201 824.637 331.687C808.962 338.917 791.989 343.624 774.569 345.571C754.511 347.679 734.32 346.011 715.379 340.681C704.021 337.373 692.92 333.481 682.135 329.026C665.009 322.327 646.909 315.862 630.572 313.98C613.283 311.984 599.701 313.596 587.715 315.021C554.731 318.974 518.465 328.341 482.863 342.094C473.264 345.829 463.467 350.069 453.098 354.569C433.559 363.102 413.248 371.852 389.802 379.224C368.53 385.895 347.198 390.069 328.349 393.747C314.109 396.532 300.657 399.157 288.882 402.512C265.518 409.164 245.013 418.226 223.288 427.815C211.314 433.102 198.933 438.576 185.015 444.154L176.246 447.664C112.214 473.35 65.5445 486.04 37.5755 485.377Z" fill="url(#paint4_linear_1104_1733)"/>
<path style="mix-blend-mode:screen" opacity="0.7" d="M36.5657 482.916L36.5926 481.765C67.1569 479.489 120.274 460.627 163.002 445.408L173.472 441.713C176.47 440.662 179.459 439.604 182.436 438.539C191.943 435.254 200.698 432.124 209.163 429.091C236.227 419.38 259.605 410.993 286.818 405.754C296.223 403.95 306.662 402.589 317.769 401.184C339.776 398.358 364.723 395.156 389.935 387.21C417.719 378.462 440.945 366.33 461.346 355.682C468.179 352.115 474.629 348.749 480.993 345.629C513.967 329.507 548.153 316.799 579.791 309.009L580.558 308.818C592.595 305.842 605.05 302.779 622.232 303.5C636.556 304.089 654.273 308.641 676.41 317.396L683.143 320.079C692.247 323.725 700.836 327.167 709.676 330.061C729.235 336.395 748.364 339.559 766.538 339.495C782.963 339.447 799.366 337.116 815.127 332.591C829.46 328.418 841.339 323.166 853.876 317.636C863.956 313.197 874.367 308.598 886.873 304.186C907.833 296.809 934.24 290.398 963.303 285.58C998.525 279.855 1034.09 276.366 1069.71 275.14C1142.24 272.532 1227.82 278.196 1304.51 290.679L1303.94 291.823C1227.38 279.366 1141.97 273.706 1069.59 276.304C1034.07 277.526 998.609 281.008 963.49 286.721C934.569 291.513 908.278 297.909 887.422 305.187C875 309.563 864.636 314.148 854.603 318.573C841.983 324.139 830.065 329.395 815.595 333.645C799.612 338.241 782.975 340.607 766.317 340.654C747.878 340.71 728.593 337.549 708.827 331.124C699.901 328.249 691.28 324.786 682.155 321.126L675.432 318.45C653.501 309.769 635.995 305.266 621.906 304.681C605.068 303.975 592.794 307.007 580.917 309.937L580.149 310.111C548.683 317.879 514.653 330.508 481.818 346.57C475.481 349.678 469.04 353.034 462.226 356.599C441.706 367.304 418.427 379.477 390.446 388.292C365.016 396.291 339.965 399.515 317.851 402.346C306.814 403.768 296.382 405.103 287.054 406.897C260.031 412.095 236.728 420.455 209.764 430.111C201.29 433.154 192.537 436.301 183.02 439.579C180.097 440.589 177.126 441.628 174.106 442.695L163.648 446.397C120.77 461.67 67.4502 480.625 36.5657 482.916Z" fill="url(#paint5_linear_1104_1733)"/>
<path style="mix-blend-mode:screen" opacity="0.7" d="M35.3552 479.146C55.4411 475.417 86.7776 464.767 119.968 453.491C137.273 447.602 155.215 441.496 171.263 436.537C174.395 435.572 177.436 434.66 180.386 433.798L180.64 433.723C222.582 421.513 250.295 413.446 285.07 409.966C292.458 409.222 300.479 408.762 308.966 408.275C333.648 406.846 361.631 405.249 390.431 396.14C421.776 386.24 445.772 371.184 466.947 357.89C471.331 355.142 475.471 352.551 479.575 350.058C508.713 332.32 539.594 316.918 571.817 304.052L573.269 303.495C584.425 299.094 595.962 294.534 613.371 294.062C632.545 293.558 654.606 300.649 669.762 306.707C674.604 308.638 679.345 310.624 683.922 312.546C690.585 315.333 696.867 317.975 703.267 320.39C723.213 327.904 741.297 332.498 758.556 334.418C774.343 336.172 790.398 336.133 806.321 334.3C822.576 332.455 836.412 329.206 851.151 325.841C860.258 323.729 869.66 321.554 880.54 319.477C906.412 314.735 932.535 311.351 958.766 309.345C994.794 306.396 1030.9 305.015 1066.96 305.206C1138.89 305.566 1224.33 311.79 1307.54 322.717L1306.97 324.023C1223.89 313.062 1138.49 306.867 1066.71 306.53C1030.76 306.321 994.748 307.678 958.82 310.596C932.689 312.592 906.665 315.96 880.891 320.682C870.035 322.79 860.652 324.962 851.555 327.081C836.765 330.504 822.809 333.734 806.454 335.634C790.314 337.476 774.043 337.51 758.042 335.734C740.603 333.786 722.349 329.155 702.236 321.561C695.727 319.134 689.434 316.486 682.821 313.625C678.244 311.702 673.513 309.724 668.682 307.8C653.731 301.817 631.952 294.791 613.186 295.353C596.272 295.803 584.958 300.267 574.026 304.589L572.574 305.146C540.497 317.975 509.754 333.319 480.74 350.981C476.647 353.482 472.506 356.072 468.131 358.811C446.839 372.179 422.708 387.328 391.085 397.348C361.956 406.558 333.758 408.15 308.933 409.605C300.484 410.087 292.493 410.552 285.171 411.279C250.563 414.763 222.98 422.779 181.18 434.946L180.925 435.021C177.943 435.881 174.92 436.786 171.857 437.736C155.829 442.693 137.923 448.777 120.607 454.66C87.2912 466.019 55.9034 476.65 35.6167 480.413L35.3552 479.146Z" fill="url(#paint6_linear_1104_1733)"/>
<path style="mix-blend-mode:screen" opacity="0.7" d="M34.0344 476.517C44.2383 473.318 58.1321 468.336 74.2205 462.558C103.036 452.227 138.916 439.369 169.076 431.342C172.313 430.446 175.395 429.705 178.382 428.993C222.681 418.412 251.157 414.377 283.395 414.112C288.884 414.069 294.685 414.171 300.828 414.272C326.658 414.658 358.713 415.244 390.964 405.014C425.396 394.116 449.436 376.031 470.653 360.089C473.219 358.155 475.755 356.292 478.194 354.442C505.347 334.383 533.942 315.867 563.79 299.017L565.256 298.179C575.682 292.238 586.547 286.132 604.478 284.479C626.022 282.481 650.467 290.752 663.121 295.85C670.63 298.877 677.823 302.106 684.746 305.217C688.825 307.052 692.842 308.862 696.849 310.588C717.453 319.477 735.029 325.584 750.579 329.256C765.917 332.816 781.668 335.068 797.613 335.978C819.413 337.328 837.369 336.466 860.129 335.335C864.656 335.11 869.369 334.887 874.355 334.663C899.741 333.568 926.652 333.013 954.348 333.008C990.473 332.93 1027.43 333.692 1064.19 335.298C1130.8 338.28 1211.4 344.626 1310.53 354.795L1309.97 356.261C1210.87 346.131 1130.35 339.758 1063.8 336.785C1027.03 335.238 990.166 334.414 954.091 334.495C926.433 334.495 899.551 335.054 874.247 336.173C869.28 336.394 864.568 336.617 860.03 336.835C837.199 337.949 819.158 338.831 797.191 337.477C781.089 336.56 765.183 334.283 749.698 330.678C733.998 326.984 716.309 320.832 695.591 311.898C691.574 310.165 687.556 308.355 683.466 306.513C676.528 303.438 669.387 300.228 661.904 297.172C649.465 292.156 625.469 284.031 604.505 285.971C587.24 287.565 576.69 293.529 566.496 299.305L565.02 300.136C535.264 316.938 506.757 335.4 479.687 355.4C477.215 357.229 474.679 359.092 472.146 361.047C450.759 377.12 426.532 395.34 391.649 406.38C358.909 416.757 326.538 416.22 300.534 415.78C294.402 415.686 288.611 415.591 283.161 415.63C251.167 415.889 222.902 419.896 178.841 430.421C175.9 431.119 172.795 431.905 169.628 432.741C139.539 440.709 103.766 453.562 74.9973 463.878C58.8704 469.661 44.9659 474.636 34.7301 477.89L34.0344 476.517Z" fill="url(#paint7_linear_1104_1733)"/>
<path style="mix-blend-mode:screen" opacity="0.7" d="M32.6966 473.931C60.2011 461.193 119.417 436.786 166.894 426.142C170.135 425.414 173.274 424.724 176.364 424.185C221.492 415.651 250.16 415.625 281.719 418.29C285.25 418.591 288.925 418.941 292.738 419.306C320.786 421.973 355.678 425.293 391.487 413.919C428.723 402.075 453.297 379.989 473.05 362.223L476.793 358.86C500.271 337.904 525.387 317.287 555.769 294.042L556.943 293.131C566.305 285.946 576.913 277.807 595.568 274.936C612.22 272.382 634.402 276.061 656.423 285.004C666.831 289.235 676.336 293.903 685.537 298.416L690.374 300.798C710.848 310.784 727.545 318.574 742.552 324.102C757.588 329.578 773.078 334.135 788.911 337.741C813.578 343.538 835.048 346.852 868.152 349.962C890.2 352.077 916.823 354.165 947.649 356.602L972.011 358.455C999.01 360.503 1029.62 362.825 1061.45 365.429C1092.08 367.977 1123.54 370.764 1156.87 373.718C1208.85 378.318 1262.65 383.1 1313.55 386.898L1313 388.541C1262.04 384.708 1208.25 379.926 1156.28 375.35C1122.96 372.403 1091.53 369.637 1060.88 367.075C1029.11 364.497 998.46 362.146 971.48 360.096L947.087 358.238C916.253 355.81 889.662 353.668 867.541 351.596C834.309 348.477 812.72 345.144 787.901 339.308C771.997 335.682 756.435 331.112 741.321 325.629C726.231 320.061 709.452 312.248 688.968 302.255L684.101 299.868C674.977 295.346 665.487 290.718 655.152 286.519C633.542 277.727 611.924 274.102 595.871 276.597C578.071 279.35 568.198 286.896 558.676 294.203L557.502 295.114C527.165 318.327 502.119 338.885 478.667 359.813L474.924 363.175C454.979 381.118 430.116 403.469 392.333 415.468C355.856 427.055 320.58 423.707 292.235 421.011C288.44 420.643 284.777 420.3 281.233 419.976C249.866 417.286 221.484 417.335 176.729 425.796C173.74 426.356 170.553 426.984 167.382 427.728C120.19 438.302 61.2114 462.577 33.8503 475.288L32.6966 473.931Z" fill="url(#paint8_linear_1104_1733)"/>
<path style="mix-blend-mode:screen" opacity="0.7" d="M31.3347 471.344C55.2132 456.095 114.843 430.068 164.712 420.909C167.99 420.294 171.25 419.775 174.385 419.34C219.97 413.005 250.412 417.187 280.065 422.461L284.213 423.199C312.961 428.36 352.319 435.419 392 422.784C431.681 410.149 455.505 384.636 474.54 364.17L475.395 363.214C498.259 338.679 520.483 316.383 540.057 296.685L548.512 288.191C557.251 279.398 567.141 269.435 586.615 265.317C603.838 261.657 627.443 264.964 649.806 274.114C661.6 279.13 673.015 284.76 683.991 290.974C692.006 295.354 699.312 299.478 706.387 303.479C716.408 309.143 725.867 314.48 734.599 318.955C751.086 327.394 766.861 334.038 780.115 339.423C806.244 350.338 833.631 358.971 861.885 365.199C883.976 370.197 911.303 375.193 945.409 380.463C976.299 385.231 1013.4 390.126 1058.67 395.558C1159.81 407.762 1244.2 415.393 1316.52 418.987L1316.02 420.802C1243.61 417.195 1159.19 409.525 1057.93 397.336C1012.57 391.933 975.492 387.009 944.57 382.296C910.382 377.003 883.01 371.962 860.814 366.986C832.401 360.728 804.855 352.065 778.562 341.119C765.266 335.706 749.429 329.036 732.858 320.556C724.095 316.061 714.613 310.709 704.571 305.032C697.499 301.047 690.182 296.916 682.199 292.557C671.304 286.379 659.972 280.784 648.263 275.801C626.466 266.874 603.585 263.635 587.047 267.14C568.563 271.046 559.409 280.264 550.558 289.181L542.095 297.685C522.516 317.349 500.301 339.635 477.484 364.156L476.629 365.112C457.363 385.836 433.368 411.54 392.78 424.503C352.192 437.466 312.337 430.275 283.221 424.993L279.084 424.262C249.679 419.016 219.603 414.863 174.47 421.131C171.393 421.559 168.201 422.078 164.978 422.668C115.672 431.713 56.5986 457.5 32.9469 472.61L31.3347 471.344Z" fill="url(#paint9_linear_1104_1733)"/>
<path style="mix-blend-mode:screen" opacity="0.7" d="M29.9843 468.77C52.7857 449.393 112.793 422.833 162.555 415.649C165.89 415.163 169.209 414.772 172.403 414.481C218.207 410.251 248.819 418.573 278.438 426.632C304.656 433.765 348.56 445.668 392.531 431.648C434.818 418.158 457.448 388.967 473.985 367.65C485.365 353.029 496.427 339.05 507.118 325.541C518.695 310.929 529.624 297.136 539.738 284.006L540.14 283.557C548.198 273.086 557.338 261.216 577.711 255.78C595.692 250.938 620.181 253.788 643.189 263.287C655.233 268.437 666.744 274.437 677.611 281.229C690.957 289.323 702.625 297.387 712.918 304.509C717.703 307.816 722.229 310.936 726.678 313.914C742.39 324.397 757.452 333.263 771.385 341.273C797.93 356.541 822.417 369.076 855.718 380.626C879.13 388.778 907.817 396.754 941.049 404.36C974.281 411.965 1012.83 419.059 1055.99 425.758C1120.9 435.903 1219.33 448.545 1319.62 451.138L1319.15 453.111C1218.66 450.51 1120.1 437.826 1055.08 427.653C1011.85 420.937 973.099 413.725 939.916 406.198C906.733 398.671 877.765 390.57 854.24 382.373C820.755 370.762 796.122 358.161 769.47 342.822C755.494 334.783 740.4 325.897 724.635 315.377C720.19 312.433 715.681 309.294 710.874 305.973C700.605 298.882 688.958 290.832 675.674 282.763C664.918 276.04 653.523 270.101 641.6 265.005C619.273 255.775 595.677 253.014 578.485 257.602C559.277 262.728 550.445 274.179 542.654 284.293L542.252 284.743C532.145 297.846 521.192 311.684 509.615 326.297C498.924 339.805 487.86 353.768 476.533 368.348C459.769 389.957 436.819 419.545 393.517 433.368C348.4 447.77 303.833 435.656 277.219 428.414C247.817 420.513 217.502 412.297 172.43 416.433C169.304 416.723 166.063 417.105 162.839 417.619C115.173 424.5 54.5254 450.957 32.1434 469.941L29.9843 468.77Z" fill="url(#paint10_linear_1104_1733)"/>
<path style="mix-blend-mode:screen" opacity="0.7" d="M28.6642 466.193C48.4004 444.37 108.926 415.859 160.394 410.363C163.806 410.002 167.193 409.746 170.436 409.593C213.732 407.582 242.188 418.051 272.313 429.153L276.788 430.791C308.593 442.457 350.548 454.112 393.06 440.503C434.115 427.377 455.635 398.278 472.596 372.042L479.613 361.207C498.468 332.111 516.276 304.622 531.744 278.966C539.094 266.767 547.437 252.926 568.716 246.144C590.782 239.092 618.192 244.722 636.481 252.342C648.797 257.604 660.41 263.974 671.137 271.352C686.859 281.858 699.746 292.787 711.229 302.481L718.587 308.697C734.546 322.011 749.727 333.485 762.484 342.956C786.198 360.554 813.139 379.163 849.346 395.924C873.945 407.327 903.261 418.151 936.502 428.118C974.685 439.263 1013.63 448.535 1053.15 455.892C1117.27 468.164 1216.02 482.864 1322.49 483.277L1322.09 485.403C1215.35 484.949 1116.28 470.238 1052.01 457.943C1012.37 450.569 973.314 441.266 935.021 430.078C901.638 420.079 872.177 409.188 847.454 397.733C811.011 380.892 783.944 362.215 760.121 344.529C747.342 335.044 732.128 323.549 716.134 310.18C713.718 308.168 711.263 306.085 708.756 303.967C697.389 294.334 684.483 283.408 668.878 272.979C658.294 265.698 646.836 259.411 634.685 254.215C617.007 246.847 590.655 241.37 569.69 248.069C549.681 254.442 541.638 267.797 534.547 279.573C519.064 305.265 501.247 332.763 482.375 361.879L475.375 372.694C458.127 399.365 436.235 428.919 394.051 442.409C350.297 456.414 307.538 444.532 275.122 432.69L270.648 431.052C240.883 420.082 212.754 409.724 170.277 411.698C167.111 411.84 163.823 412.1 160.498 412.458C109.928 417.849 50.5329 445.783 31.2163 467.137L28.6642 466.193Z" fill="url(#paint11_linear_1104_1733)"/>
<path style="mix-blend-mode:screen" opacity="0.7" d="M27.3605 463.593C46.4373 436.418 108.824 408.52 158.283 405.086C161.74 404.83 165.176 404.712 168.509 404.709C210.488 404.614 237.699 417.395 266.508 430.929L275.179 434.981C320.173 455.791 358.91 460.502 393.603 449.39C434.46 436.293 455.044 406.594 471.227 376.45C487.854 345.487 507.113 309.101 523.721 273.901C529.825 260.898 537.418 244.703 559.711 236.492C574.741 230.957 601.042 229.335 629.796 241.385C642.415 246.769 654.156 253.522 664.748 261.489C681.522 273.776 694.645 287.242 706.292 299.15L710.593 303.524C723.102 316.264 736.403 328.978 753.649 344.688C776.682 365.496 805.329 389.688 843.096 411.246C868.726 425.907 898.663 439.594 932.098 451.908C970.457 465.764 1010 477.185 1050.44 486.085C1142.34 506.788 1237.45 516.961 1325.5 515.443L1325.16 517.732C1236.73 519.214 1141.3 509.041 1049.08 488.277C1005.6 478.503 965.647 466.997 930.258 453.983C896.666 441.595 866.563 427.829 840.806 413.099C802.826 391.415 774.059 367.129 750.917 346.232C733.647 330.492 720.336 317.77 707.771 304.979L703.47 300.605C691.879 288.748 678.816 275.368 662.203 263.188C651.798 255.359 640.27 248.715 627.881 243.41C610.581 236.157 582.665 230.518 560.992 238.515C540.095 246.216 532.76 261.836 526.881 274.378C510.197 309.604 490.923 346.026 474.301 377.023C457.844 407.702 436.834 437.972 394.674 451.457C358.792 462.925 319.073 458.204 273.131 436.964L264.449 432.905C236.016 419.543 209.131 406.933 168.089 406.992C164.854 406.999 161.517 407.121 158.175 407.363C109.826 410.74 48.8476 437.923 30.2526 464.426L27.3605 463.593Z" fill="url(#paint12_linear_1104_1733)"/>
<path style="mix-blend-mode:screen" opacity="0.7" d="M26.0725 460.965C42.5864 430.71 104.576 401.502 156.08 399.707C159.614 399.577 163.118 399.595 166.501 399.73C207.739 401.387 235.385 417.277 262.131 432.57C265.894 434.742 269.677 436.913 273.451 439.016C303.391 455.8 348.675 472.679 394.073 458.097C436.684 444.414 456.25 411.283 469.768 380.691C488.705 337.914 503.728 301.285 515.721 268.692C520.707 255.044 527.554 236.374 550.712 226.708C574.469 216.83 604.558 222.468 623.089 230.289C635.974 235.806 647.808 242.937 658.226 251.462C675.307 265.067 688.121 280.727 699.423 294.546L702.438 298.222C715.313 313.892 729.118 329.629 744.661 346.289C776.659 380.441 805.037 405.177 836.681 426.491C865.016 445.371 895.431 461.828 927.523 475.643C966.031 492.177 1006.21 505.775 1047.63 516.29C1139.99 540.143 1237.05 550.953 1328.44 547.63L1328.17 550.08C1236.33 553.42 1138.82 542.574 1046.06 518.61C1004.46 508.082 964.103 494.456 925.418 477.88C893.157 463.99 862.582 447.443 834.1 428.459C802.295 407.037 773.787 382.2 741.653 347.912C726.084 331.205 712.247 315.447 699.336 299.722L696.32 296.046C684.532 281.645 672.346 266.752 655.452 253.302C645.245 244.955 633.659 237.967 621.047 232.552C603.295 225.064 574.632 219.608 552.27 228.9C530.539 237.908 524.002 255.945 519.183 269.139C507.175 301.769 492.128 338.442 473.176 381.256C459.384 412.46 439.347 446.27 395.248 460.431C348.201 475.539 301.758 458.273 271.084 441.126C267.268 438.994 263.474 436.816 259.692 434.646C233.369 419.511 206.158 403.879 165.902 402.232C162.625 402.075 159.219 402.061 155.854 402.213C106.583 403.899 45.0992 432.771 29.3628 461.604L26.0725 460.965Z" fill="url(#paint13_linear_1104_1733)"/>
<path style="mix-blend-mode:screen" opacity="0.7" d="M24.7913 458.321C38.6711 425.441 101.447 394.362 154.011 394.318C157.614 394.323 161.178 394.486 164.629 394.757C205.578 398.178 232.499 416.549 258.618 434.327C262.935 437.279 267.4 440.314 271.831 443.234C296.004 459.097 344.101 483.269 394.656 466.993C438.822 452.774 456.736 417.621 468.436 385.113C484.353 340.957 497.219 301.222 507.783 263.641C511.753 249.478 517.693 228.146 541.761 217.07C557.121 209.994 585.898 206.343 616.451 219.318C629.626 224.983 641.575 232.507 651.827 241.597C668.965 256.417 680.773 273.431 692.202 289.874L694.462 293.081C707.382 311.641 721.296 330.142 735.863 348.083C766.951 386.39 797.022 416.222 830.412 441.962C858.966 463.833 890.015 483.147 923.117 499.628C961.736 518.712 1002.53 534.426 1044.93 546.549C1137.96 573.562 1237.05 585.076 1331.45 579.845L1331.27 582.464C1236.29 587.702 1136.65 576.124 1043.11 548.979C1000.49 536.792 959.479 520.992 920.66 501.802C887.382 485.239 856.17 465.823 827.473 443.832C793.955 418.006 763.77 388.053 732.465 349.588C717.904 331.62 703.956 313.081 690.991 294.476L688.785 291.304C677.437 274.961 665.705 258.074 648.786 243.429C638.77 234.546 627.095 227.192 614.22 221.658C585.08 209.282 557.931 212.623 543.555 219.25C522.766 228.82 516.521 245.812 511.474 263.873C500.898 301.506 488.007 341.287 472.086 385.486C467.09 399.381 459.757 417.378 447.338 433.379C433.81 450.828 416.978 462.607 395.87 469.4C343.307 486.315 293.878 461.551 269.084 445.292C264.64 442.348 260.121 439.353 255.827 436.356C230.145 418.836 203.58 400.717 163.727 397.427C160.414 397.155 156.989 397.008 153.534 397.009C102.59 396.982 41.7879 427.002 28.3923 458.768L24.7913 458.321Z" fill="url(#paint14_linear_1104_1733)"/>
<path style="mix-blend-mode:screen" opacity="0.7" d="M23.5256 455.65C35.105 419.555 97.4639 387.163 151.83 388.981C155.452 389.106 159.058 389.39 162.634 389.83C203.558 394.856 230.043 415.827 255.566 436.038C260.324 439.802 265.237 443.699 270.124 447.396C329.37 492.075 380.813 480.468 395.194 475.867C441.126 461.051 457.736 421.933 467.07 389.513C480.032 344.435 491.065 300.384 499.797 258.522C503.863 238.988 509.749 218.949 532.757 207.383C556.501 195.435 588.546 199.237 609.771 208.305C623.228 214.107 635.279 222.015 645.342 231.645C662.218 247.41 673.372 266.167 684.177 284.28L686.295 287.822C698.831 308.915 712.473 329.748 726.839 349.732C757.122 391.811 788.91 426.989 823.96 457.241C852.76 482.053 884.44 504.221 918.528 523.416C957.234 545.055 998.654 562.933 1042.08 576.742C1135.98 606.878 1237 619.127 1334.35 612.043L1334.26 614.797C1236.27 621.955 1134.54 609.669 1040.07 579.325C996.409 565.429 954.755 547.447 915.827 525.689C881.56 506.394 849.715 484.111 820.762 459.17C785.515 428.757 753.611 393.441 723.21 351.207C708.806 331.168 695.13 310.297 682.566 289.14L680.449 285.598C669.729 267.618 658.636 249.024 642.033 233.47C632.224 224.07 620.474 216.351 607.349 210.687C587.204 202.075 556.941 198.384 534.805 209.55C513.301 220.371 507.677 239.697 503.742 258.569C494.985 300.476 483.961 344.594 470.973 389.701C461.431 422.87 444.333 462.916 396.478 478.352C374.032 485.6 349.904 485.684 324.826 478.569C299.748 471.455 279.491 458.781 267.051 449.454C262.131 445.736 257.208 441.832 252.439 438.061C227.245 418.113 201.198 397.493 161.479 392.594C158.049 392.189 154.591 391.938 151.119 391.84C98.7283 390.032 38.5392 421.204 27.4205 455.924L23.5256 455.65Z" fill="url(#paint15_linear_1104_1733)"/>
<path style="mix-blend-mode:screen" opacity="0.7" d="M22.27 452.945C27.0786 432.666 45.8639 413.181 73.7337 399.44C101.604 385.699 133.322 380.379 160.692 384.818C201.658 391.45 227.737 414.953 252.865 437.72C257.938 442.304 263.19 447.053 268.434 451.522C314.971 491.227 364.674 494.675 395.659 484.665C443.603 469.168 458.517 425.426 465.634 393.805C476.063 347.212 484.87 299.927 491.748 253.304C493.121 244.002 494.98 233.219 499.662 223.145C504.881 211.897 512.742 203.531 523.677 197.585C548.153 184.27 581.16 187.784 602.999 197.18C643.189 214.457 660.099 247.385 676.435 279.214L678.151 282.538C738.088 398.965 815.25 485.578 913.995 547.359C1033.99 622.291 1188.24 657.674 1337.26 644.4L1337.26 647.322C1187.07 660.747 1031.64 625.184 910.873 549.739C811.787 487.594 734.317 400.655 674.161 283.822L672.453 280.489C656.317 249.068 639.629 216.562 600.479 199.729C579.817 190.853 548.778 187.436 525.983 199.847C503.738 211.95 498.943 232.864 495.903 253.29C489.02 299.956 480.261 347.303 469.761 393.956C454.618 461.487 420.975 479.595 396.98 487.359C347.555 503.326 296.428 480.346 264.988 453.595C259.711 449.105 254.438 444.342 249.363 439.74C224.578 417.355 198.938 394.203 159.205 387.762C133.071 383.453 102.639 388.617 75.8621 401.767C49.0852 414.918 31.0298 433.664 26.414 453.077L22.27 452.945Z" fill="url(#paint16_linear_1104_1733)"/>
</g>
<defs>
<linearGradient id="paint0_linear_1104_1733" x1="645.165" y1="203.934" x2="679.786" y2="393.721" gradientUnits="userSpaceOnUse">
<stop stop-color="#FFFFE0"/>
<stop offset="1" stop-color="#FEFCFF"/>
</linearGradient>
<linearGradient id="paint1_linear_1104_1733" x1="649.223" y1="233.532" x2="677.354" y2="387.744" gradientUnits="userSpaceOnUse">
<stop stop-color="#FFFFE0"/>
<stop offset="1" stop-color="#FEFCFF"/>
</linearGradient>
<linearGradient id="paint2_linear_1104_1733" x1="653.123" y1="262.443" x2="675.023" y2="382.507" gradientUnits="userSpaceOnUse">
<stop stop-color="#FFFFE0"/>
<stop offset="1" stop-color="#FEFCFF"/>
</linearGradient>
<linearGradient id="paint3_linear_1104_1733" x1="656.861" y1="290.354" x2="672.743" y2="377.431" gradientUnits="userSpaceOnUse">
<stop stop-color="#FFFFE0"/>
<stop offset="1" stop-color="#FEFCFF"/>
</linearGradient>
<linearGradient id="paint4_linear_1104_1733" x1="657.024" y1="300.894" x2="670.428" y2="374.382" gradientUnits="userSpaceOnUse">
<stop stop-color="#FFFFE0"/>
<stop offset="1" stop-color="#FEFCFF"/>
</linearGradient>
<linearGradient id="paint5_linear_1104_1733" x1="653.839" y1="294.992" x2="674.16" y2="406.409" gradientUnits="userSpaceOnUse">
<stop stop-color="#FFFFE0"/>
<stop offset="1" stop-color="#FEFCFF"/>
</linearGradient>
<linearGradient id="paint6_linear_1104_1733" x1="650.105" y1="286.301" x2="677.858" y2="438.465" gradientUnits="userSpaceOnUse">
<stop stop-color="#FFFFE0"/>
<stop offset="1" stop-color="#FEFCFF"/>
</linearGradient>
<linearGradient id="paint7_linear_1104_1733" x1="646.024" y1="276.717" x2="681.381" y2="470.572" gradientUnits="userSpaceOnUse">
<stop stop-color="#FFFFE0"/>
<stop offset="1" stop-color="#FEFCFF"/>
</linearGradient>
<linearGradient id="paint8_linear_1104_1733" x1="641.811" y1="266.645" x2="684.868" y2="502.709" gradientUnits="userSpaceOnUse">
<stop stop-color="#FFFFE0"/>
<stop offset="1" stop-color="#FEFCFF"/>
</linearGradient>
<linearGradient id="paint9_linear_1104_1733" x1="637.525" y1="256.242" x2="688.347" y2="534.879" gradientUnits="userSpaceOnUse">
<stop stop-color="#FFFFE0"/>
<stop offset="1" stop-color="#FEFCFF"/>
</linearGradient>
<linearGradient id="paint10_linear_1104_1733" x1="633.205" y1="245.645" x2="691.832" y2="567.059" gradientUnits="userSpaceOnUse">
<stop stop-color="#FFFFE0"/>
<stop offset="1" stop-color="#FEFCFF"/>
</linearGradient>
<linearGradient id="paint11_linear_1104_1733" x1="628.848" y1="234.874" x2="695.315" y2="599.257" gradientUnits="userSpaceOnUse">
<stop stop-color="#FFFFE0"/>
<stop offset="1" stop-color="#FEFCFF"/>
</linearGradient>
<linearGradient id="paint12_linear_1104_1733" x1="624.472" y1="224.011" x2="698.804" y2="631.488" gradientUnits="userSpaceOnUse">
<stop stop-color="#FFFFE0"/>
<stop offset="1" stop-color="#FEFCFF"/>
</linearGradient>
<linearGradient id="paint13_linear_1104_1733" x1="620.072" y1="212.933" x2="702.31" y2="663.725" gradientUnits="userSpaceOnUse">
<stop stop-color="#FFFFE0"/>
<stop offset="1" stop-color="#FEFCFF"/>
</linearGradient>
<linearGradient id="paint14_linear_1104_1733" x1="615.696" y1="201.898" x2="705.839" y2="695.98" gradientUnits="userSpaceOnUse">
<stop stop-color="#FFFFE0"/>
<stop offset="1" stop-color="#FEFCFF"/>
</linearGradient>
<linearGradient id="paint15_linear_1104_1733" x1="611.248" y1="190.594" x2="709.352" y2="728.271" gradientUnits="userSpaceOnUse">
<stop stop-color="#FFFFE0"/>
<stop offset="1" stop-color="#FEFCFF"/>
</linearGradient>
<linearGradient id="paint16_linear_1104_1733" x1="606.816" y1="179.261" x2="712.892" y2="760.571" gradientUnits="userSpaceOnUse">
<stop stop-color="#FEFCFF" stop-opacity="0"/>
<stop offset="0.388542" stop-color="#FFFFE0"/>
<stop offset="0.591667" stop-color="#FEFCFF" stop-opacity="0"/>
</linearGradient>
</defs>
</svg>
