<svg width="905" height="804" viewBox="0 0 905 804" fill="none" xmlns="http://www.w3.org/2000/svg">
<path opacity="0.6" fill-rule="evenodd" clip-rule="evenodd" d="M378.299 337.243C387.893 337.079 395.62 329.252 395.62 319.621C395.62 309.886 387.727 301.995 377.991 301.995C369.5 301.995 362.411 307.997 360.737 315.99L365.963 310.77L365.989 310.744L366.016 310.718L367.95 308.785L368.216 308.664L366.089 310.791L366.063 310.817L366.033 310.843L360.699 316.177C360.596 316.696 360.516 317.224 360.46 317.758L366.707 311.512L366.733 311.486L366.759 311.461L370.272 307.948L370.475 307.894L366.833 311.535L366.807 311.56L366.781 311.586L360.443 317.924C360.398 318.389 360.372 318.86 360.365 319.335L367.449 312.255L367.475 312.23L367.501 312.204L372.138 307.567C372.16 307.564 372.182 307.561 372.204 307.558L372.204 307.558L372.204 307.558C372.239 307.553 372.275 307.548 372.311 307.544L367.575 312.278L367.549 312.304L367.524 312.33L360.363 319.493C360.362 319.535 360.362 319.578 360.362 319.621C360.362 320.014 360.375 320.405 360.401 320.793L360.756 320.438L360.782 320.412L360.807 320.387L368.192 312.999L368.218 312.973L368.243 312.947L373.762 307.424H373.916L368.317 313.021L368.292 313.047L368.266 313.073L360.882 320.457L360.856 320.482L360.834 320.509L360.41 320.933C360.44 321.338 360.484 321.739 360.54 322.136L361.499 321.177L361.525 321.152L361.55 321.126L368.935 313.742L368.96 313.717L368.986 313.691L375.226 307.451L375.366 307.46L369.06 313.765L369.035 313.791L369.009 313.817L361.624 321.201L361.599 321.227L361.573 321.253L360.559 322.265C360.617 322.646 360.686 323.023 360.767 323.395L362.241 321.921L362.267 321.895L362.293 321.869L369.677 314.486L369.703 314.46L369.729 314.434L376.568 307.594L376.698 307.615L369.803 314.508L369.777 314.535L369.751 314.561L362.367 321.944L362.341 321.97L362.315 321.998L360.795 323.518C360.876 323.876 360.967 324.23 361.07 324.58L362.985 322.665L363.011 322.639L363.037 322.614L370.421 315.229L370.447 315.203L370.473 315.177L377.812 307.841L377.926 307.869H377.932L370.548 315.253L370.521 315.278L370.495 315.304L363.111 322.688L363.085 322.714L363.059 322.739L361.104 324.695C361.206 325.034 361.318 325.369 361.439 325.7L363.73 323.409L363.756 323.383L363.782 323.357L371.163 315.973L371.189 315.948L371.214 315.921L378.604 308.537L378.63 308.512L378.656 308.486L378.978 308.163L379.085 308.2L378.725 308.561L378.7 308.587L378.674 308.613L371.29 315.996L371.264 316.022L371.237 316.048L363.853 323.431L363.827 323.457L363.804 323.478L361.478 325.805C361.599 326.127 361.729 326.445 361.867 326.757L364.474 324.152L364.5 324.126L364.525 324.1L371.91 316.717L371.935 316.691L371.961 316.665L379.345 309.282L379.371 309.255L379.397 309.229L380.063 308.563L380.171 308.606L379.472 309.304L379.446 309.33L379.421 309.356L372.036 316.739L372.011 316.765L371.985 316.791L364.601 324.175L364.575 324.2L364.547 324.228L361.914 326.861C362.051 327.165 362.197 327.465 362.35 327.76L365.215 324.896L365.24 324.87L365.266 324.844L372.651 317.46L372.677 317.435L372.703 317.409L380.087 310.029L380.113 310.003L380.139 309.977L381.083 309.032L381.183 309.081L380.216 310.048L380.191 310.074L380.165 310.099L372.781 317.483L372.755 317.509L372.729 317.535L365.345 324.918L365.319 324.944L365.29 324.97L362.402 327.857C362.556 328.149 362.718 328.435 362.888 328.717L365.966 325.639L365.992 325.613L366.019 325.587L373.403 318.204L373.429 318.178L373.455 318.152L380.834 310.77L380.859 310.744L380.885 310.718L382.047 309.554L382.141 309.609L380.959 310.791L380.933 310.817L380.908 310.843L373.523 318.226L373.498 318.252L373.472 318.278L366.088 325.661L366.062 325.687L366.043 325.711L362.945 328.809C363.113 329.084 363.288 329.353 363.47 329.618L366.706 326.382L366.732 326.356L366.757 326.331L374.142 318.947L374.168 318.921L374.193 318.896L381.578 311.512L381.603 311.486L381.629 311.46L382.954 310.136C382.965 310.144 382.976 310.151 382.988 310.159C383.006 310.171 383.024 310.184 383.042 310.197L381.703 311.535L381.678 311.56L381.652 311.586L374.267 318.97L374.242 318.995L374.216 319.021L366.832 326.405L366.806 326.431L366.78 326.457L363.531 329.706C363.714 329.966 363.903 330.222 364.098 330.472L367.449 327.121L367.475 327.096L367.501 327.07L374.885 319.686L374.911 319.661L374.937 319.635L382.321 312.256L382.347 312.23L382.373 312.204L383.806 310.771L383.887 310.837L382.447 312.278L382.421 312.304L382.395 312.33L375.011 319.713L374.985 319.739L374.959 319.765L367.572 327.148L367.546 327.175L367.523 327.197L364.164 330.555C364.362 330.805 364.566 331.049 364.777 331.288L368.193 327.869L368.219 327.843L368.245 327.818L375.629 320.438L375.655 320.413L375.681 320.387L383.065 312.999L383.091 312.973L383.117 312.947L384.606 311.458L384.683 311.53L383.196 313.021L383.17 313.047L383.145 313.073L375.76 320.457L375.734 320.482L375.709 320.509L368.324 327.893L368.299 327.919L368.272 327.944L364.848 331.367C365.057 331.601 365.273 331.83 365.494 332.052L368.934 328.613L368.96 328.588L368.985 328.561L376.37 321.177L376.395 321.152L376.421 321.126L383.805 313.742L383.831 313.716L383.857 313.691L385.352 312.197L385.422 312.275L383.932 313.765L383.906 313.791L383.881 313.817L376.495 321.201L376.47 321.227L376.444 321.253L369.059 328.636L369.034 328.662L369.008 328.688L365.569 332.126C365.793 332.349 366.023 332.566 366.258 332.776L369.68 329.355L369.706 329.329L369.731 329.303L377.116 321.921L377.142 321.895L377.167 321.869L384.552 314.486L384.577 314.46L384.603 314.434L386.054 312.986L386.078 313.016C386.092 313.034 386.106 313.051 386.12 313.069L384.681 314.508L384.655 314.535L384.629 314.561L377.241 321.947L377.216 321.972L377.19 321.998L369.806 329.377L369.78 329.403L369.754 329.429L366.337 332.846C366.575 333.055 366.818 333.258 367.067 333.455L370.424 330.1L370.45 330.075L370.475 330.049L377.86 322.665L377.885 322.639L377.911 322.614L385.297 315.229L385.322 315.203L385.348 315.178L386.698 313.828L386.759 313.915L385.422 315.253L385.396 315.279L385.371 315.304L377.984 322.688L377.958 322.714L377.933 322.739L370.548 330.123L370.522 330.149L370.496 330.175L367.15 333.52C367.401 333.716 367.658 333.906 367.92 334.089L371.165 330.844L371.191 330.818L371.217 330.792L378.601 323.409L378.627 323.383L378.652 323.357L386.038 315.974L386.064 315.948L386.089 315.921L387.288 314.719L387.345 314.811L386.164 315.993L386.138 316.019L386.112 316.045L378.728 323.428L378.702 323.454L378.676 323.48L371.292 330.863L371.266 330.889L371.239 330.915L368.007 334.149C368.273 334.332 368.544 334.508 368.82 334.676L371.91 331.587L371.936 331.561L371.961 331.536L379.347 324.152L379.373 324.126L379.398 324.101L386.783 316.717L386.809 316.691L386.833 316.672L387.825 315.68L387.875 315.778L386.908 316.745L386.883 316.771L386.857 316.796L379.473 324.18L379.447 324.206L379.421 324.232L372.037 331.615L372.011 331.641L371.985 331.667L368.915 334.733C369.194 334.901 369.478 335.062 369.767 335.214L372.648 332.331L372.675 332.305L372.701 332.279L380.088 324.896L380.114 324.87L380.14 324.844L387.524 317.46L387.55 317.435L387.579 317.406L388.304 316.681L388.31 316.695L388.31 316.695C388.323 316.727 388.335 316.758 388.348 316.788L387.653 317.483L387.627 317.509L387.601 317.535L380.217 324.918L380.191 324.944L380.165 324.97L372.781 332.353L372.755 332.379L372.73 332.405L369.867 335.267C370.164 335.421 370.465 335.567 370.771 335.705L373.403 333.074L373.429 333.048L373.455 333.022L380.834 325.639L380.86 325.613L380.885 325.587L388.27 318.204L388.295 318.178L388.317 318.16L388.711 317.766C388.721 317.789 388.729 317.815 388.739 317.842L388.739 317.842L388.749 317.873L388.391 318.23L388.365 318.255L388.34 318.281L380.955 325.665L380.929 325.69L380.904 325.716L373.519 333.1L373.494 333.127L373.468 333.152L370.87 335.749C371.183 335.887 371.501 336.017 371.823 336.137L374.142 333.817L374.168 333.792L374.194 333.766L381.578 326.382L381.604 326.356L381.63 326.331L389.014 318.947L389.042 318.927L389.059 318.91C389.061 318.914 389.062 318.918 389.064 318.923L389.064 318.923C389.067 318.933 389.071 318.944 389.071 318.956L389.087 319.023L381.704 326.405L381.678 326.431L381.652 326.457L374.268 333.841L374.242 333.867L374.217 333.893L371.931 336.177C372.261 336.298 372.595 336.409 372.933 336.51L374.883 334.561L374.908 334.535L374.934 334.509L382.318 327.126L382.344 327.1L382.37 327.074L389.313 320.132L389.316 320.149L389.316 320.149L389.316 320.149L389.316 320.149L389.316 320.149L389.316 320.149L389.316 320.149L389.316 320.149L389.316 320.149L389.316 320.149L389.316 320.15L389.316 320.15C389.322 320.187 389.329 320.223 389.334 320.26L382.444 327.148L382.418 327.175L382.393 327.201L375.008 334.585L374.983 334.61L374.957 334.636L373.049 336.544C373.399 336.646 373.755 336.738 374.114 336.818L375.629 335.305L375.654 335.279L375.68 335.254L383.064 327.869L383.09 327.843L383.115 327.817L389.479 321.454L389.482 321.489L389.482 321.489C389.486 321.524 389.489 321.558 389.489 321.593L383.189 327.893L383.163 327.918L383.137 327.944L375.753 335.328L375.727 335.354L375.702 335.379L374.236 336.845C374.608 336.926 374.986 336.995 375.367 337.052L376.37 336.049L376.396 336.023L376.422 335.997L383.806 328.613L383.832 328.588L383.85 328.569L389.518 322.904V323.054L383.931 328.64L383.905 328.666L383.879 328.692L376.494 336.075L376.468 336.101L376.442 336.127L375.498 337.071C375.897 337.128 376.301 337.171 376.709 337.2L377.117 336.792L377.143 336.766L377.168 336.74L384.553 329.357L384.578 329.331L384.604 329.303L389.428 324.484L389.409 324.653L384.682 329.38L384.656 329.405L384.63 329.431L377.246 336.812L377.22 336.838L377.194 336.864L376.849 337.21C377.226 337.234 377.607 337.246 377.991 337.246C378.043 337.246 378.095 337.246 378.148 337.245L385.294 330.1L385.32 330.075L385.348 330.047L389.1 326.294L389.084 326.36L389.084 326.36L389.084 326.36L389.084 326.36C389.073 326.404 389.063 326.448 389.051 326.491L385.422 330.121L385.396 330.147L385.371 330.172L378.299 337.243ZM386.065 330.818L386.04 330.844L380.072 336.81L380.33 336.703L386.114 330.915L386.14 330.889L386.165 330.863L388.274 328.754C388.312 328.668 388.347 328.582 388.382 328.496L386.089 330.789L386.065 330.818ZM362.857 312.532L364.106 311.289C363.666 311.679 363.25 312.094 362.857 312.532ZM385.54 332.978L384.551 333.967C384.249 334.242 383.936 334.506 383.612 334.757L386.33 332.039C386.08 332.363 385.816 332.676 385.54 332.978Z" fill="url(#paint0_radial_524_1586)"/>
<path opacity="0.5" d="M-11.598 478.409C-49.5488 478.409 -80.3141 447.644 -80.3141 409.693C-80.3141 371.742 -49.5488 340.977 -11.598 340.977C26.3529 340.977 57.1182 371.742 57.1182 409.693C57.1182 447.644 26.3529 478.409 -11.598 478.409Z" fill="url(#paint1_radial_524_1586)"/>
<path opacity="0.6" fill-rule="evenodd" clip-rule="evenodd" d="M192.306 478.438C170.734 478.061 153.364 460.46 153.364 438.803C153.364 416.91 171.115 399.162 193.012 399.162C212.112 399.162 228.058 412.666 231.82 430.646L220.056 418.897L219.998 418.839L219.938 418.781L215.588 414.432L214.989 414.161L219.773 418.945L219.831 419.003L219.899 419.061L231.905 431.066C232.136 432.234 232.316 433.419 232.442 434.621L218.384 420.566L218.326 420.508L218.268 420.45L210.366 412.55L209.909 412.429L218.101 420.617L218.159 420.675L218.217 420.733L232.479 434.994C232.579 436.042 232.639 437.102 232.655 438.172L216.711 422.238L216.653 422.18L216.595 422.122L206.166 411.694C206.117 411.688 206.068 411.681 206.018 411.674C205.938 411.662 205.858 411.65 205.777 411.641L216.428 422.289L216.486 422.347L216.544 422.405L232.659 438.525C232.66 438.618 232.66 438.71 232.66 438.803C232.66 439.692 232.631 440.575 232.573 441.45L231.763 440.642L231.705 440.584L231.647 440.526L215.04 423.91L214.982 423.852L214.924 423.794L202.511 411.373H202.165L214.757 423.961L214.815 424.019L214.873 424.077L231.481 440.683L231.539 440.741L231.587 440.801L232.551 441.765C232.484 442.676 232.386 443.578 232.258 444.471L230.091 442.304L230.033 442.246L229.975 442.188L213.368 425.582L213.31 425.524L213.252 425.466L199.217 411.433L198.903 411.453L213.085 425.633L213.143 425.691L213.201 425.751L229.809 442.358L229.867 442.415L229.925 442.473L232.215 444.763C232.086 445.619 231.929 446.466 231.746 447.303L228.42 443.976L228.362 443.918L228.304 443.86L211.696 427.254L211.638 427.196L211.58 427.138L196.198 411.755L195.905 411.801L211.414 427.305L211.472 427.365L211.53 427.423L228.137 444.029L228.195 444.087L228.253 444.15L231.685 447.579C231.503 448.385 231.296 449.182 231.066 449.968L226.747 445.651L226.689 445.593L226.631 445.535L210.023 428.926L209.965 428.868L209.907 428.81L193.401 412.31L193.144 412.373H193.13L209.738 428.979L209.798 429.037L209.856 429.095L226.464 445.701L226.522 445.759L226.58 445.817L230.989 450.227C230.759 450.991 230.508 451.744 230.234 452.487L225.069 447.323L225.011 447.265L224.953 447.207L208.352 430.601L208.294 430.543L208.236 430.482L191.616 413.876L191.558 413.818L191.5 413.76L190.776 413.035L190.534 413.117L191.343 413.929L191.401 413.987L191.459 414.045L208.067 430.651L208.125 430.709L208.186 430.767L224.793 447.373L224.851 447.431L224.902 447.48L230.147 452.724C229.875 453.447 229.583 454.16 229.272 454.863L223.402 448.995L223.344 448.937L223.286 448.879L206.678 432.273L206.62 432.215L206.562 432.157L189.954 415.551L189.896 415.49L189.838 415.432L188.34 413.934L188.098 414.031L189.669 415.601L189.727 415.659L189.785 415.717L206.393 432.323L206.451 432.381L206.509 432.439L223.116 449.045L223.174 449.103L223.237 449.166L229.167 455.096C228.859 455.779 228.532 456.451 228.186 457.113L221.739 450.667L221.681 450.609L221.623 450.551L205.016 433.945L204.955 433.887L204.897 433.829L188.289 417.23L188.231 417.172L188.173 417.114L186.049 414.988L185.825 415.099L187.999 417.273L188.057 417.331L188.115 417.389L204.723 433.995L204.781 434.053L204.839 434.111L221.447 450.717L221.505 450.775L221.57 450.833L228.071 457.333C227.723 457.989 227.358 458.634 226.976 459.267L220.047 452.338L219.989 452.28L219.928 452.222L203.32 435.616L203.262 435.558L203.204 435.5L186.609 418.897L186.551 418.839L186.493 418.781L183.881 416.162L183.668 416.287L186.326 418.945L186.384 419.003L186.442 419.061L203.05 435.667L203.108 435.725L203.166 435.783L219.773 452.389L219.831 452.447L219.873 452.5L226.849 459.476C226.471 460.093 226.076 460.699 225.666 461.293L218.383 454.01L218.325 453.952L218.267 453.894L201.659 437.288L201.601 437.23L201.543 437.172L184.936 420.566L184.878 420.508L184.82 420.45L181.84 417.471C181.815 417.489 181.79 417.506 181.764 417.524C181.723 417.551 181.682 417.579 181.642 417.609L184.653 420.617L184.711 420.675L184.769 420.733L201.377 437.339L201.435 437.397L201.493 437.455L218.1 454.061L218.158 454.119L218.216 454.18L225.528 461.491C225.119 462.077 224.693 462.651 224.253 463.214L216.712 455.673L216.654 455.615L216.596 455.557L199.988 438.951L199.93 438.893L199.872 438.835L183.264 422.238L183.206 422.18L183.148 422.122L179.925 418.899L179.741 419.049L182.981 422.289L183.039 422.347L183.097 422.405L199.705 439.011L199.763 439.069L199.821 439.127L216.436 455.733L216.494 455.794L216.545 455.842L224.106 463.401C223.661 463.962 223.201 464.512 222.727 465.048L215.039 457.354L214.981 457.296L214.923 457.238L198.315 440.642L198.257 440.584L198.199 440.526L181.591 423.91L181.533 423.852L181.475 423.794L178.126 420.446L177.952 420.607L181.296 423.961L181.354 424.019L181.412 424.077L198.02 440.683L198.078 440.741L198.136 440.802L214.744 457.408L214.802 457.466L214.862 457.524L222.568 465.227C222.096 465.754 221.609 466.269 221.11 466.771L213.367 459.029L213.309 458.971L213.251 458.91L196.644 442.304L196.586 442.246L196.528 442.188L179.92 425.582L179.862 425.524L179.804 425.466L176.443 422.108L176.283 422.282L179.635 425.633L179.693 425.691L179.751 425.751L196.361 442.357L196.419 442.415L196.477 442.473L213.085 459.079L213.143 459.137L213.201 459.195L220.943 466.937C220.44 467.436 219.924 467.922 219.395 468.394L211.696 460.696L211.638 460.638L211.58 460.58L194.973 443.976L194.915 443.918L194.857 443.86L178.249 427.254L178.191 427.196L178.133 427.138L174.871 423.881C174.853 423.904 174.835 423.926 174.817 423.949C174.785 423.989 174.753 424.028 174.721 424.067L177.959 427.305L178.017 427.365L178.075 427.423L194.69 444.034L194.748 444.092L194.806 444.15L211.414 460.747L211.472 460.805L211.53 460.862L219.218 468.55C218.683 469.022 218.136 469.479 217.575 469.922L210.022 462.373L209.964 462.315L209.906 462.257L193.298 445.651L193.24 445.593L193.182 445.535L176.572 428.926L176.514 428.868L176.456 428.81L173.421 425.775L173.284 425.971L176.29 428.979L176.348 429.037L176.406 429.095L193.018 445.701L193.076 445.759L193.134 445.817L209.742 462.423L209.802 462.481L209.86 462.539L217.39 470.068C216.823 470.51 216.245 470.937 215.655 471.348L208.351 464.045L208.293 463.987L208.235 463.929L191.627 447.322L191.569 447.264L191.511 447.207L174.901 430.6L174.843 430.542L174.785 430.482L172.088 427.778L171.96 427.986L174.618 430.644L174.676 430.702L174.734 430.76L191.342 447.366L191.4 447.424L191.458 447.482L208.066 464.088L208.124 464.146L208.184 464.204L215.459 471.483C214.861 471.894 214.252 472.29 213.631 472.668L206.679 465.717L206.621 465.659L206.563 465.601L189.953 448.995L189.895 448.937L189.837 448.879L173.229 432.273L173.171 432.215L173.115 432.171L170.885 429.941L170.771 430.161L172.946 432.335L173.004 432.393L173.062 432.451L189.67 449.057L189.728 449.115L189.786 449.173L206.394 465.779L206.452 465.837L206.51 465.895L213.419 472.797C212.791 473.175 212.15 473.536 211.5 473.88L205.014 467.388L204.954 467.33L204.896 467.272L188.281 450.666L188.223 450.608L188.165 450.55L171.557 433.944L171.499 433.886L171.434 433.821L169.803 432.19L169.79 432.222C169.761 432.295 169.733 432.364 169.704 432.432L171.267 433.995L171.325 434.053L171.383 434.111L187.991 450.717L188.049 450.775L188.107 450.833L204.715 467.439L204.773 467.497L204.831 467.555L211.274 473.998C210.608 474.344 209.931 474.671 209.244 474.98L203.321 469.061L203.263 469.003L203.205 468.945L186.609 452.339L186.551 452.281L186.493 452.223L169.885 435.616L169.827 435.558L169.779 435.517L168.892 434.631C168.871 434.683 168.851 434.743 168.831 434.804C168.823 434.826 168.816 434.849 168.808 434.872L169.612 435.674L169.67 435.732L169.728 435.79L186.336 452.397L186.394 452.454L186.452 452.512L203.06 469.119L203.118 469.179L203.176 469.237L209.021 475.08C208.318 475.39 207.604 475.681 206.88 475.951L201.66 470.732L201.602 470.674L201.544 470.616L184.936 454.01L184.878 453.952L184.82 453.894L168.213 437.288L168.15 437.242L168.111 437.204C168.108 437.213 168.105 437.223 168.102 437.232L168.102 437.233L168.102 437.233L168.101 437.233C168.093 437.257 168.085 437.282 168.085 437.308L168.048 437.46L184.654 454.061L184.712 454.119L184.77 454.179L201.377 470.786L201.435 470.843L201.493 470.901L206.636 476.042C205.892 476.314 205.139 476.564 204.375 476.792L199.988 472.405L199.93 472.347L199.872 472.289L183.264 455.682L183.206 455.624L183.148 455.566L167.533 439.953L167.527 439.991C167.512 440.075 167.497 440.157 167.485 440.241L182.981 455.733L183.039 455.794L183.097 455.852L199.705 472.458L199.763 472.516L199.821 472.574L204.116 476.868C203.328 477.098 202.53 477.303 201.723 477.484L198.315 474.079L198.257 474.021L198.199 473.963L181.591 457.354L181.533 457.296L181.478 457.238L167.165 442.928C167.163 442.953 167.16 442.979 167.158 443.005C167.149 443.083 167.141 443.161 167.141 443.239L181.311 457.407L181.369 457.465L181.427 457.523L198.035 474.129L198.093 474.187L198.151 474.245L201.45 477.544C200.61 477.726 199.761 477.882 198.903 478.009L196.644 475.751L196.586 475.693L196.528 475.635L179.92 459.029L179.862 458.971L179.821 458.93L167.075 446.187V446.525L179.64 459.089L179.698 459.147L179.756 459.205L196.366 475.811L196.424 475.869L196.482 475.927L198.607 478.052C197.711 478.179 196.804 478.275 195.89 478.341L194.971 477.423L194.913 477.365L194.855 477.307L178.248 460.701L178.19 460.643L178.132 460.58L167.282 449.741L167.326 450.121L177.958 460.752L178.016 460.81L178.074 460.868L194.681 477.469L194.739 477.527L194.797 477.585L195.575 478.362C194.728 478.416 193.873 478.444 193.012 478.444C192.89 478.444 192.768 478.443 192.646 478.442L176.572 462.373L176.514 462.315L176.452 462.252L168.014 453.812C168.026 453.861 168.038 453.911 168.049 453.96C168.073 454.059 168.097 454.158 168.122 454.254L176.285 462.419L176.343 462.477L176.401 462.535L192.306 478.438ZM174.844 463.987L174.902 464.045L188.323 477.464L187.743 477.222L174.735 464.204L174.677 464.146L174.619 464.088L169.876 459.345C169.792 459.152 169.712 458.959 169.634 458.765L174.791 463.921L174.844 463.987ZM227.034 422.859L224.226 420.064C225.215 420.941 226.152 421.875 227.034 422.859ZM176.024 468.845L178.247 471.068C178.926 471.688 179.63 472.281 180.359 472.847L174.245 466.734C174.809 467.462 175.402 468.166 176.024 468.845Z" fill="url(#paint2_radial_524_1586)"/>
<g style="mix-blend-mode:screen" opacity="0.3">
<path style="mix-blend-mode:screen" opacity="0.7" d="M490.343 475.703L490.183 475.498C479.943 478.656 467.071 477.888 452.979 473.267C439.935 468.875 427.396 462.228 415.957 453.642C404.153 444.822 393.654 434.647 383.479 424.824C374.753 416.398 365.725 407.679 355.932 399.823C300.508 355.384 216.342 340.418 164.304 365.805C161.876 366.99 159.442 368.284 157.087 369.53C147.863 374.443 138.296 379.477 126.249 379.739C115.21 379.98 103.089 376.113 91.2172 368.554C80.563 361.734 71.1349 352.834 63.5921 342.477C56.0474 332.005 50.477 320.835 45.0877 310.038C40.5205 300.881 35.7992 291.41 29.8865 282.39C20.4697 268.013 7.43092 254.197 -7.83011 242.415C-23.459 230.425 -40.5481 220.909 -58.3822 214.265C-76.5324 207.56 -95.1603 203.77 -113.538 203.042C-131.816 202.345 -149.279 204.819 -164.052 210.223L-163.916 210.398C-149.194 205.023 -131.791 202.526 -113.525 203.251C-95.1831 203.976 -76.5919 207.758 -58.4776 214.45C-40.6792 221.087 -23.6239 230.585 -8.0234 242.549C7.19892 254.302 20.2183 268.103 29.5959 282.462C35.4851 291.451 40.221 300.931 44.7788 310.075C50.1722 320.889 55.7521 332.07 63.3109 342.561C70.8771 352.954 80.3366 361.883 91.027 368.723C102.967 376.327 115.152 380.213 126.262 379.967C138.379 379.701 147.958 374.63 157.217 369.73C159.552 368.489 162.007 367.189 164.435 366.004C216.393 340.695 300.429 355.623 355.742 399.992C365.53 407.843 374.567 416.573 383.265 424.972C393.466 434.786 404.009 444.967 415.808 453.78C427.284 462.394 439.863 469.063 452.948 473.471C467.11 478.108 480.041 478.879 490.343 475.703Z" fill="url(#paint3_linear_524_1586)"/>
<path style="mix-blend-mode:screen" opacity="0.7" d="M490.927 474.607L490.737 474.298C481.009 476.561 468.382 475.157 454.225 470.241C441.209 465.579 428.632 459.074 416.896 450.935C415.452 449.938 413.965 448.887 412.47 447.805C402.692 440.701 393.862 433.041 385.315 425.629C376.321 417.821 367.023 409.751 356.869 402.611C341.413 391.745 323.092 383.343 307.205 376.562C287.045 367.953 270.658 362.296 255.636 358.746C232.86 353.38 210.611 352.001 191.3 354.776C183.217 355.872 175.384 357.788 167.912 360.499C164.023 361.932 160.244 363.656 156.232 365.485C152.614 367.129 148.898 368.816 145.077 370.285C139.903 372.387 134.361 373.718 128.596 374.244C117.979 375.053 106.868 372.461 95.579 366.542C85.0231 360.978 75.4472 353.25 67.55 343.923C60.1454 335.064 54.4663 325.532 48.9821 316.314C44.1448 308.194 39.1456 299.803 32.9365 291.78C23.3822 279.485 10.4954 267.647 -4.39258 257.576C-20.9056 246.558 -38.6107 238.013 -56.8585 232.252C-75.5431 226.404 -94.5213 223.175 -113.232 222.662C-131.944 222.164 -150.101 224.392 -165.667 229.166L-165.436 229.463C-149.92 224.678 -131.823 222.448 -113.133 222.971C-94.4697 223.487 -75.5406 226.71 -56.9045 232.544C-38.7047 238.288 -21.0461 246.81 -4.57595 257.797C10.289 267.828 23.1591 279.602 32.654 291.874C38.8648 299.867 43.8388 308.258 48.6573 316.353C54.1714 325.578 59.8389 335.138 67.267 344.027C75.2123 353.403 84.8421 361.171 95.4559 366.767C106.682 372.647 118.19 375.336 128.768 374.518C134.569 373.987 140.147 372.649 145.356 370.537C149.176 369.069 152.903 367.374 156.506 365.732C160.513 363.906 164.296 362.188 168.171 360.757C175.621 358.055 183.429 356.144 191.487 355.049C210.737 352.281 232.936 353.658 255.652 359.021C270.639 362.559 286.996 368.209 307.127 376.802C322.954 383.655 341.257 392.033 356.649 402.849C366.784 409.975 376.073 418.034 385.043 425.811C393.594 433.239 402.444 440.914 412.227 448.023C413.722 449.106 415.213 450.163 416.657 451.159C428.446 459.347 441.086 465.888 454.167 470.571C468.424 475.509 481.136 476.916 490.927 474.607Z" fill="url(#paint4_linear_524_1586)"/>
<path style="mix-blend-mode:screen" opacity="0.7" d="M491.533 473.514L491.328 473.1C470.847 476.167 439.926 462.253 417.843 448.233C416.376 447.305 414.867 446.323 413.344 445.323C403.989 439.172 395.641 432.747 387.568 426.54C377.739 418.977 368.453 411.837 357.814 405.43C346.484 398.604 333.12 393.033 318.951 387.119C315.05 385.492 311.021 383.806 306.999 382.086C303.704 380.69 300.465 379.291 297.282 377.89C282.887 371.654 269.283 365.763 256.109 361.547C234.506 354.654 213.259 351.388 194.674 352.114C186.762 352.3 179.026 353.338 171.588 355.21C165.939 356.677 160.066 359.095 154.38 361.432C152.157 362.348 149.851 363.297 147.58 364.182C141.209 366.652 136.082 368.077 131.016 368.769C120.572 370.137 109.486 368.45 98.9669 363.892C88.9451 359.638 79.5972 353.349 71.5606 345.453C64.2806 338.142 58.5057 330.196 52.89 322.488C47.7973 315.485 42.5356 308.242 36.0353 301.284C26.1515 290.696 12.9663 280.585 -2.07266 272.047C-18.1798 262.881 -36.5928 255.421 -55.3315 250.444C-92.8216 240.537 -133.629 239.772 -167.291 248.334L-167.04 248.742C-133.465 240.197 -92.7636 240.964 -55.3682 250.845C-36.6937 255.793 -18.3301 263.232 -2.27708 272.371C12.703 280.876 25.8251 290.937 35.6711 301.477C42.1372 308.413 47.39 315.633 52.4543 322.599C58.0642 330.322 63.868 338.294 71.1863 345.643C79.2798 353.616 88.6983 359.971 98.7998 364.274C109.43 368.875 120.631 370.579 131.185 369.2C136.302 368.509 141.438 367.086 147.856 364.591C150.138 363.708 152.443 362.76 154.671 361.84C160.327 359.516 166.199 357.098 171.823 355.64C179.22 353.767 186.918 352.732 194.792 352.554C213.301 351.837 234.478 355.077 255.99 361.97C269.125 366.167 282.709 372.054 297.093 378.288C300.294 379.676 303.532 381.073 306.806 382.477C310.833 384.203 314.867 385.886 318.768 387.514C332.898 393.409 346.251 398.977 357.542 405.784C368.147 412.179 377.413 419.305 387.233 426.855C395.315 433.075 403.684 439.494 413.047 445.666C414.575 446.673 416.09 447.651 417.556 448.579C439.804 462.64 470.894 476.611 491.533 473.514Z" fill="url(#paint5_linear_524_1586)"/>
<path style="mix-blend-mode:screen" opacity="0.7" d="M492.107 472.339L491.906 471.824C468.595 473.181 430.04 451.958 418.783 445.424C417.226 444.526 415.7 443.631 414.204 442.739C405.557 437.608 397.918 432.47 390.493 427.521C380.023 420.461 370.064 413.812 358.744 408.161C350.611 404.109 341.281 400.656 331.33 397.046C323.394 394.146 315.184 391.151 306.784 387.537C297.746 383.656 289.281 379.552 281.093 375.58C272.54 371.426 264.461 367.507 256.598 364.274C236.287 355.927 216.053 350.76 198.08 349.349C191.318 348.818 183.988 348.41 175.289 349.792C167.612 351.014 159.505 354.217 151.672 357.313L150.082 357.942C144.759 360.178 139.187 361.923 133.425 363.157C123.477 365.129 112.793 364.426 102.336 361.112C92.8437 358.111 83.7413 353.237 75.5868 346.787C68.3354 340.949 62.6541 334.747 56.6427 328.185C51.3285 322.413 45.8484 316.427 39.1622 310.633C28.8853 301.788 15.4467 293.409 0.29882 286.381C-16.1234 278.74 -34.8136 272.565 -53.7707 268.529C-91.5622 260.529 -133.464 260.076 -168.882 267.403L-168.585 267.914C-133.286 260.626 -91.4373 261.032 -53.7723 269.03C-34.8647 273.045 -16.2553 279.212 0.0979729 286.818C15.1721 293.804 28.5416 302.148 38.7664 310.925C45.4347 316.676 50.8959 322.637 56.1795 328.412C62.2152 334.995 67.9154 341.222 75.2205 347.096C83.4633 353.617 92.6645 358.546 102.26 361.581C112.843 364.931 123.655 365.641 133.723 363.648C139.511 362.412 145.111 360.668 150.466 358.436L152.056 357.808C159.863 354.721 167.945 351.518 175.555 350.316C184.182 348.949 191.467 349.352 198.197 349.896C216.085 351.304 236.229 356.441 256.456 364.755C264.289 367.981 272.358 371.897 280.901 376.039C289.099 380.013 297.568 384.123 306.627 388.018C315.056 391.639 323.276 394.636 331.227 397.545C341.127 401.163 350.475 404.575 358.542 408.618C369.827 414.267 379.716 420.9 390.166 427.935C397.591 432.905 405.265 438.055 413.922 443.179C415.441 444.063 416.968 444.96 418.505 445.869C429.829 452.393 468.596 473.737 492.107 472.339Z" fill="url(#paint6_linear_524_1586)"/>
<path style="mix-blend-mode:screen" opacity="0.7" d="M492.669 471.11L492.514 470.492C478.178 469.86 453.697 460.474 419.723 442.554L415.06 440.1C407.671 436.194 401.068 432.411 394.681 428.756C383.057 422.089 372.078 415.803 359.66 410.86C353.398 408.375 346.318 406.284 338.809 404.048C328.939 401.121 317.774 397.824 306.57 392.985C294.217 387.677 283.426 381.578 273.004 375.698C267.458 372.568 262.227 369.618 257.085 366.998C238.044 357.237 218.827 350.169 201.518 346.554C195.194 345.233 188.031 343.733 179.013 344.328C170.487 344.858 161.283 348.174 152.588 351.652C147.175 353.956 141.582 355.909 135.836 357.499C126.314 360.012 116.028 360.273 105.684 358.265C96.6993 356.464 87.8494 353.016 79.5786 348.097C72.2737 343.667 66.3688 338.798 60.1186 333.645C54.3859 328.765 48.4148 324.21 42.2403 320.008C31.5622 312.939 17.8454 306.27 2.62775 300.78C-15.4533 294.34 -33.8232 289.623 -52.2253 286.696C-90.1386 280.556 -133.24 280.511 -170.488 286.557L-170.175 287.164C-132.986 281.161 -89.986 281.214 -52.1625 287.323C-33.8227 290.246 -15.5154 294.947 2.50501 301.362C17.6619 306.849 31.2804 313.456 41.8899 320.479C48.0322 324.661 53.9722 329.194 59.6753 334.05C65.9598 339.226 71.8889 344.115 79.2837 348.575C87.6607 353.556 96.6233 357.046 105.723 358.872C116.195 360.893 126.606 360.618 136.243 358.066C142.017 356.467 147.639 354.504 153.077 352.186C161.725 348.733 170.886 345.459 179.292 344.912C188.187 344.33 195.284 345.811 201.548 347.119C218.786 350.739 237.913 357.777 256.847 367.464C261.953 370.091 267.179 373.035 272.71 376.157C283.136 382.073 293.969 388.15 306.38 393.502C317.639 398.348 328.844 401.674 338.743 404.607C346.223 406.826 353.288 408.919 359.509 411.396C371.853 416.307 382.797 422.581 394.392 429.221C400.783 432.882 407.391 436.671 414.8 440.581L419.468 443.041C453.554 461.041 478.19 470.486 492.669 471.11Z" fill="url(#paint7_linear_524_1586)"/>
<path style="mix-blend-mode:screen" opacity="0.7" d="M493.203 469.825L493.15 469.121C477.195 466.607 448.951 453.135 426.23 442.27L420.664 439.629C419.07 438.877 417.481 438.121 415.897 437.361C410.845 435.005 406.189 432.772 401.687 430.608C387.293 423.683 374.859 417.702 360.543 413.501C355.595 412.054 350.126 410.839 344.308 409.572C332.779 407.037 319.71 404.164 306.338 398.385C291.603 392.021 279.119 383.758 268.154 376.506C264.481 374.077 261.014 371.784 257.601 369.645C239.915 358.587 221.718 349.57 205.014 343.649L204.609 343.505C198.254 341.245 191.678 338.916 182.778 338.724C175.358 338.557 166.313 340.684 155.117 345.216L151.712 346.607C147.11 348.498 142.767 350.284 138.275 351.726C128.335 354.874 118.508 356.102 109.066 355.394C100.533 354.761 91.9315 352.734 83.5881 349.391C75.9985 346.316 69.6462 342.672 62.9428 338.834C57.5531 335.753 51.9861 332.561 45.3376 329.407C34.195 324.132 20.2565 319.246 4.99296 315.235C-13.5006 310.443 -32.0954 307.004 -50.6419 304.945C-88.4027 300.685 -132.661 300.994 -172.065 305.796L-171.732 306.515C-132.395 301.725 -88.2227 301.411 -50.5377 305.66C-32.045 307.713 -13.5041 311.144 4.93555 315.924C20.1239 319.914 34.002 324.787 45.0869 329.999C51.6909 333.127 57.2331 336.308 62.5978 339.379C69.3457 343.242 75.7182 346.89 83.3813 350.018C91.8426 353.412 100.566 355.469 109.221 356.11C118.801 356.823 128.709 355.602 138.753 352.406C143.29 350.979 147.648 349.181 152.262 347.282L155.661 345.895C166.753 341.402 175.69 339.296 182.988 339.457C191.71 339.646 198.191 341.948 204.461 344.174L204.866 344.309C221.48 350.21 239.593 359.173 257.205 370.189C260.604 372.32 264.065 374.606 267.728 377.034C278.758 384.325 291.271 392.615 306.11 399.027C319.597 404.847 332.721 407.737 344.305 410.279C350.087 411.553 355.553 412.753 360.46 414.191C374.677 418.359 387.07 424.321 401.411 431.209C405.917 433.379 410.573 435.623 415.63 437.974C417.183 438.699 418.763 439.442 420.368 440.205L425.929 442.851C448.73 453.753 477.082 467.29 493.203 469.825Z" fill="url(#paint8_linear_524_1586)"/>
<path style="mix-blend-mode:screen" opacity="0.7" d="M493.8 467.704C483.218 464.682 466.542 457.009 448.879 448.884C439.669 444.642 430.12 440.244 421.597 436.617C419.934 435.912 418.32 435.241 416.754 434.605L416.62 434.549C394.37 425.531 379.669 419.572 361.452 416.16C357.581 415.433 353.391 414.855 348.958 414.245C336.064 412.461 321.447 410.451 306.143 403.815C289.488 396.601 276.479 386.502 264.998 377.586C262.622 375.742 260.378 374.004 258.155 372.327C242.377 360.397 225.773 349.833 208.558 340.772L207.783 340.377C201.825 337.272 195.663 334.056 186.587 333.126C176.592 332.111 165.358 335.637 157.681 338.786C155.228 339.789 152.829 340.829 150.514 341.837C147.144 343.297 143.966 344.682 140.72 345.924C130.6 349.788 121.349 351.932 112.434 352.471C104.28 352.963 95.9234 352.346 87.5738 350.638C79.051 348.91 71.7382 346.411 63.9513 343.809C59.1388 342.18 54.1708 340.503 48.4368 338.831C34.8089 334.975 21.0973 331.941 7.37746 329.746C-11.4732 326.613 -30.3128 324.437 -49.0702 323.224C-86.4901 320.793 -130.737 321.452 -173.657 325.072L-173.313 325.893C-130.463 322.247 -86.2376 321.604 -48.8947 324.044C-30.1911 325.241 -11.4051 327.399 7.39262 330.51C21.0602 332.694 34.7197 335.715 48.2958 339.555C54.0186 341.245 58.9766 342.921 63.7838 344.553C71.5993 347.192 78.9737 349.684 87.5507 351.449C96.0135 353.172 104.482 353.792 112.747 353.295C121.755 352.746 131.094 350.585 141.297 346.679C144.6 345.434 147.782 344.045 151.125 342.538C153.44 341.53 155.833 340.493 158.281 339.494C165.853 336.384 176.943 332.887 186.728 333.922C195.546 334.822 201.588 337.97 207.427 341.018L208.202 341.413C225.34 350.446 241.87 360.97 257.581 372.849C259.798 374.53 262.043 376.268 264.414 378.106C275.958 387.072 289.041 397.233 305.845 404.53C321.323 411.241 336.052 413.254 349.021 415.06C353.434 415.666 357.609 416.246 361.445 416.96C379.575 420.369 394.207 426.291 416.381 435.278L416.516 435.333C418.098 435.97 419.703 436.635 421.33 437.329C429.843 440.954 439.371 445.337 448.586 449.576C466.318 457.756 483.02 465.419 493.708 468.47L493.8 467.704Z" fill="url(#paint9_linear_524_1586)"/>
<path style="mix-blend-mode:screen" opacity="0.7" d="M494.496 466.239C489.065 463.9 481.649 460.331 473.06 456.192C457.678 448.791 438.526 439.578 422.523 433.54C420.804 432.871 419.172 432.303 417.589 431.756C394.127 423.629 379.141 420.102 362.324 418.749C359.461 418.519 356.441 418.368 353.242 418.203C339.788 417.485 323.097 416.661 305.928 409.194C287.598 401.238 274.437 389.256 262.821 378.694C261.416 377.413 260.029 376.176 258.693 374.951C243.84 361.644 228.288 349.23 212.142 337.792L211.348 337.224C205.706 333.195 199.83 329.048 190.424 327.371C179.123 325.35 166.666 329.52 160.246 332.18C156.436 333.759 152.799 335.474 149.298 337.126C147.235 338.101 145.203 339.063 143.174 339.974C132.741 344.665 123.791 347.762 115.811 349.439C107.939 351.057 99.8055 351.856 91.5242 351.825C80.2057 351.848 70.8146 350.656 58.9093 349.121C56.5415 348.816 54.0767 348.505 51.4693 348.184C38.1969 346.574 24.1474 345.24 9.70794 344.213C-9.12787 342.831 -28.3683 341.933 -47.4782 341.56C-82.1023 340.928 -123.9 341.844 -175.227 344.419L-174.883 345.339C-123.572 342.786 -81.8141 341.852 -47.2209 342.487C-28.1078 342.896 -8.91636 343.753 9.89388 345.135C24.3132 346.156 38.3472 347.493 51.5781 349.114C54.1754 349.433 56.6401 349.744 59.0133 350.045C70.9548 351.572 80.3911 352.779 91.7964 352.76C100.159 352.793 108.373 351.984 116.32 350.345C124.377 348.659 133.385 345.538 143.876 340.824C145.91 339.909 147.941 338.948 150.01 337.969C153.52 336.339 157.131 334.634 160.926 333.036C167.237 330.418 179.465 326.321 190.462 328.286C199.518 329.901 205.226 333.949 210.741 337.868L211.539 338.433C227.636 349.838 243.14 362.216 257.948 375.484C259.3 376.697 260.687 377.933 262.076 379.226C273.784 389.875 287.048 401.946 305.618 410.007C323.048 417.582 339.906 418.448 353.447 419.139C356.641 419.308 359.656 419.463 362.499 419.688C379.188 421.029 394.063 424.531 417.4 432.615C418.957 433.152 420.604 433.748 422.284 434.379C438.247 440.377 457.344 449.583 472.701 456.974C481.31 461.116 488.732 464.681 494.181 467.055L494.496 466.239Z" fill="url(#paint10_linear_524_1586)"/>
<path style="mix-blend-mode:screen" opacity="0.7" d="M495.205 464.757C480.395 455.908 448.617 438.709 423.449 430.408C421.731 429.84 420.067 429.3 418.434 428.854C394.567 421.937 379.593 420.859 363.202 421.329C361.368 421.383 359.462 421.462 357.483 421.546C342.926 422.147 324.818 422.897 305.718 414.578C285.858 405.918 272.253 391.429 261.317 379.775L259.246 377.569C246.253 363.815 232.417 350.21 215.738 334.794L215.094 334.191C209.954 329.427 204.13 324.03 194.286 321.574C185.5 319.387 174.042 320.828 162.852 325.511C157.564 327.727 152.762 330.245 148.113 332.679L145.67 333.964C135.324 339.346 126.875 343.517 119.229 346.36C111.567 349.17 103.635 351.398 95.491 353.029C82.8096 355.68 71.7114 356.922 54.5297 357.609C43.0875 358.093 29.2551 358.391 13.2398 358.748L0.579955 358.985C-13.4504 359.245 -29.3546 359.539 -45.8913 359.962C-61.7978 360.394 -78.1361 360.943 -95.4404 361.525C-122.429 362.429 -150.359 363.377 -176.816 363.827L-176.471 364.858C-149.988 364.388 -122.058 363.439 -95.0748 362.55C-77.7758 361.972 -61.4535 361.435 -45.5364 360.995C-29.0311 360.586 -13.1056 360.276 0.914649 360.014L13.59 359.775C29.61 359.424 43.4238 359.091 54.9055 358.636C72.1539 357.949 83.3139 356.699 96.0733 354.03C104.254 352.39 112.223 350.156 119.926 347.344C127.613 344.48 136.104 340.298 146.455 334.912L148.914 333.625C153.522 331.182 158.317 328.688 163.569 326.49C174.55 321.884 185.714 320.456 194.186 322.584C203.578 324.935 208.998 329.941 214.226 334.786L214.871 335.389C231.524 350.784 245.322 364.35 258.3 378.085L260.372 380.291C271.414 392.061 285.179 406.723 305.331 415.499C324.786 423.973 343.094 423.221 357.805 422.613C359.774 422.527 361.675 422.452 363.515 422.384C379.804 421.892 394.63 422.972 418.3 429.831C419.881 430.286 421.567 430.79 423.249 431.365C448.266 439.613 479.916 456.721 494.649 465.549L495.205 464.757Z" fill="url(#paint11_linear_524_1586)"/>
<path style="mix-blend-mode:screen" opacity="0.7" d="M495.927 463.229C482.9 452.946 450.79 434.694 424.377 427.199C422.64 426.699 420.916 426.258 419.26 425.874C395.187 420.278 379.404 421.726 364.072 423.876L361.928 424.176C347.065 426.29 326.717 429.18 305.513 419.921C284.309 410.662 270.952 394.056 260.278 380.737L259.797 380.117C246.977 364.148 234.57 349.584 223.64 336.719L218.92 331.171C214.04 325.428 208.517 318.921 198.184 315.661C189.044 312.766 176.808 313.928 165.426 318.737C159.43 321.391 153.654 324.436 148.127 327.858C144.086 330.26 140.407 332.531 136.845 334.734C131.8 337.852 127.036 340.79 122.623 343.224C114.291 347.813 106.269 351.322 99.5218 354.148C86.2306 359.905 72.2018 364.209 57.6352 366.999C46.2506 369.259 32.126 371.324 14.4639 373.306C-1.53278 375.098 -20.7754 376.738 -44.2711 378.406C-96.7708 382.173 -140.66 383.745 -178.374 383.276L-178.05 384.413C-140.289 384.877 -96.383 383.283 -43.8223 379.529C-20.2763 377.883 -1.04809 376.224 14.9672 374.467C32.6711 372.473 46.8176 370.383 58.2579 368.14C72.9065 365.338 87.0179 361.021 100.393 355.251C107.162 352.409 115.216 348.886 123.59 344.276C128.019 341.83 132.793 338.884 137.849 335.758C141.411 333.565 145.095 331.29 149.12 328.901C154.605 325.498 160.34 322.47 166.293 319.834C177.386 315.141 189.245 313.995 198.022 316.768C207.829 319.861 212.941 325.881 217.883 331.705L222.609 337.259C233.54 350.104 245.942 364.662 258.737 380.62L259.218 381.24C270.022 394.727 283.475 411.457 305.165 420.952C326.855 430.446 347.458 427.494 362.509 425.319L364.648 425.022C379.851 422.88 395.444 421.437 419.279 426.975C420.903 427.352 422.592 427.79 424.299 428.274C450.414 435.677 482.224 453.76 495.128 463.949L495.927 463.229Z" fill="url(#paint12_linear_524_1586)"/>
<path style="mix-blend-mode:screen" opacity="0.7" d="M496.64 461.66C484.01 448.843 451.625 430.204 425.289 423.916C423.523 423.492 421.77 423.127 420.086 422.829C395.927 418.512 380.171 422.514 364.927 426.391C351.433 429.822 328.835 435.542 305.295 425.247C282.656 415.341 269.773 396.467 260.358 382.685C253.881 373.23 247.594 364.183 241.517 355.441C234.937 345.985 228.725 337.058 222.964 328.572L222.738 328.279C218.147 321.512 212.941 313.839 202.071 309.724C192.476 306.064 179.739 306.914 168.01 311.926C161.877 314.659 156.053 317.937 150.594 321.728C143.881 326.232 138.047 330.779 132.901 334.796C130.508 336.661 128.244 338.42 126.016 340.093C118.147 345.985 110.562 350.901 103.538 355.331C90.1577 363.775 77.76 370.607 60.7075 376.503C48.7203 380.668 33.9617 384.528 16.8075 387.99C-0.346756 391.452 -20.3077 394.4 -42.6941 396.934C-76.3642 400.786 -127.519 404.935 -180.003 402.806L-179.688 404.043C-127.101 406.174 -75.878 402.004 -42.1504 398.138C-19.7275 395.597 0.334827 392.583 17.4659 389.168C34.5971 385.752 49.4984 381.826 61.5435 377.638C78.6904 371.711 91.1621 364.843 104.596 356.359C111.641 351.913 119.243 346.985 127.139 341.074C129.366 339.42 131.62 337.649 134.023 335.776C139.158 331.778 144.982 327.238 151.663 322.748C157.066 318.995 162.832 315.751 168.904 313.046C180.284 308.175 192.557 307.347 201.729 310.821C211.977 314.701 217.008 322.103 221.446 328.641L221.672 328.933C227.429 337.403 233.654 346.359 240.234 355.815C246.311 364.557 252.599 373.593 259.047 383.021C268.59 396.992 281.656 416.123 304.838 426.272C328.992 436.846 351.931 431.021 365.629 427.537C380.765 423.75 396.368 419.802 420.14 424.034C421.788 424.329 423.501 424.685 425.209 425.123C450.436 431.146 483.153 449.744 495.55 462.303L496.64 461.66Z" fill="url(#paint13_linear_524_1586)"/>
<path style="mix-blend-mode:screen" opacity="0.7" d="M497.333 460.033C486.203 445.785 453.419 425.875 426.199 420.553C424.394 420.202 422.606 419.918 420.898 419.702C398.091 416.843 383.515 422.264 368.084 428.016L365.792 428.863C349.498 434.901 327.874 440.553 305.073 430.542C283.053 420.885 270.731 402.065 260.905 385.187L256.84 378.217C245.919 359.498 235.603 341.814 226.58 325.351C222.293 317.524 217.427 308.642 206.015 303.65C194.179 298.461 179.983 300.925 170.645 304.962C164.362 307.761 158.487 311.272 153.113 315.44C145.224 321.36 138.84 327.646 133.15 333.221L129.504 336.795C121.59 344.444 114.02 350.983 107.652 356.372C95.8161 366.384 82.3206 376.902 63.8944 385.931C51.3764 392.074 36.361 397.684 19.2538 402.616C-0.406872 408.093 -20.532 412.383 -41.0288 415.465C-74.2714 420.673 -125.614 426.094 -181.51 422.381L-181.225 423.713C-125.188 427.41 -73.6808 421.995 -40.3603 416.777C-19.8014 413.689 0.383432 409.385 20.1003 403.885C37.2806 398.938 52.3702 393.293 64.9517 387.122C83.4989 378.052 97.0583 367.497 108.949 357.434C115.327 352.037 122.913 345.486 130.844 337.805C132.042 336.649 133.258 335.451 134.501 334.233C140.132 328.692 146.527 322.408 154.356 316.532C159.659 312.419 165.455 308.953 171.654 306.189C180.68 302.286 194.326 299.876 205.571 304.806C216.301 309.498 220.993 318.067 225.13 325.622C234.162 342.108 244.482 359.798 255.413 378.53L259.468 385.487C269.461 402.645 281.993 421.76 304.619 431.686C328.087 441.988 350.125 436.225 366.733 430.101L369.025 429.254C384.271 423.57 398.68 418.205 421.055 421.011C422.723 421.217 424.459 421.501 426.217 421.847C452.963 427.069 485.133 446.58 496.026 460.522L497.333 460.033Z" fill="url(#paint14_linear_524_1586)"/>
<path style="mix-blend-mode:screen" opacity="0.7" d="M498.023 458.339C487.032 440.759 453.231 421.112 427.09 417.132C425.263 416.844 423.451 416.642 421.697 416.516C399.609 414.889 385.743 421.805 371.062 429.129L366.643 431.32C343.703 442.555 323.489 444.032 304.848 435.838C282.893 426.182 271.021 406.979 261.448 387.665C251.613 367.824 240.203 344.52 230.229 322.052C226.561 313.752 221.997 303.417 209.981 297.487C201.879 293.49 187.986 291.501 173.282 297.905C166.832 300.776 160.892 304.529 155.6 309.078C147.207 316.077 140.776 323.945 135.067 330.902L132.958 333.456C126.825 340.896 120.274 348.29 111.753 357.397C100.367 369.452 86.1458 383.397 67.0342 395.367C54.0652 403.51 38.797 410.886 21.6396 417.28C1.94624 424.447 -18.4581 430.058 -39.4178 434.072C-87.0399 443.488 -136.719 446.248 -183.095 442.016L-182.835 443.45C-136.262 447.674 -86.4124 444.925 -38.6233 435.483C-16.0924 431.041 4.51995 425.392 22.6803 418.637C39.9175 412.203 55.2709 404.783 68.304 396.603C87.5229 384.563 101.804 370.563 113.244 358.458C121.777 349.333 128.333 341.934 134.494 334.464L136.603 331.91C142.284 324.984 148.686 317.167 156.999 310.228C162.197 305.757 168.029 302.064 174.36 299.234C183.207 295.379 197.695 292.922 209.378 298.695C220.642 304.256 225.05 314.225 228.583 322.23C238.598 344.717 250.017 368.044 259.851 387.905C269.586 407.562 281.703 427.136 304.357 437.081C323.637 445.54 344.367 444.094 367.79 432.627L372.215 430.432C386.704 423.201 400.405 416.378 421.999 417.949C423.701 418.074 425.461 418.275 427.227 418.549C452.782 422.452 485.817 441.603 496.53 458.748L498.023 458.339Z" fill="url(#paint15_linear_524_1586)"/>
<path style="mix-blend-mode:screen" opacity="0.7" d="M498.717 456.567C488.948 437.122 455.249 416.626 428.041 413.58C426.174 413.366 424.327 413.246 422.55 413.204C400.874 412.69 386.862 421.542 373.304 430.056C371.397 431.267 369.48 432.476 367.565 433.643C352.376 442.965 329.104 451.772 304.663 440.998C281.724 430.887 270.246 409.539 262.044 389.998C250.558 362.67 241.35 339.316 233.882 318.586C230.774 309.907 226.508 298.033 213.962 291.151C201.093 284.115 185.434 286.496 175.943 290.668C169.346 293.618 163.36 297.612 158.169 302.527C149.646 310.352 143.443 319.617 137.973 327.792L136.513 329.967C130.28 339.235 123.558 348.51 115.952 358.294C100.29 378.346 86.2046 392.675 70.2773 404.752C56.008 415.439 40.5574 424.539 24.1299 431.934C4.41659 440.78 -16.2815 447.736 -37.7392 452.727C-85.5773 464.11 -136.352 467.2 -184.635 461.709L-184.41 463.244C-135.885 468.762 -84.8766 465.666 -36.8333 454.229C-15.2794 449.236 5.51297 442.27 25.3178 433.405C41.8321 425.97 57.3637 416.819 71.7068 406.073C87.7152 393.935 101.866 379.548 117.595 359.417C125.212 349.604 131.95 340.317 138.201 331.016L139.661 328.842C145.367 320.322 151.265 311.512 159.696 303.775C164.781 298.964 170.642 295.05 177.099 292.153C186.191 288.158 201.105 285.837 213.218 292.457C224.989 298.876 229.069 310.344 232.073 318.735C239.551 339.488 248.772 362.871 260.268 390.221C268.635 410.154 280.386 431.942 304.126 442.406C329.454 453.569 353.324 444.565 368.887 435.044C370.823 433.861 372.746 432.648 374.663 431.439C388.003 423.008 401.795 414.3 422.953 414.783C424.675 414.808 426.469 414.927 428.248 415.147C454.276 418.043 487.697 438.311 497.005 456.841L498.717 456.567Z" fill="url(#paint16_linear_524_1586)"/>
<path style="mix-blend-mode:screen" opacity="0.7" d="M499.41 454.729C490.922 433.696 456.68 411.951 428.925 409.95C427.022 409.818 425.146 409.785 423.334 409.825C401.833 410.421 388.267 420.87 375.104 430.98C372.928 432.659 370.677 434.385 368.441 436.04C356.237 445.028 331.695 458.3 304.428 446.249C280.606 435.72 269.907 413.118 262.583 392.4C252.621 364.257 244.426 338.987 237.523 315.146C234.927 306.162 231.038 292.632 217.939 284.819C209.58 279.828 194.257 276.469 178.583 283.416C171.825 286.455 165.782 290.7 160.69 295.986C152.163 304.587 146.529 314.757 141.075 324.585L139.995 326.501C133.828 337.594 127.134 348.613 120.075 359.258C105.012 381.987 90.1871 399.467 73.4653 414.271C59.1603 426.842 43.4474 437.724 26.551 446.762C6.83363 457.217 -14.1521 465.487 -36.1108 471.458C-84.2799 484.815 -136.193 488.277 -186.217 481.469L-186.034 483.109C-135.699 489.944 -83.4936 486.463 -35.0663 473.042C-12.9909 467.04 8.10543 458.724 27.9253 448.21C44.9118 439.128 60.7064 428.188 75.0827 415.548C91.8695 400.696 106.75 383.144 121.922 360.324C128.977 349.662 135.687 338.621 141.877 327.502L142.929 325.606C148.345 315.837 153.943 305.743 162.36 297.243C167.335 292.077 173.24 287.929 179.843 284.959C194.792 278.334 209.245 281.437 217.069 286.111C228.383 292.862 232.28 303.696 235.582 315.152C242.494 339.026 250.703 364.326 260.669 392.496C263.797 401.352 268.304 412.854 275.426 423.301C283.184 434.694 292.487 442.674 303.872 447.705C332.222 460.231 357.447 446.638 369.964 437.427C372.207 435.757 374.487 434.059 376.648 432.35C389.591 422.386 402.978 412.08 423.904 411.524C425.644 411.479 427.447 411.516 429.271 411.647C456.169 413.542 489.331 434.553 497.525 454.872L499.41 454.729Z" fill="url(#paint17_linear_524_1586)"/>
<path style="mix-blend-mode:screen" opacity="0.7" d="M500.102 452.813C492.701 429.802 458.571 407.195 429.878 406.286C427.966 406.228 426.069 406.269 424.193 406.41C402.724 408.013 389.455 420.131 376.669 431.811C374.285 433.986 371.824 436.238 369.37 438.366C339.611 464.079 311.989 454.883 304.219 451.464C279.4 440.468 269.231 415.378 263.148 394.75C254.697 366.069 247.304 338.103 241.205 311.593C238.364 299.223 234.542 286.468 221.963 278.368C208.981 270.001 192.165 271.173 181.258 276.045C174.345 279.168 168.25 283.659 163.268 289.303C154.899 298.528 149.662 309.839 144.586 320.761L143.592 322.896C137.706 335.616 131.227 348.132 124.334 360.089C109.803 385.267 94.2321 406.071 76.7617 423.672C62.4042 438.105 46.4309 450.777 29.0781 461.498C9.36946 473.575 -11.9084 483.197 -34.3889 490.198C-82.9924 505.511 -135.998 509.368 -187.742 501.273L-187.599 502.998C-135.509 511.165 -82.1339 507.311 -33.2378 491.89C-10.6323 484.842 10.7653 475.165 30.5875 463.022C48.031 452.245 64.0882 439.507 78.5213 424.999C96.0906 407.305 111.718 386.418 126.306 361.149C133.216 349.158 139.712 336.62 145.61 323.861L146.605 321.725C151.64 310.884 156.851 299.672 165.083 290.569C169.939 285.06 175.882 280.674 182.624 277.626C192.975 272.998 208.853 271.83 220.957 279.646C232.714 287.224 236.372 299.522 239.121 311.473C245.234 338.013 252.625 366.02 261.089 394.721C267.309 415.824 277.769 441.514 303.628 452.969C315.758 458.348 328.523 459.309 341.537 455.803C354.551 452.298 364.818 445.134 371.068 439.769C373.539 437.629 376.005 435.372 378.395 433.194C391.016 421.666 404.065 409.751 424.902 408.182C426.702 408.058 428.522 408.031 430.355 408.101C458.003 408.943 490.943 430.704 498.052 452.838L500.102 452.813Z" fill="url(#paint18_linear_524_1586)"/>
<path style="mix-blend-mode:screen" opacity="0.7" d="M500.792 450.815C497.525 437.917 486.88 424.989 471.625 415.32C456.369 405.652 439.372 401.118 425.026 402.869C403.551 405.481 390.564 419.235 378.055 432.562C375.529 435.246 372.914 438.025 370.293 440.63C347.039 463.771 320.822 464.057 304.048 456.61C278.093 445.083 268.64 417.09 263.748 396.993C256.571 367.382 250.229 337.398 244.933 307.903C243.876 302.018 242.508 295.186 239.67 288.692C236.506 281.442 232.044 275.9 226.039 271.758C212.597 262.485 195.23 263.442 183.99 268.51C163.305 277.826 155.51 297.836 147.981 317.179L147.189 319.198C119.551 389.943 81.7297 441.343 31.5912 476.356C-29.3438 518.814 -109.832 535.178 -189.269 521.229L-189.167 523.062C-109.1 537.15 -27.997 520.716 33.3298 477.966C83.6366 442.738 121.61 391.145 149.349 320.154L150.136 318.128C157.574 299.034 165.266 279.28 185.416 270.203C196.05 265.417 212.378 264.446 224.897 273.089C237.114 281.518 240.396 294.814 242.73 307.738C248.031 337.26 254.35 367.281 261.567 396.932C271.983 439.85 290.453 452.475 303.443 458.25C330.201 470.127 356.48 457.647 372.193 442.06C374.83 439.443 377.456 436.656 379.982 433.962C392.323 420.86 405.09 407.31 425.918 404.771C439.614 403.056 455.924 407.443 470.579 416.7C485.235 425.957 495.467 438.394 498.6 450.741L500.792 450.815Z" fill="url(#paint19_linear_524_1586)"/>
</g>
<defs>
<radialGradient id="paint0_radial_524_1586" cx="0" cy="0" r="1" gradientUnits="userSpaceOnUse" gradientTransform="translate(387.7 309.636) rotate(44.9947) scale(27.534)">
<stop stop-color="#AAFF00"/>
<stop offset="1" stop-color="#00FFE0" stop-opacity="0"/>
</radialGradient>
<radialGradient id="paint1_radial_524_1586" cx="0" cy="0" r="1" gradientUnits="userSpaceOnUse" gradientTransform="translate(-49.4433 370.765) rotate(85.8651) scale(107.925 99.3694)">
<stop stop-color="#8CE717"/>
<stop offset="1" stop-color="#00FFE0" stop-opacity="0"/>
</radialGradient>
<radialGradient id="paint2_radial_524_1586" cx="0" cy="0" r="1" gradientUnits="userSpaceOnUse" gradientTransform="translate(171.176 416.346) rotate(135.005) scale(61.9259)">
<stop stop-color="#AAFF00"/>
<stop offset="1" stop-color="#00FFE0" stop-opacity="0"/>
</radialGradient>
<linearGradient id="paint3_linear_524_1586" x1="169.943" y1="277.883" x2="139.539" y2="385.895" gradientUnits="userSpaceOnUse">
<stop stop-color="#FFFFE0"/>
<stop offset="1" stop-color="#FEFCFF"/>
</linearGradient>
<linearGradient id="paint4_linear_524_1586" x1="168.365" y1="295.574" x2="143.605" y2="383.522" gradientUnits="userSpaceOnUse">
<stop stop-color="#FFFFE0"/>
<stop offset="1" stop-color="#FEFCFF"/>
</linearGradient>
<linearGradient id="paint5_linear_524_1586" x1="166.834" y1="312.89" x2="147.512" y2="381.507" gradientUnits="userSpaceOnUse">
<stop stop-color="#FFFFE0"/>
<stop offset="1" stop-color="#FEFCFF"/>
</linearGradient>
<linearGradient id="paint6_linear_524_1586" x1="165.355" y1="329.638" x2="151.309" y2="379.508" gradientUnits="userSpaceOnUse">
<stop stop-color="#FFFFE0"/>
<stop offset="1" stop-color="#FEFCFF"/>
</linearGradient>
<linearGradient id="paint7_linear_524_1586" x1="165.125" y1="335.968" x2="153.243" y2="378.145" gradientUnits="userSpaceOnUse">
<stop stop-color="#FFFFE0"/>
<stop offset="1" stop-color="#FEFCFF"/>
</linearGradient>
<linearGradient id="paint8_linear_524_1586" x1="166.066" y1="332.366" x2="148.006" y2="396.451" gradientUnits="userSpaceOnUse">
<stop stop-color="#FFFFE0"/>
<stop offset="1" stop-color="#FEFCFF"/>
</linearGradient>
<linearGradient id="paint9_linear_524_1586" x1="167.202" y1="327.022" x2="142.475" y2="414.735" gradientUnits="userSpaceOnUse">
<stop stop-color="#FFFFE0"/>
<stop offset="1" stop-color="#FEFCFF"/>
</linearGradient>
<linearGradient id="paint10_linear_524_1586" x1="168.495" y1="321.075" x2="136.91" y2="433.068" gradientUnits="userSpaceOnUse">
<stop stop-color="#FFFFE0"/>
<stop offset="1" stop-color="#FEFCFF"/>
</linearGradient>
<linearGradient id="paint11_linear_524_1586" x1="169.844" y1="314.765" x2="131.279" y2="451.448" gradientUnits="userSpaceOnUse">
<stop stop-color="#FFFFE0"/>
<stop offset="1" stop-color="#FEFCFF"/>
</linearGradient>
<linearGradient id="paint12_linear_524_1586" x1="171.228" y1="308.179" x2="125.581" y2="469.879" gradientUnits="userSpaceOnUse">
<stop stop-color="#FFFFE0"/>
<stop offset="1" stop-color="#FEFCFF"/>
</linearGradient>
<linearGradient id="paint13_linear_524_1586" x1="172.627" y1="301.399" x2="119.822" y2="488.35" gradientUnits="userSpaceOnUse">
<stop stop-color="#FFFFE0"/>
<stop offset="1" stop-color="#FEFCFF"/>
</linearGradient>
<linearGradient id="paint14_linear_524_1586" x1="174.042" y1="294.43" x2="114.005" y2="506.861" gradientUnits="userSpaceOnUse">
<stop stop-color="#FFFFE0"/>
<stop offset="1" stop-color="#FEFCFF"/>
</linearGradient>
<linearGradient id="paint15_linear_524_1586" x1="175.472" y1="287.321" x2="108.134" y2="525.429" gradientUnits="userSpaceOnUse">
<stop stop-color="#FFFFE0"/>
<stop offset="1" stop-color="#FEFCFF"/>
</linearGradient>
<linearGradient id="paint16_linear_524_1586" x1="176.922" y1="279.982" x2="102.195" y2="544.029" gradientUnits="userSpaceOnUse">
<stop stop-color="#FFFFE0"/>
<stop offset="1" stop-color="#FEFCFF"/>
</linearGradient>
<linearGradient id="paint17_linear_524_1586" x1="178.366" y1="272.577" x2="96.2023" y2="562.682" gradientUnits="userSpaceOnUse">
<stop stop-color="#FFFFE0"/>
<stop offset="1" stop-color="#FEFCFF"/>
</linearGradient>
<linearGradient id="paint18_linear_524_1586" x1="179.851" y1="264.913" x2="90.1444" y2="581.389" gradientUnits="userSpaceOnUse">
<stop stop-color="#FFFFE0"/>
<stop offset="1" stop-color="#FEFCFF"/>
</linearGradient>
<linearGradient id="paint19_linear_524_1586" x1="181.332" y1="257.129" x2="84.0171" y2="600.143" gradientUnits="userSpaceOnUse">
<stop stop-color="#FEFCFF" stop-opacity="0"/>
<stop offset="0.388542" stop-color="#FFFFE0"/>
<stop offset="0.591667" stop-color="#FEFCFF" stop-opacity="0"/>
</linearGradient>
</defs>
</svg>
