<svg width="2320" height="1002" viewBox="0 0 2320 1002" fill="none" xmlns="http://www.w3.org/2000/svg">
<path opacity="0.6" fill-rule="evenodd" clip-rule="evenodd" d="M1539.51 420.393C1551.46 420.188 1561.09 410.436 1561.09 398.435C1561.09 386.307 1551.26 376.475 1539.13 376.475C1528.55 376.475 1519.71 383.953 1517.63 393.911L1524.14 387.408L1524.17 387.376L1524.2 387.344L1526.61 384.934L1526.95 384.784L1524.3 387.435L1524.26 387.467L1524.23 387.499L1517.58 394.143C1517.45 394.791 1517.35 395.448 1517.28 396.115L1525.07 388.332L1525.1 388.3L1525.13 388.268L1529.51 383.891L1529.76 383.824L1525.22 388.361L1525.19 388.393L1525.16 388.425L1517.26 396.322C1517.21 396.901 1517.17 397.487 1517.16 398.079L1525.99 389.259L1526.02 389.227L1526.05 389.195L1531.83 383.418C1531.86 383.414 1531.89 383.41 1531.91 383.406C1531.96 383.4 1532 383.393 1532.05 383.388L1526.15 389.287L1526.11 389.319L1526.08 389.351L1517.16 398.275C1517.16 398.329 1517.16 398.382 1517.16 398.435C1517.16 398.926 1517.18 399.413 1517.21 399.895L1517.65 399.454L1517.68 399.422L1517.72 399.39L1526.92 390.185L1526.95 390.153L1526.98 390.12L1533.86 383.239H1534.05L1527.07 390.213L1527.04 390.245L1527.01 390.277L1517.81 399.477L1517.78 399.509L1517.75 399.542L1517.22 400.07C1517.26 400.574 1517.31 401.074 1517.38 401.568L1518.58 400.375L1518.61 400.343L1518.64 400.311L1527.84 391.111L1527.87 391.079L1527.9 391.047L1535.68 383.273L1535.85 383.284L1528 391.139L1527.97 391.171L1527.93 391.205L1518.73 400.405L1518.7 400.437L1518.67 400.469L1517.41 401.73C1517.48 402.204 1517.56 402.674 1517.67 403.138L1519.5 401.302L1519.53 401.27L1519.57 401.238L1528.77 392.038L1528.8 392.006L1528.83 391.974L1537.35 383.452L1537.51 383.477L1528.92 392.066L1528.89 392.1L1528.86 392.132L1519.66 401.332L1519.63 401.364L1519.59 401.398L1517.7 403.291C1517.8 403.738 1517.92 404.179 1518.04 404.615L1520.43 402.229L1520.46 402.197L1520.49 402.165L1529.69 392.964L1529.73 392.932L1529.76 392.9L1538.9 383.759L1539.04 383.794H1539.05L1529.85 392.993L1529.82 393.026L1529.79 393.058L1520.59 402.257L1520.55 402.289L1520.52 402.322L1518.09 404.758C1518.21 405.181 1518.35 405.598 1518.5 406.009L1521.36 403.155L1521.39 403.123L1521.42 403.091L1530.62 393.891L1530.65 393.859L1530.68 393.826L1539.89 384.626L1539.92 384.594L1539.95 384.562L1540.36 384.16L1540.49 384.206L1540.04 384.656L1540.01 384.688L1539.98 384.72L1530.78 393.919L1530.74 393.952L1530.71 393.984L1521.51 403.183L1521.48 403.216L1521.45 403.242L1518.55 406.14C1518.7 406.541 1518.86 406.937 1519.04 407.327L1522.28 404.081L1522.32 404.049L1522.35 404.017L1531.55 394.817L1531.58 394.785L1531.61 394.753L1540.81 385.553L1540.84 385.52L1540.88 385.488L1541.71 384.658L1541.84 384.711L1540.97 385.581L1540.94 385.613L1540.91 385.646L1531.71 394.845L1531.67 394.877L1531.64 394.909L1522.44 404.109L1522.41 404.141L1522.37 404.176L1519.09 407.456C1519.26 407.835 1519.45 408.209 1519.64 408.576L1523.21 405.008L1523.24 404.976L1523.27 404.944L1532.47 395.744L1532.5 395.712L1532.54 395.68L1541.74 386.484L1541.77 386.452L1541.8 386.42L1542.98 385.242L1543.1 385.303L1541.9 386.508L1541.87 386.54L1541.83 386.572L1532.63 395.772L1532.6 395.804L1532.57 395.836L1523.37 405.036L1523.34 405.068L1523.3 405.1L1519.7 408.698C1519.89 409.061 1520.1 409.418 1520.31 409.768L1524.14 405.934L1524.17 405.902L1524.21 405.87L1533.41 396.67L1533.44 396.638L1533.47 396.606L1542.67 387.408L1542.7 387.375L1542.73 387.343L1544.18 385.892L1544.3 385.962L1542.82 387.434L1542.79 387.466L1542.76 387.499L1533.56 396.698L1533.53 396.73L1533.49 396.763L1524.29 405.962L1524.26 405.994L1524.24 406.024L1520.38 409.884C1520.59 410.226 1520.81 410.562 1521.03 410.892L1525.07 406.861L1525.1 406.829L1525.13 406.797L1534.33 397.597L1534.36 397.565L1534.39 397.533L1543.59 388.333L1543.63 388.301L1543.66 388.269L1545.31 386.619C1545.32 386.628 1545.34 386.638 1545.35 386.648L1545.35 386.648C1545.37 386.663 1545.4 386.678 1545.42 386.695L1543.75 388.361L1543.72 388.393L1543.69 388.426L1534.49 397.625L1534.45 397.657L1534.42 397.689L1525.22 406.889L1525.19 406.921L1525.16 406.955L1521.11 411.002C1521.34 411.326 1521.57 411.644 1521.82 411.956L1525.99 407.781L1526.02 407.749L1526.06 407.717L1535.26 398.517L1535.29 398.485L1535.32 398.453L1544.52 389.259L1544.55 389.227L1544.59 389.195L1546.37 387.409L1546.47 387.492L1544.68 389.287L1544.65 389.319L1544.61 389.351L1535.41 398.551L1535.38 398.583L1535.35 398.615L1526.14 407.815L1526.11 407.848L1526.08 407.875L1521.9 412.06C1522.14 412.371 1522.4 412.675 1522.66 412.972L1526.92 408.713L1526.95 408.681L1526.98 408.649L1536.18 399.454L1536.21 399.422L1536.25 399.39L1545.45 390.185L1545.48 390.153L1545.51 390.121L1547.37 388.266L1547.46 388.355L1545.61 390.213L1545.58 390.245L1545.55 390.278L1536.35 399.477L1536.31 399.509L1536.28 399.543L1527.08 408.742L1527.05 408.775L1527.02 408.807L1522.75 413.071C1523.01 413.363 1523.28 413.647 1523.56 413.925L1527.84 409.641L1527.87 409.609L1527.9 409.575L1537.1 400.376L1537.14 400.344L1537.17 400.311L1546.37 391.112L1546.4 391.08L1546.43 391.048L1548.3 389.187L1548.38 389.283L1546.53 391.14L1546.5 391.172L1546.46 391.205L1537.26 400.405L1537.23 400.437L1537.2 400.469L1528 409.669L1527.96 409.701L1527.93 409.733L1523.65 414.017C1523.93 414.294 1524.21 414.564 1524.51 414.826L1528.77 410.563L1528.8 410.531L1528.83 410.499L1538.03 401.301L1538.07 401.269L1538.1 401.237L1547.3 392.037L1547.33 392.005L1547.36 391.973L1549.17 390.168L1549.2 390.206C1549.22 390.228 1549.24 390.25 1549.25 390.271L1547.46 392.065L1547.43 392.099L1547.4 392.131L1538.19 401.333L1538.16 401.365L1538.13 401.397L1528.93 410.592L1528.89 410.624L1528.86 410.656L1524.6 414.913C1524.9 415.174 1525.2 415.427 1525.51 415.672L1529.7 411.492L1529.73 411.46L1529.76 411.428L1538.96 402.228L1538.99 402.196L1539.03 402.164L1548.23 392.963L1548.26 392.931L1548.29 392.898L1549.97 391.217L1550.05 391.326L1548.38 392.992L1548.35 393.024L1548.32 393.056L1539.12 402.256L1539.08 402.288L1539.05 402.32L1529.85 411.52L1529.82 411.552L1529.79 411.584L1525.62 415.753C1525.93 415.998 1526.25 416.234 1526.58 416.462L1530.62 412.419L1530.65 412.386L1530.69 412.354L1539.89 403.155L1539.92 403.123L1539.95 403.09L1549.15 393.891L1549.18 393.859L1549.22 393.825L1550.71 392.327L1550.78 392.442L1549.31 393.915L1549.28 393.947L1549.24 393.979L1540.04 403.179L1540.01 403.211L1539.98 403.243L1530.78 412.443L1530.75 412.475L1530.71 412.507L1526.69 416.537C1527.02 416.765 1527.36 416.985 1527.7 417.195L1531.55 413.346L1531.58 413.314L1531.61 413.282L1540.82 404.082L1540.85 404.05L1540.88 404.018L1550.08 394.818L1550.11 394.786L1550.14 394.762L1551.38 393.526L1551.44 393.648L1550.24 394.853L1550.2 394.885L1550.17 394.917L1540.97 404.117L1540.94 404.149L1540.91 404.181L1531.71 413.381L1531.68 413.413L1531.64 413.445L1527.82 417.266C1528.16 417.475 1528.52 417.674 1528.88 417.864L1532.47 414.271L1532.5 414.239L1532.53 414.207L1541.74 405.007L1541.77 404.975L1541.8 404.943L1551 395.743L1551.03 395.711L1551.07 395.675L1551.97 394.771L1551.98 394.788L1551.98 394.789L1551.98 394.789C1552 394.829 1552.01 394.868 1552.03 394.905L1551.16 395.771L1551.13 395.803L1551.1 395.835L1541.9 405.035L1541.87 405.067L1541.83 405.099L1532.63 414.299L1532.6 414.331L1532.57 414.363L1529 417.93C1529.37 418.122 1529.75 418.304 1530.13 418.476L1533.41 415.197L1533.44 415.165L1533.47 415.133L1542.67 405.933L1542.7 405.901L1542.73 405.869L1551.93 396.669L1551.97 396.637L1551.99 396.615L1552.48 396.123C1552.5 396.153 1552.51 396.185 1552.52 396.219L1552.52 396.219L1552.53 396.257L1552.08 396.702L1552.05 396.734L1552.02 396.766L1542.82 405.966L1542.79 405.998L1542.76 406.03L1533.55 415.229L1533.52 415.263L1533.49 415.295L1530.25 418.531C1530.64 418.703 1531.04 418.864 1531.44 419.014L1534.33 416.124L1534.36 416.092L1534.4 416.059L1543.6 406.86L1543.63 406.828L1543.66 406.796L1552.86 397.596L1552.9 397.57L1552.92 397.549C1552.92 397.553 1552.92 397.556 1552.92 397.56L1552.92 397.565L1552.92 397.565C1552.93 397.579 1552.93 397.592 1552.93 397.607L1552.95 397.691L1543.75 406.888L1543.72 406.92L1543.69 406.954L1534.49 416.153L1534.46 416.185L1534.42 416.217L1531.58 419.064C1531.99 419.215 1532.4 419.353 1532.82 419.479L1535.25 417.05L1535.29 417.018L1535.32 416.986L1544.52 407.787L1544.55 407.754L1544.58 407.722L1553.23 399.073L1553.24 399.094L1553.24 399.094C1553.24 399.14 1553.25 399.186 1553.26 399.232L1544.67 407.815L1544.64 407.848L1544.61 407.88L1535.41 417.08L1535.38 417.112L1535.35 417.144L1532.97 419.521C1533.4 419.649 1533.85 419.763 1534.29 419.863L1536.18 417.978L1536.21 417.946L1536.25 417.913L1545.45 408.712L1545.48 408.68L1545.51 408.648L1553.44 400.72L1553.44 400.747L1553.44 400.763C1553.45 400.806 1553.45 400.85 1553.45 400.893L1545.6 408.742L1545.57 408.774L1545.54 408.806L1536.34 418.006L1536.31 418.038L1536.27 418.07L1534.45 419.897C1534.91 419.997 1535.38 420.084 1535.86 420.154L1537.11 418.904L1537.14 418.872L1537.17 418.84L1546.37 409.64L1546.4 409.608L1546.43 409.585L1553.49 402.526V402.713L1546.53 409.673L1546.49 409.705L1546.46 409.738L1537.26 418.937L1537.23 418.969L1537.2 419.002L1536.02 420.178C1536.52 420.249 1537.02 420.302 1537.53 420.339L1538.04 419.83L1538.07 419.798L1538.1 419.766L1547.3 410.566L1547.33 410.534L1547.37 410.499L1553.38 404.495L1553.35 404.705L1547.46 410.594L1547.43 410.626L1547.4 410.659L1538.2 419.856L1538.16 419.888L1538.13 419.92L1537.7 420.351C1538.17 420.381 1538.65 420.396 1539.13 420.396C1539.19 420.396 1539.26 420.396 1539.32 420.395L1548.23 411.493L1548.26 411.461L1548.29 411.426L1552.97 406.751L1552.96 406.785L1552.95 406.832C1552.93 406.887 1552.92 406.942 1552.91 406.996L1548.38 411.518L1548.35 411.551L1548.32 411.583L1539.51 420.393ZM1549.19 412.386L1549.15 412.418L1541.72 419.853L1542.04 419.719L1549.25 412.507L1549.28 412.475L1549.31 412.442L1551.94 409.815C1551.98 409.708 1552.03 409.601 1552.07 409.494L1549.22 412.35L1549.19 412.386ZM1520.27 389.603L1521.83 388.054C1521.28 388.541 1520.76 389.058 1520.27 389.603ZM1548.53 415.08L1547.3 416.311C1546.92 416.655 1546.53 416.983 1546.13 417.296L1549.52 413.91C1549.2 414.313 1548.88 414.703 1548.53 415.08Z" fill="url(#paint0_radial_522_1760)"/>
<path opacity="0.5" d="M1053.71 596.282C1006.42 596.282 968.091 557.95 968.091 510.664C968.091 463.378 1006.42 425.046 1053.71 425.046C1100.99 425.046 1139.33 463.378 1139.33 510.664C1139.33 557.95 1100.99 596.282 1053.71 596.282Z" fill="url(#paint1_radial_522_1760)"/>
<path opacity="0.6" fill-rule="evenodd" clip-rule="evenodd" d="M1307.76 596.318C1280.89 595.848 1259.25 573.918 1259.25 546.934C1259.25 519.656 1281.36 497.543 1308.65 497.543C1332.45 497.543 1352.32 514.371 1357 536.776L1342.34 522.134L1342.27 522.062L1342.19 521.989L1336.77 516.571L1336.03 516.233L1341.99 522.194L1342.06 522.266L1342.15 522.339L1357.11 537.299C1357.4 538.754 1357.62 540.231 1357.78 541.729L1340.26 524.214L1340.18 524.141L1340.11 524.069L1330.27 514.225L1329.7 514.075L1339.9 524.277L1339.98 524.349L1340.05 524.421L1357.82 542.193C1357.95 543.498 1358.02 544.818 1358.04 546.151L1338.17 526.298L1338.1 526.226L1338.03 526.153L1325.04 513.16C1325 513.156 1324.97 513.151 1324.93 513.146L1324.85 513.134L1324.85 513.134L1324.85 513.134L1324.85 513.134L1324.85 513.134L1324.85 513.134C1324.75 513.12 1324.65 513.105 1324.55 513.094L1337.82 526.361L1337.89 526.433L1337.97 526.506L1358.05 546.592C1358.05 546.706 1358.05 546.82 1358.05 546.934C1358.05 548.043 1358.01 549.144 1357.94 550.235L1356.93 549.227L1356.86 549.155L1356.78 549.083L1336.09 528.38L1336.02 528.308L1335.95 528.236L1320.48 512.759H1320.05L1335.74 528.443L1335.81 528.516L1335.88 528.588L1356.58 549.279L1356.65 549.351L1356.71 549.426L1357.91 550.628C1357.83 551.763 1357.7 552.887 1357.55 553.999L1354.84 551.299L1354.77 551.227L1354.7 551.154L1334.01 530.464L1333.94 530.392L1333.86 530.319L1316.38 512.835L1315.99 512.859L1333.66 530.527L1333.73 530.599L1333.8 530.675L1354.49 551.365L1354.56 551.437L1354.64 551.51L1357.49 554.363C1357.33 555.429 1357.14 556.485 1356.91 557.528L1352.76 553.382L1352.69 553.31L1352.62 553.238L1331.93 532.547L1331.85 532.475L1331.78 532.402L1312.62 513.235L1312.25 513.292L1331.57 532.61L1331.65 532.685L1331.72 532.758L1352.41 553.448L1352.48 553.521L1352.56 553.599L1356.83 557.871C1356.6 558.876 1356.35 559.869 1356.06 560.849L1350.68 555.468L1350.6 555.396L1350.53 555.324L1329.84 534.63L1329.77 534.558L1329.69 534.486L1309.13 513.927L1308.81 514.006H1308.79L1329.48 534.696L1329.56 534.769L1329.63 534.841L1350.32 555.532L1350.4 555.604L1350.47 555.676L1355.96 561.172C1355.68 562.123 1355.36 563.062 1355.02 563.988L1348.59 557.551L1348.51 557.479L1348.44 557.407L1327.76 536.716L1327.69 536.644L1327.61 536.569L1306.91 515.878L1306.83 515.806L1306.76 515.733L1305.86 514.83L1305.56 514.933L1306.57 515.944L1306.64 516.016L1306.71 516.089L1327.4 536.779L1327.47 536.852L1327.55 536.924L1348.24 557.614L1348.32 557.687L1348.38 557.747L1354.91 564.282C1354.58 565.183 1354.21 566.071 1353.82 566.947L1346.51 559.635L1346.44 559.563L1346.36 559.49L1325.67 538.8L1325.6 538.727L1325.53 538.655L1304.83 517.965L1304.76 517.889L1304.69 517.817L1302.82 515.951L1302.52 516.071L1304.48 518.028L1304.55 518.1L1304.62 518.172L1325.32 538.863L1325.39 538.935L1325.46 539.007L1346.15 559.698L1346.23 559.77L1346.3 559.849L1353.69 567.237C1353.31 568.087 1352.9 568.925 1352.47 569.749L1344.44 561.717L1344.37 561.645L1344.29 561.572L1323.6 540.882L1323.53 540.809L1323.45 540.737L1302.76 520.056L1302.69 519.983L1302.62 519.911L1299.97 517.262L1299.69 517.4L1302.4 520.11L1302.47 520.182L1302.54 520.254L1323.24 540.945L1323.31 541.017L1323.38 541.089L1344.07 561.78L1344.15 561.852L1344.23 561.925L1352.33 570.024C1351.89 570.841 1351.44 571.644 1350.96 572.433L1342.33 563.802L1342.26 563.729L1342.18 563.657L1321.49 542.966L1321.42 542.894L1321.35 542.822L1300.67 522.134L1300.6 522.062L1300.52 521.99L1297.27 518.726L1297 518.883L1300.32 522.194L1300.39 522.267L1300.46 522.339L1321.15 543.03L1321.23 543.102L1321.3 543.174L1341.99 563.865L1342.06 563.937L1342.11 564.003L1350.8 572.693C1350.33 573.462 1349.84 574.217 1349.33 574.957L1340.26 565.884L1340.18 565.812L1340.11 565.74L1319.42 545.049L1319.35 544.977L1319.28 544.904L1298.58 524.214L1298.51 524.141L1298.44 524.069L1294.73 520.357L1294.7 520.377C1294.68 520.392 1294.65 520.407 1294.63 520.422L1294.63 520.423L1294.63 520.423C1294.58 520.457 1294.53 520.492 1294.48 520.529L1298.23 524.277L1298.3 524.349L1298.37 524.421L1319.07 545.112L1319.14 545.184L1319.21 545.257L1339.9 565.947L1339.98 566.02L1340.05 566.095L1349.16 575.204C1348.65 575.934 1348.12 576.65 1347.57 577.35L1338.17 567.955L1338.1 567.883L1338.03 567.811L1317.34 547.12L1317.27 547.048L1317.19 546.975L1296.5 526.297L1296.43 526.225L1296.36 526.152L1292.34 522.136L1292.11 522.323L1296.15 526.36L1296.22 526.432L1296.29 526.505L1316.99 547.195L1317.06 547.267L1317.13 547.34L1337.83 568.03L1337.9 568.106L1337.97 568.166L1347.39 577.583C1346.83 578.283 1346.26 578.968 1345.67 579.636L1336.09 570.05L1336.02 569.978L1335.95 569.905L1315.25 549.227L1315.18 549.154L1315.11 549.082L1294.42 528.379L1294.34 528.307L1294.27 528.235L1290.1 524.062L1289.88 524.264L1294.05 528.443L1294.12 528.515L1294.19 528.587L1314.89 549.278L1314.96 549.35L1315.03 549.425L1335.72 570.116L1335.8 570.188L1335.87 570.26L1345.47 579.858C1344.88 580.516 1344.28 581.158 1343.65 581.783L1334.01 572.137L1333.93 572.065L1333.86 571.989L1313.17 551.299L1313.1 551.227L1313.03 551.154L1292.33 530.464L1292.26 530.391L1292.19 530.319L1288 526.135L1287.8 526.351L1291.98 530.527L1292.05 530.599L1292.12 530.674L1312.82 551.365L1312.89 551.437L1312.96 551.509L1333.65 572.2L1333.73 572.272L1333.8 572.345L1343.45 581.99C1342.82 582.612 1342.18 583.217 1341.52 583.805L1331.93 574.215L1331.85 574.142L1331.78 574.07L1311.09 553.382L1311.02 553.31L1310.94 553.238L1290.25 532.547L1290.18 532.475L1290.11 532.403L1286.04 528.345C1286.02 528.372 1286 528.4 1285.98 528.428L1285.97 528.428C1285.94 528.479 1285.9 528.528 1285.86 528.576L1289.89 532.61L1289.96 532.686L1290.03 532.758L1310.74 553.455L1310.81 553.527L1310.88 553.599L1331.57 574.278L1331.65 574.35L1331.72 574.422L1341.3 584C1340.63 584.588 1339.95 585.158 1339.25 585.709L1329.84 576.304L1329.77 576.231L1329.7 576.159L1309 555.469L1308.93 555.396L1308.86 555.324L1288.16 534.63L1288.09 534.558L1288.02 534.486L1284.24 530.705L1284.06 530.949L1287.81 534.697L1287.88 534.769L1287.95 534.841L1308.65 555.532L1308.73 555.604L1308.8 555.676L1329.49 576.367L1329.57 576.439L1329.64 576.511L1339.02 585.891C1338.31 586.441 1337.59 586.973 1336.86 587.485L1327.76 578.386L1327.69 578.314L1327.61 578.242L1306.92 557.551L1306.85 557.479L1306.78 557.407L1286.08 536.716L1286.01 536.644L1285.94 536.568L1282.58 533.2L1282.42 533.459L1285.73 536.77L1285.8 536.842L1285.87 536.915L1306.57 557.605L1306.64 557.677L1306.71 557.75L1327.4 578.44L1327.47 578.513L1327.55 578.585L1336.61 587.654C1335.87 588.166 1335.11 588.659 1334.33 589.131L1325.67 580.47L1325.6 580.398L1325.53 580.326L1304.83 559.635L1304.76 559.563L1304.69 559.491L1284 538.8L1283.92 538.728L1283.85 538.673L1281.08 535.895L1280.93 536.169L1283.64 538.878L1283.72 538.95L1283.79 539.023L1304.48 559.713L1304.55 559.786L1304.63 559.858L1325.32 580.548L1325.39 580.621L1325.46 580.693L1334.07 589.291C1333.29 589.762 1332.49 590.212 1331.68 590.64L1323.6 582.553L1323.52 582.481L1323.45 582.409L1302.75 561.718L1302.68 561.646L1302.61 561.573L1281.91 540.883L1281.84 540.81L1281.76 540.729L1279.73 538.697L1279.71 538.736L1279.71 538.736C1279.68 538.827 1279.64 538.914 1279.6 538.998L1281.55 540.946L1281.62 541.018L1281.7 541.09L1302.39 561.781L1302.46 561.853L1302.53 561.926L1323.23 582.616L1323.3 582.689L1323.37 582.761L1331.4 590.787C1330.57 591.218 1329.73 591.626 1328.87 592.011L1321.49 584.637L1321.42 584.565L1321.35 584.493L1300.67 563.802L1300.6 563.73L1300.52 563.657L1279.83 542.967L1279.76 542.894L1279.7 542.843L1278.59 541.738C1278.57 541.804 1278.54 541.878 1278.52 541.954C1278.51 541.982 1278.5 542.011 1278.49 542.039L1279.49 543.039L1279.56 543.111L1279.64 543.183L1300.33 563.874L1300.4 563.946L1300.47 564.019L1321.17 584.709L1321.24 584.785L1321.31 584.857L1328.59 592.135C1327.71 592.522 1326.83 592.884 1325.92 593.221L1319.42 586.719L1319.35 586.647L1319.28 586.574L1298.58 565.884L1298.51 565.811L1298.44 565.739L1277.75 545.049L1277.67 544.991L1277.62 544.943C1277.62 544.955 1277.61 544.968 1277.61 544.98L1277.61 544.98C1277.6 545.01 1277.59 545.041 1277.59 545.073L1277.54 545.262L1298.23 565.947L1298.3 566.019L1298.38 566.094L1319.07 586.785L1319.14 586.857L1319.21 586.93L1325.62 593.333C1324.69 593.672 1323.75 593.984 1322.8 594.268L1317.34 588.802L1317.26 588.729L1317.19 588.657L1296.5 567.966L1296.43 567.894L1296.35 567.822L1276.9 548.368L1276.89 548.416C1276.87 548.52 1276.85 548.622 1276.84 548.727L1296.15 568.03L1296.22 568.105L1296.29 568.177L1316.98 588.868L1317.06 588.94L1317.13 589.012L1322.48 594.363C1321.5 594.649 1320.5 594.905 1319.5 595.13L1315.25 590.889L1315.18 590.817L1315.11 590.745L1294.42 570.051L1294.34 569.979L1294.27 569.906L1276.44 552.076L1276.44 552.117L1276.43 552.173C1276.42 552.27 1276.41 552.367 1276.41 552.464L1294.07 570.117L1294.14 570.189L1294.21 570.262L1314.9 590.952L1314.98 591.025L1315.05 591.097L1319.16 595.205C1318.11 595.432 1317.05 595.625 1315.98 595.785L1313.17 592.973L1313.1 592.901L1313.03 592.828L1292.33 572.138L1292.26 572.065L1292.21 572.014L1276.33 556.137V556.559L1291.99 572.213L1292.06 572.285L1292.13 572.357L1312.83 593.048L1312.9 593.12L1312.97 593.193L1315.62 595.838C1314.5 595.996 1313.37 596.116 1312.23 596.198L1311.09 595.055L1311.01 594.983L1310.94 594.91L1290.25 574.22L1290.18 574.147L1290.1 574.069L1276.59 560.564L1276.64 561.037L1289.89 574.283L1289.96 574.355L1290.03 574.427L1310.73 595.112L1310.8 595.184L1310.87 595.257L1311.84 596.224C1310.78 596.291 1309.72 596.326 1308.65 596.326C1308.49 596.326 1308.34 596.325 1308.19 596.324L1288.16 576.303L1288.09 576.231L1288.01 576.152L1277.5 565.637C1277.51 565.698 1277.53 565.76 1277.54 565.821C1277.57 565.944 1277.6 566.067 1277.63 566.188L1287.8 576.36L1287.88 576.432L1287.95 576.505L1307.76 596.318ZM1286.01 578.315L1286.08 578.387L1302.8 595.107L1302.08 594.806L1285.87 578.586L1285.8 578.514L1285.73 578.441L1279.82 572.532C1279.71 572.291 1279.61 572.05 1279.52 571.809L1285.94 578.234L1286.01 578.315ZM1351.04 527.07L1347.54 523.587C1348.77 524.68 1349.94 525.843 1351.04 527.07ZM1287.48 584.369L1290.25 587.139C1291.09 587.912 1291.97 588.65 1292.88 589.355L1285.26 581.738C1285.96 582.645 1286.7 583.522 1287.48 584.369Z" fill="url(#paint2_radial_522_1760)"/>
<g style="mix-blend-mode:screen" opacity="0.3">
<path style="mix-blend-mode:screen" opacity="0.7" d="M1679.11 590.896L1678.91 590.641C1666.33 594.645 1650.4 593.771 1632.87 588.101C1616.64 582.71 1600.97 574.504 1586.63 563.873C1571.82 552.953 1558.6 540.335 1545.78 528.153C1534.79 517.704 1523.42 506.893 1511.12 497.162C1441.53 442.115 1337.13 424.002 1273.42 455.99C1270.45 457.484 1267.47 459.113 1264.59 460.682C1253.31 466.867 1241.6 473.205 1226.72 473.609C1213.08 473.982 1198 469.239 1183.14 459.892C1169.81 451.458 1157.94 440.423 1148.36 427.558C1138.78 414.551 1131.62 400.662 1124.7 387.234C1118.83 375.848 1112.77 364.07 1105.24 352.863C1093.25 334.998 1076.79 317.858 1057.64 303.267C1038.03 288.42 1016.68 276.666 994.472 268.498C971.873 260.256 948.755 255.651 926.02 254.863C903.41 254.112 881.885 257.31 863.755 264.143L863.928 264.361C881.994 257.564 903.446 254.338 926.043 255.124C948.732 255.908 971.805 260.503 994.358 268.729C1016.52 276.888 1037.83 288.62 1057.41 303.435C1076.51 317.99 1092.94 335.113 1104.88 352.954C1112.38 364.123 1118.46 375.912 1124.32 387.283C1131.25 400.731 1138.42 414.635 1148.02 427.665C1157.62 440.574 1169.53 451.645 1182.91 460.104C1197.86 469.507 1213.01 474.273 1226.74 473.895C1241.71 473.484 1253.43 467.1 1264.76 460.93C1267.61 459.368 1270.61 457.731 1273.59 456.238C1337.2 424.347 1441.44 442.413 1510.89 497.374C1523.18 507.098 1534.56 517.924 1545.52 528.34C1558.37 540.51 1571.65 553.134 1586.45 564.046C1600.84 574.711 1616.55 582.944 1632.83 588.356C1650.45 594.044 1666.45 594.922 1679.11 590.896Z" fill="url(#paint3_linear_522_1760)"/>
<path style="mix-blend-mode:screen" opacity="0.7" d="M1679.84 589.498L1679.6 589.115C1667.62 591.998 1651.97 590.33 1634.34 584.292C1618.13 578.565 1602.41 570.537 1587.7 560.467C1585.89 559.234 1584.02 557.934 1582.15 556.593C1569.88 547.802 1558.77 538.309 1548.02 529.124C1536.71 519.45 1525.01 509.45 1512.28 500.614C1492.9 487.17 1470.03 476.814 1450.22 468.464C1425.07 457.862 1404.66 450.916 1386 446.588C1357.7 440.046 1330.14 438.471 1306.32 442.054C1296.35 443.472 1286.71 445.912 1277.53 449.339C1272.76 451.151 1268.13 453.325 1263.21 455.631C1258.77 457.703 1254.22 459.831 1249.53 461.686C1243.18 464.34 1236.36 466.035 1229.24 466.728C1216.13 467.805 1202.32 464.646 1188.21 457.34C1175.02 450.472 1162.99 440.901 1153 429.324C1143.62 418.329 1136.37 406.483 1129.36 395.027C1123.18 384.937 1116.79 374.508 1108.92 364.548C1096.8 349.282 1080.57 334.609 1061.91 322.15C1041.22 308.523 1019.11 297.984 996.403 290.921C973.15 283.751 949.597 279.849 926.441 279.33C903.285 278.831 880.881 281.725 861.744 287.777L862.037 288.146C881.112 282.081 903.442 279.184 926.572 279.715C949.669 280.238 973.16 284.133 996.353 291.286C1019 298.329 1041.05 308.838 1061.69 322.428C1080.32 334.836 1096.53 349.43 1108.57 364.667C1116.44 374.59 1122.8 385.018 1128.96 395.079C1136 406.542 1143.24 418.423 1152.65 429.456C1162.7 441.092 1174.8 450.714 1188.07 457.621C1202.1 464.878 1216.4 468.156 1229.46 467.069C1236.62 466.37 1243.49 464.665 1249.88 461.999C1254.57 460.144 1259.14 458.006 1263.55 455.936C1268.47 453.635 1273.1 451.469 1277.86 449.659C1287.01 446.244 1296.62 443.811 1306.56 442.393C1330.31 438.818 1357.8 440.392 1386.02 446.931C1404.65 451.244 1425.02 458.182 1450.12 468.763C1469.87 477.204 1492.71 487.53 1512.01 500.914C1524.72 509.731 1536.4 519.716 1547.69 529.353C1558.45 538.558 1569.58 548.068 1581.85 556.867C1583.73 558.208 1585.6 559.516 1587.41 560.748C1602.19 570.879 1617.98 578.952 1634.27 584.704C1652.03 590.768 1667.79 592.44 1679.84 589.498Z" fill="url(#paint4_linear_522_1760)"/>
<path style="mix-blend-mode:screen" opacity="0.7" d="M1680.6 588.107L1680.33 587.593C1655.06 591.547 1616.45 574.404 1588.78 557.072C1586.94 555.925 1585.05 554.711 1583.14 553.474C1571.41 545.868 1560.92 537.914 1550.78 530.229C1538.43 520.867 1526.77 512.027 1513.44 504.11C1499.25 495.675 1482.58 488.818 1464.9 481.538C1460.03 479.534 1455 477.459 1449.98 475.341C1445.87 473.622 1441.83 471.9 1437.85 470.174C1419.89 462.494 1402.91 455.239 1386.5 450.069C1359.59 441.617 1333.22 437.684 1310.23 438.708C1300.45 438.991 1290.9 440.334 1281.74 442.715C1274.78 444.581 1267.57 447.632 1260.59 450.582C1257.86 451.738 1255.03 452.935 1252.24 454.053C1244.41 457.173 1238.1 458.982 1231.85 459.876C1218.96 461.649 1205.19 459.618 1192.06 454.004C1179.56 448.767 1167.84 440.988 1157.7 431.199C1148.51 422.133 1141.17 412.267 1134.03 402.696C1127.56 394 1120.87 385.007 1112.66 376.376C1100.17 363.243 1083.6 350.726 1064.78 340.181C1044.62 328.861 1021.65 319.681 998.339 313.598C951.698 301.491 901.172 300.801 859.718 311.689L860.039 312.197C901.386 301.329 951.78 302.023 998.303 314.098C1021.54 320.145 1044.44 329.299 1064.54 340.586C1083.28 351.09 1099.77 363.546 1112.21 376.619C1120.38 385.222 1127.06 394.187 1133.49 402.837C1140.63 412.426 1148 422.325 1157.24 431.439C1167.45 441.323 1179.26 449.183 1191.87 454.482C1205.14 460.148 1219.04 462.199 1232.07 460.412C1238.39 459.519 1244.71 457.712 1252.59 454.561C1255.39 453.446 1258.22 452.249 1260.96 451.088C1267.9 448.154 1275.11 445.103 1282.04 443.25C1291.15 440.868 1300.65 439.529 1310.39 439.255C1333.28 438.242 1359.57 442.145 1386.36 450.597C1402.72 455.745 1419.68 462.994 1437.63 470.671C1441.63 472.381 1445.67 474.101 1449.75 475.83C1454.78 477.956 1459.81 480.027 1464.68 482.03C1482.31 489.287 1498.97 496.141 1513.11 504.553C1526.39 512.455 1538.04 521.277 1550.37 530.624C1560.53 538.324 1571.04 546.271 1582.78 553.904C1584.7 555.149 1586.59 556.358 1588.43 557.505C1616.31 574.888 1655.13 592.101 1680.6 588.107Z" fill="url(#paint5_linear_522_1760)"/>
<path style="mix-blend-mode:screen" opacity="0.7" d="M1681.31 586.617L1681.05 585.977C1652.21 587.817 1603.95 561.618 1589.85 553.547C1587.9 552.438 1585.99 551.333 1584.11 550.231C1573.28 543.892 1563.7 537.539 1554.38 531.418C1541.24 522.688 1528.75 514.466 1514.59 507.496C1504.42 502.499 1492.78 498.255 1480.37 493.82C1470.47 490.258 1460.23 486.578 1449.74 482.128C1438.45 477.35 1427.87 472.29 1417.63 467.392C1406.94 462.271 1396.84 457.44 1387.02 453.461C1361.67 443.189 1336.48 436.88 1314.19 435.237C1305.8 434.619 1296.71 434.157 1285.97 435.936C1276.5 437.508 1266.53 441.552 1256.91 445.46L1254.95 446.254C1248.41 449.075 1241.56 451.285 1234.45 452.86C1222.18 455.381 1208.93 454.574 1195.9 450.511C1184.07 446.832 1172.68 440.816 1162.42 432.831C1153.3 425.603 1146.12 417.911 1138.51 409.771C1131.79 402.612 1124.86 395.188 1116.44 388.01C1103.49 377.053 1086.65 366.698 1067.72 358.037C1047.19 348.62 1023.9 341.046 1000.32 336.137C953.324 326.411 901.42 326.115 857.734 335.474L858.114 336.108C901.654 326.8 953.491 327.037 1000.33 336.761C1023.85 341.644 1047.04 349.21 1067.48 358.583C1086.32 367.192 1103.08 377.504 1115.95 388.377C1124.35 395.5 1131.26 402.894 1137.94 410.057C1145.58 418.222 1152.79 425.945 1161.98 433.219C1172.34 441.292 1183.86 447.376 1195.82 451.097C1209 455.202 1222.41 456.018 1234.83 453.469C1241.97 451.892 1248.86 449.684 1255.44 446.867L1257.39 446.074C1266.99 442.177 1276.92 438.133 1286.31 436.587C1296.97 434.827 1306 435.283 1314.35 435.919C1336.53 437.557 1361.61 443.83 1386.86 454.06C1396.64 458.031 1406.72 462.859 1417.41 467.965C1427.66 472.866 1438.24 477.934 1449.56 482.729C1460.08 487.187 1470.34 490.87 1480.25 494.443C1492.6 498.889 1504.26 503.081 1514.35 508.066C1528.46 515.034 1540.87 523.237 1553.98 531.937C1563.3 538.082 1572.93 544.451 1583.78 550.78C1585.68 551.873 1587.59 552.981 1589.52 554.104C1603.7 562.161 1652.23 588.511 1681.31 586.617Z" fill="url(#paint6_linear_522_1760)"/>
<path style="mix-blend-mode:screen" opacity="0.7" d="M1682.01 585.064L1681.81 584.295C1664.03 583.599 1633.46 572.061 1590.92 549.951L1585.09 546.923C1575.84 542.104 1567.56 537.432 1559.56 532.919C1544.99 524.687 1531.23 516.925 1515.72 510.846C1507.9 507.789 1499.08 505.229 1489.72 502.491C1477.42 498.908 1463.5 494.871 1449.5 488.914C1434.06 482.378 1420.54 474.849 1407.49 467.589C1400.54 463.724 1393.98 460.083 1387.55 456.851C1363.71 444.811 1339.73 436.127 1318.19 431.734C1310.32 430.128 1301.41 428.305 1290.25 429.104C1279.69 429.819 1268.37 434.01 1257.68 438.399C1251.03 441.305 1244.14 443.773 1237.06 445.792C1225.32 448.984 1212.58 449.375 1199.71 446.939C1188.54 444.752 1177.49 440.514 1167.12 434.437C1157.96 428.964 1150.52 422.935 1142.65 416.555C1135.43 410.511 1127.92 404.874 1120.16 399.677C1106.76 390.939 1089.6 382.717 1070.61 375.973C1048.05 368.065 1025.17 362.306 1002.29 358.776C955.16 351.369 901.745 351.589 855.733 359.361L856.136 360.115C902.076 352.397 955.365 352.187 1002.38 359.558C1025.18 363.082 1047.98 368.822 1070.47 376.7C1089.39 383.44 1106.42 391.585 1119.74 400.267C1127.45 405.439 1134.93 411.048 1142.11 417.063C1150.02 423.471 1157.49 429.525 1166.76 435.035C1177.26 441.187 1188.46 445.479 1199.78 447.696C1212.8 450.147 1225.7 449.737 1237.58 446.495C1244.7 444.467 1251.61 441.984 1258.3 439.061C1268.93 434.703 1280.2 430.565 1290.61 429.83C1301.62 429.048 1310.45 430.848 1318.24 432.438C1339.69 436.837 1363.56 445.484 1387.26 457.432C1393.65 460.674 1400.2 464.308 1407.13 468.162C1420.19 475.467 1433.77 482.97 1449.28 489.559C1463.35 495.524 1477.31 499.597 1489.65 503.188C1498.97 505.906 1507.78 508.468 1515.55 511.514C1530.97 517.554 1544.68 525.301 1559.21 533.5C1567.22 538.021 1575.5 542.7 1584.78 547.524L1590.62 550.56C1633.3 572.77 1664.06 584.38 1682.01 585.064Z" fill="url(#paint7_linear_522_1760)"/>
<path style="mix-blend-mode:screen" opacity="0.7" d="M1682.68 583.445L1682.6 582.569C1662.75 579.539 1627.41 562.937 1598.97 549.546L1592 546.291C1590.01 545.364 1588.02 544.433 1586.04 543.496C1579.71 540.594 1573.89 537.842 1568.25 535.175C1550.23 526.639 1534.67 519.267 1516.82 514.126C1510.65 512.355 1503.84 510.876 1496.59 509.335C1482.23 506.25 1465.96 502.755 1449.24 495.64C1430.81 487.806 1415.13 477.593 1401.36 468.628C1396.74 465.625 1392.39 462.79 1388.11 460.148C1365.91 446.485 1343.12 435.368 1322.27 428.099L1321.76 427.921C1313.83 425.146 1305.62 422.287 1294.58 422.105C1285.37 421.944 1274.21 424.652 1260.43 430.37L1256.24 432.124C1250.58 434.509 1245.24 436.762 1239.71 438.587C1227.46 442.572 1215.3 444.165 1203.58 443.344C1192.98 442.609 1182.26 440.14 1171.84 436.028C1162.35 432.245 1154.39 427.746 1145.98 423.008C1139.22 419.203 1132.24 415.263 1123.92 411.376C1109.98 404.876 1092.57 398.878 1073.55 393.978C1050.5 388.127 1027.36 383.961 1004.31 381.515C957.386 376.449 902.513 377.118 853.768 383.351L854.199 384.245C902.86 378.026 957.627 377.353 1004.46 382.405C1027.44 384.844 1050.52 389 1073.5 394.838C1092.43 399.711 1109.75 405.693 1123.63 412.115C1131.89 415.971 1138.84 419.898 1145.57 423.689C1154.03 428.459 1162.02 432.963 1171.6 436.81C1182.17 440.984 1193.04 443.491 1203.78 444.235C1215.68 445.062 1227.94 443.477 1240.32 439.431C1245.91 437.624 1251.27 435.357 1256.94 432.962L1261.12 431.212C1274.77 425.543 1285.8 422.863 1294.85 423.017C1305.67 423.196 1313.77 426.023 1321.59 428.756L1322.1 428.922C1342.84 436.166 1365.52 447.217 1387.63 460.829C1391.89 463.461 1396.24 466.287 1400.84 469.288C1414.7 478.301 1430.41 488.548 1448.97 496.441C1465.83 503.606 1482.18 507.123 1496.6 510.216C1503.81 511.766 1510.61 513.225 1516.73 514.985C1534.46 520.087 1549.97 527.436 1567.92 535.925C1573.56 538.6 1579.39 541.365 1585.72 544.262C1587.66 545.154 1589.64 546.071 1591.65 547.011L1598.61 550.271C1627.15 563.708 1662.63 580.39 1682.68 583.445Z" fill="url(#paint8_linear_522_1760)"/>
<path style="mix-blend-mode:screen" opacity="0.7" d="M1683.41 580.788C1670.21 577.091 1649.33 567.64 1627.22 557.633C1615.69 552.408 1603.73 546.99 1593.07 542.527C1590.99 541.659 1588.97 540.833 1587.01 540.051L1586.84 539.983C1559.02 528.891 1540.63 521.564 1517.95 517.43C1513.13 516.549 1507.91 515.856 1502.4 515.123C1486.36 512.983 1468.17 510.574 1449.02 502.405C1428.18 493.526 1411.79 481.029 1397.33 469.997C1394.34 467.716 1391.51 465.565 1388.72 463.49C1368.85 448.731 1347.99 435.678 1326.41 424.501L1325.44 424.014C1317.97 420.185 1310.25 416.219 1298.97 415.118C1286.54 413.917 1272.69 418.381 1263.24 422.352C1260.22 423.617 1257.27 424.928 1254.42 426.198C1250.27 428.039 1246.36 429.784 1242.36 431.352C1229.9 436.229 1218.47 438.959 1207.43 439.687C1197.32 440.351 1186.94 439.637 1176.54 437.562C1165.92 435.464 1156.78 432.398 1147.06 429.206C1141.05 427.209 1134.84 425.151 1127.69 423.105C1110.69 418.389 1093.6 414.697 1076.52 412.051C1053.06 408.269 1029.63 405.678 1006.33 404.287C959.836 401.498 904.952 402.601 851.785 407.384L852.231 408.404C905.311 403.59 960.169 402.506 1006.56 405.307C1029.8 406.68 1053.16 409.248 1076.56 413.002C1093.57 415.636 1110.59 419.311 1127.53 424.008C1134.67 426.077 1140.87 428.132 1146.87 430.134C1156.63 433.372 1165.84 436.429 1176.53 438.573C1187.07 440.665 1197.59 441.384 1207.83 440.712C1219 439.97 1230.53 437.219 1243.1 432.288C1247.17 430.716 1251.08 428.966 1255.19 427.067C1258.04 425.797 1260.99 424.491 1264 423.231C1273.32 419.308 1286.99 414.882 1299.16 416.109C1310.12 417.173 1317.7 421.057 1325.02 424.816L1325.99 425.303C1347.47 436.445 1368.23 449.448 1388.02 464.144C1390.81 466.224 1393.63 468.375 1396.62 470.648C1411.16 481.742 1427.64 494.315 1448.67 503.298C1468.04 511.558 1486.36 513.972 1502.5 516.138C1507.99 516.866 1513.18 517.561 1517.96 518.426C1540.54 522.556 1558.83 529.84 1586.57 540.892L1586.73 540.96C1588.71 541.743 1590.72 542.561 1592.75 543.415C1603.41 547.876 1615.33 553.275 1626.87 558.496C1649.07 568.572 1669.98 578.011 1683.31 581.742L1683.41 580.788Z" fill="url(#paint9_linear_522_1760)"/>
<path style="mix-blend-mode:screen" opacity="0.7" d="M1684.28 578.95C1677.48 576.071 1668.18 571.674 1657.42 566.574C1638.14 557.454 1614.14 546.103 1594.13 538.686C1591.98 537.863 1589.94 537.166 1587.96 536.494C1558.63 526.523 1539.94 522.226 1519.03 520.647C1515.47 520.38 1511.72 520.21 1507.74 520.025C1491.02 519.217 1470.28 518.297 1448.78 509.107C1425.83 499.315 1409.2 484.477 1394.52 471.397C1392.75 469.81 1390.99 468.279 1389.31 466.762C1370.54 450.284 1350.93 434.923 1330.61 420.781L1329.61 420.078C1322.51 415.096 1315.11 409.969 1303.39 407.941C1289.31 405.496 1273.95 410.768 1266.04 414.122C1261.35 416.113 1256.88 418.272 1252.57 420.352C1250.03 421.579 1247.53 422.79 1245.04 423.937C1232.2 429.846 1221.16 433.76 1211.29 435.9C1201.56 437.964 1191.48 439.011 1181.19 439.025C1167.14 439.126 1155.45 437.701 1140.64 435.866C1137.69 435.501 1134.62 435.129 1131.38 434.745C1114.86 432.825 1097.38 431.253 1079.43 430.067C1056.01 428.465 1032.1 427.469 1008.37 427.126C965.362 426.56 913.489 427.966 849.826 431.499L850.276 432.643C913.919 429.137 965.742 427.708 1008.71 428.279C1032.45 428.667 1056.3 429.611 1079.68 431.213C1097.61 432.393 1115.07 433.968 1131.53 435.903C1134.77 436.284 1137.83 436.656 1140.79 437.015C1155.65 438.841 1167.4 440.285 1181.56 440.188C1191.94 440.175 1202.12 439.115 1211.95 437.024C1221.91 434.873 1233.02 430.93 1245.93 424.992C1248.43 423.839 1250.93 422.629 1253.47 421.396C1257.79 419.344 1262.23 417.198 1266.91 415.183C1274.68 411.884 1289.76 406.703 1303.46 409.08C1314.75 411.034 1321.93 416.039 1328.87 420.885L1329.88 421.583C1350.14 435.685 1369.69 451.001 1388.39 467.43C1390.1 468.933 1391.85 470.463 1393.61 472.065C1408.4 485.252 1425.16 500.201 1448.41 510.121C1470.24 519.444 1491.19 520.415 1508.02 521.189C1511.99 521.38 1515.73 521.554 1519.27 521.816C1540.02 523.38 1558.58 527.647 1587.75 537.566C1589.69 538.224 1591.75 538.957 1593.85 539.731C1613.82 547.1 1637.75 558.443 1656.99 567.549C1667.78 572.654 1677.08 577.047 1683.91 579.969L1684.28 578.95Z" fill="url(#paint10_linear_522_1760)"/>
<path style="mix-blend-mode:screen" opacity="0.7" d="M1685.16 577.098C1666.55 566.173 1626.66 544.96 1595.19 534.783C1593.04 534.087 1590.96 533.425 1588.92 532.88C1559.1 524.419 1540.47 523.172 1520.12 523.862C1517.85 523.941 1515.48 524.051 1513.02 524.168C1494.95 525.009 1472.47 526.057 1448.54 515.82C1423.66 505.163 1406.41 487.208 1392.54 472.766L1389.92 470.033C1373.44 452.99 1355.92 436.136 1334.83 417.047L1334.02 416.3C1327.51 410.4 1320.15 403.717 1307.86 400.722C1296.89 398.055 1282.69 399.922 1268.9 405.823C1262.39 408.617 1256.48 411.783 1250.77 414.842L1247.76 416.459C1235.04 423.226 1224.64 428.473 1215.21 432.061C1205.76 435.609 1195.96 438.434 1185.88 440.517C1170.19 443.898 1156.43 445.515 1135.11 446.479C1120.9 447.155 1103.72 447.614 1083.84 448.161L1068.11 448.536C1050.69 448.949 1030.94 449.416 1010.41 450.048C990.654 450.687 970.37 451.474 948.886 452.309C915.378 453.605 880.703 454.964 847.845 455.693L848.298 456.974C881.189 456.22 915.864 454.862 949.365 453.583C970.842 452.753 991.107 451.981 1010.87 451.331C1031.37 450.717 1051.14 450.23 1068.56 449.815L1084.3 449.437C1104.19 448.898 1121.34 448.395 1135.6 447.756C1157.01 446.791 1170.84 445.164 1186.63 441.759C1196.75 439.665 1206.6 436.833 1216.1 433.283C1225.58 429.667 1236.03 424.406 1248.76 417.634L1251.78 416.015C1257.45 412.945 1263.35 409.809 1269.82 407.038C1283.35 401.233 1297.18 399.384 1307.76 401.98C1319.49 404.848 1326.34 411.046 1332.95 417.046L1333.77 417.793C1354.83 436.857 1372.3 453.661 1388.75 470.681L1391.38 473.415C1405.38 488 1422.84 506.17 1448.08 516.97C1472.46 527.398 1495.19 526.345 1513.45 525.494C1515.89 525.375 1518.25 525.269 1520.54 525.173C1540.76 524.456 1559.21 525.707 1588.78 534.097C1590.75 534.654 1592.86 535.271 1594.96 535.976C1626.24 546.087 1665.98 567.189 1684.49 578.088L1685.16 577.098Z" fill="url(#paint11_linear_522_1760)"/>
<path style="mix-blend-mode:screen" opacity="0.7" d="M1686.07 575.189C1669.62 562.469 1629.27 539.95 1596.25 530.787C1594.08 530.175 1591.93 529.637 1589.86 529.169C1559.8 522.355 1540.21 524.258 1521.2 527.031L1518.55 527.42C1500.12 530.145 1474.9 533.872 1448.31 522.48C1421.73 511.087 1404.73 490.498 1391.14 473.984L1390.52 473.214C1374.2 453.416 1358.43 435.362 1344.53 419.415L1338.53 412.537C1332.32 405.419 1325.3 397.353 1312.37 393.36C1300.94 389.814 1285.76 391.338 1271.73 397.398C1264.34 400.739 1257.23 404.568 1250.44 408.863C1245.48 411.879 1240.96 414.729 1236.58 417.495C1230.39 421.409 1224.54 425.097 1219.11 428.154C1208.86 433.92 1198.97 438.34 1190.66 441.902C1174.27 449.153 1156.94 454.601 1138.9 458.166C1124.8 461.052 1107.29 463.712 1085.38 466.292C1065.54 468.625 1041.66 470.788 1012.49 473.014C947.317 478.037 892.796 480.272 845.901 479.928L846.333 481.342C893.285 481.679 947.826 479.416 1013.07 474.409C1042.31 472.21 1066.17 470.023 1086.03 467.734C1107.99 465.14 1125.53 462.447 1139.7 459.582C1157.84 456.001 1175.28 450.538 1191.77 443.269C1200.11 439.688 1210.04 435.251 1220.34 429.458C1225.78 426.385 1231.65 422.687 1237.86 418.763C1242.23 416.01 1246.76 413.155 1251.7 410.154C1258.44 405.883 1265.49 402.078 1272.83 398.758C1286.51 392.845 1301.22 391.342 1312.2 394.74C1324.47 398.528 1330.97 405.991 1337.25 413.209L1343.26 420.094C1357.16 436.016 1372.93 454.062 1389.22 473.848L1389.83 474.617C1403.59 491.339 1420.71 512.082 1447.91 523.765C1475.1 535.448 1500.64 531.641 1519.3 528.838L1521.95 528.454C1540.8 525.692 1560.14 523.796 1589.91 530.539C1591.94 530.999 1594.05 531.534 1596.18 532.125C1628.82 541.176 1668.8 563.487 1685.09 576.09L1686.07 575.189Z" fill="url(#paint12_linear_522_1760)"/>
<path style="mix-blend-mode:screen" opacity="0.7" d="M1686.96 573.231C1670.94 557.357 1630.2 534.362 1597.29 526.702C1595.09 526.185 1592.9 525.742 1590.79 525.381C1560.64 520.161 1541.14 525.242 1522.27 530.165C1505.57 534.521 1477.6 541.784 1448.07 529.118C1419.67 516.931 1403.19 493.52 1391.14 476.423C1382.86 464.696 1374.82 453.475 1367.05 442.632C1358.64 430.902 1350.7 419.83 1343.33 409.303L1343.04 408.94C1337.16 400.545 1330.5 391.028 1316.88 385.974C1304.86 381.48 1289.04 382.618 1274.57 388.931C1267 392.372 1259.84 396.49 1253.14 401.243C1244.9 406.892 1237.75 412.589 1231.45 417.621C1228.52 419.958 1225.74 422.162 1223.01 424.259C1213.36 431.642 1204.05 437.81 1195.42 443.369C1178.98 453.964 1163.72 462.547 1142.65 469.995C1127.84 475.255 1109.58 480.153 1088.32 484.571C1067.07 488.989 1042.31 492.785 1014.53 496.081C972.737 501.09 909.206 506.578 843.871 504.261L844.293 505.798C909.756 508.117 973.371 502.602 1015.23 497.576C1043.06 494.271 1067.94 490.393 1089.17 486.033C1110.4 481.673 1128.84 476.691 1143.72 471.401C1164.91 463.915 1180.25 455.287 1196.76 444.642C1205.42 439.063 1214.75 432.88 1224.43 425.472C1227.16 423.4 1229.92 421.181 1232.87 418.834C1239.16 413.825 1246.29 408.138 1254.49 402.506C1261.12 397.8 1268.22 393.725 1275.71 390.32C1289.74 384.185 1304.99 383.076 1316.48 387.342C1329.32 392.107 1335.76 401.289 1341.44 409.398L1341.73 409.761C1349.09 420.268 1357.05 431.375 1365.46 443.105C1373.23 453.948 1381.27 465.156 1389.52 476.85C1401.73 494.181 1418.44 517.911 1447.52 530.397C1477.82 543.407 1506.22 536.01 1523.17 531.587C1541.91 526.777 1561.22 521.764 1590.89 526.88C1592.95 527.238 1595.09 527.67 1597.22 528.204C1628.75 535.542 1669.89 558.484 1685.62 574.039L1686.96 573.231Z" fill="url(#paint13_linear_522_1760)"/>
<path style="mix-blend-mode:screen" opacity="0.7" d="M1687.82 571.208C1673.62 553.546 1632.34 528.975 1598.33 522.524C1596.08 522.099 1593.85 521.756 1591.71 521.499C1563.26 518.085 1545.25 524.925 1526.18 532.18L1523.35 533.249C1503.21 540.867 1476.44 548.038 1447.81 535.723C1420.17 523.843 1404.39 500.499 1391.75 479.556L1386.52 470.908C1372.48 447.68 1359.21 425.736 1347.58 405.305C1342.06 395.591 1335.79 384.568 1321.46 378.427C1306.61 372.044 1289 375.201 1277.47 380.284C1269.72 383.807 1262.49 388.215 1255.9 393.436C1246.23 400.853 1238.43 408.717 1231.49 415.691L1227.03 420.162C1217.37 429.732 1208.1 437.917 1200.31 444.665C1185.82 457.201 1169.27 470.376 1146.56 481.729C1131.12 489.454 1112.57 496.531 1091.4 502.777C1067.06 509.718 1042.11 515.185 1016.68 519.15C975.427 525.842 911.654 532.914 841.994 528.647L842.381 530.302C912.216 534.549 976.194 527.483 1017.54 520.779C1043.05 516.806 1068.07 511.321 1092.48 504.35C1113.75 498.085 1132.39 490.964 1147.9 483.204C1170.77 471.8 1187.39 458.577 1201.95 445.978C1209.76 439.221 1219.04 431.021 1228.73 421.41C1230.19 419.965 1231.67 418.466 1233.19 416.942C1240.07 410.01 1247.87 402.149 1257.48 394.787C1263.98 389.634 1271.11 385.283 1278.76 381.804C1289.9 376.89 1306.82 373.804 1320.94 379.868C1334.41 385.64 1340.45 396.275 1345.79 405.652C1357.42 426.111 1370.7 448.063 1384.75 471.306L1389.97 479.939C1402.82 501.229 1418.88 524.939 1447.28 537.149C1476.73 549.823 1504.02 542.511 1524.55 534.784L1527.38 533.714C1546.22 526.545 1564.02 519.777 1591.94 523.127C1594.02 523.373 1596.19 523.715 1598.39 524.134C1631.8 530.465 1672.31 554.543 1686.21 571.826L1687.82 571.208Z" fill="url(#paint14_linear_522_1760)"/>
<path style="mix-blend-mode:screen" opacity="0.7" d="M1688.68 569.106C1674.57 547.3 1632 523.066 1599.35 518.28C1597.07 517.933 1594.81 517.693 1592.62 517.547C1565.07 515.662 1547.97 524.356 1529.86 533.562L1524.41 536.316C1496.11 550.442 1470.97 552.407 1447.56 542.33C1419.98 530.453 1404.74 506.634 1392.35 482.66C1379.62 458.035 1364.85 429.109 1351.89 401.214C1347.12 390.91 1341.19 378.078 1326.08 370.776C1315.89 365.853 1298.54 363.466 1280.38 371.528C1272.42 375.141 1265.11 379.849 1258.63 385.543C1248.35 394.305 1240.53 404.136 1233.59 412.828L1231.02 416.02C1223.56 425.316 1215.58 434.559 1205.19 445.944C1191.3 461.017 1173.92 478.459 1150.41 493.474C1134.45 503.688 1115.62 512.964 1094.4 521.029C1070.05 530.071 1044.77 537.182 1018.76 542.309C959.682 554.327 897.877 558.076 840.018 553.103L840.376 554.885C898.481 559.847 960.498 556.111 1019.79 544.06C1047.74 538.39 1073.28 531.231 1095.73 522.71C1117.04 514.595 1135.99 505.265 1152.02 495.004C1175.67 479.901 1193.11 462.391 1207.07 447.255C1217.48 435.847 1225.46 426.599 1232.96 417.265L1235.52 414.073C1242.43 405.419 1250.22 395.652 1260.4 386.964C1266.77 381.368 1273.94 376.736 1281.76 373.175C1292.69 368.322 1310.67 365.173 1325.36 372.282C1339.52 379.131 1345.25 391.508 1349.84 401.446C1362.86 429.365 1377.64 458.319 1390.37 482.97C1402.96 507.368 1418.53 531.648 1446.98 543.879C1471.19 554.283 1496.98 552.352 1525.87 537.935L1531.33 535.176C1549.2 526.087 1566.1 517.51 1593.03 519.328C1595.15 519.473 1597.35 519.712 1599.56 520.042C1631.48 524.737 1673.08 548.358 1686.83 569.624L1688.68 569.106Z" fill="url(#paint15_linear_522_1760)"/>
<path style="mix-blend-mode:screen" opacity="0.7" d="M1689.55 566.911C1676.91 542.782 1634.43 517.496 1600.45 513.878C1598.11 513.624 1595.81 513.486 1593.59 513.445C1566.57 512.943 1549.32 524.044 1532.63 534.722C1530.28 536.24 1527.92 537.756 1525.56 539.221C1506.86 550.914 1478.07 562.018 1447.35 548.768C1418.52 536.335 1403.71 509.849 1393.02 485.589C1378.05 451.663 1366.01 422.666 1356.2 396.923C1352.12 386.145 1346.52 371.4 1330.72 362.918C1314.51 354.245 1295.06 357.306 1283.33 362.557C1275.18 366.269 1267.82 371.276 1261.47 377.423C1251.03 387.212 1243.53 398.778 1236.91 408.983L1235.14 411.698C1227.59 423.268 1219.44 434.849 1210.2 447.07C1191.16 472.116 1173.95 490.031 1154.4 505.157C1136.87 518.543 1117.83 529.962 1097.54 539.265C1073.19 550.395 1047.56 559.18 1020.94 565.525C961.6 579.989 898.4 584.155 838.098 577.629L838.415 579.537C899.019 586.096 962.51 581.921 1022.11 567.389C1048.85 561.041 1074.59 552.242 1099.06 541.088C1119.46 531.734 1138.59 520.251 1156.21 506.792C1175.87 491.59 1193.15 473.601 1212.27 448.456C1221.53 436.2 1229.7 424.603 1237.27 412.993L1239.03 410.278C1245.94 399.643 1253.08 388.645 1263.4 378.966C1269.62 372.948 1276.83 368.042 1284.81 364.397C1296.04 359.37 1314.57 356.388 1329.82 364.547C1344.65 372.458 1350.01 386.7 1353.95 397.12C1363.77 422.891 1375.82 451.924 1390.81 485.878C1401.72 510.624 1416.88 537.656 1446.72 550.524C1478.55 564.252 1508.08 552.899 1527.24 540.956C1529.63 539.471 1532 537.95 1534.36 536.434C1550.78 525.86 1567.76 514.94 1594.13 515.407C1596.28 515.427 1598.52 515.564 1600.74 515.827C1633.25 519.264 1675.38 544.269 1687.43 567.263L1689.55 566.911Z" fill="url(#paint16_linear_522_1760)"/>
<path style="mix-blend-mode:screen" opacity="0.7" d="M1690.43 564.64C1679.34 538.532 1636.12 511.7 1601.46 509.386C1599.09 509.234 1596.74 509.206 1594.49 509.266C1567.69 510.144 1551.02 523.227 1534.85 535.885C1532.18 537.988 1529.42 540.148 1526.67 542.221C1511.67 553.478 1481.38 570.143 1447.09 555.324C1417.13 542.379 1403.25 514.332 1393.62 488.608C1380.52 453.664 1369.69 422.283 1360.51 392.672C1357.06 381.513 1351.89 364.708 1335.37 355.072C1324.82 348.917 1305.63 344.836 1286.26 353.577C1277.9 357.399 1270.47 362.718 1264.25 369.324C1253.82 380.077 1247.04 392.763 1240.47 405.023L1239.17 407.412C1231.75 421.25 1223.67 434.998 1215.12 448.284C1196.89 476.651 1178.82 498.488 1158.32 517.007C1140.79 532.734 1121.46 546.37 1100.6 557.719C1076.27 570.848 1050.3 581.268 1023.06 588.833C963.318 605.753 898.668 610.387 836.126 602.235L836.394 604.274C899.324 612.457 964.338 607.797 1024.4 590.797C1051.78 583.192 1077.89 572.714 1102.35 559.512C1123.32 548.107 1142.75 534.399 1160.37 518.585C1180.95 500.005 1199.08 478.079 1217.45 449.598C1225.99 436.291 1234.09 422.515 1241.54 408.645L1242.81 406.281C1249.33 394.095 1256.07 381.504 1266.36 370.877C1272.44 364.421 1279.7 359.223 1287.86 355.488C1306.35 347.152 1324.44 350.921 1334.31 356.686C1348.58 365.011 1353.7 378.463 1358.09 392.692C1367.29 422.344 1378.13 453.762 1391.23 488.739C1395.35 499.735 1401.24 514.013 1410.38 526.964C1420.32 541.086 1432.12 550.954 1446.43 557.139C1482.08 572.54 1513.21 555.474 1528.6 543.937C1531.36 541.845 1534.16 539.719 1536.81 537.58C1552.71 525.103 1569.16 512.2 1595.24 511.376C1597.41 511.309 1599.66 511.344 1601.93 511.495C1635.52 513.683 1677.38 539.608 1688.08 564.83L1690.43 564.64Z" fill="url(#paint17_linear_522_1760)"/>
<path style="mix-blend-mode:screen" opacity="0.7" d="M1691.3 562.275C1681.52 533.705 1638.39 505.806 1602.57 504.856C1600.18 504.796 1597.81 504.86 1595.48 505.047C1568.73 507.175 1552.46 522.33 1536.79 536.937C1533.87 539.656 1530.85 542.473 1527.84 545.135C1491.32 577.301 1456.64 566.039 1446.86 561.835C1415.63 548.318 1402.34 517.178 1394.26 491.563C1383.02 455.947 1373.13 421.215 1364.88 388.284C1361.04 372.918 1355.96 357.08 1340.08 347.087C1323.68 336.763 1302.72 338.326 1289.23 344.454C1280.68 348.381 1273.18 354.006 1267.1 361.057C1256.88 372.581 1250.62 386.681 1244.55 400.296L1243.36 402.958C1236.32 418.814 1228.54 434.42 1220.22 449.335C1202.7 480.738 1183.77 506.71 1162.39 528.709C1144.82 546.75 1125.2 562.61 1103.8 576.053C1079.5 591.197 1053.18 603.297 1025.3 612.147C965.026 631.498 898.983 636.629 834.226 626.888L834.446 629.033C899.635 638.861 966.141 633.73 1026.78 614.243C1054.82 605.336 1081.28 593.165 1105.72 577.939C1127.23 564.425 1146.96 548.483 1164.62 530.348C1186.12 508.233 1205.11 482.159 1222.71 450.64C1231.04 435.684 1238.85 420.05 1245.9 404.145L1247.09 401.483C1253.11 387.968 1259.34 373.992 1269.4 362.62C1275.32 355.737 1282.63 350.246 1290.97 346.412C1303.78 340.591 1323.56 339.038 1338.85 348.682C1353.7 358.031 1358.56 373.303 1362.28 388.149C1370.54 421.116 1380.44 455.9 1391.69 491.54C1399.95 517.746 1413.62 549.628 1446.16 563.712C1461.42 570.323 1477.38 571.438 1493.53 566.996C1509.68 562.555 1522.32 553.58 1529.99 546.869C1533.02 544.192 1536.05 541.37 1538.97 538.645C1554.45 524.23 1570.44 509.329 1596.4 507.246C1598.65 507.08 1600.92 507.035 1603.2 507.11C1637.72 507.983 1679.34 534.838 1688.74 562.319L1691.3 562.275Z" fill="url(#paint18_linear_522_1760)"/>
<path style="mix-blend-mode:screen" opacity="0.7" d="M1692.17 559.816C1687.79 543.799 1674.19 527.792 1654.91 515.866C1635.63 503.941 1614.3 498.411 1596.43 500.679C1569.68 504.062 1553.8 521.246 1538.5 537.896C1535.41 541.249 1532.21 544.721 1529 547.976C1500.53 576.897 1467.8 577.418 1446.68 568.265C1414 554.096 1401.52 519.349 1394.94 494.391C1385.27 457.618 1376.63 420.377 1369.31 383.736C1367.85 376.425 1365.98 367.939 1362.28 359.882C1358.15 350.887 1352.45 344.024 1344.85 338.912C1327.85 327.467 1306.19 328.766 1292.28 335.139C1266.67 346.854 1257.42 371.784 1248.49 395.882L1247.55 398.398C1214.74 486.537 1168.75 550.687 1106.99 594.539C1031.93 647.716 931.835 668.573 832.323 651.73L832.493 654.008C932.795 671.02 1033.66 650.073 1109.2 596.53C1171.16 552.409 1217.34 488.019 1250.27 399.573L1251.2 397.049C1260.03 373.26 1269.16 348.65 1294.1 337.236C1307.26 331.218 1327.62 329.907 1343.46 340.575C1358.91 350.978 1363.33 367.49 1366.56 383.544C1373.88 420.218 1382.49 457.507 1392.21 494.329C1406.24 547.628 1429.61 563.21 1445.96 570.307C1479.66 584.907 1512.17 569.223 1531.41 549.742C1534.64 546.472 1537.85 542.989 1540.94 539.624C1556.03 523.255 1571.65 506.327 1597.59 503.038C1614.65 500.818 1635.12 506.17 1653.64 517.588C1672.16 529.006 1685.23 544.405 1689.44 559.738L1692.17 559.816Z" fill="url(#paint19_linear_522_1760)"/>
</g>
<defs>
<radialGradient id="paint0_radial_522_1760" cx="0" cy="0" r="1" gradientUnits="userSpaceOnUse" gradientTransform="translate(1551.22 385.994) rotate(44.9947) scale(34.3065)">
<stop stop-color="#AAFF00"/>
<stop offset="1" stop-color="#00FFE0" stop-opacity="0"/>
</radialGradient>
<radialGradient id="paint1_radial_522_1760" cx="0" cy="0" r="1" gradientUnits="userSpaceOnUse" gradientTransform="translate(1006.55 462.161) rotate(85.8651) scale(134.471 123.811)">
<stop stop-color="#8CE717"/>
<stop offset="1" stop-color="#00FFE0" stop-opacity="0"/>
</radialGradient>
<radialGradient id="paint2_radial_522_1760" cx="0" cy="0" r="1" gradientUnits="userSpaceOnUse" gradientTransform="translate(1281.44 518.954) rotate(135.005) scale(77.1577)">
<stop stop-color="#AAFF00"/>
<stop offset="1" stop-color="#00FFE0" stop-opacity="0"/>
</radialGradient>
<linearGradient id="paint3_linear_522_1760" x1="1278.25" y1="346.335" x2="1241.05" y2="480.576" gradientUnits="userSpaceOnUse">
<stop stop-color="#FFFFE0"/>
<stop offset="1" stop-color="#FEFCFF"/>
</linearGradient>
<linearGradient id="paint4_linear_522_1760" x1="1276.52" y1="368.403" x2="1246.24" y2="477.702" gradientUnits="userSpaceOnUse">
<stop stop-color="#FFFFE0"/>
<stop offset="1" stop-color="#FEFCFF"/>
</linearGradient>
<linearGradient id="paint5_linear_522_1760" x1="1274.82" y1="389.999" x2="1251.22" y2="475.271" gradientUnits="userSpaceOnUse">
<stop stop-color="#FFFFE0"/>
<stop offset="1" stop-color="#FEFCFF"/>
</linearGradient>
<linearGradient id="paint6_linear_522_1760" x1="1273.18" y1="410.884" x2="1256.03" y2="472.855" gradientUnits="userSpaceOnUse">
<stop stop-color="#FFFFE0"/>
<stop offset="1" stop-color="#FEFCFF"/>
</linearGradient>
<linearGradient id="paint7_linear_522_1760" x1="1272.83" y1="418.776" x2="1258.34" y2="471.185" gradientUnits="userSpaceOnUse">
<stop stop-color="#FFFFE0"/>
<stop offset="1" stop-color="#FEFCFF"/>
</linearGradient>
<linearGradient id="paint8_linear_522_1760" x1="1273.7" y1="414.291" x2="1251.69" y2="493.919" gradientUnits="userSpaceOnUse">
<stop stop-color="#FFFFE0"/>
<stop offset="1" stop-color="#FEFCFF"/>
</linearGradient>
<linearGradient id="paint9_linear_522_1760" x1="1274.77" y1="407.639" x2="1244.65" y2="516.62" gradientUnits="userSpaceOnUse">
<stop stop-color="#FFFFE0"/>
<stop offset="1" stop-color="#FEFCFF"/>
</linearGradient>
<linearGradient id="paint10_linear_522_1760" x1="1276.01" y1="400.24" x2="1237.58" y2="539.382" gradientUnits="userSpaceOnUse">
<stop stop-color="#FFFFE0"/>
<stop offset="1" stop-color="#FEFCFF"/>
</linearGradient>
<linearGradient id="paint11_linear_522_1760" x1="1277.33" y1="392.398" x2="1230.44" y2="562.207" gradientUnits="userSpaceOnUse">
<stop stop-color="#FFFFE0"/>
<stop offset="1" stop-color="#FEFCFF"/>
</linearGradient>
<linearGradient id="paint12_linear_522_1760" x1="1278.68" y1="384.216" x2="1223.22" y2="585.094" gradientUnits="userSpaceOnUse">
<stop stop-color="#FFFFE0"/>
<stop offset="1" stop-color="#FEFCFF"/>
</linearGradient>
<linearGradient id="paint13_linear_522_1760" x1="1280.06" y1="375.799" x2="1215.95" y2="608.032" gradientUnits="userSpaceOnUse">
<stop stop-color="#FFFFE0"/>
<stop offset="1" stop-color="#FEFCFF"/>
</linearGradient>
<linearGradient id="paint14_linear_522_1760" x1="1281.45" y1="367.155" x2="1208.62" y2="631.025" gradientUnits="userSpaceOnUse">
<stop stop-color="#FFFFE0"/>
<stop offset="1" stop-color="#FEFCFF"/>
</linearGradient>
<linearGradient id="paint15_linear_522_1760" x1="1282.86" y1="358.344" x2="1201.24" y2="654.092" gradientUnits="userSpaceOnUse">
<stop stop-color="#FFFFE0"/>
<stop offset="1" stop-color="#FEFCFF"/>
</linearGradient>
<linearGradient id="paint16_linear_522_1760" x1="1284.29" y1="349.256" x2="1193.8" y2="677.202" gradientUnits="userSpaceOnUse">
<stop stop-color="#FFFFE0"/>
<stop offset="1" stop-color="#FEFCFF"/>
</linearGradient>
<linearGradient id="paint17_linear_522_1760" x1="1285.73" y1="340.096" x2="1186.3" y2="700.382" gradientUnits="userSpaceOnUse">
<stop stop-color="#FFFFE0"/>
<stop offset="1" stop-color="#FEFCFF"/>
</linearGradient>
<linearGradient id="paint18_linear_522_1760" x1="1287.21" y1="330.619" x2="1178.75" y2="723.632" gradientUnits="userSpaceOnUse">
<stop stop-color="#FFFFE0"/>
<stop offset="1" stop-color="#FEFCFF"/>
</linearGradient>
<linearGradient id="paint19_linear_522_1760" x1="1288.69" y1="321.005" x2="1171.13" y2="746.944" gradientUnits="userSpaceOnUse">
<stop stop-color="#FEFCFF" stop-opacity="0"/>
<stop offset="0.388542" stop-color="#FFFFE0"/>
<stop offset="0.591667" stop-color="#FEFCFF" stop-opacity="0"/>
</linearGradient>
</defs>
</svg>
