<svg width="910" height="805" viewBox="0 0 910 805" fill="none" xmlns="http://www.w3.org/2000/svg">
<path opacity="0.6" fill-rule="evenodd" clip-rule="evenodd" d="M193.822 338.243C203.416 338.079 211.143 330.252 211.143 320.621C211.143 310.886 203.251 302.995 193.514 302.995C185.023 302.995 177.934 308.997 176.26 316.99L181.487 311.77L181.512 311.744L181.539 311.718L183.473 309.784L183.74 309.664L181.612 311.791L181.587 311.817L181.557 311.843L176.222 317.177C176.119 317.696 176.039 318.224 175.983 318.758L182.231 312.512L182.257 312.486L182.282 312.46L185.796 308.948L185.999 308.894L182.356 312.535L182.331 312.56L182.305 312.586L175.966 318.924C175.922 319.389 175.896 319.86 175.888 320.335L182.973 313.255L182.999 313.23L183.024 313.204L187.662 308.567C187.683 308.564 187.705 308.561 187.727 308.558L187.727 308.558L187.727 308.558L187.727 308.558C187.763 308.553 187.799 308.548 187.834 308.544L183.099 313.278L183.073 313.304L183.047 313.33L175.886 320.493C175.886 320.535 175.886 320.578 175.886 320.621C175.886 321.014 175.899 321.405 175.924 321.793L176.279 321.438L176.305 321.412L176.331 321.387L183.715 313.999L183.741 313.973L183.767 313.947L189.286 308.424H189.44L183.841 314.021L183.815 314.047L183.789 314.073L176.405 321.456L176.379 321.482L176.358 321.509L175.934 321.933C175.964 322.338 176.007 322.739 176.064 323.136L177.022 322.177L177.048 322.152L177.074 322.126L184.458 314.742L184.484 314.716L184.51 314.691L190.75 308.451L190.889 308.46L184.584 314.765L184.558 314.791L184.532 314.817L177.148 322.201L177.122 322.227L177.096 322.253L176.083 323.265C176.14 323.646 176.21 324.023 176.291 324.395L177.765 322.921L177.79 322.895L177.816 322.869L185.201 315.486L185.226 315.46L185.252 315.434L192.092 308.594L192.222 308.615L185.326 315.508L185.3 315.535L185.275 315.561L177.89 322.944L177.865 322.97L177.839 322.998L176.318 324.518C176.399 324.876 176.491 325.23 176.593 325.58L178.509 323.665L178.534 323.639L178.56 323.614L185.945 316.229L185.97 316.203L185.996 316.178L193.335 308.841L193.449 308.869H193.456L186.071 316.253L186.044 316.278L186.019 316.304L178.634 323.688L178.609 323.714L178.583 323.739L176.627 325.695C176.729 326.034 176.841 326.369 176.962 326.7L179.254 324.409L179.279 324.383L179.305 324.357L186.686 316.974L186.712 316.948L186.738 316.921L194.127 309.537L194.153 309.512L194.179 309.486L194.501 309.164L194.609 309.2L194.249 309.561L194.223 309.587L194.197 309.613L186.813 316.996L186.787 317.022L186.76 317.048L179.376 324.431L179.35 324.457L179.328 324.478L177.001 326.805C177.122 327.127 177.252 327.445 177.391 327.758L179.997 325.152L180.023 325.126L180.049 325.101L187.433 317.717L187.459 317.691L187.485 317.665L194.869 310.282L194.895 310.255L194.92 310.229L195.587 309.563L195.694 309.606L194.996 310.304L194.97 310.33L194.944 310.356L187.56 317.74L187.534 317.765L187.508 317.791L180.124 325.175L180.098 325.2L180.07 325.228L177.437 327.861C177.574 328.165 177.72 328.465 177.874 328.76L180.738 325.895L180.764 325.87L180.79 325.844L188.174 318.46L188.201 318.435L188.227 318.409L195.611 311.028L195.637 311.003L195.662 310.977L196.607 310.032L196.707 310.081L195.74 311.048L195.714 311.074L195.688 311.099L188.304 318.483L188.278 318.509L188.252 318.534L180.868 325.918L180.842 325.944L180.813 325.97L177.925 328.857C178.079 329.149 178.242 329.435 178.412 329.717L181.49 326.639L181.515 326.613L181.542 326.587L188.927 319.204L188.952 319.178L188.978 319.152L196.357 311.77L196.383 311.744L196.409 311.718L197.57 310.554L197.665 310.61L196.483 311.791L196.457 311.817L196.431 311.843L189.047 319.226L189.021 319.252L188.995 319.278L181.611 326.661L181.585 326.687L181.567 326.711L178.468 329.809C178.636 330.084 178.811 330.353 178.994 330.618L182.229 327.382L182.255 327.356L182.281 327.331L189.665 319.947L189.691 319.921L189.717 319.896L197.101 312.512L197.127 312.486L197.153 312.461L198.477 311.136C198.489 311.144 198.5 311.151 198.511 311.159C198.529 311.172 198.548 311.184 198.565 311.197L197.227 312.535L197.201 312.56L197.175 312.586L189.791 319.97L189.765 319.996L189.739 320.021L182.355 327.405L182.329 327.431L182.303 327.457L179.055 330.706C179.237 330.966 179.426 331.222 179.622 331.472L182.973 328.121L182.998 328.096L183.024 328.07L190.409 320.686L190.434 320.66L190.46 320.635L197.844 313.255L197.87 313.23L197.896 313.204L199.329 311.771L199.411 311.837L197.97 313.278L197.944 313.304L197.919 313.33L190.534 320.713L190.508 320.739L190.483 320.765L183.095 328.148L183.069 328.175L183.047 328.197L179.687 331.555C179.885 331.805 180.09 332.049 180.301 332.288L183.717 328.869L183.743 328.843L183.768 328.817L191.153 321.438L191.178 321.412L191.204 321.387L198.588 313.999L198.614 313.973L198.64 313.947L200.129 312.458L200.207 312.53L198.72 314.021L198.694 314.047L198.668 314.073L191.284 321.456L191.258 321.482L191.232 321.509L183.848 328.893L183.822 328.918L183.795 328.944L180.371 332.367C180.581 332.601 180.796 332.83 181.018 333.052L184.457 329.614L184.483 329.588L184.509 329.561L191.893 322.177L191.919 322.152L191.945 322.126L199.329 314.742L199.355 314.716L199.38 314.691L200.875 313.197L200.946 313.275L199.456 314.765L199.43 314.791L199.404 314.817L192.019 322.201L191.993 322.227L191.967 322.253L184.583 329.636L184.557 329.662L184.531 329.688L181.092 333.127C181.316 333.349 181.546 333.566 181.782 333.776L185.203 330.355L185.229 330.329L185.255 330.303L192.639 322.921L192.665 322.895L192.691 322.869L200.075 315.486L200.101 315.46L200.127 315.434L201.577 313.986L201.601 314.016C201.615 314.034 201.629 314.051 201.644 314.069L200.204 315.508L200.178 315.535L200.152 315.561L192.765 322.947L192.739 322.972L192.713 322.998L185.329 330.377L185.303 330.403L185.277 330.429L181.861 333.846C182.098 334.055 182.342 334.258 182.591 334.455L185.947 331.1L185.973 331.075L185.999 331.049L193.383 323.665L193.409 323.639L193.435 323.614L200.82 316.229L200.846 316.203L200.872 316.177L202.221 314.828L202.282 314.915L200.946 316.253L200.92 316.278L200.894 316.304L193.508 323.688L193.482 323.714L193.456 323.739L186.072 331.123L186.045 331.149L186.019 331.174L182.673 334.52C182.925 334.716 183.181 334.906 183.443 335.089L186.689 331.844L186.714 331.818L186.74 331.792L194.124 324.409L194.15 324.383L194.176 324.357L201.561 316.974L201.587 316.948L201.613 316.921L202.812 315.719L202.869 315.811L201.687 316.993L201.661 317.019L201.635 317.044L194.251 324.428L194.225 324.454L194.2 324.48L186.815 331.863L186.79 331.889L186.763 331.915L183.53 335.149C183.796 335.332 184.068 335.508 184.344 335.676L187.433 332.587L187.459 332.561L187.485 332.536L194.87 325.152L194.896 325.126L194.922 325.1L202.306 317.717L202.332 317.691L202.357 317.672L203.348 316.68L203.399 316.778L202.432 317.745L202.406 317.771L202.38 317.796L194.996 325.18L194.97 325.206L194.944 325.232L187.56 332.615L187.534 332.641L187.509 332.667L184.438 335.733C184.717 335.901 185.001 336.062 185.29 336.214L188.171 333.331L188.198 333.305L188.224 333.279L195.612 325.896L195.637 325.87L195.663 325.844L203.047 318.46L203.073 318.435L203.102 318.406L203.827 317.68L203.833 317.695L203.833 317.695C203.846 317.727 203.858 317.758 203.871 317.788L203.176 318.483L203.151 318.509L203.125 318.535L195.74 325.918L195.715 325.944L195.689 325.97L188.305 333.353L188.279 333.379L188.253 333.405L185.39 336.267C185.687 336.421 185.988 336.567 186.294 336.705L188.927 334.074L188.953 334.048L188.978 334.022L196.357 326.639L196.383 326.613L196.409 326.587L203.793 319.204L203.819 319.178L203.84 319.16L204.235 318.765C204.244 318.789 204.253 318.815 204.262 318.842L204.262 318.842L204.272 318.873L203.915 319.23L203.889 319.255L203.863 319.281L196.479 326.665L196.453 326.69L196.427 326.716L189.043 334.1L189.017 334.127L188.991 334.152L186.394 336.749C186.706 336.887 187.024 337.017 187.346 337.137L189.666 334.817L189.692 334.792L189.717 334.766L197.102 327.382L197.128 327.357L197.153 327.331L204.538 319.947L204.566 319.927L204.583 319.91C204.584 319.914 204.585 319.918 204.587 319.923L204.587 319.923C204.591 319.933 204.595 319.944 204.595 319.956L204.611 320.023L197.227 327.405L197.202 327.431L197.176 327.458L189.792 334.841L189.766 334.867L189.74 334.893L187.455 337.177C187.784 337.298 188.118 337.409 188.457 337.51L190.406 335.561L190.432 335.535L190.458 335.509L197.842 328.126L197.868 328.1L197.893 328.074L204.836 321.132L204.839 321.149L204.839 321.149L204.839 321.149L204.839 321.149L204.839 321.149L204.839 321.149L204.839 321.149L204.839 321.149L204.839 321.149L204.839 321.149L204.839 321.149L204.839 321.15L204.839 321.15L204.839 321.15L204.839 321.15C204.846 321.187 204.852 321.223 204.858 321.26L197.968 328.148L197.942 328.175L197.916 328.201L190.532 335.584L190.506 335.61L190.48 335.636L188.572 337.544C188.923 337.646 189.278 337.738 189.637 337.818L191.152 336.305L191.178 336.279L191.204 336.254L198.588 328.869L198.614 328.843L198.638 328.817L205.002 322.455L205.005 322.489L205.005 322.489C205.009 322.524 205.013 322.558 205.013 322.593L198.712 328.893L198.687 328.918L198.661 328.944L191.277 336.328L191.251 336.354L191.225 336.379L189.759 337.845C190.132 337.926 190.509 337.995 190.89 338.052L191.894 337.049L191.919 337.023L191.945 336.997L199.33 329.614L199.355 329.588L199.374 329.57L205.041 323.904V324.054L199.454 329.64L199.428 329.666L199.403 329.692L192.017 337.076L191.991 337.101L191.966 337.127L191.022 338.071C191.421 338.128 191.825 338.171 192.232 338.2L192.64 337.792L192.666 337.766L192.692 337.741L200.076 330.357L200.102 330.331L200.128 330.303L204.952 325.484L204.932 325.653L200.205 330.38L200.179 330.405L200.153 330.431L192.769 337.813L192.743 337.838L192.718 337.864L192.372 338.21C192.75 338.234 193.131 338.246 193.514 338.246C193.567 338.246 193.619 338.246 193.671 338.245L200.818 331.1L200.843 331.075L200.871 331.047L204.623 327.294L204.607 327.36C204.597 327.404 204.586 327.448 204.575 327.491L200.946 331.121L200.92 331.147L200.894 331.172L193.822 338.243ZM201.589 331.818L201.563 331.844L195.596 337.81L195.854 337.703L201.637 331.915L201.663 331.889L201.689 331.863L203.798 329.754C203.835 329.668 203.871 329.582 203.905 329.497L201.613 331.789L201.589 331.818ZM178.381 313.532L179.629 312.289C179.19 312.679 178.773 313.094 178.381 313.532ZM201.063 333.978L200.075 334.967C199.772 335.242 199.459 335.506 199.135 335.757L201.854 333.039C201.603 333.363 201.339 333.676 201.063 333.978Z" fill="url(#paint0_radial_522_2555)"/>
<path opacity="0.6" fill-rule="evenodd" clip-rule="evenodd" d="M7.82812 479.438C-13.7431 479.061 -31.1138 461.46 -31.1138 439.803C-31.1138 417.91 -13.3627 400.162 8.53441 400.162C27.6349 400.162 43.5808 413.666 47.3423 431.646L35.5785 419.897L35.5205 419.839L35.4601 419.781L31.1106 415.432L30.5113 415.161L35.2958 419.945L35.3538 420.003L35.4214 420.061L47.4279 432.066C47.6589 433.234 47.8386 434.42 47.9646 435.621L33.9061 421.566L33.8482 421.508L33.7902 421.45L25.8886 413.55L25.4319 413.429L33.6234 421.617L33.6814 421.675L33.7394 421.733L48.002 435.994C48.1019 437.042 48.161 438.102 48.1777 439.171L32.2336 423.238L32.1756 423.18L32.1176 423.122L21.6885 412.694C21.6396 412.688 21.5903 412.681 21.5408 412.673C21.4607 412.662 21.3801 412.65 21.2995 412.641L31.9509 423.289L32.0089 423.347L32.0669 423.405L48.1817 439.525C48.1823 439.618 48.1826 439.71 48.1826 439.803C48.1826 440.692 48.1533 441.575 48.0956 442.45L47.2858 441.642L47.2278 441.584L47.1698 441.526L30.562 424.91L30.504 424.852L30.446 424.794L18.033 412.373H17.6875L30.2793 424.961L30.3373 425.019L30.3952 425.077L47.003 441.683L47.061 441.741L47.1094 441.801L48.0736 442.766C48.0063 443.676 47.9082 444.578 47.7804 445.471L45.6139 443.304L45.5559 443.246L45.4979 443.188L28.8901 426.582L28.8321 426.524L28.7741 426.466L14.7398 412.433L14.4257 412.453L28.6074 426.633L28.6654 426.691L28.7234 426.751L45.3312 443.357L45.3892 443.415L45.4472 443.473L47.7375 445.763C47.6084 446.619 47.4519 447.466 47.2689 448.303L43.9426 444.976L43.8846 444.918L43.8266 444.86L27.2188 428.254L27.1608 428.196L27.1028 428.138L11.7201 412.755L11.4277 412.801L26.9361 428.305L26.9941 428.365L27.052 428.423L43.6598 445.029L43.7178 445.087L43.7758 445.15L47.2076 448.579C47.0254 449.385 46.8187 450.182 46.5882 450.968L42.269 446.651L42.211 446.593L42.153 446.535L25.5453 429.926L25.4873 429.868L25.4293 429.81L8.92297 413.31L8.66684 413.373H8.65234L25.2601 429.979L25.3205 430.037L25.3785 430.095L41.9863 446.701L42.0443 446.759L42.1023 446.817L46.5113 451.227C46.2819 451.991 46.0301 452.744 45.7567 453.488L40.5913 448.323L40.5333 448.265L40.4753 448.207L23.8747 431.601L23.8167 431.543L23.7588 431.482L7.13888 414.876L7.08088 414.818L7.02289 414.76L6.29798 414.035L6.05634 414.117L6.86583 414.929L6.92382 414.987L6.98182 415.045L23.5896 431.651L23.6476 431.709L23.708 431.767L40.3158 448.373L40.3738 448.431L40.4245 448.48L45.669 453.724C45.3976 454.447 45.1058 455.16 44.794 455.863L38.924 449.995L38.866 449.937L38.808 449.879L22.2002 433.273L22.1422 433.215L22.0842 433.157L5.47643 416.55L5.41844 416.49L5.36045 416.432L3.86229 414.934L3.62065 415.031L5.1913 416.601L5.24929 416.659L5.30729 416.717L21.9151 433.323L21.9731 433.381L22.0311 433.439L38.6389 450.045L38.6968 450.103L38.7597 450.166L44.6897 456.096C44.3814 456.779 44.0542 457.451 43.7089 458.113L37.2618 451.667L37.2038 451.609L37.1459 451.551L20.5381 434.945L20.4777 434.887L20.4197 434.829L3.81186 418.23L3.75387 418.172L3.69588 418.114L1.57188 415.988L1.34716 416.099L3.5219 418.273L3.57989 418.331L3.63788 418.389L20.2457 434.995L20.3037 435.053L20.3617 435.111L36.9695 451.717L37.0274 451.775L37.0927 451.833L43.5932 458.333C43.2458 458.989 42.8805 459.634 42.498 460.267L35.569 453.339L35.511 453.281L35.4506 453.223L18.8428 436.616L18.7848 436.558L18.7268 436.5L2.13109 419.897L2.07309 419.839L2.0151 419.781L-0.597012 417.162L-0.809654 417.287L1.84837 419.945L1.90636 420.003L1.96436 420.061L18.5722 436.667L18.6301 436.725L18.6881 436.783L35.2959 453.389L35.3539 453.447L35.395 453.5L42.371 460.476C41.9931 461.093 41.5987 461.699 41.1886 462.293L33.9056 455.01L33.8476 454.953L33.7896 454.895L17.1818 438.288L17.1238 438.23L17.0658 438.172L0.458027 421.566L0.400036 421.508L0.342045 421.45L-2.63736 418.471C-2.66251 418.489 -2.68801 418.506 -2.7136 418.524C-2.7544 418.551 -2.79541 418.579 -2.8355 418.609L0.175312 421.617L0.233303 421.675L0.291294 421.733L16.8991 438.339L16.9571 438.397L17.0151 438.455L33.6229 455.061L33.6809 455.119L33.7389 455.18L41.0509 462.491C40.6411 463.077 40.2158 463.651 39.7757 464.214L32.234 456.673L32.176 456.615L32.118 456.557L15.5102 439.951L15.4522 439.893L15.3942 439.835L-1.21356 423.238L-1.27156 423.18L-1.32955 423.122L-4.55301 419.899L-4.73665 420.049L-1.49628 423.289L-1.43829 423.347L-1.38029 423.405L15.2275 440.011L15.2855 440.069L15.3435 440.127L31.9585 456.733L32.0165 456.794L32.0673 456.842L39.6284 464.401C39.1834 464.962 38.7234 465.512 38.2491 466.048L30.5611 458.354L30.5031 458.296L30.4451 458.238L13.8373 441.642L13.7794 441.584L13.7214 441.526L-2.88643 424.91L-2.94442 424.852L-3.00242 424.794L-6.35152 421.446L-6.5255 421.607L-3.18123 424.961L-3.12324 425.019L-3.06524 425.077L13.5425 441.683L13.6005 441.741L13.6585 441.801L30.2663 458.408L30.3243 458.466L30.3847 458.524L38.0902 466.227C37.618 466.754 37.1319 467.269 36.6325 467.771L28.8898 460.029L28.8318 459.971L28.7738 459.91L12.166 443.304L12.108 443.246L12.05 443.188L-4.55779 426.582L-4.61579 426.524L-4.67378 426.466L-8.03497 423.108L-8.19445 423.282L-4.84293 426.633L-4.78493 426.691L-4.72694 426.751L11.8833 443.357L11.9413 443.415L11.9993 443.473L28.607 460.079L28.665 460.137L28.723 460.195L36.4656 467.937C35.9627 468.436 35.4465 468.922 34.9176 469.394L27.2188 461.696L27.1608 461.638L27.1029 461.58L10.4951 444.976L10.4371 444.918L10.3791 444.86L-6.2287 428.254L-6.28669 428.196L-6.34469 428.138L-9.6068 424.881C-9.62496 424.904 -9.64281 424.926 -9.66057 424.949C-9.69244 424.989 -9.72404 425.028 -9.75662 425.067L-6.51867 428.305L-6.46067 428.365L-6.40268 428.423L10.2124 445.034L10.2703 445.092L10.3283 445.15L26.9361 461.747L26.9941 461.805L27.0521 461.863L34.7409 469.55C34.2058 470.022 33.658 470.479 33.0979 470.922L25.5447 463.373L25.4867 463.315L25.4287 463.257L8.8209 446.651L8.7629 446.593L8.70491 446.535L-7.9053 429.926L-7.96329 429.868L-8.02129 429.81L-11.0563 426.776L-11.194 426.971L-8.18802 429.979L-8.13003 430.037L-8.07203 430.095L8.54059 446.701L8.59858 446.759L8.65657 446.817L25.2644 463.423L25.3248 463.481L25.3828 463.539L32.912 471.068C32.3459 471.51 31.7674 471.937 31.1772 472.348L23.8731 465.045L23.8151 464.987L23.7571 464.929L7.14935 448.323L7.09135 448.265L7.03336 448.207L-9.57685 431.6L-9.63484 431.542L-9.69283 431.482L-12.3895 428.778L-12.5176 428.986L-9.85957 431.644L-9.80157 431.702L-9.74358 431.76L6.86421 448.366L6.9222 448.424L6.9802 448.482L23.588 465.088L23.646 465.146L23.7064 465.204L30.9816 472.483C30.3839 472.894 29.7744 473.29 29.1537 473.668L22.2013 466.717L22.1433 466.659L22.0853 466.601L5.47508 449.995L5.41709 449.937L5.35909 449.879L-11.2487 433.272L-11.3067 433.214L-11.3623 433.171L-13.5926 430.941L-13.7062 431.161L-11.5314 433.335L-11.4734 433.393L-11.4154 433.451L5.19236 450.057L5.25036 450.115L5.30835 450.173L21.9161 466.779L21.9741 466.837L22.0321 466.895L28.9419 473.797C28.3131 474.175 27.6729 474.536 27.022 474.88L20.5367 468.389L20.4763 468.331L20.4183 468.273L3.80323 451.666L3.74524 451.608L3.68725 451.551L-12.9205 434.944L-12.9785 434.886L-13.0438 434.821L-14.6748 433.19L-14.6875 433.222C-14.7166 433.295 -14.7443 433.364 -14.7739 433.432L-13.2105 434.995L-13.1525 435.053L-13.0945 435.111L3.51327 451.717L3.57126 451.775L3.62925 451.833L20.237 468.439L20.295 468.497L20.353 468.555L26.7963 474.998C26.1306 475.344 25.4539 475.671 24.7667 475.98L18.8434 470.061L18.7854 470.003L18.7274 469.945L2.13169 453.338L2.07369 453.28L2.0157 453.222L-14.5921 436.616L-14.6501 436.558L-14.6984 436.517L-15.5852 435.631C-15.6063 435.683 -15.6262 435.743 -15.6466 435.803C-15.6542 435.826 -15.6619 435.849 -15.6698 435.872L-14.8651 436.674L-14.8071 436.732L-14.7492 436.79L1.85863 453.396L1.91663 453.454L1.97462 453.512L18.5824 470.118L18.6404 470.179L18.6984 470.237L24.5433 476.08C23.8401 476.39 23.1262 476.681 22.4022 476.951L17.1826 471.732L17.1246 471.674L17.0666 471.616L0.458847 455.01L0.400856 454.952L0.342865 454.894L-16.2649 438.288L-16.3278 438.242L-16.3664 438.204C-16.3692 438.214 -16.3726 438.223 -16.3761 438.233C-16.3845 438.257 -16.393 438.282 -16.393 438.308L-16.4292 438.46L0.176132 455.061L0.234123 455.119L0.292114 455.179L16.8999 471.786L16.9579 471.844L17.0159 471.902L22.1581 477.042C21.4148 477.314 20.6611 477.564 19.8978 477.792L15.5101 473.404L15.4521 473.346L15.3941 473.288L-1.2137 456.682L-1.2717 456.624L-1.32969 456.566L-16.9443 440.953L-16.9508 440.99L-16.9509 440.991L-16.951 440.991L-16.951 440.991L-16.9511 440.992L-16.9511 440.992L-16.9511 440.992L-16.9512 440.992C-16.9658 441.075 -16.9801 441.157 -16.9927 441.241L-1.49642 456.733L-1.43843 456.794L-1.38043 456.852L15.2273 473.458L15.2853 473.516L15.3433 473.574L19.6384 477.868C18.8507 478.098 18.0529 478.303 17.2458 478.484L13.8374 475.079L13.7794 475.021L13.7215 474.963L-2.88634 458.354L-2.94433 458.296L-2.9999 458.238L-17.3121 443.928L-17.3148 443.956L-17.32 444.005C-17.3281 444.083 -17.3363 444.161 -17.3363 444.239L-3.16663 458.407L-3.10864 458.465L-3.05065 458.523L13.5571 475.13L13.6151 475.188L13.6731 475.246L16.9722 478.544C16.1328 478.726 15.2834 478.882 14.4251 479.009L12.1663 476.751L12.1083 476.693L12.0503 476.635L-4.55749 460.029L-4.61549 459.971L-4.65656 459.93L-17.403 447.187V447.525L-4.83779 460.089L-4.7798 460.147L-4.72181 460.205L11.8884 476.811L11.9464 476.869L12.0044 476.927L14.1296 479.052C13.2331 479.179 12.3269 479.275 11.4121 479.341L10.4938 478.423L10.4358 478.365L10.3778 478.307L-6.22997 461.701L-6.28796 461.643L-6.34595 461.58L-17.1955 450.741L-17.152 451.121L-6.51993 461.752L-6.46193 461.81L-6.40394 461.868L10.2038 478.469L10.2618 478.527L10.3198 478.585L11.0975 479.362C10.2501 479.416 9.39547 479.444 8.53441 479.444C8.41228 479.444 8.29029 479.443 8.16843 479.442L-7.90506 463.373L-7.96306 463.315L-8.02588 463.252L-16.4639 454.812C-16.4518 454.862 -16.44 454.911 -16.4282 454.96C-16.4046 455.059 -16.3809 455.158 -16.3551 455.255L-8.19261 463.419L-8.13462 463.477L-8.07663 463.535L7.82812 479.438ZM-9.63358 464.987L-9.57559 465.045L3.845 478.464L3.26507 478.222L-9.74232 465.204L-9.80031 465.146L-9.8583 465.088L-14.6017 460.345C-14.6854 460.152 -14.766 459.959 -14.8433 459.765L-9.68674 464.921L-9.63358 464.987ZM42.5566 423.859L39.7487 421.064C40.7372 421.941 41.6746 422.875 42.5566 423.859ZM-8.45404 469.845L-6.23096 472.068C-5.55115 472.688 -4.84718 473.281 -4.11904 473.847L-10.2325 467.734C-9.66867 468.462 -9.07585 469.166 -8.45404 469.845Z" fill="url(#paint1_radial_522_2555)"/>
<g style="mix-blend-mode:screen" opacity="0.3">
<path style="mix-blend-mode:screen" opacity="0.7" d="M305.866 477.704L305.703 477.497C295.6 480.622 282.812 479.813 268.741 475.148C255.714 470.716 243.145 464.031 231.632 455.411C219.752 446.557 209.143 436.352 198.86 426.5C190.042 418.049 180.92 409.306 171.053 401.421C115.217 356.821 31.4114 341.591 -19.7523 366.799C-22.1396 367.976 -24.5307 369.262 -26.8452 370.5C-35.9062 375.381 -45.3057 380.382 -57.2555 380.605C-68.2062 380.811 -80.3074 376.906 -92.2307 369.312C-102.932 362.461 -112.455 353.534 -120.135 343.156C-127.819 332.664 -133.557 321.482 -139.108 310.671C-143.813 301.503 -148.676 292.02 -154.713 282.985C-164.328 268.583 -177.528 254.731 -192.894 242.905C-208.629 230.87 -225.766 221.302 -243.589 214.603C-261.727 207.842 -280.284 203.994 -298.536 203.208C-316.687 202.452 -333.97 204.868 -348.529 210.222L-348.391 210.398C-333.883 205.073 -316.659 202.633 -298.518 203.416C-280.303 204.2 -261.783 208.04 -243.681 214.788C-225.893 221.479 -208.789 231.029 -193.083 243.038C-177.756 254.835 -164.576 268.673 -155 283.056C-148.987 292.061 -144.109 301.552 -139.414 310.707C-133.859 321.534 -128.111 332.729 -120.413 343.239C-112.709 353.653 -103.154 362.609 -92.4163 369.481C-80.4246 377.12 -68.2592 381.044 -57.2385 380.834C-45.2186 380.607 -35.8078 375.568 -26.7123 370.7C-24.418 369.467 -22.0067 368.176 -19.6195 366.999C31.4667 341.868 115.143 357.059 170.868 401.589C180.729 409.468 189.861 418.224 198.651 426.648C208.958 436.491 219.613 446.701 231.487 455.549C243.037 464.196 255.646 470.903 268.714 475.352C282.855 480.032 295.702 480.844 305.866 477.704Z" fill="url(#paint2_linear_522_2555)"/>
<path style="mix-blend-mode:screen" opacity="0.7" d="M306.45 476.632L306.255 476.323C296.638 478.553 284.074 477.109 269.924 472.148C256.912 467.445 244.3 460.901 232.494 452.727C231.041 451.726 229.545 450.671 228.041 449.583C218.198 442.451 209.285 434.764 200.66 427.326C191.582 419.492 182.198 411.395 171.981 404.223C156.43 393.312 138.079 384.853 122.176 378.022C101.996 369.351 85.6182 363.643 70.6347 360.045C47.9181 354.607 25.7992 353.156 6.67575 355.868C-1.33043 356.937 -9.07162 358.827 -16.4405 361.513C-20.2756 362.933 -23.9956 364.645 -27.9446 366.46C-31.5066 368.092 -35.1652 369.767 -38.9315 371.222C-44.0293 373.307 -49.5079 374.62 -55.2219 375.127C-65.7499 375.901 -76.831 373.274 -88.1522 367.32C-98.7385 361.724 -108.392 353.968 -116.409 344.617C-123.928 335.738 -129.747 326.19 -135.365 316.957C-140.321 308.824 -145.443 300.419 -151.759 292.379C-161.477 280.056 -174.496 268.18 -189.469 258.064C-206.073 246.997 -223.814 238.396 -242.042 232.578C-260.705 226.671 -279.611 223.382 -298.2 222.809C-316.79 222.251 -334.777 224.419 -350.145 229.141L-349.91 229.439C-334.592 224.706 -316.664 222.534 -298.096 223.118C-279.554 223.694 -260.697 226.977 -242.082 232.87C-223.902 238.672 -206.208 247.248 -189.647 258.285C-174.698 268.361 -161.697 280.173 -152.038 292.472C-145.721 300.482 -140.624 308.887 -135.687 316.995C-130.039 326.235 -124.231 335.81 -116.688 344.72C-108.623 354.119 -98.9146 361.916 -88.2702 367.545C-77.0127 373.459 -65.5344 376.185 -55.0461 375.402C-49.2961 374.89 -43.7823 373.569 -38.6498 371.475C-34.8836 370.02 -31.2147 368.337 -27.6677 366.707C-23.7239 364.896 -19.999 363.19 -16.179 361.772C-8.83188 359.096 -1.11451 357.21 6.86661 356.141C25.9297 353.436 47.9986 354.885 70.6552 360.32C85.6041 363.905 101.952 369.607 122.103 378.262C137.948 385.164 156.279 393.599 171.767 404.462C181.965 411.618 191.339 419.704 200.393 427.508C209.023 434.961 217.955 442.662 227.803 449.801C229.308 450.889 230.808 451.95 232.261 452.951C244.121 461.175 256.795 467.754 269.872 472.478C284.122 477.46 296.771 478.909 306.45 476.632Z" fill="url(#paint3_linear_522_2555)"/>
<path style="mix-blend-mode:screen" opacity="0.7" d="M307.057 475.561L306.845 475.147C286.553 478.146 255.57 464.135 233.365 450.046C231.89 449.114 230.372 448.127 228.84 447.122C219.43 440.942 211.014 434.492 202.877 428.259C192.969 420.666 183.609 413.498 172.917 407.057C161.532 400.196 148.149 394.583 133.96 388.624C130.054 386.984 126.019 385.285 121.99 383.552C118.69 382.146 115.446 380.737 112.256 379.326C97.8371 373.044 84.2095 367.11 71.0411 362.852C49.4473 355.891 28.2752 352.556 9.82247 353.221C1.9653 353.382 -5.70214 354.394 -13.057 356.242C-18.6427 357.69 -24.4321 360.089 -30.038 362.407C-32.2294 363.316 -34.5024 364.256 -36.743 365.134C-43.0264 367.583 -48.0934 368.991 -53.1147 369.666C-63.4657 371 -74.5123 369.277 -85.0494 364.686C-95.0869 360.4 -104.493 354.082 -112.626 346.162C-119.997 338.828 -125.884 330.866 -131.608 323.141C-136.8 316.122 -142.164 308.865 -148.753 301.886C-158.772 291.268 -172.062 281.117 -187.165 272.532C-203.341 263.316 -221.776 255.797 -240.488 250.76C-277.924 240.733 -318.484 239.836 -351.769 248.286L-351.512 248.695C-318.313 240.261 -277.858 241.16 -240.517 251.16C-221.869 256.168 -203.484 263.666 -187.362 272.855C-172.319 281.407 -159.092 291.509 -149.111 302.078C-142.556 309.033 -137.201 316.269 -132.039 323.251C-126.32 330.99 -120.404 338.979 -112.994 346.351C-104.803 354.348 -95.3258 360.732 -85.2083 365.067C-74.56 369.702 -63.3988 371.442 -52.9388 370.097C-47.8673 369.424 -42.7904 368.017 -36.4608 365.544C-34.2102 364.668 -31.9373 363.728 -29.7407 362.815C-24.1654 360.51 -18.376 358.112 -12.8157 356.673C-5.5014 354.824 2.12808 353.815 9.94785 353.662C28.325 353.005 49.4276 356.313 70.931 363.275C84.0598 367.514 97.6675 373.444 112.077 379.723C115.283 381.122 118.526 382.528 121.806 383.943C125.839 385.682 129.879 387.377 133.785 389.017C147.935 394.957 161.308 400.568 172.654 407.411C183.311 413.838 192.651 420.993 202.55 428.573C210.697 434.818 219.133 441.263 228.552 447.465C230.089 448.476 231.612 449.459 233.087 450.391C255.456 464.522 286.608 478.591 307.057 475.561Z" fill="url(#paint4_linear_522_2555)"/>
<path style="mix-blend-mode:screen" opacity="0.7" d="M307.632 474.407L307.424 473.892C284.273 475.172 245.544 453.826 234.23 447.256C232.665 446.353 231.131 445.453 229.628 444.557C220.934 439.398 213.244 434.235 205.768 429.262C195.227 422.169 185.201 415.489 173.841 409.801C165.679 405.723 156.338 402.239 146.378 398.597C138.433 395.672 130.215 392.65 121.796 389.009C112.737 385.099 104.245 380.968 96.0301 376.969C87.4489 372.788 79.3431 368.844 71.4654 365.585C51.1155 357.173 30.9021 351.94 13.0066 350.471C6.2745 349.917 -1.02107 349.485 -9.64328 350.839C-17.2524 352.036 -25.2526 355.212 -32.9821 358.282L-34.5505 358.905C-39.8016 361.124 -45.3082 362.85 -51.0135 364.066C-60.8664 366.005 -71.5017 365.267 -81.9598 361.919C-91.4536 358.888 -100.595 353.984 -108.823 347.508C-116.141 341.647 -121.906 335.428 -128.006 328.846C-133.397 323.057 -138.958 317.055 -145.714 311.239C-156.097 302.362 -169.614 293.94 -184.806 286.863C-201.276 279.169 -219.974 272.934 -238.896 268.836C-276.619 260.714 -318.285 260.124 -353.36 267.334L-353.055 267.846C-318.098 260.675 -276.485 261.217 -238.889 269.337C-220.016 273.414 -201.399 279.641 -184.998 287.299C-169.88 294.334 -156.432 302.72 -146.102 311.53C-139.364 317.302 -133.823 323.28 -128.462 329.072C-122.338 335.674 -116.554 341.918 -109.181 347.816C-100.864 354.364 -91.6236 359.322 -82.0265 362.388C-71.4423 365.772 -60.68 366.517 -50.7081 364.557C-44.9763 363.34 -39.4415 361.615 -34.1596 359.401L-32.5912 358.778C-24.8872 355.717 -16.9122 352.54 -9.36928 351.364C-0.818123 350.025 6.4323 350.452 13.1337 351.018C30.9437 352.484 51.0675 357.686 71.3329 366.065C79.1806 369.317 87.2763 373.259 95.8479 377.428C104.073 381.429 112.57 385.566 121.648 389.49C130.097 393.138 138.325 396.162 146.285 399.096C156.194 402.747 165.552 406.189 173.649 410.257C184.974 415.942 194.93 422.607 205.451 429.676C212.926 434.669 220.652 439.844 229.355 444.995C230.881 445.885 232.417 446.786 233.962 447.7C245.343 454.26 284.284 475.729 307.632 474.407Z" fill="url(#paint5_linear_522_2555)"/>
<path style="mix-blend-mode:screen" opacity="0.7" d="M308.195 473.197L308.03 472.579C293.756 471.899 269.227 462.433 235.094 444.402L230.409 441.933C222.985 438.003 216.346 434.198 209.924 430.522C198.235 423.818 187.195 417.495 174.75 412.512C168.474 410.006 161.392 407.892 153.88 405.631C144.007 402.672 132.838 399.338 121.601 394.463C109.214 389.113 98.3642 382.98 87.8863 377.066C82.3103 373.917 77.0514 370.951 71.8873 368.313C52.7619 358.49 33.5128 351.359 16.2256 347.687C9.90976 346.345 2.75625 344.821 -6.20318 345.387C-14.6753 345.889 -23.7695 349.175 -32.354 352.624C-37.6951 354.911 -43.2227 356.845 -48.9086 358.417C-58.3337 360.898 -68.5613 361.125 -78.8893 359.083C-87.8612 357.252 -96.7296 353.776 -105.049 348.829C-112.399 344.375 -118.365 339.487 -124.679 334.314C-130.473 329.415 -136.499 324.841 -142.72 320.618C-153.475 313.515 -167.245 306.801 -182.487 301.26C-200.594 294.761 -218.957 289.984 -237.318 286.996C-275.149 280.732 -318.027 280.546 -354.967 286.47L-354.645 287.077C-317.762 281.196 -274.985 281.39 -237.244 287.624C-218.945 290.607 -200.645 295.368 -182.598 301.842C-167.417 307.379 -153.745 314.031 -143.06 321.088C-136.871 325.291 -130.877 329.843 -125.112 334.718C-118.764 339.914 -112.774 344.823 -105.334 349.307C-96.9071 354.315 -87.9259 357.835 -78.8397 359.691C-68.3837 361.746 -58.032 361.505 -48.4937 358.984C-42.7789 357.405 -37.2239 355.46 -31.8572 353.159C-23.319 349.735 -14.2666 346.491 -5.91521 345.972C2.92247 345.419 10.0109 346.924 16.2666 348.252C33.4829 351.928 52.6421 359.029 71.6589 368.778C76.7874 371.422 82.0415 374.383 87.6026 377.523C98.0843 383.474 108.975 389.586 121.422 394.979C132.714 399.861 143.922 403.224 153.825 406.19C161.307 408.434 168.374 410.55 174.61 413.047C186.981 417.998 197.986 424.308 209.645 430.986C216.072 434.668 222.716 438.479 230.16 442.413L234.85 444.889C269.096 463.001 293.78 472.526 308.195 473.197Z" fill="url(#paint6_linear_522_2555)"/>
<path style="mix-blend-mode:screen" opacity="0.7" d="M308.732 471.929L308.665 471.225C292.737 468.658 264.371 455.092 241.551 444.151L235.961 441.491C234.36 440.734 232.764 439.972 231.174 439.207C226.101 436.835 221.425 434.586 216.903 432.407C202.445 425.434 189.957 419.411 175.628 415.163C170.675 413.699 165.208 412.466 159.393 411.18C147.87 408.607 134.807 405.69 121.39 399.866C106.603 393.453 94.0217 385.149 82.9712 377.86C79.2695 375.418 75.776 373.113 72.3379 370.963C54.5266 359.846 36.2441 350.768 19.5064 344.792L19.1009 344.646C12.7325 342.364 6.14345 340.014 -2.71941 339.792C-10.1082 339.601 -19.0719 341.699 -30.1312 346.194L-33.4941 347.574C-38.0402 349.45 -42.3291 351.221 -46.7734 352.649C-56.6088 355.764 -66.3673 356.96 -75.7799 356.221C-84.2854 355.56 -92.885 353.505 -101.253 350.133C-108.865 347.033 -115.256 343.368 -122.001 339.507C-127.423 336.408 -133.024 333.198 -139.701 330.022C-150.891 324.709 -164.857 319.777 -180.125 315.715C-198.624 310.862 -217.197 307.361 -235.697 305.24C-273.364 300.855 -317.413 301.019 -356.544 305.691L-356.199 306.412C-317.134 301.751 -273.171 301.583 -235.58 305.956C-217.134 308.07 -198.614 311.562 -180.17 316.404C-164.977 320.444 -151.071 325.363 -139.94 330.612C-133.307 333.763 -127.731 336.963 -122.334 340.051C-115.545 343.937 -109.133 347.607 -101.447 350.759C-92.9607 354.182 -84.2386 356.268 -75.6122 356.938C-66.0629 357.682 -56.2235 356.494 -46.2851 353.331C-41.7957 351.918 -37.4912 350.135 -32.9347 348.251L-29.577 346.875C-18.6204 342.418 -9.76393 340.341 -2.49651 340.527C6.18908 340.744 12.6827 343.068 18.9661 345.315L19.372 345.451C36.0192 351.407 54.2174 360.431 71.9541 371.506C75.3772 373.648 78.8659 375.946 82.5575 378.386C93.6726 385.715 106.284 394.046 121.175 400.508C134.708 406.373 147.825 409.306 159.404 411.887C165.184 413.18 170.646 414.398 175.558 415.852C189.787 420.068 202.236 426.071 216.639 433.007C221.165 435.192 225.842 437.451 230.919 439.82C232.479 440.549 234.065 441.298 235.677 442.066L241.262 444.73C264.162 455.709 292.637 469.34 308.732 471.929Z" fill="url(#paint7_linear_522_2555)"/>
<path style="mix-blend-mode:screen" opacity="0.7" d="M309.316 469.823C298.72 466.765 281.967 459.035 264.223 450.851C254.97 446.577 245.378 442.147 236.821 438.491C235.151 437.78 233.531 437.103 231.96 436.462L231.824 436.406C209.495 427.312 194.741 421.304 176.533 417.831C172.665 417.091 168.481 416.499 164.054 415.873C151.178 414.046 136.582 411.988 121.216 405.3C104.492 398.029 91.3457 387.885 79.7445 378.929C77.343 377.077 75.0751 375.331 72.8304 373.647C56.892 361.662 40.1568 351.041 22.8413 341.921L22.062 341.523C16.0695 338.398 9.87242 335.162 0.815286 334.201C-9.15904 333.152 -20.2824 336.642 -27.8697 339.766C-30.2938 340.761 -32.6633 341.794 -34.9503 342.794C-38.2799 344.244 -41.4189 345.618 -44.6291 346.85C-54.6356 350.68 -63.8097 352.795 -72.6789 353.304C-80.7914 353.769 -89.1259 353.125 -97.474 351.388C-105.995 349.632 -113.325 347.108 -121.13 344.48C-125.953 342.835 -130.933 341.141 -136.675 339.449C-150.321 335.547 -164.034 332.468 -177.74 330.227C-196.574 327.031 -215.379 324.792 -234.084 323.517C-271.399 320.961 -315.456 321.474 -358.137 324.952L-357.779 325.774C-315.169 322.27 -271.133 321.773 -233.894 324.337C-215.243 325.597 -196.491 327.818 -177.711 330.991C-164.057 333.221 -150.396 336.288 -136.802 340.173C-131.071 341.883 -126.101 343.575 -121.283 345.223C-113.449 347.889 -106.058 350.406 -97.4818 352.2C-89.0207 353.951 -80.5742 354.6 -72.3517 354.13C-63.3906 353.61 -54.1295 351.48 -44.0402 347.607C-40.7739 346.372 -37.6298 344.993 -34.3291 343.497C-32.042 342.497 -29.6778 341.468 -27.2588 340.477C-19.7746 337.391 -8.79458 333.93 0.970633 334.998C9.7696 335.927 15.847 339.096 21.7194 342.164L22.4988 342.561C39.7367 351.653 56.3979 362.234 72.2684 374.167C74.5078 375.856 76.7757 377.602 79.1723 379.448C90.8379 388.453 104.058 398.66 120.931 406.014C136.473 412.777 151.181 414.84 164.132 416.689C168.539 417.31 172.708 417.904 176.541 418.631C194.663 422.1 209.347 428.072 231.601 437.134L231.736 437.19C233.324 437.832 234.934 438.502 236.567 439.202C245.114 442.856 254.687 447.272 263.944 451.541C281.758 459.782 298.537 467.502 309.239 470.588L309.316 469.823Z" fill="url(#paint8_linear_522_2555)"/>
<path style="mix-blend-mode:screen" opacity="0.7" d="M310.014 468.371C304.557 466.013 297.099 462.418 288.463 458.25C272.995 450.795 253.735 441.516 237.674 435.423C235.948 434.748 234.311 434.174 232.724 433.621C209.189 425.414 194.188 421.837 177.404 420.427C174.546 420.187 171.533 420.026 168.342 419.85C154.921 419.088 138.271 418.207 121.021 410.682C102.604 402.662 89.2636 390.632 77.49 380.028C76.066 378.742 74.6609 377.501 73.3063 376.271C58.2549 362.91 42.5243 350.441 26.2185 338.946L25.4174 338.375C19.7191 334.326 13.7852 330.158 4.37983 328.45C-6.92053 326.39 -19.2568 330.52 -25.6056 333.159C-29.3724 334.727 -32.9655 336.43 -36.4239 338.071C-38.4616 339.039 -40.4683 339.995 -42.4732 340.899C-52.7829 345.557 -61.6453 348.625 -69.5661 350.277C-77.3813 351.868 -85.4723 352.64 -93.726 352.582C-105.006 352.567 -114.387 351.344 -126.28 349.769C-128.646 349.456 -131.108 349.137 -133.713 348.806C-146.97 347.152 -160.997 345.771 -175.406 344.696C-194.204 343.25 -213.395 342.288 -232.447 341.852C-266.965 341.105 -308.604 341.881 -359.708 344.287L-359.347 345.208C-308.259 342.825 -266.661 342.029 -232.173 342.78C-213.118 343.253 -193.976 344.173 -175.204 345.618C-160.814 346.688 -146.803 348.072 -133.587 349.737C-130.992 350.065 -128.53 350.384 -126.159 350.694C-114.23 352.261 -104.803 353.5 -93.4372 353.519C-85.1021 353.579 -76.9319 352.797 -69.0418 351.184C-61.0442 349.524 -52.1249 346.433 -41.7583 341.752C-39.7481 340.843 -37.7414 339.888 -35.6985 338.916C-32.2307 337.297 -28.6634 335.604 -24.9112 334.018C-18.671 331.421 -6.5616 327.363 4.43478 329.364C13.4904 331.01 19.2543 335.079 24.8239 339.017L25.6303 339.585C41.8859 351.047 57.5684 363.48 72.574 376.801C73.9442 378.02 75.3494 379.261 76.7577 380.559C88.6252 391.25 102.07 403.368 120.727 411.493C138.239 419.128 155.056 420.051 168.564 420.787C171.75 420.967 174.758 421.132 177.596 421.367C194.253 422.764 209.143 426.316 232.551 434.48C234.113 435.022 235.765 435.625 237.451 436.26C253.473 442.314 272.677 451.586 288.119 459.03C296.776 463.203 304.24 466.793 309.715 469.186L310.014 468.371Z" fill="url(#paint9_linear_522_2555)"/>
<path style="mix-blend-mode:screen" opacity="0.7" d="M310.723 466.9C295.79 457.997 263.779 440.686 238.527 432.296C236.803 431.723 235.134 431.177 233.497 430.725C209.568 423.725 194.615 422.598 178.28 423.013C176.452 423.061 174.552 423.134 172.58 423.211C158.076 423.764 140.032 424.453 120.831 416.067C100.864 407.337 87.027 392.797 75.9043 381.101L73.7972 378.888C60.5841 365.085 46.5323 351.428 29.613 335.95L28.9589 335.344C23.7442 330.561 17.8355 325.142 7.97365 322.653C-0.828672 320.436 -12.2272 321.839 -23.2985 326.486C-28.5306 328.686 -33.272 331.189 -37.8622 333.608L-40.2747 334.886C-50.4906 340.235 -58.8387 344.38 -66.4094 347.198C-73.9982 349.984 -81.8659 352.187 -89.9568 353.791C-102.553 356.4 -113.597 357.607 -130.718 358.236C-142.119 358.682 -155.907 358.934 -171.87 359.238L-184.49 359.433C-198.477 359.646 -214.331 359.887 -230.813 360.255C-246.667 360.635 -262.949 361.129 -280.194 361.653C-307.091 362.467 -334.924 363.323 -361.299 363.685L-360.936 364.717C-334.535 364.335 -306.701 363.48 -279.81 362.68C-262.571 362.159 -246.304 361.677 -230.44 361.289C-213.989 360.935 -198.113 360.678 -184.137 360.463L-171.502 360.266C-155.534 359.968 -141.765 359.682 -130.324 359.265C-113.137 358.635 -102.031 357.422 -89.3574 354.794C-81.2307 353.181 -73.3256 350.973 -65.6969 348.186C-58.0846 345.345 -49.6952 341.19 -39.474 335.837L-37.0461 334.557C-32.4965 332.129 -27.7611 329.65 -22.5653 327.468C-11.7013 322.897 -0.594747 321.506 7.89254 323.663C17.3029 326.047 22.8007 331.072 28.1046 335.936L28.7587 336.542C45.6532 351.999 59.6655 365.617 72.8638 379.401L74.9709 381.615C86.2021 393.426 100.202 408.141 120.461 416.987C140.02 425.53 158.263 424.839 172.921 424.279C174.883 424.2 176.778 424.131 178.611 424.069C194.846 423.631 209.649 424.761 233.382 431.702C234.967 432.163 236.657 432.672 238.345 433.253C263.446 441.588 295.327 458.809 310.184 467.69L310.723 466.9Z" fill="url(#paint10_linear_522_2555)"/>
<path style="mix-blend-mode:screen" opacity="0.7" d="M311.448 465.38C298.258 455.048 265.879 436.679 239.384 429.091C237.642 428.585 235.913 428.138 234.254 427.748C210.129 422.069 194.408 423.465 179.15 425.564L177.016 425.858C162.226 427.923 141.977 430.746 120.647 421.411C99.3165 412.076 85.6794 395.417 74.7801 382.055L74.2887 381.433C61.1989 365.413 48.5476 350.799 37.4017 337.891L32.588 332.324C27.6118 326.562 21.9799 320.033 11.6084 316.736C2.43477 313.809 -9.75233 314.931 -21.0197 319.705C-26.9526 322.339 -32.6595 325.367 -38.1101 328.773C-42.0972 331.162 -45.7257 333.422 -49.239 335.614C-54.2152 338.717 -58.9133 341.641 -63.2708 344.061C-71.499 348.624 -79.4383 352.108 -86.1176 354.914C-99.2721 360.629 -113.19 364.888 -127.672 367.631C-138.989 369.854 -153.044 371.872 -170.63 373.797C-186.558 375.536 -205.728 377.112 -229.141 378.702C-281.454 382.296 -325.218 383.722 -362.857 383.126L-362.512 384.265C-324.826 384.855 -281.047 383.408 -228.672 379.828C-205.209 378.259 -186.054 376.664 -170.107 374.96C-152.479 373.025 -138.403 370.98 -127.03 368.774C-112.465 366.02 -98.4657 361.748 -85.2275 356.02C-78.5271 353.199 -70.5565 349.701 -62.2865 345.116C-57.9133 342.685 -53.2047 339.753 -48.2179 336.642C-44.7049 334.46 -41.0711 332.196 -37.0999 329.819C-31.6903 326.433 -26.0252 323.423 -20.1345 320.805C-9.15327 316.147 2.65882 315.039 11.4673 317.844C21.3112 320.971 26.524 327.012 31.5641 332.855L36.3827 338.428C47.5292 351.316 60.1756 365.924 73.2402 381.932L73.7316 382.555C84.7635 396.085 98.4989 412.869 120.318 422.441C142.138 432.013 162.641 429.128 177.617 427.002L179.746 426.712C194.876 424.621 210.407 423.229 234.293 428.849C235.921 429.233 237.614 429.677 239.326 430.166C265.522 437.661 297.599 455.86 310.664 466.098L311.448 465.38Z" fill="url(#paint11_linear_522_2555)"/>
<path style="mix-blend-mode:screen" opacity="0.7" d="M312.163 463.816C299.314 450.949 266.634 432.189 240.223 425.809C238.452 425.378 236.695 425.007 235.008 424.703C210.807 420.302 195.152 424.254 180.005 428.082C166.596 431.47 144.141 437.117 120.447 426.737C97.6604 416.748 84.4457 397.82 74.7892 383.996C68.1465 374.514 61.7005 365.44 55.4703 356.672C48.7248 347.187 42.3569 338.234 36.4471 329.723L36.2155 329.43C31.5065 322.642 26.1651 314.947 15.2366 310.793C5.58859 307.098 -7.11251 307.906 -18.7286 312.881C-24.8007 315.596 -30.5544 318.857 -35.9337 322.632C-42.552 327.116 -48.2921 331.647 -53.3551 335.649C-55.7093 337.506 -57.9364 339.259 -60.1296 340.926C-67.8765 346.795 -75.358 351.689 -82.2876 356.098C-95.4892 364.503 -107.74 371.298 -124.655 377.14C-136.545 381.267 -151.208 385.08 -168.27 388.487C-185.332 391.894 -205.206 394.776 -227.509 397.236C-261.053 400.978 -312.048 404.958 -364.487 402.651L-364.149 403.889C-311.607 406.198 -260.545 402.198 -226.944 398.443C-204.604 395.976 -184.63 393.028 -167.59 389.667C-150.551 386.307 -135.746 382.428 -123.799 378.278C-106.79 372.405 -94.4665 365.575 -81.212 357.13C-74.2613 352.705 -66.764 347.8 -58.9906 341.911C-56.7981 340.264 -54.5809 338.499 -52.2162 336.633C-47.164 332.649 -41.4345 328.127 -34.8476 323.656C-29.5231 319.919 -23.8273 316.692 -17.8158 314.006C-6.5441 309.17 5.69324 308.382 14.9155 311.889C25.2194 315.807 30.3798 323.23 34.9322 329.787L35.1638 330.08C41.069 338.575 47.4513 347.557 54.1969 357.042C60.4271 365.81 66.8734 374.873 73.4862 384.328C83.275 398.341 96.6763 417.527 120.01 427.761C144.322 438.424 167.116 432.671 180.726 429.231C195.767 425.493 211.272 421.595 235.084 425.909C236.736 426.21 238.452 426.572 240.165 427.016C265.464 433.128 298.475 451.848 311.086 464.456L312.163 463.816Z" fill="url(#paint12_linear_522_2555)"/>
<path style="mix-blend-mode:screen" opacity="0.7" d="M312.854 462.192C301.471 447.896 268.35 427.86 241.058 422.442C239.249 422.085 237.458 421.794 235.747 421.573C212.91 418.635 198.45 424.011 183.142 429.715L180.868 430.555C164.703 436.543 143.207 442.126 120.242 432.031C98.0645 422.292 85.4055 403.416 75.2746 386.493L71.0843 379.503C59.8254 360.733 49.1911 343.001 39.8713 326.495C35.4425 318.648 30.4156 309.743 18.9224 304.708C7.00262 299.475 -7.13351 301.894 -16.3862 305.902C-22.6106 308.682 -28.4144 312.176 -33.7058 316.329C-41.4758 322.227 -47.7365 328.497 -53.3171 334.056L-56.8933 337.621C-64.6564 345.249 -72.0971 351.767 -78.3576 357.139C-89.9953 367.119 -103.281 377.599 -121.52 386.572C-133.911 392.679 -148.807 398.242 -165.805 403.12C-185.343 408.535 -205.368 412.76 -225.786 415.775C-258.898 420.876 -310.087 426.128 -365.995 422.223L-365.685 423.557C-309.638 427.446 -258.284 422.2 -225.094 417.091C-204.614 414.07 -184.53 409.831 -164.935 404.392C-147.865 399.5 -132.896 393.901 -120.442 387.768C-102.083 378.754 -88.7337 368.236 -77.0426 358.206C-70.7715 352.826 -63.3149 346.296 -55.5352 338.636C-54.3599 337.483 -53.1676 336.288 -51.9488 335.073C-46.4261 329.548 -40.1552 323.28 -32.4434 317.426C-27.2228 313.327 -21.4967 309.878 -15.3555 307.133C-6.41194 303.258 7.17533 300.892 18.5004 305.863C29.3075 310.595 34.1543 319.187 38.4274 326.762C47.7567 343.29 58.396 361.029 69.6648 379.812L73.8452 386.788C84.147 403.992 97.0227 423.164 119.81 433.174C143.446 443.563 165.354 437.87 181.831 431.797L184.105 430.957C199.23 425.321 213.523 420 235.929 422.883C237.598 423.096 239.338 423.385 241.101 423.737C267.916 429.054 300.417 448.688 311.558 462.677L312.854 462.192Z" fill="url(#paint13_linear_522_2555)"/>
<path style="mix-blend-mode:screen" opacity="0.7" d="M313.547 460.498C302.234 442.865 268.083 423.087 241.879 419.015C240.047 418.72 238.232 418.513 236.477 418.38C214.368 416.677 200.636 423.552 186.099 430.833L181.722 433.011C159.001 444.179 138.823 445.588 120.037 437.325C97.9124 427.586 85.688 408.326 75.7602 388.962C65.5607 369.071 53.722 345.708 43.3344 323.186C39.5136 314.867 34.7595 304.506 22.6381 298.531C14.4656 294.503 0.541058 292.465 -14.0373 298.825C-20.4308 301.677 -26.2981 305.413 -31.5035 309.948C-39.763 316.925 -46.0446 324.778 -51.6219 331.722L-53.6823 334.271C-59.6748 341.697 -66.0849 349.076 -74.4331 358.161C-85.5903 370.189 -99.5456 384.098 -118.426 396.014C-131.238 404.12 -146.363 411.451 -163.394 417.793C-182.945 424.899 -203.237 430.446 -224.113 434.392C-271.539 443.656 -321.146 446.251 -367.581 441.858L-367.294 443.294C-320.662 447.679 -270.885 445.096 -223.292 435.808C-200.854 431.438 -180.355 425.854 -162.328 419.154C-145.218 412.773 -130.009 405.398 -117.134 397.255C-98.1474 385.269 -84.1333 371.306 -72.9226 359.228C-64.5634 350.124 -58.148 342.741 -52.1285 335.285L-50.0681 332.736C-44.5178 325.823 -38.2638 318.021 -30.084 311.104C-24.9709 306.646 -19.2105 302.97 -12.9346 300.159C-4.16331 296.33 10.2728 293.92 22.058 299.738C33.421 305.342 38.0119 315.335 41.6928 323.358C52.1212 345.9 63.9694 369.286 74.1682 389.197C84.2653 408.905 96.7408 428.536 119.57 438.567C138.999 447.098 159.693 445.721 182.893 434.323L187.275 432.141C201.623 424.953 215.191 418.17 236.805 419.815C238.509 419.946 240.272 420.153 242.042 420.434C267.658 424.426 301.036 443.706 312.064 460.902L313.547 460.498Z" fill="url(#paint14_linear_522_2555)"/>
<path style="mix-blend-mode:screen" opacity="0.7" d="M314.247 458.722C304.116 439.225 270.03 418.594 242.761 415.453C240.889 415.233 239.04 415.106 237.262 415.058C215.573 414.47 201.723 423.283 188.321 431.76C186.437 432.966 184.542 434.169 182.648 435.331C167.63 444.611 144.517 453.348 119.873 442.48C96.7416 432.282 84.8648 410.874 76.2991 391.284C64.3029 363.891 54.6602 340.482 46.8054 319.706C43.5357 311.007 39.0482 299.107 26.3731 292.176C13.3712 285.089 -2.24678 287.419 -11.662 291.564C-18.2049 294.494 -24.1178 298.472 -29.2182 303.374C-37.5976 311.178 -43.6289 320.431 -48.9477 328.596L-50.3675 330.768C-56.4301 340.024 -62.9809 349.286 -70.4058 359.054C-85.6979 379.073 -99.5197 393.368 -115.225 405.404C-129.298 416.052 -144.582 425.11 -160.875 432.456C-180.428 441.244 -201 448.137 -222.368 453.06C-270.003 464.292 -320.728 467.214 -369.121 461.554L-368.868 463.091C-320.232 468.779 -269.273 465.852 -221.434 454.567C-199.97 449.642 -179.303 442.739 -159.66 433.932C-143.281 426.546 -127.917 417.439 -113.771 406.731C-97.9855 394.635 -84.0995 380.282 -68.7423 360.183C-61.306 350.387 -54.7393 341.113 -48.6599 331.824L-47.2401 329.652C-41.6914 321.144 -35.9561 312.344 -27.668 304.629C-22.6709 299.83 -16.882 295.932 -10.4782 293.054C-1.45847 289.086 13.4152 286.813 25.653 293.48C37.5448 299.946 41.8387 311.439 44.9991 319.848C52.8635 340.647 62.5208 364.085 74.5265 391.502C83.2655 411.483 95.4229 433.333 119.362 443.888C144.901 455.148 168.607 446.216 183.996 436.738C185.91 435.56 187.811 434.353 189.706 433.149C202.892 424.754 216.524 416.085 237.695 416.64C239.417 416.671 241.214 416.796 242.997 417.023C269.083 420.009 302.886 440.411 312.54 458.991L314.247 458.722Z" fill="url(#paint15_linear_522_2555)"/>
<path style="mix-blend-mode:screen" opacity="0.7" d="M314.949 456.878C306.064 435.793 271.392 413.907 243.579 411.809C241.673 411.67 239.795 411.632 237.981 411.665C216.476 412.189 203.093 422.604 190.107 432.68C187.961 434.354 185.741 436.074 183.533 437.723C171.487 446.68 147.172 459.884 119.661 447.726C95.6262 437.105 84.4998 414.441 76.7855 393.674C66.294 365.466 57.6237 340.139 50.2729 316.248C47.5081 307.245 43.3654 293.687 30.1117 285.82C21.6535 280.795 6.25637 277.381 -9.30076 284.282C-16.0066 287.301 -21.9759 291.531 -26.9741 296.805C-35.3472 305.387 -40.7969 315.55 -46.0734 325.37L-47.1186 327.284C-53.0846 338.369 -59.579 349.377 -66.4456 360.01C-81.0982 382.714 -95.6103 400.163 -112.07 414.927C-126.153 427.463 -141.676 438.304 -158.417 447.296C-177.956 457.695 -198.804 465.903 -220.668 471.806C-268.626 485.015 -320.514 488.304 -370.703 481.318L-370.489 482.961C-319.989 489.974 -267.809 486.667 -219.594 473.395C-197.613 467.462 -176.655 459.208 -157.015 448.75C-140.184 439.715 -124.58 428.816 -110.428 416.211C-93.9037 401.399 -79.3372 383.878 -64.5773 361.084C-57.7152 350.434 -51.2044 339.403 -45.2168 328.292L-44.1983 326.398C-38.9603 316.637 -33.5444 306.55 -25.2789 298.069C-20.396 292.915 -14.5637 288.781 -8.0112 285.831C6.82676 279.249 21.3477 282.405 29.2651 287.111C40.7128 293.908 44.8138 304.768 48.3309 316.248C55.6909 340.172 64.3758 365.528 74.8716 393.763C78.1666 402.64 82.8899 414.17 90.2111 424.654C98.1867 436.086 107.645 444.107 119.131 449.182C147.735 461.818 172.727 448.296 185.083 439.117C187.297 437.453 189.547 435.76 191.679 434.057C204.446 424.125 217.652 413.853 238.584 413.368C240.324 413.329 242.129 413.372 243.957 413.509C270.91 415.498 304.488 436.645 313.065 457.015L314.949 456.878Z" fill="url(#paint16_linear_522_2555)"/>
<path style="mix-blend-mode:screen" opacity="0.7" d="M315.65 454.953C307.812 431.888 273.217 409.137 244.468 408.128C242.553 408.063 240.654 408.098 238.778 408.233C217.309 409.764 204.247 421.853 191.66 433.504C189.314 435.673 186.891 437.92 184.473 440.042C155.15 465.686 127.32 456.385 119.476 452.934C94.4194 441.841 83.772 416.684 77.2982 396.01C68.3052 367.264 60.384 339.238 53.7854 312.673C50.7112 300.278 46.6479 287.494 33.9017 279.342C20.747 270.92 3.93003 272.035 -6.9012 276.877C-13.7659 279.98 -19.7857 284.456 -24.6704 290.09C-32.8801 299.298 -37.9146 310.605 -42.7945 321.523L-43.7511 323.658C-49.4088 336.374 -55.6651 348.883 -62.3458 360.833C-76.43 385.992 -91.6363 406.77 -108.804 424.333C-122.914 438.736 -138.674 451.369 -155.852 462.044C-175.363 474.069 -196.492 483.63 -218.873 490.564C-267.258 505.731 -320.264 509.412 -372.228 501.13L-372.053 502.858C-319.742 511.212 -266.365 507.535 -217.689 492.261C-195.183 485.282 -173.936 475.665 -154.312 463.575C-137.044 452.844 -121.202 440.145 -107.018 425.667C-89.7524 408.011 -74.491 387.152 -60.3515 361.9C-53.654 349.918 -47.3812 337.386 -41.7117 324.631L-40.7551 322.496C-35.9145 311.658 -30.9044 300.45 -22.8294 291.364C-18.069 285.864 -12.1994 281.494 -5.50454 278.465C4.77518 273.866 20.6522 272.75 32.9175 280.618C44.8307 288.245 48.7219 300.571 51.6957 312.547C58.309 339.141 66.2288 367.208 75.2367 395.973C81.8559 417.124 92.8062 442.882 118.912 454.44C131.158 459.866 143.959 460.872 156.925 457.407C169.891 453.941 180.04 446.803 186.199 441.453C188.634 439.318 191.062 437.068 193.414 434.894C205.839 423.395 218.685 411.51 239.52 410.01C241.32 409.892 243.142 409.871 244.979 409.947C272.681 410.884 306.068 432.785 313.597 454.97L315.65 454.953Z" fill="url(#paint17_linear_522_2555)"/>
<path style="mix-blend-mode:screen" opacity="0.7" d="M316.348 452.942C312.837 440.015 301.931 427.033 286.467 417.298C271.003 407.564 253.889 402.966 239.547 404.671C218.079 407.213 205.321 420.942 193.034 434.245C190.553 436.923 187.984 439.698 185.406 442.297C162.535 465.39 136.272 465.587 119.327 458.073C93.1081 446.441 83.1186 418.377 77.8459 398.235C70.1069 368.559 63.1977 338.512 57.3452 308.958C56.1773 303.062 54.681 296.215 51.717 289.703C48.4128 282.432 43.8395 276.866 37.746 272.698C24.1062 263.366 6.72303 264.265 -4.44516 269.302C-24.9987 278.561 -32.4383 298.572 -39.6242 317.916L-40.3804 319.935C-66.7629 390.684 -103.707 442.026 -153.296 476.916C-213.564 519.225 -293.906 535.337 -373.757 521.098L-373.621 522.933C-293.137 537.314 -212.18 521.135 -151.524 478.535C-101.771 443.429 -64.6784 391.895 -38.1983 320.9L-37.4472 318.874C-30.3484 299.779 -23.0068 280.024 -2.98521 271.003C7.58141 266.246 23.9229 265.33 36.6263 274.028C49.0228 282.51 52.5572 295.836 55.1357 308.785C60.9925 338.366 67.8795 368.45 75.659 398.167C86.8902 441.18 105.63 453.886 118.752 459.713C145.781 471.699 171.881 459.291 187.336 443.735C189.93 441.124 192.509 438.342 194.991 435.653C207.114 422.575 219.655 409.05 240.476 406.578C254.167 404.907 270.59 409.356 285.445 418.676C300.301 427.996 310.783 440.485 314.151 452.861L316.348 452.942Z" fill="url(#paint18_linear_522_2555)"/>
</g>
<defs>
<radialGradient id="paint0_radial_522_2555" cx="0" cy="0" r="1" gradientUnits="userSpaceOnUse" gradientTransform="translate(203.223 310.636) rotate(44.9947) scale(27.534)">
<stop stop-color="#AAFF00"/>
<stop offset="1" stop-color="#00FFE0" stop-opacity="0"/>
</radialGradient>
<radialGradient id="paint1_radial_522_2555" cx="0" cy="0" r="1" gradientUnits="userSpaceOnUse" gradientTransform="translate(-13.3018 417.346) rotate(135.005) scale(61.9259)">
<stop stop-color="#AAFF00"/>
<stop offset="1" stop-color="#00FFE0" stop-opacity="0"/>
</radialGradient>
<linearGradient id="paint2_linear_522_2555" x1="-15.8091" y1="278.931" x2="-46.3833" y2="386.108" gradientUnits="userSpaceOnUse">
<stop stop-color="#FFFFE0"/>
<stop offset="1" stop-color="#FEFCFF"/>
</linearGradient>
<linearGradient id="paint3_linear_522_2555" x1="-17.2107" y1="296.61" x2="-42.1014" y2="383.893" gradientUnits="userSpaceOnUse">
<stop stop-color="#FFFFE0"/>
<stop offset="1" stop-color="#FEFCFF"/>
</linearGradient>
<linearGradient id="paint4_linear_522_2555" x1="-18.5753" y1="313.915" x2="-37.9932" y2="382.025" gradientUnits="userSpaceOnUse">
<stop stop-color="#FFFFE0"/>
<stop offset="1" stop-color="#FEFCFF"/>
</linearGradient>
<linearGradient id="paint5_linear_522_2555" x1="-19.8977" y1="330.655" x2="-34.0094" y2="380.164" gradientUnits="userSpaceOnUse">
<stop stop-color="#FFFFE0"/>
<stop offset="1" stop-color="#FEFCFF"/>
</linearGradient>
<linearGradient id="paint6_linear_522_2555" x1="-20.176" y1="336.981" x2="-32.1107" y2="378.861" gradientUnits="userSpaceOnUse">
<stop stop-color="#FFFFE0"/>
<stop offset="1" stop-color="#FEFCFF"/>
</linearGradient>
<linearGradient id="paint7_linear_522_2555" x1="-19.4736" y1="333.379" x2="-37.6083" y2="397.023" gradientUnits="userSpaceOnUse">
<stop stop-color="#FFFFE0"/>
<stop offset="1" stop-color="#FEFCFF"/>
</linearGradient>
<linearGradient id="paint8_linear_522_2555" x1="-18.6066" y1="328.032" x2="-43.4296" y2="415.157" gradientUnits="userSpaceOnUse">
<stop stop-color="#FFFFE0"/>
<stop offset="1" stop-color="#FEFCFF"/>
</linearGradient>
<linearGradient id="paint9_linear_522_2555" x1="-17.5925" y1="322.079" x2="-49.2914" y2="433.341" gradientUnits="userSpaceOnUse">
<stop stop-color="#FFFFE0"/>
<stop offset="1" stop-color="#FEFCFF"/>
</linearGradient>
<linearGradient id="paint10_linear_522_2555" x1="-16.5265" y1="315.759" x2="-55.2211" y2="451.576" gradientUnits="userSpaceOnUse">
<stop stop-color="#FFFFE0"/>
<stop offset="1" stop-color="#FEFCFF"/>
</linearGradient>
<linearGradient id="paint11_linear_522_2555" x1="-15.4271" y1="309.16" x2="-61.215" y2="469.864" gradientUnits="userSpaceOnUse">
<stop stop-color="#FFFFE0"/>
<stop offset="1" stop-color="#FEFCFF"/>
</linearGradient>
<linearGradient id="paint12_linear_522_2555" x1="-14.3158" y1="302.364" x2="-67.2693" y2="488.197" gradientUnits="userSpaceOnUse">
<stop stop-color="#FFFFE0"/>
<stop offset="1" stop-color="#FEFCFF"/>
</linearGradient>
<linearGradient id="paint13_linear_522_2555" x1="-13.1897" y1="295.374" x2="-73.381" y2="506.574" gradientUnits="userSpaceOnUse">
<stop stop-color="#FFFFE0"/>
<stop offset="1" stop-color="#FEFCFF"/>
</linearGradient>
<linearGradient id="paint14_linear_522_2555" x1="-12.0448" y1="288.239" x2="-79.5389" y2="525.014" gradientUnits="userSpaceOnUse">
<stop stop-color="#FFFFE0"/>
<stop offset="1" stop-color="#FEFCFF"/>
</linearGradient>
<linearGradient id="paint15_linear_522_2555" x1="-10.8811" y1="280.87" x2="-85.7623" y2="543.489" gradientUnits="userSpaceOnUse">
<stop stop-color="#FFFFE0"/>
<stop offset="1" stop-color="#FEFCFF"/>
</linearGradient>
<linearGradient id="paint16_linear_522_2555" x1="-9.71837" y1="273.43" x2="-92.0319" y2="562.022" gradientUnits="userSpaceOnUse">
<stop stop-color="#FFFFE0"/>
<stop offset="1" stop-color="#FEFCFF"/>
</linearGradient>
<linearGradient id="paint17_linear_522_2555" x1="-8.51653" y1="265.726" x2="-98.3648" y2="580.615" gradientUnits="userSpaceOnUse">
<stop stop-color="#FFFFE0"/>
<stop offset="1" stop-color="#FEFCFF"/>
</linearGradient>
<linearGradient id="paint18_linear_522_2555" x1="-7.31874" y1="257.896" x2="-104.764" y2="599.259" gradientUnits="userSpaceOnUse">
<stop stop-color="#FEFCFF" stop-opacity="0"/>
<stop offset="0.388542" stop-color="#FFFFE0"/>
<stop offset="0.591667" stop-color="#FEFCFF" stop-opacity="0"/>
</linearGradient>
</defs>
</svg>
