<svg width="809" height="430" viewBox="0 0 809 430" fill="none" xmlns="http://www.w3.org/2000/svg">
<g style="mix-blend-mode:screen" opacity="0.3">
<path d="M743.824 327.861L743.662 327.656C733.569 330.849 720.787 330.122 706.717 325.545C693.691 321.193 681.121 314.583 669.602 306.031C657.717 297.246 647.099 287.1 636.808 277.305C627.983 268.904 618.853 260.212 608.981 252.383C553.113 208.105 469.336 193.405 418.238 218.969C415.854 220.162 413.466 221.465 411.154 222.719C402.106 227.664 392.719 232.73 380.777 233.031C369.833 233.308 357.733 229.478 345.806 221.955C335.101 215.167 325.57 206.294 317.88 195.956C310.185 185.504 304.435 174.348 298.871 163.563C294.157 154.418 289.282 144.958 283.236 135.954C273.606 121.601 260.394 107.822 245.02 96.0844C229.277 84.1403 212.136 74.6753 194.314 68.0855C176.177 61.4363 157.625 57.7046 139.383 57.0363C121.241 56.3974 103.972 58.9288 89.429 64.3823L89.5678 64.5574C104.06 59.1329 121.27 56.5787 139.401 57.2453C157.607 57.9109 176.122 61.6345 194.223 68.2708C212.01 74.8531 229.117 84.3003 244.831 96.2185C260.167 107.927 273.358 121.692 282.949 136.027C288.972 145.001 293.861 154.469 298.566 163.602C304.134 174.403 309.894 185.571 317.603 196.041C325.317 206.414 334.879 215.316 345.62 222.124C357.616 229.693 369.78 233.542 380.794 233.26C392.806 232.954 402.204 227.85 411.288 222.918C413.579 221.67 415.987 220.361 418.371 219.168C469.391 193.682 553.04 208.344 608.796 252.553C618.663 260.375 627.802 269.08 636.599 277.455C646.914 287.24 657.577 297.39 669.458 306.169C681.013 314.749 693.624 321.381 706.69 325.749C720.83 330.341 733.671 331.071 743.824 327.861Z" fill="url(#paint0_linear_1502_1900)" style="mix-blend-mode:screen"/>
<path d="M744.409 326.751L744.214 326.443C734.605 328.737 722.045 327.373 707.896 322.501C694.884 317.879 682.27 311.412 670.458 303.308C669.005 302.316 667.509 301.27 666.003 300.191C656.155 293.117 647.237 285.483 638.605 278.096C629.521 270.315 620.13 262.272 609.908 255.162C594.35 244.343 575.998 235.997 560.094 229.265C539.911 220.718 523.534 215.112 508.554 211.608C485.842 206.314 463.733 205.006 444.623 207.843C436.623 208.965 428.889 210.907 421.528 213.643C417.697 215.089 413.981 216.826 410.037 218.668C406.479 220.324 402.825 222.024 399.063 223.505C393.971 225.624 388.497 226.974 382.787 227.518C372.266 228.361 361.187 225.804 349.863 219.92C339.274 214.388 329.615 206.689 321.589 197.383C314.061 188.546 308.232 179.029 302.603 169.825C297.638 161.719 292.507 153.341 286.183 145.336C276.452 133.067 263.424 121.267 248.445 111.241C231.834 100.273 214.09 91.7813 195.863 86.0775C177.202 80.2871 158.302 77.1184 139.721 76.6649C121.141 76.2274 103.166 78.5135 87.8141 83.3388L88.0494 83.6355C103.352 78.7995 121.267 76.5104 139.826 76.9735C158.359 77.4301 177.21 80.5933 195.824 86.3697C214.002 92.0574 231.7 100.525 248.267 111.463C263.223 121.449 276.233 133.185 285.905 145.431C292.23 153.406 297.336 161.784 302.282 169.866C307.94 179.076 313.758 188.621 321.31 197.488C329.385 206.842 339.099 214.581 349.745 220.145C361.005 225.991 372.481 228.644 382.963 227.792C388.709 227.243 394.218 225.885 399.345 223.757C403.107 222.276 406.771 220.568 410.314 218.914C414.253 217.075 417.974 215.344 421.789 213.9C429.129 211.174 436.839 209.237 444.815 208.115C463.864 205.285 485.923 206.592 508.575 211.884C523.521 215.374 539.868 220.974 560.021 229.505C575.867 236.309 594.201 244.631 609.695 255.401C619.898 262.497 629.279 270.528 638.339 278.279C646.975 285.682 655.913 293.331 665.766 300.411C667.271 301.489 668.772 302.542 670.226 303.534C682.092 311.687 694.768 318.189 707.845 322.831C722.094 327.725 734.738 329.092 744.409 326.751Z" fill="url(#paint1_linear_1502_1900)" style="mix-blend-mode:screen"/>
<path d="M745.016 325.645L744.803 325.232C724.526 328.365 693.538 314.547 671.323 300.594C669.848 299.671 668.33 298.693 666.797 297.698C657.383 291.576 648.962 285.176 640.82 278.993C630.905 271.46 621.539 264.348 610.844 257.974C599.454 251.183 586.07 245.653 571.88 239.783C567.973 238.168 563.938 236.494 559.908 234.787C556.608 233.401 553.363 232.013 550.173 230.621C535.752 224.43 522.123 218.581 508.955 214.406C487.362 207.58 466.195 204.382 447.753 205.167C439.9 205.379 432.237 206.441 424.889 208.337C419.308 209.823 413.525 212.26 407.925 214.616C405.736 215.539 403.466 216.495 401.227 217.388C394.95 219.879 389.888 221.321 384.87 222.028C374.526 223.43 363.483 221.778 352.944 217.253C342.905 213.03 333.495 206.769 325.354 198.897C317.977 191.608 312.081 183.679 306.349 175.987C301.15 168.999 295.778 161.772 289.182 154.833C279.153 144.274 265.854 134.203 250.747 125.712C234.566 116.595 216.129 109.192 197.419 104.273C159.988 94.4838 119.446 93.8491 86.1896 102.52L86.4471 102.928C119.618 94.2734 160.054 94.9104 197.391 104.674C216.036 109.564 234.424 116.946 250.55 126.036C265.599 134.495 278.834 144.516 288.825 155.027C295.386 161.943 300.748 169.148 305.918 176.1C311.646 183.806 317.57 191.761 324.987 199.089C333.185 207.037 342.667 213.363 352.786 217.636C363.435 222.204 374.594 223.872 385.047 222.459C390.115 221.752 395.187 220.312 401.51 217.796C403.758 216.906 406.029 215.95 408.223 215.022C413.792 212.68 419.575 210.243 425.131 208.767C432.439 206.87 440.063 205.81 447.879 205.606C466.246 204.83 487.343 208.004 508.845 214.829C521.974 218.986 535.583 224.831 549.995 231.02C553.201 232.398 556.445 233.785 559.725 235.179C563.759 236.893 567.799 238.563 571.706 240.178C585.857 246.03 599.231 251.557 610.581 258.329C621.242 264.691 630.588 271.789 640.493 279.309C648.645 285.505 657.086 291.898 666.509 298.042C668.047 299.044 669.57 300.018 671.046 300.941C693.424 314.934 724.581 328.809 745.016 325.645Z" fill="url(#paint2_linear_1502_1900)" style="mix-blend-mode:screen"/>
<path d="M745.591 324.46L745.381 323.945C722.243 325.376 683.501 304.274 672.182 297.775C670.617 296.882 669.083 295.991 667.578 295.104C658.881 290 651.187 284.886 643.708 279.96C633.161 272.933 623.13 266.314 611.767 260.698C603.603 256.672 594.261 253.247 584.3 249.669C576.355 246.794 568.136 243.824 559.716 240.237C550.655 236.384 542.161 232.307 533.944 228.36C525.361 224.233 517.253 220.34 509.374 217.131C489.021 208.847 468.809 203.744 450.92 202.39C444.19 201.88 436.897 201.495 428.28 202.906C420.677 204.152 412.684 207.381 404.963 210.503L403.396 211.136C398.15 213.39 392.649 215.152 386.948 216.405C377.102 218.408 366.47 217.739 356.012 214.458C346.518 211.487 337.374 206.641 329.141 200.216C321.817 194.401 316.046 188.217 309.94 181.672C304.542 175.917 298.976 169.948 292.214 164.174C281.823 155.361 268.299 147.023 253.104 140.043C236.631 132.453 217.933 126.337 199.013 122.361C161.296 114.48 119.647 114.16 84.598 121.6L84.9033 122.11C119.835 114.71 161.43 114.982 199.021 122.861C217.892 126.817 236.509 132.926 252.914 140.481C268.035 147.42 281.489 155.722 291.827 164.468C298.57 170.197 304.117 176.142 309.484 181.901C315.615 188.466 321.405 194.675 328.783 200.527C337.106 207.023 346.349 211.923 355.946 214.928C366.53 218.244 377.289 218.92 387.254 216.894C392.981 215.64 398.511 213.879 403.787 211.629L405.354 210.996C413.05 207.884 421.017 204.654 428.555 203.429C437.101 202.034 444.348 202.414 451.048 202.937C468.852 204.288 488.974 209.361 509.242 217.612C517.091 220.814 525.189 224.705 533.762 228.819C541.989 232.769 550.488 236.852 559.569 240.719C568.019 244.313 576.248 247.285 584.208 250.168C594.118 253.756 603.477 257.138 611.575 261.156C622.904 266.769 632.865 273.372 643.392 280.375C650.87 285.321 658.6 290.448 667.307 295.545C668.833 296.425 670.37 297.317 671.915 298.221C683.3 304.709 722.255 325.933 745.591 324.46Z" fill="url(#paint3_linear_1502_1900)" style="mix-blend-mode:screen"/>
<path d="M746.154 323.221L745.988 322.604C731.72 322.017 707.186 312.708 673.041 294.896L668.355 292.456C660.929 288.574 654.286 284.811 647.862 281.177C636.168 274.547 625.124 268.295 612.676 263.391C606.399 260.926 599.317 258.857 591.804 256.645C581.931 253.749 570.762 250.487 559.523 245.684C547.133 240.414 536.279 234.35 525.797 228.503C520.218 225.39 514.957 222.457 509.792 219.853C490.66 210.152 471.408 203.144 454.123 199.585C447.808 198.283 440.655 196.805 431.7 197.429C423.232 197.987 414.146 201.331 405.57 204.837C400.234 207.158 394.711 209.129 389.03 210.737C379.612 213.28 369.389 213.574 359.062 211.598C350.091 209.825 341.222 206.406 332.898 201.512C325.545 197.106 319.575 192.255 313.256 187.122C307.457 182.26 301.427 177.724 295.202 173.541C284.442 166.507 270.667 159.881 255.424 154.438C237.314 148.055 218.952 143.397 200.594 140.527C162.77 134.507 119.908 134.599 82.9915 140.763L83.3148 141.369C120.175 135.248 162.935 135.165 200.669 141.155C218.965 144.019 237.265 148.663 255.314 155.021C270.496 160.461 284.172 167.024 294.864 174.014C301.056 178.177 307.054 182.69 312.823 187.529C319.177 192.685 325.171 197.555 332.614 201.992C341.045 206.946 350.028 210.408 359.113 212.206C369.567 214.193 379.915 213.885 389.446 211.302C395.156 209.686 400.706 207.705 406.067 205.369C414.597 201.889 423.641 198.586 431.988 198.012C440.822 197.403 447.91 198.861 454.165 200.149C471.379 203.714 490.541 210.692 509.564 220.319C514.694 222.931 519.95 225.858 525.514 228.962C536 234.846 546.895 240.888 559.344 246.201C570.638 251.011 581.847 254.302 591.75 257.204C599.233 259.4 606.3 261.471 612.537 263.927C624.91 268.799 635.919 275.039 647.584 281.642C654.013 285.283 660.66 289.052 668.107 292.938L672.798 295.384C707.056 313.276 731.744 322.644 746.154 323.221Z" fill="url(#paint4_linear_1502_1900)" style="mix-blend-mode:screen"/>
<path d="M746.691 321.929L746.623 321.225C730.697 318.762 702.322 305.38 679.494 294.588L673.902 291.964C672.301 291.217 670.705 290.466 669.114 289.712C664.04 287.372 659.362 285.154 654.838 283.004C640.376 276.125 627.883 270.183 613.553 266.029C608.601 264.597 603.134 263.399 597.319 262.151C585.796 259.652 572.734 256.821 559.313 251.084C544.522 244.767 531.933 236.544 520.876 229.327C517.173 226.909 513.677 224.628 510.237 222.5C492.416 211.499 474.127 202.54 457.387 196.672L456.982 196.529C450.612 194.289 444.022 191.981 435.162 191.817C427.776 191.673 418.818 193.829 407.769 198.396L404.409 199.797C399.868 201.703 395.583 203.502 391.142 204.958C381.315 208.137 371.561 209.397 362.151 208.718C353.648 208.112 345.048 206.113 336.679 202.796C329.065 199.745 322.67 196.121 315.923 192.305C310.498 189.241 304.894 186.067 298.215 182.934C287.021 177.694 273.053 172.853 257.785 168.89C239.286 164.157 220.714 160.777 202.218 158.776C164.559 154.635 120.525 155.084 81.414 160.009L81.76 160.728C120.805 155.814 164.752 155.361 202.336 159.491C220.779 161.485 239.297 164.857 257.741 169.58C272.935 173.521 286.842 178.35 297.977 183.526C304.612 186.634 310.191 189.797 315.591 192.851C322.383 196.692 328.797 200.32 336.486 203.423C344.973 206.79 353.695 208.82 362.32 209.434C371.867 210.116 381.701 208.864 391.631 205.637C396.117 204.195 400.417 202.384 404.97 200.471L408.324 199.074C419.27 194.545 428.121 192.412 435.386 192.55C444.069 192.711 450.563 194.993 456.848 197.199L457.254 197.332C473.903 203.18 492.108 212.086 509.854 223.046C513.279 225.165 516.77 227.441 520.464 229.856C531.585 237.113 544.204 245.361 559.099 251.726C572.635 257.504 585.752 260.352 597.331 262.858C603.11 264.113 608.572 265.295 613.485 266.718C627.715 270.841 640.167 276.764 654.575 283.606C659.103 285.762 663.781 287.99 668.861 290.326C670.421 291.045 672.007 291.784 673.62 292.541L679.206 295.169C702.114 305.999 730.598 319.445 746.691 321.929Z" fill="url(#paint5_linear_1502_1900)" style="mix-blend-mode:screen"/>
<path d="M747.274 319.803C736.677 316.814 719.918 309.195 702.167 301.128C692.912 296.915 683.316 292.548 674.757 288.948C673.086 288.248 671.465 287.583 669.894 286.951L669.759 286.897C647.424 277.949 632.665 272.038 614.458 268.684C610.59 267.969 606.406 267.405 601.98 266.808C589.105 265.065 574.51 263.102 559.14 256.515C542.411 249.354 529.254 239.298 517.644 230.42C515.24 228.584 512.971 226.853 510.724 225.183C494.774 213.305 478.029 202.795 460.706 193.789L459.926 193.397C453.931 190.311 447.731 187.116 438.675 186.214C428.703 185.23 417.588 188.791 410.007 191.963C407.585 192.974 405.218 194.022 402.933 195.036C399.607 196.507 396.471 197.902 393.263 199.154C383.265 203.048 374.097 205.221 365.231 205.788C357.122 206.305 348.789 205.715 340.441 204.033C331.92 202.332 324.589 199.857 316.783 197.279C311.958 195.667 306.978 194.005 301.235 192.351C287.588 188.538 273.874 185.548 260.17 183.397C241.337 180.324 222.535 178.207 203.834 177.053C166.526 174.74 122.484 175.538 79.8213 179.292L80.1802 180.111C122.772 176.332 166.794 175.55 204.025 177.872C222.672 179.011 241.421 181.11 260.2 184.16C273.853 186.302 287.514 189.279 301.109 193.076C306.841 194.748 311.812 196.407 316.631 198.024C324.466 200.638 331.859 203.106 340.434 204.845C348.895 206.54 357.34 207.134 365.559 206.611C374.517 206.034 383.772 203.844 393.853 199.907C397.116 198.651 400.258 197.252 403.555 195.735C405.84 194.72 408.202 193.676 410.619 192.67C418.096 189.536 429.068 186.005 438.832 187.01C447.629 187.881 453.709 191.01 459.584 194.039L460.364 194.432C477.61 203.41 494.281 213.88 510.163 225.707C512.404 227.381 514.674 229.111 517.073 230.941C528.747 239.869 541.978 249.987 558.857 257.231C574.403 263.891 589.109 265.858 602.059 267.623C606.465 268.215 610.634 268.782 614.467 269.484C632.588 272.835 647.276 278.71 669.536 287.626L669.672 287.681C671.26 288.312 672.871 288.972 674.504 289.661C683.053 293.258 692.63 297.611 701.89 301.82C719.71 309.943 736.495 317.552 747.198 320.569L747.274 319.803Z" fill="url(#paint6_linear_1502_1900)" style="mix-blend-mode:screen"/>
<path d="M747.971 318.333C742.513 316.012 735.052 312.467 726.412 308.357C710.937 301.005 691.669 291.855 675.604 285.869C673.878 285.206 672.24 284.642 670.652 284.1C647.112 276.049 632.11 272.571 615.328 271.27C612.471 271.05 609.458 270.908 606.268 270.753C592.849 270.077 576.202 269.305 558.946 261.895C540.523 253.998 527.169 242.061 515.383 231.538C513.958 230.261 512.551 229.03 511.195 227.809C496.129 214.552 480.385 202.191 464.067 190.806L463.265 190.241C457.562 186.23 451.624 182.103 442.219 180.456C430.919 178.471 418.591 182.679 412.248 185.358C408.484 186.949 404.895 188.674 401.44 190.337C399.404 191.319 397.399 192.286 395.396 193.203C385.096 197.926 376.24 201.05 368.324 202.752C360.513 204.393 352.425 205.217 344.173 205.213C332.897 205.271 323.516 204.108 311.624 202.612C309.258 202.314 306.796 202.011 304.192 201.697C290.936 200.13 276.911 198.84 262.504 197.859C243.709 196.536 224.521 195.698 205.473 195.385C170.964 194.862 129.337 195.908 78.2498 198.643L78.6116 199.562C129.683 196.849 171.269 195.784 205.748 196.311C224.8 196.66 243.938 197.457 262.707 198.779C277.094 199.756 291.104 201.048 304.319 202.627C306.913 202.938 309.375 203.241 311.746 203.535C323.674 205.024 333.1 206.201 344.463 206.147C352.796 206.153 360.963 205.318 368.849 203.655C376.842 201.944 385.755 198.797 396.112 194.051C398.12 193.13 400.125 192.162 402.166 191.177C405.631 189.537 409.194 187.821 412.943 186.211C419.178 183.575 431.279 179.441 442.275 181.37C451.331 182.957 457.099 186.986 462.673 190.887L463.48 191.449C479.747 202.801 495.443 215.126 510.464 228.344C511.835 229.553 513.242 230.784 514.652 232.072C526.531 242.682 539.99 254.708 558.654 262.708C576.172 270.226 592.985 271.039 606.491 271.688C609.677 271.847 612.684 271.992 615.521 272.209C632.176 273.497 647.067 276.952 670.481 284.96C672.043 285.492 673.696 286.083 675.382 286.708C691.408 292.655 710.62 301.798 726.07 309.139C734.73 313.254 742.197 316.794 747.674 319.151L747.971 318.333Z" fill="url(#paint7_linear_1502_1900)" style="mix-blend-mode:screen"/>
<path d="M748.681 316.849C733.739 308.049 701.71 290.956 676.452 282.736C674.727 282.174 673.058 281.64 671.421 281.199C647.487 274.359 632.536 273.329 616.204 273.85C614.377 273.909 612.478 273.994 610.506 274.084C596.006 274.73 577.967 275.536 558.758 267.28C538.783 258.685 524.929 244.244 513.792 232.629L511.682 230.43C498.452 216.722 484.384 203.166 467.446 187.808L466.791 187.206C461.571 182.46 455.656 177.084 445.793 174.66C436.989 172.501 425.595 173.977 414.533 178.693C409.305 180.925 404.568 183.457 399.983 185.904L397.572 187.197C387.366 192.609 379.026 196.804 371.461 199.67C363.878 202.503 356.015 204.755 347.928 206.411C335.338 209.1 324.299 210.376 307.183 211.116C295.785 211.636 282 211.977 266.04 212.384L253.423 212.66C239.44 212.964 223.59 213.308 207.112 213.782C191.262 214.264 174.984 214.863 157.744 215.499C130.854 216.486 103.028 217.521 76.6597 218.054L77.0242 219.083C103.419 218.53 131.245 217.495 158.129 216.522C175.364 215.89 191.626 215.303 207.486 214.813C223.934 214.353 239.805 213.993 253.778 213.687L266.41 213.409C282.375 213.008 296.14 212.632 307.578 212.142C324.76 211.401 335.862 210.117 348.529 207.409C356.651 205.744 364.552 203.486 372.175 200.652C379.781 197.764 388.163 193.557 398.374 188.142L400.8 186.847C405.345 184.391 410.076 181.883 415.267 179.669C426.122 175.031 437.225 173.569 445.713 175.67C455.125 177.991 460.629 182.977 465.938 187.804L466.593 188.405C483.506 203.742 497.534 217.26 510.75 230.949L512.859 233.148C524.105 244.878 538.123 259.492 558.39 268.202C577.957 276.612 596.195 275.803 610.849 275.149C612.81 275.057 614.705 274.976 616.537 274.903C632.768 274.36 647.57 275.393 671.307 282.176C672.892 282.626 674.583 283.124 676.272 283.694C701.379 291.861 733.277 308.864 748.144 317.642L748.681 316.849Z" fill="url(#paint8_linear_1502_1900)" style="mix-blend-mode:screen"/>
<path d="M749.407 315.32C736.205 305.082 703.804 286.939 677.303 279.53C675.56 279.035 673.831 278.6 672.172 278.221C648.043 272.703 632.327 274.199 617.075 276.395L614.941 276.703C600.157 278.862 579.915 281.814 558.576 272.625C537.236 263.437 523.577 246.88 512.661 233.601L512.169 232.982C499.058 217.062 486.388 202.543 475.226 189.718L470.405 184.187C465.422 178.463 459.781 171.976 449.407 168.75C440.231 165.885 428.047 167.084 416.789 171.927C410.861 174.597 405.159 177.659 399.714 181.097C395.731 183.51 392.107 185.791 388.597 188.004C383.626 191.137 378.933 194.088 374.58 196.534C366.36 201.147 358.427 204.679 351.752 207.525C338.608 213.321 324.699 217.666 310.223 220.5C298.911 222.794 284.862 224.902 267.281 226.938C251.358 228.779 232.194 230.478 208.788 232.218C156.489 236.147 112.735 237.854 75.101 237.503L75.4477 238.639C113.128 238.985 156.898 237.255 209.258 233.339C232.715 231.62 251.865 229.903 267.807 228.097C285.428 226.049 299.499 223.915 310.867 221.638C325.425 218.792 339.416 214.434 352.644 208.625C359.339 205.763 367.303 202.217 375.565 197.582C379.934 195.124 384.638 192.165 389.619 189.025C393.129 186.822 396.759 184.537 400.726 182.136C406.13 178.718 411.789 175.674 417.675 173.02C428.648 168.295 440.457 167.112 449.268 169.857C459.114 172.918 464.335 178.919 469.382 184.725L474.208 190.261C485.371 203.066 498.036 217.579 511.121 233.489L511.613 234.107C522.663 247.553 536.419 264.234 558.249 273.656C580.078 283.079 600.573 280.064 615.544 277.843L617.672 277.539C632.796 275.351 648.323 273.86 672.212 279.321C673.841 279.694 675.534 280.126 677.247 280.604C703.448 287.923 735.547 305.898 748.624 316.042L749.407 315.32Z" fill="url(#paint9_linear_1502_1900)" style="mix-blend-mode:screen"/>
<path d="M750.121 313.751C737.255 300.981 704.552 282.454 678.136 276.251C676.365 275.832 674.607 275.473 672.92 275.18C648.716 270.941 633.068 274.99 617.929 278.912C604.527 282.382 582.083 288.169 558.377 277.953C535.579 268.123 522.339 249.301 512.664 235.556C506.008 226.127 499.55 217.105 493.308 208.387C486.55 198.956 480.17 190.055 474.249 181.591L474.017 181.299C469.299 174.55 463.948 166.898 453.014 162.819C443.362 159.191 430.664 160.08 419.057 165.125C412.989 167.876 407.241 171.171 401.868 174.976C395.257 179.498 389.524 184.061 384.467 188.091C382.116 189.962 379.891 191.727 377.701 193.407C369.963 199.319 362.49 204.256 355.567 208.705C342.379 217.186 330.14 224.052 313.236 229.998C301.353 234.197 286.697 238.101 269.642 241.614C252.587 245.127 232.72 248.136 210.424 250.737C176.889 254.692 125.906 258.997 73.4708 257.032L73.8103 258.267C126.349 260.233 177.399 255.907 210.99 251.939C233.323 249.33 253.291 246.256 270.323 242.789C287.356 239.322 302.153 235.352 314.093 231.129C331.091 225.152 343.404 218.25 356.644 209.729C363.588 205.264 371.077 200.315 378.841 194.383C381.031 192.724 383.245 190.946 385.607 189.067C390.653 185.055 396.375 180.5 402.955 175.992C408.273 172.225 413.964 168.964 419.971 166.243C431.234 161.339 443.469 160.473 452.695 163.916C463.003 167.763 468.173 175.144 472.735 181.664L472.967 181.956C478.883 190.403 485.277 199.334 492.036 208.765C498.278 217.483 504.736 226.494 511.361 235.896C521.169 249.829 534.596 268.908 557.942 278.979C582.266 289.472 605.048 283.579 618.652 280.055C633.686 276.223 649.183 272.229 672.998 276.384C674.65 276.674 676.366 277.025 678.08 277.457C703.384 283.398 736.418 301.884 749.045 314.397L750.121 313.751Z" fill="url(#paint10_linear_1502_1900)" style="mix-blend-mode:screen"/>
<path d="M750.813 312.126C739.411 297.923 706.263 278.128 678.966 272.894C677.156 272.549 675.365 272.271 673.654 272.061C650.815 269.274 636.363 274.737 621.065 280.532L618.792 281.386C602.638 287.47 581.151 293.185 558.174 283.252C535.984 273.669 523.299 254.901 513.145 238.065L508.945 231.113C497.66 212.44 487.002 194.8 477.659 178.377C473.219 170.569 468.18 161.708 456.681 156.755C444.755 151.606 430.623 154.113 421.377 158.175C415.157 160.992 409.359 164.519 404.074 168.701C396.313 174.641 390.061 180.943 384.489 186.531L380.918 190.114C373.167 197.782 365.736 204.339 359.484 209.745C347.861 219.787 334.592 230.339 316.367 239.418C303.985 245.597 289.099 251.249 272.11 256.23C252.58 261.765 232.563 266.114 212.151 269.257C179.049 274.565 127.872 280.141 71.9631 276.604L72.2747 277.934C128.323 281.455 179.666 275.883 212.845 270.567C233.319 267.417 253.396 263.053 272.981 257.495C290.043 252.499 305.003 246.811 317.447 240.605C335.792 231.485 349.124 220.895 360.8 210.802C367.063 205.389 374.51 198.82 382.278 191.119C383.451 189.96 384.642 188.759 385.859 187.538C391.373 181.984 397.635 175.684 405.337 169.788C410.552 165.661 416.272 162.179 422.409 159.398C431.346 155.47 444.929 153.02 456.261 157.911C467.073 162.567 471.932 171.115 476.216 178.653C485.568 195.099 496.232 212.745 507.526 231.43L511.716 238.37C522.042 255.484 534.944 274.547 557.743 284.396C581.392 294.619 603.29 288.791 619.757 282.62L622.03 281.766C637.146 276.04 651.43 270.634 673.838 273.368C675.508 273.569 677.247 273.847 679.011 274.187C705.831 279.323 738.357 298.721 749.518 312.619L750.813 312.126Z" fill="url(#paint11_linear_1502_1900)" style="mix-blend-mode:screen"/>
<path d="M751.506 310.437C740.168 292.905 705.99 273.378 679.781 269.483C677.949 269.201 676.134 269.005 674.379 268.884C652.268 267.326 638.547 274.28 624.02 281.643L619.646 283.846C596.942 295.144 576.767 296.682 557.97 288.552C535.832 278.972 523.581 259.821 513.626 240.551C503.398 220.758 491.526 197.507 481.107 175.088C477.274 166.806 472.506 156.493 460.376 150.606C452.198 146.637 438.271 144.692 423.703 151.137C417.313 154.025 411.452 157.793 406.253 162.355C398.004 169.375 391.734 177.256 386.167 184.225L384.11 186.784C378.128 194.236 371.729 201.645 363.394 210.771C352.254 222.851 338.319 236.83 319.456 248.849C306.657 257.025 291.543 264.443 274.522 270.885C254.981 278.106 234.699 283.776 213.829 287.851C166.418 297.408 116.817 300.319 70.3774 296.233L70.666 297.665C117.302 301.742 167.074 298.841 214.652 289.259C237.083 284.751 257.573 279.043 275.589 272.237C292.69 265.755 307.887 258.294 320.75 250.079C339.719 237.99 353.713 223.957 364.906 211.826C373.252 202.683 379.656 195.27 385.665 187.786L387.722 185.228C393.262 178.29 399.505 170.459 407.674 163.5C412.781 159.016 418.536 155.308 424.807 152.461C433.573 148.582 448.005 146.082 459.798 151.814C471.168 157.336 475.773 167.283 479.466 175.271C489.926 197.709 501.807 220.982 512.034 240.797C522.159 260.408 534.662 279.928 557.505 289.795C576.945 298.188 597.636 296.679 620.819 285.149L625.198 282.942C639.535 275.672 653.093 268.812 674.709 270.315C676.412 270.435 678.175 270.63 679.946 270.899C705.567 274.719 738.971 293.752 750.023 310.851L751.506 310.437Z" fill="url(#paint12_linear_1502_1900)" style="mix-blend-mode:screen"/>
<path d="M752.206 308.672C742.047 289.276 707.931 268.902 680.658 265.943C678.786 265.736 676.937 265.621 675.158 265.584C653.468 265.138 639.631 274.025 626.241 282.573C624.358 283.789 622.465 285.002 620.573 286.175C605.568 295.535 582.467 304.406 557.807 293.717C534.661 283.687 522.754 262.394 514.16 242.895C502.124 215.628 492.448 192.324 484.563 171.635C481.281 162.974 476.777 151.124 464.091 144.287C451.079 137.297 435.465 139.724 426.055 143.922C419.516 146.89 413.609 150.899 408.516 155.825C400.148 163.67 394.129 172.945 388.822 181.13L387.406 183.307C381.356 192.586 374.819 201.873 367.408 211.672C352.144 231.754 338.343 246.113 322.654 258.229C308.596 268.949 293.325 278.089 277.043 285.528C257.503 294.426 236.94 301.44 215.579 306.493C167.96 318.013 117.238 321.258 68.8369 315.921L69.0921 317.453C117.736 322.817 168.692 319.566 216.515 307.991C237.972 302.936 258.629 295.912 278.26 286.993C294.629 279.515 309.98 270.324 324.11 259.544C339.879 247.368 353.744 232.95 369.073 212.788C376.495 202.961 383.049 193.662 389.115 184.35L390.531 182.173C396.068 173.644 401.791 164.823 410.068 157.068C415.058 152.245 420.841 148.316 427.241 145.402C436.255 141.383 451.126 139.018 463.373 145.594C475.274 151.971 479.585 163.416 482.757 171.79C490.652 192.501 500.342 215.834 512.388 243.124C521.155 263.013 533.344 284.745 557.298 295.126C582.853 306.2 606.547 297.131 621.922 287.571C623.835 286.382 625.734 285.165 627.627 283.951C640.802 275.486 654.421 266.744 675.593 267.161C677.315 267.181 679.113 267.294 680.896 267.508C706.986 270.321 740.819 290.467 750.5 308.952L752.206 308.672Z" fill="url(#paint13_linear_1502_1900)" style="mix-blend-mode:screen"/>
<path d="M752.908 306.844C743.993 285.86 709.288 264.242 681.47 262.328C679.563 262.203 677.685 262.176 675.872 262.221C654.366 262.883 640.997 273.364 628.025 283.503C625.881 285.188 623.663 286.918 621.458 288.579C609.424 297.595 585.127 310.93 557.597 298.975C533.545 288.531 522.386 265.985 514.641 245.31C504.109 217.227 495.402 192.008 488.016 168.213C485.238 159.246 481.076 145.742 467.81 137.977C459.344 133.017 443.942 129.709 428.394 136.697C421.692 139.754 415.728 144.013 410.737 149.309C402.376 157.928 396.941 168.105 391.678 177.94L390.635 179.857C384.685 190.957 378.206 201.985 371.354 212.642C356.733 235.394 342.246 252.902 325.806 267.742C311.741 280.344 296.233 291.264 279.503 300.345C259.979 310.85 239.141 319.177 217.284 325.208C169.342 338.701 117.456 342.319 67.2548 335.673L67.471 337.311C117.984 343.983 170.162 340.345 218.361 326.788C240.334 320.724 261.282 312.351 280.907 301.787C297.726 292.662 313.315 281.684 327.45 269.012C343.954 254.124 358.496 236.544 373.224 213.701C380.071 203.028 386.567 191.978 392.539 180.851L393.555 178.954C398.779 169.178 404.181 159.077 412.434 150.559C417.31 145.384 423.137 141.221 429.685 138.235C444.515 131.57 459.041 134.626 466.966 139.271C478.424 145.98 482.54 156.791 486.074 168.225C493.469 192.053 502.191 217.301 512.728 245.412C516.036 254.249 520.776 265.725 528.112 276.14C536.105 287.498 545.575 295.441 557.069 300.431C585.693 312.856 610.667 299.2 623.01 289.96C625.221 288.285 627.47 286.581 629.599 284.868C642.352 274.873 655.545 264.537 676.477 263.917C678.217 263.867 680.022 263.898 681.851 264.023C708.808 265.834 742.418 286.72 751.024 306.993L752.908 306.844Z" fill="url(#paint14_linear_1502_1900)" style="mix-blend-mode:screen"/>
<path d="M753.61 304.94C745.739 281.978 711.107 259.503 682.354 258.682C680.439 258.63 678.539 258.678 676.663 258.824C655.195 260.491 642.149 272.637 629.578 284.343C627.234 286.522 624.814 288.78 622.398 290.913C593.109 316.688 565.264 307.588 557.414 304.196C532.339 293.29 521.654 268.259 515.15 247.674C506.115 219.051 498.152 191.14 491.515 164.679C488.423 152.331 484.34 139.603 471.581 131.551C458.413 123.234 441.596 124.456 430.771 129.356C423.91 132.496 417.896 137.002 413.019 142.655C404.821 151.895 399.803 163.209 394.938 174.134L393.984 176.27C388.344 188.994 382.105 201.515 375.441 213.481C361.392 238.674 346.214 259.503 329.069 277.137C314.979 291.599 299.236 304.305 282.072 315.068C262.575 327.192 241.459 336.868 219.085 343.931C170.716 359.377 117.711 363.393 65.7292 355.466L65.9068 357.189C118.236 365.186 171.612 361.171 220.272 345.617C242.769 338.508 264.005 328.775 283.614 316.586C300.867 305.767 316.694 292.994 330.858 278.458C348.1 260.73 363.333 239.819 377.437 214.533C384.118 202.535 390.374 189.991 396.025 177.227L396.979 175.091C401.805 164.247 406.799 153.032 414.862 143.914C419.615 138.395 425.479 133.997 432.17 130.931C442.444 126.277 458.321 125.061 470.599 132.831C482.524 140.363 486.433 152.637 489.425 164.566C496.077 191.057 504.038 219.009 513.088 247.651C519.738 268.711 530.727 294.339 556.852 305.702C569.107 311.037 581.91 311.957 594.873 308.416C607.836 304.875 617.975 297.687 624.127 292.309C626.559 290.163 628.984 287.902 631.333 285.718C643.743 274.165 656.573 262.223 677.408 260.592C679.209 260.463 681.031 260.43 682.868 260.494C710.574 261.249 743.996 282.885 751.557 304.971L753.61 304.94Z" fill="url(#paint15_linear_1502_1900)" style="mix-blend-mode:screen"/>
<path d="M754.309 302.957C750.779 290.085 739.853 277.206 724.373 267.597C708.892 257.987 691.769 253.512 677.427 255.304C655.96 257.98 643.22 271.756 630.95 285.105C628.472 287.793 625.908 290.577 623.333 293.187C600.492 316.37 574.225 316.737 557.267 309.351C531.027 297.918 520.996 269.989 515.693 249.933C507.91 220.381 500.957 190.454 495.061 161.013C493.884 155.138 492.378 148.319 489.404 141.842C486.089 134.611 481.507 129.089 475.406 124.971C461.751 115.751 444.367 116.76 433.204 121.856C412.661 131.225 405.249 151.234 398.09 170.575L397.337 172.595C371.052 243.337 334.176 294.788 284.631 329.913C224.415 372.505 144.084 389.097 64.2012 375.41L64.3393 377.24C144.856 391.064 225.802 374.401 286.405 331.515C336.115 296.175 373.139 244.531 399.52 173.543L400.269 171.517C407.341 152.424 414.655 132.671 434.667 123.543C445.228 118.731 461.571 117.71 474.288 126.304C486.699 134.685 490.253 147.954 492.851 160.854C498.751 190.323 505.682 220.287 513.506 249.878C524.801 292.711 543.561 305.263 556.694 310.99C583.745 322.771 609.83 310.226 625.266 294.609C627.856 291.988 630.432 289.195 632.91 286.497C645.015 273.374 657.539 259.802 678.359 257.201C692.05 255.446 708.482 259.777 723.353 268.977C738.224 278.178 748.725 290.568 752.112 302.89L754.309 302.957Z" fill="url(#paint16_linear_1502_1900)" style="mix-blend-mode:screen"/>
</g>
<circle cx="765.959" cy="320.116" r="43" fill="url(#paint17_radial_1502_1900)"/>
<ellipse cx="71" cy="98" rx="51" ry="62" transform="rotate(180 71 98)" fill="url(#paint18_radial_1502_1900)"/>
<ellipse cx="111.5" cy="367.5" rx="50.5" ry="62.5" transform="rotate(180 111.5 367.5)" fill="url(#paint19_radial_1502_1900)"/>
<ellipse cx="74.5" cy="344.5" rx="50.5" ry="62.5" transform="rotate(180 74.5 344.5)" fill="url(#paint20_radial_1502_1900)"/>
<ellipse cx="64" cy="302.5" rx="51" ry="62.5" transform="rotate(180 64 302.5)" fill="url(#paint21_radial_1502_1900)"/>
<ellipse cx="57.5" cy="270" rx="50.5" ry="62" transform="rotate(180 57.5 270)" fill="url(#paint22_radial_1502_1900)"/>
<ellipse cx="50.5" cy="220" rx="50.5" ry="62" transform="rotate(180 50.5 220)" fill="url(#paint23_radial_1502_1900)"/>
<ellipse cx="60.5" cy="168.5" rx="50.5" ry="62.5" transform="rotate(180 60.5 168.5)" fill="url(#paint24_radial_1502_1900)"/>
<ellipse cx="60.5" cy="136.5" rx="50.5" ry="62.5" transform="rotate(180 60.5 136.5)" fill="url(#paint25_radial_1502_1900)"/>
<ellipse cx="97.5" cy="62.5" rx="50.5" ry="62.5" transform="rotate(180 97.5 62.5)" fill="url(#paint26_radial_1502_1900)"/>
<defs>
<linearGradient id="paint0_linear_1502_1900" x1="320.884" y1="193.413" x2="353.923" y2="283.18" gradientUnits="userSpaceOnUse">
<stop stop-color="#FFFFE0"/>
<stop offset="1" stop-color="#FEFCFF"/>
</linearGradient>
<linearGradient id="paint1_linear_1502_1900" x1="335.985" y1="196.311" x2="364.912" y2="270.034" gradientUnits="userSpaceOnUse">
<stop stop-color="#FFFFE0"/>
<stop offset="1" stop-color="#FEFCFF"/>
</linearGradient>
<linearGradient id="paint2_linear_1502_1900" x1="349.37" y1="199.142" x2="373.615" y2="257.1" gradientUnits="userSpaceOnUse">
<stop stop-color="#FFFFE0"/>
<stop offset="1" stop-color="#FEFCFF"/>
</linearGradient>
<linearGradient id="paint3_linear_1502_1900" x1="361.23" y1="201.919" x2="380.122" y2="244.316" gradientUnits="userSpaceOnUse">
<stop stop-color="#FFFFE0"/>
<stop offset="1" stop-color="#FEFCFF"/>
</linearGradient>
<linearGradient id="paint4_linear_1502_1900" x1="359.87" y1="200.273" x2="376.977" y2="236.315" gradientUnits="userSpaceOnUse">
<stop stop-color="#FFFFE0"/>
<stop offset="1" stop-color="#FEFCFF"/>
</linearGradient>
<linearGradient id="paint5_linear_1502_1900" x1="347.247" y1="194.034" x2="375.04" y2="249.006" gradientUnits="userSpaceOnUse">
<stop stop-color="#FFFFE0"/>
<stop offset="1" stop-color="#FEFCFF"/>
</linearGradient>
<linearGradient id="paint6_linear_1502_1900" x1="333.563" y1="186.627" x2="374.172" y2="262.03" gradientUnits="userSpaceOnUse">
<stop stop-color="#FFFFE0"/>
<stop offset="1" stop-color="#FEFCFF"/>
</linearGradient>
<linearGradient id="paint7_linear_1502_1900" x1="320.063" y1="178.502" x2="375.33" y2="274.814" gradientUnits="userSpaceOnUse">
<stop stop-color="#FFFFE0"/>
<stop offset="1" stop-color="#FEFCFF"/>
</linearGradient>
<linearGradient id="paint8_linear_1502_1900" x1="307.013" y1="169.693" x2="378.786" y2="287.045" gradientUnits="userSpaceOnUse">
<stop stop-color="#FFFFE0"/>
<stop offset="1" stop-color="#FEFCFF"/>
</linearGradient>
<linearGradient id="paint9_linear_1502_1900" x1="294.523" y1="160.157" x2="384.709" y2="298.454" gradientUnits="userSpaceOnUse">
<stop stop-color="#FFFFE0"/>
<stop offset="1" stop-color="#FEFCFF"/>
</linearGradient>
<linearGradient id="paint10_linear_1502_1900" x1="282.584" y1="149.84" x2="393.07" y2="308.697" gradientUnits="userSpaceOnUse">
<stop stop-color="#FFFFE0"/>
<stop offset="1" stop-color="#FEFCFF"/>
</linearGradient>
<linearGradient id="paint11_linear_1502_1900" x1="271.219" y1="138.623" x2="403.948" y2="317.495" gradientUnits="userSpaceOnUse">
<stop stop-color="#FFFFE0"/>
<stop offset="1" stop-color="#FEFCFF"/>
</linearGradient>
<linearGradient id="paint12_linear_1502_1900" x1="260.559" y1="126.515" x2="417.496" y2="324.521" gradientUnits="userSpaceOnUse">
<stop stop-color="#FFFFE0"/>
<stop offset="1" stop-color="#FEFCFF"/>
</linearGradient>
<linearGradient id="paint13_linear_1502_1900" x1="250.676" y1="113.307" x2="433.855" y2="329.338" gradientUnits="userSpaceOnUse">
<stop stop-color="#FFFFE0"/>
<stop offset="1" stop-color="#FEFCFF"/>
</linearGradient>
<linearGradient id="paint14_linear_1502_1900" x1="241.51" y1="98.9884" x2="452.782" y2="331.557" gradientUnits="userSpaceOnUse">
<stop stop-color="#FFFFE0"/>
<stop offset="1" stop-color="#FEFCFF"/>
</linearGradient>
<linearGradient id="paint15_linear_1502_1900" x1="232.91" y1="83.2663" x2="474.196" y2="330.796" gradientUnits="userSpaceOnUse">
<stop stop-color="#FFFFE0"/>
<stop offset="1" stop-color="#FEFCFF"/>
</linearGradient>
<linearGradient id="paint16_linear_1502_1900" x1="430.314" y1="110.498" x2="335.291" y2="452.174" gradientUnits="userSpaceOnUse">
<stop stop-color="#FEFCFF" stop-opacity="0"/>
<stop offset="0.388542" stop-color="#FFFFE0"/>
<stop offset="0.591667" stop-color="#FEFCFF" stop-opacity="0"/>
</linearGradient>
<radialGradient id="paint17_radial_1502_1900" cx="0" cy="0" r="1" gradientUnits="userSpaceOnUse" gradientTransform="translate(765.959 320.116) rotate(90) scale(43)">
<stop offset="0.552083" stop-color="#111827"/>
<stop offset="1" stop-color="#111827" stop-opacity="0"/>
</radialGradient>
<radialGradient id="paint18_radial_1502_1900" cx="0" cy="0" r="1" gradientUnits="userSpaceOnUse" gradientTransform="translate(71 98) rotate(90) scale(62 51)">
<stop offset="0.427083" stop-color="#111827"/>
<stop offset="1" stop-color="#111827" stop-opacity="0"/>
</radialGradient>
<radialGradient id="paint19_radial_1502_1900" cx="0" cy="0" r="1" gradientUnits="userSpaceOnUse" gradientTransform="translate(111.5 367.5) rotate(90) scale(62.5 50.5)">
<stop offset="0.427083" stop-color="#111827"/>
<stop offset="1" stop-color="#111827" stop-opacity="0"/>
</radialGradient>
<radialGradient id="paint20_radial_1502_1900" cx="0" cy="0" r="1" gradientUnits="userSpaceOnUse" gradientTransform="translate(74.5 344.5) rotate(90) scale(62.5 50.5)">
<stop offset="0.427083" stop-color="#111827"/>
<stop offset="1" stop-color="#111827" stop-opacity="0"/>
</radialGradient>
<radialGradient id="paint21_radial_1502_1900" cx="0" cy="0" r="1" gradientUnits="userSpaceOnUse" gradientTransform="translate(64 302.5) rotate(90) scale(62.5 51)">
<stop offset="0.427083" stop-color="#111827"/>
<stop offset="1" stop-color="#111827" stop-opacity="0"/>
</radialGradient>
<radialGradient id="paint22_radial_1502_1900" cx="0" cy="0" r="1" gradientUnits="userSpaceOnUse" gradientTransform="translate(57.5 270) rotate(90) scale(62 50.5)">
<stop offset="0.427083" stop-color="#111827"/>
<stop offset="1" stop-color="#111827" stop-opacity="0"/>
</radialGradient>
<radialGradient id="paint23_radial_1502_1900" cx="0" cy="0" r="1" gradientUnits="userSpaceOnUse" gradientTransform="translate(50.5 220) rotate(90) scale(62 50.5)">
<stop offset="0.427083" stop-color="#111827"/>
<stop offset="1" stop-color="#111827" stop-opacity="0"/>
</radialGradient>
<radialGradient id="paint24_radial_1502_1900" cx="0" cy="0" r="1" gradientUnits="userSpaceOnUse" gradientTransform="translate(60.5 168.5) rotate(90) scale(62.5 50.5)">
<stop offset="0.427083" stop-color="#111827"/>
<stop offset="1" stop-color="#111827" stop-opacity="0"/>
</radialGradient>
<radialGradient id="paint25_radial_1502_1900" cx="0" cy="0" r="1" gradientUnits="userSpaceOnUse" gradientTransform="translate(60.5 136.5) rotate(90) scale(62.5 50.5)">
<stop offset="0.427083" stop-color="#111827"/>
<stop offset="1" stop-color="#111827" stop-opacity="0"/>
</radialGradient>
<radialGradient id="paint26_radial_1502_1900" cx="0" cy="0" r="1" gradientUnits="userSpaceOnUse" gradientTransform="translate(97.5 62.5) rotate(90) scale(62.5 50.5)">
<stop offset="0.427083" stop-color="#111827"/>
<stop offset="1" stop-color="#111827" stop-opacity="0"/>
</radialGradient>
</defs>
</svg>
