<svg width="1000" height="804" viewBox="0 0 1000 804" fill="none" xmlns="http://www.w3.org/2000/svg">
<g style="mix-blend-mode:screen" opacity="0.3">
<path style="mix-blend-mode:screen" opacity="0.7" d="M462.866 474.746L462.703 474.54C452.61 477.733 439.829 477.006 425.758 472.429C412.733 468.077 400.162 461.468 388.643 452.915C376.758 444.13 366.14 433.984 355.849 424.19C347.024 415.788 337.895 407.096 328.023 399.268C272.155 354.989 188.377 340.289 137.279 365.853C134.895 367.046 132.507 368.349 130.196 369.603C121.147 374.548 111.76 379.614 99.8179 379.915C88.8739 380.192 76.7742 376.362 64.847 368.839C54.1424 362.051 44.6117 353.178 36.9214 342.84C29.2268 332.388 23.4762 321.232 17.9128 310.448C13.1979 301.302 8.32386 291.842 2.27735 282.838C-7.35297 268.485 -20.5641 254.706 -35.9382 242.969C-51.6813 231.024 -68.8226 221.559 -86.6448 214.97C-104.782 208.32 -123.333 204.589 -141.575 203.92C-159.717 203.282 -176.987 205.813 -191.53 211.266L-191.391 211.442C-176.899 206.017 -159.689 203.463 -141.558 204.129C-123.352 204.795 -104.837 208.519 -86.7357 215.155C-68.9491 221.737 -51.8417 231.185 -36.1272 243.103C-20.7921 254.812 -7.60045 268.577 1.99058 282.911C8.01315 291.885 12.9019 301.353 17.6072 310.486C23.175 321.287 28.9352 332.455 36.6442 342.925C44.3584 353.298 53.9208 362.2 64.6618 369.009C76.6574 376.577 88.8213 380.426 99.8352 380.144C111.848 379.838 121.246 374.734 130.329 369.802C132.62 368.554 135.028 367.245 137.412 366.052C188.433 340.566 272.082 355.228 327.838 399.438C337.705 407.26 346.844 415.964 355.64 424.339C365.956 434.124 376.618 444.275 388.499 453.054C400.055 461.634 412.665 468.265 425.732 472.633C439.871 477.226 452.712 477.955 462.866 474.746Z" fill="url(#paint0_linear_1103_1765)"/>
<path style="mix-blend-mode:screen" opacity="0.7" d="M463.45 473.635L463.255 473.327C453.647 475.622 441.087 474.258 426.938 469.385C413.926 464.763 401.312 458.297 389.5 450.193C388.047 449.201 386.55 448.155 385.045 447.076C375.197 440.002 366.278 432.367 357.647 424.98C348.563 417.199 339.172 409.156 328.95 402.046C313.392 391.227 295.039 382.881 279.135 376.149C258.953 367.602 242.576 361.996 227.596 358.493C204.883 353.198 182.774 351.89 163.665 354.728C155.665 355.85 147.93 357.792 140.57 360.527C136.738 361.973 133.023 363.71 129.079 365.553C125.521 367.209 121.867 368.909 118.105 370.39C113.012 372.509 107.539 373.858 101.828 374.403C91.3072 375.246 80.2284 372.689 68.9047 366.804C58.3161 361.273 48.6564 353.573 40.6303 344.268C33.1027 335.43 27.2739 325.913 21.6449 316.71C16.68 308.604 11.549 300.225 5.22467 292.22C-4.50586 279.952 -17.5345 268.152 -32.5136 258.125C-49.1245 247.157 -66.8686 238.666 -85.095 232.962C-103.757 227.172 -122.657 224.003 -141.237 223.55C-159.817 223.112 -177.792 225.398 -193.144 230.223L-192.909 230.52C-177.606 225.684 -159.691 223.395 -141.132 223.858C-122.599 224.315 -103.748 227.478 -85.1347 233.254C-66.9563 238.942 -49.2588 247.41 -32.6911 258.347C-17.7357 268.334 -4.72494 280.07 4.9463 292.315C11.2716 300.291 16.3776 308.668 21.3233 316.751C26.9821 325.96 32.8 335.505 40.3516 344.373C48.4263 353.726 58.1404 361.466 68.7872 367.03C80.047 372.875 91.523 375.528 102.005 374.677C107.751 374.127 113.26 372.77 118.386 370.641C122.148 369.16 125.813 367.452 129.356 365.798C133.295 363.96 137.015 362.229 140.831 360.785C148.17 358.059 155.881 356.122 163.856 355C182.905 352.17 204.964 353.477 227.616 358.768C242.562 362.259 258.909 367.859 279.062 376.389C294.909 383.194 313.242 391.516 328.737 402.286C338.94 409.382 348.32 417.413 357.38 425.163C366.016 432.566 374.955 440.215 384.807 447.295C386.313 448.374 387.814 449.426 389.267 450.418C401.133 458.571 413.81 465.074 426.887 469.715C441.135 474.609 453.78 475.977 463.45 473.635Z" fill="url(#paint1_linear_1103_1765)"/>
<path style="mix-blend-mode:screen" opacity="0.7" d="M464.057 472.529L463.844 472.116C443.567 475.249 412.579 461.431 390.364 447.478C388.889 446.555 387.371 445.578 385.838 444.582C376.424 438.46 368.003 432.06 359.861 425.877C349.947 418.345 340.581 411.233 329.885 404.858C318.495 398.067 305.111 392.538 290.921 386.668C287.014 385.052 282.979 383.378 278.949 381.671C275.649 380.285 272.404 378.897 269.214 377.505C254.793 371.314 241.164 365.465 227.996 361.29C206.403 354.465 185.236 351.266 166.794 352.051C158.941 352.263 151.278 353.325 143.93 355.222C138.349 356.707 132.566 359.144 126.966 361.5C124.777 362.424 122.507 363.38 120.268 364.272C113.991 366.763 108.929 368.205 103.911 368.913C93.5672 370.314 82.5236 368.662 71.985 364.137C61.9464 359.914 52.536 353.654 44.3953 345.782C37.018 338.492 31.1225 330.563 25.3898 322.871C20.1909 315.883 14.8193 308.656 8.22334 301.717C-1.80614 291.158 -15.1045 281.088 -30.2121 272.596C-46.3933 263.479 -64.8299 256.076 -83.5399 251.157C-120.971 241.368 -161.513 240.733 -194.769 249.404L-194.512 249.812C-161.341 241.158 -120.905 241.795 -83.5682 251.558C-64.9226 256.448 -46.5355 263.83 -30.4086 272.92C-15.3601 281.379 -2.1254 291.401 7.86554 301.911C14.4271 308.827 19.7894 316.032 24.9594 322.984C30.6866 330.69 36.6113 338.645 44.0276 345.973C52.2261 353.922 61.7081 360.248 71.8267 364.52C82.4765 369.088 93.6347 370.756 104.088 369.343C109.156 368.636 114.228 367.196 120.551 364.68C122.799 363.79 125.07 362.834 127.264 361.907C132.833 359.564 138.616 357.127 144.172 355.651C151.48 353.754 159.104 352.695 166.92 352.491C185.287 351.714 206.384 354.888 227.886 361.714C241.015 365.87 254.624 371.715 269.036 377.904C272.242 379.283 275.486 380.669 278.766 382.063C282.8 383.777 286.84 385.447 290.747 387.062C304.898 392.914 318.272 398.441 329.622 405.214C340.283 411.575 349.629 418.673 359.534 426.193C367.686 432.389 376.127 438.783 385.55 444.927C387.088 445.929 388.612 446.902 390.087 447.825C412.466 461.819 443.622 475.693 464.057 472.529Z" fill="url(#paint2_linear_1103_1765)"/>
<path style="mix-blend-mode:screen" opacity="0.7" d="M464.632 471.344L464.423 470.83C441.285 472.26 402.542 451.158 391.223 444.659C389.659 443.766 388.124 442.875 386.62 441.988C377.923 436.884 370.228 431.77 362.749 426.844C352.203 419.817 342.172 413.198 330.808 407.582C322.644 403.556 313.302 400.132 303.341 396.553C295.396 393.678 287.177 390.708 278.757 387.121C269.696 383.268 261.202 379.191 252.985 375.244C244.402 371.117 236.294 367.224 228.415 364.015C208.063 355.731 187.851 350.628 169.961 349.274C163.231 348.764 155.938 348.38 147.322 349.79C139.718 351.036 131.726 354.265 124.004 357.387L122.437 358.02C117.192 360.274 111.69 362.036 105.989 363.289C96.1433 365.292 85.5118 364.623 75.0535 361.342C65.5597 358.371 56.4158 353.525 48.1821 347.1C40.8583 341.285 35.0874 335.101 28.9811 328.556C23.5836 322.801 18.017 316.832 11.2557 311.058C0.864557 302.245 -12.6591 293.908 -27.8541 286.927C-44.3279 279.337 -63.0259 273.221 -81.946 269.245C-119.663 261.364 -161.311 261.044 -196.361 268.484L-196.055 268.994C-161.123 261.594 -119.528 261.867 -81.9374 269.745C-63.067 273.701 -44.4494 279.81 -28.0449 287.365C-12.924 294.304 0.530303 302.606 10.8683 311.352C17.611 317.082 23.1582 323.026 28.5254 328.785C34.6562 335.35 40.4464 341.559 47.8244 347.411C56.1472 353.907 65.3904 358.807 74.9876 361.812C85.5718 365.128 96.3304 365.804 106.295 363.779C112.023 362.524 117.552 360.763 122.829 358.513L124.396 357.88C132.092 354.768 140.059 351.539 147.597 350.313C156.142 348.918 163.39 349.298 170.089 349.821C187.893 351.172 208.015 356.245 228.284 364.496C236.132 367.698 244.23 371.589 252.804 375.704C261.031 379.653 269.53 383.736 278.61 387.603C287.06 391.197 295.289 394.169 303.249 397.052C313.16 400.64 322.518 404.023 330.617 408.04C341.945 413.653 351.906 420.256 362.433 427.259C369.912 432.206 377.641 437.332 386.348 442.429C387.875 443.309 389.411 444.201 390.957 445.105C402.342 451.593 441.296 472.817 464.632 471.344Z" fill="url(#paint3_linear_1103_1765)"/>
<path style="mix-blend-mode:screen" opacity="0.7" d="M465.195 470.106L465.029 469.488C450.761 468.901 426.227 459.593 392.083 441.78L387.396 439.341C379.97 435.459 373.327 431.696 366.903 428.061C355.209 421.431 344.165 415.179 331.717 410.276C325.44 407.811 318.358 405.742 310.845 403.529C300.972 400.634 289.803 397.372 278.564 392.569C266.174 387.299 255.32 381.235 244.838 375.388C239.259 372.275 233.998 369.342 228.833 366.738C209.701 357.037 190.449 350.029 173.164 346.469C166.849 345.168 159.696 343.69 150.741 344.314C142.273 344.871 133.187 348.216 124.611 351.722C119.275 354.043 113.753 356.013 108.071 357.622C98.6533 360.165 88.4302 360.459 78.1034 358.483C69.1325 356.71 60.2627 353.291 51.9391 348.397C44.5857 343.99 38.6158 339.14 32.2967 334.007C26.4976 329.145 20.4682 324.609 14.2436 320.426C3.48272 313.391 -10.2917 306.766 -25.5348 301.323C-43.6444 294.94 -62.0065 290.281 -80.3646 287.412C-118.189 281.392 -161.051 281.483 -197.967 287.648L-197.644 288.253C-160.784 282.132 -118.024 282.049 -80.2894 288.04C-61.9935 290.904 -43.6939 295.548 -25.6451 301.906C-10.4625 307.345 3.21296 313.909 13.9046 320.898C20.0968 325.061 26.095 329.575 31.864 334.414C38.2177 339.569 44.2122 344.44 51.6555 348.876C60.086 353.831 69.0687 357.293 78.1539 359.09C88.6086 361.078 98.9558 360.77 108.487 358.187C114.197 356.57 119.747 354.589 125.108 352.254C133.638 348.773 142.682 345.47 151.03 344.897C159.863 344.287 166.951 345.746 173.206 347.034C190.42 350.599 209.582 357.577 228.605 367.204C233.735 369.815 238.991 372.742 244.555 375.847C255.041 381.73 265.936 387.773 278.385 393.086C289.68 397.896 300.888 401.187 310.792 404.089C318.274 406.285 325.341 408.355 331.578 410.812C343.951 415.684 354.961 421.923 366.625 428.527C373.054 432.168 379.701 435.936 387.148 439.822L391.839 442.268C426.097 460.161 450.785 469.528 465.195 470.106Z" fill="url(#paint4_linear_1103_1765)"/>
<path style="mix-blend-mode:screen" opacity="0.7" d="M465.733 468.813L465.665 468.11C449.739 465.646 421.364 452.265 398.536 441.472L392.944 438.848C391.343 438.101 389.747 437.351 388.156 436.596C383.081 434.256 378.403 432.038 373.88 429.889C359.418 423.009 346.925 417.068 332.595 412.913C327.642 411.481 322.176 410.283 316.361 409.035C304.838 406.536 291.776 403.705 278.354 397.968C263.564 391.651 250.975 383.429 239.918 376.212C236.214 373.794 232.719 371.512 229.279 369.384C211.458 358.383 193.169 349.424 176.429 343.556L176.023 343.413C169.654 341.173 163.064 338.865 154.204 338.702C146.817 338.557 137.86 340.714 126.811 345.28L123.451 346.682C118.909 348.587 114.624 350.386 110.184 351.843C100.356 355.022 90.6029 356.281 81.1926 355.603C72.6892 354.996 64.0897 352.997 55.7203 349.68C48.1064 346.629 41.7121 343.005 34.9646 339.189C29.5395 336.125 23.9358 332.951 17.2567 329.818C6.063 324.579 -7.90491 319.737 -23.1736 315.774C-41.6721 311.041 -60.2441 307.661 -78.7402 305.66C-116.4 301.519 -160.433 301.969 -199.544 306.893L-199.198 307.612C-160.153 302.698 -116.206 302.245 -78.6221 306.375C-60.1797 308.37 -41.6615 311.742 -23.2169 316.464C-8.02342 320.405 5.88413 325.234 17.0191 330.41C23.6535 333.518 29.2322 336.682 34.6323 339.735C41.4246 343.577 47.839 347.204 55.5272 350.307C64.015 353.675 72.737 355.704 81.3613 356.318C90.9082 357.001 100.742 355.749 110.673 352.521C115.159 351.08 119.459 349.269 124.011 347.355L127.366 345.958C138.312 341.43 147.162 339.296 154.428 339.434C163.11 339.595 169.605 341.877 175.889 344.083L176.295 344.217C192.945 350.064 211.15 358.97 228.896 369.93C232.321 372.049 235.812 374.325 239.505 376.741C250.627 383.997 263.245 392.246 278.14 398.611C291.677 404.388 304.794 407.236 316.373 409.742C322.152 410.998 327.614 412.18 332.526 413.602C346.756 417.725 359.209 423.648 373.617 430.49C378.145 432.646 382.823 434.874 387.902 437.21C389.462 437.929 391.049 438.668 392.661 439.426L398.248 442.053C421.156 452.884 449.64 466.329 465.733 468.813Z" fill="url(#paint5_linear_1103_1765)"/>
<path style="mix-blend-mode:screen" opacity="0.7" d="M466.316 466.687C455.719 463.698 438.96 456.079 421.209 448.012C411.954 443.799 402.358 439.432 393.798 435.832C392.128 435.132 390.507 434.466 388.936 433.835L388.8 433.781C366.465 424.833 351.707 418.922 333.5 415.568C329.631 414.853 325.448 414.289 321.021 413.692C308.147 411.949 293.552 409.986 278.181 403.398C261.453 396.238 248.296 386.182 236.686 377.303C234.282 375.467 232.013 373.737 229.766 372.067C213.816 360.189 197.07 349.679 179.747 340.673L178.968 340.281C172.973 337.195 166.773 334 157.717 333.097C147.744 332.114 136.629 335.675 129.049 338.847C126.627 339.858 124.26 340.905 121.975 341.92C118.648 343.391 115.512 344.786 112.305 346.038C102.307 349.932 93.1387 352.105 84.273 352.672C76.1636 353.189 67.8308 352.599 59.4828 350.917C50.9619 349.216 43.6303 346.741 35.8246 344.163C31 342.55 26.0196 340.889 20.2767 339.235C6.62989 335.422 -7.08375 332.432 -20.7887 330.28C-39.6212 327.208 -58.4235 325.091 -77.1245 323.937C-114.432 321.624 -158.475 322.422 -201.137 326.176L-200.778 326.995C-158.186 323.216 -114.164 322.434 -76.9332 324.756C-58.2861 325.895 -39.5376 327.993 -20.7582 331.044C-7.10552 333.185 6.55599 336.163 20.1509 339.96C25.8831 341.631 30.8534 343.291 35.6728 344.908C43.5078 347.522 50.9005 349.99 59.4761 351.729C67.9372 353.424 76.3819 354.018 84.6012 353.495C93.5589 352.917 102.814 350.728 112.895 346.79C116.158 345.535 119.299 344.136 122.597 342.619C124.882 341.604 127.244 340.56 129.661 339.554C137.138 336.42 148.11 332.889 157.874 333.893C166.671 334.765 172.751 337.894 178.626 340.923L179.406 341.316C196.651 350.293 213.323 360.763 229.205 372.591C231.446 374.265 233.716 375.995 236.114 377.825C247.789 386.753 261.02 396.871 277.898 404.115C293.445 410.775 308.151 412.742 321.101 414.507C325.507 415.099 329.676 415.666 333.509 416.368C351.63 419.719 366.318 425.594 388.578 434.51L388.713 434.565C390.302 435.196 391.912 435.856 393.546 436.545C402.095 440.142 411.671 444.495 420.932 448.704C438.752 456.827 455.537 464.436 466.24 467.453L466.316 466.687Z" fill="url(#paint6_linear_1103_1765)"/>
<path style="mix-blend-mode:screen" opacity="0.7" d="M467.013 465.217C461.555 462.896 454.094 459.351 445.453 455.241C429.979 447.889 410.711 438.739 394.646 432.753C392.92 432.089 391.282 431.526 389.694 430.984C366.154 422.933 351.152 419.455 334.37 418.154C331.513 417.934 328.5 417.792 325.309 417.637C311.891 416.961 295.244 416.189 277.988 408.779C259.565 400.882 246.211 388.944 234.425 378.422C233 377.145 231.593 375.914 230.237 374.693C215.171 361.436 199.426 349.075 183.109 337.69L182.307 337.124C176.604 333.114 170.666 328.987 161.261 327.34C149.96 325.355 137.633 329.563 131.29 332.242C127.526 333.833 123.937 335.558 120.481 337.221C118.446 338.203 116.441 339.17 114.438 340.087C104.137 344.81 95.2817 347.934 87.3653 349.636C79.5544 351.277 71.4667 352.101 63.2151 352.097C51.9385 352.155 42.5579 350.992 30.6653 349.496C28.3 349.198 25.838 348.895 23.2337 348.581C9.97749 347.014 -4.04735 345.724 -18.4546 344.743C-37.2492 343.42 -56.4373 342.582 -75.4847 342.269C-109.995 341.746 -151.621 342.792 -202.708 345.527L-202.347 346.446C-151.276 343.733 -109.689 342.668 -75.2097 343.195C-56.1584 343.544 -37.02 344.341 -18.2508 345.663C-3.86379 346.64 10.1457 347.932 23.3608 349.511C25.955 349.822 28.417 350.125 30.7875 350.419C42.716 351.908 52.142 353.085 63.5051 353.031C71.8381 353.037 80.005 352.202 87.8908 350.539C95.8839 348.828 104.796 345.681 115.154 340.935C117.162 340.014 119.167 339.046 121.208 338.061C124.672 336.421 128.236 334.705 131.985 333.095C138.22 330.459 150.321 326.325 161.317 328.254C170.372 329.841 176.141 333.87 181.714 337.771L182.521 338.333C198.789 349.685 214.485 362.01 229.506 375.228C230.877 376.437 232.284 377.668 233.694 378.956C245.573 389.566 259.032 401.592 277.696 409.592C295.214 417.11 312.027 417.923 325.533 418.571C328.719 418.73 331.726 418.876 334.563 419.092C351.218 420.381 366.109 423.836 389.523 431.844C391.085 432.376 392.737 432.967 394.424 433.592C410.45 439.539 429.662 448.682 445.111 456.023C453.772 460.137 461.238 463.678 466.716 466.034L467.013 465.217Z" fill="url(#paint7_linear_1103_1765)"/>
<path style="mix-blend-mode:screen" opacity="0.7" d="M467.722 463.733C452.78 454.933 420.751 437.84 395.493 429.62C393.768 429.058 392.099 428.524 390.462 428.083C366.528 421.243 351.577 420.212 335.246 420.733C333.418 420.793 331.519 420.878 329.547 420.968C315.047 421.614 297.009 422.42 277.8 414.164C257.825 405.569 243.97 391.128 232.833 379.513L230.723 377.314C217.493 363.606 203.425 350.049 186.487 334.692L185.833 334.09C180.612 329.344 174.697 323.967 164.834 321.544C156.03 319.385 144.636 320.861 133.574 325.577C128.346 327.808 123.609 330.341 119.024 332.788L116.614 334.081C106.407 339.492 98.0671 343.688 90.5021 346.554C82.9189 349.387 75.0561 351.639 66.9693 353.294C54.3794 355.983 43.3397 357.26 26.2237 358C14.8257 358.52 1.04103 358.861 -14.9187 359.268L-27.5356 359.544C-41.5184 359.848 -57.3687 360.191 -73.847 360.665C-89.6968 361.147 -105.975 361.746 -123.215 362.383C-150.105 363.37 -177.931 364.405 -204.299 364.938L-203.935 365.967C-177.54 365.414 -149.714 364.379 -122.83 363.406C-105.595 362.774 -89.3326 362.187 -73.4724 361.697C-57.0252 361.237 -41.1539 360.877 -27.1812 360.571L-14.549 360.293C1.41567 359.892 15.1811 359.516 26.619 359.026C43.8015 358.285 54.9028 357.001 67.57 354.293C75.6926 352.628 83.5928 350.37 91.2159 347.536C98.8225 344.648 107.204 340.441 117.415 335.026L119.841 333.731C124.386 331.275 129.117 328.767 134.308 326.553C145.164 321.915 156.266 320.453 164.754 322.554C174.166 324.875 179.67 329.861 184.979 334.688L185.634 335.289C202.547 350.626 216.576 364.144 229.791 377.833L231.901 380.032C243.146 391.762 257.164 406.376 277.431 415.086C296.998 423.496 315.236 422.687 329.89 422.033C331.852 421.941 333.746 421.86 335.579 421.786C351.809 421.244 366.611 422.277 390.348 429.06C391.933 429.51 393.624 430.008 395.313 430.578C420.42 438.744 452.318 455.748 467.185 464.526L467.722 463.733Z" fill="url(#paint8_linear_1103_1765)"/>
<path style="mix-blend-mode:screen" opacity="0.7" d="M468.448 462.203C455.246 451.966 422.846 433.823 396.344 426.414C394.602 425.919 392.873 425.484 391.214 425.105C367.085 419.587 351.369 421.083 336.116 423.279L333.983 423.587C319.198 425.745 298.957 428.697 277.617 419.509C256.277 410.32 242.619 393.764 231.702 380.485L231.21 379.866C218.1 363.946 205.43 349.427 194.267 336.602L189.447 331.071C184.463 325.346 178.823 318.86 168.448 315.634C159.272 312.769 147.089 313.968 135.83 318.81C129.902 321.481 124.2 324.543 118.756 327.981C114.773 330.394 111.148 332.675 107.638 334.888C102.668 338.02 97.9744 340.972 93.6211 343.418C85.4009 348.031 77.4679 351.563 70.7937 354.409C57.6497 360.205 43.7406 364.55 29.2646 367.384C17.9524 369.678 3.90288 371.786 -13.6775 373.822C-29.6002 375.663 -48.7642 377.362 -72.1706 379.102C-124.47 383.031 -168.224 384.738 -205.858 384.387L-205.511 385.522C-167.831 385.869 -124.061 384.139 -71.7003 380.223C-48.2433 378.504 -29.0941 376.787 -13.152 374.981C4.46978 372.933 18.5407 370.799 29.9087 368.522C44.4663 365.676 58.4575 361.318 71.6853 355.509C78.3805 352.647 86.3447 349.101 94.6067 344.466C98.9757 342.008 103.679 339.049 108.661 335.908C112.17 333.705 115.8 331.421 119.767 329.019C125.171 325.601 130.831 322.557 136.717 319.904C147.689 315.179 159.498 313.996 168.309 316.741C178.156 319.802 183.376 325.803 188.424 331.608L193.249 337.145C204.412 349.95 217.077 364.462 230.162 380.372L230.655 380.991C241.704 394.437 255.461 411.118 277.29 420.54C299.12 429.962 319.615 426.947 334.586 424.726L336.714 424.423C351.838 422.235 367.364 420.744 391.254 426.205C392.882 426.578 394.576 427.01 396.288 427.488C422.49 434.807 454.588 452.782 467.665 462.926L468.448 462.203Z" fill="url(#paint9_linear_1103_1765)"/>
<path style="mix-blend-mode:screen" opacity="0.7" d="M469.162 460.635C456.297 447.865 423.594 429.338 397.177 423.135C395.406 422.717 393.649 422.357 391.961 422.064C367.758 417.825 352.11 421.874 336.97 425.796C323.568 429.266 301.124 435.053 277.418 424.837C254.62 415.007 241.38 396.185 231.705 382.44C225.05 373.011 218.592 363.989 212.35 355.271C205.591 345.841 199.212 336.939 193.29 328.475L193.058 328.184C188.34 321.434 182.989 313.782 172.056 309.703C162.404 306.075 149.705 306.964 138.098 312.009C132.03 314.76 126.282 318.055 120.909 321.86C114.298 326.382 108.565 330.945 103.508 334.975C101.157 336.846 98.9327 338.611 96.7421 340.291C89.0046 346.203 81.531 351.14 74.6086 355.589C61.4207 364.07 49.1816 370.936 32.2771 376.882C20.3943 381.081 5.73866 384.985 -11.3163 388.498C-28.3713 392.011 -48.2384 395.02 -70.5352 397.621C-104.07 401.576 -155.053 405.881 -207.488 403.916L-207.148 405.151C-154.61 407.117 -103.56 402.791 -69.9683 398.823C-47.6353 396.214 -27.6682 393.14 -10.6353 389.673C6.3975 386.206 21.1942 382.236 33.1344 378.013C50.1325 372.036 62.4449 365.134 75.6855 356.613C82.629 352.148 90.1184 347.199 97.8824 341.267C100.072 339.608 102.287 337.83 104.648 335.951C109.694 331.939 115.417 327.385 121.996 322.877C127.315 319.109 133.005 315.848 139.012 313.127C150.275 308.223 162.51 307.357 171.736 310.801C182.044 314.647 187.215 322.029 191.776 328.549L192.008 328.84C197.924 337.287 204.319 346.218 211.077 355.649C217.319 364.367 223.777 373.378 230.403 382.78C240.21 396.714 253.637 415.792 276.983 425.863C301.307 436.356 324.089 430.463 337.693 426.939C352.727 423.107 368.224 419.113 392.039 423.268C393.691 423.559 395.408 423.909 397.121 424.341C422.426 430.283 455.459 448.768 468.086 461.281L469.162 460.635Z" fill="url(#paint10_linear_1103_1765)"/>
<path style="mix-blend-mode:screen" opacity="0.7" d="M469.854 459.011C458.452 444.807 425.304 425.013 398.007 419.779C396.197 419.434 394.406 419.155 392.695 418.945C369.856 416.159 355.404 421.621 340.106 427.416L337.833 428.27C321.679 434.355 300.192 440.07 277.215 430.136C255.025 420.554 242.34 401.785 232.186 384.95L227.986 377.997C216.701 359.325 206.043 341.685 196.7 325.262C192.26 317.453 187.221 308.593 175.722 303.639C163.795 298.49 149.664 300.997 140.418 305.06C134.198 307.877 128.4 311.404 123.115 315.585C115.354 321.525 109.102 327.827 103.53 333.415L99.9594 336.998C92.2078 344.667 84.777 351.224 78.5248 356.629C66.9022 366.671 53.6325 377.223 35.4076 386.303C23.0264 392.481 8.14009 398.133 -8.84941 403.115C-28.3787 408.649 -48.3957 412.998 -68.8081 416.141C-101.91 421.449 -153.087 427.025 -208.996 423.488L-208.684 424.818C-152.636 428.339 -101.293 422.768 -68.114 417.451C-47.6397 414.301 -27.5633 409.938 -7.97842 404.38C9.08382 399.383 24.0436 393.695 36.4875 387.49C54.8325 378.369 68.1654 367.779 79.8412 357.687C86.104 352.273 93.5507 345.704 101.319 338.003C102.492 336.845 103.683 335.644 104.9 334.422C110.414 328.868 116.676 322.568 124.378 316.673C129.593 312.546 135.313 309.064 141.45 306.283C150.387 302.354 163.97 299.904 175.301 304.796C186.114 309.451 190.973 318 195.257 325.537C204.609 341.983 215.273 359.629 226.567 378.314L230.757 385.254C241.083 402.369 253.985 421.432 276.784 431.28C300.433 441.503 322.331 435.676 338.798 429.504L341.071 428.65C356.186 422.924 370.471 417.518 392.879 420.252C394.549 420.454 396.288 420.732 398.052 421.071C424.872 426.208 457.398 445.605 468.558 459.504L469.854 459.011Z" fill="url(#paint11_linear_1103_1765)"/>
<path style="mix-blend-mode:screen" opacity="0.7" d="M470.547 457.322C459.209 439.79 425.031 420.263 398.822 416.367C396.99 416.085 395.175 415.889 393.42 415.768C371.309 414.211 357.588 421.164 343.061 428.528L338.687 430.731C315.983 442.028 295.808 443.566 277.011 435.437C254.873 425.856 242.622 406.706 232.667 387.436C222.439 367.642 210.567 344.392 200.148 321.972C196.315 313.691 191.547 303.378 179.417 297.49C171.239 293.521 157.312 291.576 142.744 298.021C136.354 300.909 130.493 304.678 125.294 309.24C117.045 316.259 110.775 324.141 105.208 331.109L103.151 333.668C97.1692 341.121 90.7698 348.53 82.435 357.655C71.2954 369.736 57.3605 383.714 38.4975 395.733C25.6976 403.909 10.5842 411.327 -6.43714 417.769C-25.9778 424.991 -46.2603 430.661 -67.1299 434.736C-114.541 444.292 -164.142 447.204 -210.582 443.118L-210.293 444.55C-163.657 448.626 -113.885 445.726 -66.3074 436.144C-43.876 431.636 -23.3863 425.927 -5.36971 419.121C11.7306 412.64 26.9283 405.178 39.7915 396.964C58.7603 384.875 72.754 370.842 83.947 358.711C92.2928 349.567 98.6974 342.154 104.706 334.671L106.763 332.112C112.303 325.174 118.546 317.343 126.715 310.384C131.822 305.901 137.577 302.193 143.848 299.345C152.614 295.466 167.046 292.966 178.839 298.699C190.209 304.221 194.814 314.168 198.507 322.155C208.967 344.594 220.848 367.867 231.075 387.681C241.2 407.292 253.703 426.813 276.546 436.68C295.986 445.072 316.677 443.563 339.86 432.033L344.239 429.826C358.576 422.556 372.134 415.697 393.75 417.199C395.453 417.319 397.216 417.514 398.987 417.783C424.608 421.603 458.012 440.637 469.064 457.735L470.547 457.322Z" fill="url(#paint12_linear_1103_1765)"/>
<path style="mix-blend-mode:screen" opacity="0.7" d="M471.248 455.557C461.089 436.16 426.973 415.787 399.699 412.827C397.827 412.62 395.978 412.506 394.199 412.468C372.509 412.022 358.672 420.909 345.283 429.457C343.4 430.673 341.506 431.887 339.614 433.059C324.609 442.419 301.509 451.29 276.849 440.601C253.703 430.571 241.795 409.278 233.202 389.779C221.166 362.512 211.49 339.208 203.605 318.52C200.323 309.858 195.818 298.008 183.133 291.172C170.121 284.182 154.506 286.609 145.097 290.807C138.558 293.774 132.651 297.783 127.558 302.709C119.189 310.554 113.171 319.829 107.864 328.014L106.447 330.191C100.398 339.47 93.8604 348.757 86.4495 358.556C71.1859 378.638 57.3845 392.997 41.696 405.113C27.6381 415.834 12.3668 424.974 -3.91563 432.412C-23.4554 441.311 -44.018 448.324 -65.3796 453.377C-112.998 464.897 -163.72 468.142 -212.121 462.805L-211.866 464.338C-163.222 469.701 -112.266 466.45 -64.4434 454.876C-42.9857 449.821 -22.329 442.796 -2.6981 433.878C13.6704 426.399 29.0216 417.208 43.1522 406.428C58.9205 394.252 72.7861 379.834 88.1146 359.673C95.5369 349.845 102.09 340.546 108.156 331.234L109.573 329.057C115.11 320.528 120.833 311.707 129.11 303.952C134.1 299.129 139.883 295.201 146.283 292.286C155.297 288.267 170.168 285.902 182.415 292.478C194.316 298.855 198.627 310.3 201.799 318.674C209.693 339.385 219.384 362.718 231.429 390.008C240.197 409.897 252.386 431.629 276.34 442.01C301.895 453.084 325.589 444.015 340.964 434.455C342.877 433.266 344.776 432.049 346.669 430.835C359.843 422.37 373.463 413.628 394.635 414.045C396.357 414.065 398.154 414.178 399.938 414.393C426.028 417.205 459.86 437.352 469.542 455.836L471.248 455.557Z" fill="url(#paint13_linear_1103_1765)"/>
<path style="mix-blend-mode:screen" opacity="0.7" d="M471.95 453.728C463.034 432.743 428.329 411.126 400.511 409.212C398.605 409.086 396.726 409.06 394.913 409.105C373.407 409.767 360.038 420.247 347.066 430.387C344.923 432.071 342.705 433.802 340.499 435.463C328.465 444.479 304.168 457.814 276.638 445.858C252.587 435.414 241.427 412.869 233.683 392.194C223.15 364.111 214.443 338.891 207.058 315.097C204.28 306.13 200.117 292.625 186.852 284.86C178.386 279.901 162.983 276.593 147.435 283.581C140.733 286.637 134.769 290.897 129.778 296.193C121.417 304.812 115.982 314.989 110.719 324.824L109.677 326.741C103.726 337.841 97.2473 348.869 90.3955 359.525C75.7747 382.278 61.2869 399.786 44.8474 414.626C30.7819 427.228 15.2737 438.148 -1.45576 447.229C-20.9803 457.734 -41.8178 466.06 -63.6752 472.092C-111.617 485.585 -163.503 489.203 -213.704 482.557L-213.488 484.195C-162.975 490.867 -110.797 487.228 -62.5981 473.672C-40.6246 467.608 -19.6773 459.235 -0.0513783 448.671C16.7675 439.546 32.3563 428.568 46.4917 415.896C62.9953 401.008 77.5375 383.428 92.2655 360.585C99.1126 349.912 105.608 338.862 111.58 327.734L112.596 325.838C117.82 316.062 123.222 305.961 131.476 297.443C136.351 292.268 142.178 288.105 148.727 285.119C163.556 278.454 178.082 281.509 186.007 286.155C197.465 292.863 201.582 303.675 205.115 315.109C212.51 338.937 221.232 364.185 231.769 392.295C235.077 401.133 239.817 412.609 247.153 423.024C255.146 434.381 264.616 442.325 276.111 447.315C304.734 459.74 329.708 446.084 342.052 436.843C344.262 435.168 346.511 433.465 348.64 431.751C361.394 421.757 374.586 411.42 395.518 410.801C397.258 410.751 399.063 410.782 400.892 410.907C427.849 412.717 461.459 433.604 470.065 453.877L471.95 453.728Z" fill="url(#paint14_linear_1103_1765)"/>
<path style="mix-blend-mode:screen" opacity="0.7" d="M472.651 451.824C464.78 428.862 430.148 406.387 401.395 405.566C399.48 405.514 397.58 405.562 395.704 405.708C374.236 407.375 361.19 419.521 348.619 431.227C346.275 433.407 343.855 435.664 341.44 437.797C312.151 463.573 284.305 454.472 276.455 451.081C251.38 440.174 240.695 415.143 234.191 394.558C225.156 365.935 217.193 338.024 210.556 311.563C207.464 299.216 203.382 286.487 190.622 278.436C177.454 270.118 160.637 271.34 149.812 276.241C142.951 279.381 136.937 283.886 132.06 289.539C123.863 298.779 118.844 310.093 113.979 321.018L113.026 323.154C107.386 335.878 101.147 348.399 94.4824 360.365C80.4331 385.558 65.2551 406.387 48.1106 424.021C34.0205 438.483 18.2768 451.19 1.11287 461.952C-18.3834 474.076 -39.5002 483.752 -61.8737 490.816C-110.242 506.261 -163.248 510.277 -215.23 502.35L-215.052 504.073C-162.723 512.07 -109.347 508.056 -60.6872 492.501C-38.1893 485.392 -16.9538 475.66 2.65483 463.47C19.9086 452.651 35.7349 439.878 49.8993 425.342C67.1409 407.614 82.3739 386.703 96.4785 361.417C103.159 349.419 109.415 336.875 115.067 324.112L116.02 321.976C120.846 311.131 125.84 299.916 133.903 290.798C138.656 285.28 144.52 280.881 151.211 277.816C161.485 273.161 177.362 271.945 189.64 279.715C201.565 287.248 205.475 299.521 208.466 311.45C215.118 337.941 223.079 365.893 232.129 394.535C238.78 415.595 249.768 441.224 275.894 452.587C288.148 457.921 300.952 458.842 313.914 455.3C326.877 451.759 337.016 444.571 343.168 439.193C345.6 437.048 348.025 434.786 350.374 432.602C362.784 421.049 375.614 409.107 396.449 407.476C398.25 407.347 400.072 407.314 401.909 407.378C429.615 408.134 463.037 429.769 470.598 451.855L472.651 451.824Z" fill="url(#paint15_linear_1103_1765)"/>
<path style="mix-blend-mode:screen" opacity="0.7" d="M473.351 449.84C469.82 436.969 458.895 424.09 443.414 414.48C427.933 404.871 410.81 400.395 396.469 402.188C375.001 404.863 362.261 418.64 349.991 431.989C347.514 434.677 344.949 437.461 342.374 440.071C319.533 463.254 293.267 463.62 276.308 456.235C250.068 444.802 240.037 416.873 234.734 396.816C226.951 367.265 219.998 337.338 214.102 307.896C212.925 302.022 211.419 295.203 208.445 288.726C205.13 281.494 200.548 275.973 194.448 271.855C180.792 262.634 163.408 263.644 152.245 268.74C131.702 278.109 124.29 298.118 117.131 317.459L116.378 319.478C90.0934 390.22 53.2176 441.672 3.67201 476.796C-56.5443 519.389 -136.875 535.981 -216.758 522.294L-216.62 524.124C-136.102 537.948 -55.1567 521.285 5.44642 478.399C55.1563 443.059 92.18 391.414 118.562 320.427L119.31 318.401C126.382 299.308 133.696 279.555 153.708 270.427C164.269 265.614 180.612 264.594 193.33 273.188C205.74 281.569 209.294 294.838 211.892 307.738C217.792 337.207 224.724 367.171 232.547 396.762C243.842 439.594 262.603 452.147 275.735 457.874C302.786 469.655 328.871 457.109 344.307 441.493C346.897 438.871 349.473 436.079 351.951 433.381C364.056 420.258 376.58 406.686 397.401 404.085C411.091 402.33 427.523 406.661 442.394 415.861C457.265 425.062 467.767 437.451 471.153 449.774L473.351 449.84Z" fill="url(#paint16_linear_1103_1765)"/>
</g>
<defs>
<linearGradient id="paint0_linear_1103_1765" x1="141.094" y1="277.878" x2="111.07" y2="385.459" gradientUnits="userSpaceOnUse">
<stop stop-color="#FFFFE0"/>
<stop offset="1" stop-color="#FEFCFF"/>
</linearGradient>
<linearGradient id="paint1_linear_1103_1765" x1="139.707" y1="295.582" x2="115.273" y2="383.179" gradientUnits="userSpaceOnUse">
<stop stop-color="#FFFFE0"/>
<stop offset="1" stop-color="#FEFCFF"/>
</linearGradient>
<linearGradient id="paint2_linear_1103_1765" x1="138.354" y1="312.908" x2="119.3" y2="381.252" gradientUnits="userSpaceOnUse">
<stop stop-color="#FFFFE0"/>
<stop offset="1" stop-color="#FEFCFF"/>
</linearGradient>
<linearGradient id="paint3_linear_1103_1765" x1="137.043" y1="329.665" x2="123.202" y2="379.337" gradientUnits="userSpaceOnUse">
<stop stop-color="#FFFFE0"/>
<stop offset="1" stop-color="#FEFCFF"/>
</linearGradient>
<linearGradient id="paint4_linear_1103_1765" x1="136.762" y1="335.997" x2="125.06" y2="378.007" gradientUnits="userSpaceOnUse">
<stop stop-color="#FFFFE0"/>
<stop offset="1" stop-color="#FEFCFF"/>
</linearGradient>
<linearGradient id="paint5_linear_1103_1765" x1="137.446" y1="332.397" x2="119.674" y2="396.228" gradientUnits="userSpaceOnUse">
<stop stop-color="#FFFFE0"/>
<stop offset="1" stop-color="#FEFCFF"/>
</linearGradient>
<linearGradient id="paint6_linear_1103_1765" x1="138.292" y1="327.056" x2="113.975" y2="414.423" gradientUnits="userSpaceOnUse">
<stop stop-color="#FFFFE0"/>
<stop offset="1" stop-color="#FEFCFF"/>
</linearGradient>
<linearGradient id="paint7_linear_1103_1765" x1="139.285" y1="321.115" x2="108.245" y2="432.667" gradientUnits="userSpaceOnUse">
<stop stop-color="#FFFFE0"/>
<stop offset="1" stop-color="#FEFCFF"/>
</linearGradient>
<linearGradient id="paint8_linear_1103_1765" x1="140.329" y1="314.813" x2="102.455" y2="450.96" gradientUnits="userSpaceOnUse">
<stop stop-color="#FFFFE0"/>
<stop offset="1" stop-color="#FEFCFF"/>
</linearGradient>
<linearGradient id="paint9_linear_1103_1765" x1="141.407" y1="308.239" x2="96.6096" y2="469.305" gradientUnits="userSpaceOnUse">
<stop stop-color="#FFFFE0"/>
<stop offset="1" stop-color="#FEFCFF"/>
</linearGradient>
<linearGradient id="paint10_linear_1103_1765" x1="142.495" y1="301.475" x2="90.7104" y2="487.693" gradientUnits="userSpaceOnUse">
<stop stop-color="#FFFFE0"/>
<stop offset="1" stop-color="#FEFCFF"/>
</linearGradient>
<linearGradient id="paint11_linear_1103_1765" x1="143.599" y1="294.525" x2="84.7627" y2="506.124" gradientUnits="userSpaceOnUse">
<stop stop-color="#FFFFE0"/>
<stop offset="1" stop-color="#FEFCFF"/>
</linearGradient>
<linearGradient id="paint12_linear_1103_1765" x1="144.721" y1="287.439" x2="78.7764" y2="524.616" gradientUnits="userSpaceOnUse">
<stop stop-color="#FFFFE0"/>
<stop offset="1" stop-color="#FEFCFF"/>
</linearGradient>
<linearGradient id="paint13_linear_1103_1765" x1="145.863" y1="280.127" x2="72.7351" y2="543.143" gradientUnits="userSpaceOnUse">
<stop stop-color="#FFFFE0"/>
<stop offset="1" stop-color="#FEFCFF"/>
</linearGradient>
<linearGradient id="paint14_linear_1103_1765" x1="147.002" y1="272.754" x2="66.6543" y2="561.726" gradientUnits="userSpaceOnUse">
<stop stop-color="#FFFFE0"/>
<stop offset="1" stop-color="#FEFCFF"/>
</linearGradient>
<linearGradient id="paint15_linear_1103_1765" x1="148.18" y1="265.125" x2="60.5211" y2="580.367" gradientUnits="userSpaceOnUse">
<stop stop-color="#FFFFE0"/>
<stop offset="1" stop-color="#FEFCFF"/>
</linearGradient>
<linearGradient id="paint16_linear_1103_1765" x1="149.355" y1="257.382" x2="54.3317" y2="599.058" gradientUnits="userSpaceOnUse">
<stop stop-color="#FEFCFF" stop-opacity="0"/>
<stop offset="0.388542" stop-color="#FFFFE0"/>
<stop offset="0.591667" stop-color="#FEFCFF" stop-opacity="0"/>
</linearGradient>
</defs>
</svg>
