<svg width="172" height="171" viewBox="0 0 172 171" fill="none" xmlns="http://www.w3.org/2000/svg">
<g opacity="0.57">
<path d="M139.913 35.4685L139.768 35.6115L139.624 35.7545L98.2727 76.7104L98.1283 76.8534L97.9839 76.9964L56.6325 117.952L56.4881 118.101L56.3437 118.244L27.4043 146.907L27.8375 147.3L56.7588 118.655L56.9032 118.512L57.0476 118.369L98.399 77.4135L98.5434 77.2705L98.6878 77.1275L140.045 36.1716L140.19 36.0227L140.334 35.8797L148.679 27.6146L148.282 27.1855L139.913 35.4685Z" fill="#FFFFE0"/>
<path d="M143.928 39.7362L143.783 39.8792L102.432 80.8351L102.288 80.9781L102.143 81.1211L60.7917 122.071L60.6473 122.214L60.5029 122.357L31.8223 150.763L32.2795 151.133L60.9181 122.768L61.0625 122.625L61.2069 122.482L102.558 81.5501L102.703 81.4071L102.847 81.2641L144.217 40.2964L144.361 40.1533L144.505 40.0044L152.567 32.0194C152.441 31.8704 152.321 31.7155 152.194 31.5605L144.072 39.5932L143.928 39.7362Z" fill="#FFFFE0"/>
<path d="M160.591 56.2369L160.446 56.3799L119.095 97.3357L118.951 97.4788L118.806 97.6218L77.4366 138.578L77.2922 138.721L77.1418 138.864L52.5283 163.266L53.13 163.51L77.5991 139.275L77.7435 139.132L77.8879 138.989L119.239 98.0329L119.384 97.8899L119.528 97.7469L160.88 56.7911L161.024 56.6481L161.168 56.505L165.061 52.6496C164.977 52.4589 164.899 52.2623 164.814 52.0537L160.753 56.076L160.591 56.2369Z" fill="#FFFFE0"/>
<path d="M152.263 47.9889L152.119 48.1319L110.762 89.0878L110.617 89.2308L110.473 89.3738L69.1215 130.33L68.9771 130.473L68.8327 130.616L41.5479 157.639L42.0653 157.949L69.2478 131.009L69.3982 130.866L69.5426 130.723L110.894 89.7671L111.038 89.6241L111.183 89.4811L152.534 48.5252L152.679 48.3822L152.823 48.2392L159.441 41.6843L159.122 41.1719L152.408 47.8399L152.263 47.9889Z" fill="#FFFFE0"/>
<path d="M164.754 60.3595L164.61 60.5025L123.258 101.458L123.114 101.601L122.97 101.744L81.6483 142.7L81.5039 142.843L81.3595 142.986L58.5449 165.571L59.1466 165.773L81.7205 143.421L81.8649 143.278L82.0093 143.129L123.361 102.173L123.505 102.03L123.649 101.887L165.001 60.9316L165.145 60.7886L165.29 60.6456L167.293 58.6672C167.221 58.4586 167.155 58.2501 167.083 58.0713L164.875 60.2582L164.754 60.3595Z" fill="#FFFFE0"/>
<path d="M156.428 52.1122L156.283 52.2553L114.932 93.2111L114.787 93.3541L114.643 93.4971L73.2855 134.453L73.1411 134.596L72.9967 134.739L46.873 160.613L47.4206 160.899L73.4179 135.18L73.5622 135.037L73.7066 134.894L115.058 93.9381L115.202 93.7951L115.347 93.6521L156.698 52.6962L156.843 52.5532L156.987 52.4102L162.402 47.0471L162.119 46.5049L156.566 52.005L156.428 52.1122Z" fill="#FFFFE0"/>
<path d="M148.1 43.8589L147.956 44.0019L106.599 84.9637L106.454 85.1067L106.31 85.2497L64.9584 126.205L64.814 126.348L64.6696 126.492L36.5244 154.356L37.0117 154.695L65.0727 126.903L65.2171 126.76L65.3675 126.617L106.719 85.6609L106.863 85.5178L107.008 85.3748L148.371 44.419L148.516 44.276L148.66 44.133L156.144 36.7141L155.802 36.2314L148.245 43.7159L148.1 43.8589Z" fill="#FFFFE0"/>
<path d="M168.774 64.6256L127.422 105.581L127.278 105.724L127.133 105.867L85.7819 146.823L85.6375 146.966L85.4931 147.109L64.9648 167.441L65.6327 167.602L85.9083 147.526L86.0527 147.383L86.1971 147.24L127.548 106.285L127.693 106.136L127.837 105.993L169.183 65.0486L169.092 64.6732C169.092 64.5838 169.05 64.5004 169.026 64.417L168.93 64.5123L168.774 64.6256Z" fill="#FFFFE0"/>
<path d="M143.933 122.225L143.788 122.368L102.437 163.323L102.292 163.466L102.148 163.609L96.2217 169.479L97.1663 169.372L102.581 164.009L102.726 163.866L102.87 163.723L144.221 122.779L144.366 122.636L144.51 122.493L170.983 96.2734L171.091 95.3379L144.077 122.07L143.933 122.225Z" fill="#FFFFE0"/>
<path d="M135.605 113.971L135.46 114.114L94.109 155.076L93.9646 155.219L93.8202 155.362L79.2422 169.788L80.0183 169.848L94.2293 155.773L94.3737 155.63L94.5181 155.487L135.87 114.531L136.014 114.388L136.158 114.245L171.439 79.3019C171.439 79.0457 171.403 78.7894 171.379 78.5332L135.743 113.828L135.605 113.971Z" fill="#FFFFE0"/>
<path d="M139.767 118.102L139.623 118.245L98.2715 159.201L98.1271 159.344L97.9827 159.487L87.3154 170.052H88.1577L98.3858 159.922L98.5302 159.779L98.6746 159.636L140.032 118.68L140.176 118.537L140.321 118.394L171.607 87.4075C171.607 87.1274 171.607 86.8474 171.607 86.5732L139.87 118.001L139.767 118.102Z" fill="#FFFFE0"/>
<path d="M131.44 109.85L131.296 109.993L89.9445 150.949L89.8001 151.092L89.6557 151.235L71.8408 168.879L72.5568 168.998L90.0708 151.652L90.2152 151.509L90.3596 151.366L131.711 110.41L131.855 110.267L132 110.118L170.584 71.9093C170.547 71.671 170.505 71.4386 170.463 71.2002L131.585 109.707L131.44 109.85Z" fill="#FFFFE0"/>
<path d="M152.263 130.472L152.119 130.615L118.703 163.711L120.147 163.115L152.534 131.008L152.678 130.865L152.823 130.722L164.633 119.025C164.842 118.548 165.042 118.071 165.235 117.595L152.396 130.311L152.263 130.472Z" fill="#FFFFE0"/>
<path d="M148.102 126.348L147.957 126.491L106.6 167.447L106.455 167.59L106.365 167.68L106.516 167.644L106.744 167.59C106.985 167.531 107.232 167.477 107.472 167.412L148.385 126.891L148.529 126.748L148.673 126.605L168.997 106.469C169.093 106.112 169.178 105.742 169.268 105.379L148.258 126.193L148.102 126.348Z" fill="#FFFFE0"/>
<path d="M44.4155 23.6514L44.5599 23.5083L64.9558 3.31348L63.8187 3.61142L44.1447 23.0972L44.0003 23.2402L43.8559 23.3832L3.60551 63.2426C3.50323 63.618 3.40095 63.9934 3.30469 64.3688L44.2711 23.7944L44.4155 23.6514Z" fill="#FFFFE0"/>
<path d="M22.3125 29.0381L29.3036 22.1436C26.8426 24.308 24.5084 26.6099 22.3125 29.0381Z" fill="#FFFFE0"/>
<path d="M40.2465 19.5286L40.3908 19.3856L52.3035 7.58691L50.8114 8.25432L39.9817 18.9804L39.8313 19.1234L39.6869 19.2664L8.24466 50.3721C8.02205 50.8608 7.80546 51.3554 7.58887 51.85L40.078 19.6717L40.2465 19.5286Z" fill="#FFFFE0"/>
<path d="M143.788 147.938L149.323 142.456C150.871 140.78 152.347 139.044 153.751 137.248L138.529 152.324C140.342 150.93 142.095 149.468 143.788 147.938Z" fill="#FFFFE0"/>
<path d="M19.4238 81.393L19.5682 81.25L60.9196 40.2942L61.064 40.1511L61.2084 40.0022L99.8223 1.76361L99.0943 1.65039L60.7932 39.591L60.6488 39.734L60.5044 39.877L19.153 80.8329L19.0086 80.9759L18.8642 81.1189L1.62695 98.1972C1.66305 98.4356 1.70517 98.674 1.74127 98.9063L19.2794 81.5479L19.4238 81.393Z" fill="#FFFFE0"/>
<path d="M11.0988 73.1409L11.2432 72.9979L52.5946 32.0421L52.739 31.8991L52.8834 31.7561L84.2354 0.709961H83.375L52.4683 31.3449L52.3239 31.4879L52.1795 31.6309L10.8281 72.6106L10.6837 72.7536L10.5393 72.8966L0.696289 82.6216C0.696289 82.9017 0.696289 83.1877 0.696289 83.4737L10.9785 73.2899L11.0988 73.1409Z" fill="#FFFFE0"/>
<path d="M15.2609 77.2719L15.4053 77.1289L56.7567 36.1731L56.9011 36.0241L57.0455 35.8811L92.3563 0.908023L91.5742 0.860352L56.6303 35.4699L56.4859 35.6129L56.3416 35.7559L14.9901 76.7118L14.8458 76.8548L14.7014 76.9978L0.821289 90.7451C0.821289 91.0013 0.821286 91.2635 0.869418 91.5197L15.1165 77.4149L15.2609 77.2719Z" fill="#FFFFE0"/>
<path d="M6.93422 69.0349L7.07861 68.8919L48.43 27.9182L48.5744 27.7752L48.7188 27.6322L75.2396 1.37109C74.9147 1.40685 74.5898 1.46048 74.2709 1.50219L48.3037 27.221L48.1593 27.364L48.0149 27.507L6.66348 68.439L6.51908 68.582L6.36866 68.7251L1.47123 73.5756C1.42912 73.8974 1.38098 74.2192 1.33887 74.535L6.78982 69.1362L6.93422 69.0349Z" fill="#FFFFE0"/>
<path d="M52.769 114.39L52.9134 114.247L94.2648 73.291L94.4092 73.142L94.5536 72.999L135.905 32.0432L136.049 31.9002L136.194 31.7572L144.521 23.4862L144.087 23.0869L135.749 31.346L135.604 31.489L135.46 31.632L94.1083 72.6117L93.964 72.7547L93.8196 72.8977L52.4681 113.83L52.3237 113.973L52.1793 114.116L23.2881 142.754L23.6912 143.177L52.6185 114.533L52.769 114.39Z" fill="#FFFFE0"/>
<path d="M44.4127 106.136L44.5571 105.993L85.9085 65.0374L86.0529 64.8944L86.1973 64.7514L127.549 23.7956L127.693 23.6525L127.838 23.5095L135.334 16.0906C135.172 15.9715 135.003 15.8642 134.841 15.751L127.422 23.0984L127.278 23.2414L127.134 23.3844L85.7822 64.3402L85.6378 64.4832L85.4934 64.6262L44.142 105.582L43.9976 105.725L43.8532 105.868L15.8584 133.595L16.2013 134.084L44.2683 106.285L44.4127 106.136Z" fill="#FFFFE0"/>
<path d="M36.0835 97.8889L36.2278 97.7458L77.5793 56.79L77.7237 56.647L77.8681 56.504L119.219 15.5482L119.364 15.4052L119.508 15.2622L124.923 9.89911L124.364 9.625L119.075 14.8689L118.931 15.0119L118.786 15.1549L77.4349 56.0928L77.2905 56.2359L77.1401 56.3789L35.7886 97.3347L35.6442 97.4777L35.4999 97.6207L9.62891 123.244C9.71915 123.429 9.8094 123.614 9.90566 123.798L35.921 98.0319L36.0835 97.8889Z" fill="#FFFFE0"/>
<path d="M27.7491 89.6431L27.8934 89.5L69.2449 48.5442L69.3953 48.4012L69.5397 48.2582L110.891 7.30236L111.036 7.15935L111.18 7.01633L113.195 5.01413L112.594 4.81152L110.789 6.59921L110.644 6.74222L110.5 6.88524L69.1185 47.8411L68.9741 47.99L68.8297 48.1331L27.4964 89.0889L27.352 89.2319L27.2076 89.3749L4.82617 111.542C4.89235 111.745 4.96455 111.953 5.03074 112.138L27.6227 89.7622L27.7491 89.6431Z" fill="#FFFFE0"/>
<path d="M48.5608 110.266L48.7052 110.117L90.0746 69.1608L90.219 69.0177L90.3634 68.8747L131.715 27.9189L131.859 27.7759L132.004 27.6329L140.072 19.6419L139.615 19.2725L131.589 27.2217L131.444 27.3647L131.3 27.5077L89.9483 68.4397L89.8039 68.5827L89.6595 68.7258L48.3081 109.682L48.1637 109.825L48.0193 109.968L19.4229 138.29L19.7898 138.749L48.4344 110.385L48.5608 110.266Z" fill="#FFFFE0"/>
<path d="M40.2474 102.011L40.3918 101.868L81.7433 60.9121L81.8877 60.7691L82.0321 60.6261L123.384 19.6703L123.528 19.5272L123.672 19.3842L130.29 12.8294L129.761 12.5195L123.257 18.979L123.113 19.122L122.968 19.2651L81.647 60.2149L81.5026 60.3579L81.3582 60.501L40.0068 101.457L39.8564 101.6L39.712 101.743L12.6377 128.558C12.74 128.731 12.8423 128.91 12.9506 129.076L40.1452 102.142L40.2474 102.011Z" fill="#FFFFE0"/>
<path d="M31.9241 93.7648L32.0685 93.6217L73.42 52.6659L73.5644 52.5229L73.7088 52.3799L115.06 11.4241L115.205 11.2811L115.349 11.138L119.26 7.26472L118.658 7.02637L114.928 10.7209L114.783 10.8639L114.639 11.0129L73.2876 51.9687L73.1432 52.1117L72.9988 52.2547L31.6474 93.2106L31.503 93.3536L31.3586 93.4966L7.0459 117.571C7.12411 117.767 7.20233 117.964 7.28656 118.167L31.7677 93.9197L31.9241 93.7648Z" fill="#FFFFE0"/>
<path d="M23.5899 85.5181L23.7343 85.3751L65.0857 44.4193L65.2301 44.2762L65.3805 44.1332L106.732 3.17739H106.696L106.058 3.02246L64.9594 43.7161L64.815 43.8591L64.6706 44.0021L23.3192 84.9639L23.1748 85.1069L23.0304 85.2499L2.9834 105.099C3.03755 105.326 3.09169 105.546 3.15186 105.767L23.4455 85.6611L23.5899 85.5181Z" fill="#FFFFE0"/>
</g>
</svg>
