<svg width="524" height="309" viewBox="0 0 524 309" fill="none" xmlns="http://www.w3.org/2000/svg">
<path d="M139.843 273.183C159.613 253.415 159.613 221.364 139.843 201.596C120.073 181.828 88.019 181.828 68.2488 201.596C48.4786 221.364 48.4786 253.415 68.2488 273.183C88.019 292.951 120.073 292.951 139.843 273.183Z" stroke="#FFFFE0" stroke-width="0.25" stroke-miterlimit="10"/>
<g opacity="0.57">
<path d="M71.2495 186.523L71.1757 186.596L71.1019 186.67L49.9738 207.796L49.9 207.87L49.8262 207.944L28.6981 229.07L28.6243 229.146L28.5505 229.22L13.7642 244.005L13.9855 244.208L28.7626 229.432L28.8364 229.359L28.9102 229.285L50.0383 208.159L50.1121 208.085L50.1859 208.011L71.3171 186.885L71.3909 186.808L71.4647 186.735L75.7284 182.471L75.5256 182.25L71.2495 186.523Z" fill="#FFFFE0"/>
<path d="M73.3013 188.724L73.2276 188.798L52.0994 209.924L52.0256 209.998L51.9518 210.071L30.8237 231.194L30.7499 231.268L30.6761 231.342L16.022 245.994L16.2556 246.185L30.8882 231.554L30.962 231.48L31.0358 231.406L52.1639 210.293L52.2377 210.219L52.3115 210.145L73.4489 189.013L73.5227 188.939L73.5964 188.862L77.7157 184.744C77.6512 184.667 77.5897 184.587 77.5251 184.507L73.3751 188.65L73.3013 188.724Z" fill="#FFFFE0"/>
<path d="M81.8151 197.235L81.7414 197.309L60.6132 218.435L60.5394 218.508L60.4656 218.582L39.3283 239.708L39.2545 239.782L39.1776 239.856L26.6016 252.443L26.909 252.569L39.4113 240.068L39.485 239.994L39.5588 239.92L60.687 218.794L60.7608 218.721L60.8345 218.647L81.9627 197.521L82.0365 197.447L82.1103 197.373L84.0992 195.385C84.0562 195.286 84.0162 195.185 83.9732 195.077L81.8981 197.152L81.8151 197.235Z" fill="#FFFFE0"/>
<path d="M77.5605 192.98L77.4867 193.054L56.3555 214.18L56.2817 214.254L56.2079 214.328L35.0797 235.454L35.006 235.527L34.9322 235.601L20.9912 249.541L21.2556 249.7L35.1443 235.804L35.2211 235.73L35.2949 235.656L56.4231 214.53L56.4969 214.457L56.5706 214.383L77.6988 193.257L77.7726 193.183L77.8464 193.109L81.2279 189.728L81.0649 189.464L77.6342 192.903L77.5605 192.98Z" fill="#FFFFE0"/>
<path d="M83.9425 199.363L83.8688 199.437L62.7406 220.563L62.6668 220.636L62.593 220.71L41.4803 241.836L41.4065 241.91L41.3327 241.984L29.6758 253.633L29.9832 253.738L41.5171 242.208L41.5909 242.134L41.6647 242.058L62.7929 220.932L62.8666 220.858L62.9404 220.784L84.0686 199.658L84.1424 199.584L84.2161 199.51L85.2398 198.49C85.2029 198.382 85.1691 198.275 85.1322 198.183L84.004 199.311L83.9425 199.363Z" fill="#FFFFE0"/>
<path d="M79.6889 195.108L79.6151 195.182L58.4869 216.308L58.4131 216.382L58.3393 216.456L37.2081 237.582L37.1343 237.655L37.0606 237.729L23.7129 251.075L23.9926 251.223L37.2757 237.957L37.3495 237.883L37.4233 237.809L58.5515 216.683L58.6252 216.609L58.699 216.535L79.8272 195.409L79.901 195.336L79.9747 195.262L82.7414 192.496L82.5969 192.216L79.7595 195.053L79.6889 195.108Z" fill="#FFFFE0"/>
<path d="M75.4342 190.85L75.3604 190.924L54.2291 212.053L54.1554 212.127L54.0816 212.201L32.9534 233.327L32.8796 233.401L32.8058 233.474L18.4253 247.847L18.6743 248.022L33.0118 233.686L33.0856 233.613L33.1624 233.539L54.2906 212.413L54.3644 212.339L54.4382 212.265L75.5725 191.139L75.6463 191.066L75.72 190.992L79.5442 187.165L79.369 186.916L75.5079 190.777L75.4342 190.85Z" fill="#FFFFE0"/>
<path d="M85.9968 201.563L64.8686 222.689L64.7948 222.762L64.721 222.836L43.5929 243.962L43.5191 244.036L43.4453 244.11L32.9565 254.597L33.2978 254.68L43.6574 244.325L43.7312 244.251L43.805 244.177L64.9331 223.051L65.0069 222.975L65.0807 222.901L86.2058 201.781L86.1597 201.587C86.1597 201.541 86.1382 201.498 86.1259 201.455L86.0767 201.504L85.9968 201.563Z" fill="#FFFFE0"/>
<path d="M73.3037 231.274L73.23 231.348L52.1018 252.474L52.028 252.548L51.9542 252.621L48.9263 255.649L49.4089 255.594L52.1756 252.827L52.2494 252.754L52.3231 252.68L73.4513 231.56L73.5251 231.486L73.5988 231.412L87.1248 217.888L87.1801 217.405L73.3775 231.194L73.3037 231.274Z" fill="#FFFFE0"/>
<path d="M69.0495 227.017L68.9757 227.091L47.8475 248.22L47.7737 248.294L47.7 248.367L40.2515 255.809L40.648 255.84L47.909 248.579L47.9828 248.506L48.0566 248.432L69.1847 227.306L69.2585 227.232L69.3323 227.158L87.3587 209.134C87.3587 209.002 87.3403 208.869 87.328 208.737L69.1202 226.943L69.0495 227.017Z" fill="#FFFFE0"/>
<path d="M71.1758 229.147L71.102 229.221L49.9739 250.347L49.9001 250.421L49.8263 250.494L44.376 255.944H44.8064L50.0323 250.719L50.1061 250.645L50.1798 250.571L71.3111 229.445L71.3849 229.371L71.4586 229.298L87.4439 213.314C87.4439 213.17 87.4439 213.025 87.4439 212.884L71.2281 229.095L71.1758 229.147Z" fill="#FFFFE0"/>
<path d="M66.9216 224.891L66.8478 224.964L45.7196 246.09L45.6459 246.164L45.5721 246.238L36.4697 255.339L36.8355 255.401L45.7842 246.453L45.858 246.379L45.9318 246.305L67.0599 225.179L67.1337 225.106L67.2075 225.029L86.9215 205.32C86.9031 205.197 86.8816 205.077 86.8601 204.954L66.9953 224.817L66.9216 224.891Z" fill="#FFFFE0"/>
<path d="M77.5598 235.528L77.4861 235.602L60.4126 252.674L61.1504 252.366L77.6982 235.805L77.7719 235.731L77.8457 235.657L83.8801 229.623C83.9867 229.378 84.0892 229.132 84.1876 228.886L77.6275 235.445L77.5598 235.528Z" fill="#FFFFE0"/>
<path d="M75.4338 233.402L75.36 233.475L54.2288 254.601L54.155 254.675L54.1089 254.721L54.1857 254.703L54.3026 254.675C54.4255 254.644 54.5516 254.617 54.6745 254.583L75.5783 233.681L75.6521 233.607L75.7258 233.534L86.1101 223.147C86.1593 222.963 86.2023 222.772 86.2484 222.585L75.5137 233.322L75.4338 233.402Z" fill="#FFFFE0"/>
<path d="M22.4564 180.427L22.5302 180.354L32.9513 169.937L32.3703 170.09L22.318 180.141L22.2443 180.215L22.1705 180.289L1.60488 200.849C1.55262 201.043 1.50036 201.237 1.45117 201.43L22.3826 180.501L22.4564 180.427Z" fill="#FFFFE0"/>
<path d="M11.1641 183.207L14.7361 179.65C13.4787 180.767 12.2861 181.954 11.1641 183.207Z" fill="#FFFFE0"/>
<path d="M20.3263 178.3L20.4 178.227L26.4867 172.141L25.7243 172.485L20.191 178.018L20.1141 178.091L20.0404 178.165L3.97521 194.21C3.86147 194.462 3.7508 194.717 3.64014 194.973L20.2402 178.374L20.3263 178.3Z" fill="#FFFFE0"/>
<path d="M73.2292 244.537L76.0574 241.709C76.8485 240.844 77.6026 239.949 78.3199 239.022L70.5425 246.799C71.4688 246.08 72.3644 245.326 73.2292 244.537Z" fill="#FFFFE0"/>
<path d="M9.68737 210.212L9.76115 210.138L30.8893 189.012L30.9631 188.939L31.0369 188.862L50.7663 169.138L50.3944 169.079L30.8248 188.65L30.751 188.724L30.6772 188.797L9.54904 209.923L9.47526 209.997L9.40148 210.071L0.594238 218.88C0.612683 219.003 0.634202 219.126 0.652647 219.246L9.61359 210.292L9.68737 210.212Z" fill="#FFFFE0"/>
<path d="M5.43374 205.955L5.50752 205.882L26.6357 184.756L26.7095 184.682L26.7832 184.608L42.8023 168.594H42.3627L26.5711 184.396L26.4974 184.47L26.4236 184.544L5.29541 205.682L5.22163 205.756L5.14785 205.829L0.118652 210.846C0.118652 210.99 0.118652 211.138 0.118652 211.285L5.37226 206.032L5.43374 205.955Z" fill="#FFFFE0"/>
<path d="M7.5609 208.086L7.63468 208.012L28.7628 186.886L28.8366 186.809L28.9104 186.735L46.9522 168.695L46.5526 168.671L28.6983 186.523L28.6245 186.597L28.5507 186.671L7.42257 207.797L7.34879 207.871L7.27501 207.944L0.183105 215.036C0.183105 215.168 0.183104 215.303 0.207696 215.435L7.48712 208.16L7.5609 208.086Z" fill="#FFFFE0"/>
<path d="M3.30616 203.838L3.37994 203.764L24.5081 182.629L24.5819 182.555L24.6557 182.482L38.2062 168.936C38.0402 168.954 37.8742 168.982 37.7113 169.003L24.4436 182.27L24.3698 182.343L24.296 182.417L3.16783 203.531L3.09405 203.605L3.0172 203.678L0.514896 206.18C0.493377 206.346 0.468784 206.512 0.447266 206.675L3.23239 203.89L3.30616 203.838Z" fill="#FFFFE0"/>
<path d="M26.7251 227.232L26.7989 227.158L47.9271 206.032L48.0008 205.955L48.0746 205.882L69.2028 184.756L69.2766 184.682L69.3503 184.608L73.6049 180.342L73.3835 180.136L69.1229 184.396L69.0491 184.47L68.9753 184.544L47.8471 205.682L47.7734 205.756L47.6996 205.829L26.5714 226.943L26.4976 227.017L26.4239 227.091L11.6621 241.863L11.8681 242.081L26.6483 227.306L26.7251 227.232Z" fill="#FFFFE0"/>
<path d="M22.4553 222.975L22.5291 222.902L43.6573 201.776L43.731 201.702L43.8048 201.628L64.933 180.502L65.0068 180.428L65.0805 180.355L68.9108 176.528C68.8278 176.466 68.7418 176.411 68.6588 176.353L64.8684 180.142L64.7946 180.216L64.7209 180.29L43.5927 201.416L43.5189 201.49L43.4451 201.564L22.317 222.69L22.2432 222.763L22.1694 222.837L7.86572 237.139L8.04095 237.391L22.3815 223.052L22.4553 222.975Z" fill="#FFFFE0"/>
<path d="M18.1994 218.721L18.2731 218.647L39.4013 197.521L39.4751 197.447L39.5489 197.374L60.677 176.248L60.7508 176.174L60.8246 176.1L63.5913 173.334L63.3054 173.192L60.6032 175.897L60.5295 175.971L60.4557 176.045L39.3275 197.162L39.2537 197.235L39.1769 197.309L18.0487 218.435L17.9749 218.509L17.9012 218.583L4.68262 231.8C4.72873 231.895 4.77484 231.99 4.82402 232.086L18.1164 218.795L18.1994 218.721Z" fill="#FFFFE0"/>
<path d="M13.9417 214.466L14.0155 214.392L35.1437 193.266L35.2205 193.193L35.2943 193.119L56.4225 171.993L56.4963 171.919L56.57 171.845L57.5998 170.813L57.2924 170.708L56.3702 171.63L56.2964 171.704L56.2227 171.778L35.0791 192.904L35.0054 192.981L34.9316 193.054L13.8126 214.18L13.7389 214.254L13.6651 214.328L2.22949 225.762C2.26331 225.867 2.3002 225.974 2.33401 226.07L13.8772 214.528L13.9417 214.466Z" fill="#FFFFE0"/>
<path d="M24.5743 225.104L24.6481 225.028L45.7855 203.902L45.8592 203.828L45.933 203.754L67.0612 182.628L67.135 182.554L67.2087 182.48L71.3311 178.359L71.0975 178.168L66.9966 182.268L66.9229 182.342L66.8491 182.416L45.7209 203.53L45.6471 203.603L45.5734 203.677L24.4452 224.803L24.3714 224.877L24.2976 224.951L9.68652 239.56L9.87404 239.797L24.5097 225.166L24.5743 225.104Z" fill="#FFFFE0"/>
<path d="M20.3282 220.847L20.4019 220.774L41.5301 199.648L41.6039 199.574L41.6777 199.5L62.8058 178.374L62.8796 178.3L62.9534 178.227L66.3349 174.845L66.0644 174.686L62.7413 178.018L62.6675 178.091L62.5937 178.165L41.4809 199.288L41.4071 199.362L41.3334 199.436L20.2052 220.562L20.1283 220.635L20.0546 220.709L6.22119 234.541C6.27345 234.63 6.32571 234.722 6.38104 234.808L20.2759 220.915L20.3282 220.847Z" fill="#FFFFE0"/>
<path d="M16.0736 216.593L16.1474 216.52L37.2756 195.394L37.3494 195.32L37.4231 195.246L58.5513 174.12L58.6251 174.046L58.6989 173.972L60.697 171.975L60.3896 171.852L58.4837 173.757L58.4099 173.831L58.3361 173.908L37.2079 195.034L37.1342 195.108L37.0604 195.181L15.9322 216.307L15.8584 216.381L15.7847 216.455L3.3623 228.873C3.40227 228.974 3.44223 229.076 3.48527 229.18L15.9937 216.673L16.0736 216.593Z" fill="#FFFFE0"/>
<path d="M11.8168 212.339L11.8906 212.266L33.0188 191.14L33.0925 191.066L33.1694 190.992L54.2976 169.866H54.2791L53.9533 169.786L32.9542 190.777L32.8804 190.851L32.8066 190.924L11.6785 212.053L11.6047 212.127L11.5309 212.201L1.28809 222.44C1.31575 222.557 1.34342 222.67 1.37416 222.784L11.743 212.413L11.8168 212.339Z" fill="#FFFFE0"/>
</g>
<path opacity="0.5" d="M266.667 122.848C276.234 122.848 283.99 115.093 283.99 105.526C283.99 95.9587 276.234 88.2031 266.667 88.2031C257.1 88.2031 249.345 95.9587 249.345 105.526C249.345 115.093 257.1 122.848 266.667 122.848Z" fill="url(#paint0_radial_522_1209)"/>
<path d="M276.569 159.22C305.876 129.916 305.876 82.4058 276.569 53.1021C247.263 23.7985 199.747 23.7985 170.44 53.1021C141.134 82.4058 141.134 129.916 170.44 159.22C199.747 188.524 247.263 188.524 276.569 159.22Z" stroke="#FFFFE0" stroke-width="0.25" stroke-miterlimit="10"/>
<path opacity="0.6" fill-rule="evenodd" clip-rule="evenodd" d="M447.529 245.714C489.401 244.983 523.119 210.818 523.119 168.78C523.119 126.284 488.663 91.834 446.159 91.834C409.084 91.834 378.133 118.045 370.831 152.944L393.663 130.14L393.776 130.028L393.893 129.915L402.336 121.473L403.499 120.948L394.212 130.234L394.1 130.347L393.968 130.459L370.665 153.761C370.216 156.027 369.867 158.329 369.622 160.662L396.911 133.38L397.024 133.268L397.136 133.155L412.474 117.819L413.36 117.585L397.46 133.479L397.347 133.591L397.235 133.704L369.55 161.386C369.356 163.42 369.241 165.476 369.209 167.553L400.157 136.626L400.269 136.514L400.382 136.401L420.625 116.16C420.72 116.147 420.816 116.133 420.912 116.119C421.067 116.097 421.224 116.074 421.381 116.056L400.705 136.725L400.593 136.837L400.48 136.95L369.201 168.239C369.2 168.419 369.199 168.599 369.199 168.78C369.199 170.506 369.256 172.219 369.368 173.917L370.94 172.349L371.052 172.236L371.165 172.124L403.402 139.872L403.514 139.759L403.627 139.646L427.721 115.536H428.392L403.95 139.97L403.838 140.083L403.725 140.195L371.488 172.429L371.376 172.541L371.282 172.659L369.411 174.53C369.541 176.297 369.732 178.048 369.98 179.78L374.184 175.576L374.297 175.463L374.409 175.351L406.646 143.117L406.759 143.004L406.871 142.892L434.113 115.653L434.723 115.691L407.195 143.215L407.082 143.328L406.97 143.445L374.733 175.679L374.62 175.791L374.508 175.904L370.063 180.346C370.314 182.009 370.618 183.654 370.973 185.28L377.43 178.822L377.543 178.709L377.655 178.596L409.892 146.363L410.005 146.25L410.117 146.138L439.976 116.277L440.544 116.366L410.441 146.461L410.328 146.579L410.216 146.691L377.979 178.925L377.866 179.037L377.754 179.159L371.092 185.816C371.446 187.38 371.847 188.926 372.294 190.452L380.677 182.072L380.79 181.959L380.903 181.846L413.139 149.608L413.252 149.496L413.365 149.383L445.404 117.356L445.902 117.478H445.93L413.693 149.711L413.576 149.824L413.463 149.937L381.226 182.17L381.114 182.283L381.001 182.395L372.443 190.955C372.889 192.437 373.377 193.9 373.908 195.342L383.935 185.317L384.047 185.204L384.16 185.092L416.383 152.858L416.495 152.745L416.608 152.628L448.868 120.395L448.981 120.282L449.093 120.17L450.501 118.763L450.97 118.922L449.398 120.498L449.286 120.61L449.173 120.723L416.936 152.957L416.824 153.069L416.706 153.182L384.47 185.415L384.357 185.528L384.258 185.622L374.078 195.801C374.605 197.204 375.171 198.588 375.776 199.952L387.17 188.562L387.282 188.45L387.395 188.337L419.632 156.104L419.744 155.991L419.857 155.878L452.094 123.645L452.206 123.528L452.319 123.415L455.227 120.507L455.696 120.695L452.647 123.743L452.535 123.856L452.422 123.968L420.185 156.202L420.073 156.315L419.96 156.427L387.723 188.661L387.611 188.773L387.489 188.895L375.979 200.404C376.578 201.73 377.213 203.037 377.884 204.322L390.399 191.807L390.512 191.695L390.624 191.582L422.861 159.349L422.978 159.236L423.091 159.124L455.328 126.904L455.44 126.792L455.553 126.679L459.676 122.552L460.112 122.768L455.891 126.989L455.778 127.101L455.666 127.214L423.429 159.447L423.316 159.56L423.204 159.672L390.967 191.906L390.854 192.018L390.727 192.131L378.108 204.749C378.782 206.021 379.491 207.272 380.233 208.501L393.683 195.053L393.795 194.94L393.912 194.828L426.149 162.594L426.262 162.481L426.374 162.369L458.588 130.14L458.701 130.027L458.813 129.915L463.883 124.831L464.296 125.075L459.137 130.234L459.024 130.346L458.912 130.459L426.675 162.692L426.562 162.805L426.45 162.918L394.213 195.151L394.1 195.264L394.02 195.367L380.48 208.906C381.213 210.104 381.978 211.28 382.774 212.433L396.91 198.299L397.023 198.186L397.135 198.074L429.372 165.84L429.485 165.727L429.597 165.615L461.834 133.381L461.947 133.269L462.059 133.156L467.842 127.374C467.891 127.408 467.941 127.442 467.99 127.475C468.07 127.529 468.149 127.583 468.227 127.641L462.383 133.48L462.27 133.592L462.158 133.705L429.921 165.938L429.808 166.051L429.696 166.164L397.459 198.397L397.346 198.51L397.234 198.627L383.042 212.818C383.837 213.955 384.663 215.071 385.517 216.162L400.156 201.525L400.269 201.413L400.381 201.3L432.618 169.066L432.731 168.954L432.843 168.841L465.08 136.627L465.193 136.514L465.305 136.401L471.562 130.145L471.919 130.436L465.629 136.725L465.516 136.838L465.404 136.95L433.167 169.184L433.054 169.296L432.942 169.409L400.691 201.642L400.578 201.76L400.48 201.853L385.803 216.525C386.667 217.615 387.56 218.681 388.48 219.722L403.402 204.789L403.515 204.677L403.627 204.564L435.864 172.349L435.977 172.237L436.089 172.124L468.326 139.872L468.439 139.759L468.551 139.647L475.052 133.147L475.39 133.461L468.898 139.97L468.786 140.083L468.673 140.196L436.436 172.429L436.324 172.542L436.211 172.659L403.974 204.892L403.862 205.005L403.744 205.118L388.788 220.069C389.705 221.093 390.649 222.093 391.618 223.066L406.647 208.039L406.76 207.926L406.872 207.809L439.109 175.575L439.222 175.463L439.335 175.35L471.571 143.117L471.684 143.004L471.797 142.892L478.321 136.373L478.63 136.71L472.125 143.215L472.012 143.328L471.9 143.445L439.658 175.678L439.546 175.791L439.433 175.904L407.196 208.137L407.084 208.25L406.971 208.362L391.942 223.39C392.918 224.359 393.921 225.302 394.948 226.218L409.891 211.275L410.004 211.163L410.117 211.05L442.353 178.821L442.466 178.709L442.579 178.596L474.815 146.363L474.928 146.25L475.041 146.138L481.373 139.816L481.424 139.88L481.477 139.947C481.539 140.024 481.6 140.102 481.663 140.177L475.378 146.461L475.266 146.578L475.153 146.691L442.902 178.934L442.79 179.047L442.677 179.159L410.44 211.374L410.328 211.486L410.215 211.599L395.291 226.522C396.329 227.437 397.392 228.324 398.478 229.183L413.139 214.53L413.251 214.417L413.364 214.305L445.601 182.071L445.713 181.959L445.826 181.846L478.068 149.608L478.18 149.495L478.293 149.383L484.184 143.492L484.451 143.872L478.616 149.711L478.504 149.824L478.391 149.936L446.145 182.17L446.032 182.282L445.92 182.395L413.683 214.628L413.566 214.741L413.453 214.854L398.839 229.466C399.938 230.324 401.061 231.153 402.207 231.951L416.385 217.775L416.497 217.662L416.61 217.55L448.847 185.316L448.959 185.204L449.072 185.091L481.313 152.858L481.426 152.745L481.539 152.628L486.773 147.38L487.022 147.783L481.862 152.942L481.75 153.055L481.637 153.167L449.4 185.401L449.288 185.513L449.175 185.626L416.938 217.859L416.826 217.972L416.708 218.085L402.587 232.214C403.747 233.012 404.93 233.779 406.135 234.514L419.63 221.02L419.742 220.908L419.855 220.795L452.096 188.562L452.209 188.449L452.321 188.336L484.558 156.103L484.671 155.99L484.779 155.906L489.108 151.577L489.328 152.004L485.107 156.225L484.994 156.337L484.882 156.45L452.645 188.684L452.532 188.796L452.42 188.909L420.183 221.142L420.07 221.255L419.958 221.367L406.546 234.763C407.767 235.497 409.01 236.199 410.274 236.866L422.863 224.266L422.98 224.153L423.093 224.041L455.344 191.807L455.456 191.695L455.569 191.582L487.806 159.348L487.919 159.236L488.045 159.109L491.211 155.944L491.236 156.005L491.236 156.005C491.292 156.147 491.346 156.281 491.403 156.413L488.369 159.447L488.256 159.559L488.144 159.672L455.907 191.906L455.794 192.018L455.682 192.131L423.445 224.364L423.332 224.477L423.22 224.589L410.712 237.096C412.004 237.767 413.318 238.403 414.652 239.002L426.15 227.511L426.262 227.399L426.375 227.286L458.588 195.053L458.701 194.94L458.813 194.828L491.05 162.594L491.163 162.482L491.257 162.402L492.978 160.681C493.019 160.783 493.057 160.898 493.097 161.016C493.112 161.06 493.127 161.105 493.142 161.15L491.58 162.707L491.468 162.819L491.355 162.932L459.118 195.165L459.006 195.278L458.893 195.39L426.656 227.624L426.544 227.741L426.431 227.854L415.085 239.196C416.45 239.799 417.836 240.363 419.241 240.888L429.373 230.756L429.486 230.644L429.599 230.531L461.835 198.298L461.948 198.185L462.061 198.073L494.297 165.839L494.419 165.75L494.494 165.675C494.5 165.694 494.507 165.713 494.513 165.732L494.513 165.732C494.53 165.779 494.546 165.827 494.546 165.877L494.616 166.172L462.384 198.396L462.272 198.509L462.159 198.626L429.922 230.86L429.81 230.972L429.697 231.085L419.715 241.063C421.157 241.59 422.619 242.076 424.1 242.518L432.617 234.003L432.729 233.89L432.842 233.777L465.079 201.544L465.191 201.431L465.304 201.319L495.613 171.013C495.646 171.2 495.679 171.383 495.707 171.571L465.628 201.642L465.515 201.76L465.402 201.872L433.166 234.106L433.053 234.218L432.94 234.331L424.604 242.667C426.133 243.112 427.681 243.511 429.248 243.862L435.864 237.252L435.976 237.14L436.089 237.027L468.326 204.789L468.438 204.677L468.546 204.564L496.327 176.786L496.334 176.851L496.342 176.937C496.358 177.088 496.374 177.24 496.374 177.391L468.87 204.892L468.757 205.005L468.645 205.117L436.408 237.351L436.295 237.464L436.183 237.576L429.779 243.979C431.409 244.332 433.058 244.634 434.725 244.882L439.11 240.498L439.222 240.385L439.335 240.273L471.572 208.039L471.684 207.926L471.764 207.847L496.506 183.112V183.769L472.116 208.156L472.003 208.269L471.891 208.381L439.649 240.615L439.536 240.727L439.424 240.84L435.298 244.965C437.039 245.211 438.798 245.399 440.573 245.526L442.356 243.743L442.469 243.631L442.581 243.518L474.818 211.285L474.931 211.172L475.043 211.05L496.103 190.011L496.019 190.748L475.381 211.383L475.269 211.496L475.156 211.608L442.919 243.832L442.806 243.945L442.694 244.057L441.184 245.567C442.829 245.672 444.488 245.725 446.159 245.725C446.396 245.725 446.632 245.724 446.868 245.722L478.068 214.53L478.181 214.417L478.303 214.295L494.682 197.913C494.658 198.009 494.635 198.105 494.612 198.201L494.612 198.201L494.612 198.202L494.612 198.202L494.612 198.203L494.611 198.204C494.566 198.394 494.52 198.585 494.471 198.772L478.626 214.619L478.514 214.731L478.401 214.844L447.529 245.714ZM481.425 217.663L481.312 217.776L455.262 243.823L456.387 243.354L481.636 218.085L481.748 217.973L481.861 217.86L491.068 208.654C491.231 208.279 491.387 207.904 491.537 207.528L481.528 217.537L481.425 217.663ZM380.118 137.831L385.568 132.405C383.65 134.109 381.83 135.92 380.118 137.831ZM479.133 227.094L474.818 231.408C473.499 232.612 472.132 233.763 470.719 234.86L482.586 222.995C481.491 224.408 480.34 225.774 479.133 227.094Z" fill="url(#paint1_radial_522_1209)"/>
<g opacity="0.57">
<path d="M281.187 31.3956L281.08 31.503L280.972 31.6105L250.2 62.3794L250.093 62.4868L249.985 62.5943L219.213 93.3632L219.106 93.4751L218.998 93.5826L197.463 115.116L197.785 115.411L219.307 93.8914L219.415 93.784L219.522 93.6766L250.294 62.9076L250.402 62.8002L250.509 62.6928L281.286 31.9238L281.393 31.8119L281.501 31.7045L287.711 25.4952L287.415 25.1729L281.187 31.3956Z" fill="#FFFFE0"/>
<path d="M284.175 34.6021L284.068 34.7095L253.296 65.4785L253.188 65.5859L253.081 65.6933L222.309 96.4578L222.201 96.5652L222.094 96.6727L200.751 118.013L201.091 118.291L222.403 96.9816L222.51 96.8741L222.618 96.7667L253.39 66.0157L253.497 65.9082L253.605 65.8008L284.39 35.0229L284.498 34.9155L284.605 34.8036L290.605 28.8047C290.511 28.6928 290.421 28.5764 290.327 28.46L284.283 34.4947L284.175 34.6021Z" fill="#FFFFE0"/>
<path d="M296.575 46.9982L296.467 47.1056L265.695 77.8745L265.588 77.982L265.48 78.0894L234.695 108.858L234.588 108.966L234.476 109.073L216.159 127.406L216.607 127.589L234.816 109.382L234.923 109.275L235.031 109.167L265.803 78.3983L265.91 78.2909L266.018 78.1834L296.79 47.4145L296.897 47.3071L297.005 47.1996L299.902 44.3031C299.839 44.1599 299.781 44.0122 299.718 43.8555L296.696 46.8773L296.575 46.9982Z" fill="#FFFFE0"/>
<path d="M290.378 40.8021L290.271 40.9095L259.494 71.6785L259.387 71.7859L259.28 71.8933L228.507 102.662L228.4 102.77L228.293 102.877L207.988 123.179L208.373 123.412L228.602 103.173L228.713 103.065L228.821 102.958L259.593 72.1888L259.7 72.0814L259.808 71.9739L290.58 41.205L290.687 41.0976L290.795 40.9901L295.72 36.0657L295.483 35.6807L290.486 40.6902L290.378 40.8021Z" fill="#FFFFE0"/>
<path d="M299.673 50.096L299.566 50.2035L268.794 80.9724L268.686 81.0798L268.579 81.1873L237.829 111.956L237.722 112.064L237.614 112.171L220.637 129.138L221.084 129.29L237.883 112.498L237.991 112.39L238.098 112.279L268.87 81.5096L268.977 81.4022L269.085 81.2947L299.857 50.5258L299.964 50.4184L300.072 50.3109L301.563 48.8246C301.509 48.6679 301.46 48.5113 301.406 48.377L299.763 50.0199L299.673 50.096Z" fill="#FFFFE0"/>
<path d="M293.477 43.9001L293.37 44.0076L262.598 74.7765L262.49 74.8839L262.383 74.9914L231.606 105.76L231.499 105.868L231.391 105.975L211.951 125.413L212.359 125.628L231.705 106.306L231.812 106.199L231.92 106.092L262.692 75.3227L262.799 75.2152L262.907 75.1078L293.679 44.3389L293.786 44.2314L293.894 44.124L297.923 40.0949L297.713 39.6875L293.58 43.8196L293.477 43.9001Z" fill="#FFFFE0"/>
<path d="M287.28 37.7L287.173 37.8074L256.396 68.5808L256.289 68.6883L256.182 68.7957L225.409 99.5647L225.302 99.6721L225.195 99.7795L204.25 120.713L204.613 120.968L225.495 100.088L225.602 99.981L225.714 99.8736L256.486 69.1046L256.593 68.9972L256.701 68.8897L287.482 38.1208L287.589 38.0134L287.697 37.9059L293.267 32.3323L293.011 31.9697L287.388 37.5926L287.28 37.7Z" fill="#FFFFE0"/>
<path d="M302.664 53.3012L271.892 84.0701L271.785 84.1776L271.677 84.285L240.905 115.054L240.798 115.161L240.69 115.269L225.414 130.544L225.911 130.664L240.999 115.582L241.107 115.475L241.214 115.367L271.986 84.5984L272.094 84.4865L272.201 84.379L302.969 53.6191L302.902 53.337C302.902 53.2699 302.87 53.2072 302.852 53.1445L302.781 53.2162L302.664 53.3012Z" fill="#FFFFE0"/>
<path d="M284.178 96.5742L284.071 96.6817L253.299 127.451L253.191 127.558L253.084 127.665L248.674 132.075L249.377 131.995L253.406 127.965L253.514 127.858L253.621 127.751L284.393 96.9906L284.501 96.8831L284.608 96.7757L304.308 77.0779L304.389 76.375L284.286 96.4578L284.178 96.5742Z" fill="#FFFFE0"/>
<path d="M277.982 90.3734L277.874 90.4809L247.102 121.254L246.995 121.362L246.887 121.469L236.039 132.307L236.617 132.352L247.192 121.778L247.299 121.671L247.407 121.563L278.179 90.7942L278.286 90.6868L278.394 90.5794L304.648 64.3275C304.648 64.135 304.621 63.9425 304.604 63.75L278.085 90.266L277.982 90.3734Z" fill="#FFFFE0"/>
<path d="M281.079 93.4757L280.972 93.5832L250.2 124.352L250.092 124.46L249.985 124.567L242.047 132.504H242.674L250.285 124.894L250.392 124.786L250.5 124.679L281.276 93.91L281.384 93.8025L281.491 93.6951L304.773 70.4158C304.773 70.2054 304.773 69.995 304.773 69.7891L281.156 93.3996L281.079 93.4757Z" fill="#FFFFE0"/>
<path d="M274.882 87.2757L274.774 87.3831L244.002 118.152L243.895 118.259L243.787 118.367L230.53 131.623L231.063 131.712L244.096 118.68L244.204 118.573L244.311 118.465L275.083 87.6965L275.191 87.589L275.298 87.4771L304.011 58.772C303.984 58.5929 303.953 58.4183 303.921 58.2393L274.989 87.1682L274.882 87.2757Z" fill="#FFFFE0"/>
<path d="M290.378 102.77L290.271 102.877L265.404 127.742L266.479 127.294L290.58 103.173L290.687 103.065L290.795 102.958L299.584 94.1701C299.739 93.812 299.888 93.4538 300.031 93.0957L290.477 102.649L290.378 102.77Z" fill="#FFFFE0"/>
<path d="M287.281 99.6718L287.174 99.7792L256.397 130.548L256.29 130.656L256.223 130.723L256.335 130.696L256.505 130.656C256.684 130.611 256.867 130.571 257.046 130.521L287.492 100.079L287.599 99.9717L287.707 99.8643L302.831 84.7372C302.902 84.4686 302.965 84.1911 303.032 83.918L287.398 99.5554L287.281 99.6718Z" fill="#FFFFE0"/>
<path d="M210.122 22.5185L210.23 22.4111L225.408 7.23926L224.561 7.4631L209.921 22.1022L209.813 22.2096L209.706 22.3171L179.753 52.2623C179.677 52.5443 179.601 52.8263 179.529 53.1084L210.015 22.626L210.122 22.5185Z" fill="#FFFFE0"/>
<path d="M193.674 26.5664L198.876 21.3867C197.045 23.0128 195.308 24.7422 193.674 26.5664Z" fill="#FFFFE0"/>
<path d="M207.019 19.4207L207.127 19.3132L215.992 10.4492L214.881 10.9506L206.822 19.0088L206.71 19.1163L206.603 19.2237L183.205 42.5925C183.039 42.9596 182.878 43.3312 182.717 43.7028L206.894 19.5281L207.019 19.4207Z" fill="#FFFFE0"/>
<path d="M284.071 115.891L288.19 111.772C289.343 110.513 290.441 109.208 291.486 107.859L280.158 119.186C281.507 118.138 282.812 117.04 284.071 115.891Z" fill="#FFFFE0"/>
<path d="M191.524 65.8985L191.631 65.7911L222.403 35.0222L222.511 34.9147L222.618 34.8028L251.353 6.07529L250.812 5.99023L222.309 34.4939L222.202 34.6013L222.095 34.7088L191.322 65.4777L191.215 65.5852L191.108 65.6926L178.28 78.5231C178.307 78.7021 178.338 78.8812 178.365 79.0558L191.416 66.0149L191.524 65.8985Z" fill="#FFFFE0"/>
<path d="M185.329 59.6985L185.436 59.591L216.209 28.8221L216.316 28.7147L216.423 28.6072L239.754 5.2832H239.114L216.115 28.2983L216.007 28.4058L215.9 28.5132L185.128 59.3L185.02 59.4075L184.913 59.5149L177.588 66.821C177.588 67.0315 177.588 67.2463 177.588 67.4612L185.239 59.8104L185.329 59.6985Z" fill="#FFFFE0"/>
<path d="M188.426 62.8003L188.533 62.6929L219.306 31.9239L219.413 31.812L219.52 31.7046L245.797 5.43035L245.215 5.39453L219.212 31.3957L219.104 31.5031L218.997 31.6106L188.225 62.3795L188.117 62.4869L188.01 62.5944L177.681 72.9223C177.681 73.1148 177.681 73.3118 177.716 73.5043L188.319 62.9078L188.426 62.8003Z" fill="#FFFFE0"/>
<path d="M182.23 56.6141L182.338 56.5067L213.11 25.7243L213.217 25.6169L213.325 25.5094L233.06 5.78027C232.819 5.80713 232.577 5.84743 232.34 5.87876L213.016 25.2006L212.908 25.308L212.801 25.4154L182.029 56.1665L181.921 56.2739L181.809 56.3813L178.165 60.0254C178.134 60.2672 178.098 60.5089 178.066 60.7462L182.123 56.6902L182.23 56.6141Z" fill="#FFFFE0"/>
<path d="M216.339 90.687L216.446 90.5795L247.218 59.8106L247.326 59.6987L247.433 59.5913L278.205 28.8224L278.313 28.7149L278.42 28.6075L284.617 22.3937L284.294 22.0938L278.089 28.2986L277.982 28.406L277.874 28.5135L247.102 59.3003L246.995 59.4077L246.887 59.5152L216.115 90.2662L216.008 90.3736L215.9 90.4811L194.4 111.996L194.7 112.314L216.227 90.7944L216.339 90.687Z" fill="#FFFFE0"/>
<path d="M210.119 84.4868L210.227 84.3794L240.999 53.6105L241.106 53.503L241.214 53.3956L271.986 22.6267L272.093 22.5192L272.201 22.4118L277.779 16.8382C277.658 16.7486 277.533 16.6681 277.412 16.583L271.892 22.1029L271.784 22.2103L271.677 22.3178L240.905 53.0867L240.797 53.1941L240.69 53.3016L209.918 84.0705L209.81 84.1779L209.703 84.2854L188.87 105.116L189.125 105.483L210.012 84.5987L210.119 84.4868Z" fill="#FFFFE0"/>
<path d="M203.921 78.2906L204.028 78.1831L234.8 47.4142L234.908 47.3068L235.015 47.1993L265.787 16.4304L265.895 16.3229L266.002 16.2155L270.032 12.1864L269.615 11.9805L265.68 15.92L265.572 16.0275L265.465 16.1349L234.693 46.8904L234.585 46.9979L234.474 47.1053L203.701 77.8742L203.594 77.9817L203.487 78.0891L184.234 97.3393C184.302 97.478 184.369 97.6168 184.44 97.7556L203.8 78.398L203.921 78.2906Z" fill="#FFFFE0"/>
<path d="M197.72 72.0947L197.828 71.9873L228.6 41.2184L228.712 41.1109L228.819 41.0035L259.591 10.2346L259.699 10.1271L259.806 10.0197L261.306 8.51549L260.858 8.36328L259.515 9.70632L259.408 9.81376L259.3 9.9212L228.506 40.6901L228.398 40.802L228.291 40.9095L197.532 71.6784L197.425 71.7858L197.317 71.8933L180.662 88.5469C180.711 88.6991 180.765 88.8558 180.814 88.9946L197.626 72.1843L197.72 72.0947Z" fill="#FFFFE0"/>
<path d="M213.207 87.589L213.314 87.4771L244.1 56.7081L244.207 56.6007L244.315 56.4932L275.087 25.7243L275.194 25.6169L275.302 25.5094L281.306 19.5061L280.965 19.2285L274.993 25.2005L274.885 25.308L274.778 25.4154L244.006 56.1664L243.898 56.2739L243.791 56.3813L213.019 87.1502L212.911 87.2577L212.804 87.3651L191.523 108.643L191.797 108.988L213.113 87.6785L213.207 87.589Z" fill="#FFFFE0"/>
<path d="M207.021 81.3895L207.128 81.2821L237.9 50.5132L238.008 50.4057L238.115 50.2983L268.887 19.5294L268.995 19.4219L269.102 19.3145L274.027 14.39L273.633 14.1572L268.793 19.0101L268.686 19.1175L268.578 19.2249L237.829 49.9894L237.721 50.0968L237.614 50.2043L206.842 80.9732L206.73 81.0806L206.622 81.1881L186.475 101.334C186.551 101.463 186.627 101.598 186.707 101.723L206.945 81.488L207.021 81.3895Z" fill="#FFFFE0"/>
<path d="M200.826 75.1924L200.933 75.0849L231.705 44.316L231.813 44.2085L231.92 44.1011L262.692 13.3322L262.8 13.2247L262.907 13.1173L265.818 10.2074L265.37 10.0283L262.594 12.8039L262.486 12.9114L262.379 13.0233L231.607 43.7922L231.499 43.8997L231.392 44.0071L200.62 74.776L200.512 74.8835L200.405 74.9909L182.312 93.0771C182.371 93.2248 182.429 93.3726 182.492 93.5248L200.709 75.3088L200.826 75.1924Z" fill="#FFFFE0"/>
<path d="M194.625 68.9961L194.732 68.8886L225.504 38.1197L225.612 38.0123L225.724 37.9048L256.496 7.13593H256.469L255.994 7.01953L225.41 37.5915L225.303 37.6989L225.195 37.8063L194.423 68.5797L194.316 68.6872L194.208 68.7946L179.29 83.7068C179.33 83.8769 179.371 84.0425 179.415 84.2082L194.517 69.1035L194.625 68.9961Z" fill="#FFFFE0"/>
</g>
<defs>
<radialGradient id="paint0_radial_522_1209" cx="0" cy="0" r="1" gradientUnits="userSpaceOnUse" gradientTransform="translate(276.208 95.7124) rotate(94.1349) scale(27.2068 25.05)">
<stop stop-color="#8CE717"/>
<stop offset="1" stop-color="#00FFE0" stop-opacity="0"/>
</radialGradient>
<radialGradient id="paint1_radial_522_1209" cx="0" cy="0" r="1" gradientUnits="userSpaceOnUse" gradientTransform="translate(488.545 125.19) rotate(44.9947) scale(120.202)">
<stop stop-color="#AAFF00"/>
<stop offset="1" stop-color="#00FFE0" stop-opacity="0"/>
</radialGradient>
</defs>
</svg>
