<svg width="710" height="416" viewBox="0 0 710 416" fill="none" xmlns="http://www.w3.org/2000/svg">
<path opacity="0.3" d="M17.3115 146.757C26.5423 146.757 34.0254 139.274 34.0254 130.043C34.0254 120.812 26.5423 113.329 17.3115 113.329C8.0807 113.329 0.597656 120.812 0.597656 130.043C0.597656 139.274 8.0807 146.757 17.3115 146.757Z" fill="url(#paint0_radial_524_1461)"/>
<path d="M194.453 367.34C221.02 340.776 221.02 297.707 194.453 271.142C167.886 244.578 124.812 244.578 98.2447 271.142C71.6775 297.706 71.6775 340.776 98.2447 367.34C124.812 393.905 167.886 393.905 194.453 367.34Z" stroke="#FFFFE0" stroke-width="0.25" stroke-miterlimit="10"/>
<g opacity="0.57">
<path d="M102.277 250.885L102.178 250.984L102.079 251.083L73.6867 279.472L73.5875 279.571L73.4884 279.671L45.0964 308.06L44.9973 308.163L44.8981 308.262L25.0283 328.13L25.3257 328.402L45.1832 308.547L45.2823 308.448L45.3815 308.349L73.7734 279.96L73.8726 279.861L73.9717 279.761L102.368 251.372L102.467 251.269L102.566 251.17L108.296 245.441L108.023 245.144L102.277 250.885Z" fill="#FFFFE0"/>
<path d="M105.034 253.843L104.935 253.942L76.5432 282.331L76.4441 282.43L76.3449 282.529L47.953 310.914L47.8538 311.013L47.7547 311.112L28.0625 330.803L28.3764 331.059L48.0397 311.397L48.1389 311.298L48.238 311.199L76.63 282.827L76.7291 282.728L76.8282 282.628L105.233 254.231L105.332 254.132L105.431 254.029L110.966 248.494C110.88 248.391 110.797 248.283 110.71 248.176L105.133 253.744L105.034 253.843Z" fill="#FFFFE0"/>
<path d="M116.475 265.28L116.376 265.38L87.984 293.769L87.8849 293.868L87.7857 293.967L59.3814 322.356L59.2822 322.455L59.179 322.554L42.2793 339.469L42.6924 339.638L59.4929 322.839L59.5921 322.74L59.6912 322.641L88.0832 294.252L88.1823 294.153L88.2814 294.054L116.673 265.665L116.773 265.565L116.872 265.466L119.544 262.794C119.487 262.662 119.433 262.525 119.375 262.381L116.587 265.169L116.475 265.28Z" fill="#FFFFE0"/>
<path d="M110.758 259.563L110.659 259.662L82.2626 288.051L82.1634 288.15L82.0643 288.25L53.6723 316.639L53.5732 316.738L53.474 316.837L34.7402 335.569L35.0955 335.784L53.7591 317.11L53.8624 317.01L53.9615 316.911L82.3534 288.522L82.4526 288.423L82.5517 288.324L110.944 259.935L111.043 259.836L111.142 259.737L115.686 255.193L115.467 254.838L110.857 259.46L110.758 259.563Z" fill="#FFFFE0"/>
<path d="M119.334 268.139L119.234 268.238L90.8425 296.627L90.7434 296.726L90.6443 296.825L62.273 325.214L62.1738 325.313L62.0747 325.413L46.4102 341.067L46.8233 341.208L62.3225 325.714L62.4217 325.615L62.5208 325.512L90.9128 297.123L91.0119 297.024L91.111 296.924L119.503 268.535L119.602 268.436L119.701 268.337L121.077 266.966C121.027 266.821 120.982 266.677 120.932 266.553L119.416 268.069L119.334 268.139Z" fill="#FFFFE0"/>
<path d="M113.618 262.422L113.519 262.521L85.1267 290.91L85.0275 291.009L84.9284 291.108L56.5323 319.497L56.4331 319.597L56.334 319.696L38.3975 337.63L38.7734 337.829L56.6232 320.001L56.7223 319.902L56.8215 319.803L85.2134 291.414L85.3125 291.315L85.4117 291.216L113.804 262.827L113.903 262.728L114.002 262.628L117.72 258.911L117.526 258.535L113.713 262.348L113.618 262.422Z" fill="#FFFFE0"/>
<path d="M107.9 256.701L107.801 256.8L79.4051 285.193L79.3059 285.293L79.2068 285.392L50.8148 313.781L50.7157 313.88L50.6165 313.979L31.292 333.293L31.6266 333.529L50.8933 314.264L50.9924 314.165L51.0957 314.066L79.4877 285.677L79.5868 285.578L79.686 285.478L108.086 257.089L108.185 256.99L108.284 256.891L113.423 251.749L113.188 251.414L107.999 256.602L107.9 256.701Z" fill="#FFFFE0"/>
<path d="M122.094 271.096L93.7016 299.485L93.6025 299.584L93.5034 299.683L65.1114 328.072L65.0123 328.171L64.9131 328.27L50.8184 342.364L51.2769 342.475L65.1982 328.559L65.2973 328.46L65.3964 328.361L93.7884 299.972L93.8875 299.869L93.9867 299.77L122.375 271.389L122.313 271.129C122.313 271.067 122.284 271.009 122.267 270.951L122.201 271.017L122.094 271.096Z" fill="#FFFFE0"/>
<path d="M105.037 311.022L104.938 311.121L76.5456 339.51L76.4464 339.609L76.3473 339.708L72.2783 343.777L72.9269 343.702L76.6447 339.985L76.7439 339.886L76.843 339.787L105.235 311.406L105.334 311.307L105.433 311.208L123.609 293.033L123.684 292.385L105.136 310.914L105.037 311.022Z" fill="#FFFFE0"/>
<path d="M99.3207 305.301L99.2216 305.4L70.8296 333.793L70.7305 333.892L70.6313 333.991L60.6221 343.991L61.155 344.032L70.9122 334.276L71.0114 334.177L71.1105 334.078L99.5025 305.689L99.6016 305.59L99.7008 305.491L123.925 281.269C123.925 281.092 123.9 280.914 123.883 280.736L99.4157 305.201L99.3207 305.301Z" fill="#FFFFE0"/>
<path d="M102.178 308.163L102.078 308.262L73.6865 336.651L73.5874 336.75L73.4882 336.85L66.1641 344.173H66.7424L73.765 337.151L73.8641 337.052L73.9633 336.953L102.359 308.564L102.459 308.465L102.558 308.366L124.039 286.887C124.039 286.693 124.039 286.499 124.039 286.309L102.248 308.093L102.178 308.163Z" fill="#FFFFE0"/>
<path d="M96.4611 302.443L96.362 302.542L67.97 330.931L67.8709 331.03L67.7717 331.129L55.54 343.36L56.0316 343.442L68.0568 331.418L68.1559 331.319L68.2551 331.22L96.647 302.831L96.7462 302.732L96.8453 302.629L123.337 276.144C123.312 275.979 123.283 275.818 123.254 275.652L96.5603 302.344L96.4611 302.443Z" fill="#FFFFE0"/>
<path d="M110.757 316.739L110.658 316.838L87.7148 339.779L88.7063 339.366L110.943 317.11L111.042 317.011L111.141 316.912L119.25 308.804C119.394 308.473 119.531 308.143 119.664 307.812L110.848 316.627L110.757 316.739Z" fill="#FFFFE0"/>
<path d="M107.9 313.88L107.8 313.979L79.4043 342.368L79.3051 342.467L79.2432 342.529L79.3464 342.504L79.5034 342.467C79.6687 342.426 79.838 342.389 80.0033 342.343L108.094 314.256L108.193 314.157L108.292 314.058L122.246 300.101C122.312 299.853 122.37 299.597 122.432 299.345L108.007 313.773L107.9 313.88Z" fill="#FFFFE0"/>
<path d="M36.7091 242.694L36.8083 242.595L50.8122 228.597L50.0314 228.803L36.5233 242.31L36.4241 242.409L36.325 242.508L8.68897 270.137C8.61874 270.397 8.54852 270.658 8.48242 270.918L36.61 242.793L36.7091 242.694Z" fill="#FFFFE0"/>
<path d="M21.5342 246.428L26.3343 241.649C24.6446 243.15 23.0419 244.745 21.5342 246.428V246.428Z" fill="#FFFFE0"/>
<path d="M33.8466 239.836L33.9457 239.737L42.125 231.559L41.1005 232.021L33.6648 239.456L33.5615 239.555L33.4624 239.654L11.8741 261.216C11.7213 261.554 11.5725 261.897 11.4238 262.24L33.7309 239.935L33.8466 239.836Z" fill="#FFFFE0"/>
<path d="M104.938 328.845L108.738 325.045C109.801 323.883 110.815 322.679 111.778 321.435L101.327 331.885C102.572 330.918 103.775 329.905 104.938 328.845Z" fill="#FFFFE0"/>
<path d="M19.5504 282.719L19.6495 282.62L48.0415 254.231L48.1406 254.132L48.2398 254.028L74.7521 227.523L74.2523 227.444L47.9547 253.743L47.8556 253.842L47.7564 253.942L19.3645 282.331L19.2653 282.43L19.1662 282.529L7.33105 294.367C7.35584 294.532 7.38476 294.697 7.40954 294.858L19.4512 282.826L19.5504 282.719Z" fill="#FFFFE0"/>
<path d="M13.8338 276.998L13.9329 276.899L42.3249 248.51L42.424 248.411L42.5232 248.312L64.0495 226.792H63.4588L42.2381 248.027L42.139 248.126L42.0399 248.225L13.6479 276.631L13.5488 276.73L13.4496 276.829L6.69141 283.57C6.69141 283.764 6.69141 283.962 6.69141 284.161L13.7512 277.102L13.8338 276.998Z" fill="#FFFFE0"/>
<path d="M16.6926 279.861L16.7917 279.762L45.1837 251.373L45.2828 251.27L45.382 251.171L69.6264 226.929L69.0894 226.896L45.0969 250.886L44.9978 250.985L44.8986 251.084L16.5067 279.473L16.4075 279.572L16.3084 279.671L6.77832 289.2C6.77832 289.378 6.77832 289.56 6.81137 289.737L16.5934 279.96L16.6926 279.861Z" fill="#FFFFE0"/>
<path d="M10.9746 274.153L11.0737 274.054L39.4657 245.652L39.5648 245.553L39.664 245.454L57.8732 227.251C57.6501 227.276 57.427 227.313 57.2081 227.342L39.3789 245.169L39.2798 245.268L39.1807 245.367L10.7887 273.74L10.6896 273.839L10.5863 273.938L7.22369 277.3C7.19478 277.523 7.16173 277.747 7.13281 277.965L10.8754 274.223L10.9746 274.153Z" fill="#FFFFE0"/>
<path d="M42.4447 305.59L42.5439 305.49L70.9358 277.101L71.035 276.998L71.1341 276.899L99.5261 248.51L99.6252 248.411L99.7244 248.312L105.442 242.579L105.144 242.302L99.4187 248.027L99.3195 248.126L99.2204 248.225L70.8284 276.63L70.7293 276.73L70.6301 276.829L42.2382 305.201L42.139 305.3L42.0399 305.4L22.2031 325.251L22.4799 325.544L42.3415 305.689L42.4447 305.59Z" fill="#FFFFE0"/>
<path d="M36.707 299.869L36.8062 299.77L65.1981 271.381L65.2972 271.282L65.3964 271.183L93.7883 242.794L93.8875 242.695L93.9866 242.596L99.1338 237.453C99.0222 237.371 98.9066 237.296 98.795 237.218L93.7016 242.311L93.6024 242.41L93.5033 242.509L65.1113 270.898L65.0122 270.997L64.9131 271.096L36.5211 299.485L36.422 299.584L36.3228 299.684L17.1016 318.903L17.337 319.242L36.6079 299.973L36.707 299.869Z" fill="#FFFFE0"/>
<path d="M30.988 294.153L31.0871 294.054L59.4791 265.665L59.5782 265.566L59.6774 265.466L88.0693 237.077L88.1685 236.978L88.2676 236.879L91.9854 233.162L91.6013 232.972L87.9702 236.607L87.871 236.706L87.7719 236.805L59.3799 265.181L59.2808 265.281L59.1775 265.38L30.7855 293.769L30.6864 293.868L30.5873 293.967L12.8242 311.728C12.8862 311.856 12.9481 311.984 13.0142 312.112L30.8764 294.252L30.988 294.153Z" fill="#FFFFE0"/>
<path d="M25.2662 288.436L25.3654 288.337L53.7573 259.948L53.8606 259.849L53.9597 259.749L82.3517 231.36L82.4508 231.261L82.55 231.162L83.9338 229.774L83.5207 229.634L82.2815 230.873L82.1823 230.972L82.0832 231.071L53.6706 259.46L53.5714 259.564L53.4723 259.663L25.0927 288.052L24.9936 288.151L24.8944 288.25L9.52734 303.615C9.57278 303.756 9.62236 303.9 9.6678 304.028L25.1795 288.518L25.2662 288.436Z" fill="#FFFFE0"/>
<path d="M39.554 302.731L39.6531 302.628L68.0575 274.239L68.1566 274.14L68.2558 274.041L96.6477 245.652L96.7469 245.552L96.846 245.453L102.386 239.914L102.072 239.658L96.561 245.168L96.4618 245.267L96.3627 245.367L67.9707 273.739L67.8716 273.838L67.7724 273.937L39.3805 302.326L39.2813 302.426L39.1822 302.525L19.5479 322.157L19.7998 322.475L39.4672 302.814L39.554 302.731Z" fill="#FFFFE0"/>
<path d="M33.8485 297.011L33.9476 296.911L62.3396 268.522L62.4387 268.423L62.5379 268.324L90.9298 239.935L91.029 239.836L91.1281 239.737L95.6722 235.193L95.3086 234.979L90.8431 239.456L90.7439 239.555L90.6448 239.654L62.2735 268.039L62.1743 268.138L62.0752 268.237L33.6832 296.626L33.58 296.726L33.4808 296.825L14.8916 315.412C14.9618 315.532 15.0321 315.656 15.1064 315.771L33.7783 297.101L33.8485 297.011Z" fill="#FFFFE0"/>
<path d="M28.1312 291.294L28.2304 291.195L56.6223 262.806L56.7215 262.706L56.8206 262.607L85.2126 234.218L85.3117 234.119L85.4109 234.02L88.096 231.335L87.6829 231.17L85.1217 233.731L85.0225 233.83L84.9234 233.933L56.5315 262.322L56.4323 262.421L56.3332 262.521L27.9412 290.91L27.8421 291.009L27.7429 291.108L11.0498 307.795C11.1035 307.931 11.1572 308.068 11.215 308.208L28.0238 291.401L28.1312 291.294Z" fill="#FFFFE0"/>
<path d="M22.4112 285.577L22.5103 285.478L50.9023 257.089L51.0014 256.99L51.1047 256.891L79.4966 228.502H79.4718L79.034 228.395L50.8155 256.602L50.7164 256.701L50.6172 256.8L22.2253 285.193L22.1261 285.292L22.027 285.392L8.2627 299.15C8.29987 299.307 8.33705 299.46 8.37836 299.613L22.312 285.677L22.4112 285.577Z" fill="#FFFFE0"/>
</g>
<path opacity="0.5" d="M364.88 165.321C377.736 165.321 388.158 154.899 388.158 142.043C388.158 129.187 377.736 118.765 364.88 118.765C352.024 118.765 341.602 129.187 341.602 142.043C341.602 154.899 352.024 165.321 364.88 165.321Z" fill="url(#paint1_radial_524_1461)"/>
<path d="M378.185 214.197C417.567 174.819 417.567 110.974 378.185 71.596C338.803 32.2179 274.952 32.2179 235.57 71.596C196.187 110.974 196.187 174.819 235.569 214.197C274.952 253.575 338.803 253.575 378.185 214.197Z" stroke="#FFFFE0" stroke-width="0.25" stroke-miterlimit="10"/>
<path opacity="0.6" fill-rule="evenodd" clip-rule="evenodd" d="M607.92 330.426C664.187 329.444 709.497 283.534 709.497 227.043C709.497 169.937 663.195 123.644 606.079 123.644C556.258 123.644 514.665 158.866 504.852 205.764L535.535 175.12L535.686 174.968L535.844 174.817L547.189 163.473L548.752 162.767L536.273 175.246L536.121 175.397L535.945 175.548L504.629 206.861C504.026 209.906 503.557 213 503.229 216.136L539.899 179.474L540.051 179.323L540.202 179.172L560.812 158.564L562.004 158.248L540.637 179.607L540.486 179.758L540.334 179.909L503.131 217.108C502.871 219.841 502.717 222.604 502.673 225.395L544.261 183.836L544.412 183.684L544.563 183.533L571.767 156.333C571.894 156.316 572.023 156.297 572.152 156.278C572.361 156.248 572.571 156.217 572.781 156.194L544.998 183.968L544.847 184.119L544.696 184.27L502.663 226.317C502.661 226.559 502.66 226.801 502.66 227.043C502.66 229.363 502.737 231.665 502.887 233.946L504.999 231.84L505.15 231.688L505.302 231.537L548.621 188.197L548.773 188.045L548.924 187.894L581.302 155.494H582.203L549.359 188.329L549.208 188.48L549.056 188.632L505.736 231.947L505.585 232.098L505.459 232.256L502.945 234.77C503.12 237.145 503.376 239.498 503.709 241.825L509.359 236.176L509.511 236.024L509.662 235.873L552.982 192.558L553.133 192.407L553.284 192.255L589.891 155.652L590.711 155.702L553.719 192.69L553.568 192.841L553.417 192.999L510.097 236.314L509.945 236.466L509.794 236.617L503.821 242.587C504.158 244.821 504.566 247.031 505.044 249.216L513.72 240.537L513.872 240.386L514.023 240.234L557.343 196.919L557.494 196.768L557.645 196.617L597.77 156.49L598.532 156.61L558.08 197.051L557.929 197.209L557.778 197.36L514.458 240.676L514.307 240.827L514.155 240.991L505.204 249.935C505.679 252.037 506.218 254.114 506.819 256.165L518.084 244.904L518.236 244.753L518.387 244.602L561.707 201.28L561.858 201.129L562.009 200.978L605.064 157.94L605.732 158.103H605.77L562.45 201.419L562.293 201.57L562.141 201.721L518.822 245.037L518.67 245.188L518.519 245.339L507.019 256.841C507.618 258.833 508.275 260.799 508.988 262.739L522.463 249.266L522.614 249.114L522.765 248.963L566.066 205.648L566.217 205.496L566.369 205.339L609.72 162.024L609.871 161.872L610.022 161.721L611.913 159.83L612.544 160.045L610.432 162.162L610.281 162.313L610.13 162.465L566.81 205.78L566.659 205.931L566.501 206.083L523.181 249.398L523.03 249.549L522.898 249.675L509.217 263.354C509.925 265.24 510.686 267.1 511.498 268.932L526.809 253.627L526.96 253.475L527.111 253.324L570.431 210.009L570.582 209.858L570.734 209.706L614.053 166.391L614.205 166.233L614.356 166.082L618.264 162.175L618.894 162.427L614.797 166.523L614.646 166.675L614.495 166.826L571.175 210.141L571.023 210.292L570.872 210.444L527.552 253.759L527.401 253.91L527.237 254.074L511.77 269.539C512.575 271.322 513.429 273.077 514.33 274.804L531.148 257.988L531.299 257.837L531.451 257.685L574.77 214.37L574.928 214.219L575.079 214.068L618.399 170.771L618.55 170.62L618.702 170.469L624.242 164.923L624.828 165.212L619.155 170.885L619.004 171.036L618.853 171.187L575.533 214.502L575.382 214.654L575.231 214.805L531.911 258.12L531.759 258.271L531.589 258.423L514.632 275.378C515.538 277.088 516.49 278.769 517.488 280.42L535.561 262.349L535.712 262.198L535.87 262.046L579.19 218.731L579.341 218.58L579.492 218.429L622.781 175.12L622.932 174.968L623.083 174.817L629.896 167.985L630.451 168.313L623.518 175.246L623.367 175.397L623.215 175.548L579.896 218.863L579.744 219.015L579.593 219.166L536.273 262.481L536.122 262.633L536.015 262.771L517.819 280.965C518.805 282.574 519.833 284.155 520.903 285.704L539.899 266.71L540.05 266.559L540.201 266.408L583.521 223.092L583.673 222.941L583.824 222.79L627.144 179.474L627.295 179.323L627.446 179.172L635.218 171.401C635.283 171.447 635.349 171.492 635.416 171.538L635.416 171.538L635.417 171.538C635.523 171.61 635.63 171.683 635.734 171.761L627.881 179.607L627.73 179.758L627.579 179.909L584.259 223.225L584.107 223.376L583.956 223.527L540.636 266.843L540.485 266.994L540.334 267.151L521.262 286.221C522.331 287.75 523.441 289.249 524.589 290.716L544.261 271.046L544.412 270.895L544.563 270.744L587.883 227.428L588.034 227.277L588.186 227.126L631.506 183.836L631.657 183.684L631.808 183.533L640.216 175.126L640.695 175.517L632.243 183.968L632.092 184.119L631.94 184.27L588.621 227.586L588.469 227.737L588.318 227.888L544.979 271.204L544.828 271.361L544.696 271.487L524.973 291.204C526.134 292.668 527.333 294.1 528.569 295.499L548.621 275.432L548.773 275.281L548.924 275.13L592.244 231.84L592.395 231.689L592.546 231.537L635.866 188.197L636.017 188.045L636.169 187.894L644.905 179.159L645.358 179.582L636.635 188.329L636.484 188.48L636.333 188.632L593.013 231.947L592.862 232.098L592.71 232.256L549.39 275.571L549.239 275.722L549.082 275.874L528.984 295.965C530.216 297.341 531.484 298.685 532.787 299.993L552.983 279.8L553.134 279.649L553.285 279.491L596.605 236.176L596.756 236.025L596.908 235.873L640.228 192.558L640.379 192.407L640.53 192.255L649.297 183.495L649.713 183.949L640.971 192.69L640.82 192.842L640.669 192.999L597.343 236.314L597.191 236.466L597.04 236.617L553.72 279.932L553.569 280.084L553.418 280.235L533.222 300.428C534.534 301.73 535.881 302.997 537.261 304.228L557.343 284.148L557.494 283.997L557.645 283.846L600.965 240.537L601.116 240.386L601.268 240.234L644.587 196.919L644.739 196.768L644.89 196.617L653.399 188.121C653.446 188.18 653.493 188.238 653.539 188.297C653.622 188.401 653.705 188.505 653.79 188.606L645.344 197.051L645.193 197.209L645.041 197.36L601.703 240.688L601.551 240.839L601.4 240.991L558.08 284.281L557.929 284.432L557.778 284.583L537.722 304.637C539.117 305.866 540.546 307.059 542.006 308.213L561.707 288.522L561.858 288.371L562.009 288.22L605.329 244.904L605.48 244.753L605.632 244.602L648.958 201.28L649.109 201.129L649.26 200.978L657.177 193.062L657.536 193.573L649.695 201.419L649.544 201.57L649.393 201.721L606.06 245.037L605.909 245.188L605.758 245.339L562.438 288.655L562.28 288.806L562.129 288.957L542.491 308.593C543.968 309.746 545.477 310.86 547.017 311.933L566.068 292.883L566.22 292.732L566.371 292.581L609.691 249.266L609.842 249.114L609.993 248.963L653.319 205.648L653.471 205.496L653.622 205.339L660.656 198.287L660.99 198.829L654.057 205.761L653.905 205.912L653.754 206.064L610.434 249.379L610.283 249.53L610.132 249.681L566.812 292.997L566.661 293.148L566.503 293.299L547.527 312.286C549.086 313.359 550.676 314.389 552.295 315.377L570.429 297.245L570.58 297.093L570.731 296.942L614.057 253.627L614.209 253.475L614.36 253.324L657.68 210.009L657.831 209.858L657.976 209.744L663.794 203.927L664.09 204.501L658.417 210.173L658.266 210.324L658.115 210.475L614.795 253.791L614.644 253.942L614.492 254.093L571.173 297.408L571.021 297.56L570.87 297.711L552.847 315.711C554.488 316.698 556.158 317.641 557.856 318.537L574.773 301.606L574.931 301.454L575.082 301.303L618.421 257.988L618.572 257.837L618.723 257.685L662.043 214.37L662.194 214.219L662.364 214.049L666.619 209.795L666.651 209.876L666.652 209.877C666.728 210.067 666.8 210.248 666.877 210.425L662.799 214.502L662.648 214.654L662.497 214.805L619.177 258.12L619.026 258.271L618.874 258.423L575.555 301.738L575.403 301.889L575.252 302.041L558.445 318.846C560.182 319.748 561.947 320.603 563.739 321.408L579.19 305.967L579.342 305.816L579.493 305.664L622.781 262.349L622.932 262.198L623.084 262.046L666.404 218.731L666.555 218.58L666.681 218.473L668.994 216.16C669.049 216.297 669.1 216.451 669.154 216.609L669.154 216.61L669.154 216.611C669.174 216.67 669.194 216.73 669.215 216.79L667.116 218.882L666.964 219.034L666.813 219.185L623.493 262.5L623.342 262.651L623.191 262.803L579.871 306.118L579.72 306.276L579.569 306.427L564.322 321.668C566.156 322.478 568.019 323.237 569.907 323.942L583.522 310.328L583.673 310.177L583.825 310.025L627.144 266.71L627.296 266.559L627.447 266.408L670.767 223.092L670.931 222.972L671.031 222.872L671.037 222.891L671.042 222.905C671.046 222.919 671.051 222.933 671.056 222.946L671.057 222.949L671.057 222.949C671.079 223.012 671.101 223.076 671.101 223.143L671.195 223.54L627.882 266.842L627.731 266.994L627.579 267.151L584.26 310.467L584.108 310.618L583.957 310.769L570.544 324.177C572.482 324.886 574.446 325.538 576.436 326.132L587.881 314.689L588.032 314.538L588.183 314.387L631.503 271.071L631.654 270.92L631.806 270.769L672.535 230.044L672.552 230.142C672.59 230.36 672.628 230.574 672.661 230.794L632.24 271.204L632.089 271.361L631.938 271.512L588.618 314.828L588.467 314.979L588.316 315.13L577.113 326.332C579.168 326.93 581.249 327.466 583.354 327.938L592.244 319.057L592.395 318.905L592.547 318.754L635.866 275.432L636.018 275.281L636.163 275.13L673.495 237.802C673.497 237.829 673.5 237.856 673.503 237.884L673.511 237.961L673.515 238.005C673.536 238.208 673.558 238.411 673.558 238.615L636.598 275.571L636.446 275.722L636.295 275.874L592.975 319.189L592.824 319.34L592.673 319.491L584.068 328.095C586.258 328.57 588.474 328.975 590.714 329.309L596.606 323.418L596.757 323.266L596.908 323.115L640.228 279.8L640.379 279.649L640.487 279.541L673.734 246.303V247.186L640.959 279.957L640.808 280.109L640.657 280.26L597.331 323.575L597.179 323.727L597.028 323.878L591.485 329.421C593.823 329.751 596.187 330.003 598.573 330.174L600.968 327.779L601.119 327.628L601.271 327.476L644.59 284.161L644.742 284.01L644.893 283.846L673.193 255.574L673.08 256.564L645.347 284.293L645.196 284.445L645.044 284.596L601.724 327.899L601.573 328.05L601.422 328.201L599.393 330.23C601.604 330.371 603.833 330.442 606.079 330.442C606.397 330.442 606.715 330.441 607.033 330.438L648.959 288.522L649.11 288.371L649.274 288.207L671.284 266.193C671.269 266.253 671.255 266.313 671.24 266.373L671.191 266.579C671.129 266.837 671.068 267.094 671 267.347L649.709 288.642L649.558 288.793L649.407 288.944L607.92 330.426ZM653.468 292.732L653.317 292.883L618.311 327.886L619.824 327.256L653.752 293.299L653.903 293.148L654.055 292.997L666.427 280.625C666.646 280.121 666.856 279.617 667.058 279.113L653.607 292.562L653.468 292.732ZM517.333 185.455L524.657 178.164C522.079 180.453 519.634 182.887 517.333 185.455ZM650.39 305.406L644.591 311.204C642.818 312.822 640.981 314.368 639.082 315.842L655.029 299.898C653.558 301.797 652.012 303.633 650.39 305.406Z" fill="url(#paint2_radial_524_1461)"/>
<g opacity="0.57">
<path d="M384.39 42.4265L384.246 42.5709L384.102 42.7153L342.75 84.0625L342.606 84.2068L342.461 84.3512L301.11 125.698L300.966 125.849L300.821 125.993L271.882 154.93L272.315 155.327L301.236 126.408L301.381 126.264L301.525 126.119L342.877 84.7723L343.021 84.6279L343.165 84.4836L384.523 43.1364L384.667 42.986L384.812 42.8416L393.156 34.4976L392.759 34.0645L384.39 42.4265Z" fill="#FFFFE0"/>
<path d="M388.405 46.7343L388.261 46.8786L346.909 88.2258L346.765 88.3702L346.621 88.5146L305.269 129.856L305.125 130L304.98 130.144L276.3 158.822L276.757 159.195L305.396 130.56L305.54 130.415L305.684 130.271L347.036 88.9477L347.18 88.8033L347.325 88.6589L388.694 47.2998L388.838 47.1554L388.983 47.005L397.045 38.9437C396.919 38.7933 396.798 38.6369 396.672 38.4805L388.55 46.5899L388.405 46.7343Z" fill="#FFFFE0"/>
<path d="M405.068 63.3921L404.924 63.5365L363.572 104.884L363.428 105.028L363.284 105.172L321.914 146.52L321.77 146.664L321.619 146.808L297.006 171.443L297.608 171.69L322.077 147.223L322.221 147.079L322.365 146.935L363.717 105.588L363.861 105.443L364.006 105.299L405.357 63.9516L405.501 63.8072L405.646 63.6628L409.539 59.7705C409.454 59.578 409.376 59.3795 409.292 59.1689L405.231 63.2297L405.068 63.3921Z" fill="#FFFFE0"/>
<path d="M396.741 55.0658L396.597 55.2101L355.239 96.5573L355.095 96.7017L354.95 96.8461L313.599 138.193L313.455 138.338L313.31 138.482L286.025 165.764L286.543 166.077L313.725 138.879L313.876 138.735L314.02 138.59L355.372 97.2431L355.516 97.0987L355.66 96.9544L397.012 55.6072L397.156 55.4628L397.301 55.3184L403.919 48.701L403.6 48.1836L396.885 54.9154L396.741 55.0658Z" fill="#FFFFE0"/>
<path d="M409.232 67.5552L409.087 67.6996L367.736 109.047L367.592 109.191L367.447 109.336L326.126 150.683L325.981 150.827L325.837 150.971L303.022 173.772L303.624 173.976L326.198 151.411L326.342 151.266L326.487 151.116L367.838 109.769L367.983 109.624L368.127 109.48L409.478 68.1327L409.623 67.9884L409.767 67.844L411.771 65.8467C411.699 65.6361 411.632 65.4256 411.56 65.2451L409.352 67.4529L409.232 67.5552Z" fill="#FFFFE0"/>
<path d="M400.905 59.2293L400.761 59.3737L359.409 100.721L359.265 100.865L359.12 101.01L317.763 142.357L317.619 142.501L317.474 142.646L291.351 168.766L291.898 169.055L317.895 143.091L318.04 142.946L318.184 142.802L359.536 101.455L359.68 101.31L359.824 101.166L401.176 59.8189L401.32 59.6745L401.465 59.5301L406.879 54.1158L406.597 53.5684L401.043 59.121L400.905 59.2293Z" fill="#FFFFE0"/>
<path d="M392.578 50.8966L392.434 51.041L351.076 92.3942L350.932 92.5386L350.787 92.6829L309.436 134.03L309.292 134.174L309.147 134.319L281.002 162.449L281.489 162.792L309.55 134.734L309.695 134.59L309.845 134.445L351.196 93.098L351.341 92.9537L351.485 92.8093L392.849 51.4621L392.993 51.3177L393.138 51.1734L400.622 43.6836L400.279 43.1963L392.722 50.7522L392.578 50.8966Z" fill="#FFFFE0"/>
<path d="M413.251 71.8619L371.9 113.209L371.755 113.353L371.611 113.498L330.259 154.845L330.115 154.989L329.971 155.134L309.442 175.66L310.11 175.822L330.386 155.555L330.53 155.41L330.675 155.266L372.026 113.919L372.17 113.769L372.315 113.624L413.66 72.289L413.57 71.9101C413.57 71.8198 413.528 71.7356 413.504 71.6514L413.408 71.7476L413.251 71.8619Z" fill="#FFFFE0"/>
<path d="M388.41 130.012L388.266 130.156L346.914 171.503L346.77 171.648L346.625 171.792L340.699 177.718L341.644 177.609L347.059 172.195L347.203 172.051L347.347 171.906L388.699 130.571L388.843 130.427L388.988 130.283L415.46 103.813L415.569 102.868L388.554 129.855L388.41 130.012Z" fill="#FFFFE0"/>
<path d="M380.082 121.68L379.938 121.824L338.586 163.177L338.442 163.322L338.298 163.466L323.72 178.031L324.496 178.091L338.707 163.881L338.851 163.737L338.996 163.592L380.347 122.245L380.491 122.101L380.636 121.957L415.917 86.6794C415.917 86.4207 415.881 86.162 415.856 85.9033L380.221 121.535L380.082 121.68Z" fill="#FFFFE0"/>
<path d="M384.245 125.849L384.1 125.993L342.749 167.34L342.605 167.485L342.46 167.629L331.793 178.295H332.635L342.863 168.068L343.008 167.924L343.152 167.779L384.51 126.432L384.654 126.288L384.798 126.143L416.084 94.8608C416.084 94.578 416.084 94.2953 416.084 94.0186L384.347 125.746L384.245 125.849Z" fill="#FFFFE0"/>
<path d="M375.918 117.517L375.773 117.661L334.422 159.009L334.278 159.153L334.133 159.297L316.318 177.11L317.034 177.231L334.548 159.718L334.693 159.574L334.837 159.43L376.189 118.083L376.333 117.938L376.477 117.788L415.061 79.2139C415.025 78.9733 414.983 78.7387 414.941 78.498L376.062 117.373L375.918 117.517Z" fill="#FFFFE0"/>
<path d="M396.741 138.338L396.596 138.483L363.181 171.895L364.625 171.293L397.011 138.88L397.156 138.735L397.3 138.591L409.111 126.782C409.319 126.3 409.52 125.819 409.712 125.338L396.873 138.176L396.741 138.338Z" fill="#FFFFE0"/>
<path d="M392.579 134.175L392.435 134.319L351.077 175.666L350.933 175.811L350.843 175.901L350.993 175.865L351.222 175.811C351.462 175.751 351.709 175.696 351.95 175.63L392.862 134.722L393.006 134.578L393.151 134.433L413.475 114.106C413.571 113.745 413.655 113.372 413.745 113.005L392.736 134.018L392.579 134.175Z" fill="#FFFFE0"/>
<path d="M288.893 30.4971L289.037 30.3527L309.433 9.96484L308.296 10.2656L288.622 29.9376L288.478 30.082L288.333 30.2263L248.083 70.4666C247.981 70.8456 247.878 71.2246 247.782 71.6036L288.749 30.6414L288.893 30.4971Z" fill="#FFFFE0"/>
<path d="M266.79 35.936L273.781 28.9756C271.32 31.1607 268.986 33.4846 266.79 35.936V35.936Z" fill="#FFFFE0"/>
<path d="M284.724 26.3341L284.868 26.1898L296.781 14.2783L295.289 14.9521L284.459 25.7807L284.309 25.9251L284.164 26.0695L252.722 57.4724C252.5 57.9657 252.283 58.465 252.066 58.9643L284.556 26.4785L284.724 26.3341Z" fill="#FFFFE0"/>
<path d="M388.266 155.97L393.801 150.436C395.35 148.743 396.826 146.991 398.23 145.178L383.008 160.398C384.821 158.99 386.574 157.514 388.266 155.97Z" fill="#FFFFE0"/>
<path d="M263.9 88.7907L264.045 88.6463L305.396 47.2991L305.541 47.1548L305.685 47.0044L344.299 8.40043L343.571 8.28613L305.27 46.5893L305.125 46.7336L304.981 46.878L263.63 88.2252L263.485 88.3696L263.341 88.514L246.104 105.755C246.14 105.996 246.182 106.237 246.218 106.471L263.756 88.9471L263.9 88.7907Z" fill="#FFFFE0"/>
<path d="M255.576 80.459L255.721 80.3146L297.072 38.9674L297.217 38.8231L297.361 38.6787L328.713 7.33594H327.853L296.946 38.2636L296.801 38.408L296.657 38.5524L255.306 79.9236L255.161 80.068L255.017 80.2123L245.174 90.0303C245.174 90.313 245.174 90.6018 245.174 90.8905L255.456 80.6094L255.576 80.459Z" fill="#FFFFE0"/>
<path d="M259.738 84.628L259.883 84.4836L301.234 43.1365L301.379 42.9861L301.523 42.8417L336.834 7.53446L336.052 7.48633L301.108 42.4266L300.964 42.571L300.819 42.7153L259.468 84.0625L259.323 84.2069L259.179 84.3513L245.299 98.2299C245.299 98.4886 245.299 98.7533 245.347 99.012L259.594 84.7724L259.738 84.628Z" fill="#FFFFE0"/>
<path d="M251.412 76.3143L251.556 76.1699L292.908 34.8047L293.052 34.6603L293.196 34.5159L319.717 8.00391C319.392 8.04 319.067 8.09414 318.748 8.13626L292.781 34.1008L292.637 34.2452L292.492 34.3896L251.141 75.7127L250.997 75.857L250.846 76.0014L245.949 80.8984C245.907 81.2232 245.859 81.5481 245.816 81.8669L251.267 76.4165L251.412 76.3143Z" fill="#FFFFE0"/>
<path d="M297.246 122.101L297.391 121.957L338.742 80.6096L338.887 80.4592L339.031 80.3148L380.383 38.9677L380.527 38.8233L380.671 38.6789L388.998 30.3288L388.565 29.9258L380.226 38.2638L380.082 38.4082L379.937 38.5526L338.586 79.9238L338.441 80.0682L338.297 80.2125L296.946 121.536L296.801 121.68L296.657 121.824L267.766 150.737L268.169 151.164L297.096 122.246L297.246 122.101Z" fill="#FFFFE0"/>
<path d="M288.89 113.769L289.035 113.625L330.386 72.2779L330.53 72.1335L330.675 71.9891L372.026 30.6419L372.171 30.4976L372.315 30.3532L379.812 22.8634C379.649 22.7431 379.481 22.6348 379.318 22.5205L371.9 29.9381L371.756 30.0825L371.611 30.2269L330.26 71.574L330.115 71.7184L329.971 71.8628L288.62 113.21L288.475 113.354L288.331 113.499L260.336 141.491L260.679 141.984L288.746 113.92L288.89 113.769Z" fill="#FFFFE0"/>
<path d="M280.56 105.443L280.704 105.299L322.056 63.9516L322.2 63.8073L322.345 63.6629L363.696 22.3157L363.84 22.1713L363.985 22.027L369.4 16.6127L368.84 16.3359L363.552 21.6299L363.407 21.7743L363.263 21.9187L321.911 63.2478L321.767 63.3922L321.617 63.5366L280.265 104.884L280.121 105.028L279.976 105.172L254.105 131.041C254.196 131.227 254.286 131.414 254.382 131.6L280.398 105.588L280.56 105.443Z" fill="#FFFFE0"/>
<path d="M272.228 97.1167L272.372 96.9723L313.723 55.6252L313.874 55.4808L314.018 55.3364L355.37 13.9892L355.514 13.8449L355.658 13.7005L357.674 11.6791L357.072 11.4746L355.267 13.2794L355.123 13.4238L354.979 13.5681L313.597 54.9153L313.453 55.0657L313.308 55.2101L271.975 96.5572L271.83 96.7016L271.686 96.846L249.305 119.225C249.371 119.43 249.443 119.64 249.509 119.827L272.101 97.237L272.228 97.1167Z" fill="#FFFFE0"/>
<path d="M293.038 117.938L293.183 117.787L334.552 76.4402L334.697 76.2958L334.841 76.1514L376.192 34.8042L376.337 34.6599L376.481 34.5155L384.549 26.4482L384.092 26.0752L376.066 34.1004L375.922 34.2448L375.777 34.3891L334.426 75.7122L334.281 75.8566L334.137 76.001L292.786 117.348L292.641 117.493L292.497 117.637L263.9 146.23L264.267 146.694L292.912 118.058L293.038 117.938Z" fill="#FFFFE0"/>
<path d="M284.725 109.606L284.869 109.462L326.221 68.1148L326.365 67.9704L326.51 67.826L367.861 26.4788L368.005 26.3344L368.15 26.1901L374.768 19.5726L374.238 19.2598L367.735 25.781L367.59 25.9254L367.446 26.0697L326.125 67.4109L325.98 67.5553L325.836 67.6997L284.484 109.047L284.334 109.191L284.189 109.336L257.115 136.407C257.218 136.582 257.32 136.762 257.428 136.93L284.623 109.739L284.725 109.606Z" fill="#FFFFE0"/>
<path d="M276.402 101.28L276.546 101.136L317.897 59.7885L318.042 59.6442L318.186 59.4998L359.538 18.1526L359.682 18.0082L359.826 17.8639L363.737 13.9535L363.136 13.7129L359.405 17.4427L359.261 17.5871L359.117 17.7375L317.765 59.0847L317.621 59.2291L317.476 59.3734L276.125 100.721L275.981 100.865L275.836 101.009L251.523 125.314C251.602 125.512 251.68 125.711 251.764 125.915L276.245 101.437L276.402 101.28Z" fill="#FFFFE0"/>
<path d="M268.067 92.9538L268.212 92.8094L309.563 51.4623L309.708 51.3179L309.858 51.1735L351.209 9.82633H351.173L350.536 9.66992L309.437 50.7524L309.293 50.8968L309.148 51.0411L267.797 92.3943L267.652 92.5387L267.508 92.6831L247.461 112.722C247.515 112.951 247.569 113.173 247.629 113.396L267.923 93.0982L268.067 92.9538Z" fill="#FFFFE0"/>
</g>
<defs>
<radialGradient id="paint0_radial_524_1461" cx="0" cy="0" r="1" gradientUnits="userSpaceOnUse" gradientTransform="translate(26.5166 120.574) rotate(94.1349) scale(26.2507 24.1697)">
<stop stop-color="#8CE717"/>
<stop offset="1" stop-color="#00FFE0" stop-opacity="0"/>
</radialGradient>
<radialGradient id="paint1_radial_524_1461" cx="0" cy="0" r="1" gradientUnits="userSpaceOnUse" gradientTransform="translate(377.7 128.856) rotate(94.1349) scale(36.5604 33.6621)">
<stop stop-color="#8CE717"/>
<stop offset="1" stop-color="#00FFE0" stop-opacity="0"/>
</radialGradient>
<radialGradient id="paint2_radial_524_1461" cx="0" cy="0" r="1" gradientUnits="userSpaceOnUse" gradientTransform="translate(663.036 168.467) rotate(44.9947) scale(161.528)">
<stop stop-color="#AAFF00"/>
<stop offset="1" stop-color="#00FFE0" stop-opacity="0"/>
</radialGradient>
</defs>
</svg>
