<svg width="408" height="301" viewBox="0 0 408 301" fill="none" xmlns="http://www.w3.org/2000/svg">
<path opacity="0.3" d="M16.833 104.81C26.0638 104.81 33.5469 97.3974 33.5469 88.2539C33.5469 79.1105 26.0638 71.6982 16.833 71.6982C7.60219 71.6982 0.119141 79.1105 0.119141 88.2539C0.119141 97.3974 7.60219 104.81 16.833 104.81Z" fill="url(#paint0_radial_10_2)"/>
<g opacity="0.57">
<path d="M101.799 207.952L101.7 208.05L101.601 208.148L73.2091 236.268L73.11 236.367L73.0108 236.465L44.6189 264.585L44.5197 264.688L44.4206 264.786L24.5508 284.465L24.8482 284.736L44.7056 265.068L44.8048 264.97L44.9039 264.872L73.2959 236.751L73.395 236.653L73.4941 236.555L101.89 208.435L101.989 208.332L102.089 208.234L107.818 202.559L107.545 202.265L101.799 207.952Z" fill="#FFFFE0"/>
<path d="M104.557 210.882L104.458 210.98L76.0657 239.101L75.9665 239.199L75.8674 239.297L47.4754 267.413L47.3763 267.511L47.2771 267.61L27.585 287.113L27.8989 287.367L47.5622 267.892L47.6613 267.794L47.7605 267.695L76.1524 239.591L76.2515 239.493L76.3507 239.395L104.755 211.267L104.854 211.168L104.953 211.066L110.489 205.584C110.402 205.481 110.319 205.375 110.233 205.269L104.656 210.784L104.557 210.882Z" fill="#FFFFE0"/>
<path d="M115.998 222.212L115.898 222.31L87.5065 250.431L87.4074 250.529L87.3082 250.627L58.9039 278.747L58.8047 278.845L58.7014 278.944L41.8018 295.698L42.2149 295.866L59.0154 279.226L59.1145 279.128L59.2137 279.03L87.6056 250.909L87.7048 250.811L87.8039 250.713L116.196 222.593L116.295 222.494L116.394 222.396L119.067 219.749C119.009 219.618 118.955 219.483 118.898 219.34L116.109 222.102L115.998 222.212Z" fill="#FFFFE0"/>
<path d="M110.28 216.549L110.181 216.647L81.785 244.767L81.6859 244.865L81.5867 244.964L53.1948 273.084L53.0956 273.182L52.9965 273.28L34.2627 291.835L34.618 292.048L53.2815 273.55L53.3848 273.452L53.484 273.354L81.8759 245.234L81.975 245.136L82.0742 245.037L110.466 216.917L110.565 216.819L110.664 216.721L115.208 212.22L114.989 211.868L110.379 216.446L110.28 216.549Z" fill="#FFFFE0"/>
<path d="M118.856 225.042L118.757 225.14L90.365 253.26L90.2659 253.359L90.1667 253.457L61.7954 281.577L61.6963 281.675L61.5971 281.773L45.9326 297.28L46.3457 297.419L61.845 282.072L61.9441 281.974L62.0433 281.872L90.4352 253.751L90.5344 253.653L90.6335 253.555L119.025 225.435L119.125 225.336L119.224 225.238L120.599 223.88C120.55 223.737 120.504 223.593 120.455 223.471L118.939 224.972L118.856 225.042Z" fill="#FFFFE0"/>
<path d="M113.14 219.38L113.041 219.478L84.6491 247.599L84.55 247.697L84.4508 247.795L56.0548 275.916L55.9556 276.014L55.8565 276.112L37.9199 293.877L38.2958 294.073L56.1456 276.415L56.2448 276.316L56.3439 276.218L84.7359 248.098L84.835 248L84.9342 247.902L113.326 219.781L113.425 219.683L113.524 219.585L117.242 215.903L117.048 215.53L113.235 219.307L113.14 219.38Z" fill="#FFFFE0"/>
<path d="M107.423 213.715L107.324 213.813L78.9275 241.937L78.8284 242.035L78.7292 242.134L50.3373 270.254L50.2381 270.352L50.139 270.45L30.8145 289.582L31.1491 289.815L50.4158 270.733L50.5149 270.634L50.6182 270.536L79.0101 242.416L79.1093 242.318L79.2084 242.219L107.609 214.099L107.708 214.001L107.807 213.903L112.946 208.809L112.71 208.478L107.522 213.616L107.423 213.715Z" fill="#FFFFE0"/>
<path d="M121.616 227.973L93.2241 256.094L93.125 256.192L93.0258 256.29L64.6339 284.41L64.5347 284.509L64.4356 284.607L50.3408 298.567L50.7994 298.677L64.7206 284.893L64.8198 284.795L64.9189 284.697L93.3109 256.576L93.41 256.474L93.5091 256.376L121.897 228.264L121.835 228.006C121.835 227.945 121.806 227.887 121.79 227.83L121.723 227.896L121.616 227.973Z" fill="#FFFFE0"/>
<path d="M104.559 267.52L104.46 267.618L76.068 295.739L75.9689 295.837L75.8698 295.935L71.8008 299.965L72.4493 299.891L76.1672 296.209L76.2663 296.111L76.3655 296.013L104.757 267.901L104.857 267.802L104.956 267.704L123.132 249.702L123.206 249.06L104.658 267.414L104.559 267.52Z" fill="#FFFFE0"/>
<path d="M98.8432 261.853L98.744 261.951L70.3521 290.076L70.2529 290.174L70.1538 290.272L60.1445 300.178L60.6774 300.218L70.4347 290.555L70.5338 290.456L70.633 290.358L99.0249 262.238L99.1241 262.14L99.2232 262.041L123.447 238.049C123.447 237.873 123.422 237.697 123.406 237.521L98.9382 261.755L98.8432 261.853Z" fill="#FFFFE0"/>
<path d="M101.701 264.69L101.602 264.788L73.2099 292.908L73.1108 293.006L73.0117 293.105L65.6875 300.359H66.2658L73.2884 293.403L73.3876 293.305L73.4867 293.207L101.883 265.087L101.982 264.988L102.081 264.89L123.562 243.615C123.562 243.422 123.562 243.23 123.562 243.042L101.771 264.62L101.701 264.69Z" fill="#FFFFE0"/>
<path d="M95.9836 259.021L95.8844 259.12L67.4925 287.24L67.3934 287.338L67.2942 287.436L55.0625 299.551L55.5541 299.633L67.5793 287.723L67.6784 287.625L67.7775 287.526L96.1695 259.406L96.2686 259.308L96.3678 259.205L122.859 232.971C122.835 232.808 122.806 232.648 122.777 232.484L96.0827 258.923L95.9836 259.021Z" fill="#FFFFE0"/>
<path d="M110.28 273.183L110.181 273.282L87.2373 296.005L88.2287 295.596L110.466 273.552L110.565 273.453L110.664 273.355L118.773 265.324C118.916 264.996 119.054 264.669 119.186 264.342L110.371 273.073L110.28 273.183Z" fill="#FFFFE0"/>
<path d="M107.422 270.353L107.323 270.451L78.9267 298.571L78.8276 298.67L78.7656 298.731L78.8689 298.706L79.0259 298.67C79.1911 298.629 79.3605 298.592 79.5257 298.547L107.616 270.725L107.715 270.627L107.814 270.529L121.769 256.704C121.835 256.458 121.893 256.205 121.955 255.955L107.529 270.246L107.422 270.353Z" fill="#FFFFE0"/>
<path d="M36.2316 199.839L36.3308 199.741L50.3347 185.875L49.5539 186.08L36.0457 199.459L35.9466 199.557L35.8474 199.655L8.21143 227.023C8.1412 227.28 8.07098 227.538 8.00488 227.796L36.1325 199.937L36.2316 199.839Z" fill="#FFFFE0"/>
<path d="M21.0566 203.538L25.8568 198.805C24.1671 200.291 22.5644 201.871 21.0566 203.538Z" fill="#FFFFE0"/>
<path d="M33.3691 197.01L33.4682 196.912L41.6475 188.811L40.623 189.269L33.1873 196.633L33.084 196.732L32.9849 196.83L11.3966 218.187C11.2437 218.522 11.095 218.862 10.9463 219.202L33.2534 197.108L33.3691 197.01Z" fill="#FFFFE0"/>
<path d="M104.46 285.174L108.261 281.41C109.324 280.259 110.337 279.067 111.301 277.834L100.85 288.185C102.094 287.228 103.298 286.224 104.46 285.174Z" fill="#FFFFE0"/>
<path d="M19.0728 239.487L19.172 239.389L47.5639 211.268L47.6631 211.17L47.7622 211.068L74.2746 184.813L73.7748 184.735L47.4772 210.785L47.378 210.884L47.2789 210.982L18.8869 239.102L18.7878 239.2L18.6887 239.299L6.85352 251.025C6.8783 251.188 6.90722 251.352 6.932 251.511L18.9737 239.593L19.0728 239.487Z" fill="#FFFFE0"/>
<path d="M13.3563 233.819L13.4554 233.721L41.8474 205.601L41.9465 205.502L42.0456 205.404L63.572 184.088H62.9812L41.7606 205.122L41.6615 205.22L41.5623 205.318L13.1704 233.455L13.0712 233.553L12.9721 233.651L6.21387 240.329C6.21387 240.521 6.21387 240.717 6.21387 240.914L13.2736 233.921L13.3563 233.819Z" fill="#FFFFE0"/>
<path d="M16.215 236.655L16.3142 236.556L44.7062 208.436L44.8053 208.334L44.9044 208.236L69.1489 184.223L68.6119 184.19L44.6194 207.953L44.5203 208.052L44.4211 208.15L16.0292 236.27L15.93 236.368L15.8309 236.466L6.30078 245.905C6.30078 246.081 6.30078 246.261 6.33383 246.437L16.1159 236.753L16.215 236.655Z" fill="#FFFFE0"/>
<path d="M10.497 231.001L10.5962 230.903L38.9881 202.77L39.0873 202.672L39.1864 202.574L57.3956 184.543C57.1725 184.568 56.9494 184.604 56.7305 184.633L38.9014 202.292L38.8022 202.39L38.7031 202.488L10.3112 230.592L10.212 230.69L10.1087 230.788L6.74615 234.119C6.71724 234.34 6.68419 234.561 6.65527 234.777L10.3979 231.071L10.497 231.001Z" fill="#FFFFE0"/>
<path d="M41.9672 262.141L42.0663 262.043L70.4583 233.922L70.5574 233.82L70.6566 233.722L99.0485 205.602L99.1477 205.503L99.2468 205.405L104.964 199.726L104.667 199.452L98.9411 205.123L98.842 205.221L98.7429 205.319L70.3509 233.456L70.2518 233.554L70.1526 233.652L41.7607 261.756L41.6615 261.855L41.5624 261.953L21.7256 281.616L22.0024 281.907L41.8639 262.239L41.9672 262.141Z" fill="#FFFFE0"/>
<path d="M30.5104 250.811L30.6096 250.713L59.0015 222.593L59.1007 222.494L59.1998 222.396L87.5918 194.276L87.6909 194.178L87.79 194.079L91.5079 190.397L91.1237 190.209L87.4926 193.809L87.3935 193.908L87.2943 194.006L58.9024 222.114L58.8032 222.212L58.7 222.31L30.308 250.431L30.2089 250.529L30.1097 250.627L12.3467 268.22C12.4086 268.347 12.4706 268.474 12.5367 268.601L30.3989 250.909L30.5104 250.811Z" fill="#FFFFE0"/>
<path d="M36.2304 256.474L36.3296 256.376L64.7215 228.255L64.8207 228.157L64.9198 228.059L93.3118 199.938L93.4109 199.84L93.5101 199.742L98.6572 194.648C98.5457 194.566 98.43 194.493 98.3185 194.415L93.225 199.46L93.1259 199.558L93.0268 199.656L64.6348 227.777L64.5357 227.875L64.4365 227.973L36.0446 256.093L35.9454 256.191L35.8463 256.29L16.625 275.327L16.8605 275.663L36.1313 256.576L36.2304 256.474Z" fill="#FFFFE0"/>
<path d="M24.7887 245.149L24.8878 245.051L53.2798 216.93L53.3831 216.832L53.4822 216.734L81.8741 188.614L81.9733 188.515L82.0724 188.417L83.4563 187.042L83.0432 186.903L81.8039 188.131L81.7048 188.229L81.6056 188.327L53.193 216.447L53.0939 216.55L52.9947 216.648L24.6152 244.768L24.516 244.866L24.4169 244.965L9.0498 260.185C9.09525 260.324 9.14482 260.467 9.19026 260.594L24.7019 245.231L24.7887 245.149Z" fill="#FFFFE0"/>
<path d="M39.0764 259.308L39.1756 259.206L67.5799 231.085L67.6791 230.987L67.7782 230.889L96.1701 202.769L96.2693 202.67L96.3684 202.572L101.908 197.086L101.594 196.832L96.0834 202.29L95.9843 202.388L95.8851 202.486L67.4932 230.59L67.394 230.689L67.2949 230.787L38.9029 258.907L38.8038 259.005L38.7047 259.104L19.0703 278.55L19.3223 278.865L38.9897 259.39L39.0764 259.308Z" fill="#FFFFE0"/>
<path d="M33.3709 253.643L33.4701 253.545L61.862 225.425L61.9612 225.326L62.0603 225.228L90.4523 197.108L90.5514 197.01L90.6506 196.912L95.1946 192.411L94.8311 192.198L90.3655 196.633L90.2664 196.732L90.1672 196.83L61.7959 224.946L61.6968 225.044L61.5977 225.142L33.2057 253.263L33.1024 253.361L33.0033 253.459L14.4141 271.87C14.4843 271.989 14.5545 272.112 14.6289 272.226L33.3007 253.733L33.3709 253.643Z" fill="#FFFFE0"/>
<path d="M27.6537 247.981L27.7528 247.882L56.1448 219.762L56.2439 219.664L56.3431 219.566L84.735 191.445L84.8341 191.347L84.9333 191.249L87.6184 188.589L87.2053 188.426L84.6441 190.962L84.545 191.061L84.4458 191.163L56.0539 219.283L55.9548 219.381L55.8556 219.48L27.4637 247.6L27.3645 247.698L27.2654 247.796L10.5723 264.326C10.626 264.461 10.6797 264.596 10.7375 264.735L27.5463 248.087L27.6537 247.981Z" fill="#FFFFE0"/>
<path d="M21.9336 242.318L22.0328 242.22L50.4247 214.1L50.5239 214.002L50.6271 213.903L79.0191 185.783H78.9943L78.5564 185.677L50.338 213.617L50.2388 213.715L50.1397 213.813L21.7477 241.938L21.6486 242.036L21.5495 242.134L7.78516 255.763C7.82233 255.918 7.85951 256.07 7.90082 256.221L21.8345 242.417L21.9336 242.318Z" fill="#FFFFE0"/>
</g>
<path d="M377.708 171.612C417.09 132.606 417.09 69.3661 377.708 30.3607C338.325 -8.64477 274.474 -8.64478 235.092 30.3607C195.71 69.3661 195.71 132.606 235.092 171.612C274.474 210.617 338.325 210.617 377.708 171.612Z" stroke="#FFFFE0" stroke-width="0.25" stroke-miterlimit="10"/>
<defs>
<radialGradient id="paint0_radial_10_2" cx="0" cy="0" r="1" gradientUnits="userSpaceOnUse" gradientTransform="translate(26.0381 78.875) rotate(94.1743) scale(26.0035 24.1685)">
<stop stop-color="#8CE717"/>
<stop offset="1" stop-color="#00FFE0" stop-opacity="0"/>
</radialGradient>
</defs>
</svg>
