<svg width="37" height="36" viewBox="0 0 37 36" fill="none" xmlns="http://www.w3.org/2000/svg">
<path opacity="0.6" fill-rule="evenodd" clip-rule="evenodd" d="M18.8213 35.2864C28.4154 35.1221 36.1422 27.295 36.1422 17.6635C36.1422 7.92927 28.2496 0.0380859 18.5135 0.0380859C10.0223 0.0380859 2.93325 6.04031 1.25922 14.0326L6.48572 8.81268L6.51151 8.7869L6.53837 8.76112L8.47228 6.82741L8.73872 6.70709L6.61143 8.83417L6.58564 8.85995L6.55556 8.88573L1.22112 14.2196C1.11824 14.739 1.03817 15.2665 0.982008 15.8012L7.22974 9.55501L7.25553 9.52923L7.28132 9.50344L10.7946 5.99054L10.9976 5.93683L7.35545 9.57757L7.32966 9.60335L7.30388 9.62913L0.965381 15.967C0.92092 16.4324 0.894564 16.9031 0.887025 17.3784L7.97191 10.2984L7.9977 10.2726L8.02348 10.2468L12.6606 5.61024C12.6822 5.60738 12.7041 5.6042 12.726 5.60101L12.7261 5.601L12.7262 5.60099L12.7262 5.60098C12.7618 5.59581 12.7977 5.59059 12.8335 5.58661L8.09761 10.321L8.07183 10.3467L8.04604 10.3725L0.885219 17.5357C0.884917 17.5783 0.884766 17.6209 0.884766 17.6635C0.884766 18.0574 0.897684 18.4482 0.923121 18.8356L1.2784 18.4812L1.30418 18.4554L1.32997 18.4296L8.71426 11.0418L8.74005 11.016L8.76583 10.9902L14.285 5.46735H14.4386L8.83997 11.0644L8.81418 11.0901L8.7884 11.1159L1.4041 18.4994L1.37831 18.5252L1.35683 18.5521L0.932899 18.976C0.962701 19.3808 1.00618 19.7818 1.06287 20.1785L2.02116 19.2203L2.04695 19.1945L2.07273 19.1687L9.45703 11.7852L9.48281 11.7594L9.5086 11.7336L15.7487 5.4942L15.8883 5.5028L9.58273 11.8078L9.55695 11.8335L9.53116 11.8604L2.14687 19.2439L2.12108 19.2697L2.0953 19.2955L1.08191 20.3083C1.1392 20.689 1.20867 21.0656 1.2899 21.4379L2.76368 19.9638L2.78946 19.938L2.81525 19.9122L10.1995 12.5287L10.2253 12.5029L10.2511 12.4771L17.0907 5.63715L17.2207 5.65756L10.3252 12.5512L10.2995 12.5781L10.2737 12.6039L2.88938 19.9874L2.8636 20.0132L2.83781 20.0411L1.31713 21.5606C1.39803 21.919 1.48985 22.2732 1.59221 22.6229L3.50767 20.7082L3.53345 20.6824L3.55924 20.6567L10.9435 13.272L10.9693 13.2463L10.9951 13.2205L18.3343 5.88422L18.4482 5.91215H18.4546L11.0703 13.2957L11.0435 13.3215L11.0177 13.3472L3.63337 20.7308L3.60759 20.7566L3.5818 20.7823L1.62638 22.7381C1.72821 23.0774 1.83999 23.4123 1.96138 23.7426L4.2526 21.4516L4.27838 21.4258L4.30417 21.4L11.6852 14.0165L11.711 13.9907L11.7368 13.9639L19.1265 6.58033L19.1523 6.55455L19.178 6.52877L19.5004 6.20648L19.6078 6.24301L19.2479 6.60397L19.2221 6.62975L19.1963 6.65553L11.812 14.0391L11.7862 14.0648L11.7594 14.0906L4.37508 21.4742L4.34929 21.4999L4.32673 21.5214L2.00034 23.8476C2.12111 24.1698 2.25104 24.4875 2.38981 24.8005L4.99616 22.195L5.02194 22.1693L5.04773 22.1435L12.432 14.7599L12.4578 14.7342L12.4836 14.7084L19.8679 7.32483L19.8937 7.29798L19.9195 7.27219L20.5856 6.60614L20.693 6.64911L19.9947 7.34739L19.9689 7.37318L19.9431 7.39896L12.5588 14.7825L12.533 14.8083L12.5072 14.8341L5.12294 22.2176L5.09715 22.2434L5.06922 22.2713L2.43617 24.9041C2.57341 25.2082 2.71903 25.5078 2.87274 25.8025L5.73707 22.9384L5.76286 22.9127L5.78864 22.8869L13.1729 15.5033L13.1998 15.4776L13.2256 15.4518L20.6099 8.07146L20.6357 8.04567L20.6614 8.01989L21.6058 7.07452L21.7058 7.12394L20.7388 8.09079L20.713 8.11658L20.6872 8.14236L13.3029 15.5259L13.2772 15.5517L13.2514 15.5775L5.86707 22.961L5.84129 22.9868L5.81228 23.0126L2.92419 25.9004C3.0785 26.1917 3.24073 26.4782 3.41061 26.7595L6.48863 23.6818L6.51442 23.656L6.54128 23.6303L13.9256 16.2467L13.9514 16.2209L13.9771 16.1952L21.3561 8.81271L21.3819 8.78692L21.4076 8.76114L22.5691 7.59662L22.6636 7.65248L21.4818 8.83419L21.456 8.85997L21.4302 8.88576L14.0459 16.2693L14.0201 16.2951L13.9943 16.3209L6.61004 23.7044L6.58425 23.7302L6.56599 23.7538L3.46708 26.8524C3.63508 27.1268 3.81039 27.3963 3.99272 27.6605L7.22833 24.4252L7.25412 24.3995L7.2799 24.3737L14.6642 16.9901L14.69 16.9644L14.7158 16.9386L22.1001 9.55505L22.1258 9.52927L22.1516 9.50348L23.4764 8.17889C23.4875 8.18676 23.4989 8.19447 23.5103 8.2022C23.5284 8.21453 23.5466 8.22692 23.5645 8.24013L22.2258 9.57761L22.2 9.60339L22.1742 9.62917L14.7899 17.0127L14.7641 17.0385L14.7383 17.0643L7.35404 24.4478L7.32825 24.4736L7.30246 24.5004L4.05393 27.7486C4.23612 28.0093 4.42519 28.2648 4.62086 28.5148L7.9717 25.1643L7.99748 25.1386L8.02327 25.1128L15.4076 17.7292L15.4333 17.7035L15.4591 17.6777L22.8434 10.2984L22.8692 10.2727L22.895 10.2469L24.3282 8.81378L24.4099 8.88039L22.9691 10.321L22.9433 10.3468L22.9176 10.3726L15.5333 17.7561L15.5075 17.7819L15.4817 17.8077L8.09418 25.1912L8.06839 25.2181L8.04583 25.2395L4.68633 28.598C4.88421 28.8478 5.08871 29.0921 5.29958 29.3307L8.71575 25.912L8.74153 25.8862L8.76732 25.8604L16.1516 18.4812L16.1774 18.4554L16.2032 18.4296L23.5875 11.0418L23.6133 11.016L23.6391 10.9902L25.1282 9.50128L25.2055 9.57326L23.7186 11.0644L23.6928 11.0901L23.667 11.1159L16.2827 18.4995L16.2569 18.5252L16.2311 18.5521L8.84682 25.9356L8.82104 25.9614L8.79418 25.9872L5.37022 29.4101C5.57971 29.6442 5.79536 29.8728 6.01692 30.0954L9.45616 26.6565L9.48194 26.6307L9.50773 26.6039L16.892 19.2203L16.9178 19.1945L16.9436 19.1688L24.3279 11.7852L24.3537 11.7595L24.3795 11.7337L25.8739 10.2404L25.9448 10.3178L24.4547 11.8078L24.4289 11.8336L24.4031 11.8604L17.0177 19.244L16.9919 19.2698L16.9662 19.2955L9.58186 26.6791L9.55607 26.7048L9.53029 26.7306L6.09109 30.1695C6.31518 30.392 6.54522 30.6085 6.78094 30.8188L10.2023 27.3978L10.2281 27.372L10.2539 27.3462L17.6382 19.9638L17.664 19.938L17.6897 19.9122L25.074 12.5287L25.0998 12.5029L25.1256 12.4771L26.576 11.029L26.5999 11.0589C26.6141 11.0768 26.6282 11.0945 26.6427 11.1117L25.203 12.5512L25.1772 12.5781L25.1514 12.6039L17.7639 19.9896L17.7381 20.0154L17.7123 20.0411L10.328 27.4204L10.3022 27.4462L10.2764 27.4719L6.85952 30.8885C7.09726 31.0981 7.34071 31.3014 7.58958 31.4981L10.9462 28.1433L10.972 28.1175L10.9977 28.0917L18.382 20.7082L18.4078 20.6824L18.4336 20.6566L25.819 13.272L25.8448 13.2462L25.8705 13.2205L27.22 11.8712L27.2812 11.9582L25.9447 13.2957L25.9189 13.3214L25.8931 13.3472L18.5067 20.7308L18.4809 20.7565L18.4551 20.7823L11.0708 28.1658L11.0439 28.1916L11.0182 28.2174L7.67222 31.563C7.92358 31.7593 8.18041 31.9489 8.44243 32.1315L11.6876 28.8867L11.7133 28.861L11.7391 28.8352L19.1234 21.4516L19.1492 21.4259L19.175 21.4001L26.5604 14.0165L26.5861 13.9908L26.6119 13.9639L27.8109 12.7618L27.8679 12.8542L26.6861 14.0359L26.6603 14.0617L26.6345 14.0874L19.2502 21.471L19.2244 21.4968L19.1986 21.5225L11.8143 28.9061L11.7885 28.9319L11.7617 28.9576L8.52938 32.1918C8.79533 32.3748 9.06656 32.5508 9.3428 32.7193L12.4323 29.6301L12.4581 29.6043L12.4839 29.5785L19.8693 22.195L19.8951 22.1692L19.9209 22.1434L27.3051 14.7599L27.3309 14.7341L27.3556 14.7148L28.3473 13.7232L28.3978 13.821L27.4308 14.7878L27.4051 14.8136L27.3793 14.8394L19.995 22.2229L19.9692 22.2487L19.9434 22.2745L12.5591 29.658L12.5333 29.6838L12.5076 29.7096L9.43692 32.7763C9.71606 32.9443 10.0002 33.1047 10.2892 33.2574L13.1704 30.3736L13.1973 30.3478L13.2231 30.322L20.6106 22.9385L20.6364 22.9127L20.6622 22.8869L28.0464 15.5034L28.0722 15.4776L28.1012 15.4486L28.8265 14.7234L28.8321 14.7375L28.8321 14.7376C28.845 14.77 28.8574 14.8008 28.8705 14.8309L28.1754 15.5259L28.1496 15.5517L28.1238 15.5775L20.7395 22.961L20.7137 22.9868L20.6879 23.0126L13.3036 30.3961L13.2779 30.4219L13.2521 30.4477L10.3895 33.31C10.686 33.4642 10.9874 33.6102 11.2934 33.7477L13.9258 31.1169L13.9516 31.0911L13.9774 31.0653L21.3563 23.6818L21.3821 23.656L21.4079 23.6303L28.7922 16.2467L28.818 16.2209L28.8395 16.2027L29.2338 15.8084C29.2431 15.8319 29.252 15.8582 29.261 15.8852L29.2611 15.8853L29.2714 15.9158L28.9136 16.2725L28.8878 16.2983L28.862 16.3241L21.4777 23.7076L21.452 23.7334L21.4262 23.7592L14.0419 31.1427L14.0161 31.1696L13.9903 31.1953L11.3927 33.792C11.7055 33.9302 12.0231 34.0596 12.3451 34.1799L14.6649 31.8604L14.6907 31.8346L14.7165 31.8088L22.1008 24.4253L22.1266 24.3995L22.1523 24.3737L29.5366 16.9902L29.5646 16.9698L29.5818 16.9526L29.5844 16.961L29.586 16.9656L29.5861 16.9657C29.5898 16.9764 29.5936 16.9873 29.5936 16.9988L29.6097 17.0665L22.2265 24.4478L22.2007 24.4736L22.1749 24.5005L14.7906 31.884L14.7648 31.9098L14.739 31.9356L12.4537 34.2201C12.7832 34.3407 13.1174 34.4517 13.4558 34.5529L15.4051 32.6038L15.4309 32.578L15.4567 32.5522L22.841 25.1687L22.8667 25.1429L22.8925 25.1171L29.8352 18.1751L29.8382 18.1918L29.8382 18.1919L29.8382 18.1919L29.8382 18.192C29.8447 18.2291 29.8511 18.2656 29.8567 18.3029L22.9667 25.1912L22.9409 25.2181L22.9151 25.2439L15.5308 32.6274L15.505 32.6532L15.4792 32.679L13.5711 34.5869C13.9218 34.6891 14.2771 34.7807 14.6365 34.8614L16.151 33.3482L16.1768 33.3224L16.2026 33.2966L23.5869 25.912L23.6127 25.8862L23.6374 25.8605L30.001 19.4975L30.0045 19.5321C30.0081 19.5668 30.0118 19.6014 30.0118 19.6361L23.7115 25.9357L23.6857 25.9614L23.66 25.9872L16.2757 33.3708L16.2499 33.3965L16.2241 33.4223L14.7581 34.8882C15.1308 34.9691 15.508 35.0382 15.8892 35.095L16.8927 34.0916L16.9185 34.0658L16.9443 34.0401L24.3286 26.6565L24.3543 26.6307L24.3726 26.6125L30.04 20.9467V21.0971L24.4532 26.6834L24.4274 26.7092L24.4016 26.7349L17.0162 34.1185L16.9905 34.1443L16.9647 34.17L16.0205 35.1141C16.4199 35.1707 16.8236 35.2138 17.2312 35.2431L17.6392 34.8351L17.665 34.8093L17.6908 34.7835L25.0751 27.4L25.1009 27.3742L25.1266 27.3463L29.9507 22.527L29.9313 22.6957L25.204 27.4225L25.1782 27.4483L25.1524 27.4741L17.7681 34.8555L17.7423 34.8813L17.7166 34.9071L17.371 35.2526C17.7487 35.2767 18.1297 35.289 18.5135 35.289C18.5657 35.289 18.6179 35.2888 18.67 35.2883L25.8167 28.1434L25.8425 28.1176L25.8705 28.0897L29.6222 24.3372L29.6064 24.403L29.6064 24.403L29.6063 24.4031L29.6063 24.4031C29.5958 24.447 29.5853 24.4909 29.5739 24.5338L25.9446 28.1638L25.9188 28.1896L25.893 28.2154L18.8213 35.2864ZM26.5879 28.861L26.5621 28.8868L20.595 34.8534L20.8528 34.7459L26.6363 28.9577L26.6621 28.9319L26.6878 28.9061L28.7969 26.7973C28.8341 26.7114 28.8699 26.6254 28.9043 26.5395L26.6116 28.832L26.5879 28.861ZM3.37988 10.5745L4.62832 9.3316C4.18885 9.72181 3.77202 10.1368 3.37988 10.5745ZM26.062 31.0213L25.0735 32.0096C24.7713 32.2853 24.4583 32.5489 24.1345 32.8003L26.8527 30.0823C26.602 30.4061 26.3385 30.719 26.062 31.0213Z" fill="url(#paint0_radial_1103_1698)"/>
<defs>
<radialGradient id="paint0_radial_1103_1698" cx="0" cy="0" r="1" gradientUnits="userSpaceOnUse" gradientTransform="translate(28.2225 7.67862) rotate(44.9947) scale(27.534)">
<stop stop-color="#AAFF00"/>
<stop offset="1" stop-color="#00FFE0" stop-opacity="0"/>
</radialGradient>
</defs>
</svg>
