<svg width="244" height="177" viewBox="0 0 244 177" fill="none" xmlns="http://www.w3.org/2000/svg">
<path opacity="0.6" fill-rule="evenodd" clip-rule="evenodd" d="M225.78 35.4026C235.374 35.2384 243.101 27.4112 243.101 17.7798C243.101 8.04548 235.209 0.154297 225.472 0.154297C216.981 0.154297 209.892 6.15652 208.218 14.1489L213.445 8.92889L213.47 8.90311L213.497 8.87733L215.431 6.94362L215.698 6.8233L213.57 8.95038L213.545 8.97616L213.515 9.00195L208.18 14.3358C208.077 14.8552 207.997 15.3827 207.941 15.9174L214.189 9.67122L214.215 9.64544L214.24 9.61965L217.754 6.10675L217.957 6.05304L214.314 9.69378L214.289 9.71956L214.263 9.74534L207.924 16.0832C207.88 16.5486 207.854 17.0194 207.846 17.4947L214.931 10.4146L214.957 10.3888L214.982 10.3631L219.62 5.72645C219.641 5.72359 219.663 5.72042 219.685 5.71723L219.685 5.71722L219.685 5.71721L219.685 5.7172C219.721 5.71202 219.757 5.7068 219.793 5.70282L215.057 10.4372L215.031 10.463L215.005 10.4887L207.844 17.652C207.844 17.6945 207.844 17.7371 207.844 17.7798C207.844 18.1736 207.857 18.5644 207.882 18.9518L208.237 18.5974L208.263 18.5716L208.289 18.5458L215.673 11.158L215.699 11.1322L215.725 11.1064L221.244 5.58356H221.398L215.799 11.1806L215.773 11.2063L215.747 11.2321L208.363 18.6157L208.337 18.6414L208.316 18.6683L207.892 19.0922C207.922 19.497 207.965 19.898 208.022 20.2947L208.98 19.3365L209.006 19.3107L209.032 19.2849L216.416 11.9014L216.442 11.8756L216.468 11.8498L222.708 5.61041L222.847 5.61901L216.542 11.924L216.516 11.9497L216.49 11.9766L209.106 19.3601L209.08 19.3859L209.054 19.4117L208.041 20.4246C208.098 20.8052 208.168 21.1819 208.249 21.5541L209.723 20.08L209.748 20.0542L209.774 20.0284L217.159 12.6449L217.184 12.6191L217.21 12.5933L224.05 5.75336L224.18 5.77377L217.284 12.6674L217.258 12.6943L217.233 12.7201L209.848 20.1036L209.823 20.1294L209.797 20.1573L208.276 21.6768C208.357 22.0352 208.449 22.3894 208.551 22.7391L210.467 20.8244L210.492 20.7986L210.518 20.7729L217.903 13.3883L217.928 13.3625L217.954 13.3367L225.293 6.00043L225.407 6.02836H225.414L218.029 13.4119L218.002 13.4377L217.977 13.4635L210.592 20.847L210.567 20.8728L210.541 20.8986L208.585 22.8544C208.687 23.1936 208.799 23.5285 208.92 23.8588L211.212 21.5678L211.237 21.542L211.263 21.5162L218.644 14.1327L218.67 14.1069L218.696 14.0801L226.085 6.69654L226.111 6.67076L226.137 6.64498L226.459 6.32269L226.567 6.35922L226.207 6.72018L226.181 6.74596L226.155 6.77174L218.771 14.1553L218.745 14.1811L218.718 14.2068L211.334 21.5904L211.308 21.6162L211.286 21.6376L208.959 23.9638C209.08 24.286 209.21 24.6037 209.349 24.9167L211.955 22.3112L211.981 22.2855L212.007 22.2597L219.391 14.8761L219.417 14.8504L219.443 14.8246L226.827 7.44105L226.853 7.41419L226.878 7.38841L227.545 6.72235L227.652 6.76532L226.954 7.4636L226.928 7.48939L226.902 7.51517L219.518 14.8987L219.492 14.9245L219.466 14.9503L212.082 22.3338L212.056 22.3596L212.028 22.3875L209.395 25.0203C209.532 25.3245 209.678 25.624 209.832 25.9187L212.696 23.0546L212.722 23.0289L212.748 23.0031L220.132 15.6195L220.159 15.5938L220.185 15.568L227.569 8.18767L227.595 8.16189L227.62 8.1361L228.565 7.19073L228.665 7.24015L227.698 8.207L227.672 8.23279L227.646 8.25857L220.262 15.6421L220.236 15.6679L220.21 15.6937L212.826 23.0772L212.8 23.103L212.771 23.1288L209.883 26.0166C210.037 26.3079 210.2 26.5944 210.37 26.8757L213.448 23.798L213.473 23.7723L213.5 23.7465L220.885 16.3629L220.91 16.3372L220.936 16.3114L228.315 8.92892L228.341 8.90313L228.367 8.87735L229.528 7.71283L229.623 7.76869L228.441 8.9504L228.415 8.97618L228.389 9.00197L221.005 16.3855L220.979 16.4113L220.953 16.4371L213.569 23.8206L213.543 23.8464L213.525 23.87L210.426 26.9686C210.594 27.243 210.769 27.5125 210.952 27.7767L214.187 24.5415L214.213 24.5157L214.239 24.4899L221.623 17.1064L221.649 17.0806L221.675 17.0548L229.059 9.67126L229.085 9.64548L229.111 9.61969L230.435 8.2951C230.447 8.30297 230.458 8.31068 230.469 8.31841C230.487 8.33074 230.506 8.34313 230.523 8.35634L229.185 9.69382L229.159 9.7196L229.133 9.74538L221.749 17.1289L221.723 17.1547L221.697 17.1805L214.313 24.564L214.287 24.5898L214.261 24.6167L211.013 27.8649C211.195 28.1255 211.384 28.381 211.58 28.631L214.931 25.2806L214.956 25.2548L214.982 25.229L222.367 17.8455L222.392 17.8197L222.418 17.7939L229.802 10.4146L229.828 10.3889L229.854 10.3631L231.287 8.92999L231.369 8.9966L229.928 10.4372L229.902 10.463L229.877 10.4888L222.492 17.8723L222.466 17.8981L222.441 17.9239L215.053 25.3074L215.027 25.3343L215.005 25.3558L211.645 28.7142C211.843 28.964 212.048 29.2083 212.259 29.4469L215.675 26.0282L215.701 26.0024L215.726 25.9766L223.111 18.5974L223.136 18.5716L223.162 18.5458L230.546 11.158L230.572 11.1322L230.598 11.1064L232.087 9.61749L232.164 9.68947L230.678 11.1806L230.652 11.2064L230.626 11.2321L223.242 18.6157L223.216 18.6415L223.19 18.6683L215.806 26.0518L215.78 26.0776L215.753 26.1034L212.329 29.5263C212.539 29.7604 212.754 29.989 212.976 30.2116L216.415 26.7727L216.441 26.7469L216.467 26.7201L223.851 19.3365L223.877 19.3108L223.903 19.285L231.287 11.9014L231.313 11.8757L231.338 11.8499L232.833 10.3566L232.904 10.434L231.414 11.924L231.388 11.9498L231.362 11.9766L223.977 19.3602L223.951 19.386L223.925 19.4117L216.541 26.7953L216.515 26.8211L216.489 26.8468L213.05 30.2857C213.274 30.5082 213.504 30.7247 213.74 30.935L217.161 27.514L217.187 27.4882L217.213 27.4625L224.597 20.08L224.623 20.0542L224.649 20.0284L232.033 12.6449L232.059 12.6191L232.085 12.5933L233.535 11.1452L233.559 11.1751C233.573 11.193 233.587 11.2107 233.602 11.2279L232.162 12.6675L232.136 12.6943L232.11 12.7201L224.723 20.1058L224.697 20.1316L224.671 20.1573L217.287 27.5366L217.261 27.5624L217.235 27.5881L213.819 31.0047C214.056 31.2143 214.3 31.4176 214.549 31.6143L217.905 28.2595L217.931 28.2337L217.957 28.2079L225.341 20.8244L225.367 20.7986L225.393 20.7728L232.778 13.3882L232.804 13.3624L232.83 13.3367L234.179 11.9874L234.24 12.0744L232.904 13.4119L232.878 13.4376L232.852 13.4634L225.466 20.847L225.44 20.8727L225.414 20.8985L218.03 28.2821L218.003 28.3078L217.977 28.3336L214.631 31.6792C214.883 31.8755 215.139 32.0651 215.401 32.2477L218.647 29.003L218.672 28.9772L218.698 28.9514L226.082 21.5679L226.108 21.5421L226.134 21.5163L233.519 14.1328L233.545 14.107L233.571 14.0801L234.77 12.878L234.827 12.9704L233.645 14.1521L233.619 14.1779L233.593 14.2037L226.209 21.5872L226.183 21.613L226.158 21.6388L218.773 29.0223L218.748 29.0481L218.721 29.0739L215.488 32.308C215.754 32.491 216.026 32.667 216.302 32.8355L219.391 29.7463L219.417 29.7205L219.443 29.6947L226.828 22.3112L226.854 22.2854L226.88 22.2596L234.264 14.8761L234.29 14.8503L234.315 14.831L235.306 13.8394L235.357 13.9372L234.39 14.904L234.364 14.9298L234.338 14.9556L226.954 22.3391L226.928 22.3649L226.902 22.3907L219.518 29.7742L219.492 29.8L219.467 29.8258L216.396 32.8926C216.675 33.0605 216.959 33.2209 217.248 33.3736L220.129 30.4898L220.156 30.464L220.182 30.4382L227.57 23.0547L227.595 23.0289L227.621 23.0031L235.005 15.6196L235.031 15.5938L235.06 15.5648L235.785 14.8397L235.791 14.8537L235.791 14.8538C235.804 14.8862 235.816 14.917 235.829 14.9471L235.134 15.6421L235.109 15.6679L235.083 15.6937L227.698 23.0772L227.673 23.103L227.647 23.1288L220.263 30.5123L220.237 30.5381L220.211 30.5639L217.348 33.4262C217.645 33.5804 217.946 33.7264 218.252 33.8639L220.885 31.2331L220.911 31.2073L220.936 31.1816L228.315 23.798L228.341 23.7722L228.367 23.7465L235.751 16.3629L235.777 16.3371L235.798 16.3189L236.193 15.9246C236.202 15.9481 236.211 15.9744 236.22 16.0014L236.22 16.0015L236.23 16.0321L235.873 16.3887L235.847 16.4145L235.821 16.4403L228.437 23.8238L228.411 23.8496L228.385 23.8754L221.001 31.2589L220.975 31.2858L220.949 31.3116L218.352 33.9082C218.664 34.0464 218.982 34.1759 219.304 34.2961L221.624 31.9766L221.65 31.9508L221.675 31.925L229.06 24.5415L229.086 24.5157L229.111 24.4899L236.496 17.1064L236.524 17.086L236.541 17.0688L236.543 17.0772L236.545 17.0818L236.545 17.0819C236.549 17.0926 236.553 17.1035 236.553 17.115L236.569 17.1827L229.185 24.564L229.16 24.5898L229.134 24.6167L221.75 32.0002L221.724 32.026L221.698 32.0518L219.413 34.3363C219.742 34.4569 220.076 34.5679 220.415 34.6691L222.364 32.72L222.39 32.6942L222.416 32.6684L229.8 25.2849L229.826 25.2591L229.852 25.2333L236.794 18.2913L236.797 18.308L236.797 18.3081L236.797 18.3081L236.797 18.3082C236.804 18.3453 236.81 18.3818 236.816 18.4192L229.926 25.3075L229.9 25.3343L229.874 25.3601L222.49 32.7436L222.464 32.7694L222.438 32.7952L220.53 34.7031C220.881 34.8053 221.236 34.897 221.595 34.9776L223.11 33.4644L223.136 33.4386L223.162 33.4129L230.546 26.0282L230.572 26.0025L230.596 25.9767L236.96 19.6137L236.963 19.6483C236.967 19.683 236.971 19.7176 236.971 19.7523L230.671 26.0519L230.645 26.0777L230.619 26.1034L223.235 33.487L223.209 33.5128L223.183 33.5385L221.717 35.0044C222.09 35.0853 222.467 35.1544 222.848 35.2112L223.852 34.2078L223.877 34.182L223.903 34.1563L231.288 26.7727L231.313 26.747L231.332 26.7287L236.999 21.0629V21.2133L231.412 26.7996L231.386 26.8254L231.361 26.8512L223.975 34.2347L223.949 34.2605L223.924 34.2863L222.979 35.2303C223.379 35.2869 223.783 35.33 224.19 35.3593L224.598 34.9513L224.624 34.9255L224.65 34.8997L232.034 27.5162L232.06 27.4904L232.086 27.4625L236.91 22.6432L236.89 22.8119L232.163 27.5387L232.137 27.5645L232.111 27.5903L224.727 34.9717L224.701 34.9975L224.676 35.0233L224.33 35.3688C224.708 35.393 225.089 35.4052 225.472 35.4052C225.525 35.4052 225.577 35.405 225.629 35.4045L232.776 28.2596L232.802 28.2338L232.829 28.2059L236.581 24.4534L236.565 24.5192L236.565 24.5192L236.565 24.5193L236.565 24.5193C236.555 24.5632 236.544 24.6071 236.533 24.65L232.904 28.28L232.878 28.3058L232.852 28.3316L225.78 35.4026ZM233.547 28.9772L233.521 29.003L227.554 34.9696L227.812 34.8621L233.595 29.0739L233.621 29.0481L233.647 29.0223L235.756 26.9135C235.793 26.8276 235.829 26.7416 235.863 26.6557L233.571 28.9482L233.547 28.9772ZM210.339 10.6908L211.587 9.44781C211.148 9.83802 210.731 10.253 210.339 10.6908ZM233.021 31.1375L232.033 32.1258C231.73 32.4015 231.417 32.6651 231.094 32.9165L233.812 30.1985C233.561 30.5223 233.297 30.8352 233.021 31.1375Z" fill="url(#paint0_radial_1502_1901)"/>
<path opacity="0.6" fill-rule="evenodd" clip-rule="evenodd" d="M39.7861 176.596C18.2149 176.219 0.844208 158.618 0.844208 136.961C0.844208 115.068 18.5953 97.3203 40.4924 97.3203C59.5929 97.3203 75.5388 110.824 79.3003 128.804L67.5365 117.055L67.4785 116.997L67.4181 116.939L63.0686 112.59L62.4693 112.319L67.2538 117.103L67.3118 117.161L67.3794 117.219L79.3859 129.224C79.6169 130.392 79.7966 131.578 79.9226 132.78L65.8642 118.725L65.8062 118.667L65.7482 118.609L57.8466 110.708L57.3899 110.587L65.5814 118.775L65.6394 118.833L65.6974 118.891L79.96 133.152C80.0599 134.2 80.119 135.26 80.1357 136.33L64.1916 120.396L64.1336 120.338L64.0756 120.281L53.6465 109.852C53.5976 109.846 53.5483 109.839 53.4988 109.832C53.4187 109.82 53.3381 109.808 53.2575 109.799L63.9089 120.447L63.9669 120.505L64.0249 120.563L80.1397 136.683C80.1403 136.776 80.1406 136.869 80.1406 136.961C80.1406 137.851 80.1113 138.733 80.0536 139.608L79.2438 138.8L79.1858 138.742L79.1278 138.684L62.52 122.068L62.462 122.01L62.404 121.952L49.991 109.531H49.6455L62.2373 122.119L62.2953 122.177L62.3533 122.235L78.961 138.841L79.019 138.899L79.0674 138.96L80.0316 139.924C79.9643 140.834 79.8662 141.736 79.7384 142.629L77.5719 140.462L77.5139 140.404L77.4559 140.347L60.8481 123.74L60.7901 123.682L60.7321 123.624L46.6978 109.592L46.3837 109.611L60.5654 123.791L60.6234 123.849L60.6814 123.91L77.2892 140.516L77.3472 140.574L77.4052 140.632L79.6955 142.921C79.5664 143.777 79.4099 144.624 79.2269 145.462L75.9006 142.135L75.8426 142.077L75.7846 142.019L59.1768 125.412L59.1188 125.354L59.0608 125.296L43.6781 109.913L43.3857 109.959L58.8941 125.463L58.9521 125.524L59.01 125.582L75.6178 142.188L75.6758 142.246L75.7338 142.308L79.1656 145.738C78.9834 146.543 78.7767 147.34 78.5462 148.126L74.227 143.809L74.1691 143.751L74.1111 143.693L57.5033 127.084L57.4453 127.026L57.3873 126.968L40.881 110.469L40.6248 110.531H40.6103L57.2181 127.138L57.2785 127.196L57.3365 127.254L73.9443 143.86L74.0023 143.918L74.0603 143.976L78.4693 148.385C78.2399 149.149 77.9881 149.903 77.7147 150.646L72.5493 145.481L72.4913 145.423L72.4333 145.365L55.8327 128.759L55.7747 128.701L55.7168 128.64L39.0969 112.034L39.0389 111.976L38.9809 111.918L38.256 111.193L38.0143 111.276L38.8238 112.087L38.8818 112.145L38.9398 112.203L55.5476 128.81L55.6056 128.867L55.666 128.925L72.2738 145.532L72.3318 145.59L72.3825 145.638L77.627 150.882C77.3556 151.605 77.0638 152.318 76.752 153.021L70.882 147.153L70.824 147.095L70.766 147.037L54.1582 130.431L54.1002 130.373L54.0422 130.315L37.4344 113.709L37.3764 113.648L37.3185 113.59L35.8203 112.092L35.5787 112.189L37.1493 113.759L37.2073 113.817L37.2653 113.875L53.8731 130.481L53.9311 130.539L53.9891 130.597L70.5969 147.204L70.6549 147.262L70.7177 147.324L76.6477 153.254C76.3394 153.937 76.0122 154.609 75.6669 155.271L69.2198 148.825L69.1619 148.767L69.1039 148.709L52.4961 132.103L52.4357 132.045L52.3777 131.987L35.7699 115.388L35.7119 115.33L35.6539 115.272L33.5299 113.146L33.3052 113.257L35.4799 115.431L35.5379 115.489L35.5959 115.547L52.2037 132.153L52.2617 132.211L52.3197 132.269L68.9275 148.876L68.9855 148.934L69.0507 148.992L75.5512 155.491C75.2038 156.147 74.8385 156.792 74.456 157.425L67.527 150.497L67.469 150.439L67.4086 150.381L50.8008 133.775L50.7428 133.717L50.6848 133.659L34.0891 117.055L34.0311 116.997L33.9731 116.939L31.361 114.32L31.1484 114.446L33.8064 117.103L33.8644 117.161L33.9224 117.219L50.5302 133.825L50.5882 133.883L50.6461 133.941L67.2539 150.547L67.3119 150.605L67.353 150.659L74.329 157.634C73.9511 158.251 73.5567 158.857 73.1466 159.451L65.8636 152.169L65.8056 152.111L65.7476 152.053L49.1398 135.447L49.0818 135.389L49.0238 135.331L32.416 118.725L32.3581 118.667L32.3001 118.609L29.3207 115.63C29.2955 115.647 29.27 115.665 29.2444 115.682C29.2036 115.71 29.1626 115.738 29.1225 115.767L32.1333 118.775L32.1913 118.833L32.2493 118.891L48.8571 135.497L48.9151 135.555L48.9731 135.613L65.5809 152.219L65.6389 152.277L65.6969 152.338L73.0089 159.649C72.5991 160.235 72.1738 160.81 71.7337 161.372L64.192 153.831L64.134 153.773L64.076 153.715L47.4682 137.109L47.4102 137.051L47.3522 136.993L30.7445 120.396L30.6865 120.338L30.6285 120.28L27.405 117.057L27.2214 117.207L30.4617 120.447L30.5197 120.505L30.5777 120.563L47.1855 137.169L47.2435 137.227L47.3015 137.285L63.9165 153.891L63.9745 153.952L64.0253 154L71.5864 161.559C71.1414 162.12 70.6814 162.67 70.2071 163.206L62.5191 155.513L62.4611 155.455L62.4032 155.397L45.7954 138.8L45.7374 138.742L45.6794 138.684L29.0716 122.068L29.0136 122.011L28.9556 121.953L25.6065 118.604L25.4325 118.766L28.7768 122.119L28.8348 122.177L28.8928 122.235L45.5006 138.841L45.5586 138.899L45.6165 138.96L62.2243 155.566L62.2823 155.624L62.3427 155.682L70.0482 163.385C69.576 163.912 69.0899 164.427 68.5905 164.929L60.8478 157.187L60.7898 157.129L60.7318 157.069L44.124 140.462L44.066 140.404L44.008 140.346L27.4002 123.74L27.3422 123.682L27.2842 123.624L23.923 120.266L23.7636 120.44L27.1151 123.791L27.1731 123.849L27.2311 123.91L43.8413 140.516L43.8993 140.574L43.9573 140.632L60.5651 157.238L60.6231 157.296L60.6811 157.354L68.4236 165.095C67.9207 165.595 67.4045 166.08 66.8756 166.552L59.1769 158.854L59.1189 158.796L59.0609 158.738L42.4531 142.134L42.3951 142.076L42.3371 142.018L25.7293 125.412L25.6713 125.354L25.6133 125.296L22.3512 122.039C22.333 122.062 22.3152 122.084 22.2974 122.107C22.2656 122.147 22.234 122.187 22.2014 122.225L25.4393 125.463L25.4973 125.523L25.5553 125.581L42.1704 142.192L42.2284 142.25L42.2863 142.308L58.8941 158.905L58.9521 158.963L59.0101 159.021L66.6989 166.709C66.1638 167.18 65.616 167.638 65.0559 168.08L57.5027 160.531L57.4447 160.473L57.3867 160.415L40.7789 143.809L40.7209 143.751L40.6629 143.693L24.0527 127.084L23.9947 127.026L23.9367 126.968L20.9018 123.934L20.764 124.129L23.77 127.138L23.828 127.195L23.886 127.253L40.4986 143.86L40.5566 143.918L40.6146 143.976L57.2224 160.582L57.2828 160.64L57.3408 160.698L64.87 168.226C64.3039 168.668 63.7254 169.095 63.1352 169.506L55.8311 162.203L55.7731 162.145L55.7152 162.087L39.1074 145.481L39.0494 145.423L38.9914 145.365L22.3812 128.759L22.3232 128.701L22.2652 128.64L19.5685 125.937L19.4404 126.144L22.0985 128.802L22.1564 128.86L22.2144 128.918L38.8222 145.524L38.8802 145.582L38.9382 145.64L55.546 162.246L55.604 162.304L55.6644 162.362L62.9396 169.642C62.3419 170.053 61.7324 170.448 61.1117 170.826L54.1593 163.875L54.1013 163.817L54.0433 163.759L37.4331 147.153L37.3751 147.095L37.3171 147.037L20.7093 130.431L20.6513 130.373L20.5958 130.329L18.3654 128.099L18.2519 128.319L20.4266 130.494L20.4846 130.551L20.5426 130.609L37.1504 147.216L37.2084 147.274L37.2664 147.332L53.8742 163.938L53.9321 163.996L53.9901 164.054L60.9 170.955C60.2711 171.333 59.631 171.694 58.98 172.038L52.4947 165.547L52.4343 165.489L52.3763 165.431L35.7612 148.825L35.7032 148.767L35.6453 148.709L19.0375 132.103L18.9795 132.045L18.9142 131.979L17.2832 130.349L17.2705 130.38C17.2414 130.453 17.2137 130.523 17.1841 130.59L18.7475 132.153L18.8055 132.211L18.8635 132.269L35.4713 148.875L35.5293 148.933L35.5873 148.991L52.1951 165.597L52.253 165.655L52.311 165.713L58.7543 172.156C58.0886 172.502 57.4119 172.83 56.7247 173.138L50.8014 167.219L50.7434 167.161L50.6854 167.103L34.0897 150.497L34.0317 150.439L33.9737 150.381L17.3659 133.775L17.3079 133.717L17.2596 133.676L16.3728 132.789C16.3517 132.842 16.3318 132.901 16.3114 132.962C16.3038 132.984 16.2961 133.007 16.2882 133.03L17.0929 133.833L17.1509 133.891L17.2088 133.949L33.8166 150.555L33.8746 150.613L33.9326 150.671L50.5404 167.277L50.5984 167.337L50.6564 167.395L56.5013 173.238C55.7981 173.549 55.0842 173.839 54.3602 174.11L49.1406 168.891L49.0826 168.833L49.0247 168.775L32.4169 152.169L32.3589 152.111L32.3009 152.053L15.6931 135.447L15.6303 135.401L15.5916 135.362C15.5889 135.371 15.5856 135.381 15.5822 135.391L15.5821 135.391L15.582 135.391L15.582 135.391C15.5735 135.416 15.565 135.44 15.565 135.466L15.5288 135.618L32.1341 152.219L32.1921 152.277L32.2501 152.338L48.8579 168.944L48.9159 169.002L48.9739 169.06L54.1161 174.2C53.3728 174.472 52.6192 174.722 51.8558 174.95L47.4681 170.563L47.4101 170.505L47.3521 170.447L30.7443 153.841L30.6863 153.783L30.6283 153.725L15.0137 138.112L15.007 138.15C14.9924 138.233 14.9779 138.315 14.9653 138.399L30.4616 153.891L30.5196 153.952L30.5776 154.01L47.1854 170.616L47.2434 170.674L47.3014 170.732L51.5965 175.026C50.8088 175.256 50.0109 175.461 49.2038 175.642L45.7954 172.237L45.7375 172.179L45.6795 172.121L29.0717 155.513L29.0137 155.455L28.9581 155.397L14.6459 141.086L14.6432 141.114L14.638 141.164C14.6299 141.242 14.6217 141.32 14.6217 141.397L28.7914 155.566L28.8494 155.624L28.9074 155.682L45.5151 172.288L45.5731 172.346L45.6311 172.404L48.9302 175.702C48.0908 175.884 47.2414 176.04 46.3831 176.168L44.1243 173.909L44.0663 173.851L44.0083 173.793L27.4005 157.187L27.3425 157.129L27.3014 157.088L14.555 144.345V144.683L27.1202 157.247L27.1782 157.305L27.2362 157.363L43.8464 173.969L43.9044 174.027L43.9624 174.085L46.0876 176.21C45.1911 176.337 44.2849 176.434 43.3701 176.499L42.4518 175.581L42.3938 175.523L42.3358 175.465L25.728 158.859L25.6701 158.801L25.6121 158.738L14.7625 147.899L14.806 148.279L25.4381 158.91L25.4961 158.968L25.5541 159.026L42.1619 175.627L42.2198 175.685L42.2778 175.743L43.0556 176.521C42.2081 176.575 41.3535 176.602 40.4924 176.602C40.3703 176.602 40.2483 176.602 40.1264 176.6L24.0529 160.531L23.9949 160.473L23.9321 160.41L15.4941 151.971C15.5016 152.001 15.5089 152.031 15.5163 152.062L15.5298 152.118L15.5298 152.118L15.5298 152.119C15.5535 152.217 15.5771 152.316 15.6029 152.413L23.7654 160.577L23.8234 160.635L23.8814 160.693L39.7861 176.596ZM22.3244 162.145L22.3824 162.203L35.803 175.622L35.2231 175.38L22.2157 162.362L22.1577 162.304L22.0997 162.246L17.3563 157.503C17.2726 157.31 17.192 157.117 17.1147 156.924L22.2713 162.08L22.3244 162.145ZM74.5146 121.018L71.7068 118.222C72.6952 119.1 73.6326 120.033 74.5146 121.018ZM23.504 167.004L25.727 169.227C26.4068 169.847 27.1108 170.439 27.839 171.005L21.7255 164.892C22.2893 165.62 22.8821 166.324 23.504 167.004Z" fill="url(#paint1_radial_1502_1901)"/>
<defs>
<radialGradient id="paint0_radial_1502_1901" cx="0" cy="0" r="1" gradientUnits="userSpaceOnUse" gradientTransform="translate(235.181 7.79483) rotate(44.9947) scale(27.534)">
<stop stop-color="#AAFF00"/>
<stop offset="1" stop-color="#00FFE0" stop-opacity="0"/>
</radialGradient>
<radialGradient id="paint1_radial_1502_1901" cx="0" cy="0" r="1" gradientUnits="userSpaceOnUse" gradientTransform="translate(18.6562 114.504) rotate(135.005) scale(61.9259)">
<stop stop-color="#AAFF00"/>
<stop offset="1" stop-color="#00FFE0" stop-opacity="0"/>
</radialGradient>
</defs>
</svg>
